<?xml version="1.0" encoding="UTF-8" standalone="no"?>
<!-- Created with Inkscape (http://www.inkscape.org/) -->

<svg
   xmlns:dc="http://purl.org/dc/elements/1.1/"
   xmlns:cc="http://creativecommons.org/ns#"
   xmlns:rdf="http://www.w3.org/1999/02/22-rdf-syntax-ns#"
   xmlns="http://www.w3.org/2000/svg"
   xmlns:xlink="http://www.w3.org/1999/xlink"
   version="1.1"
   width="22"
   height="46"
   viewBox="0 0 22 46"
   xml:space="preserve"><metadata
   id="metadata63"><rdf:RDF><cc:Work
       rdf:about=""><dc:format>image/svg+xml</dc:format><dc:type
         rdf:resource="http://purl.org/dc/dcmitype/StillImage" /><dc:title></dc:title></cc:Work></rdf:RDF></metadata><defs
   id="defs61"><linearGradient
     id="linearGradient3808"><stop
       id="stop3810"
       style="stop-color:#00a4db;stop-opacity:1"
       offset="0" /><stop
       id="stop3812"
       style="stop-color:#d4f4ff;stop-opacity:1"
       offset="1" /></linearGradient><linearGradient
     x1="0"
     y1="11.5"
     x2="11"
     y2="11.5"
     id="linearGradient3818"
     xlink:href="#linearGradient3808"
     gradientUnits="userSpaceOnUse" /></defs>
    <g transform="scale(2)">
<path
   d="m 5.5,22.5 c -2.762,0 -5,-2.238 -5,-5 v -12 c 0,-2.762 2.238,-5 5,-5 2.762,0 5,2.238 5,5 v 12 c 0,2.762 -2.238,5 -5,5 z"
   id="path3"
   style="fill:url(#linearGradient3818);fill-opacity:1;stroke:#000000;stroke-miterlimit:10" />
<g
   id="g5">
	<g
   id="g7">
		<circle
   cx="7.29"
   cy="15.534"
   r="0.91500002"
   id="circle9"
   style="opacity:0.35" />
		<circle
   cx="7.29"
   cy="11.501"
   r="0.91500002"
   id="circle11"
   style="opacity:0.35" />
		<circle
   cx="7.4229999"
   cy="7.4679999"
   r="0.91600001"
   id="circle13"
   style="opacity:0.35" />
		<g
   id="g15">
			<path
   d="M 8.071,8.112 C 7.908,8.28 7.675,8.382 7.425,8.382 6.918,8.382 6.508,7.975 6.508,7.466 c 0,-0.251 0.103,-0.479 0.27,-0.645"
   id="path17"
   style="fill:none;stroke:#ffffff;stroke-width:0.25;stroke-linecap:round;stroke-miterlimit:10" />
			<path
   d="M 6.777,6.821 C 6.942,6.653 7.17,6.551 7.424,6.551 7.93,6.551 8.34,6.958 8.34,7.465 8.34,7.72 8.236,7.948 8.07,8.111"
   id="path19"
   style="fill:none;stroke:#000000;stroke-width:0.25;stroke-linecap:round;stroke-miterlimit:10" />
		</g>
		<g
   id="g21">
			<path
   d="m 7.938,12.148 c -0.165,0.168 -0.396,0.269 -0.646,0.269 -0.507,0 -0.916,-0.407 -0.916,-0.916 0,-0.251 0.104,-0.481 0.267,-0.645"
   id="path23"
   style="fill:none;stroke:#ffffff;stroke-width:0.25;stroke-linecap:round;stroke-miterlimit:10" />
			<path
   d="m 6.642,10.856 c 0.167,-0.168 0.396,-0.269 0.649,-0.269 0.507,0 0.914,0.407 0.914,0.914 0,0.253 -0.102,0.483 -0.268,0.647"
   id="path25"
   style="fill:none;stroke:#000000;stroke-width:0.25;stroke-linecap:round;stroke-miterlimit:10" />
		</g>
		<g
   id="g27">
			<path
   d="m 7.938,16.184 c -0.165,0.163 -0.396,0.265 -0.646,0.265 -0.507,0 -0.916,-0.407 -0.916,-0.914 0,-0.253 0.104,-0.481 0.267,-0.646"
   id="path29"
   style="fill:none;stroke:#ffffff;stroke-width:0.25;stroke-linecap:round;stroke-miterlimit:10" />
			<path
   d="m 6.642,14.888 c 0.167,-0.164 0.396,-0.27 0.649,-0.27 0.507,0 0.914,0.412 0.914,0.916 0,0.253 -0.102,0.481 -0.268,0.649"
   id="path31"
   style="fill:none;stroke:#000000;stroke-width:0.25;stroke-linecap:round;stroke-miterlimit:10" />
		</g>
	</g>
	<g
   id="g33">
		<circle
   cx="3.575"
   cy="11.501"
   r="0.91600001"
   id="circle35"
   style="opacity:0.35" />
		<circle
   cx="3.575"
   cy="15.534"
   r="0.91600001"
   id="circle37"
   style="opacity:0.35" />
		<circle
   cx="3.7090001"
   cy="7.4679999"
   r="0.91500002"
   id="circle39"
   style="opacity:0.35" />
		<g
   id="g41">
			<path
   d="M 4.356,8.112 C 4.191,8.28 3.961,8.382 3.709,8.382 3.203,8.382 2.794,7.975 2.794,7.466 2.794,7.215 2.897,6.987 3.062,6.821"
   id="path43"
   style="fill:none;stroke:#ffffff;stroke-width:0.25;stroke-linecap:round;stroke-miterlimit:10" />
			<path
   d="m 3.062,6.821 c 0.166,-0.168 0.394,-0.27 0.647,-0.27 0.505,0 0.916,0.407 0.916,0.914 0,0.255 -0.103,0.483 -0.268,0.646"
   id="path45"
   style="fill:none;stroke:#000000;stroke-width:0.25;stroke-linecap:round;stroke-miterlimit:10" />
		</g>
		<g
   id="g47">
			<path
   d="m 4.223,12.148 c -0.167,0.168 -0.395,0.269 -0.647,0.269 -0.505,0 -0.917,-0.407 -0.917,-0.916 0,-0.251 0.103,-0.481 0.269,-0.645"
   id="path49"
   style="fill:none;stroke:#ffffff;stroke-width:0.25;stroke-linecap:round;stroke-miterlimit:10" />
			<path
   d="m 2.928,10.856 c 0.165,-0.168 0.395,-0.269 0.647,-0.269 0.506,0 0.914,0.407 0.914,0.914 0,0.253 -0.102,0.483 -0.267,0.647"
   id="path51"
   style="fill:none;stroke:#000000;stroke-width:0.25;stroke-linecap:round;stroke-miterlimit:10" />
		</g>
		<g
   id="g53">
			<path
   d="m 4.223,16.184 c -0.167,0.163 -0.395,0.265 -0.647,0.265 -0.505,0 -0.917,-0.407 -0.917,-0.914 0,-0.253 0.103,-0.481 0.269,-0.646"
   id="path55"
   style="fill:none;stroke:#ffffff;stroke-width:0.25;stroke-linecap:round;stroke-miterlimit:10" />
			<path
   d="m 2.928,14.888 c 0.165,-0.164 0.395,-0.27 0.647,-0.27 0.506,0 0.914,0.412 0.914,0.916 0,0.253 -0.102,0.481 -0.267,0.649"
   id="path57"
   style="fill:none;stroke:#000000;stroke-width:0.25;stroke-linecap:round;stroke-miterlimit:10" />
		</g>
	</g>
</g>
    </g>
</svg>