<?xml version="1.0" encoding="UTF-8" standalone="no"?>
<!-- Created with Inkscape (http://www.inkscape.org/) -->

<svg
        xmlns:dc="http://purl.org/dc/elements/1.1/"
        xmlns:cc="http://creativecommons.org/ns#"
        xmlns:rdf="http://www.w3.org/1999/02/22-rdf-syntax-ns#"
        xmlns="http://www.w3.org/2000/svg"
        xmlns:sodipodi="http://sodipodi.sourceforge.net/DTD/sodipodi-0.dtd"
        xmlns:inkscape="http://www.inkscape.org/namespaces/inkscape"
        width="1536"
        height="1536"
        id="svg3538"
        version="1.1"
        inkscape:version="0.48.4 r9939"
        sodipodi:docname="icon-refresh.svg">
    <defs
            id="defs3540"/>
    <sodipodi:namedview
            id="base"
            pagecolor="#ffffff"
            bordercolor="#666666"
            borderopacity="1.0"
            inkscape:pageopacity="0.0"
            inkscape:pageshadow="2"
            inkscape:zoom="0.35"
            inkscape:cx="375"
            inkscape:cy="875.63782"
            inkscape:document-units="px"
            inkscape:current-layer="layer1"
            showgrid="false"
            inkscape:window-width="1143"
            inkscape:window-height="824"
            inkscape:window-x="1190"
            inkscape:window-y="127"
            inkscape:window-maximized="0"
            fit-margin-top="0"
            fit-margin-left="0"
            fit-margin-right="0"
            fit-margin-bottom="0"/>
    <metadata
            id="metadata3543">
        <rdf:RDF>
            <cc:Work
                    rdf:about="">
                <dc:format>image/svg+xml</dc:format>
                <dc:type
                        rdf:resource="http://purl.org/dc/dcmitype/StillImage"/>
                <dc:title/>
            </cc:Work>
        </rdf:RDF>
    </metadata>
    <g
            inkscape:label="Layer 1"
            inkscape:groupmode="layer"
            id="layer1"
            transform="translate(0,128)">
        <path
                d="m 1511,480 q 0,-5 -1,-7 Q 1446,205 1242,38.5 1038,-128 764,-128 618,-128 481.5,-73 345,-18 238,84 L 109,-45 Q 90,-64 64,-64 38,-64 19,-45 0,-26 0,0 v 448 q 0,26 19,45 19,19 45,19 h 448 q 26,0 45,-19 19,-19 19,-45 0,-26 -19,-45 L 420,266 q 71,-66 161,-102 90,-36 187,-36 134,0 250,65 116,65 186,179 11,17 53,117 8,23 30,23 h 192 q 13,0 22.5,-9.5 9.5,-9.5 9.5,-22.5 z m 25,800 V 832 q 0,-26 -19,-45 -19,-19 -45,-19 h -448 q -26,0 -45,19 -19,19 -19,45 0,26 19,45 l 138,138 Q 969,1152 768,1152 634,1152 518,1087 402,1022 332,908 321,891 279,791 271,768 249,768 H 50 Q 37,768 27.5,777.5 18,787 18,800 v 7 q 65,268 270,434.5 205,166.5 480,166.5 146,0 284,-55.5 138,-55.5 245,-156.5 l 130,129 q 19,19 45,19 26,0 45,-19 19,-19 19,-45 z"
                id="path7"
                inkscape:connector-curvature="0"/>
    </g>
</svg>
