<?xml version="1.0" encoding="UTF-8" standalone="no"?>
<!-- Created with Inkscape (http://www.inkscape.org/) -->

<svg
        xmlns:dc="http://purl.org/dc/elements/1.1/"
        xmlns:cc="http://creativecommons.org/ns#"
        xmlns:rdf="http://www.w3.org/1999/02/22-rdf-syntax-ns#"
        xmlns="http://www.w3.org/2000/svg"
        xmlns:sodipodi="http://sodipodi.sourceforge.net/DTD/sodipodi-0.dtd"
        xmlns:inkscape="http://www.inkscape.org/namespaces/inkscape"
        width="1663"
        height="1408"
        id="svg3538"
        version="1.1"
        inkscape:version="0.48.4 r9939"
        sodipodi:docname="icon-check.svg">
    <defs
            id="defs3540"/>
    <sodipodi:namedview
            id="base"
            pagecolor="#ffffff"
            bordercolor="#666666"
            borderopacity="1.0"
            inkscape:pageopacity="0.0"
            inkscape:pageshadow="2"
            inkscape:zoom="0.35"
            inkscape:cx="375"
            inkscape:cy="875.63782"
            inkscape:document-units="px"
            inkscape:current-layer="layer1"
            showgrid="false"
            inkscape:window-width="1143"
            inkscape:window-height="824"
            inkscape:window-x="1190"
            inkscape:window-y="127"
            inkscape:window-maximized="0"
            fit-margin-top="0"
            fit-margin-left="0"
            fit-margin-right="0"
            fit-margin-bottom="0"/>
    <metadata
            id="metadata3543">
        <rdf:RDF>
            <cc:Work
                    rdf:about="">
                <dc:format>image/svg+xml</dc:format>
                <dc:type
                        rdf:resource="http://purl.org/dc/dcmitype/StillImage"/>
                <dc:title/>
            </cc:Work>
        </rdf:RDF>
    </metadata>
    <g
            inkscape:label="Layer 1"
            inkscape:groupmode="layer"
            id="layer1">
        <path
                d="m 1408,802 0,318 q 0,119 -84.5,203.5 Q 1239,1408 1120,1408 l -832,0 Q 169,1408 84.5,1323.5 0,1239 0,1120 L 0,288 Q 0,169 84.5,84.5 169,0 288,0 l 832,0 q 63,0 117,25 15,7 18,23 3,17 -9,29 l -49,49 q -10,10 -23,10 -3,0 -9,-2 -23,-6 -45,-6 l -832,0 q -66,0 -113,47 -47,47 -47,113 l 0,832 q 0,66 47,113 47,47 113,47 l 832,0 q 66,0 113,-47 47,-47 47,-113 l 0,-254 q 0,-13 9,-22 l 64,-64 q 10,-10 23,-10 6,0 12,3 20,8 20,29 z m 231,-489 -814,814 q -24,24 -57,24 -33,0 -57,-24 L 281,697 q -24,-24 -24,-57 0,-33 24,-57 L 391,473 q 24,-24 57,-24 33,0 57,24 L 768,736 1415,89 q 24,-24 57,-24 33,0 57,24 l 110,110 q 24,24 24,57 0,33 -24,57 z"
                id="path7"
                inkscape:connector-curvature="0"/>
    </g>
</svg>
