<?xml version="1.0" encoding="UTF-8"?><svg id="Africa" xmlns="http://www.w3.org/2000/svg" width="107" height="161" viewBox="0 0 107 161"><defs><style>.cls-1{fill:#010101;}.cls-1,.cls-2,.cls-3,.cls-4,.cls-5,.cls-6,.cls-7,.cls-8,.cls-9,.cls-10{stroke-width:0px;}.cls-2{fill:#46678a;}.cls-11{stroke-linejoin:round;}.cls-11,.cls-12{fill:none;stroke:#000;stroke-linecap:round;stroke-width:.6px;}.cls-3{fill:#574538;}.cls-4{fill:#2f3d52;}.cls-5{fill:#cda266;}.cls-12{stroke-miterlimit:10;}.cls-6{fill:#845d3d;}.cls-7{fill:#e4b694;}.cls-8{fill:#636668;}.cls-9{fill:#1c1c1c;}.cls-10{fill:#222427;}</style></defs><path class="cls-1" d="M89.2,26.6c.5,0,.9.8.9,1.8s-.4,1.8-.9,1.8-.9-.8-.9-1.8.4-1.8.9-1.8Z"/><path class="cls-9" d="M84.7,23.5c-.2,0-1.2-3.1.6-3.7,1.6-.6,8.1.7,8.1,2.9-.3.6-4.6,0-8.7.9Z"/><path class="cls-9" d="M72.1,20.1c2.1,0,4.4.8,3.5,3.5-1.8-.5-6.4-.4-8.6.4-.2-1.9,2.9-3.8,5-3.9Z"/><path class="cls-9" d="M79.7,39.6c2.6,0,6.8.8,9.4,1.2.6,2.6.4,3.9.8,6.3,4.9-1.8,9.9-11.5,9.9-16.9.2,2.2,0,6.4,0,6.4,0,.2-.2.5-.2.7-1.9,5.8-4.8,10.4-6.5,12.2-2.2,2.4-5.7,5.4-10.3,6.1-.7.1-1.3.2-2,.2-2.9-.5-5.2-1.9-7.1-3.6-4.2-3.9-6.3-9.7-7.1-12.8,1,2.8,4.5,7.6,5.2,7.4.3-1.5.7-4.1,1-5.7,2-.5,5.1-1.6,7-1.6ZM79.6,40.9c-.8-.1-5.1,1.3-5.7,1.9-.4.4-.2,4,.4,5,.6.9,1.6,1.3,2.5,1.6,2.5.8,5.2.8,7.7,0,1.3-.4,2.6-1.1,3.1-2.3.3-.9.4-4.5-.1-4.9-.7-.4-6.9-1.1-7.9-1.2Z"/><path class="cls-1" d="M70.9,28.5c0-1,.4-1.8.8-1.8s.8.8.8,1.8-.4,1.8-.8,1.8-.8-.8-.8-1.8Z"/><path class="cls-5" d="M76.1,59.6c-1.9.2-4,.8-6.1,1.4h0c.8-.9,1.9-3.1,2.8-5.2.5,1,1.8,1.9,4.5,1.7,1.7-.2,3.7-.4,5.7-.8,3.6-.7,7.4-1.8,9.7-3.2,0-.5,0-.9,0-1.3h0c.9.9,1.6,1.9,2.3,2.9-2.9,2.2-7.4,2.7-10.9,3.4v.2c-3.3.1-7,.7-8,.8Z"/><path class="cls-5" d="M66.4,83.4c1.3-.2,2.7-.4,4.1-.7-.8,5.8-1.3,11.8-2,14.6,0,0-2.1-.1-3.6-.4.4-3.4,0-1,1.7-13v-.4Z"/><path class="cls-4" d="M38.6,146.9c-6,4.2-8.5.4-13.9-2.6-.5-7.8-1.3-9.2-2.6-18.8h0c5.4,3.2,11.8,5.3,18.1,6.3h0c-1,5.9-1.3,10.8-1.6,14.7,0,.2,0,.3,0,.5Z"/><path class="cls-10" d="M24.7,144.3c5.4,3.1,7.9,6.8,13.9,2.6,0-.2,0-.3,0-.5h.1c1.6,1.6,2.9,3.5,3.3,5.6.4,2.2.7,5.8-1,7.2-1.5,1.1-3.3,1-5.2,1.1-10,.6-32.3.6-32.9-.1-1.4-1.7-5-9.7,1.6-10.4,6.6-.7,15-1.2,20.1-5.5Z"/><path class="cls-8" d="M20.2,92.2c.8,0,1.6,0,2.2,0-.8,0-1.6,0-2.3.2h0Z"/><path class="cls-7" d="M19.6,95.7c.6.2,1.3.3,1.8.4-.7,0-1.3,0-1.9.1,0-.2,0-.4,0-.5Z"/><path class="cls-2" d="M95.1,55.1h0c-2.9,2.2-7.4,2.7-10.9,3.4v.2c-3.3.1-7,.7-8,.8-1.9.2-4,.8-6.1,1.4-1.9.6-3.7,1.2-5.4,1.8-4.9,1.5-10.1,3.3-17.7,5.5h0c-3.2-2.9-6.8-3.2-12-2.8-3.2.2-7.5,2.8-9,6.8-2.6.2-6.4.8-8,3.1-1.5,2.2-1.3,8.3,1,10,1.9-.5,4.6-.5,5.6.5.3.3.4.6.3,1-.2,1.5-2,1.6-3.8,1.6h0c1.3,0,2.5.1,3,.6,2.5,2.4.7,2.8-1.5,3,.7,0,1.3.2,1.6.7,2,2.9-.2,3.2-2.6,3.3.5.1,1,.3,1.3.4,4.1,2.2-.4,3.1-3.1,2.3-.1,0-.3,0-.4,0,0,.4-.1.8-.1,1.2-.5,5.4-3,19.8-3,20.5,1.8,1.8,3.9,3.4,6.2,4.8,5.4,3.3,11.8,5.4,18.1,6.3,1.8.3,3.6.5,5.3.6,2.4,6,5.2,13,5.6,13.8,3.5,6.5,7.2,10.8,12.8,12.8,5.6,2.1,8,1.1,14.2.7,4.8-.3,18.4-3.7,17.8-16.2.1-1.3,0-24.9,0-26.2,0-8.6.5-13.7,1.6-20.8,1-6.2,2-13.4,2.5-19.8.4-4.2,0-13.8-5.1-21.5ZM62.5,99.5c-.2-.4-.4-.7-.6-1-1.7-2.7-4.3-10-6.3-13.2h0c.5-.1,1-.2,1.5-.3,2.4-.4,4.6-.8,6.7-1.2,0,2.4-1.3,13.2-1.3,15.7ZM68.4,97.2s-2.1-.1-3.6-.4c.4-3.4,0-1,1.7-13v-.4c1.3-.2,2.6-.4,4-.7-.8,5.8-1.3,11.8-2,14.6Z"/><path class="cls-6" d="M103.4,27.1c.9-4.5.4-7.6-.2-12.2-1-7-5.5-10.3-8.9-12.3-4.2-2.4-7.9-2.4-12.8-2.4-13.1,0-16.8,10.5-17.3,14-.5,3.3-1.6,8.7-.7,13h0c-.2,0-.4.2-.5.4-.3.3-.4.7-.5,1-.7,2.7-.1,6.5,3.6,8.4.1.6.3,1.2.4,1.8,0,.2,0,.4.1.6,1,2.8,4.5,7.6,5.2,7.4.3-1.5.7-4.1,1-5.7,2-.5,5.1-1.6,7-1.6,2.6,0,6.8.8,9.4,1.2.6,2.6.4,3.9.8,6.3,4.9-1.8,9.9-11.5,9.9-16.9.2,2.2,0,6.4,0,6.4,0,.2-.2.5-.2.7l.5.2c.9.6,2.7,0,3.5-2.3.7-2.1,2.6-6.9,0-8ZM71.7,30.2c-.4,0-.8-.8-.8-1.8s.4-1.8.8-1.8.8.8.8,1.8-.3,1.8-.8,1.8ZM75.7,23.6c-1.8-.5-6.4-.4-8.6.4-.2-1.9,2.9-3.8,5-3.9,2.1,0,4.4.8,3.5,3.5ZM89.2,30.2c-.5,0-.9-.8-.9-1.8s.4-1.8.9-1.8.9.8.9,1.8-.4,1.8-.9,1.8ZM84.7,23.5c-.2,0-1.2-3.1.6-3.7,1.6-.6,8.1.7,8.1,2.9-.3.6-4.6,0-8.7.9Z"/><path class="cls-6" d="M76.9,49.3c2.5.8,5.2.8,7.7,0,1.3-.4,2.6-1.1,3.1-2.3.3-.9.4-4.5-.1-4.9-.7-.4-6.9-1.1-7.9-1.2-.8-.1-5.1,1.3-5.7,1.9-.4.4-.2,4,.4,5,.6.9,1.6,1.3,2.5,1.6Z"/><path class="cls-6" d="M82.8,55.7c-.7.1-1.3.2-2,.2-2.9-.5-5.2-1.9-7.1-3.6,0,.6-.3,2.1-1,3.6.5,1,1.8,1.9,4.5,1.7,1.7-.2,3.7-.4,5.7-.8,3.6-.7,7.4-1.8,9.7-3.2,0-.5,0-.9,0-1.3,0-.9.1-1.7.3-2.7-2.2,2.4-5.7,5.4-10.3,6.1Z"/><path class="cls-6" d="M24.8,86.9c0-.4,0-.8-.3-1-1-1-3.7-.9-5.6-.5-.9.2-1.6.5-1.8.8-1.7,2.2,1,2.2,3.5,2.2.2,0,.3,0,.5,0,1.8,0,3.6,0,3.8-1.6Z"/><path class="cls-6" d="M23.9,89.1c-.5-.4-1.7-.5-3-.6-.2,0-.3,0-.5,0-1.7,0-3.3.1-3.7,1.4-.9,2.5,1.2,2.4,3.4,2.3.8,0,1.6,0,2.2,0,2.2-.2,4-.7,1.5-3Z"/><path class="cls-6" d="M18.7,92.6c-2.8,1.9-1.1,2.6.9,3.1.6.2,1.3.3,1.8.4,2.4-.1,4.6-.5,2.6-3.3-.3-.4-.9-.6-1.6-.7-.8,0-1.6,0-2.3.2-.6,0-1.2.2-1.4.3Z"/><path class="cls-6" d="M17.7,96.9c-.5.8-.4,1.3,0,1.6.3.2.8.4,1.4.4.1,0,.3,0,.4,0,2.7.8,7.3-.1,3.1-2.3-.3-.2-.8-.3-1.3-.4-.7,0-1.3,0-1.9.1-.9,0-1.6.2-1.8.6Z"/><path class="cls-3" d="M103.4,27.1c-1.8-.7-3.4.1-3.6,2.3,0,0,0-.2,0-.2,0,0-.9-14.1-5.8-18.1-3.7-3-8-3.3-13.7-3.3-8.8,0-13.6,3.7-15.6,11.8-.6,2.3-.6,5.2-.5,7.6h-.2c-.2,0-.4,0-.5,0h0c-.9-4.4.2-9.8.7-13.1.5-3.4,4.2-14,17.3-14,4.9,0,8.5,0,12.8,2.4,3.5,2,7.9,5.2,8.9,12.3.7,4.6,1.2,7.6.2,12.2Z"/><path class="cls-11" d="M18.8,85.5c-2.3-1.7-2.5-7.8-1-10,1.6-2.3,5.4-2.9,8-3.1,7-.5,13.4-1.9,19.7-3.7.4-.1.9-.3,1.3-.4,7.6-2.2,12.8-4.1,17.7-5.5,1.7-.5,3.5-1.2,5.4-1.8,2.1-.7,4.2-1.2,6.1-1.4,1-.1,4.7-.7,8-.8,2,0,3.9,0,5.1.4"/><path class="cls-11" d="M96,75.9c-3.2,5.7-17.1,5.4-22.6,6.3-1,.2-2,.3-2.9.5-1.4.2-2.8.5-4.1.7-.9.1-1.7.3-2.6.4-2.1.4-4.3.7-6.7,1.2-.5,0-1,.2-1.5.3-6.2,1-10.4,1.3-16.8,1.7-5,.3-9.6-.2-14.4-1.1"/><path class="cls-11" d="M63.8,83.8h0c0,2.4-1.3,13.2-1.3,15.7h0"/><path class="cls-11" d="M95.1,55.1c5.2,7.7,5.5,17.3,5.1,21.5-.5,6.4-1.5,13.6-2.5,19.8-1.1,7.1-1.5,12.2-1.6,20.8,0,1.3,0,24.9,0,26.2"/><path class="cls-11" d="M92.8,52.2c.9.9,1.6,1.9,2.3,2.9"/><path class="cls-11" d="M55.6,85.3c2,3.2,4.5,10.4,6.3,13.2.2.3.4.6.6,1,4.5,7.9,15.9,33,18,37.3"/><path class="cls-11" d="M42.1,123.4c0-3.4-4-19-2.9-21"/><path class="cls-11" d="M22.1,125.4c1.2,9.6,2,11,2.6,18.8,5.4,3.1,7.9,6.8,13.9,2.6,0-.2,0-.3,0-.5.3-3.9.7-8.7,1.6-14.6"/><path class="cls-11" d="M19.1,98.9c0,.4-.1.8-.1,1.2-.5,5.4-3,19.8-3,20.5"/><path class="cls-11" d="M19.6,95.7c0,.2,0,.4,0,.5"/><path class="cls-11" d="M20.2,92.2h0"/><path class="cls-11" d="M21,88.5h0"/><path class="cls-11" d="M96.1,143.5c.6,12.5-13.1,15.9-17.8,16.2-6.2.4-8.6,1.3-14.2-.7-5.6-2-9.3-6.3-12.8-12.8-.4-.8-3.2-7.8-5.6-13.8-1.7-4.4-3.3-8.3-3.4-8.9"/><path class="cls-11" d="M25.8,72.4c1.5-4.1,5.8-6.6,9-6.8,5.2-.4,8.8-.1,12,2.7"/><path class="cls-11" d="M73.7,52.2c0,.6-.3,2.1-1,3.6-.8,2-2,4.2-2.8,5"/><path class="cls-12" d="M19.6,98.9c2.7.8,7.3-.1,3.1-2.3-.3-.2-.8-.3-1.3-.4-.6-.1-1.2-.3-1.8-.4-2-.5-3.6-1.2-.9-3.1.3-.2.8-.3,1.4-.3.7,0,1.5,0,2.3-.2,2.2-.2,4-.7,1.5-3-.5-.4-1.7-.5-3-.6-.2,0-.3,0-.5,0-2.5,0-5.2,0-3.5-2.2.3-.3,1-.6,1.8-.8,1.9-.5,4.6-.5,5.6.5.3.3.4.6.3,1-.2,1.5-2,1.6-3.8,1.6-.2,0-.3,0-.5,0-1.7,0-3.3.1-3.7,1.4-.9,2.5,1.2,2.4,3.4,2.3.8,0,1.6,0,2.2,0,.7,0,1.3.2,1.6.7,2,2.9-.2,3.2-2.6,3.3-.7,0-1.3,0-1.9.1-.9,0-1.6.2-1.8.6-.5.8-.4,1.3,0,1.6.3.2.8.4,1.4.4.1,0,.3,0,.4,0"/><path class="cls-12" d="M15.9,120.6c1.8,1.8,3.9,3.4,6.2,4.8,5.4,3.3,11.8,5.4,18.1,6.3,1.8.3,3.6.5,5.3.6"/><path class="cls-12" d="M24.7,144.3c-5,4.3-13.5,4.8-20.1,5.5-6.6.7-3,8.8-1.6,10.4.6.7,22.9.7,32.9.1,1.8-.1,3.7,0,5.2-1.1,1.8-1.4,1.4-5,1-7.2-.4-2.2-1.7-4.1-3.3-5.6"/><path class="cls-11" d="M92.7,53.6c-2.3,1.4-6.1,2.5-9.7,3.2-2,.4-4,.6-5.7.8-2.7.2-4.1-.7-4.5-1.7,0,0,0,0,0,0"/><path class="cls-11" d="M95.1,55.1h0c-2.9,2.2-7.4,2.7-10.9,3.4"/><path class="cls-11" d="M66.4,83.8c-1.7,12.1-1.2,9.6-1.7,13"/><path class="cls-11" d="M70.5,82.7s0,0,0,0c-.8,5.8-1.3,11.8-2,14.6,0,0-2.1-.1-3.6-.4"/><path class="cls-11" d="M92.7,53.6c0-.5,0-.9,0-1.3,0-.9.1-1.7.3-2.7"/><path class="cls-11" d="M99.8,30.1s0,0,0,0c.2,2.2,0,6.4,0,6.4,0,.2-.2.5-.2.7-1.9,5.8-4.8,10.4-6.5,12.2-2.2,2.4-5.7,5.4-10.3,6.1-.7.1-1.3.2-2,.2"/><path class="cls-11" d="M64.3,29.6s.9,3.5,1.8,7.4c.1.6.3,1.2.4,1.8,0,.2,0,.4.1.6.8,3.2,2.9,9,7.1,12.8,1.9,1.7,4.2,3.1,7.1,3.6"/><path class="cls-11" d="M67.1,24c2.2-.8,6.8-.8,8.6-.4"/><path class="cls-11" d="M84.7,23.5c4.1-.9,8.4-.2,8.7-.9"/><path class="cls-11" d="M75.9,37c.6,2.3,7.6,2,10,1"/><path class="cls-11" d="M99.7,30c0-.2,0-.3,0-.5.2-2.2,1.9-3.1,3.6-2.3,2.6,1.1.7,5.9,0,8-.8,2.4-2.5,3-3.5,2.3"/><path class="cls-11" d="M67.1,24c-.2-1.9,2.9-3.8,5-3.9,2.1,0,4.4.8,3.5,3.5"/><path class="cls-11" d="M84.7,23.5c-.2,0-1.2-3.1.6-3.7,1.6-.6,8.1.7,8.1,2.9"/><path class="cls-11" d="M76.2,43.9c4.4,1,5.4,1.3,10-.5"/><path class="cls-11" d="M72.5,28.5c0,1-.4,1.8-.8,1.8s-.8-.8-.8-1.8.4-1.8.8-1.8.8.8.8,1.8Z"/><path class="cls-11" d="M90.1,28.4c0,1-.4,1.8-.9,1.8s-.9-.8-.9-1.8.4-1.8.9-1.8.9.8.9,1.8Z"/><path class="cls-11" d="M63.4,27.3c-.9-4.3.2-9.7.7-13,.5-3.4,4.2-14,17.3-14,4.9,0,8.5,0,12.8,2.4,3.5,2,7.9,5.2,8.9,12.3.7,4.6,1.2,7.6.2,12.2"/><path class="cls-11" d="M63.9,27.3c-.2,0-.4,0-.5,0-.2,0-.4.2-.5.3-.3.3-.4.7-.5,1-.7,2.7-.1,6.5,3.6,8.4"/><path class="cls-11" d="M66.4,39.1c0,.1,0,.2.1.3,1,2.8,4.5,7.6,5.2,7.4.3-1.5.7-4.1,1-5.7,2-.5,5.1-1.6,7-1.6,2.6,0,6.8.8,9.4,1.2.6,2.6.4,3.9.8,6.3,4.9-1.8,9.9-11.5,9.9-16.9,0-.2,0-.5,0-.7,0,0,0-.2,0-.2"/><path class="cls-11" d="M87.7,47c-.5,1.2-1.8,1.9-3.1,2.3-2.5.8-5.2.8-7.7,0-1-.3-2-.8-2.5-1.6-.7-1-.8-4.6-.4-5,.5-.6,4.8-2,5.7-1.9,1.1.1,7.2.8,7.9,1.2.6.3.5,4,.1,4.9Z"/></svg>