<?xml version="1.0" encoding="UTF-8"?><svg id="Africa" xmlns="http://www.w3.org/2000/svg" width="88" height="126" viewBox="0 0 88 126"><defs><style>.cls-1{fill:#010101;}.cls-1,.cls-2,.cls-3,.cls-4,.cls-5,.cls-6,.cls-7,.cls-8,.cls-9,.cls-10,.cls-11{stroke-width:0px;}.cls-12{stroke-linejoin:round;}.cls-12,.cls-13{fill:none;stroke:#000;stroke-linecap:round;stroke-width:.6px;}.cls-2{fill:#aeaead;}.cls-3{fill:#55ab80;}.cls-4{fill:#332a21;}.cls-5{fill:#e1a739;}.cls-13{stroke-miterlimit:10;}.cls-6{fill:#af877b;}.cls-7{fill:#d9d8d7;}.cls-8{fill:#ea80ac;}.cls-9{fill:#fff;}.cls-10{fill:#debea3;}.cls-11{fill:#ffd06a;}</style></defs><path class="cls-5" d="M52.7,60.5h0s0,0,0,0Z"/><path class="cls-10" d="M24.4,87.1c.4,0,1,0,1.5.1-.5,0-1,0-1.5,0,0,0,0,0,0,0h0Z"/><path class="cls-3" d="M23.6,91.4c3.7,1.3,5.9-2.1,1.2-1.9,2.5.4,4.3-2.3,1.2-2.3.5,0,.8-.1,1-.4,1.3-1.9-.2-2-1.8-2.1,2.1-.4,2.9-1.7.3-1.8,0-.3.2-.6.3-1,8.6.3,14.1-2.4,22.2-4.5,1.3,1.1,4.3,4.9,6,7-4,2.6-10.3,8.9-14.3,14.8h-.1c-1.5-3.3-2.3-6.2-3-9.6.8,6.4-5.3,16.9-6.5,22-1,.4-4.5,3-9.5,1,.4-2.2.5-3.6,0-4.2,1.6-5.3,1.9-10.7,3-16.9Z"/><path class="cls-1" d="M64.6,26.2c0,3.6-2.9,3.6-2.9,0,0-3.6,2.9-3.6,2.9,0Z"/><path class="cls-5" d="M66.4,53.5c-.2.1-.4.2-.5.3.2,0,.3-.2.5-.3Z"/><path class="cls-10" d="M32.7,67c.2,0,.3-.2.5-.2-.2,0-.3.2-.5.2Z"/><path class="cls-11" d="M53.9,84.4c-1-1.3-2-2.4-2.8-3.4,0-.2,0-.5,0-.8,10.8,7.3,21.7,5.2,29.1.3-2.9,9.9.8,24.8.3,32-1.7,9.4-5.2,11.8-9,12.6-6.3,1.4-14.8.4-19.9-4.4-3.7-3.4-13.4-11.1-15.1-15.8,2.7-7.7,12-17.1,17.3-20.6Z"/><path class="cls-9" d="M55.7,43c-2.3-.3-3.4-1.2-4.4-3h0c4,1.3,12.8-.7,13.6-1.4-2.6,3.8-5.4,4.6-9.3,4.4Z"/><path class="cls-11" d="M52.7,60.5h0s0,0,0,0h0Z"/><path class="cls-5" d="M56.8,77.2c-.3,0-2.5-1.9-2.8-1.8.8-.3,1.5-.5,2.3-.8.3,1.3.4,2.2.4,2.6Z"/><path class="cls-5" d="M43.5,56.6c2.1,2.5,3.7,5.4,4.7,8.5-.6.3-1.1.6-1.7.8-1.2-2.8-2.9-5.3-4.9-7.6.7-.6,1.3-1.2,1.9-1.8Z"/><path class="cls-8" d="M55.3,53.2c-.3-.8-.2-1.9.4-3.3.6,0,1.1.1,1.7,0h0c3.5,2.1,11.7-.7,11.2-5,.1,0,.2-.1.3-.2,5.2.8-1.2,8.9-2.4,8.7-3.5,2-8.3,4.7-11.3-.3Z"/><path class="cls-2" d="M0,122.9c9,1.3,24.1.6,32.1,0,0,0,.3,2.6,0,2.5-8.9.2-23.6.9-31.7-.6-.3-1-.5-1.2-.3-1.9Z"/><path class="cls-5" d="M52.7,60.5c.4-.2,1.6-.8,2.1-1h.2c1.9,5.6,3.1,11.4,3.6,17.2-.7.2-1.3.4-1.8.6-.9-4.8-2.4-12.4-4.5-16.6.3-.2.4-.2.4-.2h0Z"/><path class="cls-8" d="M53.2,62.6c-1.9.9-4.7,2.3-6.8,3.3-1.1-2.4-2.4-4.6-4.1-6.6-2.8,3.3-6.5,6.1-9.2,7.5,4.3-1.9,6.6-.1,9.2,1h0c-7.2,4.6-24.6.7-21.5,12.6,9.4,4.9,25.7-3.2,35.5-5.8-.7-3.4-2.1-9-3.2-12Z"/><path class="cls-4" d="M74.7,37.4h.3c2,5.7,7.8,18.9,6.6,26.8-.3-8.1-3.8-14.1-10.5-16.9-.2-2-.9-2.6-2.1-2.6,1.6-1,4.3-2.8,5.7-7.3Z"/><path class="cls-3" d="M42.4,67.8c-4.8,2.4-9.9,2.6-13.7,3.5.8-2.2,1.4-3.1,4.5-4.5,4.3-1.9,6.6-.1,9.2,1h0Z"/><path class="cls-1" d="M47.5,28.6c-1.5,0-1.5-5,0-4.9,1.5,0,1.5,5,0,4.9Z"/><path class="cls-4" d="M75.7,6.9C71.4.9,64.8,0,57.6.4c-12.1,1.1-18.3,7.5-17.1,22.3,0,.9.1,1.8.2,2.8.3-.2.7-.2,1,0h.3c-.2-1.3-.2-1.8-.4-2.8-.2-6.6,1.6-13.7,12.4-11.9,4.2-1.8,17.7-4.9,21.4,14.8.9-1.1,2.7-1.1,3.7-.2,1.6-9.1.4-13.2-3.5-18.6Z"/><path class="cls-11" d="M53.2,62.6c-1.3.6-3.5,1.7-5,2.5-1-3.1-2.6-6-4.7-8.5,4.3-3.7,5.1-5.6,9.3-7.8,1,.6,1.9.9,2.9,1.1-.6,1.4-.7,2.4-.4,3.3h0c-1.2,2.2-2,4.6-2.4,7.1h0c0,.2-.1.2-.2.2h0s0,0,0,0c0,0,0,0-.4.2.2.2.6.9.9,1.9Z"/><path class="cls-10" d="M23.9,89.5c.3,0,.6,0,.8,0-.3,0-.6,0-.9,0,0,0,0,0,0,0Z"/><path class="cls-4" d="M75,37.5h-.3c.4-1.4.7-2.9.8-4.7,1,0,2.2,0,3.1-.4-.8,1.9-2.3,3.5-3.6,5.1Z"/><path class="cls-11" d="M66.3,81.5c-5.3.1-10.7-1.4-15.1-4.4h0c0-.2,0-.4,0-.7,5.6-2.7,3.3,2.1,7.6.3-.5-5.8-1.7-11.6-3.6-17.2h-.2c2.4-1.1,3.8-1.9,6.7-3.4,4.3-2.6,7.4-2.2,9.5-8.8,11.4,4,11.6,19.1,10,29.3h0c-4.3,3.2-9.4,4.7-14.7,4.9Z"/><path class="cls-7" d="M30.5,112c-.4-1.5-4.2,3.2-10,.6.4-2.9,1-4.8-1.6-4.7-1-.3-.2,3.1-1.6,3.9-5.4,2.8-17.7,2.1-17,10.6h0c0,.2-.2.4-.2.6,9,1.3,24.1.6,32,0,.8-1.9-.5-9.2-1.6-10.9Z"/><path class="cls-5" d="M51.2,80.2c0-1,0-2.1,0-3.1h0c8.8,6,21.3,6,29.8-.4-.2,1.4-.4,2.7-.6,3.9-7.5,4.9-18.4,7-29.1-.3Z"/><path class="cls-8" d="M52.9,60.4h0c.4-2.6,1.2-5,2.4-7.2h0c.9,2.6,4.9,3,6.3,2.9-3.6,1.9-5.5,2.9-8.7,4.3Z"/><path class="cls-10" d="M25,84.7c0,0,.1,0,.2,0,0,0-.1,0-.2,0,0,0,0,0,0,0Z"/><path class="cls-6" d="M79.2,25.4c-1-.9-2.9-1-3.7.2-3.7-19.7-17.2-16.6-21.4-14.8-12.1-1.9-13.2,7.1-12.1,14.7h-.3c-2.9-.6-3.2,7.9,1.6,7.7.3,7.9,6,16.4,14.1,16.8h0c3.5,2.1,11.7-.7,11.2-5,3-1,7.1-7.1,6.9-12.1,1,0,2.2,0,3.1-.4h0c2.6-1.1,2.4-5.3.6-7ZM47.5,28.6c-1.5,0-1.5-5,0-4.9,1.5,0,1.5,5,0,4.9ZM63.2,23.4c1.9,0,1.9,5.7,0,5.6-1.9,0-1.9-5.7,0-5.6ZM55.7,43c-2.3-.3-3.4-1.2-4.4-3h0c4,1.3,12.8-.7,13.6-1.4-2.6,3.8-5.4,4.6-9.3,4.4Z"/><path class="cls-6" d="M25.9,87.2c.5,0,.8-.1,1-.4,1.3-1.9-.2-2-1.8-2.1-1.5.3-3.8.7-1.5,2.2.6.3,1.5.2,2.3.3-1.2.2-4.2-.8-3.5,1.4.5,1.3,3.7.9,4.5.5,1.6-1.5.4-1.8-1-1.9Z"/><path class="cls-6" d="M22.6,90.9c1.1.9,5.1,1.1,4.9-.4.2-1.4-6.7-1.6-4.9.4Z"/><path class="cls-6" d="M25.5,82.9c-2.7-.4-4.2,1.7-.5,1.8,2.1-.1,3.3-1.7.5-1.8Z"/><path class="cls-13" d="M81,76.6c-3.4,10.9-.3,27.4-.3,35.9"/><path class="cls-13" d="M71,47.3c11.4,4,11.6,19.1,10,29.3"/><path class="cls-13" d="M50,64.2c.2-1.4,1.2-5.8,1.4-6.7"/><path class="cls-13" d="M53.2,62.6c-4.8,2.3-11.9,6.3-16.9,7.4-6.9,1.4-18.2,1.2-15.5,10.5"/><path class="cls-13" d="M52.7,60.5h0s0,0-.4.2"/><path class="cls-13" d="M52.7,60.5s0,0,0,0h0"/><path class="cls-13" d="M52.7,60.5h0"/><path class="cls-13" d="M65.8,53.8c-4.5,2.3-8.9,4.7-13.1,6.6"/><path class="cls-13" d="M66.4,53.5c-.2,0-.3.2-.5.3"/><path class="cls-13" d="M70.5,51.4c-.7.4-2.2,1.2-4,2.1"/><path class="cls-13" d="M56.4,74.6c-9.8,2.6-26.2,10.7-35.5,5.8"/><path class="cls-13" d="M75,69.8c-3.9,1.9-13.1,5.9-18.2,7.4-.3,0-2.5-1.9-2.8-1.8"/><path class="cls-13" d="M33.2,66.8c-.2,0-.3.2-.5.2"/><path class="cls-13" d="M42.4,59.3c-2.8,3.3-6.5,6.1-9.2,7.5"/><path class="cls-13" d="M52.8,48.8c-4.4,2.2-6.9,5.8-11.3,9.6"/><path class="cls-13" d="M72.8,107.6c-4.4-3.7-17.8-22.7-24.9-30.1"/><path class="cls-13" d="M61.5,56.1c-2.6.5-8.4-1.8-5.9-6.2"/><path class="cls-13" d="M71,47.3c-1.5,4.6-3.2,5.5-5.5,6.7"/><path class="cls-13" d="M52.3,60.7c2.1,4.2,3.7,11.8,4.5,16.6"/><path class="cls-13" d="M42.4,67.8c-2.5-1.1-4.8-2.9-9.2-1-3.1,1.4-3.7,2.2-4.5,4.5"/><path class="cls-13" d="M36.5,89.6c.8,6.4-5.3,16.9-6.5,22"/><path class="cls-13" d="M80.7,112.5c-1.7,9.4-5.2,11.8-9,12.6-6.3,1.4-14.8.4-19.9-4.4"/><path class="cls-13" d="M23.6,91.4c-1.1,6.2-1.4,11.6-3,16.9"/><path class="cls-13" d="M23.9,89.5s0,0,0,0"/><path class="cls-13" d="M24.4,87.1s0,0,0,0"/><path class="cls-13" d="M25,84.7s0,0,0,0"/><path class="cls-13" d="M25.8,82c0,.3-.2.6-.3.9"/><path class="cls-13" d="M36.6,105c2.7-7.6,12-17.1,17.3-20.6"/><path class="cls-13" d="M35.9,85.9c.8,4.7,1.6,8.8,3.7,13.2"/><path class="cls-13" d="M51.8,120.8c-3.7-3.4-13.4-11.1-15.1-15.8"/><path class="cls-12" d="M30.5,112c1.1,1.7,2.3,8.9,1.6,10.9"/><path class="cls-12" d="M20.9,112.6c5.6,2.6,8.8-2.1,9.7-.6"/><path class="cls-12" d="M32.1,122.8c-7.8.6-22.7,1.4-31.6,0"/><path class="cls-12" d="M20.9,112.6c-3.6.3-9.4,2.8-12.7,3.7"/><path class="cls-12" d="M.4,122.5c0-3.2,1.1-6.8,7.6-8.2.2,2.2.4,6.7.2,9.1"/><path class="cls-12" d="M18.8,112.7c.9-1,1.8-4.3.2-4.9-1-.3-.2,3.1-1.6,3.9-1.3.7-6.5,2.3-9.4,2.7"/><path class="cls-12" d="M.4,124.8c8,1.4,22.7.8,31.7.6.4,0,0-2.5,0-2.5"/><path class="cls-12" d="M.3,122.3c-.5,1-.3,1.2.1,2.5"/><path class="cls-12" d="M20.6,112.6c.5-3,.9-5.1-1.8-4.8"/><path class="cls-13" d="M25.9,87.2c.5,0,.8-.1,1-.4,1.4-2-.4-2-2-2.1-2.2.3-3.2-1.6-.8-1.7"/><path class="cls-13" d="M24.2,83c2.6-.5,4.7,1,.8,1.8-4,.6-1.9,2.7.9,2.5,0,0,0,0,0,0,1.4.1,2.6.4,1,1.9-.7.9-5.8-.5-4.3,1.8,1.1.9,5.1,1.1,4.9-.4-.3-2-4.2,0-5-1.9-.8-2.2,2.2-1.2,3.5-1.4"/><path class="cls-12" d="M41.7,22.7c1.5,6.4.8,17.1,6.3,22.4,3.2,2.7,5.4,5,9.4,4.9,2.6,0,6.9-2.3,11.6-5.2,2.7-.9,6.8-7.1,6.6-11.9"/><path class="cls-12" d="M44.7,20.8c1.4-1.7,4.1-1.5,5.5-.6"/><path class="cls-12" d="M60.2,20.1c2.3-1.7,5.4-.9,5.9.5"/><path class="cls-12" d="M71,47.3c-.2-2-.9-2.6-2.1-2.6"/><path class="cls-12" d="M48.6,26.1c0,3.2-2.4,3.2-2.3,0,0-3.2,2.4-3.2,2.3,0Z"/><path class="cls-12" d="M64.6,26.2c0,3.6-2.9,3.6-2.9,0,0-3.6,2.9-3.6,2.9,0Z"/><path class="cls-12" d="M51.2,33.9c0,2,4,2,5.4,1.9"/><path class="cls-12" d="M51,39.9c4,1.6,13.1-.5,13.9-1.2-3,5-10.8,6.4-13.6,1.4"/><path class="cls-12" d="M79.2,25.4c3.7-15.9-6.8-26.7-21.6-25-13.4.7-19,10.3-16.8,25.2"/><path class="cls-12" d="M54.1,10.8c-1-4,2.5-9.6,5.3-10.4"/><path class="cls-12" d="M41.7,22.7c-.2-6.6,1.6-13.7,12.4-11.9,4.2-1.8,17.7-4.9,21.4,14.8"/><path class="cls-12" d="M78.6,32.4c-.9.4-2,.4-3.1.4"/><path class="cls-12" d="M75.5,25.6c4-3.7,7.3,5.1,3.1,6.8"/><path class="cls-12" d="M41.7,25.5c-2.9-.6-3.2,7.8,1.6,7.6"/><path class="cls-12" d="M78.6,32.4c-.8,1.9-2.3,3.5-3.6,5.1"/><path class="cls-12" d="M75,37.5c2,5.6,7.8,18.8,6.6,26.7"/><path class="cls-13" d="M51,76.4c.3,1.5.3,3.1.1,4.6"/><path class="cls-12" d="M57.4,50c3.5,2.1,11.7-.7,11.2-5"/><path class="cls-12" d="M55,59.5c1.9,5.5,3.1,11.3,3.6,17.1"/><path class="cls-12" d="M41.5,58.3c2,2.3,3.7,4.8,4.9,7.6"/><path class="cls-12" d="M43.5,56.6c2.1,2.5,3.7,5.4,4.7,8.5"/><path class="cls-13" d="M55.2,53.2c-1.2,2.2-2,4.6-2.4,7.1"/><path class="cls-13" d="M81,76.6h0c-8.5,6.4-21.1,6.4-29.8.4"/><path class="cls-13" d="M80.3,80.5c-7.5,5-18.4,7-29.2-.3"/></svg>