<?xml version="1.0" encoding="UTF-8"?><svg id="Africa" xmlns="http://www.w3.org/2000/svg" width="88" height="126" viewBox="0 0 88 126"><defs><style>.cls-1{fill:#ffd234;}.cls-1,.cls-2,.cls-3,.cls-4,.cls-5,.cls-6,.cls-7,.cls-8,.cls-9,.cls-10,.cls-11{stroke-width:0px;}.cls-2{fill:#010101;}.cls-12{stroke-linejoin:round;}.cls-12,.cls-13{fill:none;stroke:#000;stroke-linecap:round;stroke-width:.6px;}.cls-3{fill:#aeaead;}.cls-4{fill:#55ab80;}.cls-5{fill:#332a21;}.cls-6{fill:#e1a739;}.cls-13{stroke-miterlimit:10;}.cls-7{fill:#af877b;}.cls-8{fill:#d9d8d7;}.cls-9{fill:#ea80ac;}.cls-10{fill:#fff;}.cls-11{fill:#ffd06a;}</style></defs><path class="cls-7" d="M71.1,46.6c-.2,0-.3.1-.5.2-1.9.8-3.5,1.5-5,2,0,0,0,0,0,0-2.7-1.3-5.7-2.8-8.6-3.9-1.1-.4-2.2-.8-3.2-1.1-.2.2-.4.4-.6.7l-.2-.2c-1.8-1.4-3.3-2.6-4.5-3.5h0c-1.1-3-1.3-6.3-1.2-9.5,0-3.2-.1-5.7-.2-6.6,0-.2,0-.5,0-.7,0-.2,0-.3,0-.4,0-1.3,0-1.9,0-2.9.7-6.6,3.5-13.4,14.1-10.2,4.5-1.2,18.4-2.4,19.4,17.8,1-1,2.8-.7,3.7.4.9,1.1,1.1,2.7.7,4.1-.2.8-.5,1.6-1.1,2.1-.4.3-.8.5-1.2.7-1,.3-2.1.1-3.1,0-.4,1.8-.9,3.2-1.5,4.5-2,4.3-5,5.8-6.8,6.6h0c-.1,0-.2.1-.4.2ZM54.6,39.3h0c.8,1.9,1.7,3,4,3.6,1.4.4,4.3.5,5.8-.2,1.5-.6,2.1-.9,4.1-2.9-.9.6-10,1.4-13.8-.5ZM69.8,27.3c.2-1.6-.3-2.9-1-3-.8-.1-1.6,1.1-1.8,2.6-.2,1.5.3,2.9,1,3,.8.1,1.6-1.1,1.8-2.6ZM53.8,25c.2-1.3-.2-2.5-.8-2.6-.6,0-1.3.9-1.5,2.3-.2,1.4.2,2.5.8,2.6.6,0,1.3-.9,1.5-2.3Z"/><path class="cls-5" d="M83.5,9.5c3.2,5.9,3.9,10.2,1,19.1-.9-1.1-2.7-1.4-3.7-.4-1-20.2-14.9-19-19.4-17.8-.4-4.1,3.8-9.2,6.8-9.6h0c6.8.8,12.1,2.7,15.4,8.7Z"/><path class="cls-5" d="M82.9,35.5h0c-1.1,1.8-3.1,3-4.6,4.5h0c.6-1.2,1.1-2.7,1.5-4.5,1,.2,2.2.3,3.1,0Z"/><path class="cls-5" d="M78.3,39.9c1.3,5.9,7.1,25.9,1.5,30.4h0c.2-6.9-.4-13.5-2.9-16.6-2-2.5-2.8-3-3.9-3.8,0-.2.2-.4.2-.6.1-2-.6-2.7-1.7-2.9,1.7-.7,4.7-2.3,6.8-6.6h0Z"/><path class="cls-11" d="M55.1,63.6c-1.1-.8-2.3-1.7-3.5-2.6-1.5-1.2-3-2.3-4.1-3.3h0c1.7-5.2,5.2-9.5,9.6-12.8,2.9,1.1,5.9,2.7,8.6,3.9,0,0,0,0,0,0,.6.3,1.3.6,1.9.9.6.3,1.1.5,1.7.7.7.3,2.9,1.2,3.8-.4,1.1.8,1.9,1.3,3.9,3.8,2.5,3.1,3.1,9.6,2.9,16.6,0,1.4-.1,2.8-.2,4.2-8.3,3.4-17.1,3.7-27-.2h-.2c-.4-3-.8-6.1-.9-9h0c.6.5,1.8.5,2.5.6s.5-1.5,1.1-2.3Z"/><path class="cls-6" d="M79.5,74.5c0,1.2-.2,2.5-.4,3.7-8.1,3.4-17.3,3.3-26.2-.5h-.2c-.1-1.1-.3-2.2-.5-3.4h.2c9.9,4,18.7,3.6,27,.2Z"/><path class="cls-11" d="M54.1,83.6c-.3-.4-.7-.9-1-1.3,0-1.3-.1-2.8-.3-4.5h.2c8.9,3.8,18.1,3.8,26.2.4-.2,1.6-.4,3.1-.6,4.5-1.8,11.9.8,27.3.5,28.2-.5,6.3-2.2,11.6-8.6,13.8-5.8,2-15,.8-19-4.2-3.5-3.2-11.4-13-13.1-17.5.3-1.6.8-3.1,1.4-4.5,3.3-7.9,9.9-12.1,14.3-15Z"/><path class="cls-9" d="M71.5,46.5c1.1.2,1.8.9,1.7,2.9,0,.3-.1.5-.2.6-.8,1.6-3,.7-3.8.4-.5-.2-1.1-.4-1.7-.7,2.3-.4,3.9-.4,3.6-3.1.1,0,.2,0,.4-.2h0Z"/><path class="cls-7" d="M71.1,46.6c.4,2.7-1.3,2.7-3.6,3.1-.6-.3-1.2-.6-1.9-.9,1.5-.5,3.1-1.2,5-2,.1,0,.3-.1.5-.2Z"/><path class="cls-2" d="M68.7,24.3c.8.1,1.3,1.5,1,3-.2,1.6-1,2.7-1.8,2.6-.8-.1-1.3-1.5-1-3,.2-1.6,1-2.7,1.8-2.6Z"/><path class="cls-5" d="M68.1.7h0c-2.9.5-7.2,5.6-6.8,9.7-10.6-3.2-13.4,3.6-14.1,10.2,0,1.1,0,1.6,0,2.9-.4-.3-.8-.3-1.3,0h0c.5-10.5,2.3-16.2,6.9-19.6h0c1.1-.8,2.3-1.4,3.6-2,.6-.3,1.4-.5,2.1-.7,2.4-.6,5.3-.9,7.7-.6.6,0,1.2.1,1.8.2Z"/><path class="cls-10" d="M68.4,39.8c-2,2.1-2.6,2.3-4.1,2.9-1.5.7-4.4.6-5.8.2-2.3-.6-3.2-1.7-4-3.6h0c3.9,1.9,12.9,1.1,13.8.5Z"/><path class="cls-7" d="M47.8,5.1c-.1.4-.3.8-.5,1.2h0c-2.2-.9-4.4-1.4-6.7-1,0-.3.1-.6.2-.9.5-2.2.5-3.6,3.2-3.7,5.5-.4,13.6-.8,14.7.6-.8.2-1.5.4-2.1.7-1.4.6-2.6,1.2-3.6,2h0c-2,.3-3.8.6-5.1,1.2Z"/><path class="cls-6" d="M46.6,56.8c-.4-.4-.7-.7-.9-1-.2-.2-.2-.6,0-1.1.1-.5.4-1,.7-1.6,1.3-2.3,4-5.5,6.9-8.7.2-.2.4-.5.6-.7,1.1.3,2.1.6,3.2,1.1-4.4,3.2-7.9,7.6-9.6,12.7h0c-.3-.3-.6-.6-.9-.8Z"/><path class="cls-9" d="M55.1,63.6c-.6.8-.4,2.4-1.1,2.3s-2-.2-2.5-.6h0c0-.5,0-1.1,0-1.6,0-1,.1-1.9.3-2.7,1.2.9,2.4,1.8,3.5,2.6Z"/><path class="cls-2" d="M52.9,22.4c.6,0,1,1.3.8,2.6-.2,1.4-.9,2.4-1.5,2.3-.6,0-1-1.3-.8-2.6.2-1.3.9-2.4,1.5-2.3Z"/><path class="cls-9" d="M39.5,33.5c3.7,3,3.3,2.8,9,7.3,1.2.9,2.7,2.1,4.5,3.5l.2.2c-3,3.1-5.7,6.4-6.9,8.7h0c-5.8-5-11.4-9.3-15.6-15.4-.6-2.3,0-5.7,1.3-9.6,2.5-7.8,7.3-17.3,8.6-23,2.3-.4,4.5.2,6.7,1h0c-2.3,6.4-6.4,22.1-7.8,27.3Z"/><path class="cls-4" d="M37.8,93.2h0c-.7,3.5-6.5,11.1-6.7,17.8-1.1.3-4.2,3.2-9.5,1,0,0-.2,0-.3,0,.5-2.3.5-3.7,0-4.4,2.4-8.1,2.9-14,5.2-25.4.5-2.3,2.1-12.7,5.2-14.2,4.5-2.2,7.1-1.7,9.6-.5,1.2.9,6.2,7.5,11.8,14.9.3.4.7.9,1,1.3-4.4,2.8-11,7.1-14.3,15-.8-1.8-1.5-3.5-1.9-5.3Z"/><path class="cls-1" d="M51.6,61c-.1.8-.2,1.7-.3,2.7h-.1c-1.3-1.2-3.8-2.8-5.4-4.6h0c.2-.8.3-1.7.7-2.3.3.3.6.5.9.8,1.1,1,2.6,2.2,4.1,3.3Z"/><path class="cls-7" d="M47.3,24.7c0,.9.2,3.4.2,6.6-.8-.1-3.6-1.2-3.1-4.3.3-2.1,1-3.2,1.7-3.6.5-.2.9-.2,1.3,0,0,.1,0,.3,0,.4,0,.2,0,.5,0,.7Z"/><path class="cls-9" d="M45,54.5c-1.1-.8-3.1-3.1-5-4.7-2.9-2.4-7.9-6.2-11.2-9-2.6-2.3-3.5-3.6-4.4-7.1-1.9-7.9-5.5-19.4-6.8-26.1,0-.2,0-.4,0-.6h0c2-1.3,4.4-1.8,6.7-1.4h.1c.6,5.7,6.8,19.3,7.6,22.7-1.2,3.9-1.9,7.3-1.3,9.6,4.3,6.1,9.9,10.4,15.6,15.3h0c-.4.7-.6,1.2-.7,1.7h-.2c-.1,0-.3-.2-.4-.3Z"/><path class="cls-6" d="M46.6,56.8c-.4.6-.5,1.5-.7,2.2h0c-1.2-1.3-1.9-2.9-.9-4.5.2.1.3.2.4.2h.2c-.1.5,0,.9,0,1.1.2.3.6.6.9,1Z"/><path class="cls-8" d="M21.3,112c.2,0,.3,0,.3,0,5.3,2.2,8.4-.7,9.5-1,.3,0,.5,0,.5.4,1.2,1.8,2.4,9.2,1.6,11.3-.5,0-5.3.8-10.1.6-5.3-.3-9.8.3-14.8.3v-.2c.2-2,0-5.3,0-7.4h.1c2.6-.8,8.1-2.7,11.1-3.5.8-.2,1.4-.3,1.8-.4Z"/><path class="cls-3" d="M33.2,122.7s.3,2.7,0,2.6c-2.7.6-5.6-.3-9.9-.1-10,.3-17.1,1-22.9-.5-.3-1-.5-1.3-.3-2h.5c2.9.6,5.4.8,7.9.8,5,0,9.5-.6,14.8-.3,4.8.3,9.6-.5,10.1-.6h0Z"/><path class="cls-7" d="M33.6.9c-1.2,2.9-6.4,3.4-9.3,3.9,0,.2,0,.5,0,.7h-.1c-2.3-.4-4.8.2-6.7,1.4h0c-.3-2.4,0-5.2,0-5.2.4-1.3,15.9-1.7,16-.8Z"/><path class="cls-8" d="M21.3,107.6c.5.7.5,2.1,0,4.4-.4,0-1,.2-1.8.4v-.2c.8-1,1.7-4.2.4-5,0,0-.2,0-.2,0,.8,0,1.3,0,1.7.5Z"/><path class="cls-8" d="M19.6,107.1c0,0,.1,0,.2,0,1.4.8.5,4-.4,5v.2c-3,.8-8.4,2.6-11,3.5h-.1c0-1.2-.1-1.9-.1-1.9,3-.4,8.4-2.1,9.7-2.8,1.5-.8.7-4.2,1.7-4Z"/><path class="cls-8" d="M.3,122.1c0-3.1,1.3-6.9,7.9-8.2,0,0,0,.8.1,2,.1,2.1.3,5.4,0,7.4v.2c-2.5,0-5.1-.2-7.9-.8H0c0-.2.1-.4.2-.6h0Z"/><path class="cls-13" d="M73,50c1.1.8,1.9,1.3,3.9,3.8,2.5,3.1,3.1,9.6,2.9,16.6,0,1.4-.1,2.8-.2,4.2,0,1.2-.2,2.5-.4,3.7-.2,1.6-.4,3.1-.6,4.5-1.8,11.9.8,27.3.5,28.2"/><path class="cls-13" d="M69.6,103.1c-2.2-1.9-9-10.9-15.5-19.5-.3-.4-.7-.9-1-1.3-5.6-7.4-10.6-14-11.8-14.9"/><path class="cls-13" d="M41.3,67.4c-2.5-1.1-5.1-1.7-9.6.5-3.1,1.5-4.7,11.9-5.2,14.2"/><path class="cls-13" d="M79.1,111c-.5,6.3-2.2,11.6-8.6,13.8-5.8,2-15,.8-19-4.2"/><path class="cls-13" d="M38.4,103.1c.3-1.6.8-3.1,1.4-4.5,3.3-7.9,9.9-12.1,14.3-15"/><path class="cls-13" d="M36.2,85.5c.5,2.8.9,5.3,1.6,7.7.5,1.8,1.1,3.5,1.9,5.3"/><path class="cls-13" d="M51.5,120.5c-3.5-3.2-11.4-13-13.1-17.5"/><path class="cls-13" d="M53.2,44.5c-3,3.1-5.7,6.4-6.9,8.7-.4.6-.6,1.2-.7,1.6-.1.5,0,.8,0,1.1.2.3.6.6.9,1,.3.3.6.5.9.8,1.1,1,2.6,2.2,4.1,3.3,1.2.9,2.4,1.8,3.5,2.6,2.6,1.8,4.7,3.2,5.1,3.2"/><path class="cls-12" d="M57.1,44.9c-1.1-.4-2.2-.8-3.2-1.1-.2.2-.4.4-.6.7"/><path class="cls-13" d="M65.7,48.9c-2.7-1.3-5.7-2.8-8.6-3.9"/><path class="cls-13" d="M69.2,50.4c-.5-.2-1.1-.4-1.7-.7-.6-.3-1.2-.6-1.9-.9"/><path class="cls-13" d="M47.8,4.9s0,0,0,.1c-.1.4-.3.8-.5,1.2-2.3,6.4-6.4,22.1-7.8,27.2,0,.2-.1.4-.2.6"/><path class="cls-13" d="M40.7,4.4c0,.3-.1.6-.2.9-1.3,5.6-6.1,15.2-8.6,23-1.2,3.9-1.9,7.3-1.3,9.6"/><path class="cls-13" d="M53.1,44.3c-1.8-1.4-3.3-2.6-4.5-3.5-5.7-4.5-5.3-4.4-9-7.3h-.2"/><path class="cls-13" d="M46.2,53.1c-5.8-4.9-11.4-9.3-15.6-15.3"/><path class="cls-13" d="M52.9,3.8c-2,.3-3.8.6-5.1,1.2-.3.1-.5.3-.8.4"/><path class="cls-13" d="M40.7,4.4c.5-2.2.5-3.6,3.2-3.7,5.5-.4,13.6-.8,14.7.6"/><path class="cls-13" d="M31.9,28.2c-.8-3.4-6.9-17-7.6-22.7,0-.3,0-.5,0-.7,2.9-.6,8.1-1.1,9.3-3.9-.1-.8-15.6-.5-16,.8,0,0-.4,2.8,0,5.3,0,.2,0,.4,0,.6,1.2,6.7,4.8,18.2,6.8,26.1.8,3.5,1.8,4.9,4.4,7.1,3.3,2.9,8.3,6.7,11.2,9,1.9,1.6,3.9,3.9,5,4.7.2.1.3.2.4.2"/><path class="cls-13" d="M51.6,61c-.1.8-.2,1.7-.3,2.7,0,.5,0,1.1,0,1.6,0,2.8.5,6,.9,9,.2,1.2.3,2.4.5,3.5.2,1.7.3,3.2.3,4.5"/><path class="cls-13" d="M51.2,63.7c-1.3-1.2-3.8-2.8-5.4-4.5-1.2-1.4-1.9-3-.9-4.6,0,0,0,0,0,0"/><path class="cls-12" d="M73.2,49.3c0,.3-.1.5-.2.6-.8,1.6-3,.7-3.8.4"/><path class="cls-12" d="M71.5,46.5c1.7-.7,4.7-2.3,6.8-6.6.6-1.2,1.1-2.7,1.5-4.5"/><path class="cls-12" d="M65.7,48.9s0,0,0,0c0,0,0,0,0,0,1.5-.5,3.1-1.2,5-2,.1,0,.3-.1.5-.2.1,0,.2,0,.4-.2"/><path class="cls-12" d="M47.3,20.6c0,1.1,0,1.6,0,2.9,0,.1,0,.3,0,.4,0,.2,0,.5,0,.7,0,.9.2,3.4.2,6.6,0,3.3,0,6.6,1.2,9.4"/><path class="cls-12" d="M50.6,19.1c1.7-1.5,4.3-.9,5.6.2"/><path class="cls-12" d="M66.2,20.6c2.5-1.4,5.5-.1,5.8,1.3"/><path class="cls-12" d="M73.2,49.3c.1-2-.6-2.7-1.7-2.9h0"/><path class="cls-12" d="M53.8,25c-.2,1.4-.9,2.4-1.5,2.3-.6,0-1-1.3-.8-2.6.2-1.3.9-2.4,1.5-2.3.6,0,1,1.3.8,2.6Z"/><path class="cls-12" d="M69.8,27.3c-.2,1.6-1,2.7-1.8,2.6-.8-.1-1.3-1.5-1-3,.2-1.6,1-2.7,1.8-2.6.8.1,1.3,1.5,1,3Z"/><path class="cls-12" d="M55.2,33.2c-.3,2,3.7,2.6,5.2,2.7"/><path class="cls-12" d="M54.3,39.1c0,0,.2.1.3.2,3.9,1.9,12.9,1.2,13.8.5-2,2.1-2.6,2.3-4.1,2.9-1.5.7-4.4.6-5.8.2-2.3-.6-3.2-1.7-4-3.6"/><path class="cls-13" d="M52.9,3.8h0c-4.6,3.4-6.4,9.1-6.9,19.5"/><path class="cls-12" d="M84.4,28.6c2.9-8.9,2.3-13.2-1-19.1-3.3-6-8.6-8-15.4-8.8-.6,0-1.2-.1-1.8-.2-2.3-.2-5.3,0-7.7.6-.8.2-1.5.4-2.1.7-1.4.6-2.6,1.2-3.6,2"/><path class="cls-12" d="M61.4,10.4c-.4-4.1,3.8-9.2,6.8-9.6"/><path class="cls-12" d="M47.3,20.6c.7-6.6,3.5-13.4,14.1-10.2,4.5-1.2,18.4-2.4,19.4,17.8"/><path class="cls-12" d="M80.7,28.2c1-1,2.8-.7,3.7.4.9,1.1,1.1,2.7.7,4.1-.2.8-.5,1.6-1.1,2.1-.4.3-.8.5-1.2.7-1,.3-2.1.1-3.1,0"/><path class="cls-12" d="M47.2,23.5c-.4-.3-.8-.3-1.3,0-.7.4-1.4,1.5-1.7,3.6-.4,3.1,2.4,4.2,3.1,4.3"/><path class="cls-12" d="M82.9,35.5c-1.1,1.8-3.1,3-4.6,4.5"/><path class="cls-12" d="M78.3,39.9c1.3,5.9,7.1,25.9,1.5,30.4"/><path class="cls-12" d="M67.6,49.7c2.3-.4,3.9-.4,3.6-3.1h0"/><path class="cls-12" d="M37.8,93.2c-.7,3.5-6.5,11.1-6.7,17.8h0"/><path class="cls-12" d="M26.5,82.2c-2.3,11.4-2.8,17.3-5.2,25.4"/><path class="cls-12" d="M31.6,111.4c1.2,1.8,2.4,9.2,1.6,11.3"/><path class="cls-12" d="M21.6,112c5.3,2.2,8.4-.7,9.5-1,.3,0,.5,0,.5.4"/><path class="cls-12" d="M33.2,122.7c-.5,0-5.3.8-10.1.6-5.3-.3-9.8.3-14.8.3-2.5,0-5.1-.2-7.9-.8"/><path class="cls-12" d="M21.6,112c0,0-.2,0-.3,0-.4,0-1,.2-1.8.4-3,.8-8.4,2.6-11.1,3.5"/><path class="cls-12" d="M.3,122.3c0,0,0-.2,0-.2,0-3.1,1.3-6.9,7.9-8.2,0,0,0,.8.1,2,.1,2.1.3,5.4,0,7.4"/><path class="cls-12" d="M19.4,112.2c.9-1,1.8-4.2.4-5,0,0-.2,0-.2,0-1-.2-.2,3.2-1.7,4-1.4.7-6.7,2.4-9.7,2.8"/><path class="cls-12" d="M.3,124.7c5.8,1.5,12.9.7,22.9.5,4.3-.1,7.2.7,9.9.1.4.1,0-2.6,0-2.6"/><path class="cls-12" d="M.2,122.1c-.1.2-.2.4-.2.6-.2.7,0,.9.3,2"/><path class="cls-12" d="M21.3,112s0,0,0,0c.5-2.3.5-3.7,0-4.4-.3-.5-.9-.6-1.7-.5,0,0-.2,0-.2,0"/><path class="cls-12" d="M57.1,44.9s0,0,0,0c-4.4,3.2-7.9,7.6-9.6,12.7"/><path class="cls-12" d="M45.9,59.1c.2-.7.3-1.6.7-2.2h0"/><path class="cls-13" d="M52.5,74.3c9.9,4,18.7,3.6,27,.2"/><path class="cls-12" d="M53,77.8c8.9,3.8,18.1,3.8,26.2.5h0"/><path class="cls-12" d="M55.1,63.6c-.6.8-.4,2.4-1.1,2.3s-2-.2-2.5-.6"/><path class="cls-12" d="M40.5,5.3c2.3-.4,4.5.2,6.7,1"/><path class="cls-12" d="M24.2,5.5c-2.3-.4-4.8.1-6.7,1.4"/></svg>