<?xml version="1.0" encoding="UTF-8"?><svg id="Africa" xmlns="http://www.w3.org/2000/svg" width="69.5" height="196.6" viewBox="0 0 69.5 196.6"><defs><style>.cls-1{fill:#010101;}.cls-1,.cls-2,.cls-3,.cls-4,.cls-5,.cls-6,.cls-7,.cls-8,.cls-9,.cls-10,.cls-11{stroke-width:0px;}.cls-12{stroke-linecap:round;stroke-linejoin:round;}.cls-12,.cls-13{fill:none;stroke:#000;stroke-width:.6px;}.cls-2{fill:#6c5b64;}.cls-3{fill:#55ab80;}.cls-4{fill:#a97b80;}.cls-5{fill:#332a21;}.cls-13{stroke-miterlimit:10;}.cls-6{fill:#e1a739;}.cls-7{fill:#af877b;}.cls-8{fill:#d9d8d7;}.cls-9{fill:#ea80ac;}.cls-10{fill:#fff;}.cls-11{fill:#ffd06a;}</style></defs><path class="cls-9" d="M61,76.4c-.6-.6-4.2-5-5.3-5.7,2.6-1.4,6.1-3.6,7.9-5.4,11.7,13.2,3.1,18.1-7.2,27.5-.2-2-2.1-4-4-4.7h0c4.6-2.3,5.4-8.9,8.6-11.7Z"/><path class="cls-6" d="M17.2,68.5c0,.8,0,1.7,0,2.5-3.2-1-12.4-2.9-9.4-6.9,2.3,1.9,6.4,4.2,9.4,4.4Z"/><path class="cls-10" d="M24.7,37.1c3.8,1.3,11.9-.6,12.6-1.3-2.8,4.7-10,5.9-12.6,1.3h0Z"/><path class="cls-6" d="M51.6,69.9c4.2-1,9.5-5,12.2-8.3,3.9,3.6-7.9,8.9-10.6,10.3-.6-.7-1.2-1.4-1.6-2Z"/><path class="cls-3" d="M19,179.7c.4-.4.8-4.7-3-4.2,1-13.9.6-30.9,2.1-45.2,3.4.8,8.2,1.5,13.3,1.6-1.2,5.2-.4,16.3-1.6,18.8-2.7,9.7-4.8,15.8-5.3,26.1.1,1.2-.5,2.9-1.9,3.4-1.4-.3-1.7-1.8-3.5-.4h0Z"/><path class="cls-6" d="M49.6,81.9c-13.8,6.2-28.4,2.2-31.2.2h0c-.1-1.6-.3-3.1-.5-4.7,2.7,2.6,16.4,7.2,31.9,1.3,0,1.2-.1,2.4-.1,3.3Z"/><path class="cls-9" d="M8.7,85.3c-6.9-6.8-6-10.5-1.1-18.4,1.3,1.2,4.4,2.6,7.2,3.5-1,1.8-2.8,4.9-3,4.8,1.9,4,3.3,7.7,6.5,10.9h0c-2.3.5-4.2,3-4.3,5.4h0c-1.3-2.2-3.2-3.9-5.2-6Z"/><path class="cls-3" d="M52.7,129.4c.1,7.2.2,10.7,1.9,16.9.7,6-2.4,19.2-1.3,30.5-5.8-2-6.5,1.9-5,4-.3.7-3.6.7-3.3-2.8.5-6.4-1.1-12.3-1.9-15.8-2.8-10-.9-20.7-4.1-30.5,4.7-.3,9.4-1,13.5-2.4h0Z"/><path class="cls-1" d="M34.3,24.3c0-3.4,2.7-3.4,2.7,0,0,3.4-2.7,3.4-2.7,0Z"/><path class="cls-9" d="M43.9,47.6h-.1c0-2.2-.7-4.8-2.6-4.7,2.2,5.8-10.6,9-12.6,3.3-.5,0-.9-.2-1.4-.4-.1.5-.2.9-.2,1.4-.8,0-1.7,0-2.5,0-1.9,3.4-4.9,16.5,2.7,17.6,5.3,0,14.8,2.8,16.4-4.2.9-3.5,1.4-9.5,4.4-12.3,0,0,0-.2,0-.3-2.1,0-4.1-.2-4.1-.4Z"/><path class="cls-11" d="M18.6,100c.4-6.7.3-11.9-.2-17.9h0c2.7,2.1,17.4,6,31.2-.2,0,2.4.2,3.7.3,6.6-2.5,0-5.4.2-5.2,2.8-1.4,1.1-2.7,2.6,0,3.6-.7,1.2.2,2.3,1,2.5-1,.9.5,1.9,1.2,2-.4,2.2,2.6,1.3,4.5.4,1.9,6.7,4.7,24,5.4,27.8-12.4,5.8-30.6,5.6-42.9,1.1,1.6-10.5,3.9-18.5,4.8-28.7Z"/><path class="cls-11" d="M52.1,69.8h-.4c-.4-.5-.7-1.1-1-1.6h-.2c-.1,1.7-.5,6.5-.7,10.4-15.5,6-29.2,1.3-31.9-1.3-.4-3.3-.7-5.8-.6-8.8-3-.2-7.1-2.4-9.4-4.4,4.3-8,5.7-16.2,16.7-16.9-1.9,3.4-4.9,16.5,2.7,17.6,5.3,0,14.8,2.8,16.4-4.2,2.9-21.7,12.3-11.5,20.2.9-2.6,3.3-7.8,7-11.8,8.3Z"/><path class="cls-2" d="M25.3,185.1s1.1.4,0,2.1c-1.1,1.8-6.5,1.8-7.1,1.8-1.8.9-5.4,3-8.5,3.2l-.2-1.3c3.3-.5,6.7-2.9,8.8-3.7,3.9-.1,6-.5,6.9-2.2h0Z"/><path class="cls-8" d="M62,190.5c-.9-3.6-5.3-6.9-7.4-10.3h0c.4-1.9-.3-2.9-1.2-3.4h0c-5.8-2-6.5,1.9-5,4-.3.7-3.6.7-3.3-2.8-2.9.3,1.2,11.5,3.6,13.2,2.1,4,12.7,3.9,13.3-.7Z"/><path class="cls-8" d="M24.4,176.7c.1,1.2-.5,2.9-1.9,3.4-1.4-.3-1.7-1.8-3.5-.4,0,0,1.4-3.6-2-4.2-1.6-.2-1.7.4-2.5,2.9l-10.3,4.3c-3.3.9-3.4,5-3.2,6.3,3.9,5.4,13.3.2,17.3-1.7,8.7,0,6.6-2.9,7.3-8.9.2-1.7-.9-1.7-1.2-1.6Z"/><path class="cls-2" d="M.4,190.4c0-.6,0-1.3.6-1.6.7,2.9,6.5,2.7,8.5,2.2l.2,1.3c-2.7.6-8.9,1.3-9.4-1.9Z"/><path class="cls-5" d="M47,30.5c.1,4.3-3.3,9.9-5.9,10.9,0,.8,0,1.3,0,1.6,1.8-.1,2.5,2.5,2.6,4.7h.1c0,.2,2.1.3,4.1.4,0-4.4.4-8.2-1.4-13.3,1.1-1.5,2.1-2.9,2.8-4.6-.7.2-1.6.2-2.4.2Z"/><path class="cls-5" d="M47.2,6.4C43.2.9,37.1.1,30.5.5c-12.4,1.3-17.4,7.6-15.6,23.3.3-.2.6-.2.9,0h.2c-1-6.7,0-15.5,11.3-13.6,3.9-1.7,16.4-4.5,19.8,13.7.8-1.1,2.5-1,3.4-.1,1.5-8.4.4-12.3-3.3-17.2Z"/><path class="cls-2" d="M44.7,184.2c2.4,5.6,5.6,11.5,13,9.7,3.6-1.1,4.6-2.3,4.2-3.9l.3.3c.9,3.2-.1,4.5-4.5,5.6-4.2,1.2-7.5-1.1-9.4-3.3-2.1-2.5-2.8-4.6-3-5.3-.4-1.2-1.8-2.8-.8-4.2,0,.3.1.7.2,1.1Z"/><path class="cls-7" d="M18.7,86.5c-.1-.1-.2-.3-.4-.5h0c-2.3.5-4.2,3-4.3,5.4h0c1.8,2.4,1.3,8.2,4.7,8.6.3-5,.3-9.3,0-13.5Z"/><path class="cls-7" d="M41.2,41.4c2.6-1,6-6.6,5.9-10.9,6.8,1.5,5.5-10.4,0-6.7-3.4-18.2-15.9-15.4-19.8-13.7-11.2-1.9-12.2,6.9-11.3,13.6h-.2c-2.8-.5-2.9,7.3,1.5,7.1,0,7,5.1,13.9,11.4,15.5,1.6,5.3,12.6,2.8,12.8-1.6-.2-1.9-.2-1.5-.2-3.3ZM21.1,26.5c-1.4,0-1.4-4.6,0-4.5,1.4,0,1.4,4.6,0,4.5ZM35.7,21.7c1.7,0,1.7,5.3,0,5.2-1.7,0-1.7-5.3,0-5.2ZM24.6,37.2h0c3.8,1.2,11.9-.6,12.6-1.3-2.8,4.7-10,5.9-12.6,1.3Z"/><path class="cls-7" d="M56.4,92.9c-.2-2-2.1-4-4-4.7h0c-2.5.9-8-.6-7.8,3.2-1.4,1.1-2.7,2.6,0,3.6-.7,1.2.2,2.3,1,2.5-1,.9.5,1.9,1.2,2-.4,2.2,2.6,1.3,4.5.4h0c2.1-1,4.9-3.7,4.4-6.2.2-.2.5-.5.8-.8Z"/><path class="cls-4" d="M48.6,48.1c-.2,0-.5.1-.7.2,0,0,0-.2,0-.3.2,0,.4,0,.7,0Z"/><path class="cls-1" d="M20,24.3c0-2.9,2.2-2.9,2.2,0,0,2.9-2.2,2.9-2.2,0Z"/><path class="cls-13" d="M15.7,21.1c.3,5.5.7,1.2,1.5,9.7,0,6.5,4.6,12.9,10,15.1,4.1,1.4,6.5,0,13.1-3.9,3.3-1.3,6.8-6.4,6.8-11.5"/><path class="cls-13" d="M18.5,19.3c1.3-1.5,3.8-1.4,5.1-.5"/><path class="cls-13" d="M32.8,18.7c2.1-1.6,5-.8,5.4.5"/><path class="cls-13" d="M28.6,46.3c1.6,5.3,12.6,2.8,12.8-1.6-.2-1.9-.2-1.5-.2-3.4"/><path class="cls-13" d="M27.2,45.9c-4.1,11.7,17.1,11.7,16.6,1.8,0-2.2-.7-4.8-2.5-4.7"/><path class="cls-13" d="M26.8,47.2c-11.9-.7-14.8,8.2-19,17-3,4,6.3,5.9,9.5,6.9"/><path class="cls-13" d="M48.7,48.1c6.7-.8,11.7,8.6,15.2,13.5,3.9,3.6-7.9,8.9-10.6,10.3-2.3-2.5-3-5-4.9-7.9"/><path class="cls-13" d="M43.9,47.6c-.2.3,3.1.4,4.8.5"/><path class="cls-13" d="M18.6,100c0,.6,0,1.2-.1,1.8"/><path class="cls-12" d="M18.7,86.5c.2,4.2.2,8.6,0,13.5"/><path class="cls-13" d="M18.2,60.8c-2.2,8.8,0,16.9.4,25.7"/><path class="cls-13" d="M50.4,68.3c-.4,4.9-1.2,14.2-.6,20.2"/><path class="cls-13" d="M18.5,101.8c-1.2,9.7-3.1,17-4.7,27,12.4,4.5,30.7,4.7,43.2-1.3"/><path class="cls-13" d="M56.7,127.7c-.7-3.9-3.5-21-5.4-27.9"/><path class="cls-13" d="M18.1,130.2c-1.4,14.3-1.1,31.4-2.1,45.2"/><path class="cls-13" d="M31.4,131.9c-1.2,5.2-.4,16.3-1.6,18.8-2.9,10-5,16.7-5.4,27.3"/><path class="cls-13" d="M39.1,131.8c1.8,4.3,1.6,8.3,1.8,13,.1,12.3,4.3,19.8,4.2,33.3"/><path class="cls-12" d="M52.7,129.4c.1,7.2.2,10.7,1.9,16.9.7,6-2.4,19.2-1.3,30.5"/><path class="cls-13" d="M22.2,24.3c0,2.9-2.2,2.9-2.2,0,0-2.9,2.2-2.9,2.2,0Z"/><path class="cls-13" d="M37,24.3c0,3.4-2.7,3.4-2.7,0,0-3.4,2.7-3.4,2.7,0Z"/><path class="cls-13" d="M24.5,31.5c0,1.8,3.7,1.9,5,1.8"/><path class="cls-13" d="M24.4,37c3.7,1.5,12.2-.4,12.9-1.2-2.8,4.7-10,5.9-12.6,1.3"/><path class="cls-13" d="M50.5,23.6C53.9,8.9,44.1-1.1,30.5.5c-12.4,1.3-17.4,7.6-15.6,23.3"/><path class="cls-13" d="M48.7,48.1c-3.8,1.7-4.1,9.3-5.1,12.6-1.7,7-11.1,4.2-16.4,4.2-7.6-1.1-4.5-14.2-2.7-17.6"/><path class="cls-13" d="M27.2,10.1c-.9-3.7,2.3-8.9,4.9-9.6"/><path class="cls-13" d="M15.7,21.1c-.2-6.1,1.5-12.7,11.5-11,3.9-1.7,16.4-4.5,19.8,13.7"/><path class="cls-13" d="M47,23.8c5.5-3.7,6.8,8.2,0,6.7"/><path class="cls-13" d="M15.7,23.7c-2.8-.5-2.9,7.3,1.5,7.1"/><path class="cls-13" d="M49.5,30.1c-.7,1.7-1.7,3.2-2.9,4.7"/><path class="cls-13" d="M46.6,34.8c1.9,5.2,1.5,9.1,1.4,13.6"/><path class="cls-13" d="M63.8,61.6c-2.5,3.3-7.8,7-11.7,8.2"/><path class="cls-13" d="M17.5,68.6c-3.2-.1-7.3-2.4-9.7-4.4"/><path class="cls-13" d="M49.8,78.6c-15.4,6-29.4,1.4-32-1.2"/><path class="cls-13" d="M49.6,81.9c-13.8,6.2-28.5,2.3-31.2.2"/><path class="cls-12" d="M7.6,66.9c-8.8,13-.7,14.7,6.3,24.5,1.8,2.4,1.3,8.1,4.7,8.6"/><path class="cls-12" d="M14.8,70.4c-1,1.8-2.8,4.9-3,4.8"/><path class="cls-12" d="M9.1,72.2c1.2.7,2,1.8,2.7,2.9,1.9,4.2,3.6,8,6.9,11.3h0c.2.2.3.4.2.4"/><path class="cls-12" d="M56,70.8c.9,1,4.6,5,5,5.6"/><path class="cls-12" d="M63.6,65.3c12.3,13.8,2.2,18.5-8,28.3"/><path class="cls-12" d="M51.7,88.3c6.6-2.8,6-11.8,12.9-14.6"/><path class="cls-12" d="M46.2,90.1c-1.3,1.2-5.4,3.4-1.6,4.8-.7,1.2.2,2.3,1,2.5-1,.9.5,1.9,1.2,2-.4,2.2,2.6,1.3,4.5.4h0c2.1-1,4.9-3.7,4.4-6.2"/><path class="cls-12" d="M51.7,88.3c-2.5.4-7.4-.4-7.1,3"/><path class="cls-13" d="M56.4,92.9c-.2-2-2.1-4-4-4.7"/><path class="cls-13" d="M18.2,86.1c-2.3.4-4.2,3-4.3,5.3"/><path class="cls-12" d="M61.9,190c-1.2-3.3-5.3-6.6-7.3-9.8"/><path class="cls-12" d="M45.1,178c-2.9.3,1.2,11.5,3.6,13.2,2.2,4.2,13.7,3.9,13.1-1.2"/><path class="cls-12" d="M48.7,191.2c.2-5.2,8.9-8,12.1-3.2"/><path class="cls-12" d="M48.4,180.9c-.3.7-3.6.7-3.3-2.8"/><path class="cls-12" d="M48.4,180.9c-1.5-2-.8-6,5-4h0c1.2.4,1.7,2.6,1,4.3"/><path class="cls-12" d="M61.9,190s.3.3.3.3c.9,3.2-.1,4.5-4.5,5.6-4.2,1.2-7.5-1.1-9.4-3.3-2.1-2.5-2.8-4.6-3-5.3-.4-1.2-1.8-2.9-.8-4.2"/><path class="cls-12" d="M24.4,176.7c.4,0,1.5,0,1.3,1.6-.5,2.1.2,5.8-.9,7.4-.7.8-3.1,1.6-6.5,1.6-3.9,1.9-9.4,5.1-14.7,3.8-3.9-.7-3.4-7.1.6-8.4,4.1-.9,8.1,2.8,7.1,7.9"/><path class="cls-12" d="M24.4,178c-2.1,4.1-2.1,1.1-4.2,1.1-.9.3-2.1,1.1-3.2,1.7"/><path class="cls-12" d="M19,179.7s1.4-3.6-2-4.2c-1.6-.2-1.7.4-2.5,2.9"/><line class="cls-12" x1="14.5" y1="178.4" x2="4.2" y2="182.7"/><path class="cls-12" d="M.9,188.8c-1.8,2,.4,4.1,3.7,4.1,4.4.1,10.5-1.8,13.5-3.8.5,0,6,0,7.1-1.8,1.1-1.8,0-2.1,0-2.1"/></svg>