<?xml version="1.0" encoding="UTF-8"?><svg id="Africa" xmlns="http://www.w3.org/2000/svg" width="98.6" height="280.6" viewBox="0 0 98.6 280.6"><defs><style>.cls-1{fill:#010101;}.cls-1,.cls-2,.cls-3,.cls-4,.cls-5,.cls-6,.cls-7,.cls-8{stroke-width:0px;}.cls-2{fill:#46678a;}.cls-9{stroke-linecap:round;stroke-linejoin:round;}.cls-9,.cls-10{fill:none;stroke:#000;stroke-width:.6px;}.cls-3{fill:#574538;}.cls-10{stroke-miterlimit:10;}.cls-4{fill:#2f3d52;}.cls-5{fill:#cda266;}.cls-6{fill:#845d3d;}.cls-7{fill:#1c1c1c;}.cls-8{fill:#222427;}</style></defs><path class="cls-2" d="M13.4,102.3c.6,1.1,1.1,2.1,2.2,4.4.9,1.7,5.6,6.9,5.9,7.5,0,0,0,0,0,0h0c-1.3,2.5-3.2,7.7-5.2,11.3-.7,1.2-1.3,2.2-2,2.9-5.4-6.9-10.1-16.1-13-22.7-1.2-2.6-1.5-5.7-.5-9.3.8-3,2.5-6.5,4.3-9.6,2.1-3.2,13.8-24.1,17.1-24.9.6-.2,1.6-.5,2.6-.9h.4c.9,5.7,14.2,7.6,14.2,7.6,1.1,1.9-1.3,37.2-1.2,53.3,0,.9,5.8.6,6.6.6.3,0-.5-16-.4-23.9,0-1.8-1-28.8.5-29.7,2.7-1.6,16.4-6.6,15.7-9.5,2.7.5,9.6,3.7,11.1,4.3,3.3,1.5,19.5,20.6,19.5,20.6,4,4.8,4.1,4.8,6.4,8.9,2.7,4.9-2.2,19.2-5.8,23.4-2.9,3.8-8,9.3-10.7,12.5-.6-1-1.2-2.5-2-4,0,0,0,0,0,0-1.6-3.4-3.6-7.4-6.1-8.5,3.6-4.6,5.7-10,8.1-13.3,1.1-1.5,1.9-3,3.1-4.5l-.3-.3c-1.9-2.1-8.4-7.7-12.6-13.7h-.3c-.8,2-1.1,27.4-.8,31.4v.9c-3.2.5-6.9.9-6.1,4.6-1.8,1.9-3.4,4.1.6,5.1-.8,1.9.6,3.2,1.8,3.4-1.2,1.5,1,2.7,2,2.7-.1,2,1.6,2,3.4,1.4,2.4,8.3,3.5,29.5,5.8,44.6,2.6,16.7,5.1,46.3,5.1,46.3-2.2,1.1-4.8,2.1-7.6,2.9-5.8,1.7-12.7,2.8-19.7,3.3-4.9.3-9.9.4-14.6.2-7-.3-13.5-1.3-18.7-2.8-3.3-1-6.1-2.2-8-3.6,1.5-7.9,5.6-67.4,6.6-75.5.8-7.1,1.2-7.8,1.6-15.4-.2-5.1-.6-12.8-1-20.3,0,0,0,0,0,0-.3-6.7-.6-13.4-.6-18.1s0-5.1,0-6.7h-.3c-2,2.3-6.3,12.1-7.1,12.9ZM63.7,83.2c0-1.2-.1-2.4-.1-2.4-1-.4-12.1.3-12.1,0,0,.9-.2,1.7-.2,2.6,4.5.2,7.9-.1,12.4-.2Z"/><path class="cls-8" d="M96.2,276.9c.1,1.2-1.3,2.1-2.5,2.5-5.3,1.8-11.4.8-16.5-1.4-5.1-2.2-12.4-3.4-13.6-4.8-.6-.7-2.3-8.8-1.5-10.2h0c2.4.1,5.4-.1,6.7-.3,2.1-.4,3.6-1.4,4.9-3,5.4,4.3,13.9,9.7,21.3,15.4.6.5,1.2,1.1,1.3,1.8Z"/><path class="cls-4" d="M75.3,228.3c.2,6-1.8,18.2-1.6,31.3-1.2,1.6-2.8,2.6-4.9,3-1.3.2-4.2.5-6.7.3-1.5,0-2.7-.3-3.4-.6-1.4-8.1-3.4-22.5-3.1-30.7,7-.5,13.8-1.6,19.7-3.3Z"/><path class="cls-5" d="M63.5,80.8s.2,1.2.1,2.4c-4.5.1-7.9.4-12.4.2,0-.9.2-1.7.2-2.6,0,.2,11.1-.4,12.1,0Z"/><path class="cls-5" d="M30.8,60.6c2,3.1,7.9,4.6,12.1,4.2,3-.3,9.6-1.7,12.5-4.8-.1-.2-.3-.8-.4-1.6,2.3.2,3,.8,5,1,.2,0,.4,0,.6,0,.7,2.9-13,7.9-15.7,9.5-1.5.9-.5,27.9-.5,29.7,0,7.8.8,23.8.4,23.9-.7,0-6.5.3-6.6-.6-.1-16,2.3-51.3,1.2-53.3,0,0-13.4-1.9-14.2-7.6h-.4c2.3-.9,5.1-2,6.5-2.2-.2.8-.4,1.5-.6,1.7h0Z"/><path class="cls-7" d="M59.3,31.3c.2,2.3,0,6.6,0,6.6,0,.3-.2.5-.2.8-1.6,4.8-3.8,8.8-5.5,11.1-.4.6-.8,1.1-1.2,1.5-2.6,2.8-6.9,6.5-12.7,6.5-2.7-.5-4.9-1.7-6.8-3.3-4.8-4-7-10.4-7.9-13.8,1,2.9,4.7,7.9,5.3,7.7.3-1.6.7-4.3,1-5.9,2.1-.5,5.2-1.6,7.2-1.6,2.7,0,7.1.8,9.7,1.2.6,2.7.4,4.1.8,6.6,5-1.8,10.3-11.9,10.3-17.5ZM46.7,48.7c.4-.9.4-4.7-.1-5-.7-.4-7.1-1.1-8.2-1.3-.9-.1-5.3,1.3-5.9,1.9-.4.4-.2,4.2.4,5.2.6.9,1.6,1.4,2.6,1.7,2.6.8,5.4.8,8,0,1.3-.4,2.7-1.1,3.2-2.4Z"/><path class="cls-7" d="M52.6,23.5c-.3.7-4.7,0-9,.9-.2-.1-1.2-3.2.6-3.9,1.7-.6,8.3.7,8.3,3Z"/><path class="cls-1" d="M48.3,27.5c.5,0,.9.8.9,1.9s-.4,1.9-.9,1.9-.9-.8-.9-1.9.4-1.9.9-1.9Z"/><path class="cls-4" d="M35.6,263.2c-2.5.3-5.4.4-6.8,0-2.3-.4-4.3-1.7-5.7-3.4.5-9.8-1.1-24.9-.8-30.9,5.1,1.5,11.7,2.4,18.7,2.8.7,7.9-1.2,24.3-1.6,30.5-.8.5-2.2.8-3.9,1Z"/><path class="cls-8" d="M35.6,263.2c0,2.5-1.6,9-2,9.5-2.4,3-10.1,3.9-14.5,5.5-5.1,1.8-11,2.4-16,.3-1.2-.5-2.4-1.4-2.2-2.6.1-.7.7-1.3,1.3-1.7,7.6-5,16.8-10.8,21-14.1,0,0,0-.1,0-.2,1.3,1.8,3.4,3,5.7,3.4,1.4.3,4.3.2,6.8,0Z"/><path class="cls-7" d="M30.7,20.8c2.2,0,4.6.8,3.7,3.6-1.9-.5-6.6-.4-8.9.4-.2-2,3-4,5.2-4Z"/><path class="cls-1" d="M30.2,27.7c.4,0,.8.8.8,1.8s-.4,1.8-.8,1.8-.8-.8-.8-1.8.4-1.8.8-1.8Z"/><path class="cls-6" d="M79.1,125.3s0,0,0,0c-1.6-3.4-3.6-7.4-6.1-8.5-.8.2-1.7.4-2.7.5-3.3.5-7,.9-6.2,4.6-1.8,1.9-3.4,4.1.6,5.1-.8,1.9.6,3.2,1.8,3.4-1.2,1.5,1,2.7,2,2.7-.1,2,1.6,2,3.4,1.4,1.8-.7,3.8-2,4.5-2.6,1.8-1.7,3.4-4,2.6-6.5Z"/><path class="cls-6" d="M63,28.2c1-4.7.4-7.9-.2-12.6-1-7.3-5.7-10.7-9.3-12.7C49.1.4,45.3.3,40.3.3c-13.6,0-17.4,10.9-17.9,14.5-.5,3.4-1.7,9-.7,13.5h0c-.2.1-.4.2-.5.4-.3.3-.4.7-.5,1.1-.7,2.8-.1,6.8,3.7,8.7.1.6.3,1.3.4,1.9,0,.2,0,.4.1.6,1,2.9,4.7,7.9,5.3,7.7.3-1.6.7-4.3,1-5.9,2.1-.5,5.2-1.6,7.2-1.6,2.7,0,7.1.8,9.7,1.2.6,2.7.4,4.1.8,6.6,5-1.8,10.3-11.9,10.3-17.5.2,2.3,0,6.6,0,6.6,0,.3-.2.5-.2.8h.5c.9.8,2.8.2,3.6-2.3.7-2.2,2.7-7.2,0-8.3ZM30.2,31.3c-.4,0-.8-.8-.8-1.8s.4-1.8.8-1.8.8.8.8,1.8-.4,1.8-.8,1.8ZM34.3,24.5c-1.9-.5-6.6-.4-8.9.4-.2-2,3-4,5.2-4,2.2,0,4.6.8,3.7,3.6ZM48.3,31.3c-.5,0-.9-.8-.9-1.9s.4-1.9.9-1.9.9.8.9,1.9-.4,1.9-.9,1.9ZM43.6,24.4c-.2,0-1.2-3.2.6-3.9,1.7-.6,8.3.7,8.3,3-.3.7-4.7,0-9,.9Z"/><path class="cls-6" d="M53.5,49.9c-.4.6-.8,1.1-1.2,1.5-2.6,2.8-6.9,6.5-12.7,6.5-2.7-.5-4.9-1.7-6.8-3.3-.3.4-.9,2.7-1.3,4.3-.2.8-.4,1.5-.6,1.7h0c2,3.1,7.9,4.6,12.1,4.2,3-.3,9.6-1.7,12.5-4.8-.1-.2-.3-.8-.4-1.6-.5-2.7-1.2-7.7-1.5-8.5Z"/><path class="cls-6" d="M35.6,51.1c2.6.8,5.4.8,8,0,1.3-.4,2.7-1.1,3.2-2.4.4-.9.4-4.7-.1-5-.7-.4-7.1-1.1-8.2-1.3-.9-.1-5.3,1.3-5.9,1.9-.4.4-.2,4.2.4,5.2.6.9,1.6,1.4,2.6,1.7Z"/><path class="cls-6" d="M21.5,114.2c-1.3,2.5-3.2,7.7-5.2,11.3.6,2,1,3.8,1.8,5.8,1,2.7,2.8,2.9,4.4,3.3-.2-5.1-.6-12.8-1-20.3h0Z"/><path class="cls-3" d="M62.8,15.5c.7,4.7,1.2,7.9.2,12.6-1.8-.8-3.5.1-3.7,2.4,0,0,0-.2,0-.2,0,.7-.8-14.5-6-18.7-3.8-3.1-8.3-3.4-14.2-3.4-9.1,0-14.1,3.9-16.1,12.2-.6,2.4-.6,5.4-.5,7.9h-.2c-.2,0-.4,0-.5,0h0c-1-4.5.2-10.1.7-13.5.6-3.6,4.3-14.5,17.9-14.5,5,0,8.8,0,13.2,2.5,3.6,2,8.2,5.4,9.3,12.7Z"/><path class="cls-9" d="M31.4,58.9c-1.4.2-4.2,1.3-6.5,2.1-1,.4-2,.7-2.6.9-3.3.8-15,21.7-17.1,24.9"/><path class="cls-9" d="M83.9,98.7c-1.9-2.1-8.4-7.7-12.6-13.7-.9-1.2-1.7-2.5-2.3-3.7"/><path class="cls-9" d="M60,59.4c.2,0,.4,0,.6,0,2.7.5,9.6,3.7,11.1,4.3,3.3,1.5,19.5,20.6,19.5,20.6"/><path class="cls-9" d="M20.9,80.1c-.3,4.4-.2,5.6,0,9.2,0,1.6,0,3.7,0,6.7,0,4.7.3,11.3.6,18.1,0,0,0,0,0,0,.4,7.5.8,15.2,1,20.3"/><path class="cls-9" d="M71,85c-.8,1.9-1.1,27.3-.8,31.3"/><path class="cls-9" d="M16.3,125.2c0,0,0,.1,0,.2.6,2,1,3.8,1.8,5.8,1,2.7,2.8,2.9,4.4,3.3"/><path class="cls-9" d="M5.2,86.8c-1.8,3.1-3.5,6.6-4.3,9.6-1,3.5-.6,6.7.5,9.3"/><path class="cls-9" d="M20.5,89.3c-2,2.3-6.3,12.1-7.1,12.9"/><path class="cls-9" d="M11.3,98.7c1,1.7,1.6,2.7,2.1,3.6.6,1.1,1.1,2.1,2.2,4.4.9,1.7,5.6,6.9,5.9,7.5,0,0,0,0,0,0h0"/><path class="cls-9" d="M91.2,84.5c4,4.8,4.1,4.8,6.4,8.9,2.7,4.9-2.2,19.2-5.8,23.4"/><path class="cls-9" d="M73,116.8c3.6-4.6,5.7-10,8.1-13.3,1.1-1.5,1.9-3,3.1-4.5.7-.9,1.6-1.8,2.7-2.7"/><path class="cls-10" d="M79.1,125.3c0-.2-.1-.3-.2-.5"/><path class="cls-9" d="M66.2,119.8c-.4.5-1.2,1.2-2,2.1-1.8,1.9-3.4,4.1.6,5.1-.8,1.9.6,3.2,1.8,3.4-1.2,1.5,1,2.7,2,2.7-.1,2,1.6,2,3.4,1.4,1.8-.7,3.8-2,4.5-2.6,1.8-1.7,3.4-4,2.6-6.5"/><path class="cls-9" d="M73,116.8c-.8.2-1.7.4-2.7.5-3.3.5-7,.9-6.2,4.6,0,0,0,0,0,0"/><path class="cls-9" d="M22.6,134.5c-.4,7.5-.8,8.3-1.6,15.4-1,8.1-5.1,67.7-6.6,75.5,1.9,1.4,4.6,2.6,8,3.6,5.1,1.5,11.7,2.4,18.7,2.8,4.8.2,9.7.2,14.6-.2,7-.5,13.8-1.6,19.7-3.3,2.8-.8,5.3-1.8,7.6-2.9"/><path class="cls-9" d="M82.9,225.4s-2.5-29.6-5.1-46.3c-2.3-15.1-3.4-36.3-5.8-44.6"/><path class="cls-9" d="M30.8,60.6s0,0,0,0c2,3.1,7.9,4.6,12.1,4.2,3-.3,9.6-1.7,12.5-4.8"/><path class="cls-9" d="M55,58.4h0c2.3.2,3,.8,5,1"/><path class="cls-10" d="M73,116.8c2.5,1.1,4.4,5.1,6.1,8.5,0,0,0,0,0,0,.7,1.6,1.4,3,2,4,2.6-3.2,7.8-8.7,10.7-12.5"/><path class="cls-10" d="M21.5,114.2c-1.3,2.5-3.2,7.7-5.2,11.3-.7,1.2-1.3,2.2-2,2.9-5.4-6.9-10.1-16.1-13-22.7"/><path class="cls-9" d="M44.9,122.5c.3,0-.5-16-.4-23.9,0-1.8-1-28.8.5-29.7,2.7-1.6,16.4-6.6,15.7-9.5,0,0,0,0,0,0"/><path class="cls-9" d="M25.3,61.1c.9,5.7,14.2,7.6,14.2,7.6,1.1,1.9-1.3,37.2-1.2,53.3,0,.9,5.8.6,6.6.6"/><path class="cls-9" d="M55.4,60c-.1-.2-.3-.8-.4-1.6-.5-2.7-1.2-7.7-1.5-8.5"/><path class="cls-9" d="M30.8,60.6c.1-.2.4-.9.6-1.7.5-1.6,1-3.9,1.3-4.3"/><path class="cls-9" d="M22.3,229c-.3,6,1.3,21.2.8,30.9,0,0,0,.2,0,.2"/><path class="cls-9" d="M41,231.6c0,0,0,.1,0,.2.7,7.9-1.2,24.3-1.6,30.5"/><path class="cls-9" d="M75.3,228.3c.2,6-1.8,18.2-1.6,31.3"/><path class="cls-9" d="M55.6,231.6h0c-.4,8.2,1.7,22.6,3.1,30.7"/><path class="cls-9" d="M35.6,263.2h0c0,2.5-1.6,9-2,9.5-2.4,3-10.1,3.9-14.5,5.5-5.1,1.8-11,2.4-16,.3-1.2-.5-2.4-1.4-2.2-2.6.1-.7.7-1.3,1.3-1.7,7.6-5,16.8-10.8,21-14.1"/><path class="cls-9" d="M96.2,276.9c0-.7-.6-1.3-1.3-1.8-7.4-5.7-15.9-11.1-21.3-15.4"/><path class="cls-9" d="M62.1,262.9c-.8,1.4.9,9.5,1.5,10.2,1.2,1.4,8.4,2.6,13.6,4.8,5.1,2.2,11.2,3.2,16.5,1.4,1.2-.4,2.6-1.3,2.5-2.5"/><path class="cls-9" d="M73.7,259.6c-1.2,1.6-2.8,2.6-4.9,3-1.3.2-4.2.5-6.7.3-1.5,0-2.7-.3-3.4-.6"/><path class="cls-9" d="M39.5,262.2c-.8.5-2.2.8-3.9,1-2.5.3-5.4.4-6.8,0-2.3-.4-4.3-1.7-5.7-3.4,0,0,0,0,0,0"/><path class="cls-10" d="M63.7,83.2c-4.5.1-7.9.4-12.4.2,0-.9.2-1.7.2-2.6,0,.2,11.1-.4,12.1,0,0,0,.2,1.2.1,2.4Z"/><path class="cls-9" d="M59.3,31.2s0,0,0,.1c.2,2.3,0,6.6,0,6.6,0,.3-.2.5-.2.8-1.6,4.8-3.8,8.8-5.5,11.1-.4.6-.8,1.1-1.2,1.5-2.6,2.8-6.9,6.5-12.7,6.5"/><path class="cls-9" d="M22.5,30.7s.9,3.6,1.8,7.7c.1.6.3,1.3.4,1.9,0,.2,0,.4.1.6.9,3.4,3.1,9.8,7.9,13.8,1.9,1.6,4.1,2.8,6.8,3.3"/><path class="cls-9" d="M25.4,24.9c2.3-.8,7-.9,8.9-.4"/><path class="cls-9" d="M43.6,24.4c4.3-.9,8.7-.2,9-.9"/><path class="cls-9" d="M34.5,38.4c.7,2.3,7.9,2.1,10.4,1"/><path class="cls-9" d="M59.2,31.1c0-.2,0-.4,0-.5.2-2.2,1.9-3.1,3.7-2.4,2.7,1.1.8,6.1,0,8.3-.8,2.4-2.6,3.1-3.6,2.4"/><path class="cls-9" d="M25.4,24.9c-.2-2,3-4,5.2-4,2.2,0,4.6.8,3.7,3.6"/><path class="cls-9" d="M43.6,24.4c-.2-.1-1.2-3.2.6-3.9,1.7-.6,8.3.7,8.3,3"/><path class="cls-9" d="M34.9,45.5c4.5,1,5.6,1.3,10.4-.5"/><path class="cls-9" d="M31,29.5c0,1-.4,1.8-.8,1.8s-.8-.8-.8-1.8.4-1.8.8-1.8.8.8.8,1.8Z"/><path class="cls-9" d="M49.2,29.4c0,1-.4,1.9-.9,1.9s-.9-.8-.9-1.9.4-1.9.9-1.9.9.8.9,1.9Z"/><path class="cls-9" d="M21.6,28.3c-1-4.5.2-10.1.7-13.5.6-3.6,4.3-14.5,17.9-14.5,5,0,8.8,0,13.2,2.5,3.6,2,8.2,5.4,9.3,12.7.7,4.7,1.2,7.9.2,12.6"/><path class="cls-9" d="M22.2,28.3c-.2,0-.4,0-.5,0-.2,0-.4.2-.5.3-.3.3-.4.7-.5,1.1-.7,2.8-.1,6.8,3.7,8.7"/><path class="cls-9" d="M24.8,40.5c0,.1,0,.2.1.3,1,2.9,4.7,7.9,5.3,7.7.3-1.6.7-4.3,1-5.9,2.1-.5,5.2-1.6,7.2-1.6,2.7,0,7.1.8,9.7,1.2.6,2.7.4,4.1.8,6.6,5-1.8,10.3-11.9,10.3-17.5,0-.3,0-.5,0-.8"/><path class="cls-9" d="M46.7,48.7c-.5,1.3-1.9,2-3.2,2.4-2.6.8-5.4.8-8,0-1-.3-2-.8-2.6-1.7-.7-1-.8-4.7-.4-5.2.5-.6,5-2,5.9-1.9,1.1.1,7.5.9,8.2,1.3.6.4.5,4.1.1,5Z"/></svg>