<?xml version="1.0" encoding="UTF-8"?><svg id="Africa" xmlns="http://www.w3.org/2000/svg" width="107" height="161" viewBox="0 0 107 161"><defs><style>.cls-1{fill:#010101;}.cls-1,.cls-2,.cls-3,.cls-4,.cls-5,.cls-6,.cls-7,.cls-8{stroke-width:0px;}.cls-2{fill:#46678a;}.cls-9{stroke-linejoin:round;}.cls-9,.cls-10{fill:none;stroke:#000;stroke-linecap:round;stroke-width:.6px;}.cls-3{fill:#574538;}.cls-4{fill:#2f3d52;}.cls-5{fill:#cda266;}.cls-10{stroke-miterlimit:10;}.cls-6{fill:#845d3d;}.cls-7{fill:#1c1c1c;}.cls-8{fill:#222427;}</style></defs><path class="cls-7" d="M100.2,31.2c.2,2.2,0,6.4,0,6.4,0,.2-.1.5-.2.7-1.9,5.7-4.8,10.4-6.4,12.1-2.5,2.7-6.6,6.3-12.2,6.3-2.7-.5-5-1.8-6.8-3.4-4.4-3.8-6.5-9.7-7.3-13,1,2.8,4.5,7.5,5.1,7.4.3-1.5.7-4.1,1-5.6,2-.5,5-1.6,6.9-1.6,2.6,0,6.8.8,9.3,1.2.6,2.6.4,3.9.7,6.3,4.8-1.8,9.8-11.4,9.9-16.8ZM88.2,47.8c.3-.9.4-4.5-.1-4.8-.7-.4-6.8-1.1-7.9-1.2-.8-.1-5.1,1.3-5.6,1.9-.4.4-.2,4,.4,5,.6.9,1.6,1.3,2.5,1.6,2.5.8,5.2.7,7.7,0,1.3-.4,2.6-1.1,3-2.3Z"/><path class="cls-5" d="M93.2,53.1c.9.9,1.6,1.9,2.3,2.9-2.9,2.1-6.8,3.4-10.9,3.6h0c-1.7-.7-3.4-1.4-4.9-2,4.3.2,10.7-1.5,13.5-3.1,0-.5,0-.9,0-1.3h0Z"/><path class="cls-7" d="M93.8,23.7c-.3.6-4.5,0-8.6.9-.2,0-1.1-3.1.6-3.7,1.6-.6,8,.7,8,2.9Z"/><ellipse class="cls-1" cx="89.7" cy="29.4" rx=".9" ry="1.8"/><path class="cls-7" d="M72.7,21.2c2.1,0,4.4.8,3.5,3.5-1.8-.5-6.3-.4-8.5.4-.2-1.9,2.9-3.8,5-3.8Z"/><path class="cls-1" d="M72.3,27.7c.4,0,.8.8.8,1.8s-.4,1.8-.8,1.8-.8-.8-.8-1.8.4-1.8.8-1.8Z"/><path class="cls-5" d="M72.2,74.7h0c-1.8,6.3-2.4,20.3-3.1,23,0,0-2.1-.1-3.6-.4.4-3.4.9-20.1,2.3-25h0c1.5.8,3,1.6,4.5,2.4Z"/><path class="cls-2" d="M95.5,55.9h0c-2.9,2.1-6.8,3.4-10.9,3.6h0c-1.7-.7-3.4-1.4-4.9-2-1.9-.8-3.7-1.6-5.3-2.3-9.9-4.3-15.4-7-19.4-9.3-.4-.2-.6-.6-.5-1,.7-3,3.5-14.6,6.2-21.3,1.6-4.1,3.5-8.9,4.6-12,.4-1,.7-1.8.9-2.4-.7,0-2-.3-3.5-.7-2.6-.6-5.8-1.6-8.1-2.2h0c-.8-.2-1.4-.4-2-.5-1.9,5.3-3.6,9-4.6,11.7-2.2,6-4.4,12.1-5.9,17.5-1.8-4.8-4.1-8-6.2-12.5-1.6-3.3-5.3-14.1-5.9-16-2,.3-6.5,2-10.1,3.2-1.9.6-3.5,1.1-4.4,1.2,2.6,12.1,17.5,35,19.8,39.1,2,3.8,10.4,14.3,28.8,27.1h.2c-1,8.8-1.4,21.8-1.1,22.9h0c-.2-.4-.4-.7-.5-1.1-4.1-8.2-8.9-18.7-13.7-27.5-1.4-2.5-3.6-4.4-6.4-4.9-2-.4-4.2-.4-6.7-.2-3.2.2-7.5,2.8-9,6.8-2.4,5.6-5.4,17.8-5.6,19.6-.4,2.6-.9,5.3-1.2,8-.5,5.3-3,19.7-3,20.3,1.8,1.8,3.9,3.4,6.1,4.7,5.4,3.3,11.8,5.3,18,6.3,1.8.3,3.5.5,5.3.6h.4c2.1,5.8,4.8,12.9,5.2,13.7,3.5,6.4,7.2,10.7,12.7,12.7,5.6,2,7.9,1.1,14.1.7,4.7-.3,15.1-1.9,17.7-16,.7-6.5,0-24.7,0-26,0-8.6.5-13.6,1.6-20.7,1-6.2,1.9-13.3,2.5-19.7.3-4.2,0-13.7-5.1-21.4ZM72.2,74.8c-1.8,6.3-2.4,20.2-3.1,23,0,0-2.1-.1-3.6-.4.4-3.4.9-20.1,2.3-25h0c1.5.8,3,1.6,4.5,2.4h0Z"/><path class="cls-6" d="M103.7,28.2c.9-4.5.4-7.5-.2-12.1-1-7-5.4-10.2-8.9-12.2-4.2-2.4-7.9-2.4-12.7-2.4-.7,0-1.5,0-2.1,0h0c0-.4,0-.8-.2-1.2-5.5.4-14.6,0-20.5.3-6.3-.2-4.1,4.2-4.6,5.7h0c2.3.7,5.5,1.6,8.1,2.2h0c2.1-1.8,5-2.6,7.9-3.1-2.4,2-3.9,4.4-4.7,6.4-.6,1.4-.9,2.6-1,3.5-.5,3.3-1.6,8.7-.7,12.9h0c-.2,0-.4.2-.5.4-.3.3-.4.7-.5,1-.7,2.7-.1,6.5,3.5,8.3.1.6.3,1.2.4,1.8,0,.2,0,.4.1.6,1,2.8,4.5,7.5,5.1,7.4.3-1.5.7-4.1,1-5.6,2-.5,5-1.6,6.9-1.6,2.6,0,6.8.8,9.3,1.2.6,2.6.4,3.9.7,6.3,4.8-1.8,9.8-11.4,9.9-16.8.2,2.2,0,6.4,0,6.4,0,.2-.1.5-.2.7l.5.2c.9.6,2.6,0,3.4-2.3.7-2.1,2.6-6.9,0-8ZM72.3,31.2c-.4,0-.8-.8-.8-1.8s.4-1.8.8-1.8.8.8.8,1.8-.4,1.8-.8,1.8ZM76.2,24.7c-1.8-.5-6.3-.4-8.5.4-.2-1.9,2.9-3.8,5-3.8,2.1,0,4.4.8,3.5,3.5ZM89.7,31.2c-.5,0-.9-.8-.9-1.8s.4-1.8.9-1.8.9.8.9,1.8-.4,1.8-.9,1.8ZM85.2,24.6c-.2,0-1.1-3.1.6-3.7,1.6-.6,8,.7,8,2.9-.3.6-4.5,0-8.6.9Z"/><path class="cls-6" d="M81.3,56.7c-2.7-.5-5-1.8-6.8-3.4h0c0,.7,0,1.2,0,1.9h0c1.6.8,3.4,1.6,5.3,2.4,4.3.2,10.7-1.5,13.5-3.1,0-.5,0-.9,0-1.3,0-.8.1-1.7.3-2.7-2.5,2.7-6.6,6.3-12.2,6.3Z"/><path class="cls-6" d="M77.5,50.2c2.5.8,5.2.7,7.7,0,1.3-.4,2.6-1.1,3-2.3.3-.9.4-4.5-.1-4.8-.7-.4-6.8-1.1-7.9-1.2-.8-.1-5.1,1.3-5.6,1.9-.4.4-.2,4,.4,5,.6.9,1.6,1.3,2.5,1.6Z"/><path class="cls-6" d="M36,.4c-4.7,0-14.8-1-16.9,2.1-.7,1,.2,4.3.8,7.1h0c3.6-1.2,8-2.9,10.1-3.2l5.9-1.2c2.2-.4,7.4-.7,7.8-3.8.2-1-5.8-1.1-7.6-1.1Z"/><path class="cls-8" d="M42.9,152.1c.4,2.2.7,5.8-1,7.1-1.5,1.1-3.3,1-5.1,1.1-9.9.6-32.1.6-32.6-.1-1.3-1.7-4.9-9.6,1.6-10.3,6.5-.7,14.9-1.2,19.9-5.5,5.4,3.1,7.8,6.8,13.8,2.6,0-.2,0-.3,0-.5h.1c1.6,1.6,2.9,3.4,3.3,5.6Z"/><path class="cls-4" d="M41.1,132h0c-1,5.9-1.3,10.7-1.6,14.6,0,.2,0,.3,0,.5-6,4.2-8.4.4-13.8-2.6-.5-7.8-1.3-9.2-2.5-18.7h0c5.4,3.2,11.8,5.3,18,6.3Z"/><path class="cls-3" d="M100.1,30.2s-.9-14-5.7-18c-3.7-3-8-3.2-13.6-3.2-8.7,0-13.5,3.7-15.5,11.7-.5,2.3-.6,5.2-.5,7.6h-.2c-.2,0-.3,0-.5,0h0c-.9-4.3.2-9.7.7-13,.1-.9.4-2.1,1-3.5.8-2,2.3-4.4,4.7-6.4,3-.6,6.1-.9,8.2-1.9.3,0,1.1-.6,1.1-1.9h0c.7,0,1.4,0,2.1,0,4.8,0,8.5,0,12.7,2.4,3.5,1.9,7.9,5.2,8.9,12.2.7,4.6,1.2,7.6.2,12.1-1.7-.7-3.4.1-3.6,2.3,0,0,0-.2,0-.2Z"/><path class="cls-9" d="M65.2,70.9c-.4,1.5-.7,3.6-1,6.2-1,8.8-1.4,21.8-1.1,22.9"/><path class="cls-9" d="M95.5,55.9c5.2,7.6,5.4,17.2,5.1,21.4-.5,6.3-1.5,13.5-2.5,19.7-1.1,7.1-1.5,12.1-1.6,20.7,0,1.3.6,19.5,0,26-2.6,14.2-13,15.8-17.7,16-6.2.4-8.6,1.3-14.1-.7-5.5-2-9.2-6.3-12.7-12.7-.4-.8-3.1-7.9-5.2-13.8-1.4-4-2.7-7.4-2.8-7.9-1.8-5.4-4.9-19.6-3.8-21.6"/><path class="cls-9" d="M93.2,53.1c.9.9,1.6,1.9,2.3,2.9"/><path class="cls-9" d="M81,137c-2.1-4.3-13.9-28.9-17.9-37-.2-.4-.4-.8-.5-1.1-4.1-8.2-8.9-18.7-13.7-27.5-1.4-2.5-3.6-4.4-6.4-4.9-2-.4-4.2-.4-6.7-.2-3.2.2-7.5,2.8-9,6.8-2.4,5.6-5.4,17.8-5.6,19.6-.4,2.6-.9,5.3-1.2,8-.5,5.3-3,19.7-3,20.3"/><path class="cls-9" d="M23.1,125.7c1.2,9.5,2,10.9,2.5,18.7,5.4,3.1,7.8,6.8,13.8,2.6,0-.2,0-.3,0-.5.3-3.9.7-8.7,1.6-14.5"/><path class="cls-10" d="M17,120.9c1.8,1.8,3.9,3.4,6.1,4.7,5.4,3.3,11.8,5.3,18,6.3,1.8.3,3.5.5,5.3.6"/><path class="cls-10" d="M25.6,144.4c-5,4.3-13.4,4.8-19.9,5.5-6.5.7-2.9,8.7-1.6,10.3.6.7,22.7.7,32.6.1,1.8-.1,3.7,0,5.1-1.1,1.7-1.3,1.4-5,1-7.1-.4-2.2-1.7-4-3.3-5.6"/><path class="cls-9" d="M93.1,54.4c-2.8,1.7-9.1,3.3-13.5,3.1h0"/><path class="cls-9" d="M95.5,55.9h0c-2.9,2.1-6.8,3.4-10.9,3.6"/><path class="cls-9" d="M67.7,72.3c-1.3,4.9-1.8,21.6-2.3,25"/><path class="cls-9" d="M72.2,74.8c-1.8,6.3-2.4,20.2-3.1,23,0,0-2.1-.1-3.6-.4"/><path class="cls-9" d="M93.1,54.4c0-.5,0-.9,0-1.3,0-.8.1-1.7.3-2.7"/><path class="cls-9" d="M100.2,31.1s0,0,0,0c.2,2.2,0,6.4,0,6.4,0,.2-.1.5-.2.7-1.9,5.7-4.8,10.4-6.4,12.1-2.5,2.7-6.6,6.3-12.2,6.3"/><path class="cls-9" d="M64.9,30.6s.8,3.4,1.7,7.4c.1.6.3,1.2.4,1.8,0,.2,0,.4.1.6.8,3.2,2.9,9.1,7.3,13,1.8,1.6,4.1,2.9,6.8,3.4"/><path class="cls-9" d="M67.7,25c2.2-.8,6.7-.8,8.5-.4"/><path class="cls-9" d="M85.2,24.6c4.1-.9,8.3-.2,8.6-.9"/><path class="cls-9" d="M76.4,38c.6,2.2,7.5,2,9.9,1"/><path class="cls-9" d="M100.1,31c0-.2,0-.3,0-.5.2-2.2,1.8-3,3.6-2.3,2.6,1.1.7,5.9,0,8-.8,2.3-2.5,2.9-3.4,2.3"/><path class="cls-9" d="M67.7,25c-.2-1.9,2.9-3.8,5-3.8,2.1,0,4.4.8,3.5,3.5"/><path class="cls-9" d="M85.2,24.6c-.2,0-1.1-3.1.6-3.7,1.6-.6,8,.7,8,2.9"/><path class="cls-9" d="M76.8,44.8c4.4,1,5.3,1.3,10-.5"/><path class="cls-9" d="M73.1,29.5c0,1-.4,1.8-.8,1.8s-.8-.8-.8-1.8.4-1.8.8-1.8.8.8.8,1.8Z"/><ellipse class="cls-9" cx="89.7" cy="29.4" rx=".9" ry="1.8"/><path class="cls-9" d="M79.8,1.6c.7,0,1.4,0,2.1,0,4.8,0,8.5,0,12.7,2.4,3.5,1.9,7.9,5.2,8.9,12.2.7,4.6,1.2,7.6.2,12.1"/><path class="cls-9" d="M64.1,28.3c-.9-4.3.2-9.7.7-12.9.1-.9.4-2.1,1-3.5.8-2,2.3-4.4,4.7-6.4,0,0,0,0,0,0"/><path class="cls-9" d="M64.6,28.3c-.2,0-.3,0-.5,0-.2,0-.4.2-.5.3-.3.3-.4.7-.5,1-.7,2.7-.1,6.5,3.5,8.3"/><path class="cls-9" d="M67.1,40c0,.1,0,.2.1.3,1,2.8,4.5,7.5,5.1,7.4.3-1.5.7-4.1,1-5.6,2-.5,5-1.6,6.9-1.6,2.6,0,6.8.8,9.3,1.2.6,2.6.4,3.9.7,6.3,4.8-1.8,9.8-11.4,9.9-16.8,0-.2,0-.5,0-.7,0,0,0-.2,0-.2"/><path class="cls-9" d="M88.2,47.8c-.5,1.2-1.8,1.9-3,2.3-2.5.8-5.2.8-7.7,0-1-.3-2-.7-2.5-1.6-.6-1-.8-4.5-.4-5,.5-.6,4.8-2,5.6-1.9,1.1.1,7.2.8,7.9,1.2.6.3.5,3.9.1,4.8Z"/><path class="cls-9" d="M66.1,9.3c-.2.5-.5,1.4-.9,2.4-1.2,3.1-3,7.9-4.6,12-2.7,6.7-5.5,18.3-6.2,21.3,0,.4.2.8.5,1,4,2.3,9.5,5,19.4,9.3,1.6.7,3.4,1.5,5.3,2.3,1.5.7,3.2,1.4,4.9,2.1,2.2.9,4.5,1.9,7,2.9"/><path class="cls-9" d="M59.1.7c5.9-.4,15,0,20.5-.3.2.5.2.9.2,1.2,0,1.3-.9,1.9-1.1,1.9-2.1,1-5.2,1.4-8.2,1.9-2.9.5-5.8,1.3-7.9,3"/><path class="cls-9" d="M54.5,6.3c.5-1.4-1.7-5.8,4.6-5.7"/><path class="cls-9" d="M92.4,81.2c-3.6,1.3-11.9-2.1-20.3-6.5-1.5-.8-3-1.6-4.5-2.4-.8-.5-1.7-1-2.5-1.4-7.1-4.2-13.2-8.3-14.8-9.8-5.4-5-3.7-3.8-8.8-9-2.6-2.7-1.8-9.2.4-17.1,1.5-5.4,3.7-11.5,5.9-17.5,1-2.7,2.7-6.4,4.6-11.7"/><path class="cls-9" d="M19.8,9.6c-.6-2.8-1.4-6.1-.8-7.1C21.2-.6,31.3.4,36,.4c1.8,0,7.8,0,7.6,1.1-.4,3-5.7,3.3-7.8,3.8l-5.9,1.2c.6,1.9,4.3,12.8,5.9,16,2.2,4.4,4.5,7.7,6.2,12.5"/><path class="cls-9" d="M64,77.1c-18.5-12.7-26.8-23.3-28.8-27.1-2.2-4.1-17.2-27-19.8-39.1"/><path class="cls-9" d="M29.9,6.5c-2,.3-6.5,2-10.1,3.2-1.9.6-3.5,1.1-4.4,1.2"/><path class="cls-9" d="M52.5,5.8c.5.1,1.2.3,2,.5h0c2.3.7,5.5,1.6,8.1,2.2,1.5.4,2.8.7,3.5.7"/><path class="cls-9" d="M74.4,53.4c0,.7,0,1.1,0,1.8"/></svg>