<?xml version="1.0" encoding="UTF-8"?><svg id="Latin_America" xmlns="http://www.w3.org/2000/svg" width="88" height="126" viewBox="0 0 88 126"><defs><style>.cls-1{fill:#010101;}.cls-1,.cls-2,.cls-3,.cls-4,.cls-5,.cls-6,.cls-7,.cls-8{stroke-width:0px;}.cls-9{stroke-linejoin:round;}.cls-9,.cls-10{fill:none;stroke:#000;stroke-linecap:round;stroke-width:.6px;}.cls-2{fill:#d18d75;}.cls-10{stroke-miterlimit:10;}.cls-3{fill:#513a38;}.cls-4{fill:#d61d4b;}.cls-5{fill:#ef599d;}.cls-6{fill:#cd8cb2;}.cls-7{fill:#fff;}.cls-8{fill:#623a38;}</style></defs><path class="cls-4" d="M76.3,6.2c1.5.4,2.5.9,2.6,1.5.2.8,1,9.2.1,9-3-.5-6-.9-9.1-1.2-7.7-.7-15.4-.6-22.7,1.4h0c-.2,0-.5.1-.7.2-.5.1-1.1.3-1.6.3s-.6,0-.9-.2c-.3-.1-.3-.5-.1-2.1,1-3.6,2-6.9,2.8-9.1.5-.1,1.1-.2,1.8-.4,0,0,0,0,0,0,3.2-.5,8.3-1.1,12.5-1.2,2.5,0,10.8.5,15.1,1.7Z"/><path class="cls-8" d="M79,16.7c1.7,4.3,2.9,18.1-4.2,20.9h0c0-.5-.1-1.1-.2-1.6.3-1,.5-2.1.6-3.4,0-7.9-2.4-15.1-5.1-17.1,3,.3,6.1.7,9.1,1.2Z"/><path class="cls-5" d="M54.9,81.7c-1-1.4-2-2.8-3-4.1.5.6,1.4,1.8,2.1,1.3-1.1-6.8-1.6-15.4-2.2-22.3l.4-.3c1.4,1.2,3,2.5,4.6,3.6h0c0,6.3.6,12.5,1.7,18.7.2.9.4,1.8,1,2.5.6.7,1.8.9,2.4.2.5-.6.3-1.5.2-2.2-1.3-5.6-2.1-11.3-2.3-17v-.2c4.7,2.5,9,3.2,10.8-1.4,1.4-3.1-1.1-6.7-4.9-9.9,1.6-1.8,3.3-2.5,4.8-3h1c1.1.8,1.7,1.4,3.7,3.6,7.4,8.2,1.9,41.3,2.9,57.5-.5,6.4-1.3,13.9-7.8,16.1-6,2-14.5.4-19.5-4.3-2.6-2.4-8.2-13.6-12.3-25.1h0c6.9-3,12.1-7.5,16.5-13.6h0Z"/><path class="cls-8" d="M74.7,37.6c1.1,8.2-1.3,8.7-4.4,9.8-1.5.5-3.3,1.2-4.8,3-1.4-1.2-2.9-2.3-4.5-3.4,2.1-.5,4.1-1.6,7.7-3.8,1.1-.7,4.4-2.2,5.8-7.3,0,.6.2,1.1.2,1.6Z"/><path class="cls-2" d="M54.1,38.8h0c.9,1.6,1.8,2.4,3.8,2.6,1.2.2,3.7,0,4.9-.8,1.2-.7,1.7-1,3.1-3-.7.6-8.3,2.4-11.8,1.2ZM75.1,32.6c0,1.3-.3,2.4-.6,3.4-1.4,5.1-4.7,6.6-5.8,7.3-3.6,2.2-5.6,3.4-7.7,3.8-3.1-2.1-6.4-3.9-8.9-5.2-1.4-1.1-2.5-2-3.5-2.8-.4-.8-.6-1.6-.8-2.4-.3-1.2-.5-2.5-.7-3.9-.5-4.7-1-5.9-1-5.9-.7-3.1-.3-.3-.4-3.2,0-2.9.5-5.1,1.5-6.9h0c7.3-2,15-2.2,22.7-1.4,2.7,1.9,5.1,9.2,5.1,17.1ZM65.7,26.8c0-1.3-.6-2.4-1.2-2.4s-1.2,1.1-1.2,2.4.6,2.4,1.2,2.4,1.2-1.1,1.2-2.4ZM51.8,26.8c0-1.2-.5-2.1-1-2.1s-1,.9-1,2.1.5,2.1,1,2.1,1-.9,1-2.1Z"/><path class="cls-6" d="M43.9,15.1c-1.7,6-3.5,12.9-4.4,16.2h0c3.9,3,3,3,9.2,7.9,1,.8,2.1,1.7,3.5,2.8,2.5,1.3,5.8,3.1,8.9,5.2,1.6,1.1,3.1,2.2,4.5,3.4,3.8,3.3,6.3,6.8,4.9,9.9-1.8,4.6-6.1,3.9-10.7,1.4-1-.5-2-1.2-3-1.9-1.6-1.1-3.2-2.4-4.6-3.6-1-.9-2-1.7-2.8-2.5-1.6-1.5-2.9-2.9-3.7-3.6-5.4-4.7-10.7-8.8-14.8-14.5-.6-2.2,0-5.4,1.2-9.1,2.4-7.4,6.9-16.4,8.2-21.7,2.2-.3,4.3.2,6.3.9h0s0,0,0,0c-.8,2.2-1.8,5.5-2.8,9.1Z"/><path class="cls-4" d="M68.6,1.3c4.1,0,7,3.2,7.6,4.8-4.3-1.2-12.7-1.7-15.1-1.7-4.3,0-9.4.6-12.5,1.2,0-.1.5-.9.9-1.4h0c3-.6,7.1-1.3,7.9-2.9h11.2Z"/><path class="cls-1" d="M64.4,24.4c.7,0,1.2,1.1,1.2,2.4s-.6,2.4-1.2,2.4-1.2-1.1-1.2-2.4.6-2.4,1.2-2.4Z"/><path class="cls-7" d="M65.9,37.6c-1.4,2-1.9,2.2-3.1,3-1.2.8-3.7,1-4.9.8-2-.3-2.9-1.1-3.8-2.6h0c3.5,1.1,11.1-.6,11.8-1.2Z"/><path class="cls-8" d="M62,79.1c.2.8.3,1.7-.2,2.2-.6.7-1.8.5-2.4-.2-.6-.7-.8-1.6-1-2.5-1.1-6.1-1.7-12.4-1.7-18.6h0c1,.6,2,1.2,3,1.8v.2c0,5.7.9,11.5,2.2,17Z"/><path class="cls-2" d="M47.2,4.8c-.1.3-.3.7-.4,1.2h0c-2-.8-4.2-1.3-6.3-1,0-.3.1-.6.2-.9.5-2.1.5-3.4,3-3.5,5.2-.4,12.8-.7,13.9.5h0c0,0,0,.1,0,.2-.8,1.5-4.9,2.2-7.9,2.9-.9.2-1.7.4-2.3.6Z"/><path class="cls-6" d="M36.7,90.2c0,1.9-4.9,15.2-5.4,23.8-.8.4-3.5,2-5.2,1.5-1.7-.5-3.8-1.7-5.1-2.8,0-.3.2-.9.3-1.5.9-6,2.1-23.4,4-30.9.5-2.2,3.8-14.6,6.7-16.1,4.2-2.1,6.7-1.6,9.1-.5,1.1.8,5.8,6.9,10.9,13.9,0,0,0,0,0,0,1,1.3,2,2.7,3,4.1h0c-4.4,6.1-9.5,10.6-16.5,13.6h0c-.6-1.7-1.2-3.4-1.7-5.1Z"/><path class="cls-8" d="M54,78.9c-.7.5-1.6-.7-2.1-1.3,0,0,0,0,0,0-.5-.6-.5-2.4-.6-3.2-1.1-6.2-1.8-12.5-2-18.7,0-.5,0-1.1,0-1.6h.1c.9.7,1.8,1.5,2.8,2.4l-.4.3c.7,6.8,1.2,15.5,2.2,22.3Z"/><path class="cls-1" d="M50.8,24.7c.6,0,1,.9,1,2.1s-.5,2.1-1,2.1-1-.9-1-2.1.5-2.1,1-2.1Z"/><path class="cls-6" d="M44.9,51.8c-1-.4-3.1-3-5.1-4.6-2.7-2.2-7.5-5.8-10.6-8.5-2.4-2.1-3.3-3.4-4.1-6.7-1.8-7.5-5.2-18.4-6.4-24.7,0-.2,0-.4,0-.6h0c1.9-1.2,4.2-1.7,6.4-1.3h.1c.6,5.4,6.4,18.2,7.2,21.4h0c-1.2,3.7-1.8,6.9-1.2,9.1,4,5.7,9.3,9.8,14.8,14.5.7.8,2,2.1,3.7,3.6h-.1c0,.7,0,1.2,0,1.7h0c-.5-.2-2.4-1.9-4.4-3.8Z"/><path class="cls-4" d="M48.6,5.7s0,0,0,0c0,0,0,0,0,0Z"/><path class="cls-8" d="M47.8,36.8h-.3c-3.1-2.6-3.8-13.7-2.6-19.4.5,0,1.1-.2,1.6-.3.2,0,.5-.1.7-.2-1,1.8-1.6,4.1-1.5,6.9.1,2.9-.3,0,.4,3.2,0,0,.5,1.1,1,5.9.1,1.4.3,2.7.7,3.9Z"/><path class="cls-3" d="M31.3,114c.9,2.3,1.2,6.4.8,7.4-.5,0-5.9.3-10.9.8-5,.5-8.2,1.3-12.1,1.3h0c0,0,0-.3,0-.3.2-2.1,0-5.4,0-7.6h.1c4.6-.9,10.3-2.1,11.8-3,1.3,1.2,3.4,2.3,5.1,2.8,1.7.5,4.4-1.2,5.2-1.5Z"/><path class="cls-3" d="M32.1,121.4s.3,2.8,0,2.7c-2.8.6-5.3-.1-9.6.5-10.4,1.4-15.6,1.7-21.5.2-.7-1-.5-1.8,0-3,0,.2,0,.4,0,.6l.2.4c3.3.6,5.8.9,8.1.8,3.8,0,7-.7,12.1-1.3,5-.5,10.4-.8,10.9-.8h0Z"/><path class="cls-2" d="M33.8.8c-1.1,2.7-6.1,3.2-8.8,3.7,0,.2,0,.4,0,.7h-.1c-2.2-.3-4.5.1-6.4,1.3h0c-.3-2.3,0-5,0-5,.4-1.2,15-1.6,15.2-.8Z"/><path class="cls-3" d="M21.3,111.2c0,.6-.2,1.2-.3,1.5-1.5.9-7.3,2.1-11.8,3h-.1s0,0,0,0c0-1.2-.1-2-.1-2,3.1-.4,9.7-1.4,10.2-3.4.7-2.7,1.3-3.7,2.1.9Z"/><path class="cls-3" d="M.9,121.7c.1-3.1,1.6-6.7,8-8,0,0,0,.8.1,2,.1,2.1.3,5.5,0,7.6v.2s0,0,0,0c-2.3,0-4.8-.2-8.1-.8l-.2-.4c0-.2,0-.4,0-.6Z"/><path class="cls-10" d="M78,108.6c-.5,6.4-1.3,13.9-7.8,16.1-6,2-14.5.4-19.5-4.3"/><path class="cls-9" d="M36.7,90.2c-.9-2.9-1.6-5.7-2.2-8.3"/><path class="cls-10" d="M50.7,120.5c-2.6-2.4-8.2-13.6-12.3-25.1-.6-1.7-1.2-3.4-1.7-5.1"/><path class="cls-9" d="M74.5,36c0,.6.2,1.1.2,1.6,1.1,8.2-1.3,8.7-4.4,9.8-1.5.5-3.3,1.2-4.8,3h0"/><path class="cls-9" d="M51.9,77.6c-5.1-7-9.8-13.1-10.9-13.9"/><path class="cls-9" d="M67,100c-1-2.4-6.4-10.4-12.1-18.3-1-1.4-2-2.8-3-4.1"/><path class="cls-9" d="M41,63.7c-2.4-1.1-4.9-1.6-9.1.5-2.9,1.5-6.2,13.9-6.7,16.1"/><path class="cls-9" d="M47.2,4.8c-.1.3-.3.7-.4,1.2,0,0,0,0,0,0-.8,2.2-1.8,5.5-2.8,9.1-1.7,6-3.5,12.9-4.4,16.2-.1.4-.2.7-.3,1"/><path class="cls-9" d="M40.5,4.1c0,.3-.1.6-.2.9-1.2,5.3-5.8,14.3-8.2,21.7-1.2,3.7-1.8,6.9-1.2,9.1"/><path class="cls-9" d="M52.2,41.9c-1.4-1.1-2.5-2-3.5-2.8-6.2-5-5.3-4.9-9.2-7.9"/><path class="cls-9" d="M45.7,50.3c-5.4-4.7-10.7-8.8-14.8-14.5"/><path class="cls-9" d="M57.5,1.1c0,0,0,.1,0,.2-.8,1.5-4.9,2.2-7.9,2.9-.9.2-1.7.4-2.3.6-.3.1-.6.2-.7.4"/><path class="cls-9" d="M40.5,4.1c.5-2.1.5-3.4,3-3.5,5.2-.4,12.8-.7,13.9.5"/><path class="cls-9" d="M32.2,26.7c-.7-3.2-6.5-16-7.2-21.4,0-.2,0-.5,0-.7,2.7-.5,7.6-1,8.8-3.7-.1-.8-14.8-.4-15.2.8,0,0-.4,2.7,0,5,0,.2,0,.4,0,.6,1.2,6.3,4.6,17.2,6.4,24.7.8,3.3,1.7,4.6,4.1,6.7,3.1,2.7,7.9,6.3,10.6,8.5,2,1.7,4.1,4.2,5.1,4.6h0"/><path class="cls-9" d="M40.4,5c2.2-.3,4.3.2,6.3.9"/><path class="cls-9" d="M24.9,5.3c-2.2-.4-4.5.1-6.4,1.3"/><path class="cls-9" d="M71.4,47.5c1.1.8,1.7,1.4,3.7,3.6,7.4,8.2,1.9,41.3,2.9,57.5"/><path class="cls-9" d="M45.7,50.3c.7.8,2,2.1,3.7,3.6.9.8,1.8,1.7,2.8,2.5,1.4,1.2,3,2.5,4.6,3.6,1,.7,2,1.3,3,1.9,4.6,2.5,8.8,3.2,10.7-1.4"/><path class="cls-9" d="M70.4,60.4c1.4-3.1-1.1-6.7-4.9-9.9-1.4-1.2-2.9-2.3-4.5-3.4-3.1-2.1-6.4-3.9-8.9-5.2"/><path class="cls-9" d="M46.1,50.5c-5.4-4.7-10.7-8.8-14.8-14.5"/><path class="cls-9" d="M40.1,47.4c1,.8,2.9,2.6,4.7,4.4,2,1.9,3.9,3.7,4.4,3.8"/><path class="cls-9" d="M59.6,62c.2,5.7,1,11.5,2.3,17,.2.8.3,1.7-.2,2.2-.6.7-1.8.5-2.4-.2-.6-.7-.8-1.6-1-2.5-1.1-6.1-1.7-12.4-1.7-18.6"/><path class="cls-9" d="M51.8,56.7c.7,6.8,1.2,15.5,2.2,22.3-.7.5-1.6-.7-2.1-1.3,0,0,0,0,0,0-.5-.6-.5-2.4-.6-3.2-1.1-6.2-1.8-12.5-2-18.7,0-.5,0-1.1,0-1.6"/><path class="cls-9" d="M54.9,81.7c-4.4,6.1-9.5,10.6-16.5,13.6"/><line class="cls-9" x1="12.5" y1="115" x2="12.6" y2="115"/><line class="cls-9" x1="9.1" y1="123.3" x2="9.1" y2="123.5"/><line class="cls-9" x1="9.1" y1="115.7" x2="9.2" y2="115.7"/><line class="cls-9" x1=".9" y1="122.3" x2="1.1" y2="122.7"/><path class="cls-9" d="M21,112.7c1.3,1.2,3.4,2.3,5.1,2.8,1.7.5,4.4-1.2,5.2-1.5.6-8.6,5.4-21.9,5.4-23.8h0c0,0,0,0,0-.1"/><path class="cls-9" d="M25.3,80.3c-1.9,7.5-3.1,24.9-4,30.9,0,.6-.2,1.2-.3,1.5"/><path class="cls-9" d="M31.3,114c.9,2.3,1.2,6.4.8,7.4"/><path class="cls-9" d="M32.1,121.4h0c-.5,0-5.9.3-10.9.8-5,.5-8.2,1.3-12.1,1.3-2.3,0-4.8-.2-8.1-.8"/><path class="cls-9" d="M21,112.7c-1.5.9-7.3,2.1-11.8,3"/><path class="cls-9" d="M.9,122.3c0-.2,0-.4,0-.6.1-3.1,1.6-6.7,8-8,0,0,0,.8.1,2,.1,2.1.3,5.5,0,7.6"/><path class="cls-9" d="M21.3,111.4c0,0,0-.1,0-.2-.8-4.7-1.5-3.6-2.1-.9-.5,2-7.1,3-10.2,3.4"/><path class="cls-9" d="M.9,124.7c5.9,1.5,11.1,1.3,21.5-.2,4.3-.6,6.8.1,9.6-.5.4.1,0-2.7,0-2.7"/><path class="cls-9" d="M.9,121.6s0,0,0,0c-.5,1.2-.6,2,0,3"/><path class="cls-9" d="M61.1,47.2c2.1-.5,4.1-1.6,7.7-3.8,1.1-.7,4.4-2.2,5.8-7.3.3-1,.5-2.1.6-3.4"/><path class="cls-9" d="M45.8,23.8c.1,2.9-.3,0,.4,3.2,0,0,.5,1.1,1,5.9.1,1.4.3,2.7.7,3.9.2.8.5,1.6.8,2.4"/><path class="cls-9" d="M48.4,22.1c1.2-1.4,3.6-1.3,4.8-.5"/><path class="cls-9" d="M61.8,21.5c2-1.5,4.7-.7,5.1.4"/><path class="cls-9" d="M51.8,26.8c0,1.2-.5,2.1-1,2.1s-1-.9-1-2.1.5-2.1,1-2.1,1,.9,1,2.1Z"/><path class="cls-9" d="M65.7,26.8c0,1.3-.6,2.4-1.2,2.4s-1.2-1.1-1.2-2.4.6-2.4,1.2-2.4,1.2,1.1,1.2,2.4Z"/><path class="cls-9" d="M54,33.5c0,1.7,3.5,1.8,4.7,1.6"/><path class="cls-9" d="M53.9,38.7c0,0,.2,0,.3.1,3.5,1.2,11.1-.5,11.8-1.2-1.4,2-1.9,2.2-3.1,3-1.2.8-3.7,1-4.9.8-2-.3-2.9-1.1-3.8-2.6"/><path class="cls-9" d="M44.9,17.4c-1.2,5.7-.5,16.8,2.6,19.5"/><path class="cls-9" d="M74.8,37.6c7.1-2.8,5.9-16.6,4.2-20.9"/><path class="cls-9" d="M69.9,15.5c2.7,1.9,5.1,9.2,5.1,17.1"/><path class="cls-9" d="M45.8,23.8c0-2.9.5-5.1,1.5-6.9"/><path class="cls-9" d="M46.7,6s0,0,0,0c.5-.1,1.1-.2,1.8-.4,0,0,0,0,0,0,3.2-.5,8.3-1.1,12.5-1.2,2.5,0,10.8.5,15.1,1.7,1.5.4,2.5.9,2.6,1.5.2.8,1,9.2.1,9-3-.5-6-.9-9.1-1.2-7.7-.7-15.4-.6-22.7,1.4h0c-.2,0-.5.1-.7.2-.5.1-1.1.3-1.6.3s-.6,0-.9-.2c-.3-.1-.3-.5-.1-2.1,0-.2,0-.3,0-.5"/><path class="cls-9" d="M49.5,4.2c-.4.6-.8,1.3-.9,1.4,0,0,0,0,0,0"/><path class="cls-9" d="M76.3,6.3s0,0,0,0c-.6-1.6-3.5-4.8-7.6-4.8h-11.2"/></svg>