<?xml version="1.0" encoding="UTF-8"?><svg id="Latin_America" xmlns="http://www.w3.org/2000/svg" width="107" height="161" viewBox="0 0 107 161"><defs><style>.cls-1{fill:#a37c67;}.cls-1,.cls-2,.cls-3,.cls-4,.cls-5,.cls-6,.cls-7{stroke-width:0px;}.cls-2{fill:#010101;}.cls-8{stroke-linecap:round;stroke-linejoin:round;}.cls-8,.cls-9{fill:none;stroke:#000;stroke-width:.6px;}.cls-9{stroke-miterlimit:10;}.cls-3{fill:#818066;}.cls-4{fill:#c2a882;}.cls-5{fill:#505141;}.cls-6{fill:#fff;}.cls-7{fill:#2c2826;}</style></defs><path class="cls-1" d="M98.6,39.6c-1,4-4.4,9.7-6.2,12.2-.3.5-.6.8-.9,1-2.7,2.2-4.3,3.4-6.8,4.1-6-2.5-12.5-5.3-18.2-7.9h0c-1.1-1.6-1.4-2.5-1.8-4.4-.1-.6-.2-1.3-.4-2-.9-4.6-2.2-10.4-2.2-10.4,0-.9,0-1.8,0-2.7,0-4.7.6-9.1,1.4-12.2,1.6-6.6,3.7-1.5,13.4-1.5,5.9,0,14.7-4.7,17.6,1.2,1.9,3.8,4.7,10.3,4.8,14.3h.3c.3-.9,1-1.5,1.8-1.5.3,0,.7,0,1.1.2,2.7,1.1.8,6,0,8.1-.8,2.4-2.6,2.3-3.5,1.6h-.4ZM83.9,29.3c4.3-1.6,10.3.7,10.6-1-.2-1.8-3.4-2.6-4.8-3.1-2.1-.7-4.4-.5-5.9.9-.2,1.1-.5,1.9,0,3.2ZM88.4,34c.5,0,.9-.8.9-1.8,0-1-.4-1.8-.9-1.8s-.9.8-.9,1.8c0,1,.4,1.8.9,1.8ZM78.4,48.2c3.7.2,7.3-1.5,9.2-3.9-.9.8-9.7,2.5-14.2.9,1.1,1.8,2.3,2.9,5,3ZM74.7,29.4c1-3.7-1.6-4-4-3.9-2.5,0-5.3,2.6-5.8,4.4,2.5-1,7.7-1.2,9.8-.5ZM70.3,34c.5,0,.8-.8.8-1.8,0-1-.4-1.8-.8-1.8s-.8.8-.8,1.8c0,1,.4,1.8.8,1.8Z"/><path class="cls-7" d="M101.1,15.1c.7,4.6,1.3,10.2.3,14.8-.9,0-1.5.6-1.8,1.6h-.3c0-4.2-2.9-10.6-4.8-14.4-2.9-5.9-11.7-1.2-17.6-1.2-9.7,0-11.7-5.1-13.4,1.5-.8,3.1-1.4,7.4-1.4,12.2h-.5c-.4-.1-.8,0-1.1.3-.3.3-.4.7-.5,1-.9-3.4-.1-6.4-.3-9.9-.1-4,.3-8.1,1.5-11.4,4.5-3.7,10.9-3.7,15.1-5.8.3,0,1.2-.7,1.2-2.2,8.1-.4,14.5.1,16.9,2.1,3.2,2.6,5.6,4.4,6.6,11.5Z"/><path class="cls-4" d="M96.5,140.1c-4.7.1-12.8-1-15.2-4.4-1.9-2.7-11.2-23.4-14.3-28.5-.4-.7-1-2.2-1.9-4.1h0c-1.1-4,1.8-26.7,3.2-30.6l.2-.4c9.4,4.6,18.9,8.3,22.2,7,4.6-1.3,10.4-14.3-.9-20h0c.2,0,.4,0,.5.1,1.7,0,4.2-.1,5-1.7,1.7,1.7,3.9,6.7,4.1,9.2.3,3.3.2,4.3-.2,8.9-.5,6.2-.7,12.9-1.2,19-1.1,12.7-.4,14-.5,26.9,0,1.3,0,17.3,0,18.6-.3,0-.6,0-1,0Z"/><path class="cls-3" d="M41.6,121.7c.1,1.1.2,2.1.2,3.1,0,6.5.9,14.1.3,20.5-5.3.4-10.9.3-16.4,0-1.6,0-3.2-.2-4.9-.4-.3,0-.6,0-.9,0-.5-8.2,0-17.9,0-26.4s.3-12.2.8-17.4c.3-2.6.8-5.2,1.2-7.8.3-1.7,1.5-5.7,1.2-6.6h0c1-4.6,2.6-11.2,3.7-14.1,1.5-4,6.7-7.2,9.8-7.4,5-.4,8.6,0,11.7,2.6,1.1,1.8,6.4,13.2,11.1,23.4,2.1,4.6,4.1,8.9,5.5,12,.9,2,1.6,3.4,1.9,4.1,3.1,5,12.3,25.7,14.3,28.5,2.4,3.4,10.6,4.5,15.2,4.4-.7,4.5-2.4,9.8-5.6,13.9-3.1,4-7.2,5.7-11.8,6-6.1.4-11.6.8-17.1-1.2-5.4-2-9.1-8.2-12.5-14.5-.7-1.3-7.2-21.2-7.7-22.6h-.2Z"/><path class="cls-4" d="M92.4,51.8c1.2,1.2,3.8,3.9,3.2,5.5h-.3c-.8,1.7-3.3,1.8-5,1.8-.2,0-.4-.1-.5-.2-1.6-.6-3.3-1.3-5-2.1,2.4-.7,4.1-1.9,6.8-4.1.2-.2.5-.6.9-1Z"/><path class="cls-7" d="M94.5,28.3c-.4,1.7-6.4-.6-10.6,1-.5-1.2-.3-2.1,0-3.2,1.5-1.4,3.8-1.7,5.9-.9,1.4.5,4.6,1.3,4.8,3.1Z"/><path class="cls-4" d="M89.8,59.1c11.4,5.7,5.5,18.7.9,20-3.3,1.3-12.8-2.4-22.2-7-2.2-1.1-4.3-2.2-6.4-3.3-3.6-1.9-6.9-3.9-9.7-5.6.6-.3,1.3-.6,1.9-1h0c2.3-1.4,4.5-3.4,5.6-5.7,1.4-2.9,1.6-7,.8-10,1.8.8,3.8,1.7,5.8,2.6,5.8,2.6,12.2,5.4,18.2,7.9,1.7.7,3.4,1.4,5,2.1h0Z"/><path class="cls-2" d="M89.3,32.1c0,1-.4,1.8-.9,1.8-.5,0-.9-.8-.9-1.8,0-1,.4-1.8.9-1.8s.9.8.9,1.8Z"/><path class="cls-6" d="M87.5,44.3c-1.9,2.4-5.4,4.1-9.2,3.9-2.6-.1-3.9-1.3-5-3,4.4,1.6,13.2-.1,14.2-.9Z"/><path class="cls-1" d="M77.6,1.5c0,1.5-.9,2.2-1.2,2.2-4.2,2.1-10.7,2.1-15.1,5.8,1.3-3.9,3.5-6.7,6.6-7.1,3.4-.4,6.7-.8,9.7-.9Z"/><path class="cls-1" d="M77.4.3c.2.4.2.8.2,1.2-3,.2-6.3.5-9.7.9-3.1.4-5.3,3.2-6.6,7.1,0,0-.1.1-.2.2-.9,2.3-3.3,10.9-4.8,15.4-2.9,8.8-6.1,16.7-6.1,16.7,2,.8,5.7,2.5,10.5,4.6.8,3.1.6,7.2-.8,10-1.1,2.3-3.3,4.3-5.6,5.7h0c-4.8-3-9.6-7.4-14.2-12.2-.7-.7-1.4-1.4-2.1-2.2-3-3.2-1.6-5.3,1.3-11.1,1.5-2.9,3.3-6.6,5.2-11.9,1-2.9,4.9-12.4,6.9-18.1.6-1.5-1.8-6.2,4.8-6.1,6.1-.4,15.5,0,21.2-.4Z"/><path class="cls-7" d="M70.7,25.5c2.4,0,5,.2,4,3.9-2-.7-7.3-.5-9.8.5.5-1.9,3.3-4.4,5.8-4.4Z"/><path class="cls-2" d="M71.1,32.2c0,1-.4,1.8-.8,1.8s-.8-.8-.8-1.8c0-1,.4-1.8.8-1.8s.8.8.8,1.8Z"/><path class="cls-4" d="M68.5,72.1l-.2.4c-1.4,3.9-4.3,26.6-3.2,30.6h0c-1.4-3.1-3.4-7.4-5.5-12,0-1.6,1.1-10.4,1.8-16.5.3-2.7.5-4.8.5-5.6l.2-.3c2.1,1.1,4.2,2.2,6.4,3.3Z"/><path class="cls-1" d="M62.2,32.2s1.3,5.8,2.2,10.4c-2.9-1.7-5-9-4.3-11.7,0-.4.2-.7.5-1,.3-.3.7-.5,1.1-.3h.5c0,.9,0,1.8,0,2.7Z"/><path class="cls-4" d="M62.1,68.8l-.2.3c0,.7-.2,2.9-.5,5.6h-.1c-9.9-7.1-20.7-14.3-25.6-19.4.3-.1.5-.3.8-.4,1.9-1.1,3.7-3.3,3.7-4.8h0c4.6,4.7,9.4,9.1,14.2,12.2-.6.4-1.3.7-1.9,1,2.7,1.7,6.1,3.7,9.7,5.6Z"/><path class="cls-5" d="M42.1,145.3c.4,2.3,1.5,8.8,1,10-.6,0-7,.3-12.9,1-6.4.7-12.2,1.9-18.4,2h0c.2-2.6,0-6.6,0-9.1h0s.1,0,.1,0c5.3-1,12-2.8,13.9-3.9,5.5.3,11,.4,16.4,0Z"/><path class="cls-5" d="M11.8,158.3c6.3-.1,12-1.3,18.4-2,5.9-.6,12.3-.9,12.9-1h0s.3,3.3-.1,3.1c-3.3.7-6.2-.2-11.3.5-12.3,1.7-22.6,2.6-29.6.8-.6-.9-.9-1.5-.6-2.4h.3c0,0,.5,0,.5,0,3.4.7,6.5.9,9.5.8Z"/><path class="cls-1" d="M40.1,50h0c0,1.5-1.8,3.7-3.7,4.8v-.3c-4.7-4.7-5.5-6.1-6.2-8.2-1.6-4.8-12.4-25.4-15.1-38.4-.6-3-1.2-4.3-.5-5.3C16.8-.6,27.3.4,32.2.4s8.1,0,7.9,1.2c-.5,3.2-5.9,3.6-8.1,4l-6.1,1.3c.7,2.3,4.7,11.4,6.6,15.3,2.3,4.8,4.4,9.9,6.7,14.4h0c-2.9,5.8-4.4,7.9-1.3,11.2.7.7,1.4,1.4,2.1,2.2Z"/><path class="cls-5" d="M20.9,144.9c1.6.1,3.2.3,4.9.4-1.9,1-8.6,2.9-13.9,3.9h-.1s0,0,0,0c0-1.4-.1-2.4-.1-2.4,3.7-.5,7.1-1.2,9.4-1.9h0Z"/><path class="cls-5" d="M2.1,156.6c0-3.8,1.7-8.2,9.5-9.7,0,0,0,1,.1,2.4.1,2.5.3,6.5,0,9h0c-3,.2-6.2,0-9.5-.7h-.5s-.3,0-.3,0c0-.2.2-.5.3-.8h.3Z"/><path class="cls-8" d="M95.4,57.5c1.7,1.7,3.9,6.7,4.1,9.2.3,3.3.2,4.3-.2,8.9-.5,6.2-.7,12.9-1.2,19-1.1,12.7-.4,14-.5,26.9,0,1.3,0,17.3,0,18.6-.3,0-.6,0-1,0-4.7.1-12.8-1-15.2-4.4-1.9-2.7-11.2-23.4-14.3-28.5"/><path class="cls-8" d="M23.3,86.6c.3.9-.9,4.9-1.2,6.6-.4,2.6-.9,5.3-1.2,7.8-.5,5.2-.8,12.1-.8,17.4,0,8.5-.6,18.2,0,26.4.3,0,.6,0,.9,0,1.6.1,3.2.3,4.9.4,5.5.3,11,.4,16.4,0,.6-6.4-.4-14-.3-20.5s0-2-.2-3.1c-.3-2.7-.9-5.6-.9-7.9s-1.1-8.5,0-10.5"/><path class="cls-8" d="M96.5,139.9c0,0,0,.1,0,.2-.7,4.5-2.4,9.8-5.6,13.9-3.1,4-7.2,5.7-11.8,6-6.1.4-11.6.8-17.1-1.2-5.4-2-9.1-8.2-12.5-14.5-.7-1.3-7.2-21.2-7.7-22.6"/><path class="cls-9" d="M90.4,59.2c1.7,0,4.2-.1,5-1.7"/><polyline class="cls-8" points="11.8 158.1 11.8 158.3 11.8 158.4"/><line class="cls-8" x1="11.7" y1="149.2" x2="11.8" y2="149.2"/><line class="cls-8" x1="1.8" y1="157.4" x2="2.2" y2="157.4"/><path class="cls-8" d="M42.1,145.3c.4,2.3,1.5,8.8,1,10"/><path class="cls-8" d="M43.1,155.3h0c-.6,0-7,.3-12.9,1-6.4.7-12.2,1.9-18.4,2-3,0-6.2-.2-9.5-.8"/><path class="cls-8" d="M25.8,145.2h0c-1.9,1.1-8.6,2.9-13.9,3.9"/><path class="cls-8" d="M2.1,157c0-.1,0-.3,0-.4,0-3.8,1.7-8.2,9.5-9.7,0,0,0,1,.1,2.4.1,2.5.3,6.5,0,9"/><path class="cls-8" d="M20.9,144.9c-2.3.7-5.7,1.4-9.4,1.9"/><path class="cls-8" d="M2.1,159.8c7,1.8,17.3.8,29.6-.8,5.1-.7,8.1.2,11.3-.5.4.1.1-3.1.1-3.1"/><path class="cls-8" d="M1.8,156.5c-.1.3-.2.6-.3.8-.2.9,0,1.5.6,2.4"/><path class="cls-8" d="M92.4,51.8c1.2,1.2,3.8,3.9,3.2,5.5"/><path class="cls-9" d="M68.3,72.5c-1.4,3.9-4.3,26.6-3.2,30.6"/><path class="cls-8" d="M61.9,69.1c0,.7-.2,2.9-.5,5.6-.7,6.1-1.8,14.9-1.8,16.5"/><path class="cls-8" d="M48.5,67.8c1.1,1.8,6.4,13.2,11.1,23.4,2.1,4.6,4.1,8.9,5.5,12,.9,2,1.6,3.4,1.9,4.1"/><path class="cls-8" d="M26.9,72.5c-1.1,2.9-2.7,9.5-3.7,14.1-.5,2.2-.8,3.9-.9,4.4"/><path class="cls-8" d="M26.9,72.5c1.5-4,6.7-7.2,9.8-7.4,5-.4,8.6,0,11.7,2.6"/><path class="cls-8" d="M89.8,59.1c11.4,5.7,5.5,18.7.9,20"/><path class="cls-8" d="M61.1,9.7c-.9,2.3-3.3,10.9-4.8,15.4-2.9,8.8-6.1,16.7-6.1,16.7,2,.8,5.7,2.5,10.5,4.6,1.8.8,3.8,1.7,5.8,2.6,5.8,2.6,12.2,5.4,18.2,7.9,1.7.7,3.4,1.4,5,2.1.2,0,.4.1.5.2"/><path class="cls-8" d="M56.2.7c6.1-.4,15.5,0,21.2-.4.2.4.2.8.2,1.2,0,1.5-.9,2.2-1.2,2.2-4.2,2.1-10.7,2.1-15.1,5.8,0,0-.1.1-.2.2"/><path class="cls-8" d="M51.4,6.8c.6-1.5-1.8-6.2,4.8-6.1"/><path class="cls-8" d="M54.3,62.2c-4.8-3-9.6-7.4-14.2-12.2-.7-.7-1.4-1.4-2.1-2.2-3-3.2-1.6-5.3,1.3-11.1,1.5-2.9,3.3-6.6,5.2-11.9,1-2.9,4.9-12.4,6.9-18.1"/><path class="cls-8" d="M90.7,79.1c-3.3,1.3-12.8-2.4-22.2-7-2.2-1.1-4.3-2.2-6.4-3.3-3.6-1.9-6.9-3.9-9.7-5.6"/><path class="cls-8" d="M15.2,8c-.6-3-1.2-4.3-.5-5.3C16.8-.6,27.3.4,32.2.4s8.1,0,7.9,1.2c-.5,3.2-5.9,3.6-8.1,4l-6.1,1.3c.7,2.3,4.7,11.4,6.6,15.3,2.3,4.8,4.4,9.9,6.7,14.4"/><path class="cls-8" d="M36.3,54.6c-4.6-4.7-5.4-6.1-6.1-8.2-1.6-4.8-12.4-25.4-15.1-38.4"/><path class="cls-8" d="M61.3,74.6c-9.9-7.1-20.7-14.2-25.6-19.4"/><path class="cls-9" d="M54.3,62.2c-.6.4-1.3.7-1.9,1"/><path class="cls-8" d="M60.7,46.4c.8,3.1.6,7.2-.8,10-1.1,2.3-3.3,4.3-5.6,5.7h0"/><path class="cls-9" d="M36.5,54.8c-.3.2-.5.3-.8.4"/><path class="cls-8" d="M40.1,50c0,1.5-1.8,3.7-3.7,4.8"/><path class="cls-8" d="M84.8,56.9c2.4-.7,4.1-1.9,6.8-4.1"/><path class="cls-8" d="M62.2,32.2s1.3,5.8,2.2,10.4c.1.7.3,1.4.4,2,.4,2,.6,2.8,1.8,4.4"/><path class="cls-8" d="M64.9,29.9c2.5-1,7.7-1.2,9.8-.5"/><path class="cls-8" d="M83.9,29.3c4.3-1.6,10.3.7,10.6-1"/><path class="cls-8" d="M74.2,39.1c-1.3,4.1,6.8,3.9,9.3,2.9"/><path class="cls-8" d="M99.3,33.4c0-.7,0-1.4.3-1.9.3-1,1-1.6,1.8-1.6.3,0,.7,0,1.1.2,2.7,1.1.8,6,0,8.1-.8,2.4-2.6,2.3-3.5,1.6"/><path class="cls-8" d="M62.2,32.2c0-.9,0-1.8,0-2.7,0-4.7.6-9.1,1.4-12.2,1.6-6.6,3.7-1.5,13.4-1.5,5.9,0,14.7-4.7,17.6,1.2,1.9,3.8,4.7,10.3,4.8,14.3"/><path class="cls-8" d="M99,37.5c0,.6-.1,1.3-.3,2.1-1,4-4.4,9.7-6.2,12.2-.3.5-.6.8-.9,1"/><path class="cls-8" d="M64.9,29.9c.5-1.9,3.3-4.4,5.8-4.4,2.4,0,5,.2,4,3.9"/><path class="cls-8" d="M83.9,29.3c-.5-1.2-.3-2.1,0-3.2,1.5-1.4,3.8-1.7,5.9-.9,1.4.5,4.6,1.3,4.8,3.1"/><path class="cls-8" d="M71.1,32.2c0,1-.4,1.8-.8,1.8s-.8-.8-.8-1.8c0-1,.4-1.8.8-1.8s.8.8.8,1.8Z"/><path class="cls-8" d="M89.3,32.1c0,1-.4,1.8-.9,1.8-.5,0-.9-.8-.9-1.8,0-1,.4-1.8.9-1.8s.9.8.9,1.8Z"/><path class="cls-8" d="M60.1,30.8c-.9-3.4-.1-6.4-.3-9.9-.1-4,.3-8.1,1.5-11.4,1.3-3.9,3.5-6.7,6.6-7.1,3.4-.4,6.7-.8,9.7-.9,8.1-.4,14.5.1,16.9,2.1,3.2,2.6,5.6,4.4,6.6,11.5.7,4.6,1.3,10.2.3,14.8"/><path class="cls-8" d="M61.7,29.5c-.4-.1-.8,0-1.1.3-.3.3-.4.7-.5,1-.7,2.7,1.3,10,4.3,11.7"/><path class="cls-8" d="M87.5,44.3c-1.9,2.4-5.4,4.1-9.2,3.9-2.6-.1-3.9-1.3-5-3"/><path class="cls-8" d="M73.4,45.2c4.4,1.6,13.2-.1,14.2-.9"/></svg>