<?xml version="1.0" encoding="UTF-8"?><svg id="Latin_America" xmlns="http://www.w3.org/2000/svg" width="59.3" height="196.6" viewBox="0 0 59.3 196.6"><defs><style>.cls-1{fill:#010101;}.cls-1,.cls-2,.cls-3,.cls-4,.cls-5,.cls-6,.cls-7,.cls-8{stroke-width:0px;}.cls-9{stroke-linecap:round;stroke-linejoin:round;}.cls-9,.cls-10{fill:none;stroke:#000;stroke-width:.6px;}.cls-2{fill:#d18d75;}.cls-10{stroke-miterlimit:10;}.cls-3{fill:#513a38;}.cls-4{fill:#d61d4b;}.cls-5{fill:#ef599d;}.cls-6{fill:#cd8cb2;}.cls-7{fill:#fff;}.cls-8{fill:#623a38;}</style></defs><path class="cls-6" d="M50.3,85.4c-.3-.6-4.5-10.9-5.2-12.1h0c.2-1.1.5-2.1.6-3,.6-3.7,1.6-12.7,1-15.2,2,2.4,11.8,27.4,12.2,29.3.7,3.9-4.1,9.3-7.5,11.2-1.6.9-3.6,1.9-5.9,3.3-.6-3.2-1-5.7-1-5.8,0-.3,0-.9,0-1.6h0c1.4-1.5,2-2.6,3-3.6,1.2-1.2,2-1.9,2.9-2.6Z"/><path class="cls-3" d="M48.7,184.1c.8.3,1.6.6,2.4,1.2,1.7,1,4.6,3.2,4.9,5.2.2.9-.1,4.4-.8,5.1-.8.8-2,.8-3.1.7-3.4-.2-6.8-.4-10.2-.7-1.2-.1-2.6-.3-3.4-1.2-1-1.2-.9-6.8,0-8,1.3-1.8,2.3-1.9,4.5-2.3,1.6-.3,3.6-.5,5.7.2Z"/><path class="cls-5" d="M13,97.9c.1-2.8.2-5.4.2-8,0-2.8,0-5.5-.2-8.3-.2-3.7-.7-6.9-1.2-10-.5-2.9-.8-5.7-.8-8.7-.3-3.4-.3-5.1-.4-7.3,0-1.6,3.9-4,6.5-4.4-.3,10.5-.7,21.1-1,31.6,0,1.1,0,2.3.4,3.3s1.7,1.8,2.8,1.4c-.8-12.5.1-25.2,2.8-37.5.3,0,.5.2.8.2,0,3.1,2.4,6.7,5.8,6.4,3.1-.2,7.5-3.8,7.4-6,0-.2,0-.3,0-.5h0c3.1,7.1,4.2,15.1,2.9,22.8-.8,4.5-2.3,8.9-2.4,13.4,0,.9.4,2.1,1.3,2,.6,0,.9-.8,1-1.4,2.7-11.5,3.6-23.5,2.8-35.3,1.1.3,3.5,2.5,4.8,2.9.1,0,.2.3.3.6h0c.6,2.5-.4,11.5-1,15.2-.2.9-.4,2-.6,3h0c-.6,2.7-1.3,5.5-1.1,7.4,0,1.1.3,7.5.4,10.8,0,.7,0,1.2,0,1.6,0,0,.4,2.5,1,5.8,1,5.9,2.4,14.1,2.4,14.1,1,5.9,3.5,30.2,3.7,32.2-1.1.6-2.2,1.1-3.4,1.5-3.9,1.4-8.5,2.1-13.2,2.3-3.3.2-6.7.1-9.9,0-5.3-.4-10.2-1.2-13.6-2.1-1.9-.5-3.5-1.1-4.3-1.6.9-5.7,2.5-20.3,3.2-25.1.6-4.2,2-9.2,2.3-13.7.2-3.1.4-5.9.5-8.6Z"/><path class="cls-6" d="M49.3,151.8c.7,6.1-1.7,20.9-.6,32.3-2.1-.7-4.1-.4-5.7-.2-2.2.4-3.2.5-4.5,2.3.5-6.6,0-14.7-.8-18.3-1.3-5.8-2.4-13.1-2.8-19,4.7-.2,9.3-1,13.2-2.3.5,2.5.9,2.4,1.2,5.2Z"/><path class="cls-8" d="M46.3,17c1.8,4.7,2.1,20.2-5.7,23.2.7-1.5,1.2-3.5,1.4-6,0-8.6-2.6-16.5-5.6-18.6,3.3.3,6.6.8,9.9,1.3Z"/><path class="cls-4" d="M43.3,5.6c1.6.4,2.7,1,2.8,1.6.2.9,1.1,10,.1,9.8-3.2-.6-6.5-1-9.9-1.3-8.2-.8-16.5-.6-24.3,1.5-.4.1-.7.2-1.1.3-.6.2-1.3.4-1.9.3-.3,0-.6,0-.8-.2-.8-.4,1.3-11.2,1.6-11.7.2-.2,1.3-.5,3-.8,0,.1,0,.3,0,.4,0-.1,0-.2,0-.4,3.4-.6,9.1-1.3,13.9-1.3,2.7,0,11.8.5,16.5,1.8Z"/><path class="cls-8" d="M41.6,51.6c.9,11.8,0,23.8-2.8,35.3-.1.6-.4,1.3-1,1.4-.9.1-1.3-1.1-1.3-2,0-4.5,1.6-8.9,2.4-13.4,1.3-7.7.3-15.7-2.9-22.8h0c0-1.5,0-2.4,0-4.8,1.2-.7,2.9-2,4.2-4.5h.1c.6,3.6,1,7.1,1.3,10.7Z"/><path class="cls-4" d="M35,.3c4.5,0,7.7,3.5,8.3,5.3-4.7-1.3-13.8-1.8-16.5-1.8-4.8,0-10.4.7-13.9,1.3,0,0,0,0,0,0,.5-1.7,2.9-4.7,7.5-4.7,5.8,0,9.9,0,14.6,0Z"/><path class="cls-2" d="M22,50c-1.5-.6-3-1.6-4.8-3.2-.4-.3-.8-.7-1.2-1-2-1.8-3.1-4.3-3.8-6.9-.3-1.4-.5-2.8-.7-4.3-.5-5.1-1.1-6.4-1.1-6.4-.4-2.1-.4-2.5-.5-3.5-.1-3.1.3-5.4,2-7.6,7.8-2.1,16.1-2.2,24.3-1.5,2.9,2.1,5.5,10,5.6,18.6-.2,2.5-.7,4.4-1.4,6h0c-.1.2-.2.5-.3.7-1.3,2.5-3,3.7-4.2,4.5-.4.2-.7.4-.9.6-6,3.7-9.3,5-12.3,4.3-.3,0-.5-.1-.8-.2ZM19.3,41h0c.9,1.7,1.9,2.6,4.1,2.9,1.3.2,4,0,5.4-.9,1.3-.8,1.8-1.1,3.4-3.2-.7.7-9,2.6-12.8,1.3ZM31.8,28c0-1.5-.6-2.6-1.4-2.6s-1.4,1.2-1.4,2.6.6,2.6,1.4,2.6,1.4-1.2,1.4-2.6ZM16.7,28c0-1.3-.5-2.3-1.1-2.3s-1.1,1-1.1,2.3.5,2.3,1.1,2.3,1.1-1,1.1-2.3Z"/><path class="cls-2" d="M36,50.7c.2,2.2-4.3,5.7-7.4,6-3.4.3-5.7-3.3-5.8-6.4,3,.7,6.2-.6,12.3-4.3.2-.1.6-.3.9-.6,0,2.5-.1,3.3,0,4.8,0,.1,0,.3,0,.5Z"/><path class="cls-1" d="M30.4,25.4c.7,0,1.4,1.2,1.4,2.6s-.6,2.6-1.4,2.6-1.4-1.2-1.4-2.6.6-2.6,1.4-2.6Z"/><path class="cls-7" d="M32.1,39.8c-1.5,2.2-2.1,2.4-3.4,3.2-1.3.8-4,1.1-5.4.9-2.2-.3-3.2-1.2-4.1-2.8h0c3.8,1.2,12.1-.6,12.8-1.3Z"/><path class="cls-6" d="M25,148.8c.3,3-.5,5.7-1,7.4-2.9,10.3-4.5,17.7-5,29-.4-.4-.9-.7-1.6-.8-.9-.2-4.3-.1-7.7.8.4-2.6,1.3-26,1.1-28.8-.3-3.9.1-7,.5-9.6,3.5.9,8.3,1.7,13.6,2.1Z"/><path class="cls-3" d="M20.2,186.9c.8,1.3,1.3,7.4,0,8.3-.9.6-10.8.9-14,.9-.3,0-2.2-.3-2.4-.4-1-.4-.6-6.1-.3-7.1,1.4-1.7,3.8-2.8,6.1-3.4,3.4-.9,6.8-1,7.7-.8.7.1,1.2.4,1.6.8.5.4.8,1,1.2,1.7Z"/><path class="cls-8" d="M22,50c-2.7,12.3-3.6,24.9-2.8,37.5-1.1.4-2.3-.3-2.8-1.4s-.5-2.2-.4-3.3c.3-10.5.7-21.1,1-31.6,0-1.4,0-2.9.1-4.3h0c1.8,1.5,3.3,2.5,4.8,3.1Z"/><path class="cls-1" d="M15.6,25.7c.6,0,1.1,1,1.1,2.3s-.5,2.3-1.1,2.3-1.1-1-1.1-2.3.5-2.3,1.1-2.3Z"/><path class="cls-6" d="M8.3,83.5c1.9,2,3.5,4.7,4.9,6.4,0,2.6,0,5.2-.2,8-.6-.4-2.6-1.9-5.3-3.6-4.4-2.9-8.9-6.7-6.9-12,.3-.9,7.9-24.7,9.8-26.6,0,2.3.1,4,.4,7.3,0,3,.4,5.8.8,8.7-.6,2.3-3.2,12-3.4,11.8h0Z"/><path class="cls-8" d="M12.3,38.9h-.2c-3.4-2.8-4.3-14.9-3-21.1h0c.6,0,1.3-.2,1.9-.3.4-.1.7-.2,1.1-.3-1.7,2.2-2.1,4.5-2,7.6,0,1,0,1.4.5,3.5,0,0,.6,1.2,1.1,6.4.1,1.4.3,2.9.7,4.3Z"/><path class="cls-10" d="M40.6,40.2c.7-1.5,1.2-3.5,1.4-6"/><path class="cls-10" d="M10.1,24.7c0,1,0,1.4.5,3.5,0,0,.6,1.2,1.1,6.4.1,1.4.3,2.9.7,4.3.6,2.7,1.7,5.1,3.8,6.9.4.4.8.7,1.2,1,1.8,1.5,3.3,2.6,4.8,3.2.3,0,.5.2.8.2,3,.7,6.2-.6,12.3-4.3.2-.1.6-.3.9-.6,1.2-.7,2.9-2,4.2-4.5.1-.2.2-.4.3-.7"/><path class="cls-10" d="M13,22.9c1.3-1.6,3.9-1.4,5.2-.6"/><path class="cls-10" d="M27.6,22.3c2.2-1.6,5.1-.8,5.5.5"/><path class="cls-10" d="M22.8,50.1c0,0,0,.1,0,.2,0,3.1,2.4,6.7,5.8,6.4,3.1-.2,7.5-3.8,7.4-6,0-.2,0-.3,0-.5,0-1.5,0-2.4,0-4.8h0"/><path class="cls-10" d="M17,51.2c-2.6.4-6.5,2.8-6.5,4.4,0,2.3.1,4,.4,7.3"/><path class="cls-9" d="M46.7,55c.6,2.5-.4,11.5-1,15.2"/><path class="cls-10" d="M41.6,51.6c1.1.3,3.5,2.5,4.8,2.9.1,0,.2.3.3.6"/><path class="cls-10" d="M10.9,62.9c0,3,.4,5.8.8,8.7.5,3.1,1,6.3,1.2,10,.1,2.8.2,5.5.2,8.3,0,2.6,0,5.2-.2,8-.1,2.7-.3,5.5-.5,8.6"/><path class="cls-10" d="M44.4,91.5c0,.7,0,1.2,0,1.6"/><path class="cls-9" d="M45.1,73.3c-.6,2.7-1.3,5.5-1.1,7.4,0,1.1.3,7.5.4,10.8"/><path class="cls-10" d="M45.7,70.3c-.2.9-.4,2-.6,3"/><path class="cls-10" d="M12.5,106.5c-.3,4.5-1.7,9.5-2.3,13.7-.7,4.8-2.3,19.3-3.2,25.1.9.5,2.4,1.1,4.3,1.6,3.5.9,8.3,1.7,13.6,2.1,3.2.2,6.6.3,9.9,0,4.7-.2,9.3-1,13.2-2.3,1.2-.4,2.4-.9,3.4-1.5.1,0,.2-.1.3-.2"/><path class="cls-10" d="M51.5,145.2s0,0,0-.1c-.2-1.9-2.6-26.3-3.7-32.2,0,0-1.4-8.3-2.4-14.1-.6-3.2-1-5.7-1-5.8"/><path class="cls-10" d="M11.4,146.8h0c-.4,2.7-.8,5.8-.5,9.6.2,2.8-.7,26.1-1.1,28.8"/><path class="cls-10" d="M25,148.8c.3,3-.5,5.7-1,7.4-2.9,10.3-4.5,17.7-5,29"/><path class="cls-10" d="M34.9,148.9c.4,5.9,1.5,13.2,2.8,19,.8,3.6,1.3,11.8.8,18.3"/><path class="cls-10" d="M48.1,146.6c.5,2.5.9,2.4,1.2,5.2.7,6.1-1.7,20.9-.6,32.3,0,.1,0,.2,0,.4"/><path class="cls-10" d="M16.7,28c0,1.3-.5,2.3-1.1,2.3s-1.1-1-1.1-2.3.5-2.3,1.1-2.3,1.1,1,1.1,2.3Z"/><path class="cls-10" d="M31.8,28c0,1.5-.6,2.6-1.4,2.6s-1.4-1.2-1.4-2.6.6-2.6,1.4-2.6,1.4,1.2,1.4,2.6Z"/><path class="cls-10" d="M19.1,35.3c0,1.9,3.8,1.9,5.1,1.8"/><path class="cls-10" d="M18.9,40.9c0,0,.2,0,.3.1,3.8,1.3,12.1-.6,12.8-1.3-1.5,2.2-2.1,2.4-3.4,3.2-1.3.8-4,1.1-5.4.9-2.2-.3-3.2-1.2-4.1-2.8"/><path class="cls-10" d="M9.1,17.8c-1.3,6.2-.4,18.3,3,21.2"/><path class="cls-10" d="M40.6,40.2h0c7.8-3,7.5-18.5,5.7-23.2"/><path class="cls-10" d="M51.1,185.3c1.7,1,4.6,3.2,4.9,5.2.2.9-.1,4.4-.8,5.1-.8.8-2,.8-3.1.7-3.4-.2-6.8-.4-10.2-.7-1.2-.1-2.6-.3-3.4-1.2-1-1.2-.9-6.8,0-8,1.3-1.8,2.3-1.9,4.5-2.3,1.6-.3,3.6-.5,5.7.2.8.3,1.6.6,2.4,1.2"/><path class="cls-10" d="M3.6,188.6c1.4-1.7,3.8-2.8,6.1-3.4,3.4-.9,6.8-1,7.7-.8.7.1,1.2.4,1.6.8.5.4.8,1,1.2,1.7.8,1.3,1.3,7.4,0,8.3-.9.6-10.8.9-14,.9-.3,0-2.2-.3-2.4-.4-1-.4-.6-6.1-.3-7.1"/><path class="cls-10" d="M36.4,15.7c2.9,2.1,5.5,10,5.6,18.6"/><path class="cls-10" d="M10.1,24.7c-.1-3.1.3-5.4,2-7.6"/><path class="cls-9" d="M10.6,55.6c-1.8,1.8-9.4,25.7-9.8,26.6-2,5.3,2.5,9.2,6.9,12,2.7,1.8,4.7,3.2,5.3,3.6.1,0,.2.1.2.1"/><path class="cls-9" d="M11.8,71.5s0,0,0,.1c-.6,2.3-3.2,12-3.4,11.8"/><path class="cls-9" d="M5.1,81.2c1.2.4,2.2,1.3,3.2,2.3,1.9,2,3.5,4.7,4.9,6.4"/><path class="cls-9" d="M45.1,73.3h0c.7,1.2,4.8,11.4,5.2,12.1"/><path class="cls-9" d="M46.7,55h0c2,2.4,11.8,27.4,12.2,29.3.7,3.9-4.1,9.3-7.5,11.2-1.6.9-3.6,1.9-5.9,3.3"/><path class="cls-9" d="M44.4,91.5c1.4-1.5,2-2.6,3-3.5,1.2-1.2,2-1.9,2.9-2.6,1.1-.7,2.2-1.2,4.1-1.9"/><path class="cls-10" d="M46.3,17c-3.2-.6-6.5-1-9.9-1.3-8.2-.8-16.5-.6-24.3,1.5-.4.1-.7.2-1.1.3-.6.2-1.3.4-1.9.3-.3,0-.6,0-.8-.2-.8-.4,1.3-11.2,1.6-11.7.2-.2,1.3-.5,3-.8h0c3.4-.6,9.1-1.3,13.9-1.3,2.7,0,11.8.5,16.5,1.8,1.6.4,2.7,1,2.8,1.6.2.9,1.1,10,.1,9.8Z"/><path class="cls-10" d="M43.3,5.6s0,0,0,0c-.6-1.8-3.8-5.3-8.3-5.3-4.6,0-8.8,0-14.6,0-4.6,0-7,3-7.5,4.7,0,0,0,0,0,0,0,.1,0,.3,0,.4,0-.1,0-.2,0-.4,0,0,0,0,0,0,0,0,0,0,0-.1"/><path class="cls-10" d="M40.4,41c.6,3.5,1,7.1,1.3,10.6.9,11.8,0,23.8-2.8,35.3-.1.6-.4,1.3-1,1.4-.9.1-1.3-1.1-1.3-2,0-4.5,1.6-8.9,2.4-13.4,1.3-7.7.3-15.7-2.9-22.8"/><path class="cls-10" d="M22.1,49.7c0,.1,0,.2,0,.4-2.7,12.3-3.6,24.9-2.8,37.5-1.1.4-2.3-.3-2.8-1.4s-.5-2.2-.4-3.3c.3-10.5.7-21.1,1-31.6,0-1.4,0-2.9.1-4.3"/></svg>