<?xml version="1.0" encoding="UTF-8"?><svg id="Latin_America" xmlns="http://www.w3.org/2000/svg" width="88" height="126" viewBox="0 0 88 126"><defs><style>.cls-1{fill:#010101;}.cls-1,.cls-2,.cls-3,.cls-4,.cls-5,.cls-6,.cls-7,.cls-8{stroke-width:0px;}.cls-9,.cls-10,.cls-11{stroke-linejoin:round;}.cls-9,.cls-10,.cls-11,.cls-12{stroke:#000;stroke-linecap:round;stroke-width:.6px;}.cls-9,.cls-2{fill:#d18d75;}.cls-10,.cls-12{fill:none;}.cls-11,.cls-6{fill:#cd8cb2;}.cls-12{stroke-miterlimit:10;}.cls-3{fill:#513a38;}.cls-4{fill:#d61d4b;}.cls-5{fill:#ef599d;}.cls-7{fill:#fff;}.cls-8{fill:#623a38;}</style></defs><path class="cls-8" d="M52.2,76.8c0,.2-.3.3-.5.2-.9-1.3-1.9-2.6-2.8-3.8.2,0,.4-.1.6-.2.8-.3,1.5-.5,2.3-.8.2,1.6.2,2.3.4,3.9,0,.2,0,.5,0,.6Z"/><path class="cls-7" d="M57,41.5c-2.1-.3-3-1.1-3.9-2.6h0c3.6,1.2,11.4-.6,12.1-1.3-1.5,2-2,2.3-3.2,3-1.2.8-3.8,1-5,.8Z"/><path class="cls-8" d="M74.5,37.4c-.4,5.2-2.1,7.6-4,9.7-1.5,1.6-3.1,3-4.4,5.3h0c-1.2.6-2.6,1.3-4,2,.1-1.1.8-2.5,1.7-4,1.3-2.2,3-4.7,4-6.7.1,0,.2-.1.3-.2,1-.6,3.6-1.8,5.2-5.4.4-.2.8-.4,1.2-.6Z"/><path class="cls-8" d="M44.6,23.4c0,1,0,1.3.4,3.3,0,0,.5,1.2,1,6,.1,1.4.3,2.7.6,4h-.2c-3.2-2.7-4-14.1-2.8-19.9.6,0,1.2-.1,1.8-.3.3-.1.7-.2,1.1-.3-1.6,2.1-1.9,4.2-1.8,7.2Z"/><path class="cls-5" d="M78,108.5c-.5,6.4-1.3,13.9-7.8,16.1-6,2-14.5.4-19.5-4.3-2.6-2.4-8.2-13.5-12.3-25.1h0c6.9-3,12.1-7.5,16.5-13.6-1.1-1.5-2.2-3-3.3-4.5.2,0,.4,0,.5-.2.1-.2,0-.4,0-.6-.2-1.6-.2-2.3-.4-3.9,1.4-.5,2.8-.9,4.2-1.4.1,0,2.2-.9,4.9-2.2,0,0-.6,11.3,2,15.4.3.4.6.9,1.1,1,.6,0,1.1-.5,1.2-1,.1-.6,0-1.1-.2-1.7-1.4-4.4-1.2-9.8-1.2-14.9h0c5.1-2.3,10.8-4.9,11-5,3.5-2.3,4.2-5.4,3.4-7.8l.7-.2c3.9,11.8-1.7,39.7-.8,54.1Z"/><path class="cls-5" d="M78.9,54.3l-.7.2c-1.1-3.4-5.2-5.8-8.8-3.9-.5.3-1.7.9-3.3,1.7,1.3-2.3,2.9-3.7,4.4-5.3h.3c1.1.8,4.1,1.4,6.1,3.6.8.9,1.5,2.2,2,3.7Z"/><path class="cls-8" d="M74.5,37.4c-.4.2-.8.4-1.2.6.7-1.5,1.2-3.3,1.3-5.6,0-8.1-2.5-15.5-5.3-17.5,3.1.3,6.2.7,9.3,1.3,1.6,4.2,1.9,17.2-4,21.2,0,0,0,0-.1,0Z"/><path class="cls-1" d="M49.7,28.7c-.6,0-1-1-1-2.2s.5-2.2,1-2.2,1,1,1,2.2-.5,2.2-1,2.2Z"/><path class="cls-4" d="M78.5,6.9c-.1-.6-1.2-1.1-2.7-1.5-.6-1.7-3.6-4.9-7.8-4.9-4.4,0-8.3,0-13.7,0-4.3,0-6.6,2.9-7,4.4,0,0,0,0,0,0,0,.1,0,.2,0,.4,0-.1,0-.2,0-.4-1.6.3-2.7.6-2.9.8-.3.5-2.3,10.6-1.5,11,.2.1.5.2.8.2.6,0,1.2-.1,1.8-.3.3-.1.7-.2,1.1-.3,7.4-2,15.2-2.1,22.9-1.4,3.1.3,6.2.7,9.3,1.3.9.2,0-8.4-.1-9.3Z"/><path class="cls-8" d="M55.3,47c0,.8-.2,1.7-.4,2.5h0c-.9,3.8-2.5,7.2-3.4,10.3-1,.5-2.1,1-3.3,1.6,1.2-5.9,2.5-10.7,2.9-14.9,0-.8.1-1.6.1-2.4,1.5,1.3,2.8,2.3,4.1,2.8Z"/><path class="cls-5" d="M63.7,50.3c-.9,1.5-1.6,2.9-1.7,4-3.9,1.9-8.1,4-9.1,4.8-.4.2-.9.4-1.4.7.8-3.1,2.5-6.5,3.4-10.3-.5,2.6,5.7,3,8.8.8Z"/><path class="cls-1" d="M65,26.5c0,1.4-.6,2.5-1.3,2.5s-1.3-1.1-1.3-2.5.6-2.5,1.3-2.5,1.3,1.1,1.3,2.5Z"/><path class="cls-8" d="M65.2,84c0,.6-.6,1.1-1.2,1-.5,0-.9-.5-1.1-1-2.5-4.1-2-15.4-2-15.4.9-.4,1.8-.8,2.8-1.3h0c0,5.1-.2,10.5,1.2,14.9.2.6.4,1.1.2,1.7Z"/><path class="cls-2" d="M69.3,14.9c-7.7-.7-15.5-.6-22.9,1.4-1.6,2.1-1.9,4.2-1.8,7.2,0,1,0,1.3.4,3.3,0,0,.5,1.2,1,6,.1,1.4.3,2.7.6,4,.6,2.5,1.6,4.8,3.5,6.5.4.3.7.6,1,.9,1.5,1.3,2.8,2.3,4.1,2.8,0,.8-.2,1.7-.4,2.5h0c-.5,2.6,5.7,3,8.8.8,1.3-2.2,3-4.7,4-6.7.1,0,.2-.1.3-.2,1-.6,3.6-1.8,5.2-5.4.7-1.5,1.2-3.3,1.3-5.6,0-8.1-2.5-15.5-5.3-17.5ZM49.7,28.7c-.6,0-1-1-1-2.2s.5-2.2,1-2.2,1,1,1,2.2-.5,2.2-1,2.2ZM63.7,24c.7,0,1.3,1.1,1.3,2.5s-.6,2.5-1.3,2.5-1.3-1.1-1.3-2.5.6-2.5,1.3-2.5ZM53.2,38.9h0c3.6,1.2,11.4-.6,12.1-1.3-1.5,2-2,2.3-3.2,3-1.2.8-3.8,1-5,.8-2.1-.3-3-1.1-3.9-2.6Z"/><path class="cls-6" d="M26.2,83.2c-.5,0-1.1,0-1.6,0,0,0,0,0,0,0,.4,0,1,0,1.6.1Z"/><path class="cls-6" d="M25,85.5h-.8s0,0,0,0c.2,0,.5,0,.8,0Z"/><path class="cls-6" d="M50.8,46.6c-1.6,1-1.1.7-2.5,2-1.1,1-3,4.6-6,7.3-.3.3-.6.7-.9,1-.1.1-.2.2-.4.4-.7.7-1.4,1.4-2.1,2-.2.2-.4.3-.6.5-.2.2-.4.3-.6.5-.2.2-.4.3-.6.5-.8.6-1.6,1.1-2.3,1.6-.1,0-.2.1-.3.2-.4.2-.8.4-1.1.6.5-.2.9-.4,1.3-.5,0,0,.1,0,.2,0,.3,0,.6-.2.9-.2,0,0,.2,0,.3,0,.3,0,.5,0,.8,0,1.2,0,2.3.3,3.2.8-2.1-.8-4.5-.9-8.1.9-.4.2-.8.6-1.3,1.2-.1.1-.2.3-.3.5-.2.3-.4.7-.6,1.1,0,.1-.1.3-.2.4,0,0,0,.1-.1.2,1.7-.3,4-.7,6.9-1.2,1.3-.2,3.3-.9,5.5-1.9-.3-.3-.5-.5-.7-.7.4.2.7.4,1.1.5h0c1.9-.8,4-1.8,5.9-2.8,1.2-5.9,2.5-10.7,2.9-14.9h-.3ZM51.7,77.1c-.9-1.3-1.9-2.6-2.8-3.8-3.1,1-6.1,2-8.9,2.6-3.8.8-4.3,1.4-8.1,2-1.1.2-3.6.5-6,.2,0,.3-.2.7-.3,1,1.5,0,3,.6.9,1.5-.2,0-.5.2-.9.3,1.5,0,3,.2,1.7,2-.2.3-.6.4-1,.4,1.4.1,2.5.4,1,1.9-.3.3-1.2.3-2.2.4,1.2,0,2.5,0,2.7,1,.2,1.2-2.3,1.3-3.8.9-1.2,8.4-2,19.3-2.7,23.7-.1.6-.2,1.1-.3,1.5,1.3,1.2,3.4,2.3,5.1,2.8s4.4-1.2,5.2-1.5c.6-8.6,5.4-22,5.4-23.8.5,1.7,1.1,3.4,1.7,5.1h0c6.9-3,12.1-7.5,16.5-13.6-1.1-1.5-2.2-3-3.3-4.5Z"/><path class="cls-6" d="M25.5,80.8c-.1,0-.3,0-.4,0,0,0,0,0,0-.1.1,0,.3,0,.4,0Z"/><path class="cls-3" d="M32.1,121.3c.4-1,.1-5.1-.8-7.4-.8.4-3.5,2-5.2,1.5-1.7-.5-3.8-1.7-5.1-2.8,0-.3.2-.9.3-1.5-.8-4.7-1.5-3.6-2.1-.9-.5,2-7.1,3-10.2,3.4-6.4,1.3-7.9,4.9-8,8-.5,1.2-.6,2,0,3,5.9,1.5,11.1,1.3,21.5-.2,4.3-.6,6.8.1,9.6-.5.4.1,0-2.7,0-2.7h0Z"/><path class="cls-10" d="M73.3,38c.4-.2.8-.4,1.2-.6,0,0,0,0,.1,0,6-4,5.6-17,4-21.2"/><path class="cls-12" d="M78,108.5c-.5,6.4-1.3,13.9-7.8,16.1-6,2-14.5.4-19.5-4.3"/><path class="cls-10" d="M36.7,90c-.9-2.9-1.6-5.7-2.2-8.3"/><path class="cls-12" d="M50.8,120.3c-2.6-2.4-8.2-13.6-12.3-25.1-.6-1.7-1.2-3.4-1.7-5.1"/><path class="cls-10" d="M41,63.6s0,0,.2.1c.2.2.4.4.7.7"/><path class="cls-10" d="M48.9,73.3c.9,1.2,1.9,2.5,2.8,3.8,1.1,1.5,2.2,3,3.3,4.5,5.7,7.9,11.1,15.9,12.1,18.3"/><path class="cls-10" d="M25.8,78.1c0,.3-.2.7-.3,1"/><path class="cls-10" d="M29.5,67.5c0-.2.2-.4.3-.6.2-.4.4-.8.6-1.1.1-.2.2-.3.3-.5.4-.6.8-1,1.3-1.2,3.7-1.8,6-1.7,8.1-.9"/><path class="cls-10" d="M41,63.6c-.3-.1-.6-.3-1-.4"/><path class="cls-10" d="M70.8,47.1c1.1.8,4.1,1.3,6.1,3.5.8.9,1.5,2.2,2,3.7,3.9,11.8-1.7,39.7-.8,54.1"/><path class="cls-10" d="M54.9,81.6c-4.4,6.1-9.5,10.6-16.5,13.6"/><line class="cls-10" x1="12.5" y1="114.8" x2="12.6" y2="114.8"/><line class="cls-10" x1="9.1" y1="123.1" x2="9.1" y2="123.3"/><line class="cls-10" x1="9.1" y1="115.5" x2="9.2" y2="115.5"/><line class="cls-10" x1=".9" y1="122.2" x2="1.1" y2="122.6"/><path class="cls-10" d="M36.7,90c0,0,0,0,0-.1"/><line class="cls-12" x1="36.7" y1="90" x2="36.7" y2="90"/><path class="cls-10" d="M21,112.6c1.3,1.2,3.4,2.3,5.1,2.8s4.4-1.2,5.2-1.5c.6-8.6,5.4-22,5.4-23.8"/><path class="cls-10" d="M25.1,80.8s0,0,0,.1"/><path class="cls-10" d="M24.2,85.4s0,0,0,0"/><path class="cls-10" d="M24,87.3c-1.2,8.4-2,19.3-2.7,23.7,0,.6-.2,1.2-.3,1.5"/><path class="cls-10" d="M24.6,83.1s0,0,0,0"/><path class="cls-10" d="M31.3,113.9c.9,2.3,1.2,6.4.8,7.4"/><path class="cls-10" d="M32.1,121.3h0c-.5,0-5.9.3-10.9.8-5,.5-8.2,1.2-12.1,1.3-2.3,0-4.8-.2-8.1-.8"/><path class="cls-10" d="M21,112.6c-1.5.9-7.3,2.1-11.8,3"/><path class="cls-10" d="M.9,122.2c0-.2,0-.4,0-.6.1-3.1,1.6-6.7,8-8,0,0,0,.8.1,2,.1,2.1.3,5.5,0,7.6"/><path class="cls-10" d="M21.3,111.2c0,0,0-.1,0-.2-.8-4.7-1.5-3.6-2.1-.9-.5,2-7.1,3-10.2,3.4"/><path class="cls-10" d="M.9,124.6c5.9,1.5,11.1,1.3,21.5-.2,4.3-.6,6.8.1,9.6-.5.4.1,0-2.7,0-2.7"/><path class="cls-10" d="M.9,121.5s0,0,0,0c-.5,1.2-.6,2,0,3"/><path class="cls-10" d="M54.9,49.5c.2-.8.3-1.6.4-2.5,0-.1,0-.3,0-.4"/><path class="cls-10" d="M51.5,59.8c.8-3.1,2.5-6.5,3.4-10.3"/><path class="cls-11" d="M74.8,62.4c-.2.1-5.9,2.7-11,5-1,.5-1.9.9-2.8,1.3-2.7,1.2-4.8,2.2-4.9,2.2-1.4.5-2.8.9-4.2,1.4-.8.3-1.6.5-2.3.8-.2,0-.4.1-.6.2-3.1,1-6.1,2-8.9,2.6-3.8.8-4.3,1.4-8.1,2-1.1.2-3.6.5-6,.2-1.7-.2-3.4-.6-4.6-1.5-.5-1.5-1-3.6,0-4.8,1.2-1.5,2.7-3,4.6-3.4.8-.2,1.8-.4,3.1-.7.2,0,.4,0,.6,0h0s0,0,0,0c1.7-.3,4-.7,6.9-1.2,1.3-.2,3.3-.9,5.5-1.9.1,0,.3-.1.4-.2,1.9-.9,4-1.9,5.9-2.8,1.2-.6,2.4-1.2,3.3-1.6.5-.3,1-.5,1.4-.7,1.1-.8,5.2-2.9,9.1-4.8,1.4-.7,2.8-1.4,4-2h0c1.6-.8,2.8-1.4,3.3-1.7,3.6-1.9,7.7.5,8.8,3.9.8,2.5,0,5.5-3.4,7.8Z"/><path class="cls-10" d="M29.5,67.5c-.2,0-.4,0-.6.1"/><path class="cls-10" d="M33.3,63.2c-.2,0-.3.2-.5.2"/><path class="cls-10" d="M42.3,55.9c-2.7,3.3-6.3,6-9,7.3"/><path class="cls-10" d="M50.8,46.6c-1.6,1-1.1.7-2.5,2-1.1,1-3,4.6-6,7.3"/><path class="cls-10" d="M63.7,50.3c-3.2,2.2-9.3,1.8-8.8-.8h0"/><path class="cls-9" d="M27.2,85.1c-.3.3-1.2.3-2.2.4,0,0,0,0,0,0-.3,0-.5,0-.8,0-.7,0-1.2-.2-1.4-.8-.5-1.4.6-1.5,1.8-1.4.5,0,1.1,0,1.6,0h0c1.4.1,2.5.4,1,1.9Z"/><path class="cls-9" d="M26.4,80.5c-.2,0-.5.2-.9.3-.1,0-.3,0-.4,0-.8,0-1.5,0-1.7-.4-.6-1,.3-1.2,1.1-1.3.3,0,.7,0,1,0,1.5,0,3,.6.9,1.5Z"/><path class="cls-9" d="M27.2,82.8c-.2.3-.6.4-1,.4h0c-.6,0-1.1,0-1.6-.1-.3,0-.5,0-.6-.2-2-1.3-.4-1.8,1.1-2.1.1,0,.3,0,.4,0,1.5,0,3,.2,1.7,2Z"/><path class="cls-9" d="M24,87.3c-.5-.1-.9-.3-1-.5-.8-1.1,0-1.3,1.3-1.3h.8s0,0,0,0c1.2,0,2.5,0,2.7,1,.2,1.2-2.3,1.3-3.8.9Z"/><path class="cls-10" d="M67.8,43.6c-1,2-2.8,4.5-4,6.7-.9,1.5-1.5,2.9-1.7,4"/><path class="cls-10" d="M66,52.4c1.3-2.3,2.9-3.7,4.4-5.3,1.9-2.1,3.6-4.5,4-9.7"/><path class="cls-10" d="M48.2,61.4c1.2-5.9,2.5-10.7,2.9-14.9,0-.8.1-1.6.1-2.4v-.2"/><path class="cls-10" d="M63.8,67.4c0,5.1-.2,10.5,1.2,14.9.2.6.4,1.1.2,1.7-.1.6-.6,1.1-1.2,1.1-.5,0-.9-.5-1.1-1-2.5-4.1-2-15.4-2-15.4"/><path class="cls-10" d="M51.8,72.1h0c.2,1.7.2,2.4.4,4,0,.2,0,.4,0,.6,0,.2-.3.3-.5.2,0,0,0,0,0,0"/><path class="cls-10" d="M49.5,72.9c0,0,0,.1,0,.2.2,1,.3,1.2.9,2.1"/><path class="cls-10" d="M44.6,23.4c0,1,0,1.3.4,3.3,0,0,.5,1.2,1,6,.1,1.4.3,2.7.6,4,.6,2.5,1.6,4.8,3.5,6.5.4.3.7.6,1,.9,1.5,1.3,2.8,2.3,4.1,2.8,3.1,1.4,6.1.5,12.5-3.4l.3-.2c1-.6,3.6-1.8,5.2-5.4.7-1.5,1.2-3.3,1.3-5.6"/><path class="cls-10" d="M47.3,21.7c1.3-1.5,3.7-1.3,4.9-.5"/><path class="cls-10" d="M61,21.1c2.1-1.5,4.8-.8,5.2.4"/><path class="cls-10" d="M50.8,26.5c0,1.2-.5,2.2-1,2.2s-1-1-1-2.2.5-2.2,1-2.2,1,1,1,2.2Z"/><path class="cls-10" d="M65,26.5c0,1.4-.6,2.5-1.3,2.5s-1.3-1.1-1.3-2.5.6-2.5,1.3-2.5,1.3,1.1,1.3,2.5Z"/><path class="cls-10" d="M53,33.4c0,1.8,3.6,1.8,4.8,1.7"/><path class="cls-10" d="M52.9,38.7c0,0,.2,0,.3.1,3.6,1.2,11.4-.5,12.1-1.2-1.5,2-2,2.3-3.2,3-1.2.8-3.8,1-5,.8-2.1-.3-3-1.1-3.9-2.6"/><path class="cls-10" d="M43.6,16.9c-1.2,5.8-.4,17.2,2.8,19.9"/><path class="cls-10" d="M69.3,14.9c2.8,2,5.2,9.4,5.3,17.5"/><path class="cls-10" d="M44.6,23.4c0-2.9.3-5.1,1.8-7.2"/><path class="cls-10" d="M47.3,4.9c3.2-.6,8.6-1.2,13.1-1.2,2.5,0,11.1.5,15.5,1.7,1.5.4,2.6.9,2.7,1.5.2.8,1,9.4.1,9.3-3.1-.5-6.2-1-9.3-1.3-7.7-.7-15.5-.6-22.9,1.4-.4,0-.7.2-1.1.3-.6.2-1.2.3-1.8.3-.3,0-.5,0-.8-.2-.8-.4,1.2-10.6,1.5-11,.1-.2,1.2-.5,2.9-.8"/><path class="cls-10" d="M47.3,4.8c0,0,0-.1,0-.2"/><path class="cls-10" d="M47.3,4.9h0c0,.1,0,.2,0,.4,0-.1,0-.2,0-.4"/><path class="cls-10" d="M47.3,4.9s0,0,0,0"/><path class="cls-10" d="M75.9,5.5s0,0,0,0c-.6-1.7-3.6-4.9-7.8-4.9-4.4,0-8.3,0-13.7,0-4.3,0-6.6,2.9-7,4.4"/></svg>