<?xml version="1.0" encoding="UTF-8"?><svg id="Latin_America" xmlns="http://www.w3.org/2000/svg" width="107" height="161" viewBox="0 0 107 161"><defs><style>.cls-1{fill:#a37c67;}.cls-1,.cls-2,.cls-3,.cls-4,.cls-5,.cls-6,.cls-7{stroke-width:0px;}.cls-2{fill:#010101;}.cls-8{stroke-linecap:round;stroke-linejoin:round;}.cls-8,.cls-9{fill:none;stroke:#000;stroke-width:.6px;}.cls-9{stroke-miterlimit:10;}.cls-3{fill:#818066;}.cls-4{fill:#c2a882;}.cls-5{fill:#505141;}.cls-6{fill:#fff;}.cls-7{fill:#2c2826;}</style></defs><path class="cls-7" d="M101.3,14.1c.7,4.6,1.3,10.2.3,14.8-.9,0-1.5.6-1.9,1.6h-.3c0-4.2-2.9-10.6-4.8-14.4-2.9-5.9-11.7-1.2-17.6-1.2-9.7,0-11.7-5.1-13.4,1.5-.8,3.1-1.4,7.4-1.4,12.2h-.5c-.4-.1-.8,0-1.1.3-.3.3-.4.7-.5,1-.9-3.4-.1-6.4-.3-9.9-.3-8.5,2.3-17.7,8.1-18.5,12.4-1.6,23.4-1.5,26.6,1.1,3.2,2.6,5.6,4.4,6.6,11.5Z"/><path class="cls-3" d="M41.5,121.5c.1,1.1.2,2.1.2,3.1,0,6.5.9,14.1.4,20.5-5.3.4-10.9.4-16.3,0-1.6,0-3.3-.2-4.9-.3-.3,0-.6,0-.9,0-.6-8.2,0-17.9,0-26.4s.2-12.2.8-17.4c0-.4,0-.8.1-1.2.1,0,.3,0,.4,0,2.6.7,7.9-.4,3.1-2.3-.4-.1-1-.3-1.6-.4,2.4-.1,4.9-.3,2.9-3.3-.3-.4-.9-.6-1.6-.7,2.1-.2,3.9-.7,1.5-3-.5-.4-1.6-.5-2.9-.6,0,0,0,0,0,0,1.8,0,3.5,0,3.7-1.6,0-.4,0-.7-.3-1,4.7.9,9.2,1.4,14.1,1,6.2-.4,10.3-.7,16.4-1.7h0c.5.9,1.4,2.5,2.4,4.5,1.8,3.4,4,7.9,5.7,11.5.9,1.9,1.7,3.5,2.2,4.6,3.1,5,12.4,25.7,14.3,28.4,2.4,3.4,10.6,4.5,15.3,4.3-.7,4.5-2.4,9.8-5.6,13.9-3.1,4-7.2,5.7-11.8,6-6.1.4-11.6.8-17.1-1.2-5.5-2-9.1-8.2-12.5-14.5-.7-1.3-7.3-21.2-7.7-22.6h-.2Z"/><path class="cls-7" d="M94.7,27.4c-.4,1.7-6.4-.6-10.6,1-.5-1.3-.3-2.1,0-3.2,1.5-1.4,3.8-1.7,5.9-.9,1.4.5,4.6,1.3,4.8,3.1Z"/><path class="cls-2" d="M88.6,29.3c.5,0,.9.8.9,1.8s-.4,1.8-.9,1.8-.9-.8-.9-1.8.4-1.8.9-1.8Z"/><path class="cls-6" d="M87.7,43.3c-1.9,2.4-5.4,4.1-9.2,3.9-2.6-.2-3.8-1.3-5-3,4.4,1.6,13.3-.1,14.2-.9Z"/><path class="cls-7" d="M70.9,24.5c2.4,0,5,.2,4,3.9-2-.7-7.3-.5-9.8.5.5-1.9,3.3-4.4,5.8-4.4Z"/><path class="cls-2" d="M70.5,29.5c.4,0,.8.8.8,1.8s-.4,1.8-.8,1.8-.8-.8-.8-1.8.4-1.8.8-1.8Z"/><path class="cls-4" d="M99.4,63.6c-.2-2.5-2.2-7.4-4-9.1.3-2.8.5-4.1-1.4-5.7-1,1.5-1.8,2.7-2.3,3.1-5.7,4.6-11.3,5.4-14.7,4.3-.6-.2-1.5-.6-2.5-1.2l-.3.5c-1.6.2-9.6,7.7-9,8.8-1.9.6-3.8,1.2-5.9,1.9v.2c3.2,5.5,3.5,12.1,3.7,18.4v.3c-1.2.2-2.6.4-4,.7v.2c0,2.3-.2,2.6-.2,4.8,1.8,3.4,4,7.9,5.7,11.5.9,1.9,1.7,3.5,2.2,4.6,3.1,5,12.4,25.7,14.3,28.4,2.4,3.4,10.6,4.5,15.3,4.3.4,0,.7,0,1,0,.1-1.2,0-17.3,0-18.6,0-12.8-.6-14.2.4-26.9.5-6.1.6-12.8,1.2-19,.4-4.6.7-8.4.4-11.6Z"/><path class="cls-3" d="M49.4,69.4c-.9.3-1.8.5-2.7.8-6.2,1.8-12.4,3.1-19.3,3.6-.3,0-.5,0-.8,0h0c1.5-4,4.6-9.4,10.3-9.5,8.6,0,9.4,2.3,12.5,5Z"/><path class="cls-1" d="M102.7,29.1c-.4-.2-.7-.2-1.1-.2-.9,0-1.5.6-1.9,1.6h-.3c0-4.2-2.9-10.6-4.8-14.4-2.9-5.9-11.7-1.2-17.6-1.2-9.7,0-11.7-5.1-13.4,1.5-.8,3.1-1.4,7.4-1.4,12.2h-.5c-.4-.1-.8,0-1.1.3-.3.3-.4.7-.5,1-.7,2.7,1.4,10,4.3,11.7.1.7.3,1.4.4,2,1,5.5,6.1,9.5,9.6,11.4,1,.6,1.9,1,2.5,1.2,3.4,1.1,9,.3,14.7-4.3.5-.5,1.3-1.6,2.3-3.1,1.8-2.9,4-7,4.8-10.1h.4c1,.7,2.7.9,3.5-1.5.7-2.1,2.7-7,0-8.1ZM65.1,29c.5-1.9,3.3-4.4,5.8-4.4,2.4,0,5,.2,4,3.9-2-.7-7.3-.5-9.8.5ZM70.5,33c-.5,0-.8-.8-.8-1.8s.4-1.8.8-1.8.8.8.8,1.8-.4,1.8-.8,1.8ZM78.6,47.2c-2.6-.2-3.8-1.3-5-3,4.4,1.6,13.3-.1,14.2-.9-1.9,2.4-5.4,4.1-9.2,3.9ZM88.6,33c-.5,0-.9-.8-.9-1.8s.4-1.8.9-1.8.9.8.9,1.8-.4,1.8-.9,1.8ZM84.1,28.4c-.5-1.3-.3-2.1,0-3.2,1.5-1.4,3.8-1.7,5.9-.9,1.4.5,4.6,1.3,4.8,3.1-.4,1.7-6.4-.6-10.6,1Z"/><path class="cls-1" d="M59.5,66.4v-.2c-2.9.9-6.2,2-10.1,3.1-.9.3-1.8.5-2.7.8-6.2,1.8-12.4,3.1-19.3,3.6-.3,0-.5,0-.8,0-2.5.3-5.6.9-7,2.9-1.5,2.1-1.2,8.1,1,9.8-.9.2-1.6.5-1.8.8-1.6,2.1,1,2.1,3.4,2.2.1,0,.3,0,.5,0,1.8,0,3.5,0,3.7-1.6,0-.4,0-.7-.3-1,4.7.9,9.2,1.4,14.1,1,6.2-.4,10.3-.7,16.4-1.7.5,0,1-.2,1.5-.3.4,0,.8-.1,1.1-.2,1.4-.3,2.7-.5,4-.7v-.3c-.2-6.3-.5-12.9-3.7-18.4Z"/><path class="cls-1" d="M18.6,90.8c-.8,2.4,1.2,2.4,3.3,2.2.8,0,1.5,0,2.2,0,2.1-.2,3.9-.7,1.5-3-.5-.4-1.6-.5-2.9-.6-.1,0-.3,0-.4,0-1.6,0-3.2,0-3.6,1.3Z"/><path class="cls-1" d="M20.5,93.5c-2.7,1.8-1.2,2.6.8,3.1,0,.1,0,.3,0,.4-.8,0-1.5.2-1.7.6-.5.8-.4,1.3,0,1.6.3.2.8.3,1.3.4.1,0,.3,0,.4,0,2.6.7,7.9-.4,3.1-2.3-.4-.1-1-.3-1.6-.4,2.4-.1,4.9-.3,2.9-3.3-.3-.4-.9-.6-1.6-.7-.7,0-1.5,0-2.2.2-.6,0-1.1.1-1.4.3Z"/><path class="cls-5" d="M43.1,155.1h0c.5-1.2-.6-7.7-1-10-5.3.4-10.9.4-16.3,0-1.6,0-3.3-.2-4.9-.3h0c-2.3.7-5.7,1.4-9.4,1.9-7.8,1.5-9.4,6-9.5,9.8h-.3c-.1.3-.2.6-.3.8-.2.9,0,1.5.6,2.4,7,1.8,17.3.8,29.6-.9,5.1-.7,8.1.1,11.3-.5.4.1,0-3.1,0-3.1Z"/><path class="cls-5" d="M21.9,93.1s0,0,0,.1c.7,0,1.5,0,2.2-.2-.7,0-1.4,0-2.2,0Z"/><path class="cls-8" d="M74.3,55.5c-1.6.2-9.6,7.7-9,8.8"/><path class="cls-8" d="M20.6,86.5c-2.2-1.7-2.5-7.6-1-9.8,1.4-2,4.5-2.7,7-2.9.3,0,.6,0,.8,0,6.9-.5,13.1-1.8,19.3-3.6.9-.3,1.8-.5,2.7-.8,3.9-1.1,7.1-2.2,10-3.1,2.1-.7,4-1.3,5.9-1.9,3.5-1.1,7.7-2.8,11.2-3.1,1.6-.2,11.4-.4,12.8-.4"/><path class="cls-8" d="M95.9,77.1c-3.2,5.5-16.7,5.3-22.1,6.2-2.8.5-5.2.9-7.6,1.3-1,.2-2.1.3-3.1.5-1.3.2-2.6.4-4,.7-.4,0-.8.1-1.1.2-.5,0-1,.2-1.5.3-6.1,1-10.1,1.3-16.4,1.7-4.8.3-9.4-.2-14.1-1"/><path class="cls-8" d="M94.1,48.8s0,0,0,0c1.8,1.6,1.7,2.9,1.4,5.7"/><path class="cls-8" d="M59.1,86c0,2.3-.2,2.6-.2,4.8v.2"/><path class="cls-8" d="M95.5,54.5c1.7,1.7,3.7,6.6,4,9.1.3,3.3,0,7-.4,11.6-.5,6.2-.7,12.9-1.2,19-1,12.7-.4,14-.4,26.9,0,1.3.1,17.3,0,18.6-.3,0-.6,0-1,0-4.7.2-12.9-1-15.3-4.3-1.9-2.7-11.2-23.4-14.3-28.4"/><path class="cls-8" d="M56.5,86.3c.5.9,1.4,2.5,2.4,4.5,1.8,3.4,4,7.9,5.7,11.5.9,1.9,1.7,3.5,2.2,4.6"/><path class="cls-8" d="M20.9,99.6c0,.4,0,.8-.1,1.2-.5,5.2-.8,12.1-.8,17.4,0,8.5-.6,18.2,0,26.4.3,0,.6,0,.9,0,1.6.1,3.2.2,4.9.3,5.5.3,11,.4,16.3,0,.5-6.4-.4-14-.4-20.5s0-2-.2-3.1c-.3-2.7-.9-5.6-.9-7.9s-1.1-8.5,0-10.5"/><path class="cls-8" d="M21.4,96.6c0,.1,0,.3,0,.4"/><path class="cls-8" d="M21.9,93.1s0,0,0,.1"/><path class="cls-8" d="M22.7,89.5s0,0,0,0"/><path class="cls-8" d="M96.5,139.5c0,0,0,.1,0,.2-.7,4.5-2.4,9.8-5.6,13.9-3.1,4-7.2,5.7-11.8,6-6.1.4-11.6.8-17.1-1.2-5.5-2-9.1-8.2-12.5-14.5-.7-1.3-7.3-21.2-7.7-22.6"/><path class="cls-8" d="M26.6,73.7c1.5-4,4.6-9.4,10.3-9.4,8.6,0,9.4,2.3,12.5,5"/><path class="cls-9" d="M21.3,99.7c2.6.7,7.9-.4,3.1-2.3-.4-.1-1-.3-1.6-.4-.5-.1-1-.2-1.5-.3-2-.5-3.5-1.3-.8-3.1.3-.2.8-.3,1.4-.3.7,0,1.5,0,2.2-.2,2.1-.2,3.9-.7,1.5-3-.5-.4-1.6-.5-2.9-.6-.1,0-.3,0-.4,0-2.5,0-5,0-3.4-2.2.2-.3.9-.6,1.8-.8,1.8-.4,4.5-.5,5.5.4.3.3.4.6.3,1-.2,1.5-1.9,1.5-3.7,1.6-.1,0-.3,0-.5,0-1.6,0-3.2,0-3.6,1.3-.8,2.4,1.2,2.4,3.3,2.2.8,0,1.5,0,2.2,0,.7,0,1.3.2,1.6.7,2.1,2.9-.4,3.2-2.9,3.3-.5,0-1.1,0-1.5,0-.8,0-1.5.2-1.7.6-.5.8-.4,1.3,0,1.6.3.2.8.3,1.3.4.1,0,.3,0,.4,0"/><path class="cls-9" d="M89.3,60.9c3.3-1.1,4.5-4.2,6.1-6.4"/><polyline class="cls-8" points="11.8 158 11.8 158.1 11.8 158.2"/><line class="cls-8" x1="11.7" y1="149" x2="11.8" y2="149"/><line class="cls-8" x1="1.8" y1="157.3" x2="2.2" y2="157.3"/><path class="cls-8" d="M42.1,145.1c.4,2.3,1.5,8.8,1,10"/><path class="cls-8" d="M43.1,155.1h0c-.6,0-7,.4-12.9,1-6.4.7-12.2,1.9-18.4,2.1-3,0-6.2-.1-9.5-.8"/><path class="cls-8" d="M25.8,145.1h0c-1.9,1.1-8.6,3-13.9,4"/><path class="cls-8" d="M2.1,156.8c0-.1,0-.3,0-.4,0-3.8,1.6-8.2,9.5-9.8,0,0,0,1,.2,2.4.1,2.5.3,6.5,0,9"/><path class="cls-8" d="M20.9,144.8c-2.3.7-5.7,1.4-9.4,1.9"/><path class="cls-8" d="M2.1,159.7c7,1.8,17.3.8,29.6-.9,5.1-.7,8.1.1,11.3-.5.4.1,0-3.1,0-3.1"/><path class="cls-8" d="M1.8,156.4c-.1.3-.2.6-.3.8-.2.9,0,1.5.6,2.4"/><path class="cls-9" d="M59.5,66.4c3.2,5.5,3.4,12.1,3.6,18.4"/><path class="cls-9" d="M66.3,84.8c-1.3,8.2-1,9.5-1.6,17.5"/><path class="cls-8" d="M62.4,31.2s1.3,5.8,2.2,10.4c.1.7.3,1.4.4,2,1,5.5,6.1,9.5,9.6,11.4,1,.6,1.9,1,2.5,1.2,3.4,1.1,9,.3,14.7-4.3"/><path class="cls-8" d="M65.1,29c2.5-1,7.7-1.2,9.8-.5"/><path class="cls-8" d="M84.1,28.4c4.3-1.6,10.3.7,10.6-1"/><path class="cls-8" d="M74.4,38.1c-1.3,4.1,6.8,3.9,9.3,2.9"/><path class="cls-8" d="M99.5,32.4c0-.7.1-1.4.3-1.9.3-1,1-1.6,1.9-1.6.3,0,.7,0,1.1.2,2.7,1.1.8,6,0,8.1-.8,2.4-2.6,2.3-3.5,1.6"/><path class="cls-8" d="M62.4,31.2c0-.9,0-1.8,0-2.7,0-4.7.6-9.1,1.4-12.2,1.6-6.6,3.7-1.5,13.4-1.5s14.7-4.7,17.6,1.2c1.9,3.8,4.7,10.3,4.8,14.3"/><path class="cls-8" d="M99.2,36.5c0,.6-.1,1.4-.3,2.1-.8,3.1-3,7.2-4.8,10.1-1,1.5-1.8,2.7-2.3,3.1"/><path class="cls-8" d="M65.1,29c.5-1.9,3.3-4.4,5.8-4.4,2.4,0,5,.2,4,3.9"/><path class="cls-8" d="M84.1,28.4c-.5-1.3-.3-2.1,0-3.2,1.5-1.4,3.8-1.7,5.9-.9,1.4.5,4.6,1.3,4.8,3.1"/><path class="cls-8" d="M71.3,31.2c0,1-.4,1.8-.8,1.8s-.8-.8-.8-1.8.4-1.8.8-1.8.8.8.8,1.8Z"/><path class="cls-8" d="M89.5,31.2c0,1-.4,1.8-.9,1.8s-.9-.8-.9-1.8.4-1.8.9-1.8.9.8.9,1.8Z"/><path class="cls-8" d="M60.3,29.9c-.9-3.4-.1-6.4-.3-9.9-.3-8.5,2.3-17.7,8.1-18.5,12.4-1.6,23.4-1.5,26.6,1.1,3.2,2.6,5.6,4.4,6.6,11.5.7,4.6,1.3,10.2.3,14.8h0"/><path class="cls-8" d="M61.9,28.5c-.4-.1-.8,0-1.1.3-.3.3-.4.7-.5,1-.7,2.7,1.4,10,4.3,11.7"/><path class="cls-8" d="M87.7,43.3c-1.9,2.4-5.4,4.1-9.2,3.9-2.6-.2-3.8-1.3-5-3"/><path class="cls-8" d="M73.6,44.2c4.4,1.6,13.3-.1,14.2-.9"/></svg>