<?xml version="1.0" encoding="UTF-8"?><svg id="Asia" xmlns="http://www.w3.org/2000/svg" width="88" height="126" viewBox="0 0 88 126"><defs><style>.cls-1{fill:#010101;}.cls-1,.cls-2,.cls-3,.cls-4,.cls-5,.cls-6,.cls-7{stroke-width:0px;}.cls-2{fill:#2e2e2e;}.cls-8{stroke-linejoin:round;}.cls-8,.cls-9,.cls-10{fill:none;stroke:#000;stroke-width:.6px;}.cls-8,.cls-10{stroke-linecap:round;}.cls-3{fill:#383938;}.cls-4{fill:#8ea3d3;}.cls-9,.cls-10{stroke-miterlimit:10;}.cls-5{fill:#bdcae8;}.cls-6{fill:#fff;}.cls-7{fill:#7d584d;}</style></defs><path class="cls-5" d="M47,7.4c.6-.5,1.4-1,2.2-1.2-1.3,1.3-2.4,3-3.3,5,0,0,0,0,0,0-.2-.2-.2-.4-.2-.6,0,0,0-.2,0-.3h0c0-1.1.5-2.1,1.3-2.9Z"/><path class="cls-5" d="M49.6,6.2h0s0,0,.1,0c.9,0,1.1.7,1.3,1.5-1.6.8-2.9,1.9-3.3,3.6-.5-.3-1.3.3-1.7,0,.9-2,2-3.7,3.3-5,.1,0,.2,0,.3,0Z"/><path class="cls-5" d="M51.7,121c-3.6-3.3-9.2-15.3-10.9-19.8h0c-.1-.2-.2-.5-.3-.7-.8-1.7-1.8-3.7-2.7-5.7,6.5-1.7,12.1-6.2,15.4-12,.4.5.9,1.1,1.4,1.7.7.9,1.5,1.9,2.4,3,1.2,1.5,2.4,3,3.6,4.6t0,0c.1.4.3.8.6,1.2.2.3.5.5.8.6,5.2,6.6,10.3,13,12.3,14.8,1.9,1.8,2.5,2.2,5.2,2.5-.7,2.5-.7,5-1.7,7.4-1.3,3-3.2,4.9-7,6.1-5.8,1.9-14.6,1.2-18.9-3.5h0Z"/><path class="cls-5" d="M75.1,7.9c.5.8.9,2.1.6,3,0,.1,0,.2-.1.3-.3-.5-.5-1-.6-1.3l-2.9-3.7c-.3-.1-.7-.2-1-.4.2-.1.5-.1.8,0,.8.2,1.6.5,2.2,1.1.4.3.7.7,1,1.1Z"/><path class="cls-5" d="M75.6,11.2c-.3.6-1.1.7-1.9.7-.5-1.8-1.3-3.4-3.2-4.3.5-.4,0-1.4.6-1.8,0,0,0,0,0,0h0c.3.1.7.3,1,.4l2.9,3.7c0,.3.3.9.6,1.3Z"/><path class="cls-5" d="M56.7,58.5h0c0,0-.2,0-.2.1,0,0,0,0,0,0-.5-2.6-2.5-4.8-5.1-5.7.1-1.1.7-2.2,1.6-3.1.6-.7,1.4-1.4,2-1.8v-.2c.5.3.8.5,1.1.8v.4c0,1.2-.7,7.9,1.6,6.8,1-.4,9.6-4.9,10.3-6.3.1-2.1,0-.5,0-3.2h.5c1.2.2,1.7.7,2.4,1.6.4.5.4,1.1.4,1.7,0,.4,0,.9-.1,1.3,0,.3-2.8,1.5-3,1.5-1.4.7-6.1,3.2-11.4,5.9Z"/><path class="cls-1" d="M66.5,26c.8,0,1.4,1.2,1.4,2.7s-.6,2.7-1.4,2.7-1.4-1.2-1.4-2.7.6-2.7,1.4-2.7Z"/><path class="cls-6" d="M65.6,40c-1.6,2.5-1.5,1.9-2.8,2.8-1.3.9-3.6,1.5-4.9,1.3-2.2-.3-3.3-1.3-4.2-3.2,3.7,1.7,11.2-.1,12-.9Z"/><path class="cls-6" d="M60.5,92c.5.6.9,1.2,1.4,1.7-.3-.1-.6-.3-.8-.6-.3-.3-.4-.7-.6-1.2Z"/><path class="cls-4" d="M78.1,54.7c-2.3-3-3.5-3.6-6.5-5h-.4c0,.4,0,.9-.1,1.3,0,.3-2.8,1.5-3,1.5-1.4.7-6.1,3.2-11.4,5.9h0c0,0-.1.1-.2.1,0,0,0,0,0,0-.5-2.6-2.5-4.8-5.1-5.7.1-1.1.7-2.2,1.6-3.1h-.3c-1.5.5-3.4.6-4.6,1.8-2.3,2.3-12,11.1-15.4,14.9,5.6-2.2,7.3-.5,7.9,0h0c2-.8,4.8-2.1,7.8-3.7,2.1,1.4,3.8,3.5,4.6,5.9.6,1.8.8,4.8.5,7.2h0c-.8.3-1.8.6-2.9.9,0,1.2.1,1.5.1,2.7,0,0,0,0,0,0,.3.4.7.8,1,1.2.5.6,1,1.2,1.6,1.9.4.5.9,1.1,1.4,1.7.7.9,1.5,1.9,2.4,3,1.2,1.5,2.4,3,3.6,4.6t0,0c.5.6.9,1.2,1.4,1.7,5.2,6.6,10.3,13,12.3,14.8,1.9,1.8,2.5,2.2,5.2,2.5,1.5-7,1.8-22.6,1.8-28.7s0-23.7-3-27.5Z"/><path class="cls-2" d="M81.9,6.5c.9-.4,1.4-1.5,1-2.4-.4-.9-1.6-1.4-2.6-1,0-.7.6-1.8-1-2.5-2-.7-2.4.5-3.2,1.5-.9-2-3.3-1.4-2.8.8-.6-.3-1.2-.5-1.8-.5-.6,0-1.4.3-1.6.9-.1.4-.2.7-.2,1-3.4-1.3-7.4-1.6-11.6-.6,0,0-.1,0-.2,0,0,0-4.5-.1-6.7,1-.3.2-.7.4-1,.6.4-.7.2-1.4-1.3-1.5.2-.6.6-1.5.2-2-.4-.4-1.7-.4-2.3-.2,0-.8-.6-1.8-1.4-1.6-.8.1-1.4.8-1.5,1.6-.6-.7-1.8-.9-2.6-.4-.8.5-1,1.7-.4,2.4-.6,0-1.8-.2-2.2,1.4-.2,1.9,1,2,2.1,2.4-1.7,1.2-.6,3.2,1.4,2.3-.2.6-.2,1.1,0,1.7.2.6.6,1.1,1.2,1.2,1.9.2,2.1-1,2.2-2.3h0c0-1.1.5-2.1,1.3-2.9.6-.5,1.4-1,2.2-1.2.1,0,.2,0,.3,0h0s0,0,.1,0c.9,0,1.1.7,1.3,1.5-1.6.8-2.9,1.9-3.3,3.6-.5-.3-1.3.3-1.7,0-1.9,4.3-2.5,9.9-1.2,15.2,0,0,.2,0,.2,0h.8c0-.2,0-.4-.1-.6h0c0-.2,0,0,0-.3,0-.5,0-.9,0-1.4,0-7,6.3-13.1,11.3-13.8.2,0,.3,0,.5,0,3.1-.4,20.1,5,19.5,16.2,1-.2,1.7-.1,2.3.1h0c1.3-6.8,1.1-11.3-1.2-15.4,0-.1.1-.3.2-.4.5.4,1.5,1,2.1.7.6-.3.9-1.6.8-2.3.8.2,2.1-.2,2.2-1,0-.8-.5-1.6-1.3-1.9ZM73.8,11.9c-.5-1.8-1.3-3.4-3.2-4.3.5-.4,0-1.4.6-1.8,0,0,0,0,0,0h0c.2-.1.5-.1.8,0,.8.2,1.6.5,2.2,1.1.4.3.7.7,1,1.1.5.8.9,2.1.6,3,0,.1,0,.2-.1.3-.3.6-1.1.7-1.9.7Z"/><path class="cls-2" d="M68.6,19.9c-1.2-.3-5.3-.4-4.7,1.5.1.4.6.8,1,.8.5,0,1.7-.2,2.2-.2,1.3,0,2.2.1,3.7.3.4,0,.7-.2.5-.7-.3-.6-1.2-1.3-2.8-1.8Z"/><path class="cls-2" d="M53.2,20.2c-1.5-.6-3.2,0-4.2,1.1-.2.1-.3.3-.4.5,0,.2,0,.4,0,.6.1.2.4.2.6.1.2,0,3.4.3,3.8.3.6,0,1.1-.6,1.1-1.2,0-.6-.5-1.1-1-1.4Z"/><ellipse class="cls-1" cx="51.1" cy="28.6" rx="1.1" ry="2.4"/><path class="cls-7" d="M79.1,26.7c-.5-.3-1.3-.3-2.3-.1.6-11.2-16.4-16.6-19.5-16.2-.2,0-.3,0-.5,0-4.9.6-11.3,6.8-11.3,13.8,0,.9,0,1.3,0,1.4,0,0,0,.2,0,.3h0c0,.2,0,.4.1.7h-.8c0,0-.2-.1-.2-.1-.3,0-.7.1-1,.4-.3.4-.4.8-.4,1.3-.2,1.9,0,3.8.8,5.5.2.5.5,1,.9,1.4.4.4.9.7,1.5.6h.3c.6,2.3,1.8,4.8,3.8,7,1.5,1.6,2.9,3.7,4.6,5.2.3.3.6.5.9.8v.4c0,1.2-.7,7.9,1.6,6.8,1-.4,9.6-4.9,10.3-6.3.1-2.1,0-.5,0-3.2h0c1.5-1.2,3.2-2.7,5.1-4.6,1.8-2.3,2.2-3.3,2.9-5.5h0c1.9-.4,3.1-2.2,3.8-4.5.5-1.8,1-4.4-.7-5.1ZM51.1,31c-.6,0-1.1-1.1-1.1-2.4s.5-2.4,1.1-2.4,1.1,1.1,1.1,2.4-.5,2.4-1.1,2.4ZM49.2,22.5c-.2,0-.5,0-.6-.1-.1-.2-.1-.4,0-.6,0-.2.2-.3.4-.5,1.1-1,2.8-1.7,4.2-1.1.6.2,1,.8,1,1.4,0,.6-.5,1.2-1.1,1.2-.5,0-3.6-.3-3.8-.3ZM53.6,40.9c3.8,1.7,11.2-.1,12-.9-1.6,2.5-1.5,1.9-2.8,2.8-1.3.9-3.6,1.5-4.9,1.3-2.2-.3-3.3-1.3-4.2-3.2ZM65.1,28.8c0-1.5.6-2.7,1.4-2.7s1.4,1.2,1.4,2.7-.6,2.7-1.4,2.7-1.4-1.2-1.4-2.7ZM70.8,22.4c-1.4-.1-2.4-.3-3.7-.3-.5,0-1.7.3-2.2.2-.5,0-.9-.4-1-.8-.6-1.9,3.5-1.9,4.7-1.5,1.5.4,2.5,1.1,2.8,1.8.2.4,0,.7-.5.7Z"/><path class="cls-7" d="M48.2,62.9c-3,1.5-5.8,2.8-7.8,3.7h0c-.6-.5-2.3-2.2-7.9,0-2.4,1-2.6,1.7-3,2.8-2,.6-3.6,1.1-4.5,1.3-1.9.5-3,1-4,3.2-.6,1.4-.3,5.8.1,6.4.4.4,1.7.7,3.4.9v.3c-.6,0-1.2,0-1.7,0-.8,0-1.7.3-1.1,1.3.2.3,1.1.4,2,.4-1.5.3-3.5.8-1.4,2.2.3.2,1.3.2,2.2.3-1.6.1-4.1-.7-3.4,1.4.3.8,1.2.8,2.2.8-1.5,0-3,0-2.1,1.4.2.2.7.4,1.3.5h0c0,8.3,0,16.8-.7,21.2h0c0,.6-.2,1.1-.3,1.5,1.4,1.2,3.6,2.4,5.4,3s4.6-1.2,5.4-1.6c.6-9.2,4.9-19.1,4.5-20.6.2.6.5,1.1.7,1.7,6.5-1.7,12.1-6.2,15.4-12-.6-.7-1.1-1.4-1.6-1.9-.4-.4-.7-.9-1-1.2,0,0,0,0,0,0-.9-1.1-1.6-1.8-1.9-2.1.6-.2,1.2-.4,1.8-.6,1.1-.4,2-.7,2.9-.9h0c.3-2.4.1-5.4-.5-7.2-.8-2.4-2.4-4.5-4.6-5.9Z"/><path class="cls-3" d="M33.4,121.5c.4-1.1.1-5.4-.9-7.8-.8.4-3.7,2.1-5.4,1.6s-4-1.7-5.4-3c.1-.4.2-1,.3-1.5h0c-.8-5-1.6-3.8-2.2-1-.5,2.1-7.5,3.2-10.7,3.6-6.9,1.4-8.4,5.3-8.4,8.7h-.3c-.1.3-.2.5-.3.7-.2.8,0,1.3.5,2.2,6.2,1.6,11.7,1.3,22.6-.2,4.5-.6,7.2.1,10.1-.5.4.1,0-2.8,0-2.8h0Z"/><path class="cls-10" d="M71.6,49.8c3,1.4,4.2,1.9,6.5,5,3,3.9,3,21.2,3,27.5s-.3,21.7-1.8,28.7c-2.7-.2-3.3-.7-5.2-2.5"/><path class="cls-10" d="M49.8,61.9c.2-1.3.8-3.8,1-4.8"/><path class="cls-10" d="M56.5,58.7c-2.7,1.4-5.6,2.9-8.3,4.2-3,1.5-5.8,2.8-7.8,3.7-1.3.5-2.2.9-2.7,1-3,.5-5.9,1.2-8.2,1.8-2,.6-3.6,1.1-4.5,1.3-1.9.5-3,1-4,3.2-.6,1.4-.3,5.8.1,6.4"/><path class="cls-8" d="M56.7,58.5c0,0-.2,0-.2.1"/><path class="cls-8" d="M68.1,52.6c-1.4.7-6.1,3.2-11.4,5.9"/><path class="cls-10" d="M53.3,75.9c-.8.3-1.8.6-2.9.9-.6.2-1.2.4-1.8.6-4.6,1.5-10.3,3.4-12.8,3.8-.9.1-3.8.2-6.8,0-1.5,0-3.1-.2-4.4-.3-1.7-.2-3-.5-3.4-.9"/><path class="cls-10" d="M75,68.7c-2.9.9-6.8,2.7-10.8,4.5-1.4.6-2.8,1.2-4.1,1.8-1.1.5-2.2,1-3.3,1.4-1.5.6-2.8,1.1-4.1,1.5"/><path class="cls-10" d="M52.6,49.8c-1.5.5-3.4.6-4.6,1.8-2.3,2.3-12,11.1-15.4,14.9"/><path class="cls-8" d="M50.6,79.5c-.9-1.1-1.6-1.8-1.9-2.1"/><path class="cls-10" d="M56.9,87.4c-.8-1-1.6-2-2.4-3-.5-.6-.9-1.2-1.4-1.7-.6-.7-1.1-1.4-1.6-1.9-.4-.4-.7-.9-1-1.2"/><path class="cls-8" d="M60.5,92c-1.2-1.6-2.4-3.1-3.6-4.6"/><path class="cls-10" d="M74.1,108.5c-2-1.7-7.1-8.2-12.3-14.8-.5-.6-.9-1.2-1.4-1.7"/><path class="cls-10" d="M40.4,66.5c-.6-.5-2.3-2.2-7.9,0-2.4,1-2.6,1.7-3,2.8"/><path class="cls-10" d="M79.3,111c-.7,2.5-.7,5-1.7,7.4-1.3,3-3.2,4.9-7,6.1-5.8,1.9-14.6,1.2-18.9-3.5-.1-.1-.2-.3-.3-.4h0"/><path class="cls-10" d="M37,93.1c.2.6.5,1.1.7,1.7.9,2,1.9,4,2.7,5.7.1.2.2.5.3.7,0,.2.2.4.3.6"/><path class="cls-10" d="M34.9,86.4c.4,2.1,1.1,4.4,2.1,6.6"/><path class="cls-10" d="M51.7,121c-3.6-3.3-9.2-15.3-10.9-19.8"/><path class="cls-10" d="M23.5,87.7c-1,0-1.9,0-2.2-.8-.7-2.1,1.8-1.2,3.4-1.4.4,0,.8-.1,1-.4,1.3-1.9-.3-2-1.9-2.1-.9,0-1.8,0-2-.4-.6-1,.3-1.2,1.1-1.3"/><path class="cls-10" d="M23,81.3c.5,0,1.1,0,1.6,0,1.4.2,2.4.6.3,1.3-.3,0-.6.2-1.1.3-1.5.3-3.5.8-1.4,2.2.3.2,1.3.2,2.2.3,1.3.1,2.5.4.9,1.9-.3.3-1.2.3-2.2.4,0,0,0,0,0,0-1.5,0-3,0-2.1,1.4.2.2.7.4,1.3.5,1.5.3,3.6.2,3.5-.9-.2-1-1.4-1-2.7-1"/><path class="cls-10" d="M56,49.1c0,1.2-.7,7.9,1.7,6.8,1-.4,9.6-4.9,10.3-6.3"/><path class="cls-8" d="M68,49.6c.1-2.1,0-.5,0-3.2"/><path class="cls-8" d="M50.4,76.9c0,1.2.1,1.5.1,2.7,0,0,0,0,0,0h0"/><path class="cls-9" d="M48.2,62.9s0,0,0,0c2.1,1.4,3.8,3.5,4.6,5.9.6,1.8.8,4.8.5,7.2-.1.7-.3,1.4-.5,1.9"/><path class="cls-10" d="M53.2,82.7c-3.4,5.8-9,10.3-15.4,12"/><line class="cls-8" x1="9.2" y1="123.4" x2="9.2" y2="123.6"/><line class="cls-8" x1="9.1" y1="115.5" x2="9.3" y2="115.4"/><line class="cls-8" x1=".3" y1="122.8" x2=".8" y2="122.8"/><path class="cls-8" d="M21.7,112.3c1.4,1.2,3.6,2.4,5.4,3s4.6-1.2,5.4-1.6c.6-9.2,4.9-19.1,4.5-20.6,0,0,0,0,0,0"/><path class="cls-8" d="M22,110.8c0,.6-.2,1.1-.3,1.5"/><path class="cls-8" d="M22.7,89.7c0,8.2,0,16.6-.7,21.1"/><path class="cls-8" d="M32.5,113.7c1,2.4,1.3,6.7.9,7.8"/><path class="cls-8" d="M33.4,121.5h0c-.5,0-6.2.3-11.5.9-5.3.6-8.6,1.3-12.7,1.3-2.4,0-5-.2-8.5-.9"/><path class="cls-8" d="M21.7,112.3c-1.6.9-7.6,2.2-12.4,3.1"/><path class="cls-8" d="M.6,122.4c0-.1,0-.2,0-.4,0-3.3,1.5-7.3,8.4-8.7,0,0,0,.8.1,2.1.1,2.2.3,5.8,0,8"/><path class="cls-8" d="M22,110.9s0,0,0-.1h0c-.8-5-1.6-3.8-2.2-1-.5,2.1-7.5,3.2-10.7,3.6"/><path class="cls-8" d="M.6,124.9c6.2,1.6,11.7,1.3,22.6-.2,4.5-.6,7.2.1,10.1-.5.4.1,0-2.8,0-2.8"/><path class="cls-8" d="M.3,122c-.1.3-.2.5-.3.7-.2.8,0,1.3.5,2.2"/><path class="cls-8" d="M29.1,81.4c1,1.6,4.3,3.8,5.8,4.9"/><path class="cls-10" d="M68.5,46.4c1.2.2,1.7.7,2.4,1.6.4.5.4,1.1.4,1.7,0,.4,0,.9-.1,1.3,0,.3-2.8,1.5-3,1.5"/><path class="cls-10" d="M55,48c-.7.5-1.4,1.1-2,1.8-.8.9-1.4,2-1.6,3.1,2.5.9,4.5,3.1,5.1,5.7,0,0,0,0,0,0,0,0,.2,0,.2-.1h0s0,0,0,0"/><path class="cls-9" d="M57.1,76.8c-.2,3.5-.1,6.9,0,10.4"/><path class="cls-8" d="M61.8,93.7c.3.1.6.1.8,0,.9-.3,1.2-1.5,1.3-2.5.2-1.7,1-5.7.1-7.3,0,0-2.9-2.1-3.8-1.3-.3.3-.4.8-.5,1.3-.3,2.4-.2,5,.4,7.3,0,.2.1.4.2.6t0,0c.1.4.3.8.6,1.2.2.3.5.5.8.6Z"/><path class="cls-8" d="M60.2,75c0,.2,0,.4.1.5.2.6.4,1.3.8,1.8.4.5,1,.8,1.6.6.9-.3,1.2-1.5,1.3-2.5,0-.5.2-1.3.3-2.2"/><path class="cls-8" d="M51.8,80.7c-.1-.8-.3-1.5.1-1.6.5-.2,3.2.6,3.5,1.1.1.4.1.8.1,1.2,0,1-.3,2.1-.8,2.8"/><path class="cls-8" d="M45.7,25.8c0,.2,0,.4.1.7,0,.4.2.9.4,1.5,0,0-.4,3.5.7,7.6.6,2.4,1.8,4.9,3.8,7.1,1.5,1.6,2.9,3.7,4.6,5.2.3.3.6.5.9.8,2.7,1.9,6.2,2.2,11.9-2.2,1.5-1.2,3.2-2.7,5.1-4.6"/><path class="cls-8" d="M45.6,24.2c0,.5,0,.9,0,1.4,0,0,0,.2,0,.3"/><ellipse class="cls-8" cx="51.1" cy="28.6" rx="1.1" ry="2.4"/><path class="cls-8" d="M67.9,28.8c0,1.5-.6,2.7-1.4,2.7s-1.4-1.2-1.4-2.7.6-2.7,1.4-2.7,1.4,1.2,1.4,2.7Z"/><path class="cls-8" d="M54.2,35.2c.4,3.5,3.5,2.5,5.9,2.4"/><path class="cls-8" d="M53.6,40.9c3.7,1.7,11.2-.1,12-.9-1.6,2.5-1.5,1.9-2.8,2.8-1.3.9-3.6,1.5-4.9,1.3-2.2-.3-3.3-1.3-4.2-3.2Z"/><line class="cls-8" x1="53.6" y1="40.9" x2="53.6" y2="40.9"/><path class="cls-8" d="M76.4,34.5c-.2.7-.4,1.3-.5,1.8-.6,2.3-1.1,3.2-2.9,5.5,0,.1-.2.2-.3.3"/><path class="cls-8" d="M76.8,26.5c1-.2,1.7-.1,2.3.1,1.7.8,1.2,3.4.7,5.1-.7,2.3-1.9,4.1-3.8,4.5"/><path class="cls-8" d="M63.9,21.5c.1.4.6.8,1,.8.5,0,1.7-.2,2.2-.2,1.3,0,2.2.1,3.7.3.4,0,.7-.2.5-.7-.3-.6-1.2-1.3-2.8-1.8-1.2-.3-5.3-.4-4.7,1.5Z"/><path class="cls-8" d="M53.2,20.2c.6.2,1,.8,1,1.4,0,.6-.5,1.2-1.1,1.2-.5,0-3.6-.3-3.8-.3s-.5,0-.6-.1c-.1-.2-.1-.4,0-.6s.2-.3.4-.5c1.1-1,2.8-1.7,4.2-1.1Z"/><path class="cls-8" d="M45.4,26.7c0,0-.6-.3-.7-.3-.3,0-.7.1-1,.4-.3.4-.4.8-.4,1.3-.2,1.9,0,3.8.8,5.5.2.5.5,1,.9,1.4s.9.7,1.5.6"/><path class="cls-8" d="M45.6,24.2c0,.9,0,1.3,0,1.4,0,.2,0,0,0,.3h0c0,.2.2.6.4,1.5"/><path class="cls-8" d="M45.9,11.2c-1.9,4.3-2.5,9.9-1.2,15.2,0,0,0,.2,0,.3"/><path class="cls-8" d="M69.8,4.2c-3.4-1.3-7.4-1.6-11.6-.6h-.2s-4.5,0-6.7,1.1c-.3.2-.7.4-1,.6"/><path class="cls-8" d="M79.2,26.6c1.3-6.7,1.1-11.2-1.2-15.2"/><path class="cls-8" d="M45.6,24.2c0-7,6.3-13.1,11.3-13.8.2,0,.3,0,.5,0,3.1-.4,20.1,5,19.5,16.2"/><path class="cls-9" d="M81.9,6.5h0c.8.3,1.4,1.1,1.3,1.9,0,.8-1.3,1.2-2.2,1,0,.6-.3,2-.8,2.3-.6.3-1.5-.3-2.1-.7,0,.1-.1.3-.2.4-.7,1.5-1.7.8-2.3-.1"/><path class="cls-9" d="M71.1,5.8c-.7-.3-1.3-.8-1.3-1.5,0-.3,0-.6.2-1,.2-.6.9-.9,1.6-.9s1.3.2,1.8.5c-.5-2.2,1.9-2.9,2.8-.8.7-1,1.2-2.2,3.2-1.5,1.6.7,1.1,1.9,1,2.5.9-.4,2.2,0,2.6,1,.4.9,0,2.1-1,2.4"/><path class="cls-9" d="M75.6,11.2c0,0,0-.2.1-.3.3-1-.1-2.2-.6-3-.3-.4-.6-.8-1-1.1-.6-.5-1.4-.9-2.2-1.1-.3,0-.5,0-.8,0h0s0,0,0,0c-.5.4,0,1.3-.6,1.8,1.9.9,2.7,2.5,3.2,4.3.7,0,1.5,0,1.9-.7Z"/><path class="cls-9" d="M49.6,6.2s0,0-.1.1"/><path class="cls-9" d="M45.7,10.3c0,1.3-.3,2.5-2.2,2.3-.6,0-1-.6-1.2-1.2-.2-.6,0-1.1,0-1.7-2,.9-3.2-1-1.4-2.3-1.1-.4-2.3-.6-2.1-2.4.4-1.6,1.5-1.3,2.2-1.4-.6-.7-.4-1.9.4-2.4.8-.5,2-.4,2.6.4.1-.7.7-1.4,1.5-1.6s1.4.9,1.4,1.6c.6-.2,1.9-.2,2.3.2s0,1.4-.2,2c1.6.1,1.7.8,1.3,1.5-.2.3-.5.6-.8.9"/><path class="cls-9" d="M49.6,6.2c-.1,0-.2,0-.3,0-.8.1-1.7.6-2.2,1.2-.8.7-1.3,1.8-1.3,2.9"/><line class="cls-9" x1="49.6" y1="6.2" x2="49.6" y2="6.2"/><path class="cls-9" d="M45.7,10.3c0,0,0,.2,0,.3,0,.2,0,.5.2.6,0,0,0,0,0,0,.5.4,1.2-.2,1.7,0,.4-1.8,1.7-2.8,3.3-3.6-.2-.7-.5-1.5-1.3-1.5,0,0,0,0-.1,0"/><path class="cls-9" d="M45.7,10.3h0"/><path class="cls-8" d="M56.8,10.3c-.4-2.3,0-4.7,1.4-6.6,0,0,0,0,0,0"/></svg>