<?xml version="1.0" encoding="UTF-8"?><svg id="Asia" xmlns="http://www.w3.org/2000/svg" width="107" height="161" viewBox="0 0 107 161"><defs><style>.cls-1{fill:#010101;}.cls-1,.cls-2,.cls-3,.cls-4,.cls-5,.cls-6{stroke-width:0px;}.cls-2{fill:#363844;}.cls-7{fill:none;stroke:#000;stroke-linecap:round;stroke-linejoin:round;stroke-width:.6px;}.cls-3{fill:#35323a;}.cls-4{fill:#f3f2f3;}.cls-5{fill:#ce6082;}.cls-6{fill:#e7b59c;}</style></defs><path class="cls-5" d="M103.9,29c0,3.2-2.2,5.4-4.4,5.6.7-2.1,2.5-6.8,0-7.9-.4-.2-.8-.2-1.1-.3.3-1.2.9-2.4.8-3.4.6-.6.7-1.6.6-2.5,4.2,1.5,4.1,5.1,4.2,8.3Z"/><path class="cls-5" d="M99.6,77.1c.4-4.7.5-5.7.2-9-.2-2.5-4.9-12.3-6.6-14.1-.5-.9-1.5-4.9-1.8-6l-.5-.3c.2-.2.4-.3.5-.5,0,0,1.7-3.7,4.2-10.6h.2c0,.1,0,.2,0,.2,2.4,9.6,13,52.2,2.1,64.2,0-1.4.2-3.1.4-4.9.5-6.2.7-12.9,1.2-19.1Z"/><path class="cls-4" d="M59.6,92.8c0-.7.4-2.7.8-5.3-1,.2-2,.3-3,.5,0,0,0,0,0,0h0c.7,1.6,1.5,3.2,2.2,4.8ZM24.1,88.9c-1-.2-2.2-.2-3.3,0h0c-.2,0-.3,0-.3,0-2.8-1.1-3.2-7.9-1.6-10.1,1.6-2.2,5.3-2.8,7.9-3,6.9-.5,13.2-1.8,19.4-3.6,1.1-.3,2.2-.6,3.2-.9,6.4-1.9,11-3.5,15.3-4.8v-.4c1-1.9,2.4-3.7,3.9-5.4.5-.5,1.4-1.4,2.2-2.5l.2.2c5.1,1.5,7.2,1.5,11.2.6,0,0,1.6-.1,3-.5,2.1-.5,4.9-.4,8-4.2,1.8,1.8,6.4,11.5,6.6,14.1.3,3.3.2,4.3-.2,9-.5,6.3-.7,13-1.2,19.1-.2,1.9-.3,3.5-.4,4.9-.5,8.5,0,11.1,0,22.2,0,1.3-.9,17.3-1,18.6-.7,4.5-2.4,8-5.7,12.2-3.1,4-7.2,5.7-11.9,6-6.1.4-24,1.5-30-6.5-2,.2-4.5-.2-7.3-.9-5.1-1.2-11-3.2-16-4.6-2.3-.6-4.3-1.1-6-1.3,0,0-.2,0-.2,0-.6-8.3,0-18,0-26.6s.3-12.3.8-17.6c0-.3,0,0,0-.3h0c2.7.5,7.6-.6,2.9-2.5-.4-.1-1-.3-1.6-.4,2.4-.1,5-.4,2.9-3.3-.3-.4-.9-.6-1.6-.7,2.2-.2,4-.7,1.5-3-.5-.5-1.9-.5-3.3-.6,1.9,0,3.9,0,4.1-1.6.1-.9-.6-1.4-1.6-1.6Z"/><path class="cls-5" d="M59.1,23.5c-.2,0-.5-.2-.7-.3-.7-.6-.7-1.7-.7-2.6.4-5.6.6-8.8,2.9-12.1,2.4-3.4,8.2-7,12.2-7.8,8.9-1.9,21.5.7,25.4,9.6,1.6,3.7,1.4,6.5,1.4,10.5,0,.9,0,1.8-.6,2.5-1,1-2.7.5-4,0-10.5-4.4-22.7-4.4-33.2,0-.6.2-1.2.5-1.8.5-.3,0-.7,0-1,0Z"/><path class="cls-6" d="M98.3,26.5c.4,0,.7,0,1.1.3,2.6,1.1.7,5.8,0,7.9-.8,2.3-2.5,2.9-3.4,2.3h-.2s0,0,0,0h-.2c0-.3.2-.6.2-.8,0,0,.3-4.2,0-6.4,0-.2,0-.4,0-.6,0,0,0-.2,0-.2h0s0,0,0-.1c0,0,0,0,0,0,.3-1.4,1.2-2.1,2.4-2.1Z"/><path class="cls-3" d="M99.1,23.1c0,.9-.5,2.1-.8,3.4-1.1,0-2.1.7-2.4,2.1,0-.6,0-2.2-.9-5.5,1.3.5,3,1.1,4,0Z"/><path class="cls-6" d="M95.9,29.1c0,.2,0,.4,0,.6,0,5.3-5.7,14.9-10.5,16.7-.3-2.3-.2-3.7-.7-6.2-2.5-.4-6.7-1.1-9.2-1.1-1.9,0-4.8,1.1-6.8,1.6-.3,1.5-.7,4-1,5.6-.6.1-6.1-7.2-6.9-9.9h0s0,0,0,0c-.6-2.9-.5-5.6-.6-7.2,0-1-.1-1.6-.2-2.3,0-.8,0-1.6.2-3.2.6,0,1.2-.3,1.8-.5,10.5-4.3,22.7-4.3,33.2,0,.9,3.4.9,5,.9,5.5,0,0,0,0,0,0,0,0,0,0,0,0h0c0,0,0,0,0,0,0,0,0,.1,0,.2ZM80.1,25.9c5-.8,10.2-.2,10.5-.8,0-2.2-7.8-3.4-9.8-2.8-2.2.6-1,3.6-.8,3.7ZM84.8,31.4c.5,0,.8-.8.8-1.8,0-1-.4-1.8-.8-1.8s-.8.8-.8,1.8c0,1,.4,1.8.9,1.8ZM72.7,26.2c1-2.7-1.7-3.5-4.1-3.5-2.5,0-6.2,1.9-5.9,3.8,2.6-.7,8-.8,10.1-.4ZM67.6,31.5c.4,0,.8-.8.8-1.8,0-1-.4-1.7-.8-1.7-.4,0-.8.8-.8,1.7,0,1,.4,1.7.8,1.7Z"/><path class="cls-3" d="M95.9,29.6c.2,2.2,0,6.4,0,6.4,0,.2-.2.5-.2.7-2.5,6.9-4.2,10.6-4.2,10.6-.2.2-.4.3-.5.5-5.5,5.2-9.6,7.9-15.6,7.7-.9,0-1.8-.3-2.6-.5-7.9-2.5-10.2-12.1-11.7-17.4-.1-.5-.2-.9-.3-1.4h0c.8,2.7,6.2,10,6.9,9.9.3-1.5.7-4,1-5.6,2-.5,5-1.6,6.8-1.6,2.6,0,6.7.8,9.2,1.1.6,2.5.4,3.9.7,6.2,4.8-1.8,10.5-11.4,10.5-16.7ZM83.3,46.2c.3-.9.4-4.4-.1-4.8-.7-.4-6.7-1.1-7.8-1.2-.8-.1-5.1,1.3-5.6,1.8-.4.4-.2,3.9.4,4.9.6.8,1.5,1.3,2.5,1.6,1.3.4,6.4.3,7.6,0,1.2-.4,2.5-1.1,3-2.3Z"/><path class="cls-6" d="M91.4,48.1c.3,1,1.4,5,1.8,6-3.1,3.8-5.9,3.7-8,4.2-1.4.3-3,.5-3,.5-4,.8-6.1.8-11.2-.6l-.2-.2c.8-1,1.6-2.1,1.8-3,.8.3,1.7.4,2.6.5,6,.2,10.1-2.5,15.6-7.7l.5.3Z"/><path class="cls-3" d="M90.7,25.1c-.3.6-5.5,0-10.5.8-.3,0-1.4-3.1.8-3.7,1.9-.6,9.8.7,9.8,2.8Z"/><path class="cls-1" d="M85.6,29.6c0,1-.4,1.8-.8,1.8s-.8-.8-.9-1.8c0-1,.4-1.8.8-1.8s.8.8.8,1.8Z"/><path class="cls-6" d="M83.1,41.4c.6.3.5,3.9.1,4.8-.5,1.2-1.8,1.9-3,2.3-1.2.4-6.3.4-7.6,0-1-.3-1.9-.7-2.5-1.6-.6-1-.8-4.5-.4-4.9.5-.6,4.7-1.9,5.6-1.8,1,.1,7.1.8,7.8,1.2Z"/><path class="cls-3" d="M68.6,22.8c2.5,0,5.2.8,4.1,3.5-2.1-.5-7.5-.4-10.1.4-.3-1.9,3.4-3.8,5.9-3.8Z"/><path class="cls-1" d="M68.4,29.7c0,1-.3,1.7-.8,1.8-.4,0-.8-.8-.8-1.7,0-1,.3-1.7.8-1.7.4,0,.8.8.8,1.7Z"/><path class="cls-6" d="M60.1,29c.1,1.6,0,4.4.6,7.2-2.8-1.8-3.1-5.5-2.4-8.1,0-.4.2-.7.5-1,.1-.1.3-.3.5-.3h0c.2,0,.3,0,.5,0h.1c0,.6.1,1.3.2,2.2Z"/><path class="cls-3" d="M59.1,23.5c.3,0,.6,0,1,0-.2,1.6-.2,2.4-.2,3.2h-.1c-.2,0-.3,0-.5,0h0c-.3-1.6-.1-1.6-.1-3.2Z"/><path class="cls-4" d="M48.4,69.2c.2.3.5.9,1,1.8-1,.3-2.1.6-3.2.9-6.3,1.8-12.5,3.1-19.4,3.6v-.3c.9-4.1,6.8-8.5,9.9-8.7,5.1-.4,8.7,0,11.8,2.7Z"/><path class="cls-2" d="M42,152.8v.7c.2,2.3.2,3.1-.3,4.3h-.2c-.6,0-6.7-.2-12.4.1-6.2.3-11.4.6-17.1.5.2-2.2-.3-4.9-.7-6.7,5.3-.9,12.8-1.7,14.5-2.7l.2-.7c5,1.3,10.9,3.4,16,4.6Z"/><path class="cls-2" d="M12,158.4c5.7,0,10.8-.2,17.1-.5,5.8-.3,11.8,0,12.4-.1h.2s0,0,0,0c0,0,.4,2.5,0,2.4-3.2.7-6.6.2-11.2.2-5.2,0-28.1-.2-28-.2-.5-.7-.6-1.4-.3-2.2h.3s0,0,0,0h.2c3.4.2,6.5.3,9.4.4Z"/><path class="cls-2" d="M26,148.2l-.2.7c-1.7,1-9.3,1.8-14.5,2.7-.3-1.3-.6-2.2-.6-2.2,3.6-.4,7-1.1,9.2-1.8v-.6c1.8.2,3.8.6,6.1,1.3Z"/><path class="cls-6" d="M24.1,88.9c1,.2,1.7.7,1.6,1.6-.2,1.6-2.2,1.6-4.1,1.6-2.5,0-5.1,0-3.5-2.2.3-.4,1.4-.8,2.7-1h0c.7,0,2.2,0,3.3,0Z"/><path class="cls-6" d="M24.9,96.3c2.1,2.9-.4,3.2-2.9,3.3-2.4-.5-5.7-1.2-2.3-3.5.5-.4,2.1-.4,3.6-.5.7,0,1.3.2,1.6.7Z"/><path class="cls-6" d="M24.8,92.6c2.5,2.3.6,2.8-1.5,3-2.5-.2-6.7,1.1-5.5-2.2.4-1.3,2.1-1.3,3.7-1.4,1.4,0,2.8,0,3.3.6Z"/><path class="cls-6" d="M23.6,100c4.8,1.8-.2,3-2.9,2.3,0,0-.1,0-.2,0-.7,0-1.4-.1-1.8-.4-.4-.3-.5-.8,0-1.6.4-.6,1.8-.6,3.3-.7.6.1,1.2.3,1.6.4Z"/><path class="cls-6" d="M24.1,88.9c-1.1,0-2.7,0-3.3,0,1.1-.2,2.4-.2,3.3,0Z"/><path class="cls-2" d="M11.3,151.7c.4,1.9.9,4.6.7,6.7-2.9,0-5.9-.1-9.4-.4h-.2s0,0,0,0c0-3.6.6-7,8.3-8.5,0,0,.3.9.6,2.2Z"/><path class="cls-7" d="M81.5,137.7c-1.9-2.7-11.3-23.6-14.4-28.7"/><path class="cls-7" d="M93.2,54.1c1.8,1.8,6.4,11.5,6.6,14.1.3,3.3.2,4.3-.2,9-.5,6.3-.7,13-1.2,19.1-.2,1.9-.3,3.5-.4,4.9-.5,8.5,0,11.1,0,22.2,0,1.3-.9,17.3-1,18.6"/><path class="cls-7" d="M20.7,102.5c0,.3,0,0,0,.3-.5,5.3-.8,12.2-.8,17.6,0,8.6-.6,18.3,0,26.6,0,0,.2,0,.2,0,1.7.2,3.7.6,6,1.3,5,1.3,10.9,3.4,16,4.6,2.8.6,5.3,1,7.3.9.6-6.4-9.9-46.7-8.7-48.6"/><path class="cls-7" d="M96.9,141.9c-.7,4.5-2.4,8-5.7,12.2-3.1,4-7.2,5.7-11.9,6-6.1.4-24,1.5-30-6.5"/><path class="cls-7" d="M60.5,87.2c0,0,0,.1,0,.2-.5,2.6-.8,4.6-.8,5.3"/><path class="cls-7" d="M57.4,88c.7,1.6,1.5,3.2,2.2,4.8,3.5,7.5,6.6,14.4,7.5,16.2"/><path class="cls-7" d="M48.4,69.2c.2.3.5.9,1,1.8"/><path class="cls-7" d="M26.7,75.3c.9-4.1,6.7-8.5,9.9-8.7,5.1-.4,8.7,0,11.8,2.7"/><path class="cls-7" d="M93.2,54.1c-.5-.9-1.5-4.9-1.8-6"/><path class="cls-7" d="M95.9,36.8s0,0,0,.1c2.4,9.6,13,52.2,2.1,64.2"/><path class="cls-7" d="M95.9,29.6c.2,2.2,0,6.4,0,6.4,0,.2-.2.5-.2.7-2.5,6.9-4.2,10.6-4.2,10.6-.2.2-.4.3-.5.5-5.5,5.2-9.6,7.9-15.6,7.7"/><path class="cls-7" d="M60.7,36.2c0,.4.2.9.3,1.4,1.5,5.3,3.8,14.9,11.7,17.4.8.3,1.7.4,2.6.5"/><path class="cls-7" d="M60.1,29c.1,1.6,0,4.4.6,7.2"/><path class="cls-7" d="M62.6,26.6c2.6-.7,8-.8,10.1-.4"/><path class="cls-7" d="M80.1,25.9c5-.8,10.2-.2,10.5-.8"/><path class="cls-7" d="M73,30.2c-1,2.2-1.7,5.6-.8,6.9.9,1.3,3.4,1.9,6.6,1.3"/><path class="cls-7" d="M96,28.6c.3-1.4,1.2-2.1,2.4-2.1.4,0,.7,0,1.1.3,2.6,1.1.7,5.8,0,7.9-.8,2.3-2.5,2.9-3.4,2.3"/><path class="cls-7" d="M95.9,28.8s0,0,0,0"/><path class="cls-7" d="M95.9,29.5c0-.2,0-.3,0-.5,0,0,0-.2,0-.2"/><path class="cls-7" d="M95.1,23.1c.9,3.4.9,5,.9,5.5,0,0,0,0,0,0,0,0,0,0,0,0h0c0,0,0,0,0,0"/><path class="cls-7" d="M60.1,29c0-1-.1-1.6-.2-2.3,0-.8,0-1.6.2-3.2"/><path class="cls-7" d="M62.6,26.6c-.3-1.9,3.4-3.8,5.9-3.8,2.5,0,5.2.8,4.1,3.5"/><path class="cls-7" d="M80.1,25.9c-.3,0-1.4-3.1.8-3.7,1.9-.6,9.8.7,9.8,2.8"/><path class="cls-7" d="M72,43.2c4.3,1,5.3,1.3,9.8-.5"/><path class="cls-7" d="M68.4,29.7c0,1-.3,1.7-.8,1.8-.4,0-.8-.8-.8-1.7,0-1,.3-1.7.8-1.7.4,0,.8.8.8,1.7Z"/><path class="cls-7" d="M85.6,29.6c0,1-.4,1.8-.8,1.8s-.8-.8-.9-1.8c0-1,.4-1.8.8-1.8s.8.8.8,1.8Z"/><path class="cls-7" d="M99.1,23.1c0,.9-.5,2.1-.8,3.4h0"/><path class="cls-7" d="M59.3,26.7c-.3-1.6-.1-1.6-.1-3.2v-.4"/><path class="cls-7" d="M59.8,26.7c-.2,0-.3,0-.5,0h0c-.2,0-.4.2-.5.3-.3.3-.4.6-.5,1-.7,2.6-.4,6.4,2.4,8.1h0s0,0,0,0"/><path class="cls-7" d="M60.7,36.2c.8,2.7,6.2,10,6.9,9.9.3-1.5.7-4,1-5.6,2-.5,5-1.6,6.8-1.6,2.6,0,6.7.8,9.2,1.1.6,2.5.4,3.9.7,6.2,4.8-1.8,10.5-11.4,10.5-16.7,0-.2,0-.4,0-.6,0,0,0-.1,0-.2,0,0,0,0,0,0"/><path class="cls-7" d="M83.3,46.2c-.5,1.2-1.8,1.9-3,2.3-1.2.4-6.3.4-7.6,0-1-.3-1.9-.7-2.5-1.6-.6-1-.8-4.5-.4-4.9.5-.6,4.7-1.9,5.6-1.8,1,.1,7.1.8,7.8,1.2.6.3.5,3.9.1,4.8Z"/><path class="cls-7" d="M59.1,23.5c-.2,0-.5-.2-.7-.3-.7-.6-.7-1.7-.7-2.6.4-5.6.6-8.8,2.9-12.1,2.4-3.4,8.2-7,12.2-7.8,8.9-1.9,21.5.7,25.4,9.6,1.6,3.7,1.4,6.5,1.4,10.5,0,.9,0,1.8-.6,2.5-1,1-2.7.5-4,0-10.5-4.4-22.7-4.4-33.2,0-.6.2-1.2.5-1.8.5-.3,0-.7,0-1,0Z"/><path class="cls-7" d="M99.8,20.7c4.2,1.5,4.1,5.1,4.2,8.3,0,3.2-2.2,5.4-4.4,5.6"/><path class="cls-7" d="M72.7,55c-.2.8-1,1.9-1.8,3s-1.7,2-2.2,2.5c-1.5,1.6-2.9,3.5-4.1,5.4"/><path class="cls-7" d="M93.2,54.1c-3.1,3.8-5.9,3.7-8,4.2-1.4.3-3,.5-3,.5-4,.8-6.1.8-11.2-.6"/><path class="cls-7" d="M20.7,88.8c-.2,0-.3,0-.3,0-2.8-1.1-3.2-7.9-1.6-10.1,1.6-2.2,5.3-2.8,7.9-3,6.9-.5,13.2-1.8,19.4-3.6,1.1-.3,2.2-.6,3.2-.9,6.4-1.9,11-3.5,15.3-4.8,0,0,.1,0,.2,0,3.5-1.1,7.7-2.8,11.3-3.1,1.6-.2,11.5-.4,12.9-.4"/><path class="cls-7" d="M95.7,79c-3.2,5.6-16.8,5.3-22.2,6.2-4.8.8-8.5,1.4-13,2.2-1,.2-2,.3-3,.5,0,0,0,0,0,0-6.9,1.2-11.1,1.5-17.9,1.9-4.9.3-9.6-.2-14.3-1.1-.2,0-.6,0-1.1,0-1.1,0-2.7,0-3.3,0"/><path class="cls-7" d="M20.5,102.3c0,0,.1,0,.2,0,2.7.6,7.6-.5,2.9-2.3-.4-.1-1-.3-1.6-.4-2.4-.5-5.7-1.2-2.3-3.5.5-.4,2.1-.4,3.6-.5,2.2-.2,4-.7,1.5-3-.5-.5-1.9-.5-3.3-.6-2.5,0-5.1,0-3.5-2.2.3-.4,1.4-.8,2.7-1h0c1.1-.2,2.4-.2,3.3,0,1,.2,1.7.7,1.6,1.6-.2,1.6-2.2,1.6-4.1,1.6-1.7,0-3.3,0-3.7,1.4-1.2,3.3,3,2,5.5,2.2.7,0,1.3.2,1.6.7,2.1,2.9-.4,3.2-2.9,3.3-1.5,0-3,0-3.3.7-.5.8-.4,1.3,0,1.6.4.3,1.1.4,1.8.4"/><line class="cls-7" x1="41.8" y1="157.8" x2="41.8" y2="157.8"/><line class="cls-7" x1="10.9" y1="151.7" x2="11" y2="151.7"/><path class="cls-7" d="M41.9,153.5c.4,2.3.3,3.1-.1,4.3"/><path class="cls-7" d="M41.5,157.8c-.6,0-6.7-.2-12.4.1-6.2.3-11.4.6-17.1.5-2.9,0-5.9-.1-9.4-.4"/><path class="cls-7" d="M25.9,148.9c-1.7,1-9.3,1.8-14.5,2.7,0,0-.2,0-.3,0"/><path class="cls-7" d="M2.5,158.4c0-.1,0-.2,0-.4h0c0-3.7.6-7.1,8.3-8.6,0,0,.3.9.6,2.2.4,1.9.9,4.6.7,6.7,0,0,0,0,0,.1"/><path class="cls-7" d="M20,147.6c-2.3.7-5.6,1.4-9.2,1.8"/><path class="cls-7" d="M2.5,160.1c0,0,22.9.2,28,.2,4.6,0,8,.5,11.2-.2.4.1,0-2.4,0-2.4"/><path class="cls-7" d="M2.2,158c-.3.8-.2,1.5.3,2.2"/></svg>