<?xml version="1.0" encoding="UTF-8"?><svg id="Asia" xmlns="http://www.w3.org/2000/svg" width="96.5" height="280.6" viewBox="0 0 96.5 280.6"><defs><style>.cls-1{fill:#010101;}.cls-1,.cls-2,.cls-3,.cls-4,.cls-5,.cls-6,.cls-7{stroke-width:0px;}.cls-2{fill:#ddb798;}.cls-3{fill:#363844;}.cls-4{fill:#35323a;}.cls-5{fill:#f3f2f3;}.cls-8,.cls-9{fill:none;stroke:#000;stroke-miterlimit:10;stroke-width:.6px;}.cls-6{fill:#ce6082;}.cls-9{stroke-linecap:round;}.cls-7{fill:#e7b59c;}</style></defs><path class="cls-3" d="M96.2,276.9c.1,1.2-1.3,2.1-2.5,2.5-5.4,1.8-11.4.8-16.6-1.4-5.2-2.3-12.5-3.4-13.6-4.8-.6-.7-1.3-3.9-1.1-5.6,6-.7,11.7-1.9,16.6-3.6,5.4,4.3,8.6,5.4,16,11.1.6.5,1.2,1.1,1.3,1.8Z"/><path class="cls-5" d="M22.2,133.9s0,0,0,.1c-.3.6-7.3-5.8-9.9-18.8,0-9.1-1.9-45.5,5.2-50.3,1.7-1.2,11.2-4.2,13.2-4.4,2.8,2.3,5.4,3.1,8.7,3.1.8,0,1.7,0,2.6,0,4.5-.3,7.4-1,10.5-4.4,1,0,6.3,1,11.4,2.4,4.3,1.2,8.4,2.6,9.9,3.8,6.2,5.5,6.2,29,6.2,29,.8,6.1-3.5,36.2-7.2,40.5,1.7,14.8,3.4,34.2,4.9,43.9,2.6,16.8,6.3,83.1,6.3,83.1-1.5.8-3.2,1.4-5,2.1-4.9,1.7-10.6,2.9-16.6,3.6-9.2,1.1-19.1,1.1-27.7.2-6.7-.8-12.7-2.2-16.7-4.1-1.1-.5-2-1.1-2.8-1.7,1.5-7.9,4.5-104.4,5.4-112.6.8-7.1,1.2-7.9,1.6-15.3,0,0,0,0,0-.1Z"/><path class="cls-6" d="M68.3,31c0,3.4-2.3,5.7-4.7,6,.7-2.2,2.7-7.2,0-8.3-.4-.2-.8-.3-1.2-.3.3-1.3.9-2.6.8-3.6.6-.7.7-1.7.7-2.6,4.4,1.5,4.4,5.4,4.4,8.8Z"/><path class="cls-6" d="M20.9,25.2c-.2,0-.5-.2-.7-.4-.8-.6-.8-1.8-.7-2.8.5-5.9.6-9.3,3.1-12.8,2.5-3.6,8.7-7.4,12.9-8.3,9.5-2,22.7.7,26.9,10.2,1.7,3.9,1.5,6.9,1.5,11.1,0,.9,0,1.9-.7,2.6-1.1,1.1-2.9.5-4.3,0-11.1-4.6-24-4.7-35.2,0-.6.2-1.3.5-1.9.6-.4,0-.7,0-1,0Z"/><path class="cls-6" d="M63.9,61.3v.2c-5.2-1.4-10.4-2.4-11.5-2.4-.5-1-1.4-3-1.7-4.1l-.4-.4c1.5-1.2,3-2.6,4.7-4.2,0,0,1.9-4.2,4.7-11.9,0,.3.1.6.2.9,2.1,9.3-.4,12.9,3.9,21.9Z"/><path class="cls-2" d="M62.4,28.4c.4,0,.8,0,1.2.3,2.7,1.1.8,6.2,0,8.3-.8,2.5-2.6,3.1-3.6,2.4h0c0-.3-.1-.6-.2-.9,0,0,.3-4.4,0-6.7,0-.2,0-.5,0-.7,0,0,0-.2,0-.2,0,0,0,0,0,0,0,0,0-.1,0-.3.3-1.5,1.3-2.2,2.5-2.2Z"/><path class="cls-4" d="M63.2,24.8c0,1-.5,2.3-.8,3.6-1.2,0-2.2.7-2.5,2.2,0-.6,0-2.3-.9-5.8,1.4.6,3.2,1.2,4.3,0Z"/><path class="cls-7" d="M59.8,30.9c0,0,0,.1,0,.2,0,.2,0,.4,0,.7,0,5.6-6.1,15.8-11.1,17.7-.3-2.5-.2-3.9-.8-6.6-2.7-.4-7.1-1.2-9.8-1.2-2,0-5.1,1.2-7.2,1.7-.3,1.6-.7,4.3-1,5.9-.7.1-6.4-7.6-7.3-10.5-.6-3-.5-5.9-.7-7.6,0-1.1-.2-1.7-.2-2.4,0-.9,0-1.7.2-3.4.6,0,1.3-.3,1.9-.6,11.1-4.6,24.1-4.6,35.2,0,.9,3.5,1,5.2.9,5.8,0,0,0,.2,0,.3,0,0,0,0,0,0,0,0,0,0,0,0ZM43.1,27.8c5.3-.9,10.8-.2,11.2-.9,0-2.3-8.3-3.6-10.4-3-2.3.6-1.1,3.8-.8,3.9ZM48.9,31.7c0-1-.4-1.9-.9-1.9s-.9.8-.9,1.9.4,1.9.9,1.9.9-.8.9-1.9ZM35.3,28.1c1.1-2.8-1.8-3.7-4.4-3.7-2.7,0-6.6,2-6.3,4,2.7-.8,8.4-.9,10.7-.4ZM30.7,31.8c0-1-.4-1.9-.8-1.9s-.8.8-.8,1.9.4,1.9.8,1.9.8-.8.8-1.9Z"/><path class="cls-2" d="M59.8,30.8c0,0,0-.2,0-.3,0,.1,0,.2,0,.3Z"/><path class="cls-4" d="M59.8,31.7c.2,2.3,0,6.7,0,6.7-2.8,7.7-4.7,11.9-4.7,11.9-1.7,1.6-3.2,3-4.7,4.2-4,3.1-7.6,4.6-12.4,4.5-2.4-.2-4.3-1-6-2.2-5.8-3.9-7.8-12.1-9.1-16.8-.1-.5-.2-1-.3-1.4.9,2.9,6.6,10.6,7.3,10.5.3-1.6.7-4.3,1-5.9,2.1-.5,5.3-1.6,7.2-1.7,2.7,0,7.1.8,9.8,1.2.6,2.7.4,4.1.8,6.6,5.1-1.9,11.1-12,11.1-17.7ZM46.5,49.2c.4-.9.5-4.7-.1-5.1-.7-.4-7.1-1.2-8.2-1.3-.9-.1-5.4,1.3-5.9,1.9-.4.4-.3,4.2.4,5.2.6.9,1.6,1.4,2.7,1.7,1.3.4,6.8.4,8,0,1.3-.4,2.7-1.1,3.2-2.4Z"/><path class="cls-7" d="M39.4,63.5c-3.2,0-5.9-.8-8.7-3.1.4-.7.8-2.7,1.2-3.4h.1c1.7,1,3.6,1.8,6,2,4.7.1,8.4-1.4,12.4-4.5l.4.4c.3,1.1,1.2,3.1,1.7,4.1-3.1,3.3-6,4-10.5,4.4-.9,0-1.8.1-2.6,0Z"/><path class="cls-4" d="M54.3,26.9c-.4.7-5.9,0-11.2.9-.3-.1-1.5-3.2.8-3.9,2.1-.6,10.4.7,10.4,3Z"/><path class="cls-1" d="M48,29.8c.5,0,.9.8.9,1.9s-.4,1.9-.9,1.9-.9-.8-.9-1.9.4-1.9.9-1.9Z"/><path class="cls-2" d="M46.3,44.2c.6.4.5,4.1.1,5.1-.5,1.3-1.9,2-3.2,2.4-1.3.4-6.7.4-8,0-1-.3-2.1-.8-2.7-1.7-.7-1-.8-4.8-.4-5.2.5-.6,5-2.1,5.9-1.9,1.1.1,7.5.9,8.2,1.3Z"/><path class="cls-4" d="M30.9,24.4c2.6,0,5.5.8,4.4,3.7-2.2-.5-7.9-.4-10.7.4-.3-2,3.6-4,6.3-4Z"/><path class="cls-3" d="M34.6,267.7c-.3,2.5-1,4.6-1.4,5-2.4,3-10.1,3.9-14.6,5.5-5.1,1.8-11.1,2.4-16.1.3-1.2-.5-2.5-1.4-2.2-2.6.1-.7.7-1.3,1.3-1.7,7.6-5.1,12.1-7.4,16.2-10.7,4.1,2,10,3.4,16.7,4.1Z"/><path class="cls-1" d="M29.9,29.9c.5,0,.8.8.8,1.9s-.4,1.9-.8,1.9-.8-.8-.8-1.9.4-1.9.8-1.9Z"/><path class="cls-2" d="M21.9,31c.1,1.7,0,4.6.7,7.6-3-1.9-3.2-5.9-2.5-8.6,0-.4.2-.8.5-1.1.1-.2.3-.3.5-.3.2,0,.4,0,.5,0h.1c0,.7.1,1.3.2,2.4Z"/><path class="cls-4" d="M21.7,28.6h-.1c-.2,0-.4,0-.5,0h0c-.4-1.7-.2-1.7-.1-3.4.3,0,.7.1,1,0-.3,1.7-.3,2.5-.2,3.4Z"/><path class="cls-9" d="M30.7,60.4c-2,.2-11.5,3.2-13.2,4.4-7.1,4.8-5.2,41.2-5.2,50.3"/><path class="cls-9" d="M52.5,59.1c1,0,6.3,1,11.4,2.4,4.3,1.2,8.4,2.6,9.9,3.8,6.2,5.5,6.2,29,6.2,29"/><path class="cls-9" d="M20.5,79.2c-.5,6.3,0,6,0,16s1.3,28.8,1.7,38.6"/><path class="cls-9" d="M70.9,84.2c-.8,1.9-1.1,28.3-.8,32.4"/><path class="cls-9" d="M12.2,115.1c2.7,13.1,9.6,19.4,9.9,18.8,0,0,0,0,0-.1"/><path class="cls-9" d="M79.9,94.4c.8,6.1-3.5,36.2-7.2,40.5"/><path class="cls-9" d="M22.2,133.9s0,0,0,.1c-.4,7.5-.8,8.2-1.6,15.3-1,8.2-4,104.6-5.4,112.6.8.6,1.7,1.2,2.8,1.7,4.1,2,10,3.4,16.7,4.1,8.6,1,18.5,1,27.7-.2,6-.7,11.7-1.9,16.6-3.6,1.8-.6,3.4-1.3,5-2.1"/><path class="cls-9" d="M83.9,261.8s-3.7-66.4-6.3-83.1c-1.5-9.7-3.2-29.1-4.9-43.9-.9-8.3-1.9-15.2-2.7-18.2"/><path class="cls-9" d="M52.5,59.1c-.5-1-1.4-3-1.7-4.1"/><path class="cls-9" d="M30.7,60.4c.4-.7.8-2.7,1.2-3.4"/><path class="cls-9" d="M34.6,267.7c-.3,2.5-1,4.6-1.4,5-2.4,3-10.1,3.9-14.6,5.5-5.1,1.8-11.1,2.4-16.1.3-1.2-.5-2.5-1.4-2.2-2.6.1-.7.7-1.3,1.3-1.7,7.6-5.1,12.1-7.4,16.2-10.7"/><path class="cls-9" d="M96.2,276.9c0-.7-.6-1.3-1.3-1.8-7.4-5.7-10.6-6.8-16-11.1,0,0,0,0,0,0"/><path class="cls-9" d="M62.3,267.5h0c-.3,1.6.5,4.9,1.1,5.6,1.2,1.4,8.5,2.6,13.6,4.8,5.2,2.3,11.2,3.2,16.6,1.4,1.3-.4,2.7-1.3,2.5-2.5"/><path class="cls-9" d="M59.8,31.7s0,0,0,0c.2,2.3,0,6.7,0,6.7-2.8,7.7-4.7,11.9-4.7,11.9-1.7,1.6-3.2,3-4.7,4.2-4,3.1-7.6,4.6-12.4,4.5"/><path class="cls-9" d="M21.9,31c.1,1.7,0,4.6.7,7.6,0,.5.2,1,.3,1.4,1.3,4.8,3.3,12.9,9.1,16.8,1.7,1.1,3.6,1.9,6,2.2"/><path class="cls-9" d="M24.6,28.5c2.7-.8,8.4-.9,10.7-.4"/><path class="cls-9" d="M43.1,27.8c5.3-.9,10.8-.2,11.2-.9"/><path class="cls-9" d="M35.6,32.3c-1,2.3-1.8,5.9-.9,7.3,1,1.4,3.7,2,7,1.4"/><path class="cls-9" d="M59.8,30.8c0,0,0-.2,0-.3.3-1.5,1.3-2.2,2.5-2.2.4,0,.8,0,1.2.3,2.7,1.1.8,6.2,0,8.3-.8,2.5-2.6,3.1-3.6,2.4"/><path class="cls-9" d="M59.8,31.6c0-.2,0-.3,0-.5,0,0,0-.2,0-.2"/><path class="cls-9" d="M59,24.7c.9,3.5,1,5.2.9,5.8,0,.1,0,.2,0,.3,0,0,0,0,0,0,0,0,0,0,0,0"/><path class="cls-9" d="M21.9,31c0-1.1-.2-1.7-.2-2.4,0-.9,0-1.7.2-3.4"/><path class="cls-9" d="M24.6,28.5c-.3-2,3.6-4,6.3-4,2.6,0,5.5.8,4.4,3.7"/><path class="cls-9" d="M43.1,27.8c-.3-.1-1.5-3.2.8-3.9,2.1-.6,10.4.7,10.4,3"/><path class="cls-9" d="M34.5,46c4.6,1,5.6,1.3,10.4-.5"/><path class="cls-9" d="M30.7,31.8c0,1-.4,1.9-.8,1.9s-.8-.8-.8-1.9.4-1.9.8-1.9.8.8.8,1.9Z"/><path class="cls-9" d="M48.9,31.7c0,1-.4,1.9-.9,1.9s-.9-.8-.9-1.9.4-1.9.9-1.9.9.8.9,1.9Z"/><path class="cls-9" d="M63.2,24.8c0,1-.5,2.3-.8,3.6h0"/><path class="cls-9" d="M21,28.6c-.4-1.7-.2-1.7-.1-3.4,0-.1,0-.2,0-.4"/><path class="cls-9" d="M21.6,28.6c-.2,0-.4,0-.5,0-.2,0-.4.2-.5.3-.3.3-.4.7-.5,1.1-.7,2.8-.4,6.8,2.5,8.6"/><path class="cls-9" d="M22.6,38.7c.9,2.9,6.6,10.6,7.3,10.5.3-1.6.7-4.3,1-5.9,2.1-.5,5.3-1.6,7.2-1.7,2.7,0,7.1.8,9.8,1.2.6,2.7.4,4.1.8,6.6,5.1-1.9,11.1-12,11.1-17.7,0-.2,0-.5,0-.7,0,0,0-.1,0-.2,0,0,0,0,0,0"/><path class="cls-9" d="M46.5,49.2c-.5,1.3-1.9,2-3.2,2.4-1.3.4-6.7.4-8,0-1-.3-2.1-.8-2.7-1.7-.7-1-.8-4.8-.4-5.2.5-.6,5-2.1,5.9-1.9,1.1.1,7.5.9,8.2,1.3.6.4.5,4.1.1,5.1Z"/><path class="cls-8" d="M39.4,63.5h0c-.5,6.4-.9,12.7-.2,19.1"/><path class="cls-9" d="M52.5,59.1c-3.1,3.3-6,4-10.5,4.4-.9,0-1.8.1-2.6,0-3.2,0-5.9-.8-8.7-3.1"/><path class="cls-8" d="M20.9,25.2c-.2,0-.5-.2-.7-.4-.8-.6-.8-1.8-.7-2.8.5-5.9.6-9.3,3.1-12.8,2.5-3.6,8.7-7.4,12.9-8.3,9.5-2,22.7.7,26.9,10.2,1.7,3.9,1.5,6.9,1.5,11.1,0,.9,0,1.9-.7,2.6-1.1,1.1-2.9.5-4.3,0-11.1-4.6-24-4.7-35.2,0-.6.2-1.3.5-1.9.6-.4,0-.7,0-1,0Z"/><path class="cls-8" d="M63.9,22.2c4.4,1.5,4.4,5.4,4.4,8.8,0,3.4-2.3,5.7-4.7,6"/><path class="cls-8" d="M59.8,38.5c0,.3.1.6.2.9,2.1,9.3-.4,12.9,3.9,21.9"/></svg>