<?xml version="1.0" encoding="UTF-8"?><svg id="Asia" xmlns="http://www.w3.org/2000/svg" width="72.8" height="196.6" viewBox="0 0 72.8 196.6"><defs><style>.cls-1{fill:#010101;}.cls-1,.cls-2,.cls-3,.cls-4,.cls-5,.cls-6,.cls-7,.cls-8{stroke-width:0px;}.cls-2{fill:#2e2e2e;}.cls-9{stroke-linecap:round;stroke-linejoin:round;}.cls-9,.cls-10{fill:none;stroke:#000;stroke-width:.6px;}.cls-3{fill:#8ea3d3;}.cls-10{stroke-miterlimit:10;}.cls-4{fill:#bdcae8;}.cls-5{fill:#ebebeb;}.cls-6{fill:#fff;}.cls-7{fill:#424242;}.cls-8{fill:#7d584d;}</style></defs><path class="cls-4" d="M58.3,143.9c-2.6,1.1-7.1,2.3-13.6,3-3,.3-6.3.5-10.1.5s-3.4,0-4.8,0c-7.8,0-9.9-.3-14.2-1.7-.8-.3-1.7-.6-2.8-1,0-4.9,4.1-26,4.8-30.5,1.8,0,8.6,2.4,9.5,2,.9-.4,3.2-4.6,3.6-4.6,0,0,2.4,3.9,4.2,4.4,1.9.6,4.2.2,6.1,0,4.3-.4,8.6-1.4,12.3-3.7h0c1,6,7,30.5,7,30.5-.3.3-1.1.8-2.3,1.3Z"/><path class="cls-4" d="M53.1,55.4c-.4.2-.8.4-1.2.6-1.4.5-2.9.8-4.4.8.6,1.1,1.2,2.1,1.8,3.2-5.4,1.6-10.8,3.3-16.2,4.9,0,0,0-.2,0-.3,0,0,10.5-8.9,10.3-11-.1-1.6,0-1.6,0-3.4h.1c4.3,2.2,6.2,2.5,9.6,5.2Z"/><path class="cls-4" d="M51.1,8.6c.5.9.9,2.2.7,3.2,0,.1,0,.2-.1.3-.3-.5-.6-1-.6-1.4l-3.1-3.9c-.4-.1-.7-.2-1-.4.2-.1.5-.1.8,0,.9.2,1.7.6,2.3,1.1.4.3.7.7,1,1.2Z"/><path class="cls-4" d="M51.7,12c-.4.6-1.2.7-2,.7-.5-1.9-1.4-3.6-3.4-4.5.5-.4,0-1.5.6-1.9,0,0,0,0,0,0,.3.1.7.3,1,.4l3.1,3.9c0,.3.3.9.6,1.4Z"/><path class="cls-1" d="M42.2,27.6c.8,0,1.4,1.3,1.4,2.9s-.6,2.9-1.4,2.9-1.4-1.3-1.4-2.9.6-2.9,1.4-2.9Z"/><path class="cls-6" d="M41.2,42.2c-1.7,2.6-1.6,2-3,2.9-1.4,1-3.7,1.6-5.2,1.3-2.3-.3-3.4-1.4-4.4-3.3,3.9,1.8,11.8-.1,12.6-1Z"/><circle class="cls-5" cx="35.5" cy="69.2" r="1.9"/><path class="cls-5" d="M34.6,82.8c1,0,1.9.8,1.9,1.9s-.8,1.9-1.9,1.9-1.9-.8-1.9-1.9.8-1.9,1.9-1.9Z"/><path class="cls-5" d="M34.2,99.7c1,0,1.9.8,1.9,1.9s-.8,1.9-1.9,1.9-1.9-.8-1.9-1.9.8-1.9,1.9-1.9Z"/><path class="cls-4" d="M33.1,64.5c0,0,0,.2,0,.3,0,0-.2,0-.2,0-.2,0-6.4-4-10-5.7,1-.8,2.3-2.1,3.3-2.9-1.6-.4-3.6,0-5.4,0-.6,0-1.1,0-1.6-.2,2.7-1.6,7.6-4.9,10.8-5.1l.4-.4c.2.2.4.3.6.5l-.5.3c-1,6.6,2.7,13.2,2.7,13.2Z"/><path class="cls-1" d="M26.1,27.7c.7,0,1.2,1.1,1.2,2.6s-.5,2.6-1.2,2.6-1.2-1.1-1.2-2.6.5-2.6,1.2-2.6Z"/><path class="cls-3" d="M62.1,66.2c-1.3-2.4-1.9-5.4-4.1-7.1-.5-.4-6-2.9-6.2-3.1-1.4.5-2.9.8-4.4.8.6,1.1,1.2,2.1,1.8,3.2-5.4,1.6-10.8,3.3-16.2,4.9,0,0-.2,0-.2,0-.2,0-6.4-4-10-5.7,1-.8,2.3-2.1,3.3-2.9-1.6-.4-3.6,0-5.4,0-.6.6-5.4,3.5-6.4,5.3-2,3.6-2.9,10.2-4.6,15.5.5.6.9,1.2,1.2,1.7,1.8,2.4,2.8,3,7.4,3.2.2,0,.4,0,.6,0h0c0,.7,0,1.5,0,2.2,0,2.3,0,5.4-.2,8.8,0,2.6-.2,5.4-.3,8.2-.2,5-.5,9.7-.9,13,1.8,0,8.6,2.4,9.5,2,.9-.4,3.2-4.6,3.6-4.6,0,0,2.4,3.9,4.2,4.4,1.9.6,4.2.2,6.1,0,4.3-.4,8.6-1.4,12.3-3.7.3-.2.7-.4,1-.7,0-.4-.6-4.6-1.1-8.5-.4-3.3-.8-6.3-.8-6.7,0,0,0,0,0,0-.2-3-.4-4-.7-7.5-.2-2.5.1-5,.3-7.4,0-.9.1-1.8.1-1.8h0c.5,1.4,1,2.6,1.5,3.6,1.4,0,2.4-.1,3.5-.3,1.2-.2,2.3-.5,3.6-1.2,1.1-.5,2.7-1.9,3.9-3.3.9-1.1,1.7-2.2,1.9-3.2,0,0-3.6-7.2-4.5-9ZM34.2,103.4c-1,0-1.9-.8-1.9-1.9s.8-1.9,1.9-1.9,1.9.8,1.9,1.9-.8,1.9-1.9,1.9ZM34.6,86.5c-1,0-1.9-.8-1.9-1.9s.8-1.9,1.9-1.9,1.9.8,1.9,1.9-.8,1.9-1.9,1.9ZM35.5,71c-1,0-1.9-.8-1.9-1.9s.8-1.9,1.9-1.9,1.9.8,1.9,1.9-.8,1.9-1.9,1.9Z"/><path class="cls-4" d="M24.5,6.8c.9,0,1.2.8,1.4,1.5-1.7.8-3,2-3.5,3.8-.5-.3-1.3.3-1.8,0,.8-1.9,1.8-3.5,3-4.7.2,0,.5-.3.8-.5,0,0,0,0,.1,0Z"/><path class="cls-2" d="M58.2,7.1c1-.4,1.5-1.6,1.1-2.6-.4-.9-1.7-1.4-2.7-1,0-.7.7-1.9-1-2.6-2.1-.7-2.5.5-3.3,1.5-1-2.1-3.5-1.4-2.9.9-.6-.3-1.2-.6-1.9-.5-.7,0-1.4.3-1.7.9-.2.4-.2.8-.2,1.1-3.6-1.4-7.7-1.7-12.1-.6,0,0-.1,0-.2,0,0,0-4.7-.1-7,1.1-.4.2-.7.4-1,.6.4-.7.3-1.4-1.4-1.5.2-.6.7-1.6.2-2-.4-.5-1.8-.4-2.5-.2,0-.8-.7-1.9-1.5-1.7-.8.1-1.4.9-1.6,1.6-.6-.8-1.9-1-2.7-.4-.8.6-1,1.8-.4,2.6-.7,0-1.9-.2-2.3,1.5-.3,2,1.1,2.1,2.2,2.5-1.8,1.3-.6,3.3,1.5,2.4-.2.6-.3,1.2,0,1.8s.6,1.2,1.3,1.2c1.6.2,2.1-.7,2.3-1.8,0-.1,0-.2,0-.3,0-1.2.5-2.5,1.4-3.3.6-.5,1.5-1.1,2.3-1.2.1,0,.2,0,.4,0,0,0,0,0,.1,0,.9,0,1.2.8,1.4,1.5-1.7.8-3,2-3.5,3.8-.5-.3-1.3.3-1.8,0-2,4.5-2.7,10.4-1.3,15.9,0,0,.2,0,.2,0h.9c0-.2,0-.5-.1-.7h0c0-.2,0,0,0-.3,0-.5,0-.9,0-1.5,0-7.3,6.6-13.8,11.8-14.4.2,0,.3,0,.5,0,3.3-.4,21.1,5.2,20.4,16.9,1.1-.2,1.8-.1,2.4.2h0c1.3-7.1,1.2-11.9-1.3-16.1,0-.1.1-.3.2-.4.6.4,1.6,1,2.2.7.6-.3.9-1.7.9-2.4.9.2,2.2-.2,2.3-1,0-.8-.6-1.6-1.4-2ZM49.7,12.7c-.5-1.9-1.4-3.6-3.4-4.5.5-.4,0-1.5.6-1.9,0,0,0,0,0,0,.2-.1.5-.1.8,0,.9.2,1.7.6,2.3,1.1.4.3.7.7,1,1.2.5.9.9,2.2.7,3.2,0,.1,0,.2-.1.3-.4.6-1.2.7-2,.7Z"/><path class="cls-2" d="M44.3,21.2c-1.3-.3-5.5-.4-4.9,1.6.1.4.6.8,1.1.9s1.8-.3,2.3-.3c1.4,0,2.4.1,3.9.3.5,0,.7-.3.5-.7-.3-.7-1.3-1.4-2.9-1.8Z"/><path class="cls-2" d="M28.2,21.5c-1.5-.7-3.3,0-4.4,1.1-.2.1-.3.3-.4.5,0,.2,0,.4,0,.6.2.2.4.2.7.2.2,0,3.5.3,4,.3.7,0,1.2-.6,1.2-1.3,0-.6-.5-1.2-1.1-1.4Z"/><path class="cls-4" d="M24.1,6.8c.1,0,.2,0,.4,0-.3.2-.6.4-.8.5.2-.2.3-.3.5-.5Z"/><path class="cls-4" d="M24.1,6.8c-.2.1-.3.3-.5.5,0,0,0,0,0,0l-3.1,3.5c0,.3,0,.6,0,.8,0-.1,0-.2,0-.3,0-1.2.5-2.5,1.4-3.3.6-.5,1.5-1.1,2.3-1.2Z"/><path class="cls-4" d="M23.6,7.3s0,0,0,0c-1.2,1.3-2.2,2.9-3,4.7,0,0,0,0,0,0-.1,0-.2-.2-.2-.3,0-.3,0-.6,0-.8l3.1-3.5Z"/><path class="cls-7" d="M72.4,188.8c-.5-2-3.9-4.1-5.8-5-.7-.3-1.4-.6-2-.9-.5-.3-.9-.6-1.2-1-.4-.6.3-2.7,0-3.4-.4-.9-1.2-1.6-2.2-1.9-.5-.2-1-.2-1.5-.3-1.6,0-6.4,1.5-5,7.6-.6.4-1.2.9-1.7,1.9-.8,1.4-1.6,8.2-.4,9.3.9.9,3.6.7,4.9.7,3.7,0,7.5,0,11.2,0,1.2,0,2.5-.1,3.3-1,.7-.8.7-5,.5-6Z"/><path class="cls-7" d="M18.6,184.2h.8c.4-2,.2-4.1-1.2-5.6-.9-1-3.1-1.7-5-1.6-.8,0-1.6.2-2.1.7-1.2,1.1-1.2,3.1-1.3,4.7,0,.3,0,.6.1.8-2.7.7-7.8,2.7-9,5.2-.5,1-1,7,0,7.4.3.1,2.3.6,2.6.6,3.5.2,15.9-.2,16.9-.8,1.4-.9,1-7.3.3-8.7-.6-1.2-1.1-2-2.1-2.5Z"/><path class="cls-8" d="M69.5,87.9c-.4-1.9-3.3-6.8-4.8-9.6-1.2,1.5-2.8,2.8-3.9,3.3-1.4.7-2.5,1-3.6,1.2.7,1.2,2.1,4.5,2.5,5.2-1.3,1.4-2.1,3.2-4,5-1.9,1.9-3,2.9-3.2,3.2,0,0,0,0,0,0,0,.3.4,3.4.8,6.7h0c2.5-2,5.9-4,8.5-5.6,3.5-2.2,8.5-5.2,7.7-9.3Z"/><path class="cls-8" d="M44.7,146.9c1,6.2,4,15.4,5.3,20.2.9,3.3,2.5,8.9,3,18.7.6-.9,1.1-1.5,1.7-1.9-1.3-6.1,3.4-7.6,5-7.6.5,0,1,0,1.5.3v-.3c-1.6-9.6-.2-21.7-2.9-32.5-2.6,1.1-7.1,2.3-13.6,3Z"/><path class="cls-8" d="M43.4,50.1c0-.3,0-.6,0-1,1.7-1.3,3.6-2.9,5.6-5h0c1.9-2.4,2.3-3.4,3-5.8h0c2-.5,3.2-2.3,3.9-4.7.6-1.9,1-4.6-.7-5.4-.6-.3-1.3-.3-2.4-.2.7-11.7-17.2-17.3-20.4-16.9-.2,0-.3,0-.5,0-5.2.7-11.8,7.1-11.8,14.4,0,.9,0,1.3,0,1.5,0,0,0,.2,0,.3h0c0,.2,0,.5.1.7h-.9c0,0-.2-.1-.2-.1-.4,0-.8.1-1,.4-.3.4-.4.9-.4,1.4-.2,2,0,4,.8,5.8.2.6.5,1.1.9,1.5.4.4,1,.7,1.6.7h.4c.7,2.4,1.8,5,4,7.3,1.6,1.7,3,3.9,4.8,5.5.2.2.4.3.6.5l-.5.3c-1,6.6,2.7,13.2,2.7,13.2,0,0,10.5-8.9,10.3-11-.1-1.6,0-1.6,0-3.4ZM42.2,33.3c-.8,0-1.4-1.3-1.4-2.9s.6-2.9,1.4-2.9,1.4,1.3,1.4,2.9-.6,2.9-1.4,2.9ZM44.3,21.2c1.6.4,2.6,1.2,2.9,1.8.2.4,0,.7-.5.7-1.5-.2-2.5-.3-3.9-.3-.5,0-1.8.3-2.3.3s-1-.4-1.1-.9c-.6-2,3.6-1.9,4.9-1.6ZM26.1,32.8c-.7,0-1.2-1.1-1.2-2.6s.5-2.6,1.2-2.6,1.2,1.1,1.2,2.6-.5,2.6-1.2,2.6ZM24.1,23.9c-.2,0-.5,0-.7-.2-.1-.2-.2-.4,0-.6,0-.2.2-.4.4-.5,1.1-1,2.9-1.8,4.4-1.1.6.3,1.1.8,1.1,1.4,0,.6-.5,1.2-1.2,1.3-.5,0-3.8-.3-4-.3ZM28.6,43.1c3.9,1.8,11.8-.1,12.6-1-1.7,2.6-1.6,2-3,2.9-1.4,1-3.7,1.6-5.2,1.3-2.3-.3-3.4-1.4-4.4-3.3Z"/><path class="cls-8" d="M14,164.7c0,2.2-.2,9.8-.8,12.2,1.8,0,4,.6,5,1.6,1.3,1.5,1.6,3.7,1.2,5.6h-.8c1,.5,1.5,1.4,2.1,2.6.7-8.2,9.3-33.4,9.1-39.3h0c-7.8,0-9.9-.3-14.2-1.7-1.6,8.2-1.6,17-1.6,19.1Z"/><path class="cls-8" d="M18.5,101.1c.1-2.7.2-5.5.3-8.2h0c-1.2-1.4-1.7-2.1-2.5-2.8h.3c.2.2,1.2-6,1.7-8v-.2c-4.6-.2-5.6-.7-7.4-3.2-.7,2.8-2.5,8.9-2.8,9.8-1.7,4.6,5.7,9.7,10.2,12.6h.1Z"/><path class="cls-9" d="M20.3,27.3c0,.2,0,.5.1.7,0,.4.2.9.4,1.6,0,0-.4,3.7.7,7.9.7,2.5,1.8,5.1,4,7.4,1.6,1.7,3,3.9,4.8,5.5.2.2.4.3.6.5,2.8,2.1,6.4,2.7,12.5-1.8,1.7-1.3,3.6-2.9,5.6-5"/><path class="cls-9" d="M20.3,25.6c0,.5,0,1,0,1.5,0,0,0,.2,0,.3"/><path class="cls-9" d="M27.3,30.2c0,1.4-.5,2.6-1.2,2.6s-1.2-1.1-1.2-2.6.5-2.6,1.2-2.6,1.2,1.1,1.2,2.6Z"/><path class="cls-9" d="M43.6,30.4c0,1.6-.6,2.9-1.4,2.9s-1.4-1.3-1.4-2.9.6-2.9,1.4-2.9,1.4,1.3,1.4,2.9Z"/><path class="cls-9" d="M29.3,37.1c.4,3.6,3.6,2.6,6.2,2.6"/><path class="cls-9" d="M28.6,43.1c3.9,1.8,11.8-.1,12.6-1-1.7,2.6-1.6,2-3,2.9-1.4,1-3.7,1.6-5.2,1.3-2.3-.3-3.4-1.4-4.4-3.3Z"/><path class="cls-9" d="M52.5,36.4c-.2.7-.4,1.4-.5,1.9-.7,2.4-1.1,3.3-3,5.8,0,.1-.2.2-.3.3"/><path class="cls-9" d="M53,28.1c1.1-.2,1.8-.1,2.4.2,1.7.8,1.3,3.5.7,5.4-.7,2.4-2,4.3-3.9,4.7"/><path class="cls-9" d="M39.4,22.8c.1.4.6.8,1.1.9s1.8-.3,2.3-.3c1.4,0,2.4.1,3.9.3.5,0,.7-.3.5-.7-.3-.7-1.3-1.4-2.9-1.8-1.3-.3-5.5-.4-4.9,1.6Z"/><path class="cls-9" d="M28.2,21.5c.6.3,1.1.8,1.1,1.4,0,.6-.5,1.2-1.2,1.3-.5,0-3.8-.3-4-.3s-.5,0-.7-.2c-.1-.2-.2-.4,0-.6,0-.2.2-.4.4-.5,1.1-1,2.9-1.8,4.4-1.1Z"/><path class="cls-9" d="M20.1,28.1c0,0-.7-.1-.8-.2-.4,0-.8.1-1,.4-.3.4-.4.9-.4,1.4-.2,2,0,4,.8,5.8.2.6.5,1.1.9,1.5.4.4,1,.7,1.6.7"/><path class="cls-9" d="M30.4,51.3c-1,6.6,2.7,13.2,2.7,13.2,0,0,10.5-8.9,10.3-11"/><path class="cls-9" d="M20.7,56.2c-.6.6-5.4,3.5-6.4,5.3-2,3.6-2.9,10.2-4.6,15.5.5.6.9,1.2,1.2,1.7,1.8,2.4,2.8,3,7.4,3.2.2,0,.4,0,.6,0"/><path class="cls-9" d="M51.8,55.9c.3.2,5.7,2.7,6.2,3.1,2.1,1.7,2.7,4.8,4.1,7.1,1,1.7,4.5,9,4.5,9-.2,1-1,2.1-1.9,3.2-1.2,1.5-2.8,2.8-3.9,3.3-1.4.7-2.5,1-3.6,1.2-1,.2-2.1.2-3.5.3-.5-1-1-2.3-1.5-3.6-1.2-3.3-2.4-7.3-3.1-9.6"/><path class="cls-9" d="M19.2,67.3c-.1,5.1-.2,9.4-.2,14.6,0,.7,0,1.5,0,2.2,0,2.3,0,5.4-.2,8.8,0,2.6-.2,5.4-.3,8.2-.2,5-.5,9.7-.9,13,1.8,0,8.6,2.4,9.5,2,.9-.4,3.2-4.6,3.6-4.6,0,0,2.4,3.9,4.2,4.4,1.9.6,4.2.2,6.1,0,4.3-.4,8.6-1.4,12.3-3.7.3-.2.7-.4,1-.7"/><path class="cls-9" d="M52.3,80c0-.3,0-.5,0-.5s0,.9-.1,1.8c-.2,2.4-.5,4.9-.3,7.4.2,3.5.4,4.5.7,7.5,0,0,0,0,0,0"/><path class="cls-9" d="M11,78.6s0,0,0,0c-.7,2.8-2.5,8.9-2.8,9.8-1.7,4.6,5.7,9.7,10.2,12.6"/><path class="cls-9" d="M18.4,82c-.5,2.1-1.5,8.2-1.7,8"/><path class="cls-9" d="M13.3,87.7c1.6,1.1,2.4,1.7,3.1,2.3.8.7,1.3,1.5,2.5,2.8"/><path class="cls-9" d="M57.2,82.8c.7,1.2,2.1,4.5,2.5,5.2"/><path class="cls-9" d="M64.8,78.3c1.4,2.8,4.4,7.7,4.8,9.6.8,4.1-4.1,7.1-7.7,9.3-2.6,1.6-6,3.7-8.5,5.6"/><path class="cls-9" d="M52.5,96.3s0,0,0,0c.2-.2,1.3-1.3,3.2-3.2,1.8-1.8,2.7-3.6,4-5,.7-.8,1.5-1.4,2.7-1.9"/><path class="cls-9" d="M43.4,53.5c-.1-1.6,0-1.6,0-3.4,0-.3,0-.6,0-1"/><path class="cls-9" d="M17.7,114.1c-.7,4.6-4.8,25.6-4.8,30.5"/><path class="cls-9" d="M12.9,144.6c1,.4,1.9.7,2.8,1,4.2,1.5,6.4,1.7,14.2,1.7,1.4,0,3,0,4.8,0,3.8,0,7.1-.2,10.1-.5,6.5-.7,11.1-1.9,13.6-3,1.2-.5,1.9-.9,2.3-1.3,0,0-6-24.5-7-30.3"/><path class="cls-9" d="M54.4,111.4c0-.4-.6-4.6-1.1-8.5-.4-3.3-.8-6.3-.8-6.7"/><path class="cls-9" d="M29.8,50.9c-3.2.2-8,3.4-10.8,5.1.5.1,1.1.2,1.6.2,1.8,0,3.8-.3,5.4,0-1,.8-2.3,2.1-3.3,2.9,3.5,1.6,9.8,5.7,10,5.7,0,0,.2,0,.2,0,5.4-1.6,10.8-3.3,16.2-4.9-.6-1.1-1.2-2.1-1.8-3.2,1.5,0,3-.3,4.4-.8.4-.2.8-.4,1.2-.6-3.3-2.7-5.3-3-9.6-5.2"/><path class="cls-9" d="M33.1,64.5c0,0,0,.2,0,.3-2.7,15.9-2.1,46.8-2.2,46.6"/><path class="cls-9" d="M19.9,98.5s-1.9,11.4,2.9,11.4c4.4,0,3.4-10.6,3.4-10.6-2.2,0-4.8-.8-6.3-.9Z"/><path class="cls-9" d="M38.1,99.3s-1,11.8,6.4,10.5c6.8-1.1,3.4-11.3,3.4-11.3-3.3.6-7.5.5-9.8.8Z"/><path class="cls-9" d="M36.9,73.3s-1,11.8,6.4,10.5c6.8-1.1,3.4-11.3,3.4-11.3-3.3.6-7.5.5-9.8.8Z"/><path class="cls-9" d="M22.5,71.5s-1.9,11.4,2.9,11.4c4.4,0,3.4-10.6,3.4-10.6-2.2,0-4.8-.8-6.3-.9Z"/><path class="cls-9" d="M20.3,25.6c0,.9,0,1.3,0,1.5,0,.2,0,0,0,.3h0c0,.2.2.6.4,1.6"/><path class="cls-9" d="M20.6,12.1c-2,4.5-2.7,10.4-1.3,15.9,0,0,0,.2,0,.3"/><path class="cls-9" d="M45.6,4.7c-3.6-1.4-7.7-1.7-12.1-.6,0,0-.1,0-.2,0,0,0-4.7-.1-7,1.1-.4.2-.7.4-1,.6"/><path class="cls-9" d="M55.4,28.1c1.3-7,1.2-11.7-1.3-16"/><path class="cls-9" d="M20.3,25.6c0-7.3,6.6-13.8,11.8-14.4.2,0,.3,0,.5,0,3.3-.4,21.1,5.2,20.4,16.9"/><path class="cls-9" d="M15.6,145.6s0,0,0,0c-1.6,8.2-1.6,17-1.6,19.1"/><path class="cls-9" d="M29.8,147.4c.2,6-8.4,31.2-9.1,39.3"/><path class="cls-9" d="M44.6,146.3c0,.2,0,.4,0,.5,1,6.2,4,15.4,5.3,20.2.9,3.3,2.5,8.9,3,18.7"/><path class="cls-9" d="M58.2,143.7s0,0,0,.1c2.7,10.7,1.3,22.8,3,32.5"/><path class="cls-9" d="M14,164.7c0,2.2-.2,9.8-.8,12.2,0,0,0,.2,0,.2"/><path class="cls-9" d="M59.7,176.3c.5,0,1,0,1.5.3,1,.3,1.8,1,2.2,1.9.3.6-.4,2.8,0,3.4.3.4.7.8,1.2,1,.6.3,1.4.6,2,.9,1.9.9,5.3,3.1,5.8,5,.3,1,.2,5.3-.5,6-.8.9-2.1,1-3.3,1-3.7,0-7.5,0-11.2,0-1.4,0-4,.2-4.9-.7-1.1-1.1-.4-8,.4-9.3.6-.9,1.1-1.5,1.7-1.9.8-.4,1.7-.6,2.9-1,1.9-.5,4.4-.9,7-.1.7.2,1.4.5,2,.9"/><path class="cls-9" d="M54.7,183.9c-1.3-6.1,3.4-7.6,5-7.6"/><path class="cls-9" d="M19.3,184.1c.4-1.9.2-4.1-1.2-5.6-.9-1-3.1-1.7-5-1.6-.8,0-1.6.2-2.1.7-1.2,1.1-1.2,3.1-1.3,4.7,0,.3,0,.6.1.8.3.5.9.5,1.4.5,1.7,0,4.8,0,6.4.3.3,0,.6.2.8.3,1,.5,1.5,1.3,2.1,2.5.7,1.5,1.1,7.9-.3,8.7-1,.6-13.4,1-16.9.8-.3,0-2.3-.5-2.6-.6-1-.5-.6-6.5,0-7.4,1.2-2.5,6.3-4.4,9-5.2"/><circle class="cls-10" cx="35.5" cy="69.2" r="1.9"/><path class="cls-10" d="M32.8,84.7c0,1,.8,1.9,1.9,1.9s1.9-.8,1.9-1.9-.8-1.9-1.9-1.9-1.9.8-1.9,1.9Z"/><path class="cls-10" d="M32.4,101.6c0,1,.8,1.9,1.9,1.9s1.9-.8,1.9-1.9-.8-1.9-1.9-1.9-1.9.8-1.9,1.9Z"/><path class="cls-10" d="M47,6.3c-.7-.3-1.3-.8-1.4-1.6,0-.3,0-.7.2-1.1.2-.6,1-.9,1.7-.9.7,0,1.3.2,1.9.5-.5-2.3,2-3,2.9-.9.8-1,1.3-2.3,3.3-1.5,1.7.8,1.1,1.9,1,2.6,1-.4,2.3.1,2.7,1,.4.9-.1,2.2-1.1,2.6.8.3,1.4,1.1,1.4,2s-1.4,1.3-2.3,1c0,.7-.3,2-.9,2.4s-1.6-.4-2.2-.7c0,.2-.1.3-.2.4-.7,1.5-1.8.8-2.4-.1"/><path class="cls-10" d="M51.7,12c0,0,0-.2.1-.3.3-1-.1-2.3-.7-3.2-.3-.4-.6-.8-1-1.2-.7-.6-1.5-.9-2.3-1.1-.3,0-.6,0-.8,0,0,0,0,0,0,0-.6.4,0,1.4-.6,1.9,1.9.9,2.9,2.6,3.4,4.5.8,0,1.6,0,2-.7Z"/><path class="cls-10" d="M20.4,11.7c-.2,1.1-.7,2-2.3,1.8-.6,0-1.1-.7-1.3-1.2s0-1.2,0-1.8c-2.1,1-3.3-1.1-1.5-2.4-1.1-.4-2.5-.6-2.2-2.5.4-1.6,1.6-1.4,2.3-1.5-.6-.8-.4-2,.4-2.6.8-.6,2.1-.4,2.7.4.2-.8.8-1.5,1.6-1.6.8-.1,1.5.9,1.5,1.7.6-.2,2-.2,2.5.2.4.5,0,1.5-.2,2,1.6.1,1.8.8,1.4,1.5-.2.3-.5.7-.8,1"/><path class="cls-10" d="M24.1,6.8c-.9.1-1.7.7-2.3,1.2-.9.9-1.4,2.1-1.4,3.3,0,.1,0,.2,0,.3,0,.1,0,.3.2.3,0,0,0,0,0,0,.5.4,1.3-.3,1.8,0,.5-1.8,1.8-3,3.5-3.8-.2-.8-.5-1.5-1.4-1.5,0,0,0,0-.1,0-.1,0-.2,0-.4,0Z"/><path class="cls-9" d="M32,11c-.5-2.4,0-4.9,1.4-7,0,0,0,0,0,0"/></svg>