<?xml version="1.0" encoding="UTF-8"?><svg id="Asia" xmlns="http://www.w3.org/2000/svg" width="107" height="161" viewBox="0 0 107 161"><defs><style>.cls-1{fill:#010101;}.cls-1,.cls-2,.cls-3,.cls-4,.cls-5,.cls-6{stroke-width:0px;}.cls-2{fill:#363844;}.cls-7{fill:none;}.cls-7,.cls-8,.cls-9{stroke:#000;stroke-linecap:round;stroke-linejoin:round;stroke-width:.6px;}.cls-8,.cls-4{fill:#f3f2f3;}.cls-3{fill:#35323a;}.cls-9,.cls-6{fill:#e7b59c;}.cls-5{fill:#ce6082;}</style></defs><path class="cls-5" d="M105,29.4c0,3.3-2.2,5.4-4.5,5.7.7-2.1,2.6-6.8,0-7.9-.4-.2-.8-.2-1.1-.3.3-1.2.9-2.4.8-3.4.6-.6.6-1.6.6-2.5,4.2,1.5,4.2,5.1,4.2,8.4Z"/><path class="cls-5" d="M100.7,77c.4-4.7.5-5.7.2-9-.2-2.6-4.9-12.4-6.7-14.1-.5-.9-1.5-5-1.8-6,0,0,1.8-4,4.5-11.3,0,.3.1.6.2.9,2.7,11,12.6,52.1,2,63.8h0c0-1.5.2-3.1.4-4.9.5-6.2.7-12.9,1.2-19.2Z"/><path class="cls-5" d="M100.8,21.1c0,.9,0,1.8-.6,2.5-1,1-2.7.5-4,0-10.5-4.4-22.8-4.4-33.4,0-.6.2-1.2.5-1.8.5-.6,0-1.2,0-1.6-.4-.7-.6-.7-1.7-.7-2.6,0-1,.1-1.9.2-2.8,1.4-3.8,2.7-7.4,3.2-8.7-.2,0-.5,0-.8-.1.1-.2.2-.4.4-.5,0-.1.2-.2.3-.4,4.6-3,11.7-2.6,15.7-4.6.4,0,1.8-1.1.9-3.5-.7,0-1.3,0-2.1.1,8.7-1,19.4,1.9,22.9,10.1,1.6,3.7,1.4,6.5,1.4,10.6Z"/><path class="cls-3" d="M100.1,23.5c0,.9-.5,2.1-.8,3.4-1.1,0-2.1.7-2.4,2.1,0-.6,0-2.2-.9-5.6,1.3.6,3,1.1,4,0Z"/><path class="cls-3" d="M96.9,30.1c0,5.3-5.8,15-10.6,16.8-.3-2.3-.2-3.7-.8-6.2-2.5-.4-6.7-1.2-9.3-1.1-1.9,0-4.9,1.1-6.9,1.6-.3,1.5-.7,4.1-1,5.6-.6.1-6.1-7.2-6.9-9.9,0,.4.2.9.3,1.4.9,3.3,1.7,7.6,4.4,11.5h0c4.4,2,9.3,4.2,14.1,6.2h0c4.6-.8,7.3-3.3,12-7.9,0,0,1.8-4,4.5-11.3,0,0,.3-4.2,0-6.4ZM84.2,46.7c-.5,1.2-1.8,1.9-3,2.3-1.2.4-6.4.4-7.6,0-1-.3-2-.7-2.5-1.6-.6-1-.8-4.5-.4-4.9.5-.6,4.8-2,5.6-1.9,1,.1,7.1.8,7.8,1.2.6.3.5,3.9.1,4.8Z"/><path class="cls-3" d="M91.7,25.5c-.3.6-5.6,0-10.6.8-.3,0-1.4-3.1.8-3.7,2-.5,9.8.7,9.8,2.8Z"/><path class="cls-1" d="M86.6,30.1c0,1-.4,1.8-.8,1.8-.5,0-.9-.8-.9-1.8,0-1,.4-1.8.9-1.8.5,0,.9.8.8,1.8Z"/><path class="cls-3" d="M69.4,23.1c2.5,0,5.2.8,4.2,3.5-2.1-.5-7.5-.4-10.1.4-.3-1.9,3.4-3.8,6-3.8Z"/><path class="cls-1" d="M69.2,30.1c0,1-.4,1.8-.8,1.8s-.8-.8-.8-1.8c0-1,.4-1.8.8-1.8s.8.8.8,1.8Z"/><path class="cls-4" d="M100.9,67.9c-.2-2.5-4.9-12.4-6.7-14.1-3.1,3.8-7.3,3.2-9.3,3.8h0c2.2.9,4.3,1.8,6.3,2.6h0c11.5,5.9,5.5,19.1.9,20.4-5.1,1.9-18.5-5.1-29-11.6-6.3-3.9-11.5-7.5-13.2-8.8-3.8-3-7.5-7.1-11.3-11.2-2.6-2.9-1.8-7.2.4-13.5l-.4-.2c-2.2-4.4-3.2-6-5.5-10.8-1.7-3.6-6.2-15.3-6.8-17.4-2.8.4-7.7.9-10.9,1.2-.6,0-1,0-1.5.1,2.7,13.1,14,33.9,17.4,41.2,1.9,4.2,11.4,12.7,30.8,26.5h.1c-.8,6.5-1.9,15.2-1.9,16.7-4.8-10.3-10.1-21.9-11.2-23.7-3.1-2.8-6.8-3-11.9-2.7-3.2.2-8.5,3.5-10,7.5-1.1,2.9-2.7,9.7-3.7,14.3h0c.3.9-.9,4.9-1.2,6.7-.4,2.6-1,5.3-1.2,7.9-.5,5.3-.8,12.2-.8,17.7,0,8.6-.6,18.4,0,26.8.3,0,.5,0,.8,0,1.7.2,3.8.7,6.1,1.4h0c5.2,1.5,11.4,3.6,16.5,4.7,2.4.5,4.5.8,6.2.6,6,8.1,23.9,6.9,30.1,6.5,4.7-.3,8.8-2,12-6.1,3.3-4.2,5-7.7,5.7-12.3.1-1.3,1-17.4,1-18.7,0-11.1-.4-13.7,0-22.3,0-1.5.2-3.1.4-4.9.5-6.2.7-12.9,1.2-19.2.4-4.7.5-5.7.2-9Z"/><path class="cls-3" d="M60.9,23.9h0c-.2,1.6-.2,2.4-.2,3.2h-.1c-.2,0-.3,0-.5,0h0c-.4-1.7-.8-1.6-.8-3.6.5.4,1,.5,1.6.4Z"/><path class="cls-6" d="M100.5,27.1c-.4-.2-.8-.2-1.1-.3-1.1,0-2.1.7-2.4,2.1,0-.6,0-2.2-.9-5.6-10.5-4.4-22.8-4.4-33.4,0-.6.2-1.2.5-1.8.5h0c-.2,1.6-.2,2.4-.2,3.2h-.1c-.2,0-.3,0-.5,0-.2,0-.4.2-.5.3-.2.3-.4.6-.5,1-.7,2.6-.4,6.4,2.4,8.2h0c.8,2.7,6.3,10.1,6.9,9.9.3-1.5.7-4.1,1-5.6,2-.5,5-1.6,6.9-1.6,2.6,0,6.7.8,9.3,1.2.6,2.5.4,3.9.7,6.2,4.8-1.8,10.5-11.5,10.6-16.8.2,2.2,0,6.4,0,6.4,0,.3.1.6.2.9h0c.9.6,2.6,0,3.4-2.3.7-2.1,2.6-6.8,0-7.9ZM68.5,31.9c-.4,0-.8-.8-.8-1.8,0-1,.4-1.8.8-1.8.4,0,.8.8.8,1.8,0,1-.4,1.8-.8,1.8ZM73.6,26.6c-2.1-.5-7.5-.4-10.1.4-.3-1.9,3.4-3.8,6-3.8,2.5,0,5.2.8,4.2,3.5ZM85.7,31.8c-.5,0-.9-.8-.9-1.8,0-1,.4-1.8.9-1.8.5,0,.9.8.8,1.8,0,1-.4,1.8-.8,1.8ZM81.1,26.3c-.3,0-1.4-3.1.8-3.7,2-.5,9.8.7,9.8,2.8-.3.6-5.6,0-10.6.8ZM96.9,29.5c0,0,0-.1,0-.2,0,0,0,0,0,0,0,0,0,.2,0,.2Z"/><path class="cls-6" d="M80.3,55.7h0c1.5.7,3.1,1.3,4.5,1.9h0c2.1-.6,6.2,0,9.3-3.8-.5-1-1.5-5-1.8-6-4.8,4.6-7.4,7.1-12,7.8Z"/><path class="cls-6" d="M84.2,46.7c.3-.9.4-4.5-.1-4.8-.7-.4-6.8-1.1-7.8-1.2-.8-.1-5.1,1.3-5.6,1.8-.4.4-.2,4,.4,4.9.6.8,1.5,1.3,2.5,1.6,1.3.4,6.4.3,7.6,0,1.3-.4,2.6-1.1,3-2.3Z"/><path class="cls-6" d="M32.7.4c-4.9,0-15.6-1.1-17.8,2.3-.7,1.1-.1,2.3.5,5.4,3.2-.2,8.1-.8,10.9-1.2l6.2-1.3c2.3-.5,7.8-.8,8.2-4.1.2-1.1-6.1-1.2-8-1.2Z"/><path class="cls-2" d="M43.8,157.8c.5-1.2.5-2.1.1-4.4h0c-5.1-1.1-11.3-3.2-16.5-4.7h0c-2.3-.6-4.4-1.1-6.1-1.4-2.3.7-5.8,1.4-9.5,1.9-7.9,1.5-8.6,5.1-8.6,8.8h-.3c-.3.8-.2,1.5.3,2.2,0,0,23.6.2,28.9.2,4.8,0,8.2.5,11.6-.2.4.1,0-2.5,0-2.5h0Z"/><path class="cls-7" d="M82.4,137.9c-2-2.8-11.3-23.7-14.4-28.8"/><path class="cls-7" d="M94.2,53.8c1.8,1.8,6.5,11.6,6.7,14.1.3,3.3.2,4.3-.2,9-.5,6.3-.7,13-1.2,19.2-.2,1.9-.3,3.5-.4,4.9-.5,8.5,0,11.2,0,22.3,0,1.3-.9,17.4-1,18.7"/><path class="cls-7" d="M27.4,148.6c5.2,1.5,11.4,3.6,16.5,4.7,2.4.5,4.5.8,6.2.6.6-6.5-9.9-46.9-8.8-48.9"/><path class="cls-7" d="M23.7,88.1c.3.9-.9,4.9-1.2,6.7-.4,2.6-1,5.3-1.2,7.9-.5,5.3-.8,12.3-.8,17.7,0,8.6-.6,18.4,0,26.8.3,0,.6,0,.8,0,1.7.2,3.8.7,6.1,1.4"/><path class="cls-7" d="M97.9,142.1c-.8,4.6-2.4,8.1-5.7,12.3-3.2,4-7.3,5.8-12,6.1-6.2.4-24.2,1.5-30.1-6.5"/><line class="cls-7" x1="12" y1="151.5" x2="12.1" y2="151.5"/><path class="cls-7" d="M43.9,153.3c.4,2.3.4,3.2-.1,4.4"/><path class="cls-7" d="M43.5,157.8c-.6,0-6.9-.2-12.8.1-6.4.3-11.7.6-17.6.5-3,0-6.1-.1-9.6-.4"/><path class="cls-7" d="M27.4,148.6h0c-1.8,1-9.6,1.9-15,2.8-.1,0-.2,0-.3,0"/><path class="cls-7" d="M3.2,158.4c0-.1,0-.2,0-.4s0,0,0,0c0-3.7.7-7.3,8.6-8.8,0,0,.3.9.6,2.3.4,1.9.9,4.7.7,6.9,0,0,0,0,0,.1"/><path class="cls-7" d="M21.3,147.3s0,0,0,0c-2.3.7-5.8,1.4-9.5,1.9"/><path class="cls-7" d="M3.3,160.2c0,0,23.6.2,28.9.2,4.8,0,8.2.5,11.6-.2.4.1,0-2.5,0-2.5"/><path class="cls-7" d="M2.9,158c-.3.8-.2,1.5.3,2.2"/><path class="cls-7" d="M84.9,57.6c2.1-.6,6.2,0,9.3-3.8"/><path class="cls-7" d="M63,69c0,.8-.3,3.6-.7,7-.8,6.5-1.9,15.2-1.9,16.7"/><path class="cls-7" d="M49.2,69c1.1,1.8,6.5,13.4,11.3,23.7,3.5,7.6,6.6,14.4,7.6,16.3"/><path class="cls-7" d="M27.4,73.9c-1.1,2.9-2.7,9.6-3.7,14.3-.5,2.2-.8,3.9-.9,4.5"/><path class="cls-7" d="M27.4,73.9c1.5-4,6.8-7.3,10-7.5,5.1-.4,8.7,0,11.9,2.7"/><path class="cls-7" d="M91.7,60.4c-.2,0-.4-.1-.5-.2"/><path class="cls-7" d="M60.7,9.2s0,0,0,0"/><path class="cls-7" d="M15.5,8.1c-.6-3.1-1.2-4.3-.5-5.4C17.2-.6,27.8.4,32.7.4s8.2,0,8,1.2c-.5,3.3-5.9,3.6-8.2,4.1l-6.2,1.3c.6,2.1,5.1,13.9,6.8,17.4,2.3,4.8,3.2,6.4,5.5,10.8"/><path class="cls-7" d="M62.2,76c-19.4-13.8-28.9-22.3-30.8-26.5-3.4-7.4-14.6-28.1-17.4-41.2"/><path class="cls-7" d="M26.3,7c-2.8.4-7.7.9-10.9,1.2h0c-.5,0-1,0-1.5.1"/><path class="cls-7" d="M94.2,53.8c-.5-.9-1.5-5-1.8-6"/><path class="cls-7" d="M96.9,30.1c.2,2.2,0,6.4,0,6.4-2.7,7.3-4.5,11.3-4.5,11.3-4.8,4.6-7.4,7.1-12.1,7.9"/><path class="cls-7" d="M61.6,36.7c0,.4.2.9.3,1.4.9,3.3,1.7,7.6,4.4,11.5"/><path class="cls-7" d="M60.9,29.4c.1,1.7,0,4.4.6,7.3"/><path class="cls-7" d="M63.5,27c2.6-.7,8-.8,10.1-.4"/><path class="cls-7" d="M81.1,26.3c5-.8,10.2-.2,10.6-.8"/><path class="cls-7" d="M73.9,30.6c-1,2.2-1.7,5.6-.8,6.9.9,1.3,3.5,1.9,6.7,1.3"/><path class="cls-7" d="M97,29c.3-1.4,1.2-2.1,2.4-2.1.4,0,.7,0,1.1.3,2.6,1.1.7,5.9,0,7.9-.8,2.3-2.5,2.9-3.4,2.3"/><path class="cls-7" d="M96.9,29.2c0,0,0-.1,0-.2"/><path class="cls-7" d="M96.9,29.9c0-.2,0-.3,0-.5,0,0,0-.2,0-.2"/><path class="cls-7" d="M96.1,23.4c.9,3.4.9,5,.9,5.6h0c0,0,0,.1,0,.2h0c0,0,0,0,0,0"/><path class="cls-7" d="M60.9,29.4c0-1-.1-1.6-.2-2.3,0-.8,0-1.6.2-3.2"/><path class="cls-7" d="M63.5,27c-.3-1.9,3.4-3.8,6-3.8,2.5,0,5.2.8,4.2,3.5"/><path class="cls-7" d="M81.1,26.3c-.3,0-1.4-3.1.8-3.7,2-.5,9.8.7,9.8,2.8"/><path class="cls-7" d="M72.9,43.7c4.3,1,5.3,1.3,9.9-.5"/><path class="cls-7" d="M69.2,30.1c0,1-.4,1.8-.8,1.8s-.8-.8-.8-1.8c0-1,.4-1.8.8-1.8s.8.8.8,1.8Z"/><path class="cls-7" d="M86.6,30.1c0,1-.4,1.8-.8,1.8-.5,0-.9-.8-.9-1.8,0-1,.4-1.8.9-1.8.5,0,.9.8.8,1.8Z"/><path class="cls-7" d="M100.1,23.5c0,.9-.5,2.1-.8,3.4h0"/><path class="cls-7" d="M60.1,27.1c-.4-1.7-.8-1.6-.8-3.6"/><path class="cls-7" d="M60.6,27.1c-.2,0-.3,0-.5,0-.2,0-.4.2-.5.3-.2.3-.4.6-.5,1-.7,2.6-.4,6.4,2.4,8.2"/><path class="cls-7" d="M61.6,36.7h0c.8,2.7,6.3,10.1,6.9,9.9.3-1.5.7-4.1,1-5.6,2-.5,5-1.6,6.9-1.6,2.6,0,6.7.8,9.3,1.2.6,2.5.4,3.9.7,6.2,4.8-1.8,10.5-11.5,10.6-16.8,0-.2,0-.4,0-.6,0,0,0-.1,0-.2,0,0,0,0,0,0"/><path class="cls-7" d="M84.2,46.7c-.5,1.2-1.8,1.9-3,2.3-1.2.4-6.4.4-7.6,0-1-.3-2-.7-2.5-1.6-.6-1-.8-4.5-.4-4.9.5-.6,4.8-1.9,5.6-1.8,1,.1,7.1.8,7.8,1.2.6.3.5,3.9.1,4.8Z"/><path class="cls-9" d="M77.6,3.8c-4,2-11.1,1.6-15.7,4.6-.4.2-.8.5-1.1.8-2.3-.5-5.9-1.5-8.6-2.3.6-1.6-1.8-6.3,4.8-6.1,5.5-.4,13.6,0,19.4-.3.7,0,1.4,0,2.1-.1.8,2.3-.6,3.4-.9,3.5Z"/><path class="cls-8" d="M92.1,80.5c-5.1,1.9-18.5-5.1-29-11.6-6.3-3.9-11.5-7.5-13.2-8.8-3.8-3-7.5-7.1-11.3-11.2-2.6-2.9-1.8-7.2.4-13.5.8-2.2,1.8-4.6,2.8-7.4,1.1-2.7,2.2-5.7,3.4-9.1,1-3,2.8-7,4.8-12.7.6.2,1.3.4,2.1.6,2.7.8,6.2,1.9,8.6,2.3.2,0,.3,0,.5,0,.3,0,.6,0,.8.1-.5,1.3-1.8,5-3.2,8.7-1,2.9-2.1,5.8-2.8,7.8-3.4,9.3-5.6,16.8-5.6,16.8,2.6,1.1,8.6,3.8,15.8,6.9,4.4,1.9,9.3,4,14.1,6.1,1.5.6,3.1,1.3,4.5,1.9,2.2.9,4.3,1.8,6.3,2.6h0c11.5,5.9,5.5,19.1.9,20.4Z"/><path class="cls-7" d="M100.8,21.1c0,.9,0,1.8-.6,2.5-1,1-2.7.5-4,0-10.5-4.4-22.8-4.4-33.4,0-.6.2-1.2.5-1.8.5-.6,0-1.2,0-1.6-.4-.7-.6-.7-1.7-.7-2.6,0-1,.1-1.9.2-2.8,1.4-3.8,2.7-7.4,3.2-8.7-.2,0-.5,0-.8-.1.1-.2.2-.4.4-.5,0-.1.2-.2.3-.4,4.6-3,11.7-2.6,15.7-4.6.4,0,1.8-1.1.9-3.5-.7,0-1.3,0-2.1.1,8.7-1,19.4,1.9,22.9,10.1,1.6,3.7,1.4,6.5,1.4,10.6Z"/><path class="cls-7" d="M100.8,21c4.2,1.5,4.2,5.1,4.2,8.4,0,3.3-2.2,5.4-4.5,5.7"/><path class="cls-7" d="M96.9,36.5c0,.3.1.6.2.9,2.7,11,12.6,52.1,2,63.8"/></svg>