<?xml version="1.0" encoding="UTF-8"?><svg id="Asia" xmlns="http://www.w3.org/2000/svg" width="88" height="126" viewBox="0 0 88 126"><defs><style>.cls-1{fill:#010101;}.cls-1,.cls-2,.cls-3,.cls-4,.cls-5,.cls-6,.cls-7{stroke-width:0px;}.cls-2{fill:#2e2e2e;}.cls-8{stroke-linejoin:round;}.cls-8,.cls-9,.cls-10{fill:none;stroke:#000;stroke-width:.6px;}.cls-8,.cls-10{stroke-linecap:round;}.cls-3{fill:#383938;}.cls-4{fill:#8ea3d3;}.cls-9,.cls-10{stroke-miterlimit:10;}.cls-5{fill:#bdcae8;}.cls-6{fill:#fff;}.cls-7{fill:#7d584d;}</style></defs><path class="cls-5" d="M76.8,7l2.7,3.8c0,.3.2.8.5,1.3-.4.6-1.1.6-1.9.6-.4-1.8-1.2-3.4-2.9-4.4.5-.4,0-1.4.6-1.7,0,0,0,0,0,0,.3.2.6.3,1,.4Z"/><path class="cls-5" d="M79.5,10.8l-2.7-3.8c-.3-.1-.7-.2-1-.4.2-.1.5,0,.8,0,.8.2,1.5.6,2.1,1.1.4.3.7.7.9,1.1.5.8.8,2,.5,3,0,.1,0,.2-.1.3-.3-.5-.5-1-.5-1.3Z"/><path class="cls-1" d="M70.5,26.2c.7,0,1.3,1.2,1.2,2.7,0,1.5-.7,2.6-1.4,2.6-.7,0-1.3-1.3-1.2-2.7,0-1.5.7-2.6,1.4-2.6Z"/><path class="cls-6" d="M57.3,40.2c3.6,1.8,11,.3,11.7-.4-1.6,2.3-1.6,1.8-2.9,2.6-1.4.8-3.5,1.3-4.9,1.1-2.2-.4-3.1-1.4-4-3.3Z"/><path class="cls-1" d="M55.4,30.5c-.6,0-1.1-1.1-1-2.4,0-1.3.6-2.4,1.2-2.3s1.1,1.1,1,2.4c0,1.3-.6,2.4-1.2,2.3Z"/><path class="cls-5" d="M51.1,11c.8-1.7,1.8-3.2,3-4.3.2,0,.5-.2.8-.5,0,0,0,0,0,0,.9,0,1.1.8,1.3,1.5-1.6.7-2.9,1.7-3.4,3.4-.5-.3-1.3.2-1.7-.1Z"/><path class="cls-5" d="M54.5,6.2c.1,0,.2,0,.3,0-.3.2-.6.4-.8.5.1-.2.3-.3.5-.4Z"/><path class="cls-5" d="M50.9,10.6c0-.3,0-.5.1-.8l3-3.2s0,0,0,0c-1.1,1.1-2.1,2.6-3,4.3,0,0,0,0,0,0,0,0-.1-.2-.2-.3Z"/><path class="cls-5" d="M50.9,10.3c0-1.1.5-2.3,1.4-3,.6-.5,1.4-.9,2.2-1-.2.1-.3.3-.5.4,0,0,0,0,0,0l-3,3.2c0,.3,0,.5-.1.8,0-.1,0-.2,0-.3Z"/><path class="cls-5" d="M68.8,47.3c1.1-.5,2.6-2.5,4-2.4.7,0,1.3.5,1.9,1.8.6,1.3,1.3,2.4,2,3.4-1.3.1-1.9.2-3.1-.3-1.6-1-3.3-1.8-4.9-2.4"/><path class="cls-4" d="M77.9,51.9c-.4-.6-.8-1.2-1.1-1.8-1.3.1-1.9.2-3.1-.3-1.6-1-3.3-1.8-5-2.4-2.4-.9-7.3-2-13.7-4.8-2-.9-4.2-1.9-6.4-3.2-2.5,3.7-4.1,7.5-4,12l-.4.2c-3.2-2.4-6.5-4.9-9.2-7.2-.9.6-1.2,1.5-1.2,2.5.6.5,1.1,1,1.5,1.3,2.2,1.8,14.1,13.2,15.1,13.6h0c-.7,6.8-.3,15.8-.3,16.7h0c1.2,1.3,2.4,2.7,3.6,4.1.6.6,1.1,1.3,1.7,1.9.5.5.9,1.1,1.4,1.6,1.5,1.7,3,3.4,4.5,5.1,7.5,8.4,14.5,16.3,16.8,18.4,0-6.2,2.1-53.6-.3-57.8Z"/><path class="cls-2" d="M86.3,7.8c.9-.3,1.5-1.4,1.1-2.3-.3-.9-1.5-1.4-2.5-1.1,0-.6.7-1.7-.9-2.5-1.9-.8-2.4.4-3.1,1.3-.8-2-3.2-1.5-2.8.7-.5-.3-1.1-.6-1.8-.6-.6,0-1.3.3-1.6.8-.2.4-.2.7-.2,1-3.3-1.4-7.2-1.9-11.3-1.1,0,0-.1,0-.2,0,0,0-4.4-.3-6.5.7-.3.2-.7.3-1,.6.4-.6.3-1.3-1.2-1.5,0,0,0-.1,0-.2-3,.8-7.9,1.5-9.8,2.5.4.4,1,.6,1.6.9-1.8,1.1-.7,3.1,1.3,2.3-.2.5-.3,1.1-.1,1.7.1.5.5,1.1,1.1,1.2,1.5.2,2-.6,2.2-1.6,0-.1,0-.2,0-.3,0-1.1.5-2.3,1.4-3,.6-.5,1.4-.9,2.2-1,.1,0,.2,0,.3,0s0,0,0,0c.9,0,1.1.8,1.3,1.5-1.6.7-2.9,1.7-3.4,3.4-.5-.3-1.3.2-1.7-.1-2,4.1-2.9,9.6-1.8,14.7,0,0,.2,0,.2.1h.8c0-.2,0-.4,0-.6h0c0-.2,0-.1,0-.3,0-.5,0-.9,0-1.4.3-6.8,6.7-12.5,11.5-13,.2,0,.3,0,.5,0,3-.2,19.4,5.7,18.4,16.6.9-.1,1.5,0,2,.1h.3c1.5-6.5,1.5-10.9-.5-14.9,0-.1.1-.2.2-.4.5.4,1.4,1,2,.8.6-.3.9-1.5.9-2.2.8.2,2,0,2.1-.9,0-.8-.5-1.5-1.2-1.9ZM78.2,12.7c-.4-1.8-1.2-3.4-2.9-4.4.5-.4,0-1.4.6-1.7,0,0,0,0,0,0,.2-.1.5,0,.8,0,.8.2,1.5.6,2.1,1.1.4.3.7.7.9,1.1.5.8.8,2,.5,3,0,.1,0,.2-.1.3-.4.6-1.1.6-1.9.6Z"/><path class="cls-2" d="M72.8,20.4c-1.2-.4-5.1-.6-4.6,1.3.1.4.5.8,1,.9.5,0,1.7-.2,2.2-.2,1.3,0,2.2.2,3.6.4.4,0,.7-.2.5-.6-.3-.6-1.1-1.4-2.6-1.8Z"/><path class="cls-2" d="M57.8,20c-1.4-.7-3.1,0-4.2.9-.2.1-.3.3-.4.5,0,.2,0,.4,0,.6.1.2.4.2.6.2.2,0,3.3.4,3.7.4.6,0,1.1-.5,1.1-1.1,0-.6-.4-1.1-1-1.4Z"/><path class="cls-2" d="M51.1,0c-.4,0-.8.3-1.1.6.7,0,1.4,0,2.1,0-.2-.4-.6-.7-1-.6Z"/><path class="cls-5" d="M51.2,120.7c-3.5-3.2-9-16.2-10.6-20.6h0c-.1-.2-.2-.5-.3-.7-.7-1.5-1.6-3.3-2.4-5.1,6.3-1.7,12.7-6.1,15.9-11.7.6.6,1.1,1.3,1.7,1.9.5.5.9,1.1,1.4,1.6,1.5,1.7,3,3.4,4.5,5.1,7.5,8.4,14.5,16.3,16.8,18.4-.6,2.4-.7,4.9-1.7,7.2-1.2,2.9-3.2,6.1-6.8,7.3-5.6,1.9-14.2,1.2-18.4-3.4h0Z"/><path class="cls-7" d="M82.6,27.3c-.5-.2-1.1-.3-2-.1,1.1-10.9-15.3-16.8-18.4-16.6-.2,0-.3,0-.5,0-4.8.4-11.3,6.1-11.5,13,0,.9,0,1.2,0,1.4,0,0,0,.2,0,.2h0c0,.2,0,.4,0,.7h-.8c0,0-.1-.1-.2-.1-.3,0-.7,0-.9.4-.3.3-.4.8-.5,1.2-.3,1.8,0,3.7.5,5.4.2.5.4,1,.8,1.4s.9.7,1.4.7l.4.3c.5,2.2,1.5,4.6,3.3,6.7.8.9.3.4.7.8,6.3,2.8,11.2,3.9,13.7,4.8,1.1-.3,2.7-2.6,4.2-2.5,1.1-.9,2.3-2,3.8-3.4,1.5-1.9,2-2.8,2.6-4.8h0c1.9-.3,3.1-2,3.8-4.2.6-1.8,1.2-4.4-.7-5.1ZM53.9,22.1c-.2,0-.5,0-.6-.2-.1-.2-.1-.4,0-.6,0-.2.2-.3.4-.5,1.1-.9,2.8-1.6,4.2-.9.5.3,1,.8,1,1.4,0,.6-.5,1.1-1.1,1.1-.5,0-3.5-.5-3.7-.4ZM55.4,30.5c-.6,0-1.1-1.1-1-2.4,0-1.3.6-2.4,1.2-2.3s1.1,1.1,1,2.4c0,1.3-.6,2.4-1.2,2.3ZM66.2,42.4c-1.4.8-3.5,1.3-4.9,1.1-2.2-.4-3.1-1.4-4-3.3,3.6,1.8,11,.3,11.7-.4-1.6,2.3-1.6,1.8-2.9,2.6ZM70.3,31.6c-.7,0-1.3-1.3-1.2-2.7,0-1.5.7-2.6,1.4-2.6.7,0,1.3,1.2,1.2,2.7,0,1.5-.7,2.6-1.4,2.6ZM74.9,22.8c-1.4-.2-2.3-.4-3.6-.4-.5,0-1.7.2-2.2.2-.5,0-.9-.4-1-.9-.5-1.9,3.5-1.7,4.6-1.3,1.5.5,2.4,1.2,2.6,1.8.2.4,0,.7-.5.6Z"/><path class="cls-7" d="M50.2,78.5c-5.9-6.6-10.4-11.7-10.8-11.8-1.8-1.3-5.9-2.2-10.3,0-3,1.5-5.8,17.6-5.8,23.9s0,16.2-.7,20.6c0,.6-.2,1.1-.3,1.5,1.3,1.2,3.5,2.4,5.2,2.9s4.5-1.2,5.3-1.6c.6-9.1,5-18.9,4.4-20.2h.3c.1.1.2.4.3.6h0c6.3-1.7,12.7-6.1,15.9-11.7-1.3-1.4-2.5-2.8-3.6-4.1h0Z"/><path class="cls-7" d="M33.8,46.9c0-1,.3-1.9,1.2-2.5,2.7,2.4,6,4.8,9.2,7.2l.4-.2c0-4.5,1.5-8.3,4-12-3.4-1.9-7-4.3-10.7-7.3,1.4-4.7,4.6-20.9,6.8-26.1h0c0,0,0,.1.1.2,1.9-1,6.7-1.7,9.8-2.5.8-.2,1.4-.4,1.9-.6.6-.3,1.4-2.2.9-2.2-1.3,0-3.1-.2-5.1-.2-.7,0-1.4,0-2.1,0-2.9,0-6.1,0-9.2.2-2.4.2-2,2.5-2.4,4.6-1.8,5-5.8,13-8.2,20.1-.8-3.5-6.4-14.7-6.6-19.8,2.8-.6,7.4-1.6,8.5-4.5-.1-.8-15.9-.5-15.9,1.1,0,0-.4,2.9,0,4.3,1.8,6.5,3.7,19.7,6.6,27.7,1,2.9,7.4,9.4,10.9,12.6Z"/><path class="cls-3" d="M33.7,121.6c.4-1,.1-5.3-.9-7.6-.8.4-3.6,2.1-5.3,1.6s-3.9-1.7-5.2-2.9c.1-.4.2-.9.3-1.5-.8-4.8-1.5-3.8-2.2-1-.5,2-7.3,3.1-10.5,3.5-6.8,1.3-8.2,5.2-8.2,8.5h-.2c-.1.3-.2.5-.3.7-.2.8,0,1.3.5,2.1,6.1,1.5,11.4,1.3,22.1-.2,4.4-.6,7,.1,9.8-.5.4.1,0-2.7,0-2.7h0Z"/><path class="cls-8" d="M68.5,47.5c0,0,.1,0,.2,0,1.4-.5,2.6-1.3,4.2-2.5,1.1-.9,2.3-2,3.8-3.4.2-.2.3-.3.5-.5"/><path class="cls-8" d="M50.2,25.2c0,.2,0,.4,0,.6,0,.4.2.9.3,1.5,0,0-.6,3.6.4,7.8.5,2.2,1.5,4.6,3.3,6.7.8.9.3.4.7.8"/><path class="cls-8" d="M50.2,23.6c0,.5,0,.9,0,1.4,0,0,0,.2,0,.2"/><path class="cls-8" d="M56.6,28.1c0,1.3-.6,2.4-1.2,2.3-.6,0-1.1-1.1-1-2.4,0-1.3.6-2.4,1.2-2.3s1.1,1.1,1,2.4Z"/><path class="cls-8" d="M71.8,28.9c0,1.5-.7,2.6-1.4,2.6-.7,0-1.3-1.3-1.2-2.7,0-1.5.7-2.6,1.4-2.6.7,0,1.3,1.2,1.2,2.7Z"/><path class="cls-8" d="M58.2,34.6c.3,3.4,3.3,2.5,5.7,2.6"/><path class="cls-8" d="M57.3,40.2c3.6,1.8,11,.3,11.7-.4-1.6,2.3-1.6,1.8-2.9,2.6-1.4.8-3.5,1.3-4.9,1.1-2.2-.4-3.1-1.4-4-3.3Z"/><path class="cls-8" d="M79.9,34.9c-.2.7-.4,1.3-.6,1.8-.7,2-1.1,2.9-2.6,4.8-.2.2-.4.5-.6.8"/><path class="cls-8" d="M80.6,27.1c.9-.1,1.5,0,2,.1,1.8.7,1.3,3.4.7,5.1-.8,2.2-2,3.9-3.8,4.3"/><path class="cls-8" d="M68.2,21.7c.1.4.5.8,1,.9s1.7-.2,2.2-.2c1.3,0,2.2.2,3.6.4.4,0,.7-.2.5-.6-.3-.6-1.1-1.4-2.6-1.8-1.2-.4-5.1-.6-4.6,1.3Z"/><path class="cls-8" d="M57.8,20c.5.3,1,.8,1,1.4,0,.6-.5,1.1-1.1,1.1-.5,0-3.5-.5-3.7-.4-.2,0-.5,0-.6-.2-.1-.2-.1-.4,0-.6,0-.2.2-.3.4-.5,1.1-.9,2.8-1.6,4.2-.9Z"/><path class="cls-8" d="M49.9,26c0,0-.6-.3-.7-.3-.3,0-.7,0-.9.4-.3.3-.4.8-.5,1.2-.3,1.8,0,3.7.5,5.4.2.5.4,1,.8,1.4s.9.7,1.4.7"/><path class="cls-8" d="M50.2,23.6c0,.9,0,1.2,0,1.4,0,.2,0,0,0,.2h0c0,.2.1.6.3,1.5"/><path class="cls-8" d="M51.1,11c-2,4.1-2.9,9.6-1.8,14.7,0,0,0,.2,0,.3"/><path class="cls-8" d="M74.6,5.1c-3.3-1.4-7.2-1.9-11.3-1.1,0,0-.1,0-.2,0,0,0-4.4-.3-6.5.7-.3.2-.7.3-1,.6"/><path class="cls-8" d="M82.9,27.2c1.5-6.5,1.5-10.9-.5-14.9"/><path class="cls-8" d="M50.2,23.6c.3-6.8,6.7-12.5,11.5-13,.2,0,.3,0,.5,0,3-.2,19.4,5.7,18.4,16.6"/><path class="cls-9" d="M75.9,6.6c-.7-.3-1.2-.8-1.2-1.5,0-.3,0-.6.2-1,.2-.6,1-.8,1.6-.8.6,0,1.2.3,1.8.6-.4-2.1,2-2.7,2.8-.7.8-.9,1.3-2.1,3.1-1.3,1.5.8,1,1.8.9,2.5.9-.3,2.1.2,2.5,1.1.4.9-.2,2-1.1,2.3.7.4,1.3,1.1,1.2,1.9-.1.8-1.4,1.1-2.1.9,0,.6-.3,1.9-.9,2.2-.6.3-1.5-.4-2-.8,0,.1-.1.3-.2.4-.7,1.4-1.7.7-2.3-.2"/><path class="cls-9" d="M80,12.1c0,0,0-.2.1-.3.3-.9,0-2.1-.5-3-.2-.4-.5-.8-.9-1.1-.6-.5-1.3-.9-2.1-1.1-.3,0-.5,0-.8,0,0,0,0,0,0,0-.5.3-.1,1.3-.6,1.7,1.8,1,2.6,2.6,2.9,4.4.7,0,1.5,0,1.9-.6Z"/><path class="cls-9" d="M54.5,3.7c0,0,0,.1,0,.2,1.5.2,1.6.8,1.2,1.5-.2.3-.5.6-.8.9"/><path class="cls-9" d="M50,.6c.3-.3.6-.5,1.1-.6.4,0,.8.2,1,.6"/><path class="cls-9" d="M50.9,10.6c-.2,1-.8,1.8-2.2,1.6-.6,0-1-.6-1.1-1.2-.1-.5,0-1.1.1-1.7-2,.8-3-1.1-1.3-2.3-.6-.3-1.3-.4-1.6-.9"/><path class="cls-9" d="M54.5,6.2c-.8.1-1.6.6-2.2,1-.9.8-1.4,1.9-1.4,3,0,.1,0,.2,0,.3,0,.1,0,.2.2.3,0,0,0,0,0,0,.4.4,1.2-.2,1.7.1.5-1.7,1.8-2.7,3.4-3.4-.2-.7-.4-1.4-1.3-1.5,0,0,0,0,0,0-.1,0-.2,0-.3,0Z"/><path class="cls-8" d="M61.7,10.5c-.3-2.2.3-4.6,1.6-6.4,0,0,0,0,0,0"/><path class="cls-10" d="M50.2,78.5c-5.9-6.6-10.4-11.7-10.8-11.8"/><path class="cls-10" d="M78.2,109.7c-2.2-2.1-9.3-10-16.8-18.4-1.5-1.7-3-3.4-4.5-5.1-.5-.5-.9-1.1-1.4-1.6-.6-.6-1.1-1.3-1.7-1.9-1.3-1.4-2.5-2.8-3.6-4.1"/><path class="cls-10" d="M78.2,109.7c-.6,2.4-.7,4.9-1.7,7.2-1.2,2.9-3.2,6.1-6.8,7.3-5.6,1.9-14.2,1.2-18.4-3.4-.1-.1-.2-.3-.3-.4h0"/><path class="cls-10" d="M37.9,94.4c.8,1.8,1.7,3.5,2.4,5.1.1.2.2.5.3.7,0,.2.2.4.3.5"/><path class="cls-10" d="M34.8,85.7c.4,2.5,1.5,5.3,2.7,8,.1.2.2.5.3.7"/><path class="cls-10" d="M51.2,120.7c-3.5-3.2-9-16.2-10.6-20.6"/><path class="cls-10" d="M53.8,82.6c-3.3,5.7-9.6,10.1-15.9,11.7h0"/><path class="cls-8" d="M68.6,47.4c1.1-.3,2.7-2.6,4.2-2.5.7,0,1.3.5,1.9,1.7.6,1.3,1.3,2.4,2,3.5.4.6.8,1.2,1.1,1.8,2.4,4.1.3,51.5.3,57.8"/><path class="cls-8" d="M68.6,47.4s0,0,0,0c1.7.7,3.4,1.5,4.9,2.4"/><path class="cls-8" d="M51.3,56.7c-.4,1.3-.7,3.1-.9,5.1-.7,6.8-.3,15.8-.3,16.7h0"/><path class="cls-8" d="M28.3,37.2c.9,1.9,3.4,4.5,6.7,7.3,2.7,2.4,6,4.8,9.2,7.2,2.5,1.8,4.9,3.5,7.2,5,1.3.9,2.5,1.7,3.7,2.4,3.3,2.1,5.5,3.5,5.8,3.4"/><path class="cls-8" d="M68.6,47.4c-2.4-.9-7.3-2-13.7-4.8-2-.9-4.2-1.9-6.4-3.2-3.4-1.9-7-4.3-10.7-7.3-.3.3-.6.6-.9.9"/><path class="cls-8" d="M44.6,6.1c-2.2,5.2-5.4,21.4-6.8,26.1"/><path class="cls-8" d="M38.5,5.1c0,0,0,.2,0,.3-1.8,5-5.8,13-8.2,20.1-1.6,4.7-2.6,8.9-1.8,11.7"/><path class="cls-8" d="M50.4,61.8c-1-.4-12.9-11.8-15.1-13.6-.4-.3-.9-.8-1.5-1.3-3.6-3.2-9.9-9.8-10.9-12.6-2.9-8-4.8-21.2-6.6-27.7-.4-1.4,0-4.3,0-4.3,0-1.6,15.7-1.9,15.9-1.1-1.2,2.8-5.7,3.9-8.5,4.5"/><path class="cls-8" d="M30.2,25.5s0,0,0,0c-.8-3.5-6.4-14.7-6.6-19.8"/><path class="cls-8" d="M39.3,66.7c-1.8-1.3-5.9-2.2-10.3,0-3,1.5-5.8,17.6-5.8,23.9"/><path class="cls-8" d="M48.5,39.4c-2.5,3.7-4.1,7.5-4,12"/><path class="cls-8" d="M35,44.4c-.9.6-1.2,1.5-1.2,2.5"/><path class="cls-8" d="M38.3,5.8c0-.1,0-.3,0-.4.4-2.1,0-4.4,2.4-4.6,3.1-.2,6.3-.3,9.2-.2.7,0,1.4,0,2.1,0,2.1,0,3.8.1,5.1.2.5,0-.2,1.9-.9,2.2-.5.2-1.1.4-1.9.6-3,.8-7.9,1.5-9.8,2.5,0,0-.1,0-.2.1"/><line class="cls-8" x1="13.7" y1="115" x2="13.8" y2="115"/><line class="cls-8" x1="10.2" y1="123.5" x2="10.2" y2="123.7"/><line class="cls-8" x1="10.1" y1="115.7" x2="10.2" y2="115.7"/><line class="cls-8" x1="1.5" y1="122.9" x2="1.9" y2="122.9"/><path class="cls-8" d="M22.3,112.7c1.3,1.2,3.5,2.4,5.2,2.9s4.5-1.2,5.3-1.6c.6-9.1,5-18.9,4.4-20.2"/><path class="cls-8" d="M23.3,90.6c0,8,0,16.2-.7,20.6,0,.6-.2,1.1-.3,1.5"/><path class="cls-8" d="M32.9,114c1,2.3,1.3,6.6.9,7.6"/><path class="cls-8" d="M33.7,121.6h0c-.5,0-6.1.3-11.2.9-5.2.5-8.4,1.3-12.4,1.3-2.3,0-4.9-.2-8.3-.9"/><path class="cls-8" d="M22.3,112.7c-1.6.9-7.5,2.2-12.1,3"/><path class="cls-8" d="M1.8,122.5c0-.1,0-.2,0-.4,0-3.3,1.4-7.1,8.2-8.5,0,0,0,.8.1,2,.1,2.2.3,5.7,0,7.8"/><path class="cls-8" d="M22.6,111.3s0,0,0-.1c-.8-4.8-1.5-3.8-2.2-1-.5,2-7.3,3.1-10.5,3.5"/><path class="cls-8" d="M1.8,124.9c6.1,1.5,11.4,1.3,22.1-.2,4.4-.6,7,.1,9.8-.5.4.1,0-2.7,0-2.7"/><path class="cls-8" d="M1.5,122.1c-.1.3-.2.5-.3.7-.2.8,0,1.3.5,2.1"/><path class="cls-8" d="M76.8,50.1h0c-1.3.1-1.9.2-3.1-.3"/><path class="cls-9" d="M55,58.9c0,0,0,.1,0,.2-.8,7.8,0,18.3.5,25.5"/><path class="cls-9" d="M56.8,61.3c-.3.3-.4.8-.5,1.2-.3,2.4-.2,4.8.4,7.2.2.6.4,1.3.8,1.8s1,.8,1.6.6c.9-.3,1.2-1.5,1.3-2.5.2-1.6.9-5.6.1-7.1,0,0-2.8-2-3.7-1.2Z"/><path class="cls-9" d="M51.2,59.1c-.1.3-.2.8-.2,1.2-.2,2.4-.1,4.8.2,7.2,0,.6.2,1.3.4,1.8.2.5.5.8.8.6.4-.3.6-1.5.6-2.5,0-1.6.5-5.6,0-7.1,0,0-1.4-2-1.8-1.2Z"/><path class="cls-9" d="M57,86.6c0-.2,0-.3,0-.5-.2-1.5-.2-2.7.4-2.8.8-.2,5,.9,5.3,1.7.2.6.2,1.2.2,1.8-.1,1.5-.4,3.2-1.3,4.3"/></svg>