<?xml version="1.0" encoding="UTF-8"?><svg id="Oceania" xmlns="http://www.w3.org/2000/svg" width="88" height="126" viewBox="0 0 88 126"><defs><style>.cls-1{fill:#e5c1ae;}.cls-1,.cls-2,.cls-3,.cls-4,.cls-5,.cls-6,.cls-7,.cls-8{stroke:#000;}.cls-1,.cls-2,.cls-3,.cls-4,.cls-5,.cls-6,.cls-7,.cls-8,.cls-9{stroke-linecap:round;stroke-linejoin:round;stroke-width:.6px;}.cls-2{fill:#d91f26;}.cls-3,.cls-9{fill:none;}.cls-4{fill:#1c130d;}.cls-5{fill:#bf9465;}.cls-6{fill:#4c3214;}.cls-7{fill:#fff;}.cls-8{fill:#000;}.cls-9{stroke:#010101;}</style></defs><path class="cls-2" d="M78.3,66.5c0-3,0-5.6-.1-7.7h0c0-2.4-.2-4.1-.3-4.8,0,0,0,0,0,0-.4-1.8-1.1-3-2-3.8-1.3-1.2-2.8-1.4-3.8-1.2-1.1-.6-2.2-1.1-3.3-1.6-1-.4-2.5-.8-4.3-1.5h0c-1.7-.6-3.6-1.2-5.8-2.1-1.5-.6-3.1-1.3-4.8-2.2-2.4,3.8-4.8,8.3-4.7,12.9v.2c-2.1-1.4-4.1-3-6.2-4.6h0c-.9.7-1.6,1.7-1.6,2.7h0c4.1,4,9.2,9,9.8,9.3h.4c0,1.1,0,2.2.1,3.4.4,7.4,2,16.2,2.1,17h0c-3.2-3.8-5.9-7-6.7-7.9-3.7-4.4-6.3-7.4-6.6-7.5-1.8-1.3-5.7-2.3-10,0-.8.4-1.6,2-2.3,4.3-.2.5-.3,1-.5,1.5-.5,1.6-.9,3.4-1.3,5.3-.3,1.3-.6,2.6-.8,4-.9,4.5-1.5,8.9-1.8,11.5-.8,7.4-2.6,10.1-3.2,14.8,1.6.4,3.1.7,4.5,1,3.3.6,6.3,1,9,1.1,4.3.2,7.6,0,9.3-.3-.2-2.2-1.3-6.9-2.4-12.1.8,2.5,3,7.9,5.4,13,0,0,0,0,0,0,.2.4.4.8.6,1.2,1.3,2.8,2.7,5.3,3.8,7.1.5.8,1,1.4,1.4,1.8h0c1.7,1.9,4.1,3.2,6.7,3.9,0,0,.2,0,.3,0h0c1,.3,2.1.4,3.2.5.8,0,1.7,0,2.5,0,.2-.3.3-.6.3-.6,0,0,.5.3,1,.5.5,0,.9-.1,1.3-.2,1-.2,1.9-.4,2.7-.7,3.5-1.2,5.4-3.2,6.6-6.2,1-2.4,1-4.9,1.6-7.4,0-1.8,0-7,.1-13.6v-.6c0-3.3,0-7,0-10.8,0-4.2,0-8.5,0-12.5,0-2.5,0-5,0-7.2Z"/><path class="cls-5" d="M42.9,50h0c-.9.7-1.6,1.7-1.6,2.7h0c-2.2-2.1-4.2-4-4.9-4.6-2.8-2.4-10.9-10.9-12.1-14.3-2.8-8.2-3.9-20.9-5.7-27.6-.4-1.5,0-4.4,0-4.4,0-1.7,15.3-1.9,15.4-1.1-1.1,2.9-5.5,4-8.3,4.6l-.3.2c.1,5.2,5,15.3,5.9,19.1h0c-1.6,4.8-2.5,9.2-1.7,12.2,1.5,3.3,7.2,8.4,13.4,13.2Z"/><path class="cls-5" d="M57.4,1.8c-.6.3-1.2.6-1.8.9-3.1,1-8.5,1.5-10.5,2.8-2.1,5.3-5,21.3-6.3,26.1,5.4,4.6,10.5,7.7,15,10-2.4,3.8-4.8,8.3-4.7,12.9v.2c-2.1-1.4-4.1-3-6.2-4.6-6.1-4.8-11.8-10-13.4-13.2-.8-3,.2-7.4,1.7-12.2h0c2.3-7,5.8-14.6,7.5-19.7.5-2.2.9-4.7,3.5-4.7,7.8,0,2.1,0,15.4,0,.3,0,0,1.1-.3,1.5Z"/><path class="cls-3" d="M66.5,97.9c-.3-.4-.7-.8-1-1.2-.3-.3-.6-.7-1-1.2"/><path class="cls-3" d="M59.3,89.4c-.5-.6-.9-1.1-1.4-1.7h0c0,0-.1-.1-.2-.2"/><path class="cls-3" d="M64.5,95.5c.3.4.6.8,1,1.1.3.4.7.8,1,1.2"/><path class="cls-3" d="M65.8,125.6c-.4,0-.9,0-1.3,0"/><path class="cls-3" d="M73.6,49.8c-.5-.3-1-.6-1.6-.9l1.6.9Z"/><path class="cls-3" d="M38.8,31.6c-.3.3-.6.6-.9.9l.9-.9Z"/><path class="cls-3" d="M53.9,41.4c0,0,0,.1-.1.2"/><path class="cls-5" d="M33.7,111c-.3,1.8-.2,1.9-.2,3.9h-.1c-3,1.5-14.4,5.1-17,3,3.2-.4,5.7-1.5,7.5-4.1.3-1.1.7-2.5,1-4.4,3.3.6,6.3,1,9,1.1v.5Z"/><path class="cls-4" d="M34.2,124.5c-2.6.5-5-.1-9,.4-9.8,1.3-10.3.9-15.9-.5-.8-.4-1.1-.8-.6-1.9,8.2,1.6,7.8,1,15.3.2,4.7-.5,9.7-.7,10.2-.8h0s.3,2.6,0,2.5Z"/><path class="cls-4" d="M34.3,122c-.5,0-5.6.3-10.2.8-7.5.8-7.1,1.4-15.3-.2-.6-.8.5-2.9,1.3-3.4.8-.5,1.8-1,3.1-1,1.1,0,2.2-.1,3.2-.2,2.6,2.1,14-1.5,17-3h.1c.9,2.2,1.1,3.6.8,7.1Z"/><path class="cls-3" d="M76.2,50.6c-.1-.1-.2-.3-.3-.5"/><path class="cls-7" d="M69.4,34.8c-1.5,2.3-1.5,1.8-2.7,2.6-1.3.9-3.4,1.4-4.8,1.2-2.2-.3-3.2-1.2-4.1-3,3.6,1.6,10.8-.1,11.6-.9Z"/><path class="cls-5" d="M83.1,26.1c0-2-1.2-2.8-2.9-1.8-.9.5-5.7-4.7-6.4-5.5-1.8-2.1-3.2-4.5-4.7-6.8-.6-.9-1.6-3.2-2.6-3.6-1-.4-3.5.8-4.5,1.2-3.2,1.2-5.9,3.4-8.4,5.9-3.4,3.5-3.3,9.1-2.9,13.7h0c.7,2.3,1.5,4.3,2.2,5.9,1.1,2.2,2.1,3.7,2.8,4.6,1.1,1.6,1.8,2.8,2.9,4h0c2.2.9,4.1,1.6,5.8,2.1h0c2.3-.4,5-1.9,9.2-5.4.6-.5,1.3-1.1,2-1.7.2-.2.3-.3.5-.5h0c2.2-2.5,3.7-5.6,4.3-8.9,1.8.8,2.8-1.3,2.7-3.3ZM55.3,25.6c-.5,0-.9-.9-.9-1.9s.4-1.9.9-1.9.9.9.9,1.9-.4,1.9-.9,1.9ZM66.7,37.5c-1.3.9-3.4,1.4-4.8,1.2-2.2-.3-3.2-1.2-4.1-3,3.6,1.6,10.8-.1,11.6-.9-1.5,2.3-1.5,1.8-2.7,2.6ZM70.5,26.1c-.6,0-1.1-1-1.1-2.2s.5-2.2,1.1-2.2,1.1,1,1.1,2.2-.5,2.2-1.1,2.2Z"/><line class="cls-3" x1="50.7" y1="29.2" x2="50.7" y2="29.2"/><path class="cls-3" d="M53.8,19.6c.7-1.6,2-1.4,2.7-.6"/><path class="cls-3" d="M69.6,19.2c1.3-1.3,3-.7,3.3.4"/><path class="cls-8" d="M56.2,23.7c0,1-.4,1.9-.9,1.9s-.9-.9-.9-1.9.4-1.9.9-1.9.9.9.9,1.9Z"/><path class="cls-8" d="M71.7,23.9c0,1.2-.5,2.2-1.1,2.2s-1.1-1-1.1-2.2.5-2.2,1.1-2.2,1.1,1,1.1,2.2Z"/><path class="cls-3" d="M59.5,30.4c0,.7,1.4,2.1,3.4,2.4"/><path class="cls-6" d="M83.1,26.1c0-2-1.2-2.8-2.9-1.8-.9.5-5.7-4.7-6.4-5.5-1.8-2.1-3.2-4.5-4.7-6.8-.6-.9-1.6-3.2-2.6-3.6-1-.4-3.5.8-4.5,1.2-3.2,1.2-5.9,3.4-8.4,5.9-3.4,3.5-3.3,9.1-2.9,13.7h0c.7,2.3,1.5,4.3,2.2,5.9h0c-2.5-2-5.4-8.7-5.8-11.9-.4-3.2,0-5.3.5-8.5.5-2.9,1.5-5.6,4.8-9.4.9-1,1.9-1.9,3.2-2.6.8-.2,1.4-.5,1.8-.9,0,0,0,0,0,0,3.4-1.5,7.5-2.1,11.4-1.2,4.5,1,10.5,2.6,13,7.2,2.5,4.5,5.2,14,1.4,18.4Z"/><path class="cls-3" d="M57.9,87.7c0-.1-.1-.2-.2-.3"/><path class="cls-3" d="M78.2,58.6s0,0,0,.1"/><line class="cls-3" x1="77.8" y1="53.9" x2="77.8" y2="53.9"/><path class="cls-3" d="M67.1,125.4c-.4.3-.9.3-1.3.2"/><path class="cls-3" d="M64.5,125.7c0,0,0,0,0,.1"/><path class="cls-3" d="M62,125.7s0,0,0,0"/><path class="cls-5" d="M75.8,50.1c-1.3-1.2-2.8-1.4-3.8-1.2-1.1-.6-2.2-1.1-3.3-1.6-1-.4-2.5-.8-4.3-1.5,2.3-.4,5-1.9,9.2-5.4l.2.2c0,2.1.8,7.4,2.1,9.5Z"/><path class="cls-1" d="M64.5,93.9c.2-1.1-2.2-2.4-2.8-2.1.6-.8,2-1.7,3.2-1.4,0,0,0,0,0,0,1.4,1,2.4,2.5,2.8,4-1-.4-2.1-.6-3.2-.7Z"/><path class="cls-1" d="M66.8,88.2c-.9.5-1.5,1.3-1.9,2.2-1.1-.4-2.6.6-3.2,1.4-.3-.8.2-2.8.3-3.2.2-.1.6-.5.8-.6,1.2-.5,2.7-.4,3.9.2Z"/><path class="cls-1" d="M54.8,97.3c-.6-.2-1.2,0-1.8.3-.3.2-.6.6-1,.8-.7.5-1.8.6-2.5.2h0c.2-.7.1-1.3-.3-1.7,1,.3,2.2-.6,2.1-1.7,0-.4-.2-.8-.5-1.1,0,0,0,0,0,0,0-.1.4-.5,1.6.1,1.7.9,2.2,2.8,2.4,3Z"/><path class="cls-1" d="M74.1,115.3s-.2-1.1-.7-2c-1-1.9-2.6-3.6-4.5-4.7,2.1,2,3.5,4.8,3.8,7.7h0c-.6.2-1.3.3-1.9.2-1.7-.3-3.4-1-4.8-2-.8-.5-1.5-1.1-2.1-1.8-.2-.3-1.3-2-1.6-2,.6,0,1.2.2,1.9.3-1.3-1.2-2.5-2.4-3.5-3.8-1-1.4-1.7-3.1-1.6-4.9.5,0,1,.2,1.6.2-.8-.9-1.2-2.2-1.1-3.4,2.1.4,4.1,1.5,5.7,3,0-.4.1-.7.2-1.1,3,1.1,5.6,3.3,7.2,6.1,0-.4.2-.7.3-1.1,1.4,1.2,2.3,3,2.4,4.8.1,1.6-.2,3.3-1.1,4.5Z"/><path class="cls-1" d="M77.5,97.6c-.3-.3-.8-.4-1.2-.3-.3,0-.6.2-.9.2-.6.1-1.3-.2-1.6-.7h0c.3-.4.5-.8.4-1.2.6.5,1.6.3,1.8-.4.1-.3,0-.6,0-.8,0,0,0,0,0,0,0,0,.4-.2,1,.6.5.7.6,1.5.6,2s0,.5,0,.6Z"/><path class="cls-1" d="M57.6,55h0c-.3.4-.7.6-1.1.6-.4,0-.9-.2-1.2-.5-.1-.2-.2-.3-.4-.5-.4-.3-1-.1-1.5,0,.4-.2.6-.6.8-1,.2-.4.3-.8.6-1.2.3-.3.4-.6.8-.5h.1s0,0,0,0c.2.7.9,1.2,1.7,1.1-.4.3-.2,1.2.2,1.8Z"/><path class="cls-1" d="M59,91.6h0c-.6.2-1.2.3-1.9.2-1.7-.3-3.4-1-4.8-2-.8-.5-1.5-1.1-2.1-1.8-.2-.3-1.3-2-1.6-2,.6,0,1.2.2,1.9.3-1.3-1.2-2.5-2.4-3.5-3.8-1-1.4-1.7-3.1-1.6-4.9.5,0,1,.1,1.6.2-.8-1-1.2-2.2-1.1-3.4.3,0,.7.2,1.1.3h0c.8.8,3.5,4.1,6.7,7.9,1.3,1.6,2.8,3.3,4.2,5,0,0,.1.2.2.3.6,1.2.9,2.5,1,3.9Z"/><path class="cls-1" d="M64.6,95.5h0c0,0-.2-.2-.3-.3-.2-.2-.4-.5-.6-.7,0,0-.1-.1-.2-.2-.1-.2-.3-.4-.5-.5-.5-.5-.9-1.1-1.4-1.7-.1-.1-.2-.2-.3-.4,0,0,0,0-.1-.1,0,0-.2-.2-.2-.3-.4-.5-.8-.9-1.2-1.4-.1-.2-.3-.3-.4-.5h0c0-.4,0-1,0-1.2.1-.9.5-1.8,1.1-2.6.1,1.2,1.6,3.7,1.5,3.2,0,0,0,0,.1,0-.1.4-.6,2.4-.3,3.2.6-.4,2.9,1,2.8,2.1h0c0,.4,0,1.2,0,1.6Z"/><path class="cls-1" d="M54.9,115.2c.4,2.1,0,4.3-.9,6.1-.6-1.2-1.4-2.4-2.3-3.3-.4.5-.8,1-1.3,1.5-1.2-1.8-2.5-4.3-3.8-7.1-.2-.4-.4-.8-.6-1.2,0,0,0,0,0,0-.5-1.7.2-2.8,1.5-4.2-.8.8,2.2,3.3,2.2,3.3,0,0,0,0,0,0,.2-.2,1.5-1.4,2.1-1.9.9-.8,2-1.3,3.2-1.4-1,1.2-1.7,4.7-1.3,4.2,0,0,1,0,1.4.2,1.5.5,2.8,1.9,3.4,3.5-1.3-.3-2.6,0-3.7.4Z"/><path class="cls-1" d="M78.3,73.7c0,4,0,8.3,0,12.5h-.2c-.8-2-1.2-4.6-.8-6.8-.3.1-.7.3-1,.4-.4-1.4-.5-2.9-.4-4.4,0,0,0-.1,0-.2.1-1.6.6-3.2,1.3-4.7-.4.1-.7.3-1,.4.2-1.8.6-3.3,2-4.4h.1c0,2.2,0,4.7,0,7.2Z"/><path class="cls-1" d="M58.6,61.4c0,1.1,0,2.2,0,3.3,0,.4,0,.9,0,1.3-2,.5-4.1.8-5.6,2.1-.6-.5-.9-2-1.5-2.7,0-1.2-.1-2.3-.1-3.4s0-2.6.2-3.7h0c.8,1.1,1.2,2.8,1.9,4,1.3-.8,3-.7,4.5-1.3h0c.2.1.4.3.6.4Z"/><path class="cls-1" d="M74.2,75.1s0,.1-.1.2c-.5.9-1.9,4.2-2.1,4.6-1.2,2.5-.3,5.2-.2,7.9-4.5-4.3-10-7.5-15.9-9.3,3.6-.7,7.5,0,10.6,2,0-1.5-1.4-2.6-2.7-3.4-2.5-1.5-5-3.1-7.5-4.6,2.9-.3,6,.5,8.4,2.2-.9-3.7-2.8-7.2-5.3-10.1,3.9,1.9,6.9,5.4,8.1,9.5.1-1.8,1.8-3.5,3.3-4.4-1.8,2.2-1.3,6.2-.8,9,.8-1.1,3-3,4.2-3.7Z"/><path class="cls-1" d="M35.7,99s0,0,.1,0c-.4.2-1.9,1.6-2.1,2.4-.8-.6-1.4-1.7-1.2-2.7h0c.1-.1,1.1-1.3,1.5-1.7.6-.7,1.5-1.2,2.4-1.4-.6,1.1-.9,3.9-.7,3.4Z"/><path class="cls-1" d="M39.9,101.6c-1,0-2,.1-2.8.7-.7-1-2.4-1.1-3.3-.8.2-.8,1.8-2.1,2.1-2.4.2,0,.7,0,1,0,1.3.3,2.4,1.3,3,2.5Z"/><path class="cls-1" d="M36.8,107.1c-.6-.9-1.3-1.7-2.2-2.4.8-.7-.3-3.2-1-3.3.9-.3,2.7-.2,3.3.8,0,0,0,0,0,0,.5,1.7.5,3.4-.1,4.9Z"/><path class="cls-1" d="M33.7,101.4c.1,1-1,3.1-1.9,2.8h0c-1.9-.2-3.6-.6-4.3-2.5.9.3,1.7-.8,2.5-1h0s.1,0,.1,0c0,.8,2.6,1.1,3.5.7Z"/><path class="cls-1" d="M33.7,101.4c-.9.4-3.5.1-3.5-.7h-.1c-1.2-1.8-.9-2.9.3-4.4-.6.8,2.1,2.4,2.1,2.4h0s0,0,0,0h0c-.2,1,.5,2.1,1.2,2.7Z"/><path class="cls-1" d="M34.7,104.7s0,0,0,0c-.7,1.4-1.9,2.4-3.4,2.8.4-1,.5-2.1.5-3.3h0c.9.3,2-1.8,1.9-2.8.7,0,1.8,2.6,1,3.3Z"/><path class="cls-1" d="M31.3,83.3c2.7-.3,4.8.5,6.6,2.5-2.2-.7-3.9-.2-6.1.5-2.4.8-3.6,2.2-5.3,4,0-2.4-.5-5.8-1-8.2h-.1c.2-1.4.5-2.7.8-4h.2c.8,1.4,1.2,2.5,1.5,4,1.1-1,.8-2.6.5-4-.5-2.4-.4-3-.9-5.3.2-.5.3-1,.5-1.5,2,1.7,2.2,3.1,2.6,5.8,1.9-3,3-6.5,3.3-10,1.2,3.8.8,8.1-1.2,11.6,1.3-1,3.1-1.2,4.7-.8,1.6.4,3,1.3,4.4,2.2-3.7-1.5-8.2,0-10.4,3.2Z"/><path class="cls-1" d="M62.8,52.6c0,.5,0,1.1-.3,1.5-.8,1-2.5-.2-2.5-.2,0,0-.7,2-2,1.5-.2,0-.4-.2-.5-.4-.4-.6-.6-1.5-.2-1.8-.7,0-1.4-.4-1.7-1.1,0-.2,0-.4,0-.7.2-1,1.4-1.6,2.2-1.2-.4-.8,0-1.9.9-2.2.9-.3,1.8.4,1.9,1.2.6-.6,1.8-.5,2.1.2.4.7-.1,1.8-1,2,.4.1.7.6.8,1.2Z"/><path class="cls-1" d="M67.2,125.3c0,0,0,0-.1.1-.4,0-.9.1-1.3.2-.6-.2-1-.5-1-.5,0,0,0,.3-.3.6-.8,0-1.6,0-2.5,0-.2-.5-.2-1,0-1.2-.7,0-1.4-.4-1.6-1.1,0-.2-.1-.5,0-.7.2-1,1.3-1.6,2.2-1.2-.4-.8,0-1.9,1-2.2.9-.3,1.8.4,1.9,1.2.6-.6,1.8-.5,2.1.2.4.7-.1,1.8-1,2,.9.3,1.1,1.9.5,2.6Z"/><path class="cls-1" d="M62,125.6c-1.1,0-2.1-.2-3.2-.5h0c.2-.4.4-1,.7-1.3.3-.4.5-.6.9-.5h0c.2.7.9,1.2,1.6,1.1-.3.2-.3.8,0,1.2Z"/><path class="cls-1" d="M51.4,95.2c0,1-1.1,1.9-2.1,1.7.4.4.5,1.1.3,1.7-.2.6-.6,1.2-1.1,1.5-1.5.6-2.6-1.6-2.6-1.6,0,0-1.8,1.8-3,.6-.7-.8-.3-2.6.4-2.8-1.1-.4-1.6-1.9-.9-2.9.7-1,2.4-1.1,3.1-.2,0-1.1,1.1-2,2.2-1.9,1.1.2,1.8,1.4,1.5,2.4.6-.2,1.2,0,1.7.3,0,0,0,0,0,0,.3.3.5.6.5,1.1Z"/><path class="cls-1" d="M76,95.2c-.3.6-1.3.8-1.8.4.1.4,0,.8-.4,1.1-.3.3-.8.6-1.1.6-1.1,0-1.1-1.8-1.1-1.8,0,0-1.7.5-2-.5,0,0,0-.2,0-.2,0-.7.7-1.5,1.2-1.4-.6-.6-.4-1.7.3-2.1.7-.4,1.8,0,2,.9.3-.7,1.3-.9,2-.5.6.4.7,1.4.2,2,.4,0,.8.3.9.7,0,0,0,0,0,0,.1.3.1.6,0,.8Z"/><path class="cls-1" d="M78.2,58.8h0c-.5.9-1.2,1.7-1.9,2.3-1.1,1-2.4,1.7-3.6,2.4.5.1.9.2,1.4.4-.2,0-1.4,1.2-1.7,1.3-.6.4-1.3.7-2,.9-1.3.4-2.6.5-3.9.2-.5-.1-.9-.4-1.2-.8h0c.9-2.2,2.3-4,4-5-1.3.3-2.6,1.2-3.7,2.5-.3.4-.6.8-.7,1.1h-.1c-.2-1.4,0-3.1.6-4.5.7-1.7,1.8-3,3.2-3.7,0,.4-.1.7-.2,1.1,1.9-2.1,4.4-3.2,6.8-3.2,0,.4-.1.7-.2,1,1-.5,2-.9,3-1,0,0,0,0,0,0,.1.7.2,2.4.3,4.8Z"/><path class="cls-6" d="M80.8,69.4c-.1,1-.3,2-.7,2.8-.4.8-1,1.4-1.8,1.5,0-2.5,0-5,0-7.2,0-3,0-5.6-.1-7.7h0c0-2.4-.2-4.1-.3-4.8,0,0,0,0,0,0-.4-1.8-1.1-3-2-3.8-1.2-2.1-2.1-7.4-2.1-9.5l-.2-.2c.6-.5,1.3-1.1,2-1.7.2-.2.3-.3.5-.5,3.5,10,6.1,20.4,4.7,31.2Z"/><path class="cls-3" d="M78.3,73.7h-.1"/><path class="cls-3" d="M76.1,38.3c0,0,0-.1,0-.2"/><path class="cls-3" d="M43.1,110.3c-.4-4.7-5.2-21.6-5.2-29.9"/><path class="cls-9" d="M29.5,36.8c3.6,7.7,30.8,26.1,31.6,26"/></svg>