<?xml version="1.0" encoding="UTF-8"?><svg id="Oceania" xmlns="http://www.w3.org/2000/svg" width="88.6" height="280.6" viewBox="0 0 88.6 280.6"><defs><style>.cls-1{fill:none;}.cls-1,.cls-2,.cls-3,.cls-4,.cls-5,.cls-6,.cls-7{stroke:#000;stroke-linecap:round;stroke-linejoin:round;stroke-width:.6px;}.cls-2{fill:#52b8e9;}.cls-3{fill:#fff;}.cls-4{fill:#000;}.cls-5{fill:#29272c;}.cls-6{fill:#c8967a;}.cls-7{fill:#3f67b1;}</style></defs><path class="cls-2" d="M40.1,139.2c0-1.1,0-2.1,0-3.2,0-1.3,0-2.6,0-3.9,0-1.1,0-2.2,0-3.4,0-2.3,0-4.7,0-7,0-1.6,0-3.1,0-4.6-1,.6-10.3,6.2-14.4,10.2-3.4-3.8-5.9-6.1-8.1-10.7-.1,1.5-.2,3-.3,4.5-.1,1.9-.2,3.9-.3,5.7,0,1.5-.1,3-.2,4.5,0,.8,0,1.6,0,2.4,0,2,0,4,0,5.9h0c0,1.8,0,3.5,0,5.2,0,.6,0,1.3,0,1.9,0,1.2,0,2.4,0,3.4h0c2.6-3.7,4.8-6.8,7.4-10.5,2.8,5.1,6.2,10,9.9,14.4l.7.5c.9-1.1,2.4-4.3,3.6-6.6.8-1.5,1.6-2.7,2-2.7,0-2-.1-4.1-.2-6.1Z"/><path class="cls-2" d="M72.1,146.7c-.2-1.4-.5-2.9-.8-4.3,0-.6-.2-1.2-.3-1.7v-.4c0-.9-.2-2.9-.3-5.7,0-1.2,0-2.5-.2-3.8,0-1.6-.1-3.2-.2-4.9,0-2.2-.2-4.6-.2-6.9,0-1.6,0-3.2-.1-4.7h-.4c-3.2,4.1-6.8,8.3-10.8,11.5-.8.6-1.7,1.3-2.7,1.4-1.3.1-2.5-.7-3.6-1.4-4.2-2.9-8.4-5.8-12.6-8.7,0,0,0,0,0,0,0,1.5,0,3.1,0,4.6,0,2.3,0,4.6,0,7,0,1.1,0,2.2,0,3.4,0,1.3,0,2.6,0,3.9,0,1,0,2.1,0,3.2,0,2,.1,4.1.2,6.1.6,0,1.3,1.5,2,3.3.6,1.7,1.2,3.5,1.9,4.8,5.1-4.7,9.1-9.7,12.7-15.6,5.2,4.5,10.4,8.9,15.6,13.4h.4c-.2-1.6-.5-3.1-.7-4.5Z"/><path class="cls-2" d="M86,106.6c0-1.2-.2-2.7-.3-4.3-.4-4.8-1-10.9-1.8-15.1-.2-1.2-.4-2.2-.7-3,0-.3-.2-.6-.3-1-4.7.8-7.8,1-12.6.9,1.6-5.7-.4-14.9-4.8-19.6-2.6.6-5.2,1.2-7.7,1.8,1.3,1.5,2.4,3.3,3,5.3-4.4,1-8.7,3.3-12.7,5.9l.2.3c1.6,1.7,2.3,4,2.6,6.4-2.9.6-5.8.8-8.7.8s-5-.2-7.5-.6c.9-2.2,2.2-5.5,3.1-7.8-3.4-3.1-7.4-5.8-11.4-6.8,1.8-.9,3.5-1.8,5.3-2.7-2.1-.4-4.2-.9-6.3-1.3h0c-4.6,3.5-11.6,11.4-11.7,17.1-1.8-1-3.6-2-5.4-3h0c-.6,1.6-1.1,3.2-1.5,4.4-.2.6-.3,1.1-.5,1.5-1.3,4.5-1.7,9.4-2,13.6,0,1.2-.1,2.3-.2,3.3h.4c5.9,0,9-.8,13.8,2.4h.3c0,1.1-.1,2.2-.3,3.4,0,0,0,0,0,0h.1c7.3-.2,14.6-.2,21.9-.1,9.9.1,19.7.5,29.6,1.2h.2c0-.7,0-1.3,0-2,6-2.4,9.8-2.3,16.1-.8Z"/><path class="cls-7" d="M72.8,151.2h-.4c-5.2-4.4-10.4-8.8-15.6-13.3-3.6,6-7.6,10.9-12.7,15.6.4.9.9,1.4,1.3,1.4,11-.3,25.3-1.2,27.4-3.4h0c0-.1,0-.2,0-.4Z"/><path class="cls-7" d="M33.9,154.2c-3.8-4.5-7.1-9.3-9.9-14.4-2.6,3.7-4.8,6.8-7.4,10.5h0c0,.2,0,.5,0,.7,0,0-.3.9,1.3,1.8,1.8,1.1,6.1,2.3,16.3,2.4.1,0,.3-.2.5-.4l-.7-.5Z"/><path class="cls-7" d="M70,111.5c0-.8,0-1.5,0-2.2h-.2c-9.8-.6-19.7-1-29.6-1.1,0,1.4,0,2.8-.1,4.1h0c0,1.6,0,3.3,0,4.9,0,0,0,0,0,0,4.2,2.9,8.4,5.8,12.6,8.7,1.1.8,2.3,1.5,3.6,1.4,1-.1,1.9-.8,2.7-1.4,4.1-3.2,7.6-7.4,10.8-11.5h.4c0-1,0-2,0-2.9Z"/><path class="cls-7" d="M18.2,108.3h-.1c0,.4,0,.9-.1,1.3-.2,2.4-.4,4.8-.6,7.1h0c2.2,4.6,4.7,6.9,8.1,10.7,4.1-4,13.4-9.6,14.4-10.2,0-1.6,0-3.2,0-4.9h0c0-1.4,0-2.8.1-4.1-7.3,0-14.6,0-21.9.1Z"/><path class="cls-6" d="M67.4,32.3c-.1,0-.3-.1-.4-.2-2.3-.8-2.8-.6-4.4,3-.2.4,2.8-17-7.5-22.8-3.1-1.8-8-1.5-13.8-1.5-5.6,0-6.1.3-9.5.8-4.9.7-8.8,13-9.4,20.4,0,.9-.1,1.7-.1,2.4,0,0,.9,4.2,2,8.5.2.7.3,1.4.5,2,1.2,4.5,1.2,5.9,3,8.2,1.3,1.8,3.6,3.8,5.7,5.3.2.2.5.3.7.5,3.4,2.2,7,3.7,10.6,3.1,1.9-.3,5-1.5,8.4-3.8,1.7-1.2,3.4-2.7,5.1-4.6,1.3-1.3,3.5-6.3,4.3-10.5h.3c1.1.7,3.2.1,4.2-2.4.8-2.1,2.9-6.8.4-8.2ZM30.9,34.9c-.5,0-1-.8-1-1.9s.4-1.9,1-1.9.9.8.9,1.9-.4,1.9-.9,1.9ZM35.6,29c-2.3-.7-7.8-.6-10.7.5.5-2,3.3-4.6,6.1-4.6,2.8,0,5.7.2,4.6,4.1ZM52.1,34.9c-.6,0-1.1-.8-1.1-1.9s.5-1.9,1.1-1.9,1.1.8,1.1,1.9-.5,1.9-1.1,1.9ZM46.7,29.1c-.7-.3-.3-1.4-.7-2.6,1.8-1.3,5.3-2,7.5-1.3.9.3,4.2,1.2,4.3,2.9-.4,1.6-6.2-.6-11.2.9Z"/><path class="cls-6" d="M54.3,58.3v1.9c-2.6,8.3-9.6,18.5-11.6,20.5,0,0,0,0,0,0-.1,0-.3.2-.4.2,0,0-6.4-12.8-7.5-19.2-.3-1.2-.2-1.6-.5-2.6,0,0,0,0,0,0,0-.1,0-.2-.1-.4,3.4,2.2,7,3.7,10.6,3.1,1.9-.3,5-1.5,8.4-3.8v.2c.5,0,.9,0,1.2.1Z"/><path class="cls-1" d="M34.1,43.7c2.2,2.1,4.7,2.1,8.2,1.6"/><path class="cls-1" d="M62.8,39.9c0,.9-.1,2-.3,3"/><path class="cls-7" d="M18.3,104.8c0,1.1-.1,2.2-.3,3.4,0,0,0,0,0,0,0,.4,0,.9-.1,1.3h-.2c-3.5-2.8-6.7-3.3-10.5-3.1-1.2,0-2.5.2-3.8.3.2-1.1.3-2.6.5-4.3h.4c5.9,0,9-.8,13.8,2.4h.3Z"/><path class="cls-1" d="M18.3,104.8c.5-8.6-.4-13.9-.3-23.8"/><path class="cls-1" d="M71.3,88.7c-.9,2-1.3,11.7-1.5,13.5,0,.5,0,2.4,0,5.2"/><path class="cls-5" d="M78.1,243.1c-.8,1.4-3.6,3.1-7.7,4.6-3.4,1.2-7.8,2.4-12.6,3.1-3.4.5-7,.8-10.8.8-6,0-11.4.1-16.2-.2-5-.3-9.2-1-12.4-2.6-2.6-1.3-4.4-3.3-5.5-6.1,0-14.6,3-68.7,4-79.2.6-5.8.2-2.6,1-10.7,1.8,1.1,6.1,2.3,16.3,2.4.1,0,.3-.2.5-.4.9-1.1,2.4-4.3,3.6-6.6.8-1.5,1.6-2.7,2-2.7.6,0,1.3,1.5,2,3.3.6,1.7,1.2,3.5,1.9,4.8.4.9.9,1.4,1.3,1.4,11-.3,25.3-1.2,27.4-3.4h0c5.8,39.1,5.2,91.6,5.2,91.6Z"/><path class="cls-1" d="M54.3,60.4v-.2"/><path class="cls-1" d="M54.3,58.3v-.2"/><path class="cls-1" d="M34.1,58.7s0,0,0-.1"/><path class="cls-5" d="M35.6,29c-2.3-.7-7.8-.6-10.7.5.5-2,3.3-4.6,6.1-4.6,2.8,0,5.7.2,4.6,4.1Z"/><path class="cls-5" d="M57.8,28.1c-.4,1.6-6.2-.6-11.2.9-.7-.3-.3-1.4-.7-2.6,1.8-1.3,5.3-2,7.5-1.3.9.3,4.2,1.2,4.3,2.9Z"/><path class="cls-1" d="M33.8,49.4c5.1,1.6,12.2,2,17.2-.7"/><path class="cls-4" d="M31.8,33c0,1-.4,1.9-.9,1.9s-1-.8-1-1.9.4-1.9,1-1.9.9.8.9,1.9Z"/><path class="cls-4" d="M53.2,32.9c0,1.1-.5,1.9-1.1,1.9s-1.1-.8-1.1-1.9.5-1.9,1.1-1.9,1.1.8,1.1,1.9Z"/><path class="cls-6" d="M24.2,42.8h0c-4.5-1.9-5-6.7-4.1-9.5.1-.4.3-.8.6-1.1.1-.1.2-.2.4-.3.3-.1.6-.2.9,0h.5c0,.9-.1,1.7-.1,2.4,0,0,.9,4.2,2,8.5Z"/><path class="cls-7" d="M86.1,109.6h0c-1.6,0-3.3,0-5,0-4.3,0-8.6.1-11.1,1.8,0-.8,0-1.5,0-2.2,0-.7,0-1.3,0-1.9,6-2.4,9.8-2.3,16.1-.8.1,1.8.2,3,.2,3Z"/><path class="cls-1" d="M70,111.5s0,0,0,0"/><path class="cls-7" d="M42.3,81c-1.4-1.5-2.9-3.1-4.6-4.6-3.4-3.1-7.4-5.8-11.4-6.8,1.8-.9,3.5-1.8,5.3-2.7-2.1-.4-4.2-.9-6.3-1.3-.6-.1-1.2-.2-1.7-.4.7-.7,1.4-1.3,2.2-1.9,2.4-1.8,5.1-3.2,8-4l.6-.2c.3,1,.2,1.4.5,2.6,1.1,6.4,7.5,19.2,7.5,19.2Z"/><path class="cls-7" d="M57.8,66.2c1.3,1.5,2.4,3.3,3,5.3-4.4,1-8.7,3.3-12.7,5.9-1.8,1.1-3.6,2.3-5.3,3.3,2-2,9-12.2,11.6-20.5v-1.9c3.8.6,7.3,2.4,10.1,5,.4.3.7.7,1,1.1-2.6.6-5.2,1.2-7.7,1.8Z"/><path class="cls-1" d="M42.7,80.8h0c0,0,0-.1,0-.2"/><line class="cls-1" x1="17.1" y1="121.2" x2="17.1" y2="121.2"/><line class="cls-1" x1="16.4" y1="139.8" x2="16.4" y2="139.8"/><path class="cls-1" d="M70.8,134.6h0"/><path class="cls-1" d="M70.6,130.8h0"/><path class="cls-7" d="M50.8,83.9c-2.9.6-5.8.8-8.7.8.2-1.3.4-2.7.6-4,0,0,0,0,0,0,1.7-1.1,3.5-2.2,5.3-3.3l.2.3c1.6,1.7,2.3,4,2.6,6.4Z"/><path class="cls-7" d="M42.7,80.8c-.2,1.3-.4,2.7-.6,4-2.5,0-5-.2-7.5-.6.9-2.2,2.2-5.5,3.1-7.8,1.7,1.5,3.2,3.1,4.6,4.6,0,0,.2,0,.4-.2Z"/><path class="cls-1" d="M69.9,107.4h0"/><path class="cls-5" d="M67.4,32.3c-.1,0-.3-.1-.4-.2-2.3-.8-2.8-.6-4.4,3-.2.4,2.8-17-7.5-22.8-3.1-1.8-8-1.5-13.8-1.5-5.6,0-6.1.3-9.5.8-4.9.7-8.8,13-9.4,20.4h-.5c-.3-.1-.6,0-.9,0v-.3c-.7-7.7,1.5-25.2,2.8-26.8,1.6-1.9,2.1-2.4,4.4-3.2C32.8,0,38.9.3,43.7.4c7.8.2,8.1-.7,15.6,1.5,1.4.4,3.8,1.5,5.5,3.6,1,1.3,5,19.5,2.6,26.7Z"/><path class="cls-6" d="M30.7,251.5c-.9,2.2-1.7,4.7-1.8,7,0,1.1.2,2,.2,3,0,.5,0,.9-.2,1.4-.4,1.2-1,2.4-1.7,3.4-3.5,1-7.1,1.2-10.7,1.3-1.5,0-3.2,0-4-1.2-.6-.8-.6-1.9-.2-2.9.4-.9.9-2.4,1.6-3.2,1.1-.5,2.1-1.1,3.2-1.6,1.1-2.9,1.6-6.8,1-9.8l.2-.4c3.2,1.7,7.4,2.4,12.4,2.6h0Z"/><path class="cls-5" d="M27.2,266.4c-1,1.4-2.3,2.6-3.7,3.5-1,.7-2.1,1.3-3.2,1.8-3.9-1.3-9.1-.3-12.6,1.8-.8,0-1.6-.2-2.4-.4,0,0,0,0,0,0-.2,0-.5-.1-.7-.2h.9c1.1-2.2,2.2-4.2,3.4-6.2.3-.5.6-1.1.6-1.7,0-.6-.2-1.3-.7-1.5v-.2c1.7-1,3.5-1.9,5.3-2.8-.7.8-1.2,2.2-1.6,3.2-.4.9-.4,2.1.2,2.9.8,1.2,2.5,1.2,4,1.2,3.6-.1,7.3-.3,10.7-1.3Z"/><path class="cls-6" d="M9.3,265c0,.6-.3,1.1-.6,1.7-1.1,2-2.2,4.1-3.4,6.1h-.9c-1.7-.4-3.3-1.1-3.2-2.9,0-1.6,1.4-3.3,2.8-4.1,1.5-.8,2.9-1.7,4.4-2.5v.2c.7.2.9.9.8,1.5Z"/><path class="cls-6" d="M79,266.3c0,1-.3,2.1-1.1,2.5-.7.4-1.5.3-2.3.2-4.6-.5-9.2-1.1-13.7-2h0c-.6-.6-1.2-1.3-1.6-2.1-.2-.5-.4-1.2-.6-2.1,0,0,0,0,0,0-.6-3.7-.7-10.3-1.8-12.1h0c4.9-.8,9.2-1.9,12.6-3.2,0,3.9,0,7.7,0,11.6,2.7,1.4,5.2,2.9,7.7,4.4.4.8.8,1.7.9,2.6Z"/><path class="cls-5" d="M85.6,276.2c-.6.4-1.4.6-2.1.7-.6,0-1.2,0-1.8,0-1-2-3.1-3.4-5.3-4-2.3-.7-4.7-.6-7.1-.6v.2c-2.2-1.1-4.1-2.4-6.3-4.2-.4-.3-.8-.7-1.2-1.1h0c4.6.8,9.1,1.5,13.7,2,.8,0,1.6.2,2.3-.2.8-.5,1.2-1.6,1.1-2.5,0-.9-.5-1.8-.9-2.6,1.6,1,3.2,2.1,4.8,3.2.1,1-.5,2-.5,3.1,0,1.2.5,2.3,1.2,3.2.7,1,1.5,1.9,1.8,3h0Z"/><path class="cls-6" d="M87.1,274.6c-.3.7-.9,1.2-1.5,1.6h0c-.4-1.2-1.2-2.1-1.8-3-.7-.9-1.3-2-1.2-3.2,0-1,.6-2.1.5-3.1,0,0,0,0,.1,0,1.3.9,2.6,1.8,3.4,3.1.1.2.2.4.3.6.6,1.2.8,2.7.2,3.9Z"/><path class="cls-6" d="M81.7,276.9c-.9-.1-1.8-.4-2.6-.6-3.8-1.2-6.9-2.2-9.8-3.8v-.2c2.5,0,4.9,0,7.2.6,2.2.6,4.3,2,5.3,4Z"/><path class="cls-1" d="M70.4,247.6h0"/><path class="cls-1" d="M81.8,277.1c0,0,0-.2-.1-.3"/><path class="cls-5" d="M85.9,279.1c-1.9,1.3-4.5,1.3-6.8,1.1-5.1-.4-10.3-1.4-14.4-4.5-3.9-2.9-6.5-8.1-5.2-12.8.2.9.3,1.7.6,2.1.4.8,1,1.5,1.6,2.1.4.4.8.7,1.2,1.1,2.1,1.8,4.1,3.1,6.2,4.2,3,1.6,6,2.6,9.8,3.8.9.3,1.7.5,2.6.6.6,0,1.2.1,1.8,0,.8,0,1.5-.3,2.1-.7.7-.4,1.2-.9,1.5-1.6.6-1.2.4-2.7-.2-3.9h0c2.2,2.3,1.6,6.6-1,8.4Z"/><path class="cls-1" d="M59.8,262.3c0,.2-.1.4-.2.6,0,0,0,0,0,0"/><path class="cls-6" d="M20.3,271.7c-3.9,1.7-8.4,2.4-12.6,1.8,3.5-2.1,8.7-3.2,12.6-1.8Z"/><path class="cls-5" d="M28.6,268.1c-1.4,1.9-3.4,3.1-5.5,4.2-4.6,2.4-9.6,4.3-14.7,4.7-2.2.2-4.6,0-6.4-1.4-1.8-1.4-2.4-4.3-.8-5.8,0,1.8,1.5,2.5,3.2,3,.2,0,.5.1.7.2,0,0,0,0,0,0,.8.2,1.6.3,2.4.4,4.2.5,8.7-.1,12.6-1.8,1.1-.5,2.2-1.1,3.2-1.8,1.4-1,2.7-2.1,3.7-3.5.8-1,1.4-2.2,1.7-3.4.1-.5.2-1,.2-1.4h.2c1.2,2,.6,4.7-.7,6.6Z"/><path class="cls-7" d="M25.7,63.3h0c-2.7,1-8.8,2.9-10.9,3.9-1.4.7-3.1,3.6-4.6,7-.4.9-.8,1.8-1.2,2.8-.4.9-.7,1.8-1,2.7h0c1.8,1,3.6,2,5.4,3.1,0-5.8,7-13.6,11.7-17h0c-.6-.2-1.2-.3-1.7-.4.7-.7,1.4-1.3,2.2-1.9Z"/><path class="cls-7" d="M81.8,79.6c-.3-1-.7-2.1-1.1-3.2-1-3-2.3-5.9-3.6-7.4-1.3-1.4-10.7-4.8-12.6-5.7h0c.4.4.7.8,1,1.1,4.4,4.7,6.4,13.9,4.8,19.6,4.8.2,7.9,0,12.6-.9-.3-1-.7-2.2-1.1-3.5Z"/><path class="cls-6" d="M81,126.6c-.8,3.7-5.9,17.6-8.8,20.1-.2-1.4-.5-2.9-.8-4.3,0-.6-.2-1.2-.3-1.7v-.4c0-.9-.2-2.9-.3-5.7,0-1.2,0-2.5-.2-3.8,0-1.6-.1-3.2-.2-4.9,0-2.2-.2-4.6-.2-6.9,0-1.6,0-3.2-.1-4.7,0-1,0-1.9,0-2.9,2.6-1.7,6.9-1.9,11.1-1.8.3,5.6.8,12.6-.1,16.9Z"/><path class="cls-1" d="M81.1,109.6c0,0,0-.2,0-.2"/><path class="cls-6" d="M18,109.6c-.2,2.4-.4,4.8-.6,7.1h0c-.1,1.5-.2,3-.3,4.5-.1,1.9-.2,3.9-.3,5.7,0,1.5-.1,3-.2,4.5,0,.8,0,1.6,0,2.4,0,2,0,4,0,5.9h0c0,1.8,0,3.5,0,5.2,0,.6,0,1.3,0,1.9h-.2c-4.2-9.5-11.1-19.6-9-40.3,3.7-.2,7,.3,10.5,3.1h.2Z"/><path class="cls-3" d="M12,76.5c-.3.5-.7,1.1-1.3,1.2-.5,0-1-.3-1.5-.6h-.1c.4-1,.8-1.9,1.2-2.8.5.6,1.8.4,2.1,1.2.1.4-.1.7-.3,1Z"/><path class="cls-3" d="M18.9,141.5c0,.2-.1.4-.3.5-.9,1.2-1.3,1.7-2.2,2.9,0-1.6,0-3.3,0-5.1.4.3.8,1,1.3,1,.5,0,1.2.2,1.1.7Z"/><path class="cls-3" d="M40.3,145.3c-.4,0-1.2,1.2-2,2.7l-.8-.2c-1.9-3.4-2.7-6.2-4.6-9.6,2.4.3,4.8.7,7.1,1,0,2,.1,4.1.2,6.1Z"/><path class="cls-3" d="M47.8,140.3c-2.1,2.5-3.8,5.3-5.2,8.2h-.4c-.7-1.7-1.3-3.2-2-3.2,0-2-.1-4.1-.2-6.1,2.6.4,5.1.7,7.7,1.1Z"/><path class="cls-3" d="M64.9,105.3c-5.4,0-10.8-.5-16.1-1.2-.5,0-1.1-.2-1.1-.7,0-.4.2-.7.5-1,1.8-1.7,3.6-3.3,5.4-5,1.9-1.7,2.3-2.5,4.5-1.1,1.6,1,3,2.6,4.1,4.1.3.4,2.6,4.9,2.7,4.9Z"/><path class="cls-3" d="M40,128.8c-2.3,0-4.6-.2-6.9-.7.5,0,4.9-6.1,6.8-6.3,0,0,0,0,0,0,0,2.3,0,4.6,0,7Z"/><path class="cls-3" d="M47.1,128c-2.3.5-4.7.7-7.1.7,0-2.3,0-4.7,0-7,2.8-.2,5.7,4.1,7.2,6.2Z"/><path class="cls-3" d="M52.9,134.1c-4.1,1.5-8.5,2-12.9,2,0-1.3,0-2.6,0-3.9,4.3.3,8.7,1,12.9,1.9Z"/><path class="cls-3" d="M40.1,136.1c-3.9,0-7.9-.5-11.8-1-2.2-.3-4.3-2.7-1.2-3.8,1.6-.5,4.9.5,6.6.6,2.1,0,4.2.1,6.3.3,0,1.3,0,2.6,0,3.9Z"/><path class="cls-3" d="M68.1,96c0,1.2-1.2,1-2.1.8-2.2-.3-4.2-1.6-5.5-3.4-.4-.6-.7-1.4-.2-1.9.4-.4,1.1-.3,1.7-.1,1.4.4,2.8.9,4,1.8.8.6,2,1.8,2.1,2.8Z"/><path class="cls-3" d="M58.7,87.6c-.3.6-.9,1.3-1.6,1.1-.6-.2-.8-.9-.9-1.5-.3-1.4-.5-2.9-.3-4.4.1-.9.6-2.6,1.6-3.1,1-.6,1.4.6,1.7,1.4.7,2.1.6,4.5-.5,6.5Z"/><path class="cls-3" d="M52.8,93.1c-1.4,1.7-3.5,2.8-5.7,3-.7,0-1.5-.1-1.7-.8-.2-.6.3-1.1.8-1.5,1.1-1,2.2-2,3.6-2.6.9-.4,2.6-.9,3.5-.3,1,.6.2,1.5-.3,2.2Z"/><path class="cls-3" d="M36.6,112.8c-.4,0-4.6-.3-4.6-.4,0,1.9,0,3.8-.5,5.6-.5,1.8-1.6,3.4-3,3.8-1.5.4-3.8,0-5.1-1.2-1.1-.9-1.1-1.3-1.7-2.7-.6-1.5-.8-4.4-.2-5.9-1.5-.2-1.6-.3-3.1-.5,0-.5-.2-1.2-.2-1.7,2.1.3,2.9.5,5.1.8-1,2.1-.6,5.1.8,6.7,1.4,1.6,3.8,1.6,5.3,0,1.5-1.6,1.9-4.6.9-6.7,1.5,0,2.9,0,4.4.1,1.4,0,2.1,0,1.9,2Z"/><path class="cls-3" d="M60,150.5c.2.2,0,.6-.2.7-.2.2-.5.2-.8.2-2.4.1-4.7.3-7.1.4,1.1-1.4,4.8-7.7,6.4-7.3,1.2.3,3,2.4,4,3.2,1.4,1.1,2.8,2.3,4.3,3.4-3.4-.2-6.3-2.2-9.1-4.2-1.1,1-2,2.3-2.4,3.8,1.6,0,3.3-.1,4.9-.2Z"/><path class="cls-3" d="M30,152.4c-.4.3-.9.3-1.3.2-.4-.2-.8-.4-1.2-.8-1.4-1.2-2.9-2.3-4.3-3.5l-1.3,1.9c1.4.2,2.9.5,3.6,1.7-1.8-.3-3.6-.9-5.3-1.7-.2,0-.3-.2-.4-.3-.2-.4.3-.9.7-1.1.9-.5,1.6-1.2,2.4-1.8,1.1-.9,1.3-.9,2.3.1,1.7,1.7,3.3,3.5,4.9,5.3Z"/><path class="cls-3" d="M20.3,126.7c-.2.3-.5.2-.8.2-1-.2-1.7.2-2.6,0h0c0-1.9.2-3.8.3-5.7,1.3,1.4,2.3,3.1,3.1,4.8,0,.2.2.5,0,.7Z"/><path class="cls-3" d="M70.8,134.6c-2.1,0-8-.3-10.1-.8-.4,0-.7-.2-1-.3-.3-.2-.5-.6-.4-.9,0-.4.5-.6.8-.7,1-.4,9.2-1.2,10.5-1.1,0,1.4.1,2.7.2,3.8Z"/><path class="cls-3" d="M20.1,134c-1.1.6-2.4.5-3.5-.1h0c0-.8,0-1.6,0-2.4h.2c1.1,0,2.4.2,3.4.6.3.1.6.3.7.6.2.5-.3,1.1-.8,1.4Z"/><path class="cls-3" d="M72.2,146.7c-1.5-.9-3.2-2.3-4.7-3.2-.3-.2-.7-.6-.5-.9.1-.2.4-.2.6-.2,1.4.1,2.5-.1,3.8,0,.3,1.4.5,2.8.8,4.3Z"/><path class="cls-3" d="M85.7,102.3h-.1c-3.2,0-6.4.3-9.5.9-.3-1-.8-1.8-1.5-2.5,1.8-.5,3.6-1.1,5.3-1.6.2,0,.5-.1.7-.3.5-.5.3-1.4,0-2-.7-1.7-1.1-3.6-.7-5.4.4-1.8,1.6-3.5,3.4-4h.6c.8,4.1,1.4,10.2,1.8,15Z"/><path class="cls-3" d="M12.5,100.8c-3.2-.9-4.4-.8-7.6-1.7h-.8c.3-4.2.7-9.2,2-13.7.1-.4.3-.9.5-1.5,2,.6,3.7,1.8,4.4,3.7.6,1.7,0,3.5-.7,5.2-.8,1.6-1.8,3.1-2.5,4.7,1.1,0,2.2.1,3.2.6,1,.5,1.7,1.6,1.5,2.6Z"/><path class="cls-3" d="M81.9,79.6h-.2c-2.5-.1-3.5-.5-5.9-.7-.3-1.1-.4-2.2-.6-3.4,2.1.5,3.5,1,5.6.9.4,1.1.7,2.2,1.1,3.2Z"/><path class="cls-3" d="M76.2,95c-1,1.1-3-1.5-3.8-2.2-.4-.4-.8-1-.5-1.5.2-.3.6-.4.9-.4.4,0,.7.2,1,.3.8.4,3.4,2.5,2.4,3.7Z"/><path class="cls-3" d="M35.6,103.8c-4.7.5-9.5.3-14.2-.6.5-2.9,4.2-5.1,6.2-6.7,2.2-1.8,2.3-1,4,1.5.5.7,3.4,5.9,4,5.9Z"/><path class="cls-3" d="M39.2,95.2c0,1.2-1,1.1-1.8,1-1.9-.2-3.8-1.3-5.1-3-.4-.5-.7-1.3-.3-1.9.3-.5,1-.4,1.5-.2,1.3.3,2.5.7,3.7,1.5.7.5,1.9,1.6,2,2.7Z"/><path class="cls-3" d="M30.3,87.5c-.2.6-.7,1.3-1.3,1.2-.5-.1-.8-.8-.9-1.4-.3-1.4-.6-2.9-.5-4.3,0-1,.4-2.7,1.2-3.2.9-.6,1.3.5,1.6,1.3.8,2,.8,4.4,0,6.5Z"/><path class="cls-3" d="M25.6,93.4c-1.1,1.8-2.9,3.1-4.8,3.4-.6.1-1.4,0-1.6-.6-.2-.6.2-1.2.6-1.6.9-1.1,1.8-2.1,3-2.8.8-.4,2.2-1,3-.6.9.5.3,1.5-.2,2.2Z"/><path class="cls-3" d="M18,92.3c-.8,1.5-2.4,2.5-4.1,2.7-.2,0-.4,0-.6,0-.2,0-.3-.3-.3-.5,0-.2.3-.5.5-.8,1-1.3,2.9-1.9,4.4-1.4Z"/><path class="cls-3" d="M67.9,114c-.5,0-5.9-.3-5.9-.4,0,1.9,0,3.8-.7,5.6-.6,1.8-2,3.4-3.8,3.8-1.9.4-5,0-6.6-1.2-1.4-.9-1.4-1.3-2.2-2.8-.8-1.5-1-4.5-.3-6-2-.3-4-.5-6-.8v-1.6c2.8.3,5.6.7,8.3,1-1.3,2.1-.8,5.1,1.1,6.7,1.9,1.6,4.9,1.7,6.8,0,1.9-1.6,2.4-4.6,1.2-6.7,1.9,0,3.8,0,5.7.1,1.8,0,2.7,0,2.5,2Z"/><path class="cls-3" d="M70.5,125.9h-.4c-1.2.3-2.5.4-3.8.1-.4,0-.7-.2-1-.4-.3-.2-.5-.6-.4-1,0-.2.2-.4.4-.6,1.6-1.7,3.1-3.4,4.7-5.1h.2c0,2.3.1,4.6.2,6.9Z"/></svg>