<?xml version="1.0" encoding="UTF-8"?><svg id="Oceania" xmlns="http://www.w3.org/2000/svg" width="63.3" height="196.6" viewBox="0 0 63.3 196.6"><defs><style>.cls-1{fill:#e5c1ae;stroke-width:.6px;}.cls-1,.cls-2,.cls-3,.cls-4,.cls-5,.cls-6,.cls-7,.cls-8{stroke:#000;stroke-linecap:round;stroke-linejoin:round;}.cls-2{fill:#d91f26;}.cls-2,.cls-3,.cls-4,.cls-5,.cls-6,.cls-7,.cls-8{stroke-width:.6px;}.cls-3{fill:none;}.cls-4{fill:#1c130d;}.cls-5{fill:#bf9465;}.cls-6{fill:#4c3214;}.cls-7{fill:#fff;}.cls-8{fill:#000;}</style></defs><path class="cls-2" d="M19.9,45.3c-.3.7-.6,1.4-.7,2-.2.8-.3,1.5-.4,2.1h0c-.2.5-.4,1-.5,1.5-.1.3-.2.7-.3,1-.5,1.7-.7,3.4-1,5.4-.1,2.4-.1,4.4,0,6.2h0c-2.9-.7-5.1-1.4-6-3.7-.2-.4-.3-.9-.4-1.4.4-2.1,1.1-4,1.9-5.6,0-.2.2-.4.3-.5.6-1.1,1.2-2,1.9-2.8h0c1.8-2.3,3.8-3.7,5.1-4.1h.1Z"/><path class="cls-2" d="M56.6,59.5c-.2.2-.5.3-.7.5-.1,0-.2.1-.3.2-.1,0-.2.1-.3.2-.2.1-.4.2-.7.4-.6.3-1.2.6-1.7.8-.2,0-.4.2-.6.2-1.1.4-2.1.6-3.1.8-.4,0-.8.1-1.2.2,0,0,0,0,0,0h0c-.3,0-.6,0-.9.1-.3,0-.7.1-1,.2-.3,0-1-3.3-1.6-5.8,0,0,0-.4-.2-1-.2-1.3-.5-3.5-.5-3.5,1.3-4.8,2.3-6.1,4.7-6.2.6,0,1.4,0,2.3.2,1.5.3,5.9,5.9,6,12.8Z"/><path class="cls-2" d="M53.6,140.3c-.2-8.5-.6-18.1-1.4-25.7-.1-1.4-.3-2.8-.4-4-.3-2.5-.7-4.6-1.1-6.3-.1-.5-.2-1-.4-1.4,0-.2,0-.5-.1-.9-.4-2.2-1.8-7.1-3-11.9-.1-.5-.2-1-.4-1.5-.1-.4-.2-.8-.3-1.2-.4-1.8-.8-3.6-1.1-5.1-.3-1.4-.5-2.6-.5-3.5,0-.2,0-.4,0-.7,0-1.2,0-2.6.2-4.1,0,0,0,0,0,0,0-.2,0-.3,0-.5.1-1.5.3-3,.4-4.3,0-.4.2-1.1.3-1.8.4-1.7.9-3.9,1.2-4.5h0c-.3,0-.7,0-1,.1-.3,0-1-3.3-1.6-5.8,0,0,0-.4-.2-1-.2-1.3-.5-3.5-.5-3.5,1.3-4.8,2.3-6.1,4.7-6.2h0c-.5-.1-.9-.2-1.4-.2-1.2-.2-2.5-.3-3.8-.5h0c-3.4,2.1-3.9,5.4-5.6,9-.3.6-.6,1.3-1.2,1.7-.6.3-1.3.3-1.9.2-1.8-.1-9.6-.7-11.4-.8-.1,0-.3,0-.4,0,0,.2,0,.3,0,.5,0,.6,0,1.3.2,1.9.3,2.4.8,4.7,1.2,7.1.2,1,.3,2,.5,3.1,0,.6,0,1.2-.2,1.7-.1.2-.3.4-.5.6,0,0-.2,0-.3-.2-.5-.9-1.6-3.7-2.5-6.8-.8-2.5-1.5-5.2-1.9-7.2-.2-1.1-.4-2.1-.3-2.6,0-.9,0-1.6,0-2.2-.3,0-.6,0-.8.1-.5,1.7-.7,3.4-1,5.4-.1,2.4-.1,4.4,0,6.2,0,1.1.2,2.2.3,3.1h0c.4,3.4,1,5.6,1.2,6.8.2,2.2.3,4.3.2,6.8,0,1-.1,2.1-.2,3.3,0,.3,0,.7-.1,1h0c0,.9-.2,1.8-.4,2.8,0,.2,0,.3,0,.5,0,.1,0,.2,0,.3-.3,2.1-.7,4.4-1.2,7-.2,1.4-.5,2.8-.8,4.3-.3,1.1-.7,3-1,5.3-.2,1.4-.4,2.9-.6,4.6-.1.9-.2,1.8-.3,2.7,0,.7-.2,1.5-.3,2.3-.3,3-.7,6.2-1,9.6,0,.5,0,.9-.2,1.4-.2,2.4-.5,4.9-.7,7.4-.2,2.2-.4,4.3-.6,6.4-1.1,11.8-2,22.2-2.5,24.6,1,.4,2.2.8,3.4,1.1,3.2.8,6.9,1.4,11.4,1.8,2.7.2,5.7.3,8.9.3,3.7.5,6.6.4,9.2,0,3.9-.7,7.1-2.2,11.3-4h0c.3-.2.7-.3,1.1-.5,0,0,0-10.1-.2-22.2Z"/><line class="cls-3" x1="52.8" y1="184.2" x2="52.8" y2="184.1"/><path class="cls-6" d="M27.6,41.2c0,.4.5,2.9-.9,4.1-3.1,2.4-4.3,6.6-4.2,10.5,0,.2,0,.3,0,.5,0,.6,0,1.3.2,1.9.3,2.4.8,4.7,1.2,7.1.2,1,.3,2,.5,3.1,0,.6,0,1.2-.2,1.7-.1.2-.3.4-.5.6,0,0-.2,0-.3-.2-.5-.9-1.6-3.7-2.5-6.8-.8-2.5-1.5-5.2-1.9-7.2-.2-1.1-.4-2.1-.3-2.6,0-.9,0-1.6,0-2.2h0c0,0,.1,0,0-.1,0,0,0-.1-.1-.1,0-.7,0-1.3,0-2.1h0c0-.6.2-1.2.4-2.1.2-.6.4-1.3.7-2,1.2-2.6,3.3-5.6,5.1-7h.2c.8.9,1.6,2,2.6,2.8h0Z"/><path class="cls-5" d="M43.1,45.7h0c-3.4,2.1-3.9,5.4-5.6,9-.3.6-.6,1.3-1.2,1.7-.6.3-1.3.3-1.9.2-1.8-.1-9.6-.7-11.4-.8-.1,0-.3,0-.4,0,0-3.9,1.1-8.2,4.2-10.5,1.3-1.2.8-3.7.9-4.1h0c2.1,1.7,4.8,2.2,10-1.2l.2.2c0,2.2,0,3.4,0,4.9,1.1.2,3,.3,5.2.6Z"/><path class="cls-4" d="M19.3,188.2c-3.2,4-10.3,5.9-15.6,4.6-1.4-.3-2.9-.8-2.8-2.2,0-1.1,1-2.2,2-2.8,1.9-1.1,4.5-2.4,6.9-3.7h0c-.5.6-.8,1.6-1.1,2.2s-.3,1.4.1,2c.6.8,1.8.8,2.8.8,2.6,0,5.2-.2,7.7-.9Z"/><path class="cls-5" d="M56.5,186.8c0,.7-.2,1.4-.8,1.7-.5.3-1.1.2-1.6.2-3.2-.3-6.4-.8-9.6-1.3h0c-.5-.4-.9-.9-1.2-1.4-.3-.5-.4-1.2-.2-1.8,0-.4.2-.8.4-1.1,0-5.4-.9-10.2-2-16.1,3.9-.7,7.1-2.2,11.3-4-.6,6.6-1.9,11.8-1.8,18.6,1.2,1,3,2.3,5,3.7h0c.3.5.5,1.1.6,1.6Z"/><path class="cls-4" d="M62.2,192.5c-.5.9-1.5,1.4-2.6,1.6-1,0-2.1-.2-3.1-.5-4.5-1.3-7.6-2.5-11.2-5.4-.3-.2-.6-.5-.8-.7h0c3.2.5,6.4,1,9.6,1.3.6,0,1.2.1,1.6-.2.6-.3.8-1.1.8-1.7,0-.6-.3-1.1-.6-1.6,1.1.7,2.2,1.4,3.4,2.1.9.5,1.8,1.2,2.4,2.1,0,.1.2.2.2.4.5.8.6,1.8.2,2.6Z"/><path class="cls-3" d="M45,187.5c-.2,0-.3,0-.5-.1"/><path class="cls-3" d="M56,185.2c0,0,0-.1-.1-.2"/><path class="cls-5" d="M23.3,166.7c-1.2,6.2-2.2,11.5-2.2,17.1,0,.5-.1,1-.2,1.5-.3,1.1-.8,2.1-1.5,2.9-2.5.8-5.1.8-7.7.9-1,0-2.2,0-2.8-.8-.4-.6-.4-1.3-.1-2s.7-1.6,1.1-2.1h0c1.3-.8,2.6-1.4,3.8-1.9,0-6.3-.9-11.3-1.6-17.4h0c3.2.8,6.9,1.4,11.4,1.8Z"/><path class="cls-3" d="M19.7,188.1c-.1,0-.2,0-.4.1"/><path class="cls-4" d="M61.4,195.5c-1.4.9-3.1.8-4.8.7-3.6-.3-7.2-1-10.1-3-2.9-2.1-4.7-5.8-3.5-9.1h0c-.1.7,0,1.3.2,1.8.3.6.7,1,1.2,1.4.3.2.5.5.8.7,3.6,3,6.7,4.1,11.2,5.4,1,.3,2,.6,3.1.5,1-.1,2.1-.6,2.6-1.6.4-.8.3-1.8-.2-2.6h0c1.5,1.6,1.2,4.5-.7,5.7Z"/><path class="cls-4" d="M20.2,189.4c-1,1.3-2.4,2.1-3.8,2.9-3.2,1.6-6.7,2.9-10.3,3.2-1.6.1-3.2,0-4.5-.9-1.2-.9-1.7-2.9-.5-4,0,1.4,1.4,1.9,2.8,2.2,5.3,1.3,12.4-.6,15.6-4.6.7-.9,1.2-1.9,1.5-2.9.6,1.3.2,3-.7,4.1Z"/><path class="cls-3" d="M20.8,185.3c0-.1,0-.2-.2-.3"/><path class="cls-1" d="M19.8,91.8s0,0,0,0c-.7,1.5-1.8,2.7-3.1,3.4.5-2.7.9-5,1.2-7,0,.3,0,.7,0,1,.9.4,2,1.6,2,2.7Z"/><path class="cls-1" d="M45,74c-.1,1.5-.2,2.9-.2,4.1h0c-.8,1.1-2,1.9-3.3,2.2.4-1.2.6-2.4.6-3.8h0c.9.3,2.5-1.4,2.9-2.5Z"/><path class="cls-1" d="M13.7,56s0,0,0,0c-.5,1.7-.9,3-2.6,3.6,0,0,0,0,0,.1-.2-.4-.3-.9-.4-1.4.4-2.1,1.1-4,1.9-5.6.8,0,1.3,2.2,1.1,3.4Z"/><path class="cls-1" d="M21.1,63.6c-1.6-1-2.8-1.9-2.9-2.2l-.7-5.8c.4.1.3,0,1.8.7.4,2,1.1,4.7,1.9,7.2Z"/><path class="cls-1" d="M43.8,56.1l-1.9,5.8c-2,1.7-13.7,5.2-15.3,4.8-.4-.1-1.2-.6-2.5-1.3-.4-2.4-1-4.7-1.2-7.1,2.1,1.1,4.1,2.1,4.8,2.4,1.1.5,12.3-3.2,16.2-4.6Z"/><path class="cls-1" d="M53,140.3c0,1.6-.4,3.2-1.3,4.4,0,0-.2-1.3-.8-2.3-1.2-2.2-3-4.1-5.1-5.4,2.4,2.3,4,5.5,4.3,8.9h0c-.7.3-1.4.3-2.2.2-2-.3-3.9-1.2-5.6-2.3-.9-.6-1.7-1.3-2.4-2-.3-.3-1.5-2.2-1.8-2.3.7.1,1.4.2,2.1.3-1.5-1.4-2.9-2.8-4-4.4-1.1-1.6-1.9-3.6-1.9-5.6.6,0,1.2.2,1.8.3-.9-1.1-1.4-2.5-1.3-3.9,2.4.5,4.7,1.7,6.5,3.4,0-.4.1-.8.2-1.2,3.5,1.2,6.4,3.8,8.2,7,.1-.4.2-.8.3-1.3,1.6,1.4,2.6,3.4,2.8,5.5,0,.2,0,.5,0,.7Z"/><path class="cls-1" d="M32.9,84c-.4-.1-.8-.3-1.3-.4.5.9.7,2,.4,3-1.7-.7-3.2-1.9-4.2-3.4-.1.3-.2.6-.3.8-2.3-1.4-4.2-3.6-5.1-6.2-.1.3-.2.6-.4.9-1-1.2-1.5-2.9-1.3-4.4.1-1.3.7-2.7,1.6-3.5,0,0,0,1,.3,1.8.6,1.8,1.6,3.4,3,4.6-1.4-1.9-2.1-4.4-2-6.8.1.2.2.3.3.2.2-.1.4-.3.5-.6.3,0,.6,0,.8.2,1.4.5,2.7,1.4,3.7,2.4.6.5,1,1.1,1.5,1.8.2.2.8,1.8,1,1.9-.5-.2-1-.3-1.5-.5.9,1.2,1.8,2.4,2.4,3.8.6,1.4.9,2.9.6,4.3Z"/><path class="cls-1" d="M29.8,149.2c.5.1,1,.3,1.5.4-.7,2.2-2,4.1-3.6,5.4-1.5,1.4-3.2,2.3-4.9,3.3.6.2,1.2.3,1.8.5-.3,0-1.9,1.6-2.3,1.8-.9.5-1.8,1-2.7,1.3-1.8.6-3.6.7-5.4.3-.7-.1-1.2-.5-1.7-1.1h0c1.2-3,3.2-5.5,5.5-6.8-1.8.5-3.6,1.6-5,3.4-.4.5-.8,1.1-1,1.5h-.2c-.3-1.9,0-4.2.9-6.2.9-2.3,2.5-4.1,4.3-5,0,.5-.2,1-.2,1.5,2.6-2.8,6-4.4,9.3-4.4,0,.5-.2,1-.3,1.4,2.1-1.2,4.4-1.6,6.5-1.2-.4,1.6-1.4,3-2.5,3.8Z"/><path class="cls-1" d="M54.6,60.7h0c-.6.3-1.2.6-1.7.8h0c-.3-1.3-.8-1.7-1.7-2.7.6,1,1,1.7,1.1,2.9h0c-1.1.4-2.1.6-3.1.8h0c-.2-.2-.4-.4-.6-.6-.4-.4-.7-.9-1-1.4-.1-.2-.5-1.4-.6-1.4.3.2.7.3,1.1.4-.6-.9-1.1-1.8-1.5-2.8-.4-1-.5-2.1-.2-3.1.3.1.6.2.9.4-.3-.7-.4-1.5-.1-2.2,1.2.6,2.2,1.5,2.9,2.6,0-.2.2-.4.3-.6,1.6,1.1,2.8,2.8,3.3,4.7.1-.2.2-.4.3-.6.7.9,1,1.7.8,2.8Z"/><path class="cls-1" d="M25.6,110c1.1,1.5,1.4,3.7.9,5.5-1-1.1-2.4-1.8-3.8-2-1,2.3-2.7,4.1-4.8,5.2.2-1.5.2-3.1,0-4.7-1.4.6-2.9.8-4.3.5,0-.8.2-1.5.3-2.3.5-.4,1-.9,1.4-1.4h0c-.4-.4-.8-.8-1.1-1.3.2-1.7.4-3.2.6-4.6.7.1,1.3.2,1.8.4.3-3.1,1.8-4,4.5-4.5-1.3.3,0,4.6,0,4.6h0c.3,0,2.4-.3,3.2-.4,1.4-.1,2.7.1,4,.8-1.7.6-4.6,3.4-3.9,3.1,0,0,.9.7,1.2,1.1Z"/><path class="cls-1" d="M20.8,88.7s0,0,.1,0c-.5,0-2.4,0-3.1.4,0-.3,0-.6,0-1,0-.1,0-.2,0-.3.1-.6.4-1.1.8-1.5h0c.2,0,1.6-.2,2.2-.3.9,0,1.8,0,2.7.5-1.2.4-3.1,2.3-2.7,2.1Z"/><path class="cls-1" d="M22.3,93.2c-.7-.7-1.6-1.2-2.5-1.3,0-1.1-1.1-2.3-2-2.7.7-.4,2.6-.4,3.1-.4.2.1.6.4.7.7.7,1,1,2.5.6,3.7Z"/><path class="cls-1" d="M48.1,164.3c-.7-1-1.5-2-2.5-2.8.9-.9-.3-3.7-1.1-3.8,1.1-.3,3.1-.2,3.8.9,0,0,0,0,0,0,.6,1.9.5,3.9-.2,5.6Z"/><path class="cls-1" d="M51.6,157.9c-1.2,0-2.3.2-3.2.8-.8-1.1-2.8-1.2-3.8-.9.2-.9,2-2.4,2.4-2.7h0c.3,0,.8,0,1.2,0,1.5.3,2.8,1.4,3.5,2.8Z"/><path class="cls-1" d="M46.8,155.1h.1c-.4.3-2.2,1.8-2.4,2.7-.9-.7-1.7-1.9-1.4-3.1h0c.1-.1,1.2-1.4,1.7-2,.7-.8,1.7-1.4,2.8-1.6-.7,1.2-1,4.5-.8,3.9Z"/><path class="cls-1" d="M45.7,161.6s0,0,0,0c-.8,1.6-2.2,2.8-3.9,3.2.4-1.2.6-2.4.6-3.8h0s0,0,0,0c1,.4,2.3-2.1,2.2-3.2.8,0,2,2.9,1.1,3.8Z"/><path class="cls-1" d="M44.5,157.8c-1.1.5-4,.1-4-.8h-.2c-1.4-2.1-1-3.3.3-5.1-.7.9,2.4,2.8,2.4,2.8h0s0,0,0,0c-.2,1.2.5,2.4,1.4,3.1Z"/><path class="cls-1" d="M42.3,160.9h0c-2.2-.3-4.2-.7-4.9-2.8,1,.3,2-.9,2.9-1.1h.2c0,.9,2.9,1.2,4,.8.1,1.1-1.2,3.5-2.2,3.2Z"/><path class="cls-1" d="M45.8,67.3c-.1.8-.3,1.4-.3,1.8-.1,1.3-.3,2.8-.4,4.3-.9-.7-2.4-2-2.2-3.2h0s0,0,0,0c.1-.1,1.2-1.4,1.7-1.9.4-.4.7-.7,1.2-.9Z"/><path class="cls-1" d="M45.1,73.4c-1.1.5-4.4,0-4.9-.9-1.4-2-1-3.3.3-5.1-.7.9,2.4,2.8,2.4,2.8,0,0,0,0,0,0h0s0,0,0,0c-.2,1.2,1.3,2.5,2.2,3.2Z"/><path class="cls-1" d="M45.1,73.4c0,.2,0,.3,0,.5,0,0,0,0,0,0-.4,1.2-2,2.9-2.9,2.5h0c-2.2-.3-4.2-.7-4.9-2.9,1,.3,1.9-.9,2.9-1.1.5.9,3.8,1.4,4.9.9Z"/><path class="cls-1" d="M18.4,50.8c-.1.3-.2.7-.3,1-.8.2-1.5.5-2.1,1-.8-.9-2.1-1.1-3.1-.7.6-1.1,1.2-2,1.9-2.8h0c.1,0,.3,0,.5,0,1.1.1,2.2.7,3.1,1.5Z"/><path class="cls-1" d="M16.5,58.5c-.8-.9-1.8-1.8-2.8-2.4.3-1.1-.3-3.3-1.1-3.4,0-.2.2-.4.3-.5,1-.4,2.3-.2,3.1.7,0,0,0,0,0,0,.8,1.8,1,3.8.6,5.6Z"/><path class="cls-1" d="M17.4,138.7c3.1-.3,6.4,1,8.5,3.4-2.6-.8-5.4-.7-8,.1-2.8.9-4.2,2.5-6.1,4.6,0-2.8-.1-4.7-.7-7.5.2-2.1.4-4.3.6-6.4.9,1.5,1.3,2.8,1.7,4.5,1.2-1.1,1-3,.6-4.6-.6-2.8-1-4.4-1.6-7.2,0-.5.1-.9.2-1.4,2.4,2,3.5,4.4,3.9,7.5,2.2-3.5,3.5-7.4,3.8-11.5.6,2,.9,4.1.8,6.1-.2,2.5-.8,4.9-2.1,7.1,1.4-1.2,3.5-1.4,5.4-.9,1.8.5,3.4,1.5,5,2.6-4.2-1.7-9.4,0-12,3.7Z"/><path class="cls-1" d="M51.7,115.7c-1.4,2.9-1.2,5.3-1.1,8.4-5.3-5-11.8-8.8-18.8-10.9,4.3-.8,8.8,0,12.5,2.4,0-1.8-1.7-3.1-3.2-4.1-2.9-1.8-5.9-3.6-8.8-5.5,3.5-.4,7,.6,9.9,2.6-1.1-4.4-3.3-8.5-6.2-11.9,4.6,2.2,8.1,6.4,9.6,11.3.2-2,2.9-4.9,4.7-6,0,.4.1.7.1.9.1.4.3.9.4,1.4-2.1,2.6-2.9,5.8-2.2,9.1,1-1.2,1.9-2.1,3.3-2.8.2,1.3.3,2.6.4,4-.3.4-.3.6-.6,1.1Z"/><path class="cls-1" d="M34.2,125.4c-.3.3-.6.5-1,.5-.9,0-1.8-.7-1.8-.7,0,0-.8,2.2-2.2,1.7-.2,0-.4-.2-.6-.4,0,0,0,0,0,0-.5-.6-.6-1.7-.2-2.1-.8.1-1.6-.5-1.9-1.3,0-.2,0-.5,0-.8.2-1.1,1.6-1.9,2.6-1.4-.4-.9.1-2.2,1.1-2.5,1-.3,2.1.4,2.2,1.4.7-.7,2-.6,2.4.2.5.8-.1,2.1-1.1,2.3,1,.3,1.3,2.2.6,3Z"/><path class="cls-1" d="M28.6,126.5s0,0,0,0h0c-.3.4-.8.7-1.3.7s-1-.2-1.3-.6c-.1-.2-.3-.4-.5-.5-.5-.3-1.1-.1-1.7,0,.4-.2.7-.7.9-1.2.2-.5.4-.9.7-1.3.3-.4.5-.7.9-.6h0s.1,0,.1,0h0c.2.8,1.1,1.4,1.9,1.3-.4.3-.3,1.4.2,2.1Z"/><path class="cls-1" d="M43.4,89.8c.8.6.7,1.9,0,2.5-.8.5-2.1,0-2.3-.9-.2,1-2.1,1.4-3,.8-1.2-.9,0-2.8,0-2.8,0,0-2.3-.6-1.9-2.1,0-.2.2-.4.4-.6.6-.5,1.7-.7,2-.3-.2-.8.4-1.7,1.2-2,.2,0,.5-.1.8-.1,1.1.1,2,1.4,1.6,2.5.9-.5,2.2,0,2.5.9.4.9-.3,2.1-1.3,2.3Z"/><path class="cls-1" d="M38.6,86.2c-.4-.4-1.4-.2-2,.3h0c-.4-.3-.7-.8-.8-1.3,0-.2,0-.4,0-.5,0-.3.2-.6.4-.8.2-.2.4-.3.5-.5.3-.5,0-1.1-.2-1.7.3.4.7.7,1.2.8.5.2,1,.3,1.4.6.4.3.7.4.7.9h0c-.8.4-1.3,1.3-1.2,2.1Z"/><path class="cls-1" d="M35.1,161.9c0,1-1,1.8-2,1.6.4.4.4,1,.3,1.6-.2.6-.6,1.2-1,1.4-1.3.6-2.4-1.4-2.4-1.4,0,0-1.7,1.7-2.8.5-.7-.7-.3-2.4.4-2.6-1.1-.4-1.5-1.8-.9-2.7.7-.9,2.2-1,2.9-.2,0-1,1.1-1.9,2.1-1.7,1,.2,1.7,1.3,1.3,2.2.5-.2,1.1,0,1.6.3,0,0,0,0,0,0,.3.2.5.6.5,1Z"/><path class="cls-1" d="M38.3,163.9c-.5-.2-1.2,0-1.6.3-.3.2-.6.6-.9.8-.7.5-1.6.6-2.3.2h0c.2-.6.1-1.3-.3-1.6.9.2,2-.6,2-1.6,0-.4-.2-.7-.5-1,0,0,0,0,0,0,0,0,.4-.4,1.5.1,1.6.8,2.1,2.6,2.3,2.8Z"/><path class="cls-1" d="M32.6,98.8c-.3.7-1.5,1-2.1.4.1.4,0,.9-.4,1.3-.4.4-.9.7-1.3.7-1.2,0-1.3-2-1.3-2,0,0-1.9.6-2.3-.6-.3-.8.7-2,1.3-1.8-.7-.7-.5-1.9.4-2.4.8-.4,2.1,0,2.3,1,.4-.8,1.5-1,2.2-.5.7.5.8,1.6.2,2.2.5,0,.9.4,1.1.8,0,0,0,0,0,0,.1.3.2.7,0,1Z"/><path class="cls-1" d="M34.3,101.5c-.4-.3-.9-.5-1.4-.4-.3,0-.6.2-1,.3-.7.1-1.5-.2-1.8-.8h0c.4-.4.6-.9.4-1.4.6.5,1.8.3,2.1-.4.1-.3.1-.7,0-1,0,0,0,0,0,0,0,0,.5-.2,1.1.7.9,1.3.6,2.8.6,3Z"/><path class="cls-5" d="M49.7,24.4c0-1.8-1.2-2.6-2.7-1.7-.8.5-5.3-4.4-5.9-5.1-1.7-2-3-4.2-4.4-6.3-.5-.9-1.5-3-2.4-3.4-1-.3-3.3.8-4.2,1.1-3,1.2-5.5,3.2-7.8,5.5-3.1,3.2-3,8.5-2.7,12.7h0c.6,2.2,1.3,4,2.1,5.5,1,2.1,1.9,3.5,2.6,4.3.3.4.6.8.9,1.2.8,1.1,1.6,2.1,2.6,2.9,2.1,1.8,4.8,2.3,10-1.1,1.5-1,3.1-2.3,5-3.9,2.3-2.4,3.8-5.4,4.4-8.7,1.7.8,2.6-1.2,2.5-3.1ZM23.9,23.9c-.5,0-.9-.8-.9-1.8s.4-1.8.9-1.8.8.8.8,1.8-.4,1.8-.8,1.8ZM34.4,34.9c-1.2.8-3.2,1.3-4.4,1.1-2-.3-2.9-1.2-3.8-2.8,3.3,1.5,10,0,10.7-.8-1.4,2.1-1.4,1.7-2.5,2.4ZM38,24.4c-.6,0-1-.9-1-2s.5-2,1-2,1,.9,1,2-.5,2-1,2Z"/><path class="cls-7" d="M37,32.5c-1.4,2.1-1.4,1.7-2.5,2.4-1.2.8-3.2,1.3-4.4,1.1-2-.3-2.9-1.2-3.8-2.8,3.3,1.5,10,0,10.7-.8Z"/><path class="cls-3" d="M22.5,18.3c.6-1.5,1.9-1.3,2.5-.5"/><path class="cls-3" d="M37.1,18c1.2-1.2,2.8-.6,3,.4"/><path class="cls-8" d="M24.7,22.2c0,1-.4,1.8-.8,1.8s-.9-.8-.9-1.8.4-1.8.9-1.8.8.8.8,1.8Z"/><path class="cls-8" d="M39,22.4c0,1.1-.5,2-1,2s-1-.9-1-2,.5-2,1-2,1,.9,1,2Z"/><path class="cls-3" d="M27.7,28.3c0,.6,1.3,1.9,3.2,2.2"/><path class="cls-6" d="M49.7,24.4c0-1.8-1.2-2.6-2.7-1.7-.8.5-5.3-4.4-5.9-5.1-1.7-2-3-4.2-4.4-6.3-.5-.9-1.5-3-2.4-3.4-1-.3-3.3.8-4.2,1.1-3,1.2-5.5,3.2-7.8,5.5-3.1,3.2-3,8.5-2.7,12.7h0c.6,2.2,1.3,4,2.1,5.5-2.4-1.8-5-8.1-5.4-11.1-.4-3,0-4.9.4-7.9.5-2.7,1.4-5.2,4.5-8.7C24.4,1.4,30.6-.6,36.4.7c4.2.9,9.7,2.4,12,6.7,2.3,4.2,4.8,13,1.3,17Z"/><path class="cls-5" d="M18.3,83.5c-.1.2-.1.6-.1,1h0c0,.9-.2,1.8-.4,2.8h-.1c-4.2-2.7-12.1-8.6-10.5-12.8.3-.8,3.1-12.1,3.8-14.8.9,2.3,3.1,3,6,3.7h0c0,1.1.2,2.2.3,3.1h0c-.7,3.2-2,9.6-2.2,9.4l-.2.2c1.3,1.2,2.3,2.5,3.6,4h0c0,1-.1,2.1-.2,3.3Z"/><path class="cls-3" d="M14.9,76.2c-.8-.8-1.8-1.5-3-2.3"/><path class="cls-5" d="M53.7,84.1c-2.5,1.4-4.5,2.8-7,4.5-.1-.4-.2-.8-.3-1.2-.4-1.8-.8-3.6-1.1-5.1.5-.4,1.5-1.3,2.9-2.5,1.8-1.6,2.8-3.2,4.1-4.4-.3-.6-3.5-9.9-4.4-12.1v-.6c.3,0,.7,0,1.1-.2,1-.2,2-.4,3.1-.8.2,0,.4-.1.6-.2.5-.2,1.1-.5,1.7-.8.2-.1.4-.2.7-.4.1,0,.2-.1.3-.2h.5c1.2,2.8,5.3,13.8,5.5,15.7.5,3.9-4.4,6.4-7.8,8.3Z"/><path class="cls-3" d="M54.9,73.6c-1.1.4-1.9,1-2.6,1.6"/></svg>