<?xml version="1.0" encoding="UTF-8"?><svg id="Oceania" xmlns="http://www.w3.org/2000/svg" width="107" height="161" viewBox="0 0 107 161"><defs><style>.cls-1{fill:#010101;}.cls-1,.cls-2,.cls-3,.cls-4,.cls-5,.cls-6{stroke-width:0px;}.cls-2,.cls-7{fill:#c8967a;}.cls-8,.cls-9{fill:none;}.cls-8,.cls-9,.cls-7{stroke:#000;stroke-width:.6px;}.cls-8,.cls-7{stroke-linecap:round;stroke-linejoin:round;}.cls-9{stroke-miterlimit:10;}.cls-3{fill:#29272c;}.cls-4{fill:#52b8e9;}.cls-5{fill:#fff;}.cls-6{fill:#3f67b1;}</style></defs><path class="cls-3" d="M102.8,5.2c.9,1.1,4.5,17.8,2.4,24.4-.1,0-.2-.1-.4-.2-2.1-.8-2.6-.6-4,2.7-.2.4,2.6-15.5-6.8-20.9-2.8-1.6-7.3-1.4-12.6-1.4-5.1,0-5.6.3-8.7.7-4.5.7-8,11.8-8.6,18.6h-.4c-.2-.1-.5,0-.8,0v-.2c-.7-7.1,1.3-23.1,2.6-24.5,1.5-1.7,1.9-2.2,4.1-3,4.1-1.5,9.7-1.1,14-1,7.2.2,7.4-.6,14.3,1.4,1.3.4,3.5,1.3,5,3.3Z"/><path class="cls-4" d="M71.3,81.3v.3c-.3,0-.6.2-.9.4-.4.3-.7.9-.5,1.4.3.7,1.3.7,2,.5.8-.2,1.6-.3,2.2-.9.6-.6.7-1.6,0-2.1-1,.1-1.9.3-2.8.4ZM86,78.1h0c.3,0,.5-.1.8-.2,6.6-1.4,9.5-5.1,7.7-11.3-.7-2.5-2-4.4-3.8-5.8v-1.1c1.7,0,4-.2,4.8-1.7,1.7,1.7,3.9,6.6,4.1,9.1.3,3.3.2,4.3-.2,8.9-.2,2.1-.3,4.2-.4,6.4h-.7c-1.2,2.9-2.3,6-3.2,9.1,1,.2,2.1,0,3-.7h.4c0,.9-.1,1.7-.2,2.6-2.5,2.8-6.7,3.1-10.5,2.8-7.6-.5-15-2.3-22-5.1.3-3.1.7-6.4,1.1-9.3,3.2-.5,6.2-1,9.4-1.6.3.8.9,1.6,1.8,1.5.8-.1,1.4-1,1.4-1.8v-.3c2-.4,4.1-.9,6.4-1.3ZM86.9,87.3c.3-2.5-1.9-5.1-4.4-5.2l-.2.2c-.3,1.3.1,2.7,1,3.7s2.3,1.5,3.6,1.3ZM82.9,93.4c-.5-3.2-1.8-7-4-9.5-1.6-1.9-2.2-.7-3.8.9-1.2,1.2-2.2,2.5-3.2,3.9-.3.4-.5.8-.5,1.3,0,1,1.1,1.6,2.1,1.9,3,.9,6.2,1.4,9.4,1.5Z"/><path class="cls-5" d="M98.4,82.3h.7c-.2,2.9-.3,5.7-.5,8.5h-.4c-.9.6-2,.8-3,.7.9-3.1,2-6.1,3.2-9.1Z"/><path class="cls-6" d="M66.1,97.2l-.4.3c-.1,0-.2,0-.3,0,0-2,.3-4.2.5-6.6,7,2.9,14.5,4.6,22,5.1,3.7.3,8,0,10.5-2.8,0,.5,0,1-.1,1.5-.5,6.1-.6,9.5-.6,12.9-1.7-3.2-4.2-5.9-7.2-7.8-3.2,5.2-7.9,9.6-13.4,12.5-3.7-5-7.3-10.1-11-15.1ZM83,100.7c1.1.4,2.1.7,3.2,1.1-.5-.6-.8-1.7-1.4-2.2-.5-.5-3.4-.8-3.5-1.1.4,1.4-.3,3-1.6,3.7-1.3.7-3,.4-3.9-.7-.5-.6-.8-1.4-.8-2.1,0-.7.2-1.3.6-1.9-1.8-.4-3.6-.8-5.4-1.2,0,.8,0,1.6,0,2.4l3.5.7c-1.1,1.4-.4,3.4.6,4.7.9,1.2,2.3,2.2,3.9,2.2,1.3,0,2.4-.9,3.2-1.9.8-1,1.2-2.3,1.6-3.5Z"/><path class="cls-6" d="M96.8,140.1c-4.7.1-12.8-1-15.2-4.3-.9-1.3-3.6-7-6.5-12.9h.2c.9-.6,1.9-1.1,2.8-1.6,3,3.8,6,7.6,8.9,11.5.8,1,1.6,2,2.8,2.3,1.6.4,3.1-.6,4.3-1.8,1.1-1.1,2.2-2.5,3.7-3h0c0,4.5,0,9.3,0,9.9-.3,0-.6,0-1,0Z"/><path class="cls-4" d="M97.8,130.1h0c-1.5.5-2.6,1.9-3.7,3-1.1,1.1-2.7,2.2-4.3,1.8-1.2-.3-2-1.3-2.8-2.3-3-3.8-6-7.6-8.9-11.5-.9.5-1.9,1-2.8,1.5h-.2c-2.5-5.1-5-10.4-6.7-13.6h0c.9.5,1.9.9,2.9.9-.5-1.9-1.5-3.7-2.8-5.1-.4-.4-1-.6-1.2-1.1-.4.4-.7.7-1.1,1.1h0c-.2-.5-.5-1.1-.8-1.7h0c-.3-1-.3-3.1-.2-5.8.1,0,.2,0,.3,0l.4-.3c3.7,5,7.3,10.1,11,15.1,5.5-2.9,10.2-7.2,13.4-12.5,3,1.9,5.5,4.7,7.2,7.8h0c0,2.7,0,5.3.1,9.1h0c-4.5-.3-9.1-.5-13.6-.8-.2,0-.5,0-.7,0-.5.2-.5.9-.3,1.3.3.4.7.7,1.2.9,4.1,1.8,8.7,2.5,13.1,2h.2c0,.4,0,.8,0,1.3s0,4.5,0,8.6ZM92.1,128.6c2.2,1.6,3.7-1.6,2.7-3.4-1-1.7-5.1-1.4-6.9-1.7-.3,0-.8,0-.9.2-.2.4.1.8.4,1,1.5,1.3,3.1,2.6,4.7,3.8ZM87.6,112.2c3,1.1,6.2,1.3,9.3.6-.2,0-4.3-6.6-5-7.2-1.8,1.2-3.2,3.7-4.6,5.3-.2.2-.4.5-.3.8,0,.3.4.4.6.5Z"/><path class="cls-5" d="M97.6,120.3c-4.4.6-9-.1-13.1-2-.5-.2-.9-.5-1.2-.9-.3-.4-.2-1.1.3-1.3.2,0,.4,0,.7,0,4.5.3,9.1.5,13.6.8h0c0,1,0,2.2,0,3.4h-.2Z"/><path class="cls-3" d="M96.8,140.1c-.7,4.4-2.4,9.8-5.6,13.9-3.1,3.9-7.1,5.7-11.8,5.9-6.1.4-11.6.8-17-1.2-5.4-2-9-8.2-12.4-14.5-.6-1.1-5.2-14.9-7-20.4.7,3.2,1.5,6.6,2.1,9.5-1.2,0-2.4.2-3.8.3-4.2.3-9.2.5-13.9.5-3.3,0-6.5,0-9-.3-.2-12.2,2.7-27.4,3.2-32.6.2-1.5.5-3.9.8-6.1.3,0,.6.2.9.2,2.5,1.1,7.9.7,3.3-1.8-.4-.2-.9-.4-1.5-.6,2.4.2,4.9.3,3.2-2.8-.2-.5-.8-.7-1.5-.9,2.1.1,4,0,1.9-2.7-.4-.5-1.8-.8-3.2-1,1.9.2,3.8.6,4.3-1,.5-1.7-2.5-2.4-4.9-2.2.1-.5.2-1,.4-1.4.3.3.7.5,1,.7,2.3,1.2,5.1,1.3,7.8,1.3,7,0,13.9.1,20.8.2h.4c.3,0,.5,0,.8,0,1.3,2.7,2.6,5.6,3.9,8.4,1.1,2.4,2.1,4.6,3.1,6.7.9,1.9,1.7,3.7,2.4,5.2.3.6.5,1.2.8,1.7.5,1.1.9,1.9,1.1,2.4.3.4.6,1,1,1.7,1.7,3.2,4.3,8.5,6.7,13.7,2.9,6,5.5,11.6,6.5,13,2.4,3.4,10.5,4.5,15.2,4.3Z"/><path class="cls-6" d="M90.8,59.7v1.1c-1.5-1.2-3.3-2-5.2-2.4v-.3c3-1,4-2.4,6.3-4.8h0c.4-.3.7-.5,1.1-.8,1.3,1.3,3.5,3.8,3,5.3h-.3c-.8,1.7-3.1,1.8-4.9,1.8Z"/><path class="cls-5" d="M94.8,125.2c1,1.8-.5,5-2.7,3.4-1.6-1.2-3.2-2.5-4.7-3.8-.3-.3-.6-.7-.4-1,.2-.3.6-.3.9-.2,1.8.2,5.9,0,6.9,1.7Z"/><path class="cls-3" d="M96.4,25.8c-.4,1.5-5.7-.5-10.2.9-.6-.2-.3-1.2-.6-2.4,1.6-1.2,4.9-1.8,6.9-1.2.8.3,3.8,1.1,4,2.7Z"/><path class="cls-6" d="M94.6,66.6c1.7,6.2-1.1,9.9-7.7,11.3-.3,0-.5.1-.8.2.9-3.6.3-7.6-1.4-10.9-1.8-3.5-5-6.2-8.7-7.5v-.3c.4-.1.8-.2,1.2-.3.5-.1,1-.3,1.5-.4,2.3-.6,4.7-.7,7-.2,1.9.4,3.7,1.2,5.2,2.4,1.7,1.4,3.1,3.3,3.8,5.8Z"/><path class="cls-5" d="M96.9,112.7c-3.1.7-6.3.5-9.3-.6-.2,0-.5-.2-.6-.5,0-.3.1-.6.3-.8,1.4-1.7,2.8-4.2,4.6-5.3.7.6,4.7,7.2,5,7.2Z"/><path class="cls-1" d="M92.1,30.2c0,1-.4,1.7-1,1.7s-1-.8-1-1.7c0-1,.4-1.7,1-1.7.5,0,1,.8,1,1.7Z"/><path class="cls-5" d="M82.4,82.1c2.6,0,4.8,2.6,4.4,5.2-1.3.2-2.7-.3-3.6-1.3s-1.3-2.4-1-3.7l.2-.2Z"/><path class="cls-5" d="M86.2,101.8c-1.1-.4-2.1-.7-3.2-1.1-.4,1.2-.9,2.5-1.6,3.5-.8,1-1.9,1.9-3.2,1.9-1.5,0-2.9-1-3.9-2.2-1.1-1.4-1.7-3.4-.6-4.7h1.4c0,.8.3,1.6.8,2.2.9,1.1,2.7,1.4,3.9.7,1.3-.7,1.9-2.3,1.6-3.7.1.4,3,.7,3.5,1.1.6.5.8,1.6,1.4,2.2Z"/><path class="cls-4" d="M66.1,79.2c2.1.2,4-1.9,3.6-3.9,1.8,0,3.6-.2,5.2-.9s2.9-2.4,2.7-4.2c-.2-2.2-2.9-3.6-5-3-1.1.3-2,.9-3.1.9-1.8-.1-2.8-2-3.6-3.4-3.3,1-1.2,3.8-.4,5.8.3.7,1.6,8.8.6,8.8ZM67,81.7c-1.2.2-2.5.4-3.8.5-.6,0-1.3.2-2,.3-.2,0-.5,0-.7,0,2.4-2.9,3.1-7,2-10.5-1.1-3.5-4-6.5-7.4-7.8-.2,0-.3-.1-.5-.2v-.4c4.3-.6,8.6-1.4,12.9-2.3,2.8-.6,5.6-1.2,8.4-1.9v.3c3.8,1.3,7,4,8.8,7.5,1.8,3.3,2.3,7.3,1.4,10.9h0c-2.2.5-4.4.9-6.4,1.3-1.1.2-2.1.4-3.2.6-3.1.6-6.2,1.2-9.4,1.6Z"/><path class="cls-5" d="M79,83.9c2.2,2.5,3.4,6.3,4,9.5-3.2-.1-6.3-.6-9.4-1.5-1-.3-2.1-.9-2.1-1.9,0-.5.3-.9.5-1.3,1-1.4,2-2.7,3.2-3.9,1.5-1.6,2.1-2.9,3.8-.9Z"/><path class="cls-5" d="M79.6,79.4v.3c0,.8-.5,1.7-1.4,1.8-.9.1-1.5-.7-1.8-1.5,1.1-.2,2.1-.4,3.2-.6Z"/><path class="cls-5" d="M77.7,70.2c.2,1.8-1.1,3.4-2.7,4.2s-3.4.9-5.2.9c.4,2-1.6,4.2-3.6,3.9,1.1,0-.3-8.1-.6-8.8-.8-2.1-2.9-4.8.4-5.8.7,1.4,1.7,3.3,3.6,3.4,1.1,0,2.1-.6,3.1-.9,2.1-.6,4.8.8,5,3Z"/><path class="cls-6" d="M77,58.7v.3c-.4.1-.8.2-1.2.3-2.8.7-5.6,1.3-8.4,1.9,1.7-3.1,4.8-5.5,8-7h0c.2,0,.5.2.7.4h0c.2,1.5.5,2.8.9,4.1Z"/><path class="cls-3" d="M71.9,22.9c2.5,0,5.2.2,4.2,3.8-2.1-.6-7.2-.5-9.8.5.5-1.8,3-4.2,5.6-4.2Z"/><path class="cls-5" d="M70.2,96.2c1.8.4,3.6.8,5.4,1.2-.4.5-.6,1.2-.6,1.9h-1.4c-1.2-.3-2.4-.5-3.5-.7,0-.8,0-1.6,0-2.4Z"/><path class="cls-5" d="M71.3,81.5v-.3c.9-.1,1.8-.3,2.8-.4.7.4.5,1.5,0,2.1-.6.6-1.4.7-2.2.9-.7.1-1.7.2-2-.5-.2-.5,0-1.1.5-1.4.3-.2.6-.3.9-.4Z"/><path class="cls-1" d="M71.7,28.6c.5,0,.9.8.9,1.7s-.4,1.7-.9,1.7-.9-.8-.9-1.7c0-.9.4-1.7.9-1.7Z"/><path class="cls-5" d="M68.4,109.1h0c-.4-.6-.7-1.2-1-1.6-.2-.5-.6-1.3-1.1-2.4h0c.4-.4.7-.8,1.1-1.1.1.5.8.7,1.2,1.1,1.4,1.4,2.3,3.2,2.8,5.1-1,0-2.1-.4-2.9-1Z"/><path class="cls-4" d="M67,81.7c-.4,2.9-.8,6.2-1.1,9.3-1.7-.7-3.3-1.4-4.9-2.2h-.7c0-.5.1-1,.2-1.5h.7c.9.8,2.1,1.1,3.3,1-.2-2.2-.6-3.7-1.1-6h0c1.3-.2,2.6-.4,3.8-.6Z"/><path class="cls-4" d="M65.5,103.3h0c-.7-1.5-1.5-3.2-2.4-5.2h.2c.7-.3,1.4-.4,2-.6-.1,2.7-.1,4.8.2,5.7Z"/><path class="cls-6" d="M65.9,91c-.2,2.4-.4,4.6-.5,6.6-.7.2-1.4.3-2,.5h-.2c-1-2-2-4.3-3.1-6.6,0-.8,0-1.7.2-2.8h.7c1.6.9,3.2,1.6,4.9,2.3Z"/><path class="cls-5" d="M61.2,82.5c.7,0,1.3-.2,2-.3h0c.6,2.3.9,3.8,1.1,6-1.1.2-2.4-.1-3.3-.9h-.7c.2-1.8.5-3.5.6-4.8h0c.1,0,.2,0,.3,0Z"/><path class="cls-6" d="M60.5,82.5h.8c0,0-.2,0-.3,0-1.5.2-3.1.4-4.8.5-.2-.3-.3-.6-.5-1,1.2-3.8.8-6.1.3-8.5-.6-3.1-2.8-6.5-5.2-8.6v-.2c0,0,0,0,0,0v-.6c1.2-.1,2.5-.3,3.7-.5v.4c.2,0,.4.1.5.2,3.5,1.3,6.3,4.2,7.4,7.8,1.1,3.5.4,7.6-2,10.5Z"/><path class="cls-3" d="M22.6,157.2c2.7-.4,5.4-.8,8.2-1.1,3.9-.4,8-.7,10.5-.8,1.2,0,2.1-.1,2.3-.1h0s.3,3.3-.1,3.1c-3.2.7-6.2-.2-11.3.5-12.2,1.6-22.5,2.6-29.4.8-.6-.9-.9-1.5-.6-2.4h.3c0,0,.5,0,.5,0,3.3.7,6.5.9,9.5.8,3.5,0,6.8-.5,10.1-.9Z"/><path class="cls-3" d="M45.7,66.2c-6.5,1.8-10.9,3-16.1,4.5-.3,0-.6.2-1,.3,2.1-3,6.1-5.2,8.7-5.4,3.3-.2,6-.2,8.3.7Z"/><path class="cls-3" d="M26.9,89.2c-1.4,0-2.8-.3-3.5,0,0,0,0-.2,0-.3,1.1.2,2.4.2,3.4.4Z"/><path class="cls-3" d="M25.5,85.5c-.4,0-.9-.1-1.3-.1,0,0,0,0,0,0,.4,0,.8.1,1.2.2Z"/><path class="cls-3" d="M25.1,92.9c-.9,0-1.7-.2-2.4-.1,0-.3,0-.5.1-.8.7.3,1.5.6,2.2.9Z"/><path class="cls-3" d="M18.5,146.8c2,3.4,3.6,6.5,4.1,10.4-3.3.5-6.6.9-10.1.9h0c.4-3.9-1-8.9-1-8.9,1.5-.2,4.2-1.2,7-2.5Z"/><path class="cls-2" d="M105.1,29.6c-.1,0-.2-.1-.4-.2-2.1-.8-2.6-.6-4,2.7-.2.4,2.6-15.5-6.8-20.9-2.8-1.6-7.3-1.4-12.6-1.4-5.1,0-5.6.3-8.7.7-4.5.7-8,11.8-8.6,18.6h-.4c-.2-.1-.5,0-.8,0-.1,0-.3.1-.4.2-.3.3-.4.6-.5,1-.8,2.6-.3,7,3.8,8.7h.2c.2.6.3,1.3.5,1.9,1.1,4.1,1.1,5.3,2.7,7.4,1.2,1.6,3.2,3.5,5.2,4.8.4.3.8.6,1.3.8.2.1.5.3.7.4h0c.2,1.5.5,2.8.9,4.1v.3c.6-.1,1.1-.3,1.6-.4,2.3-.6,4.7-.7,7-.2v-.3c3-1,4-2.4,6.3-4.8h0c.4-.3.7-.5,1.1-.8,1.3-1,2.6-2.2,3.9-3.6h0c1.2-1.2,3.2-5.8,3.9-9.7h.3c1,.7,3,.1,3.8-2.2.7-1.9,2.7-6.2.3-7.5ZM71.7,32c-.5,0-.9-.8-.9-1.7,0-.9.4-1.7.9-1.7.5,0,.9.8.9,1.7,0,.9-.4,1.7-.9,1.7ZM76.1,26.6c-2.1-.6-7.2-.5-9.8.5.5-1.8,3-4.2,5.6-4.2,2.5,0,5.2.2,4.2,3.8ZM91.2,32c-.5,0-1-.8-1-1.7,0-1,.4-1.7,1-1.7.5,0,1,.8,1,1.7,0,1-.4,1.7-1,1.7ZM86.2,26.7c-.6-.2-.3-1.2-.6-2.4,1.6-1.2,4.9-1.8,6.9-1.2.8.3,3.8,1.1,4,2.7-.4,1.5-5.7-.5-10.2.9Z"/><path class="cls-2" d="M43.1,144.1c-.6-3.7-1.3-6.7-1.8-10.5-4.2.3-9.2.5-13.9.5,1,4.8.7,8.5.7,8.5-1.3.4-5.6,2.5-9.6,4.3,2,3.4,3.6,6.5,4.1,10.4,2.7-.4,5.4-.8,8.2-1.1,3.9-.4,8-.7,10.5-.8v-.5c.4-1.2,3-2.5,1.7-10.7Z"/><path class="cls-2" d="M11.5,149.3c-7.8,1.5-8.7,3.6-8.6,7.2h-.3c-.1.3-.2.6-.3.8h.3c0,0,.5,0,.5,0,3.3.7,6.5.9,9.5.8h0c.4-3.9-1-8.9-1-8.9Z"/><path class="cls-8" d="M97.7,107.7c0,2.7,0,5.3.1,9.1,0,1,0,2.2,0,3.4,0,.4,0,.8,0,1.3s0,4.5,0,8.6c0,4.5,0,9.3,0,9.9-.3,0-.6,0-1,0-4.7.1-12.8-1-15.2-4.3-.9-1.3-3.6-7-6.5-12.9-2.5-5.1-5-10.5-6.7-13.7-.4-.7-.7-1.2-1-1.7"/><path class="cls-8" d="M95.7,58c1.7,1.7,3.9,6.6,4.1,9.1.3,3.3.2,4.3-.2,8.9-.2,2.1-.3,4.2-.4,6.4-.2,2.8-.3,5.6-.5,8.4,0,.9-.1,1.7-.2,2.6,0,.5,0,1-.1,1.5-.5,6.1-.6,9.5-.6,12.9"/><path class="cls-8" d="M41.3,103.5c-1.1,1.9,0,7.3,0,10.4,0,1.8.8,5.7,1.8,9.9.7,3.2,1.5,6.6,2.1,9.5-1.1,0-2.4.2-3.8.3-4.2.3-9.2.5-13.9.5-3.3,0-6.5,0-9-.3-.2-12.2,2.7-27.4,3.2-32.6.1-1.5.5-3.9.8-6.1"/><path class="cls-8" d="M22.9,92c0,.2,0,.5-.1.8"/><path class="cls-8" d="M96.8,139.9c0,0,0,.1,0,.2-.7,4.4-2.4,9.8-5.6,13.9-3.1,3.9-7.1,5.7-11.8,5.9-6.1.4-11.6.8-17-1.2-5.4-2-9-8.2-12.4-14.5-.6-1.1-5.2-14.9-7-20.4-.4-1.1-.6-1.9-.7-2.1"/><path class="cls-9" d="M90.7,59.7h.1c1.7,0,4.1-.2,4.9-1.7"/><polyline class="cls-8" points="12.5 158 12.5 158.2 12.5 158.3"/><line class="cls-8" x1="11.7" y1="151.6" x2="11.8" y2="151.6"/><line class="cls-8" x1="2.6" y1="157.3" x2="3" y2="157.3"/><path class="cls-8" d="M41.3,154.8c.5-1.2,3-2.5,1.7-10.7-.6-3.7-1.3-6.7-1.8-10.5h0"/><path class="cls-8" d="M43.7,155.2h0c-.2,0-1,0-2.3.1-2.5.1-6.6.4-10.5.8-2.8.3-5.5.7-8.2,1.1-3.3.5-6.6.9-10.1.9-3,0-6.1-.2-9.5-.8"/><path class="cls-8" d="M2.9,156.9c0-.1,0-.3,0-.4,0-3.6.9-5.6,8.6-7.2,0,0,1.4,5,1,8.7"/><path class="cls-8" d="M27.4,134.1s0,0,0,0c1,4.8.7,8.5.7,8.5-1.3.4-5.6,2.5-9.6,4.3-2.8,1.2-5.5,2.3-7,2.5"/><path class="cls-8" d="M2.9,159.7c7,1.8,17.2.8,29.4-.8,5.1-.7,8,.2,11.3-.5.4.1.1-3.1.1-3.1"/><path class="cls-8" d="M2.6,156.5c-.1.3-.2.6-.3.8-.2.9,0,1.5.6,2.4"/><path class="cls-8" d="M92.7,52.3c0,0,.1.1.2.2,1.3,1.3,3.5,3.8,3,5.3"/><path class="cls-9" d="M67,81.5s0,0,0,.1c-.4,2.9-.8,6.2-1.1,9.3-.2,2.4-.4,4.6-.5,6.6-.1,2.7-.1,4.8.2,5.7"/><path class="cls-8" d="M61,82.5c-.1,1.3-.4,3-.6,4.7,0,.5-.1.9-.2,1.4-.1,1-.2,2-.2,2.8"/><path class="cls-8" d="M67.4,107.4c-.2-.5-.6-1.3-1.1-2.4-.2-.5-.5-1.1-.8-1.7-.7-1.5-1.5-3.2-2.4-5.2-1-2.1-2-4.4-3.1-6.7-1.3-2.8-2.6-5.6-3.9-8.4-.2-.3-.3-.6-.4-1"/><path class="cls-8" d="M25.3,80.8c-.1.5-.2.9-.3,1.4"/><path class="cls-8" d="M23.5,88.8c0,.1,0,.2,0,.3"/><path class="cls-8" d="M24.3,85.3h0"/><path class="cls-8" d="M45.7,66.2c-2.3-.8-5-.9-8.3-.6-2.6.2-6.6,2.4-8.7,5.4"/><path class="cls-8" d="M85.6,58.1c2.9-1,3.9-2.4,6.2-4.8"/><path class="cls-9" d="M18.4,146.6c0,0,.1.2.2.3,2,3.4,3.6,6.5,4.1,10.4,0,0,0,0,0,0"/><path class="cls-8" d="M61,88.7c1.6.8,3.2,1.6,4.9,2.2,7,2.9,14.5,4.6,22,5.1,3.7.3,8,0,10.5-2.8,0,0,0,0,0,0"/><path class="cls-8" d="M65.9,97c0,0,.1.1.2.2,3.7,5,7.3,10.1,11,15.1,5.5-2.9,10.2-7.2,13.4-12.5,3,1.9,5.5,4.7,7.2,7.8h0c.1.2.2.4.3.6"/><path class="cls-8" d="M65.7,97.5c-.1,0-.2,0-.3,0"/><path class="cls-8" d="M65.4,97.6c-.7.2-1.4.3-2,.5"/><path class="cls-8" d="M82.9,93.4c-3.2-.1-6.3-.6-9.4-1.5-1-.3-2.1-.9-2.1-1.9,0-.5.3-.9.5-1.3,1-1.4,2-2.7,3.2-3.9,1.5-1.6,2.1-2.9,3.8-.9,2.2,2.5,3.4,6.3,4,9.5Z"/><path class="cls-8" d="M63.2,82.2c.6,2.3.9,3.8,1.1,6-1.1.2-2.4-.1-3.3-.9"/><path class="cls-8" d="M82.4,82.1c2.6,0,4.8,2.6,4.4,5.2-1.3.2-2.7-.3-3.6-1.3s-1.3-2.4-1-3.7"/><path class="cls-8" d="M71,81.3c0,0,.2,0,.3,0,.9-.1,1.9-.3,2.8-.4.7.4.5,1.5,0,2.1-.6.6-1.4.7-2.2.9-.7.1-1.7.2-2-.5-.2-.5,0-1.1.5-1.4.3-.2.6-.3.9-.4.2,0,.4,0,.6,0"/><path class="cls-8" d="M79.7,79.7c0,.8-.6,1.7-1.4,1.8-.9.1-1.5-.7-1.8-1.5"/><path class="cls-8" d="M73.6,99.2c-1.1,1.4-.4,3.4.6,4.7.9,1.2,2.3,2.2,3.9,2.2,1.3,0,2.4-.9,3.2-1.9.8-1,1.2-2.3,1.6-3.5,1.1.4,2.1.7,3.2,1.1-.5-.6-.8-1.7-1.4-2.2-.5-.5-3.4-.8-3.5-1.1.4,1.4-.3,3-1.6,3.7-1.3.7-3,.4-3.9-.7-.5-.6-.8-1.4-.8-2.1,0-.7.2-1.3.6-1.9-1.8-.4-3.6-.8-5.4-1.2,0,.8,0,1.6,0,2.4l3.5.7Z"/><path class="cls-8" d="M98.4,82.3c-1.2,3-2.3,6-3.2,9.1,1,.2,2.1,0,3-.7"/><path class="cls-8" d="M96.9,112.7c-3.1.7-6.3.5-9.3-.6-.2,0-.5-.2-.6-.5,0-.3.1-.6.3-.8,1.4-1.7,2.8-4.2,4.6-5.3.7.6,4.7,7.2,5,7.2Z"/><path class="cls-8" d="M97.8,116.8c-4.5-.3-9.1-.5-13.6-.8-.2,0-.5,0-.7,0-.5.2-.5.9-.3,1.3.3.4.7.7,1.2.9,4.1,1.8,8.7,2.5,13.1,2-.2,0-.4,0-.5-.1"/><path class="cls-8" d="M87.9,123.6c-.3,0-.8,0-.9.2-.2.4.1.8.4,1,1.5,1.3,3.1,2.6,4.7,3.8,2.2,1.6,3.7-1.6,2.7-3.4-1-1.7-5.1-1.4-6.9-1.7Z"/><path class="cls-8" d="M97.8,130.1c-1.5.5-2.6,1.9-3.7,3-1.1,1.1-2.7,2.2-4.3,1.8-1.2-.3-2-1.3-2.8-2.3-3-3.8-6-7.6-8.9-11.5-.9.5-1.9,1-2.8,1.5"/><path class="cls-8" d="M68.9,109.1c-.2,0-.3,0-.5,0,.9.6,1.9.9,2.9,1-.5-1.9-1.5-3.7-2.8-5.1-.4-.4-1-.6-1.2-1.1-.4.4-.7.7-1.1,1.1"/><path class="cls-8" d="M66.3,27.1c2.6-1,7.7-1.1,9.8-.5"/><path class="cls-8" d="M86.2,26.7c4.5-1.4,9.8.6,10.2-.9"/><path class="cls-8" d="M74.7,40c2,1.9,4.3,1.9,7.5,1.5"/><path class="cls-8" d="M63.9,31.4c0-.6,0-1.4,0-2.2.6-6.8,4.1-18,8.6-18.6,3.1-.5,3.5-.7,8.7-.7,5.3,0,9.8-.2,12.6,1.4,9.4,5.4,6.6,21.3,6.8,20.9,1.5-3.3,2-3.5,4-2.7.1,0,.3.1.4.2,2.3,1.3.4,5.6-.3,7.5-.9,2.3-2.8,2.8-3.8,2.2"/><path class="cls-8" d="M101,36.5c0,.8-.1,1.8-.3,2.8-.7,3.9-2.7,8.5-3.9,9.6"/><path class="cls-8" d="M66.3,27.1c.5-1.8,3-4.2,5.6-4.2,2.5,0,5.2.2,4.2,3.8"/><path class="cls-8" d="M86.2,26.7c-.6-.2-.3-1.2-.6-2.4,1.6-1.2,4.9-1.8,6.9-1.2.8.3,3.8,1.1,4,2.7"/><path class="cls-8" d="M74.4,45.2c4.6,1.4,11.1,1.9,15.8-.7"/><path class="cls-8" d="M72.6,30.3c0,.9-.4,1.7-.9,1.7s-.9-.8-.9-1.7c0-.9.4-1.7.9-1.7s.9.8.9,1.7Z"/><path class="cls-8" d="M92.1,30.2c0,1-.4,1.7-1,1.7s-1-.8-1-1.7c0-1,.4-1.7,1-1.7.5,0,1,.8,1,1.7Z"/><path class="cls-8" d="M63.5,29.2c-.2,0-.5,0-.8,0-.1,0-.3.1-.4.2-.3.3-.4.6-.5,1-.8,2.6-.3,7,3.8,8.7"/><path class="cls-8" d="M105.1,29.8s0-.1,0-.2c2.2-6.6-1.5-23.3-2.4-24.4-1.5-2-3.7-2.9-5-3.3-6.9-2-7.1-1.2-14.3-1.4-4.4-.1-9.9-.4-14,1-2.1.8-2.6,1.2-4.1,3-1.2,1.5-3.3,17.5-2.7,24.5"/><path class="cls-8" d="M86,78.1c-2.2.5-4.4.9-6.4,1.3-1.1.2-2.1.4-3.2.6-3.1.6-6.2,1.2-9.4,1.6-1.2.2-2.5.4-3.8.5-.6,0-1.3.2-2,.3,0,0-.2,0-.3,0-1.5.2-3.1.4-4.8.5-.3,0-.5,0-.8,0"/><path class="cls-8" d="M49.7,64.3c.3,0,.7,0,1-.1,1.3-.2,2.5-.3,3.8-.5,4.3-.6,8.6-1.4,12.9-2.3,2.8-.6,5.6-1.2,8.4-1.9.4-.1.9-.2,1.3-.3.5-.1,1-.3,1.5-.4,2.3-.6,4.7-.7,7-.2,1.9.4,3.7,1.2,5.2,2.4,1.7,1.4,3.1,3.3,3.8,5.8,1.7,6.2-1.1,9.9-7.7,11.3-.3,0-.5.1-.8.2"/><path class="cls-7" d="M55.7,82.1c0,.3-.2.7-.3,1h-.4c-7-.1-13.9-.2-20.8-.3-2.7,0-5.4,0-7.8-1.3-.4-.2-.7-.4-1-.7-1.8-1.4-2.9-3.8-2.2-5.9.8-2.2,3.1-3.3,5.5-4,.3,0,.6-.2,1-.3,5.2-1.5,9.6-2.7,16.1-4.5,1.6-.5,3.3-.9,5.1-1.4v.2c2.5,2,4.7,5.4,5.3,8.6.4,2.4.8,4.7-.3,8.5Z"/><path class="cls-8" d="M50.8,64.8h0"/><path class="cls-7" d="M25.1,92.9c-.8-.3-1.6-.6-2.2-.9-1.4-.7-2.1-1.6.4-2.8,0,0,0,0,.1,0,.6-.2,2.1,0,3.5,0,.7.2,1.2.4,1.5.9,1.6,3.2-.8,3.1-3.2,2.8Z"/><path class="cls-7" d="M23.3,95.4c-.3,0-.6-.1-.9-.2-.3-.1-.6-.3-.8-.4-.4-.4-.4-.9.2-1.6.2-.2.5-.3,1-.3.6,0,1.5,0,2.4.1.6.2,1.1.4,1.5.6,4.5,2.5-.8,2.9-3.3,1.8Z"/><path class="cls-7" d="M29.9,84.5c-.5,1.6-2.4,1.2-4.3,1,0,0,0,0,0,0-.4,0-.9-.1-1.2-.2-1.9-.4-3.3-.9-1.8-2.4.4-.3,1.3-.5,2.5-.6,2.4-.1,5.4.5,4.9,2.2Z"/><path class="cls-7" d="M26.9,89.2c-1-.2-2.3-.2-3.4-.4-1.5-.2-2.6-.7-1.7-2.5.4-.8,1.4-1,2.4-1,.4,0,.8,0,1.3.1,0,0,0,0,0,0,1.4.2,2.8.5,3.2,1,2.1,2.6.2,2.8-1.9,2.7Z"/><path class="cls-8" d="M54.6,64c.2,0,.3.1.5.2,3.5,1.3,6.3,4.2,7.4,7.8,1.1,3.5.4,7.6-2,10.5.3,0,.5,0,.7,0h.1"/><path class="cls-8" d="M75.9,59.7c3.7,1.3,6.9,4,8.7,7.5,1.8,3.3,2.3,7.3,1.4,10.9h0c0,.2,0,.3-.1.5"/><path class="cls-8" d="M66.1,79.2c2.1.2,4-1.9,3.6-3.9,1.8,0,3.6-.2,5.2-.9s2.9-2.4,2.7-4.2c-.2-2.2-2.9-3.6-5-3-1.1.3-2,.9-3.1.9-1.8-.1-2.8-2-3.6-3.4-3.3,1-1.2,3.8-.4,5.8.3.7,1.6,8.8.6,8.8Z"/><path class="cls-8" d="M66.1,79.2h0"/><path class="cls-8" d="M64.1,31.5s.8,3.8,1.7,7.6c.2.7.3,1.3.5,2,1.1,4.1,1.1,5.3,2.7,7.4,1.2,1.6,3.2,3.5,5.2,4.8.4.3.8.6,1.3.8.2.1.5.3.7.4,2.7,1.5,5.5,2.5,8.3,2,1.7-.3,4.4-1.3,7.4-3.3.4-.2.7-.5,1.1-.8,1.3-1,2.6-2.2,3.9-3.6"/><path class="cls-8" d="M75.4,54.3c-3.2,1.5-6.3,3.9-8,7,0,0,0,0,0,0"/><path class="cls-8" d="M76.1,54.8c.2,1.4.5,2.7.9,4"/></svg>