<?xml version="1.0" encoding="UTF-8"?><svg id="Oceania" xmlns="http://www.w3.org/2000/svg" width="88" height="126" viewBox="0 0 88 126"><defs><style>.cls-1{fill:#e5c1ae;}.cls-1,.cls-2,.cls-3,.cls-4,.cls-5,.cls-6,.cls-7,.cls-8{stroke:#000;stroke-linecap:round;stroke-linejoin:round;stroke-width:.6px;}.cls-2{fill:#d91f26;}.cls-3{fill:none;}.cls-4{fill:#1c130d;}.cls-5{fill:#bf9465;}.cls-6{fill:#4c3214;}.cls-7{fill:#fff;}.cls-8{fill:#000;}</style></defs><path class="cls-2" d="M78.3,86.2c0-4.2,0-8.5,0-12.5,0-2.4,0-4.9,0-7.2,0-7.1.9-18.8-6.6-17.6-4.1.7-8,4.5-9,8.6h0c-1.2.6-2.6,1.2-4.1,2h0c5,1.4,6.8,6.6,5.9,11.5,0-.2,0-.4,0-.6-.4.2-.9.4-1.3.6-1.3.6-2.6,1.2-3.7,1.7-.7.3-1.3.6-1.8.8-4,1.8-3.6,1.6-6.4,2.5,1.2,3.5,2.2,6.1,2.2,6.5h0c-1.6-1.9-3.2-3.9-4.8-5.7-.7.2-1.4.5-2.1.7,0,0,.1.2.2.2-.5-.2-1,0-1.5.2,0,.5,0,1,.2,1.5-.1-.5-.2-1-.2-1.5-1.6.5-3.1,1-4.7,1.4.4.2.7.5,1.1.7-3.2-.8-7.8.3-10,2.6.4-.5.9-1,1.5-1.4-2.3.6-4.5,1.1-7.7,1h-.2c0,.4-.2.7-.2,1.1.6.2.7.6-.2,1.1,0,.2,0,.4,0,.6,1.5,0,1.2,2.2-.4,2.3h0c2.3-.2,1.8,2.1-.3,2.2h0c2.4,0,2.2,2.4-.3,2.1-.5,7.2-2.8,12.2-3.5,16.8,6.7,1.8,17.2,2.8,22.8,1.8,0-.3,0-.6-.1-.9-.8-4.5-1.9-9.3-2.9-14,1.2,4.9,3,9.5,6,15.8-.4-1.2,0-2.4.7-3.4-2.7,3.5,2.5,8.9,3.7,11.6.5.8,1,1.4,1.4,1.8h0c1.7,1.9,4.1,3.3,6.8,3.9,0,0,0,0,0,0,0,0,0,0,0,0h0c1.1.3,2.2.4,3.3.6.8,0,1.7,0,2.5,0,.2-.3.3-.6.3-.6.2.4,1.7.6,2.4.3,16.4-2.5,9.6-27.3,11.2-39.2Z"/><path class="cls-2" d="M44.5,66.5c1.2-.6,2.4-1.2,3.6-1.8,2.6-1.2,3-1.6,5.7-3,1-.5,2.1-1,3.2-1.5h0c-1.8-.5-3.9-.8-5.5-1.6,0,0,0,0-.1,0h0s0,0,0,0c-.8-.4-1.1-1-1-2h0c0-.6.2-1.2.3-1.9.2-.5.4-1.1.6-1.7.5-1.3,1.2-2.5,2-3.6h0c.5-.6,1.1-1.2,1.7-1.5-7.6,1.9-9.3,7.4-14.9,12.7.5.2,1.1.5,1.5.8,1.7,1.2,2.7,3.1,3,5.1Z"/><path class="cls-2" d="M33.2,70.8c.4,0,.9-.1,1.3-.2,1.5-.3,4.1-1.3,6.7-2.5-3.4-3.7-12-3.5-13.3,3.2.1.1.2.2.3.3,1.4-.3,3-.5,5-.9Z"/><path class="cls-3" d="M68.6,11.1c0-.2-.2-.3-.3-.5.1.2.2.3.3.5Z"/><path class="cls-3" d="M83.1,26.1h0s0,0,0,0c0-.3,0-.7-.1-.9,0,.3.1.6.1.9Z"/><path class="cls-3" d="M55.7,85.1c.2.2.4.4.5.7-.6-.6-1.1-1.3-1.6-2,.4.4.7.9,1.1,1.3Z"/><path class="cls-3" d="M56.8,86.4c.3.3.6.7.9,1-.5-.6-1-1.1-1.4-1.7.2.2.4.5.6.7Z"/><path class="cls-3" d="M58,87.7s0,0,0,0t0,0h0Z"/><path class="cls-3" d="M46.2,77.7c-.3,0-.6.2-.9.3,0-.1,0-.3,0-.4.3,0,.6,0,.9.1Z"/><path class="cls-3" d="M51.1,58.5s0,0,0,0c0,0,0,0,0,0Z"/><path class="cls-3" d="M51.2,58.6s0,0,.1,0h0s0,0-.1,0Z"/><path class="cls-5" d="M44.5,66.5c-1.1.5-2.2,1-3.2,1.5-1.9-2-3.5-2.5-7-2.3,1.9-1.4,4-3.2,5.8-5.2.5.2,1.1.5,1.5.8,1.6,1.1,2.6,2.9,2.9,4.8h0c0,.1,0,.3,0,.4Z"/><path class="cls-5" d="M33.7,111c-.3,1.8-.2,1.9-.2,3.9-3.1,1.4-14.4,5.2-17.1,3,5.1-.6,8.1-3.2,8.4-8.5,3.3.6,6.3,1,8.9,1.1v.5Z"/><path class="cls-3" d="M66.5,97.9c-.7-.9-1.4-1.7-2.2-2.6"/><path class="cls-3" d="M65.8,125.6c-.4,0-.9,0-1.3,0"/><path class="cls-3" d="M38.3,85.8c-.3-2-.4-3.9-.4-5.4"/><path class="cls-4" d="M34.3,122c-6.3,0-17.4,2.9-25.6.6-1-4.1,4.7-4.6,7.7-4.6,2.7,2.2,14-1.6,17.1-3,.8,2.2,1.2,3.5.8,7.1Z"/><path class="cls-4" d="M34.2,124.5c-2.6.5-5-.1-9,.4-6.4,1.1-18,1.3-16.5-2.4,8.1,2.3,19.3-.7,25.6-.6,0,0,.3,2.6,0,2.5Z"/><path class="cls-5" d="M83,25.2c-.4-1.2-1.4-1.7-2.8-.9-5.1-2.2-9.4-9.5-12.2-14.3-.1-.2-.3-.5-.4-.7-1-2.2-4-.4-5.6.2-5.6,2.4-11.3,7.2-11.4,13.8-.8,7.4,3.1,14.6,7.6,20.1,2.6,4.9,10.2,2.2,15.5-3.1,3.5-2.4,5.9-6.7,6.7-10.9,2.4.9,3-2.6,2.6-4.2ZM55.3,25.6c-1.2,0-1.2-3.8,0-3.8,1.2,0,1.2,3.9,0,3.8ZM66.7,37.4c-3,2-7.4,1.6-8.8-1.8,3.6,1.6,10.8-.1,11.6-.9-1.5,2.3-1.5,1.8-2.7,2.6ZM71.2,25.6c-1.9,2.3-2.5-3.9-.7-3.9,1.4.3,1.3,2.9.7,3.9Z"/><path class="cls-3" d="M83,27.4c0,0,0,.1,0,.2"/><path class="cls-3" d="M82.8,28.1c0,.2-.2.4-.3.6"/><path class="cls-3" d="M53.8,19.6c.7-1.6,2-1.4,2.7-.6"/><path class="cls-3" d="M69.6,19.2c1.3-1.3,3-.7,3.3.4"/><path class="cls-3" d="M59.5,30.4c0,.7,1.4,2.1,3.4,2.4"/><path class="cls-6" d="M83.1,26.1c0-1.6-1.1-2.9-2.9-1.8-5.1-2.2-9.4-9.5-12.2-14.3-.1-.2-.3-.5-.4-.7-1-2.2-4-.4-5.6.2-10.7,3.6-14.5,16-9,25.5h0C40.4,23,48.6-3.7,68.8.6c4.5,1,10.5,2.6,12.9,7.1,2.5,4.5,5.2,14,1.4,18.4Z"/><line class="cls-3" x1="83.1" y1="26.1" x2="83.1" y2="26.1"/><path class="cls-3" d="M57.9,87.7c0-.1,0-.2-.1-.3"/><path class="cls-3" d="M25.5,82.3c0,0,0-.2,0-.2"/><path class="cls-3" d="M66,70.8h0"/><path class="cls-6" d="M80.8,69.4c-.2,1.6-.6,4.1-2.5,4.3-.9-7.6,3.3-26.7-7.5-24.7-.4-2-.8-4-.4-6h0c1-.8,2.1-1.7,3.3-2.7.6-.5,1.7-1.3,2.3-2.1,3.5,10,6.1,20.4,4.7,31.2Z"/><path class="cls-3" d="M78.3,73.7s0,0-.1,0"/><path class="cls-3" d="M76.1,38.3c0,0,0-.1,0-.2"/><path class="cls-3" d="M64.8,56.5c-.4.2-1.1.6-2,1"/><path class="cls-3" d="M64.6,70.3s0,0,0,0"/><path class="cls-3" d="M76.2,60.9c-.7,5.2-4.1,6.1-10.2,9.9"/><path class="cls-5" d="M24.9,84.5c-1.7,1.3-5.8-.6-2.3-1.2.9-.2,4.3,0,2.3,1.2Z"/><path class="cls-5" d="M25.3,87c-.6.8-2.8.3-3.2.1-3.7-2.2,5.9-3.5,3.2-.1Z"/><path class="cls-5" d="M25.2,89.3c-1,.5-3.8.7-4.3-.5-.7-2.1,1.8-1.3,3.4-1.4,1.3,0,2.5.4,1,1.9Z"/><path class="cls-5" d="M25.8,90.6c.2,1.7-4.3,1.1-4.7.4-1.8-1.8,4.8-1.9,4.7-.4Z"/><path class="cls-1" d="M59,91.6h0c-4.2.9-8.1-2.5-10.4-5.6.6,0,1.2.2,1.9.3-.8-.7-1.6-1.5-2.3-2.3h0c-1.5-1.7-2.8-3.7-2.8-6,.5-.2,1-.4,1.5-.2,0,0-.1-.2-.2-.2.7-.2,1.4-.5,2.1-.7,2.9,3.4,6.1,7.3,9.1,10.9t0,0s0,0,0,0c.3.7.6,1.5.8,2.2,0,0,0,0,0,0,0,.3.1.5.2.8,0,.2,0,.5.1.7Z"/><path class="cls-1" d="M34.5,70.6c-.4,0-.9.1-1.3.2.3-1.2.5-2.5.6-3.7.4,1.1.6,2.3.7,3.5Z"/><path class="cls-1" d="M62,125.6c-1.1-.1-2.2-.3-3.3-.6h0s0,0,0,0c.7-.1.7-1.7,1.5-1.8h.2c.2.6.9,1.2,1.7,1.1-.2.2-.3.8-.1,1.2Z"/><path class="cls-1" d="M51.4,95.2c0,1-1.1,1.9-2.1,1.7,1.5,3.2-2.3,4.5-3.5,1.6-1.7,2.1-5,.4-2.6-2.2-3-1.3,0-5.3,2.2-3,0-2.7,4.5-2.2,3.7.5.6-.2,1.2,0,1.7.3t0,0h0c.3.3.5.7.5,1.1Z"/><path class="cls-1" d="M53.7,60.8c0,.3,0,.7,0,1-2.7,1.4-3.1,1.8-5.7,3-.4-1.9-.7-3.6-.7-5.1.4.9.8,2,1.3,2.8,1.5-.9,3.5-.7,5.1-1.6Z"/><path class="cls-1" d="M75.2,112.5c0,.2,0,.3,0,.5,0,.3-.2.7-.3,1-.2.5-.4.9-.7,1.3,0,0,0,0,0,0-.6-2.8-2.7-5.2-5.2-6.6,2.1,2,3.5,4.8,3.8,7.8h0c-4.2.9-8.1-2.5-10.4-5.6.6,0,1.2.2,1.9.3-2.5-2.3-5.2-5.1-5.1-8.7.5,0,1,.1,1.5.2-.8-.9-1.2-2.2-1.1-3.4,2.1.4,4.1,1.5,5.7,3,0-.4.1-.7.2-1.1,3,1.1,5.6,3.3,7.2,6.1,0-.4.2-.7.2-1.1,1.9,1.6,2.8,4.1,2.4,6.5Z"/><path class="cls-1" d="M78.3,73.7c0,4,0,8.3,0,12.5h-.2c-.8-2-1.2-4.6-.8-6.8-.3.1-.7.3-1,.4-.4-1.5-.5-3.1-.4-4.6,0,0,0,0,0,0,.1-1.6.6-3.3,1.3-4.7-.4.1-.7.3-1,.4.2-1.7.7-3.4,2-4.4h.1c0,2.3,0,4.8,0,7.2Z"/><path class="cls-1" d="M54.9,115.2c.4,2.1,0,4.2-.9,6.1-.6-1.2-1.4-2.3-2.3-3.3-.3.5-.8,1-1.2,1.5-1.1-2.7-6.4-8.1-3.7-11.6,0,0,0,0,0,0,.2-.3.5-.5.7-.8,0,0,0,0,0,0,0,0,0,0,0,0-.1.3,0,.7.3,1,0,0,0,0,0,0,.3.6,1.7,1.9,2,2.1h0s0,0,0,0c1.4-1.3,3.1-3.1,5.3-3.3-1,1.2-1.7,4.8-1.3,4.2,2-.1,4.2,1.8,4.8,3.7-1.3-.2-2.6,0-3.7.4Z"/><path class="cls-1" d="M36.4,95.6s0,0,0,.2c-.3.6-.8,2.9-.6,3.3,0,0,0,0,0,0,0,0,0,0,0,0h.1c-.4.3-1.9,1.6-2.1,2.4-.8-.6-1.4-1.7-1.2-2.7h0c1-1.2,2.2-2.8,3.9-3.1Z"/><path class="cls-1" d="M39.9,101.5c-1,0-2,.1-2.8.6-.7-.9-2.4-1.1-3.3-.8,1.4-3.3,4.7-2.8,6.1,0,0,0,0,0,0,0Z"/><path class="cls-1" d="M37.2,106c0,.4-.2.7-.3,1.1-.6-.9-1.3-1.7-2.1-2.4.8-.8-.3-3.2-1-3.3.9-.3,2.7-.2,3.3.8,0,0,0,0,0,0h0c.4,1.2.4,2.6.2,3.8Z"/><path class="cls-1" d="M34.7,104.7s0,0,0,0h0c-.7,1.4-1.9,2.4-3.4,2.8.4-1.1.5-2.2.5-3.3.9.3,2-1.8,1.9-2.8.7,0,1.8,2.5,1,3.3Z"/><path class="cls-1" d="M33.7,101.4c.1,1-1,3.1-1.9,2.8h0c-1.8-.2-3.7-.6-4.3-2.5.9.3,1.8-1,2.7-1,0,.8,2.6,1.1,3.5.7Z"/><path class="cls-1" d="M33.7,101.4c-.9.4-3.5.1-3.5-.7h-.1c-.6-.9-.9-1.7-.7-2.6.2-.7.6-1.2,1-1.8-.2.3,0,.6.2.9h0c.4.5,1.4,1.2,1.9,1.5,0,0,0,0,0,0h0c-.2,1,.5,2.1,1.2,2.7Z"/><path class="cls-1" d="M66.8,88.2c-.8.5-1.5,1.3-1.9,2.2-1.1-.4-2.6.6-3.2,1.4-.3-.8.2-2.8.3-3.2,1.2-1.1,3.2-1.1,4.7-.4Z"/><path class="cls-1" d="M64.5,93.9c.2-1.1-2.2-2.4-2.8-2.1.6-.8,2.1-1.7,3.2-1.4,0,0,0,0,0,0h0c1.3,1,2.4,2.4,2.8,4-1-.4-2.1-.6-3.2-.7Z"/><path class="cls-1" d="M64.6,94.7v.3c0,0-.2.2-.3.3h0c-.9-1.1-1.8-2.1-2.7-3.2h0c.6-.9,3.1.7,3,1.8h0s0,0,0,0c0,0,0,0,0,0h0s0,0,0,0c0,.2,0,.4,0,.6Z"/><path class="cls-1" d="M61.8,91.8l-.2.2h0c-.8-1-1.7-2-2.5-3l.3-.2c0-1.2.4-2.3,1.1-3.3.1,1.2,1.6,3.7,1.5,3.1,0,0,0,0,.1,0-.1.4-.6,2.4-.3,3.2Z"/><path class="cls-1" d="M37.9,85.8c-4.3-1.2-8.8,1.2-11.5,4.5,0-2.4-.4-5.6-.9-8,3.2,0,5.4-.4,7.7-1-.8.5-1.4,1.2-1.9,2,2.7-.3,4.8.5,6.6,2.5Z"/><path class="cls-1" d="M71.9,79.9c-1.2,2.5-.3,5.2-.2,7.9-4.5-4.3-10-7.5-15.9-9.2,3.6-.7,7.5,0,10.6,2-.7-3.8-6-4.9-8.7-7.1.6-.2,1.2-.5,1.8-.8,1.8.3,3.5,1,5,2.1-.3-1.3-.8-2.5-1.3-3.8.4-.2.9-.4,1.3-.6,0,.5-.1.9-.2,1.2.5-.2,1-.5,1.6-.8.6,1.1,1.1,2.2,1.5,3.4,0-.5.2-.9.4-1.3,0,0,0,0,0,0,.3-.5.6-1,1-1.4.5-.6,1.1-1.1,1.7-1.5h0s0,0,0,0c0,0,.1,0,.2-.1,0,0,0,0,0,0,0,0,0,0,0,0t0,0s0,0,0,0c0,0,0,0,0,0,0,.1-.1.2-.2.3,0,0,0,0,0,0-.2.2-.3.5-.4.8-.7,1.7-.6,3.6-.4,5.3,0,.2,0,.4,0,.6,0,.6.2,1.2.3,1.8,0,0,0,0,0,0,1.1-1.3,2.7-2.8,4.2-3.7-.3.4-2,4.4-2.2,4.8Z"/><path class="cls-1" d="M67.5,124.8c0,.2-.1.3-.2.5h0s0,0,0,0c0,0,0,0-.1.1-.6.3-2.1,0-2.4-.3,0,0,0,.3-.3.6-.8,0-1.6,0-2.5,0-.2-.5-.1-1,.1-1.2-2.6.2-1.8-3.9.5-3-.9-2.1,2.5-3.2,2.9-.9,1.7-1.6,3.4,1.6,1.2,2.2.7.2,1,1.4.8,2.2Z"/><path class="cls-1" d="M54.8,97.3c-2-.5-3.2,2.7-5.3,1.3.2-.6.1-1.3-.3-1.7,1.5.4,2.9-1.7,1.6-2.7h0s0,0,0,0h0s0,0,0,0c1.4-1,3.9,2.3,3.9,3.1h0s0,0,0,0Z"/><path class="cls-1" d="M76,95.2c-.3.6-1.3.8-1.8.4.1,2.2-2.9,2.2-2.7,0-1.7.8-3.2-1.4-.9-2.2,0,0,0-.1-.1-.2,0,0,0,0,0,0h0c-1-1.7,1.8-2.9,2.5-1.1,0,0,0,0,0,0,0,0,0,0,0,0,.5-.9,2-.9,2.4,0h0c0,0,0,.1,0,.2,0,0,0,0,0,0,0,.2,0,.5,0,.7,0,0,0,0,0,0h0c0,0,0,.1,0,.2h0s0,0,0,0c0,0,0,0,0,.1.7,0,1.3.9,1,1.6Z"/><path class="cls-1" d="M77.5,97.5c-1.1-1-2.8.7-3.7-.8.3-.3.5-.8.4-1.1.8.7,2.3-.2,1.8-1.2,0-.3.8.2,1.1.8h0c.4.6.4,2.1.4,2.4Z"/><path class="cls-1" d="M74.8,61c-.1,1.8-.9,4.3-2.9,4.7h0c-1-1.5-1.5-3.2-1.4-4.7-.2.6-.3,1.3-.3,2,0,0,0,0,0,0,0,0,0,0,0,0,0,0,0,0,0,0h0q0,0,0,0c0,.7.2,1.6.6,2.2,0,0,0,0,0,0h0c-.9-.3-1.7-1.1-2.3-1.9-.2-.3-.4-.5-.5-.8,0,0-.1-.2-.2-.3,0,0,0,0,0,0,0,0,0-.1,0-.1-.4-.8-.6-1.8-.4-2.7.1.1.2.2.3.3,0,0,0,0,0,0,0,0,0,0,.1.1,0,0,0,0,.1.1h0s0,0,0-.1c0,0,0,0,0,0,0,0,0,0,0,0,0,0,0,0,0,0,0,0,0,0,0,0,0,0,0,0,0,0h0s0,0,0,0h0c0,0,0-.1,0-.2h0c0,0,0,0,0,0,0,0,0,0,0,0h0s0,0,0,0h0c0-.2,0-.3,0-.4,0,0,0-.1,0-.2,0,0,0-.2,0-.2,0,0,0,0,0,0h0s0,0,0,0h0c0-.2,0-.5,0-.7,0,0,0,0,0,0h0s0,0,0,0c0-1.2.4-2.4,1.1-3.4.2.2.4.4.6.6,0-.8.3-1.6.7-2.3,1.4.2,2.3,1.4,2.8,2.6.1-.2.2-.5.2-.8h.1c.9,1.8.8,3.8.6,5.6.3-.2.6-.5.8-.7-.1,0,.1,1.4.1,1.6Z"/><path class="cls-3" d="M74.2,39.9c-.2.1-.3.3-.5.4"/><path class="cls-7" d="M69.4,34.8c-2.7,4.4-9.3,5.5-11.6.9,3.6,1.6,10.8-.1,11.6-.9Z"/><path class="cls-8" d="M56.2,23.7c0,2.5-1.9,2.5-1.8,0,0-2.5,1.8-2.4,1.8,0Z"/><path class="cls-8" d="M71.7,23.9c.2,2.5-2.3,3.1-2.2,0,0-3,2.4-2.5,2.2,0Z"/><path class="cls-5" d="M70.9,49c-3.7,1.2-7.3,4.5-8.2,8.5h0c-1.6.8-4,1.9-5.8,2.8h0c-1.8-.5-3.9-.8-5.5-1.6,0,0,0,0-.1,0h0s0,0,0,0c-.8-.4-1.1-1-1-2,0-.6.2-1.2.4-1.9.2-.6.4-1.1.6-1.7.8-1.9,1.9-4.1,3.8-5.1h0c1-.1,2-.3,3-.2.3-1.4.5-2.7.4-4.2,2.4,2.9,5.2,4.6,12.2-.5h0c-.4,2.1,0,4.1.4,6.1Z"/><path class="cls-3" d="M57.3,49.8c.3-1.3.5-2.2.7-3.4l-.7,3.4Z"/><path class="cls-3" d="M43,110.2c-.4-4.7-5.2-21.6-5.2-29.9"/><path class="cls-5" d="M45.3,78c-8.3,2.6-17.6,6.9-26,2.8-2.9-9,9-9,15.2-10.2,7.9-2.1,16.3-7.6,24-11.1h0c4.2,1.3,6.4,5,6.1,9.5,0,.5,0,1,0,1.4,0,0-14.3,6.1-19.3,7.6Z"/></svg>