<?xml version="1.0" encoding="UTF-8"?><svg id="Layer_1" xmlns="http://www.w3.org/2000/svg" width="159.2" height="154.4" viewBox="0 0 159.2 154.4"><defs><style>.cls-1{fill:#ea77ad;}.cls-1,.cls-2,.cls-3,.cls-4,.cls-5,.cls-6,.cls-7,.cls-8,.cls-9,.cls-10,.cls-11,.cls-12{stroke-width:0px;}.cls-13{stroke-linecap:round;stroke-linejoin:round;}.cls-13,.cls-14{fill:none;stroke:#000;}.cls-2{fill:#c4c4c4;}.cls-3{fill:#404041;}.cls-4{fill:#f89c42;}.cls-5{fill:#f3d20f;}.cls-6,.cls-15,.cls-11{opacity:.3;}.cls-6,.cls-10{fill:#fff;}.cls-7{fill:#000;opacity:.1;}.cls-14{stroke-miterlimit:10;}.cls-8{fill:#55b1d4;}.cls-16{opacity:.2;}.cls-17{opacity:.3;}.cls-9,.cls-11{fill:#e6e7e8;}.cls-12{fill:#231f20;}</style></defs><path class="cls-1" d="M34.2,31.5c0-.1,0-.3,0-.5.1-1.2,0-3.2-.2-4.3,0,0,0,0,0,0-.4-.7-3.1,0-4.2.6h-.2c0,0,0,0,0-.1-.5-1.7-2.6-2.3-4.8-2.9-1.9-.6-4.4-.8-5.7,0,0,0,0,0,0,0-.6-1.2-2.6-3.2-3.2-2.7,0,0-.1.2-.2.2-.4.5-1,1.2-1.5,1.9-.5.7-.9,1.4-1.1,1.9,0,0,0,.2,0,.4,0,1,.6,3.3.7,3.8,0,0,0,0,0,0,.6.6,2.6.2,3.6-.3.1,1.5,2.3,2.4,5,3.2,2.6.8,5,.7,6-.4.6,1,2.2,2.6,3,2.4.3-.3,1.6-1.3,2.3-2.2.3-.4.5-.7.6-.9Z"/><path class="cls-7" d="M29.1,30.6c0,.3-.2.6-.2.7-3.3.6-8.8-.8-11.2-3.4,0,.3-.1.6-.2.8,0,.2,0,.4,0,.7.1,1.5,2.3,2.4,5,3.2,2.6.8,5,.7,6-.4.6,1,2.2,2.6,3,2.4.3-.3,1.6-1.3,2.3-2.2-1.5,0-3.7-.9-4.5-1.8h0Z"/><path class="cls-6" d="M34.1,26.6s0,0,0,0c-.4-.7-3.1,0-4.2.6h-.2c0,0,0,0,0-.1-.5-1.7-2.6-2.3-4.8-2.9-1.9-.6-4.4-.8-5.7,0,0,0,0,0,0,0-.6-1.2-2.6-3.2-3.2-2.7,0,0-.1.2-.2.2.3,1.1,1.3,2,2.2,2.7,0,0,0,.5,0,.5-1.2-.1-3.1-.3-3.7-1.2h0c-.5.7-.9,1.4-1.1,1.8,0,0,0,.2,0,.4,1.6.2,3.6.3,5,.6.2-.5.3-1,.5-1.5,3.8-.2,8,.3,11.2,2.5,0,.5-.2,1.4-.4,2.2,0,0,0,0,0,0,1.2.7,3.6,1.6,5,1.3.1-1.2,0-3.2-.2-4.3Z"/><path class="cls-1" d="M114.8,20.7c0-.1,0-.3,0-.5.1-1.2-.1-3.3-.2-4.5,0,0,0,0,0,0-.4-.7-3.2,0-4.3.7h-.2c0,0,0,0,0-.1-.5-1.7-2.7-2.3-5-2.9-2-.5-4.5-.8-5.9,0,0,0,0,0,0,0-.6-1.2-2.7-3.3-3.4-2.7,0,0-.1.2-.2.2-.4.6-1,1.3-1.5,2-.5.7-.9,1.4-1.1,1.9,0,0,0,.2,0,.4,0,1,.6,3.3.8,3.8,0,0,0,0,0,0,.6.6,2.7.1,3.7-.4.2,1.5,2.3,2.4,5.1,3.2,2.7.8,5.1.7,6.2-.5.7,1,2.3,2.6,3.1,2.5.4-.3,1.6-1.4,2.3-2.3.3-.4.5-.7.6-.9Z"/><path class="cls-7" d="M109.6,19.8c0,.3-.2.6-.2.8-3.4.7-9-.8-11.5-3.4,0,.3-.1.6-.2.8,0,.2,0,.5,0,.7.2,1.5,2.3,2.4,5.1,3.2,2.7.8,5.1.7,6.2-.5.7,1,2.3,2.6,3.1,2.5.4-.3,1.6-1.4,2.3-2.3-1.6,0-3.8-.9-4.6-1.8h0Z"/><path class="cls-6" d="M114.7,15.7s0,0,0,0c-.4-.7-3.2,0-4.3.7h-.2c0,0,0,0,0-.1-.5-1.7-2.7-2.3-5-2.9-2-.5-4.5-.8-5.9,0,0,0,0,0,0,0-.6-1.2-2.7-3.3-3.4-2.7,0,0-.1.2-.2.2.3,1.2,1.3,2.1,2.3,2.7,0,0,0,.5,0,.5-1.2-.1-3.1-.3-3.8-1.2h0c-.5.7-.9,1.4-1.1,1.9,0,0,0,.2,0,.4,1.6.2,3.7.3,5.1.5.2-.5.3-1.1.5-1.5,3.9-.2,8.2.2,11.5,2.4,0,.6-.2,1.4-.4,2.2,0,0,0,0,0,0,1.2.7,3.8,1.6,5.1,1.2.1-1.2-.1-3.3-.2-4.5Z"/><path class="cls-1" d="M78,22.7c0-.1,0-.3,0-.5,0-1.2-.6-3.2-.9-4.3,0,0,0,0,0,0-.5-.7-3.1.4-4.1,1.3h-.2s0,0,0,0c-.7-1.6-2.9-1.8-5.2-2.1-2-.3-4.5-.1-5.6.9,0,0,0,0,0,0-.8-1.1-3-2.8-3.6-2.1,0,0,0,.2-.2.3-.3.6-.8,1.4-1.2,2.1-.4.8-.7,1.5-.8,2,0,0,0,.2,0,.4.1,1,1.1,3.1,1.3,3.6,0,0,0,0,0,0,.6.5,2.6-.3,3.5-.9.4,1.4,2.6,2,5.4,2.4,2.7.3,5,0,5.9-1.3.8.8,2.6,2.2,3.3,1.9.3-.3,1.3-1.6,1.9-2.5.2-.4.4-.8.4-1Z"/><path class="cls-7" d="M72.8,22.6c0,.3,0,.6-.1.8-3.2,1.1-8.8.5-11.6-1.6,0,.3,0,.6,0,.8,0,.2,0,.5,0,.7.4,1.4,2.6,2,5.4,2.4,2.7.3,5,0,5.9-1.3.8.8,2.6,2.2,3.3,1.9.3-.3,1.3-1.6,1.9-2.5-1.5.2-3.8-.3-4.7-1h0Z"/><path class="cls-6" d="M77.2,17.9s0,0,0,0c-.5-.7-3.1.4-4.1,1.3h-.2s0,0,0,0c-.7-1.6-2.9-1.8-5.2-2.1-2-.3-4.5-.1-5.6.9,0,0,0,0,0,0-.8-1.1-3-2.8-3.6-2.1,0,0,0,.2-.2.3.5,1.1,1.6,1.8,2.6,2.3,0,0,0,.5,0,.5-1.2,0-3.1.2-3.9-.6h0c-.4.8-.7,1.5-.8,2,0,0,0,.2,0,.4,1.6,0,3.6-.2,5-.2,0-.5.2-1.1.3-1.5,3.8-.8,8-.9,11.4.7,0,.5,0,1.4,0,2.2,0,0,0,0,0,0,1.3.5,3.9,1,5.1.5,0-1.2-.6-3.2-.9-4.3Z"/><path class="cls-8" d="M59.4,16.4c0-.1,0-.3-.1-.5-.4-1.1-1.5-2.8-2.1-3.8,0,0,0,0,0,0-.7-.5-2.8,1.4-3.5,2.4h-.2s0,0,0,0c-1.2-1.3-3.4-.9-5.6-.4-2,.4-4.3,1.2-5.1,2.6,0,0,0,0,0,0-1-.8-3.8-1.7-4.1-.9,0,0,0,.2,0,.3-.1.7-.3,1.6-.5,2.4-.1.8-.2,1.6-.1,2.1,0,0,0,.2,0,.4.4.9,2,2.7,2.4,3,0,0,0,0,0,0,.8.2,2.4-1.1,3.1-1.9.8,1.3,3.1,1.1,5.9.6,2.7-.5,4.8-1.6,5.2-3.1,1,.6,3.2,1.3,3.8.8.2-.4.8-1.9,1.1-3,.1-.5.2-.9,0-1.1Z"/><path class="cls-7" d="M54.4,17.9c0,.3.1.6.1.8-2.7,2-8.2,3.2-11.5,2,0,.3.1.6.2.8,0,.2.1.4.2.6.8,1.3,3.1,1.1,5.9.6,2.7-.5,4.8-1.6,5.2-3.1,1,.6,3.2,1.3,3.8.8.2-.4.8-1.9,1.1-3-1.4.7-3.7.9-4.8.5h0Z"/><path class="cls-6" d="M57.1,12.1s0,0,0,0c-.7-.5-2.8,1.4-3.5,2.4h-.2s0,0,0,0c-1.2-1.3-3.4-.9-5.6-.4-2,.4-4.3,1.2-5.1,2.6,0,0,0,0,0,0-1-.8-3.8-1.7-4.1-.9,0,0,0,.2,0,.3.8.9,2.1,1.3,3.2,1.4,0,0,.2.4.2.4-1.1.4-2.9,1.1-3.8.6h0c-.1.8-.2,1.6-.1,2.1,0,0,0,.2,0,.4,1.5-.5,3.4-1.3,4.7-1.7,0-.5-.2-1.1-.2-1.5,3.3-1.9,7.3-3.3,11.1-2.8.2.5.4,1.3.6,2.1,0,0,0,0,0,0,1.4,0,4-.2,5-1.1-.4-1.1-1.5-2.8-2.1-3.8Z"/><path class="cls-8" d="M81.9,10.4c0-.1,0-.3,0-.5,0-1.2-.2-3.2-.4-4.3,0,0,0,0,0,0-.4-.7-3.1,0-4.2.8h-.2c0,0,0,0,0-.1-.5-1.7-2.7-2.2-5-2.7-1.9-.5-4.4-.6-5.7.2,0,0,0,0,0,0-.6-1.2-2.7-3.1-3.4-2.5,0,0-.1.2-.2.2-.4.6-.9,1.3-1.4,2-.5.7-.9,1.4-1,1.9,0,0,0,.2,0,.4,0,1,.7,3.2.9,3.7,0,0,0,0,0,0,.6.5,2.6,0,3.6-.5.2,1.5,2.4,2.3,5.1,3,2.7.6,5,.5,6-.7.7.9,2.4,2.5,3.1,2.3.3-.3,1.5-1.4,2.2-2.3.3-.4.5-.7.5-.9Z"/><path class="cls-7" d="M76.7,9.7c0,.3-.1.6-.2.8-3.3.7-8.8-.5-11.3-2.9,0,.3-.1.6-.2.8,0,.2,0,.5,0,.7.2,1.5,2.4,2.3,5.1,3,2.7.6,5,.5,6-.7.7.9,2.4,2.5,3.1,2.3.3-.3,1.5-1.4,2.2-2.3-1.5,0-3.8-.7-4.6-1.6h0Z"/><path class="cls-6" d="M81.6,5.5s0,0,0,0c-.4-.7-3.1,0-4.2.8h-.2c0,0,0,0,0-.1-.5-1.7-2.7-2.2-5-2.7-1.9-.5-4.4-.6-5.7.2,0,0,0,0,0,0-.6-1.2-2.7-3.1-3.4-2.5,0,0-.1.2-.2.2.4,1.1,1.4,2,2.4,2.6,0,0,0,.5,0,.5-1.2,0-3.1-.2-3.8-1h0c-.5.7-.9,1.4-1,1.9,0,0,0,.2,0,.4,1.6.1,3.6.2,5,.4.1-.5.3-1.1.5-1.5,3.8-.3,8,0,11.3,2,0,.5-.2,1.4-.3,2.2,0,0,0,0,0,0,1.2.6,3.7,1.5,5,1.1,0-1.2-.2-3.2-.4-4.3Z"/><path class="cls-8" d="M72.9,27c0-.1,0-.3-.1-.5-.4-1.1-1.6-2.8-2.2-3.8,0,0,0,0,0,0-.7-.5-2.8,1.4-3.4,2.5h-.2s0,0,0,0c-1.2-1.3-3.4-.8-5.7-.3-2,.4-4.3,1.3-5.1,2.7,0,0,0,0,0,0-1.1-.8-3.8-1.6-4.1-.8,0,0,0,.2,0,.3-.1.7-.3,1.6-.4,2.4-.1.8-.2,1.6,0,2.1,0,0,0,.2.1.4.4.9,2,2.6,2.4,3,0,0,0,0,0,0,.8.2,2.4-1.1,3.1-2,.8,1.2,3.1,1.1,5.9.5,2.7-.6,4.7-1.7,5.1-3.2,1,.5,3.2,1.3,3.8.8.2-.4.8-1.9,1-3,.1-.5.1-.9,0-1.1Z"/><path class="cls-7" d="M68,28.6c0,.3.1.6.2.8-2.7,2.1-8.1,3.4-11.5,2.2,0,.3.2.6.2.8,0,.2.1.4.3.6.8,1.2,3.1,1.1,5.9.5,2.7-.6,4.7-1.7,5.1-3.2,1,.5,3.2,1.3,3.8.8.2-.4.8-1.9,1-3-1.4.7-3.7,1-4.8.5h0Z"/><path class="cls-6" d="M70.6,22.8s0,0,0,0c-.7-.5-2.8,1.4-3.4,2.5h-.2s0,0,0,0c-1.2-1.3-3.4-.8-5.7-.3-2,.4-4.3,1.3-5.1,2.7,0,0,0,0,0,0-1.1-.8-3.8-1.6-4.1-.8,0,0,0,.2,0,.3.8.9,2.1,1.2,3.2,1.3,0,0,.2.4.2.4-1.1.5-2.8,1.2-3.8.7h0c-.1.8-.2,1.6,0,2.1,0,0,0,.2.1.4,1.5-.6,3.4-1.4,4.7-1.8-.1-.5-.2-1.1-.2-1.5,3.3-1.9,7.2-3.5,11-3,.2.5.5,1.3.7,2.1,0,0,0,0,0,0,1.4,0,4-.3,5-1.2-.4-1.1-1.6-2.8-2.2-3.8Z"/><path class="cls-8" d="M105.9,22.7c0-.1,0-.3,0-.5-.2-1.2-1-3.1-1.4-4.1,0,0,0,0,0,0-.6-.6-3,.9-3.9,1.8h-.2s0,0,0,0c-.9-1.5-3.2-1.4-5.5-1.4-2,0-4.4.5-5.5,1.7,0,0,0,0,0,0-.9-1-3.4-2.3-3.9-1.6,0,0,0,.2-.1.3-.3.6-.6,1.5-.9,2.3-.3.8-.5,1.6-.5,2.1,0,0,0,.2,0,.4.2,1,1.5,2.9,1.8,3.4,0,0,0,0,0,0,.7.4,2.6-.6,3.4-1.4.6,1.4,2.9,1.6,5.7,1.6,2.7,0,5-.8,5.6-2.1.9.7,2.9,1.8,3.6,1.5.3-.3,1.1-1.7,1.5-2.8.2-.4.3-.8.3-1Z"/><path class="cls-7" d="M100.7,23.4c0,.3,0,.6,0,.8-3,1.6-8.6,1.8-11.7,0,0,.3,0,.6,0,.8,0,.2,0,.5.1.6.6,1.4,2.9,1.6,5.7,1.6,2.7,0,5-.8,5.6-2.1.9.7,2.9,1.8,3.6,1.5.3-.3,1.1-1.7,1.5-2.8-1.5.4-3.8.2-4.8-.4h0Z"/><path class="cls-6" d="M104.4,18.1s0,0,0,0c-.6-.6-3,.9-3.9,1.8h-.2s0,0,0,0c-.9-1.5-3.2-1.4-5.5-1.4-2,0-4.4.5-5.5,1.7,0,0,0,0,0,0-.9-1-3.4-2.3-3.9-1.6,0,0,0,.2-.1.3.6,1,1.8,1.6,2.9,1.9,0,0,.1.5.1.4-1.2.2-3,.6-3.9,0h0c-.3.8-.5,1.6-.5,2.1,0,0,0,.2,0,.4,1.6-.3,3.6-.7,5-.9,0-.5,0-1.1,0-1.6,3.6-1.3,7.8-2,11.4-.9.1.5.2,1.4.2,2.2,0,0,0,0,0,0,1.3.3,4,.5,5.1-.2-.2-1.2-1-3.1-1.4-4.1Z"/><path class="cls-8" d="M108.1,8.9c0-.2,0-.3-.2-.5-.5-1.2-1.7-3-2.4-4,0,0,0,0,0,0-.7-.5-3,1.5-3.6,2.7h-.2s0,0,0,0c-1.3-1.4-3.6-.8-6-.3-2.1.4-4.5,1.4-5.3,2.9,0,0,0,0,0,0-1.1-.8-4-1.7-4.4-.9,0,.1,0,.2,0,.3-.1.7-.3,1.7-.4,2.6-.1.9-.2,1.7,0,2.3,0,.1,0,.2.1.4.5,1,2.2,2.8,2.6,3.1,0,0,0,0,0,0,.8.2,2.5-1.2,3.2-2.1.9,1.3,3.3,1.1,6.2.5,2.8-.6,5-1.9,5.4-3.4,1.1.6,3.4,1.3,4,.8.2-.4.8-2,1-3.2.1-.5.1-.9,0-1.1Z"/><path class="cls-7" d="M102.9,10.7c0,.3.1.6.2.8-2.8,2.2-8.6,3.6-12.2,2.5,0,.3.2.6.2.8,0,.2.2.5.3.6.9,1.3,3.3,1.1,6.2.5,2.8-.6,5-1.9,5.4-3.4,1.1.6,3.4,1.3,4,.8.2-.4.8-2,1-3.2-1.4.7-3.9,1.1-5.1.6h0Z"/><path class="cls-6" d="M105.6,4.4s0,0,0,0c-.7-.5-3,1.5-3.6,2.7h-.2s0,0,0,0c-1.3-1.4-3.6-.8-6-.3-2.1.4-4.5,1.4-5.3,2.9,0,0,0,0,0,0-1.1-.8-4-1.7-4.4-.9,0,.1,0,.2,0,.3.9.9,2.2,1.3,3.4,1.4,0,0,.3.5.2.4-1.2.5-3,1.3-4.1.8h0c-.1.9-.2,1.7,0,2.3,0,.1,0,.2.1.4,1.6-.6,3.6-1.5,5-2-.1-.6-.2-1.1-.3-1.6,3.5-2.1,7.7-3.7,11.7-3.3.2.5.5,1.4.7,2.2,0,0,0,0,0,0,1.5,0,4.2-.3,5.3-1.3-.5-1.2-1.7-3-2.4-4Z"/><path class="cls-8" d="M130,14.5c0-.1-.1-.3-.2-.5-.6-1.1-1.9-2.6-2.6-3.5,0,0,0,0,0,0-.7-.4-2.6,1.8-3.1,2.9h-.1s0,0,0,0c-1.3-1.1-3.4-.4-5.6.4-1.9.6-4.1,1.8-4.7,3.3,0,0,0,0,0,0-1.2-.6-4-1.2-4.2-.3,0,0,0,.2,0,.3,0,.7-.1,1.6-.1,2.4,0,.8,0,1.6.2,2.1,0,0,0,.2.1.3.5.9,2.3,2.3,2.8,2.7,0,0,0,0,0,0,.8.1,2.3-1.4,2.8-2.3,1,1.1,3.2.7,5.9-.2,2.6-.9,4.5-2.3,4.7-3.8,1.1.4,3.3.8,3.8.3.1-.4.5-2,.6-3.1,0-.5,0-.9,0-1.1Z"/><path class="cls-7" d="M125.3,16.8c.1.3.2.6.2.7-2.4,2.4-7.7,4.3-11.1,3.6.1.3.2.6.3.7,0,.2.2.4.3.6,1,1.1,3.2.7,5.9-.2,2.6-.9,4.5-2.3,4.7-3.8,1.1.4,3.3.8,3.8.3.1-.4.5-2,.6-3.1-1.3.8-3.6,1.4-4.7,1.1h0Z"/><path class="cls-6" d="M127.2,10.6s0,0,0,0c-.7-.4-2.6,1.8-3.1,2.9h-.1s0,0,0,0c-1.3-1.1-3.4-.4-5.6.4-1.9.6-4.1,1.8-4.7,3.3,0,0,0,0,0,0-1.2-.6-4-1.2-4.2-.3,0,0,0,.2,0,.3.9.8,2.2.9,3.4.9,0,0,.3.4.3.4-1.1.6-2.7,1.5-3.7,1.2h0c0,.8,0,1.6.2,2.1,0,0,0,.2.1.3,1.4-.7,3.2-1.8,4.4-2.4-.2-.5-.3-1-.4-1.5,3-2.3,6.8-4.3,10.6-4.4.3.5.6,1.3.9,2,0,0,0,0,0,0,1.4-.1,3.9-.8,4.8-1.8-.6-1.1-1.9-2.6-2.6-3.5Z"/><path class="cls-5" d="M74.9,14.8c0-.1-.1-.3-.2-.5-.6-1.1-2.1-2.5-2.9-3.4,0,0,0,0,0,0-.8-.3-2.6,1.9-3,3.1h-.1c0,0,0,0,0,0-1.4-1.1-3.5-.2-5.7.7-1.9.8-4,2.1-4.6,3.6,0,0,0,0,0,0-1.2-.6-4.1-1-4.3-.1,0,0,0,.2,0,.3,0,.7,0,1.6,0,2.5,0,.9.1,1.7.3,2.1,0,0,0,.2.2.3.6.8,2.5,2.3,3,2.5,0,0,0,0,0,0,.8,0,2.2-1.5,2.7-2.5,1.1,1.1,3.3.5,6-.6,2.6-1,4.4-2.6,4.6-4.1,1.1.4,3.4.7,3.9,0,.1-.4.4-2,.5-3.2,0-.5,0-.9-.1-1.1Z"/><path class="cls-7" d="M70.2,17.3c.1.3.2.6.3.7-2.3,2.6-7.6,4.8-11.1,4.3.1.3.3.6.3.7,0,.2.2.4.4.6,1.1,1.1,3.3.5,6-.6,2.6-1,4.4-2.6,4.6-4.1,1.1.4,3.4.7,3.9,0,.1-.4.4-2,.5-3.2-1.2.9-3.5,1.6-4.7,1.4h0Z"/><path class="cls-6" d="M71.8,11s0,0,0,0c-.8-.3-2.6,1.9-3,3.1h-.1c0,0,0,0,0,0-1.4-1.1-3.5-.2-5.7.7-1.9.8-4,2.1-4.6,3.6,0,0,0,0,0,0-1.2-.6-4.1-1-4.3-.1,0,0,0,.2,0,.3,1,.7,2.3.8,3.5.7,0,0,.3.4.3.4-1,.7-2.6,1.7-3.7,1.4h0c0,.9.1,1.7.3,2.1,0,0,0,.2.2.3,1.4-.8,3.1-2,4.4-2.7-.2-.5-.4-1-.5-1.5,3-2.5,6.6-4.8,10.5-5,.3.5.7,1.3,1,2,0,0,0,0,0,0,1.4-.2,3.9-1,4.8-2.1-.6-1.1-2.1-2.5-2.9-3.4Z"/><path class="cls-5" d="M131.9,30c0-.1,0-.3,0-.4.1-1-.1-2.7-.2-3.6,0,0,0,0,0,0-.3-.6-2.6,0-3.5.6h-.1s0,0,0,0c-.4-1.4-2.2-1.9-4.1-2.4-1.6-.4-3.7-.6-4.8,0,0,0,0,0,0,0-.5-1-2.2-2.7-2.8-2.2,0,0-.1.1-.2.2-.4.5-.8,1.1-1.2,1.6-.4.6-.7,1.2-.9,1.6,0,0,0,.2,0,.3,0,.8.5,2.7.7,3.1,0,0,0,0,0,0,.5.5,2.2,0,3-.3.1,1.2,1.9,2,4.2,2.6,2.2.6,4.2.5,5-.4.6.8,1.9,2.1,2.5,2,.3-.2,1.3-1.1,1.9-1.9.3-.3.4-.6.5-.8Z"/><path class="cls-7" d="M127.5,29.4c0,.3-.1.5-.2.6-2.8.6-7.4-.6-9.4-2.7,0,.3-.1.5-.1.6,0,.2,0,.4,0,.5.1,1.2,1.9,2,4.2,2.6,2.2.6,4.2.5,5-.4.6.8,1.9,2.1,2.5,2,.3-.2,1.3-1.1,1.9-1.9-1.3,0-3.1-.7-3.8-1.4h0Z"/><path class="cls-6" d="M131.7,26s0,0,0,0c-.3-.6-2.6,0-3.5.6h-.1s0,0,0,0c-.4-1.4-2.2-1.9-4.1-2.4-1.6-.4-3.7-.6-4.8,0,0,0,0,0,0,0-.5-1-2.2-2.7-2.8-2.2,0,0-.1.1-.2.2.3.9,1.1,1.7,1.9,2.2,0,0,0,.4,0,.4-1,0-2.6-.2-3.1-.9h0c-.4.6-.7,1.2-.9,1.6,0,0,0,.2,0,.3,1.3.1,3,.2,4.2.4.1-.4.3-.9.4-1.2,3.2-.2,6.7.2,9.4,1.9,0,.5-.2,1.2-.3,1.8,0,0,0,0,0,0,1,.6,3.1,1.3,4.2,1,.1-1-.1-2.7-.2-3.6Z"/><path class="cls-5" d="M47,22.9c0-.1,0-.3,0-.5-.3-1.2-1.2-3-1.6-4,0,0,0,0,0,0-.6-.6-3,1-3.8,2h-.2s0,0,0,0c-1-1.4-3.2-1.3-5.6-1.1-2,.1-4.4.7-5.4,1.9,0,0,0,0,0,0-.9-.9-3.5-2.2-4-1.4,0,0,0,.2,0,.3-.2.7-.5,1.5-.7,2.3-.2.8-.4,1.6-.4,2.1,0,0,0,.2,0,.4.3,1,1.6,2.9,2,3.3,0,0,0,0,0,0,.7.3,2.5-.8,3.3-1.5.6,1.4,2.9,1.5,5.7,1.3,2.7-.2,4.9-1,5.5-2.4.9.7,3,1.7,3.6,1.3.2-.4,1-1.8,1.4-2.8.2-.5.3-.8.2-1.1Z"/><path class="cls-7" d="M41.9,23.8c0,.3,0,.6,0,.8-2.9,1.7-8.5,2.2-11.7.6,0,.3,0,.6,0,.8,0,.2,0,.4.2.6.6,1.4,2.9,1.5,5.7,1.3,2.7-.2,4.9-1,5.5-2.4.9.7,3,1.7,3.6,1.3.2-.4,1-1.8,1.4-2.8-1.4.5-3.8.4-4.8-.1h0Z"/><path class="cls-6" d="M45.3,18.4s0,0,0,0c-.6-.6-3,1-3.8,2h-.2s0,0,0,0c-1-1.4-3.2-1.3-5.6-1.1-2,.1-4.4.7-5.4,1.9,0,0,0,0,0,0-.9-.9-3.5-2.2-4-1.4,0,0,0,.2,0,.3.7,1,1.9,1.5,3,1.7,0,0,.2.5.2.4-1.2.3-3,.8-3.9.2h0c-.2.8-.4,1.6-.4,2.1,0,0,0,.2,0,.4,1.5-.3,3.5-.9,4.9-1.2,0-.5,0-1.1,0-1.6,3.5-1.5,7.6-2.4,11.4-1.5.1.5.3,1.4.4,2.2,0,0,0,0,0,0,1.3.2,4,.3,5.1-.5-.3-1.2-1.2-3-1.6-4Z"/><path class="cls-4" d="M59.9,24.4c0-.1,0-.3-.1-.5-.4-1.1-1.5-2.8-2.1-3.8,0,0,0,0,0,0-.7-.5-2.8,1.4-3.5,2.5h-.2s0,0,0,0c-1.2-1.3-3.4-.8-5.6-.4-2,.4-4.3,1.3-5.1,2.6,0,0,0,0,0,0-1.1-.8-3.8-1.7-4.1-.9,0,0,0,.2,0,.3-.1.7-.3,1.6-.4,2.4-.1.8-.2,1.6,0,2.1,0,0,0,.2,0,.4.4.9,2,2.6,2.4,3,0,0,0,0,0,0,.8.2,2.4-1.1,3.1-1.9.8,1.3,3.1,1.1,5.9.6,2.7-.5,4.7-1.6,5.2-3.1,1,.6,3.2,1.3,3.8.8.2-.4.8-1.9,1-3,.1-.5.2-.9,0-1.1Z"/><path class="cls-7" d="M55,25.9c0,.3.1.6.1.8-2.7,2-8.2,3.2-11.5,2.1,0,.3.1.6.2.8,0,.2.1.4.2.6.8,1.3,3.1,1.1,5.9.6,2.7-.5,4.7-1.6,5.2-3.1,1,.6,3.2,1.3,3.8.8.2-.4.8-1.9,1-3-1.4.7-3.7.9-4.8.5h0Z"/><path class="cls-6" d="M57.6,20.1s0,0,0,0c-.7-.5-2.8,1.4-3.5,2.5h-.2s0,0,0,0c-1.2-1.3-3.4-.8-5.6-.4-2,.4-4.3,1.3-5.1,2.6,0,0,0,0,0,0-1.1-.8-3.8-1.7-4.1-.9,0,0,0,.2,0,.3.8.9,2.1,1.2,3.2,1.3,0,0,.2.4.2.4-1.1.4-2.8,1.1-3.8.6h0c-.1.8-.2,1.6,0,2.1,0,0,0,.2,0,.4,1.5-.5,3.4-1.4,4.7-1.8-.1-.5-.2-1.1-.2-1.5,3.3-1.9,7.3-3.4,11.1-2.9.2.5.4,1.3.6,2.1,0,0,0,0,0,0,1.4,0,4-.2,5-1.1-.4-1.1-1.5-2.8-2.1-3.8Z"/><path class="cls-4" d="M96.3,26.2c0-.1,0-.3-.1-.5-.4-1.1-1.5-2.8-2.1-3.8,0,0,0,0,0,0-.7-.5-2.8,1.4-3.5,2.5h-.2s0,0,0,0c-1.2-1.3-3.4-.8-5.6-.4-2,.4-4.3,1.3-5.1,2.6,0,0,0,0,0,0-1.1-.8-3.8-1.7-4.1-.9,0,0,0,.2,0,.3-.1.7-.3,1.6-.4,2.4-.1.8-.2,1.6,0,2.1,0,0,0,.2,0,.4.4.9,2,2.6,2.4,3,0,0,0,0,0,0,.8.2,2.4-1.1,3.1-1.9.8,1.3,3.1,1.1,5.9.6,2.7-.5,4.7-1.6,5.2-3.1,1,.6,3.2,1.3,3.8.8.2-.4.8-1.9,1-3,.1-.5.2-.9,0-1.1Z"/><path class="cls-7" d="M91.3,27.7c0,.3.1.6.1.8-2.7,2-8.2,3.2-11.5,2.1,0,.3.1.6.2.8,0,.2.1.4.2.6.8,1.3,3.1,1.1,5.9.6,2.7-.5,4.7-1.6,5.2-3.1,1,.6,3.2,1.3,3.8.8.2-.4.8-1.9,1-3-1.4.7-3.7.9-4.8.5h0Z"/><path class="cls-6" d="M94,21.9s0,0,0,0c-.7-.5-2.8,1.4-3.5,2.5h-.2s0,0,0,0c-1.2-1.3-3.4-.8-5.6-.4-2,.4-4.3,1.3-5.1,2.6,0,0,0,0,0,0-1.1-.8-3.8-1.7-4.1-.9,0,0,0,.2,0,.3.8.9,2.1,1.2,3.2,1.3,0,0,.2.4.2.4-1.1.4-2.8,1.1-3.8.6h0c-.1.8-.2,1.6,0,2.1,0,0,0,.2,0,.4,1.5-.5,3.4-1.4,4.7-1.8-.1-.5-.2-1.1-.2-1.5,3.3-1.9,7.3-3.4,11.1-2.9.2.5.4,1.3.6,2.1,0,0,0,0,0,0,1.4,0,4-.2,5-1.1-.4-1.1-1.5-2.8-2.1-3.8Z"/><path class="cls-4" d="M122.7,14.7c0-.1,0-.2.1-.4.2-1,.1-2.6.1-3.5,0,0,0,0,0,0-.3-.6-2.5-.3-3.4.2h-.1c0,0,0,0,0-.1-.3-1.4-1.9-2-3.7-2.7-1.5-.6-3.5-1-4.6-.4,0,0,0,0,0,0-.4-1-1.9-2.8-2.4-2.4,0,0-.1.1-.2.2-.4.4-.9.9-1.3,1.5-.4.5-.8,1-1,1.4,0,0,0,.2,0,.3-.1.8.2,2.6.4,3.1,0,0,0,0,0,0,.4.5,2.1.3,2.9,0,0,1.2,1.7,2.1,3.8,2.9,2.1.8,3.9.9,4.9,0,.5.8,1.6,2.2,2.2,2.1.3-.2,1.3-1,2-1.6.3-.3.5-.5.5-.7Z"/><path class="cls-7" d="M118.7,13.7c0,.2-.2.4-.2.6-2.7.3-7-1.2-8.8-3.5,0,.3-.2.5-.2.6,0,.2,0,.4,0,.5,0,1.2,1.7,2.1,3.8,2.9,2.1.8,3.9.9,4.9,0,.5.8,1.6,2.2,2.2,2.1.3-.2,1.3-1,2-1.6-1.2-.1-2.9-.9-3.5-1.7h0Z"/><path class="cls-6" d="M123,10.9s0,0,0,0c-.3-.6-2.5-.3-3.4.2h-.1c0,0,0,0,0-.1-.3-1.4-1.9-2-3.7-2.7-1.5-.6-3.5-1-4.6-.4,0,0,0,0,0,0-.4-1-1.9-2.8-2.4-2.4,0,0-.1.1-.2.2.2.9.9,1.7,1.6,2.3,0,0,0,.4,0,.4-1-.2-2.4-.4-2.9-1.2h0c-.4.5-.8,1-1,1.4,0,0,0,.2,0,.3,1.2.3,2.9.5,4,.8.2-.4.3-.8.5-1.1,3.1.1,6.4.8,8.8,2.7,0,.4-.3,1.1-.5,1.7,0,0,0,0,0,0,.9.6,2.8,1.5,3.9,1.3.2-1,.1-2.6.1-3.5Z"/><path class="cls-4" d="M145.9,19.2c0-.1,0-.3-.2-.5-.5-1.2-1.7-2.8-2.3-3.8,0,0,0,0,0,0-.7-.5-2.8,1.5-3.5,2.7h-.2s0,0,0,0c-1.3-1.3-3.5-.7-5.8-.2-2,.5-4.3,1.5-5.1,2.9,0,0,0,0,0,0-1.1-.8-3.9-1.6-4.2-.8,0,0,0,.2,0,.3-.1.7-.3,1.6-.4,2.5,0,.9-.1,1.7,0,2.2,0,0,0,.2.1.4.5.9,2.1,2.6,2.6,3,0,0,0,0,0,0,.8.2,2.4-1.2,3.1-2.1.9,1.3,3.2,1,6,.3,2.7-.6,4.8-1.9,5.2-3.4,1.1.5,3.3,1.2,3.9.7.2-.4.7-2,.9-3.1,0-.5.1-.9,0-1.1Z"/><path class="cls-7" d="M140.9,21c0,.3.1.6.2.8-2.7,2.2-8.3,3.7-11.7,2.6,0,.3.2.6.2.8,0,.2.2.4.3.6.9,1.3,3.2,1,6,.3,2.7-.6,4.8-1.9,5.2-3.4,1.1.5,3.3,1.2,3.9.7.2-.4.7-2,.9-3.1-1.4.7-3.8,1.1-4.9.7h0Z"/><path class="cls-6" d="M143.4,14.9s0,0,0,0c-.7-.5-2.8,1.5-3.5,2.7h-.2s0,0,0,0c-1.3-1.3-3.5-.7-5.8-.2-2,.5-4.3,1.5-5.1,2.9,0,0,0,0,0,0-1.1-.8-3.9-1.6-4.2-.8,0,0,0,.2,0,.3.9.9,2.2,1.2,3.3,1.3,0,0,.3.4.2.4-1.1.5-2.9,1.3-3.9.8h0c0,.9-.1,1.7,0,2.2,0,0,0,.2.1.4,1.5-.6,3.4-1.5,4.8-2-.1-.5-.2-1.1-.3-1.6,3.3-2.1,7.3-3.7,11.3-3.4.2.5.5,1.4.7,2.2,0,0,0,0,0,0,1.4,0,4.1-.4,5.1-1.4-.5-1.2-1.7-2.8-2.3-3.8Z"/><path class="cls-1" d="M57.3,12.4c0-.1,0-.3,0-.5-.2-1.2-1-3.1-1.4-4.1,0,0,0,0,0,0-.6-.6-3,.8-3.9,1.8h-.2s0,0,0,0c-.9-1.5-3.1-1.5-5.5-1.5-2,0-4.4.4-5.5,1.6,0,0,0,0,0,0-.9-1-3.4-2.4-3.9-1.7,0,0,0,.2-.1.3-.3.6-.6,1.5-.9,2.3-.3.8-.5,1.6-.5,2.1,0,0,0,.2,0,.4.2,1,1.4,3,1.8,3.4,0,0,0,0,0,0,.7.4,2.6-.6,3.4-1.3.6,1.4,2.8,1.7,5.6,1.7,2.7,0,5-.7,5.7-2.1.9.7,2.9,1.9,3.6,1.5.3-.3,1.1-1.7,1.6-2.7.2-.4.3-.8.3-1Z"/><path class="cls-7" d="M52.2,13c0,.3,0,.6,0,.8-3,1.5-8.7,1.6-11.7-.1,0,.3,0,.6,0,.8,0,.2,0,.5.1.6.6,1.4,2.8,1.7,5.6,1.7,2.7,0,5-.7,5.7-2.1.9.7,2.9,1.9,3.6,1.5.3-.3,1.1-1.7,1.6-2.7-1.5.4-3.8.2-4.8-.4h0Z"/><path class="cls-6" d="M55.9,7.8s0,0,0,0c-.6-.6-3,.8-3.9,1.8h-.2s0,0,0,0c-.9-1.5-3.1-1.5-5.5-1.5-2,0-4.4.4-5.5,1.6,0,0,0,0,0,0-.9-1-3.4-2.4-3.9-1.7,0,0,0,.2-.1.3.6,1,1.8,1.6,2.9,1.9,0,0,.1.5.1.4-1.2.2-3,.6-3.9,0h0c-.3.8-.5,1.6-.5,2.1,0,0,0,.2,0,.4,1.6-.2,3.6-.7,5-.8,0-.5,0-1.1,0-1.6,3.6-1.2,7.8-1.9,11.4-.7.1.5.2,1.4.2,2.2,0,0,0,0,0,0,1.3.3,4,.5,5.1-.2-.2-1.2-1-3.1-1.4-4.1Z"/><path class="cls-5" d="M67.4,13.7c0-.1,0-.3,0-.4.2-1,0-2.7,0-3.7,0,0,0,0,0,0-.3-.6-2.7-.1-3.6.4h-.1c0,0,0,0,0,0-.3-1.5-2.2-2-4.1-2.6-1.6-.5-3.7-.8-4.9-.1,0,0,0,0,0,0-.5-1-2.1-2.8-2.7-2.3,0,0-.1.1-.2.2-.4.4-.9,1-1.3,1.6-.4.6-.8,1.1-.9,1.6,0,0,0,.2,0,.3,0,.9.4,2.8.6,3.2,0,0,0,0,0,0,.5.5,2.2.2,3.1-.2,0,1.3,1.9,2.1,4.1,2.8,2.2.7,4.2.7,5.1-.2.5.8,1.9,2.3,2.5,2.1.3-.2,1.4-1.1,2-1.8.3-.3.5-.6.5-.8Z"/><path class="cls-7" d="M63,12.8c0,.3-.2.5-.2.6-2.8.4-7.4-.9-9.5-3.2,0,.3-.1.5-.2.6,0,.2,0,.4,0,.6,0,1.3,1.9,2.1,4.1,2.8,2.2.7,4.2.7,5.1-.2.5.8,1.9,2.3,2.5,2.1.3-.2,1.4-1.1,2-1.8-1.3,0-3.1-.8-3.8-1.6h0Z"/><path class="cls-6" d="M67.4,9.6s0,0,0,0c-.3-.6-2.7-.1-3.6.4h-.1c0,0,0,0,0,0-.3-1.5-2.2-2-4.1-2.6-1.6-.5-3.7-.8-4.9-.1,0,0,0,0,0,0-.5-1-2.1-2.8-2.7-2.3,0,0-.1.1-.2.2.2,1,1,1.8,1.8,2.3,0,0,0,.4,0,.4-1-.1-2.6-.3-3.1-1.1h0c-.4.6-.8,1.1-.9,1.5,0,0,0,.2,0,.3,1.3.2,3.1.4,4.2.6.1-.4.3-.9.5-1.2,3.3,0,6.8.5,9.5,2.4,0,.5-.2,1.2-.4,1.8,0,0,0,0,0,0,1,.6,3.1,1.5,4.2,1.2.2-1,0-2.7,0-3.7Z"/><path class="cls-5" d="M85.9,24.6c0-.1,0-.3,0-.4-.2-1-1-2.5-1.3-3.3,0,0,0,0,0,0-.5-.5-2.4.8-3.1,1.6h-.1s0,0,0,0c-.8-1.2-2.6-1-4.5-.9-1.6.1-3.6.6-4.4,1.6,0,0,0,0,0,0-.8-.7-2.9-1.8-3.2-1.2,0,0,0,.2,0,.2-.2.5-.4,1.2-.6,1.9-.2.7-.3,1.3-.3,1.7,0,0,0,.2,0,.3.2.8,1.3,2.4,1.6,2.7,0,0,0,0,0,0,.6.3,2.1-.6,2.7-1.3.5,1.1,2.4,1.2,4.7,1.1,2.2-.1,4-.8,4.5-2,.8.6,2.5,1.4,3,1,.2-.3.8-1.5,1.2-2.3.1-.4.2-.7.2-.9Z"/><path class="cls-7" d="M81.7,25.3c0,.3,0,.5,0,.6-2.4,1.4-7,1.8-9.6.5,0,.3,0,.5,0,.6,0,.2,0,.4.1.5.5,1.1,2.4,1.2,4.7,1.1,2.2-.1,4-.8,4.5-2,.8.6,2.5,1.4,3,1,.2-.3.8-1.5,1.2-2.3-1.2.4-3.1.4-4-.1h0Z"/><path class="cls-6" d="M84.4,20.9s0,0,0,0c-.5-.5-2.4.8-3.1,1.6h-.1s0,0,0,0c-.8-1.2-2.6-1-4.5-.9-1.6.1-3.6.6-4.4,1.6,0,0,0,0,0,0-.8-.7-2.9-1.8-3.2-1.2,0,0,0,.2,0,.2.6.8,1.5,1.2,2.5,1.4,0,0,.1.4.1.4-1,.2-2.4.6-3.2.1h0c-.2.7-.3,1.3-.3,1.7,0,0,0,.2,0,.3,1.3-.3,2.9-.8,4-1,0-.4,0-.9,0-1.3,2.9-1.2,6.3-2,9.3-1.2.1.4.2,1.1.3,1.8,0,0,0,0,0,0,1.1.2,3.3.2,4.2-.4-.2-1-1-2.5-1.3-3.3Z"/><path class="cls-1" d="M97.2,3.7c0-.1-.1-.3-.2-.4-.7-1-2.1-2.4-2.9-3.2,0,0,0,0,0,0-.8-.3-2.5,2-2.9,3.2h-.1c0,0,0,0,0,0-1.4-1-3.5,0-5.6.8-1.8.8-3.9,2.2-4.4,3.6,0,0,0,0,0,0-1.2-.5-4-.8-4.2,0,0,0,0,.2,0,.3,0,.7,0,1.6,0,2.4,0,.8.2,1.6.4,2.1,0,0,0,.2.2.3.6.8,2.5,2.1,3,2.4,0,0,0,0,0,0,.8,0,2.1-1.6,2.6-2.6,1.1,1.1,3.3.4,5.8-.7,2.5-1.1,4.3-2.6,4.4-4.1,1.1.3,3.4.6,3.9,0,.1-.4.4-2,.4-3.1,0-.5,0-.9-.2-1.1Z"/><path class="cls-7" d="M92.7,6.3c.1.3.2.5.3.7-2.2,2.6-7.3,4.9-10.8,4.5.1.3.3.5.3.7.1.2.2.4.4.5,1.1,1.1,3.3.4,5.8-.7,2.5-1.1,4.3-2.6,4.4-4.1,1.1.3,3.4.6,3.9,0,.1-.4.4-2,.4-3.1-1.2.9-3.4,1.7-4.6,1.5h0Z"/><path class="cls-6" d="M94,0s0,0,0,0c-.8-.3-2.5,2-2.9,3.2h-.1c0,0,0,0,0,0-1.4-1-3.5,0-5.6.8-1.8.8-3.9,2.2-4.4,3.6,0,0,0,0,0,0-1.2-.5-4-.8-4.2,0,0,0,0,.2,0,.3,1,.7,2.3.8,3.4.6,0,0,.3.4.3.4-1,.7-2.5,1.7-3.6,1.5h0c0,.8.2,1.6.4,2.1,0,0,0,.2.2.3,1.3-.8,3-2.1,4.2-2.8-.2-.5-.4-1-.5-1.5,2.8-2.6,6.4-4.9,10.2-5.2.3.4.7,1.2,1.1,1.9,0,0,0,0,0,0,1.4-.2,3.8-1.1,4.6-2.2-.7-1-2.1-2.4-2.9-3.2Z"/><path class="cls-4" d="M92.4,18.8c0-.1,0-.3,0-.5,0-1.2-.6-3.1-.8-4.1,0,0,0,0,0,0-.5-.6-3,.4-3.9,1.2h-.2s0,0,0,0c-.7-1.5-2.8-1.8-5.1-2-1.9-.2-4.3-.1-5.5.9,0,0,0,0,0,0-.7-1-3-2.7-3.5-2.1,0,0,0,.2-.1.3-.3.6-.8,1.3-1.1,2.1-.4.7-.7,1.4-.7,1.9,0,0,0,.2,0,.4.1,1,1,3,1.3,3.5,0,0,0,0,0,0,.6.4,2.6-.3,3.4-.9.4,1.4,2.5,1.9,5.2,2.3,2.6.3,4.9-.1,5.7-1.3.8.8,2.6,2.1,3.2,1.9.3-.3,1.3-1.5,1.8-2.4.2-.4.4-.8.4-1Z"/><path class="cls-7" d="M87.4,18.7c0,.3,0,.6,0,.8-3.1,1.1-8.5.5-11.2-1.5,0,.3,0,.6,0,.8,0,.2,0,.4,0,.6.4,1.4,2.5,1.9,5.2,2.3,2.6.3,4.9-.1,5.7-1.3.8.8,2.6,2.1,3.2,1.9.3-.3,1.3-1.5,1.8-2.4-1.5.2-3.7-.3-4.6-1h0Z"/><path class="cls-6" d="M91.6,14.2s0,0,0,0c-.5-.6-3,.4-3.9,1.2h-.2s0,0,0,0c-.7-1.5-2.8-1.8-5.1-2-1.9-.2-4.3-.1-5.5.9,0,0,0,0,0,0-.7-1-3-2.7-3.5-2.1,0,0,0,.2-.1.3.5,1,1.5,1.8,2.6,2.2,0,0,0,.5,0,.4-1.2,0-3,.2-3.7-.6h0c-.4.7-.7,1.4-.7,1.9,0,0,0,.2,0,.4,1.5,0,3.5-.2,4.9-.2,0-.5.2-1.1.3-1.5,3.6-.8,7.7-.9,11.1.6,0,.5,0,1.4,0,2.2,0,0,0,0,0,0,1.2.5,3.7,1,4.9.4,0-1.2-.6-3.1-.8-4.1Z"/><path class="cls-1" d="M115.3,30.4c0-.1,0-.3,0-.5-.1-1.2-.8-3.1-1.2-4.2,0,0,0,0,0,0-.6-.6-3.1.7-4,1.6h-.2s0,0,0,0c-.8-1.5-3.1-1.6-5.4-1.7-2,0-4.5.2-5.6,1.3,0,0,0,0,0,0-.8-1-3.2-2.5-3.8-1.9,0,0,0,.2-.1.3-.3.6-.7,1.4-1,2.2-.3.8-.6,1.5-.6,2,0,0,0,.2,0,.4.2,1,1.3,3,1.6,3.5,0,0,0,0,0,0,.7.4,2.6-.5,3.5-1.1.5,1.4,2.7,1.8,5.6,1.9,2.7.1,5-.5,5.8-1.8.8.8,2.8,2,3.5,1.7.3-.3,1.2-1.6,1.7-2.7.2-.4.4-.8.3-1Z"/><path class="cls-7" d="M110.1,30.7c0,.3,0,.6,0,.8-3.1,1.4-8.7,1.2-11.7-.7,0,.3,0,.6,0,.8,0,.2,0,.5,0,.6.5,1.4,2.7,1.8,5.6,1.9,2.7.1,5-.5,5.8-1.8.8.8,2.8,2,3.5,1.7.3-.3,1.2-1.6,1.7-2.7-1.5.3-3.8,0-4.8-.7h0Z"/><path class="cls-6" d="M114.1,25.7s0,0,0,0c-.6-.6-3.1.7-4,1.6h-.2s0,0,0,0c-.8-1.5-3.1-1.6-5.4-1.7-2,0-4.5.2-5.6,1.3,0,0,0,0,0,0-.8-1-3.2-2.5-3.8-1.9,0,0,0,.2-.1.3.6,1,1.7,1.7,2.8,2.1,0,0,.1.5.1.5-1.2.2-3,.4-3.9-.3h0c-.3.8-.6,1.5-.6,2,0,0,0,.2,0,.4,1.6-.2,3.6-.5,5-.6,0-.5,0-1.1.2-1.6,3.7-1,7.9-1.5,11.5-.2,0,.5.1,1.4.1,2.2,0,0,0,0,0,0,1.3.4,3.9.7,5.1,0-.1-1.2-.8-3.1-1.2-4.2Z"/><path class="cls-5" d="M113.6,16.8c0-.1,0-.3,0-.5,0-1.2-.2-3.2-.4-4.3,0,0,0,0,0,0-.4-.7-3.1,0-4.2.8h-.2c0,0,0,0,0-.1-.5-1.7-2.7-2.2-5-2.7-1.9-.5-4.4-.6-5.7.3,0,0,0,0,0,0-.6-1.2-2.7-3.1-3.4-2.5,0,0-.1.2-.2.2-.4.6-.9,1.3-1.4,2-.5.7-.8,1.4-1,1.9,0,0,0,.2,0,.4,0,1,.7,3.2.9,3.7,0,0,0,0,0,0,.6.5,2.6,0,3.6-.5.2,1.5,2.4,2.3,5.1,2.9,2.7.6,5,.5,6-.7.7.9,2.4,2.5,3.1,2.3.3-.3,1.5-1.4,2.2-2.3.3-.4.5-.7.5-.9Z"/><path class="cls-7" d="M108.5,16.2c0,.3-.1.6-.2.8-3.3.8-8.8-.4-11.4-2.9,0,.3-.1.6-.1.8,0,.2,0,.5,0,.7.2,1.5,2.4,2.3,5.1,2.9,2.7.6,5,.5,6-.7.7.9,2.4,2.5,3.1,2.3.3-.3,1.5-1.4,2.2-2.3-1.5,0-3.8-.7-4.6-1.5h0Z"/><path class="cls-6" d="M113.3,12s0,0,0,0c-.4-.7-3.1,0-4.2.8h-.2c0,0,0,0,0-.1-.5-1.7-2.7-2.2-5-2.7-1.9-.5-4.4-.6-5.7.3,0,0,0,0,0,0-.6-1.2-2.7-3.1-3.4-2.5,0,0-.1.2-.2.2.4,1.1,1.4,2,2.4,2.5,0,0,0,.5,0,.5-1.2,0-3.1-.1-3.8-1h0c-.5.7-.8,1.4-1,1.9,0,0,0,.2,0,.4,1.6.1,3.6.2,5,.3.1-.5.3-1.1.4-1.5,3.8-.4,8,0,11.3,1.9,0,.5-.1,1.4-.3,2.2,0,0,0,0,0,0,1.2.6,3.7,1.5,5,1,0-1.2-.2-3.2-.4-4.3Z"/><path class="cls-4" d="M120.3,19.1c0-.1,0-.2-.2-.4-.5-.9-1.5-2.1-2.1-2.8,0,0,0,0,0,0-.6-.3-2.1,1.4-2.5,2.3h-.1s0,0,0,0c-1.1-.9-2.8-.3-4.6.2-1.5.5-3.3,1.4-3.8,2.6,0,0,0,0,0,0-.9-.5-3.2-1-3.4-.3,0,0,0,.2,0,.2,0,.6,0,1.3-.1,2,0,.7,0,1.3.1,1.7,0,0,0,.2.1.3.4.7,1.9,1.9,2.2,2.2,0,0,0,0,0,0,.6.1,1.8-1.1,2.3-1.9.8.9,2.6.6,4.8-.1,2.1-.7,3.7-1.8,3.9-3,.9.3,2.7.7,3.1.3.1-.3.4-1.6.5-2.5,0-.4,0-.7,0-.9Z"/><path class="cls-7" d="M116.4,20.8c0,.2.2.5.2.6-2,1.9-6.3,3.4-9.1,2.8,0,.3.2.5.2.6,0,.2.2.3.3.5.8.9,2.6.6,4.8-.1,2.1-.7,3.7-1.8,3.9-3,.9.3,2.7.7,3.1.3.1-.3.4-1.6.5-2.5-1,.7-2.9,1.1-3.8.9h0Z"/><path class="cls-6" d="M118,15.9s0,0,0,0c-.6-.3-2.1,1.4-2.5,2.3h-.1s0,0,0,0c-1.1-.9-2.8-.3-4.6.2-1.5.5-3.3,1.4-3.8,2.6,0,0,0,0,0,0-.9-.5-3.2-1-3.4-.3,0,0,0,.2,0,.2.7.6,1.8.8,2.7.8,0,0,.2.3.2.3-.9.5-2.2,1.2-3,.9h0c0,.7,0,1.3.1,1.7,0,0,0,.2.1.3,1.1-.6,2.6-1.4,3.6-1.9-.1-.4-.3-.9-.3-1.2,2.5-1.9,5.5-3.4,8.6-3.4.2.4.5,1,.7,1.7,0,0,0,0,0,0,1.1,0,3.2-.6,3.9-1.4-.5-.9-1.5-2.1-2.1-2.8Z"/><path class="cls-1" d="M140.5,23.1c0-.1,0-.3,0-.4.1-1.1,0-2.9-.2-3.9,0,0,0,0,0,0-.4-.6-2.8,0-3.7.6h-.1c0,0,0,0,0,0-.4-1.5-2.3-2-4.3-2.6-1.7-.5-3.9-.7-5.1,0,0,0,0,0,0,0-.5-1-2.3-2.8-2.9-2.3,0,0-.1.1-.2.2-.4.5-.9,1.1-1.3,1.7-.4.6-.8,1.2-.9,1.7,0,0,0,.2,0,.3,0,.9.5,2.9.7,3.3,0,0,0,0,0,0,.5.5,2.4.1,3.2-.3.1,1.3,2,2.1,4.4,2.8,2.3.7,4.4.6,5.3-.4.6.8,2,2.3,2.7,2.1.3-.2,1.4-1.2,2-2,.3-.3.5-.6.5-.8Z"/><path class="cls-7" d="M135.9,22.4c0,.3-.1.5-.2.7-2.9.6-7.8-.7-10-2.9,0,.3-.1.5-.2.7,0,.2,0,.4,0,.6.1,1.3,2,2.1,4.4,2.8,2.3.7,4.4.6,5.3-.4.6.8,2,2.3,2.7,2.1.3-.2,1.4-1.2,2-2-1.4,0-3.3-.7-4-1.5h0Z"/><path class="cls-6" d="M140.3,18.8s0,0,0,0c-.4-.6-2.8,0-3.7.6h-.1c0,0,0,0,0,0-.4-1.5-2.3-2-4.3-2.6-1.7-.5-3.9-.7-5.1,0,0,0,0,0,0,0-.5-1-2.3-2.8-2.9-2.3,0,0-.1.1-.2.2.3,1,1.1,1.8,2,2.3,0,0,0,.4,0,.4-1.1,0-2.7-.2-3.3-1h0c-.4.6-.8,1.2-.9,1.7,0,0,0,.2,0,.3,1.4.2,3.2.3,4.5.5.1-.5.3-.9.4-1.3,3.4-.2,7.1.2,10,2.1,0,.5-.2,1.2-.3,1.9,0,0,0,0,0,0,1.1.6,3.3,1.4,4.4,1.1.1-1.1,0-2.9-.2-3.9Z"/><path class="cls-8" d="M149.9,23.7c0-.1,0-.3-.1-.4-.4-1-1.4-2.4-1.9-3.3,0,0,0,0,0,0-.6-.4-2.4,1.2-3,2.2h-.1s0,0,0,0c-1-1.1-2.9-.7-4.9-.3-1.7.4-3.7,1.1-4.4,2.3,0,0,0,0,0,0-.9-.7-3.3-1.4-3.6-.7,0,0,0,.2,0,.3-.1.6-.3,1.4-.4,2.1,0,.7-.1,1.4,0,1.9,0,0,0,.2,0,.3.4.8,1.8,2.3,2.1,2.6,0,0,0,0,0,0,.7.2,2.1-1,2.7-1.7.7,1.1,2.7.9,5.1.4,2.3-.5,4.1-1.5,4.5-2.8.9.5,2.8,1.1,3.3.7.2-.3.7-1.7.9-2.6,0-.4.1-.8,0-.9Z"/><path class="cls-7" d="M145.6,25.2c0,.3.1.5.1.7-2.3,1.8-7.1,2.9-10,1.9,0,.3.1.5.2.7,0,.2.1.4.2.5.7,1.1,2.7.9,5.1.4,2.3-.5,4.1-1.5,4.5-2.8.9.5,2.8,1.1,3.3.7.2-.3.7-1.7.9-2.6-1.2.6-3.2.8-4.2.5h0Z"/><path class="cls-6" d="M147.8,20s0,0,0,0c-.6-.4-2.4,1.2-3,2.2h-.1s0,0,0,0c-1-1.1-2.9-.7-4.9-.3-1.7.4-3.7,1.1-4.4,2.3,0,0,0,0,0,0-.9-.7-3.3-1.4-3.6-.7,0,0,0,.2,0,.3.7.7,1.8,1.1,2.8,1.1,0,0,.2.4.2.4-1,.4-2.5,1-3.3.6h0c0,.7-.1,1.4,0,1.9,0,0,0,.2,0,.3,1.3-.5,2.9-1.2,4.1-1.6,0-.5-.2-.9-.2-1.3,2.9-1.7,6.3-3,9.6-2.6.2.4.4,1.2.6,1.8,0,0,0,0,0,0,1.2,0,3.5-.2,4.3-1-.4-1-1.4-2.4-1.9-3.3Z"/><rect class="cls-9" x="30.4" y="109.6" width="99.4" height="28.9" rx="7.4" ry="7.4"/><path class="cls-11" d="M122.6,109.7H38c-4.1,0-7.4,3.3-7.4,7.4v14c0,4.1,3.3,7.4,7.4,7.4h84.6c3.3,0,6.2-2.2,7.1-5.2.2-.7.3-1.4.3-2.2v-14c0-4.1-3.3-7.4-7.4-7.4Z"/><g class="cls-15"><path class="cls-10" d="M122.6,109.7h-3.5c2.9,0,5.3,1.6,6.6,4,.5,1,.8,2.2.8,3.4v14c0,1.4-.4,2.7-1.1,3.8-1.3,2.1-3.7,3.6-6.3,3.6h3.5c3.3,0,6.2-2.2,7.1-5.2.2-.7.3-1.4.3-2.2v-14c0-4.1-3.3-7.4-7.4-7.4Z"/></g><g class="cls-17"><path class="cls-12" d="M125,135.1s-87.4-.1-87.5-.1c-4.4-.5-4.3-12.1-1.5-12.5,2-.3,3.5-.6,5.6-.6,28,0,56.8.1,84.8,0h2.8c.4-.5.5-1.1.5-1.8,0-1.7-1-3.6-2.2-4.8-.6-.6-1.3-1.1-2-1.6-1.2-.7-2.7-1.2-4.1-1.6-4.1-1.2-8.3-1.9-12.6-2.4h-20.9c-11,.8-22.1,2.3-33.1,2.2-4.4,0-8.9-.3-13.3.5-4.3.8-8.7,3-11,6.7v12c0,4.1,3.3,7.4,7.4,7.4h84.6c3.3,0,6.2-2.2,7.1-5.2-1.2.9-2.7,1.6-4.3,1.7-.1,0-.2,0-.3,0Z"/></g><rect class="cls-14" x="30.4" y="109.7" width="99.4" height="28.9" rx="7.4" ry="7.4"/><path class="cls-3" d="M158,28.6c.7.4,1,1.3.7,2.1l-5.3,15.6c-6.4,18.5-10.7,37.6-13,57.1l-1.9,15.5c0,1-.8,1.7-1.7,1.7H21.4c-.9,0-1.7-.8-1.7-1.7l-2-18c-2-17.3-5.6-34.4-10.8-51L.6,30.1c0-1,.8-1.7,1.7-1.7l67,2.6c7.8.3,15.6.3,23.4,0l64.5-2.6c.3,0,.6,0,.8.2Z"/><g class="cls-16"><path class="cls-10" d="M154.9,31.5c.7.4,1,1.3.7,2.1l-5.3,15.6c-6.4,18.5-10.7,37.6-13,57.1l-1.5,12.4c-.5.5-1.1.4-2,.4l1.4-10.9c2.3-19.4,6.7-38.6,13-57.1l5.3-15.5c.3-.8,0-1.7-.7-2.1-.2-.1-.5-.2-.8-.2l-64.5,2.5c-7.8.3-15.6.3-23.4,0l-60.1-2.9c-.3-.9-.5-1.9.4-1.9l61.9,2.9c7.8.3,15.6.3,23.4,0l64.5-2.6c.3,0,.6,0,.8.2Z"/></g><g class="cls-16"><path class="cls-12" d="M131.9,116.4l-.2,1.9H24.3c-.9,0-1.6-.7-1.6-1.6l-1.9-16.4c-1.8-15.7-5.1-31.2-9.8-46.3l-5.8-19.9v-.4c-.1,0-.1,0-.1,0h2.3c0,0,0,.4,0,.4l5.3,17.9c4.7,15.1,8,30.6,9.8,46.3l1.9,16.4c0,.9.7,1.6,1.6,1.6h104.9s1,0,1,0Z"/></g><path class="cls-13" d="M136.6,120.3H21.3c-1,0-1.7-.8-1.7-1.7l-2-18c-2-17.3-5.6-34.4-10.8-51L.5,29.7c0-1,.8-1.7,1.7-1.7l58.6,2.3c13.3.5,26.7.5,40,0l56.2-2.2c.3,0,.6,0,.8.2.7.4,1,1.3.7,2.1l-5.3,15.6c-6.3,18.5-10.7,37.6-13,57.1l-1.9,15.5c0,1-.8,1.7-1.7,1.7Z"/><path class="cls-12" d="M36.6,123.2c8.4,0,15.3,6.8,15.3,15.3s-6.8,15.3-15.3,15.3-15.3-6.8-15.3-15.3,6.8-15.3,15.3-15.3ZM44.5,138.5c0-4.4-3.5-7.9-7.9-7.9s-7.9,3.5-7.9,7.9,3.5,7.9,7.9,7.9,7.9-3.5,7.9-7.9Z"/><path class="cls-2" d="M36.6,130.6c4.4,0,7.9,3.5,7.9,7.9s-3.5,7.9-7.9,7.9-7.9-3.5-7.9-7.9,3.5-7.9,7.9-7.9ZM40,138.5c0-1.9-1.5-3.4-3.4-3.4s-3.4,1.5-3.4,3.4,1.5,3.4,3.4,3.4,3.4-1.5,3.4-3.4Z"/><circle class="cls-9" cx="36.6" cy="138.5" r="3.4"/><circle class="cls-14" cx="36.6" cy="138.5" r="15.3"/><path class="cls-14" d="M44.5,138.5c0,4.4-3.5,7.9-7.9,7.9s-7.9-3.5-7.9-7.9,3.5-7.9,7.9-7.9,7.9,3.5,7.9,7.9Z"/><g class="cls-16"><path class="cls-10" d="M49.5,136.7c0,4.2-2.2,7.9-5.5,9.8,1.3-1.8,2-4.1,2-6.5,0-6.2-4.9-11.3-10.9-11.3s-3.8.5-5.4,1.5c2-2.9,5.2-4.8,8.9-4.8,6,0,10.9,5.1,10.9,11.3Z"/><path class="cls-10" d="M44.5,139.3c0,1.1-.2,2.1-.5,3.1-1.2,3.4-4.5,5.8-8.3,5.8s-8.9-4-8.9-8.9,3.7-8.6,8.3-8.8c.2,0,.4,0,.5,0,4.9,0,8.8,4,8.8,8.9ZM44.2,138.3c0-4.1-3.4-7.2-7.5-7.2s-7.4,3-7.5,7.2c0,4.1,3.2,7.6,7.3,7.6s7.7-3.5,7.7-7.6Z"/></g><path class="cls-12" d="M123.8,123.2c8.4,0,15.3,6.8,15.3,15.3s-6.8,15.3-15.3,15.3-15.3-6.8-15.3-15.3,6.8-15.3,15.3-15.3ZM131.7,138.5c0-4.4-3.5-7.9-7.9-7.9s-7.9,3.5-7.9,7.9,3.5,7.9,7.9,7.9,7.9-3.5,7.9-7.9Z"/><path class="cls-2" d="M123.8,130.6c4.4,0,7.9,3.5,7.9,7.9s-3.5,7.9-7.9,7.9-7.9-3.5-7.9-7.9,3.5-7.9,7.9-7.9ZM127.3,138.5c0-1.9-1.5-3.4-3.4-3.4s-3.4,1.5-3.4,3.4,1.5,3.4,3.4,3.4,3.4-1.5,3.4-3.4Z"/><circle class="cls-9" cx="123.8" cy="138.5" r="3.4"/><circle class="cls-14" cx="123.8" cy="138.5" r="15.3"/><path class="cls-14" d="M131.7,138.5c0,4.4-3.5,7.9-7.9,7.9s-7.9-3.5-7.9-7.9,3.5-7.9,7.9-7.9,7.9,3.5,7.9,7.9Z"/><g class="cls-16"><path class="cls-10" d="M136.8,136.7c0,4.2-2.2,7.9-5.5,9.8,1.3-1.8,2-4.1,2-6.5,0-6.2-4.9-11.3-10.9-11.3s-3.8.5-5.4,1.5c2-2.9,5.2-4.8,8.9-4.8,6,0,10.9,5.1,10.9,11.3Z"/><path class="cls-10" d="M131.8,139.3c0,1.1-.2,2.1-.5,3.1-1.2,3.4-4.5,5.8-8.3,5.8s-8.9-4-8.9-8.9,3.7-8.6,8.3-8.8c.2,0,.4,0,.5,0,4.9,0,8.8,4,8.8,8.9ZM131.4,138.3c0-4.1-3.4-7.2-7.5-7.2s-7.4,3-7.5,7.2c0,4.1,3.2,7.6,7.3,7.6s7.7-3.5,7.7-7.6Z"/></g></svg>