<?xml version="1.0" encoding="UTF-8"?><svg id="Layer_1" xmlns="http://www.w3.org/2000/svg" width="460" height="211.3" viewBox="0 0 460 211.3"><defs><style>.cls-1{fill:#000;opacity:0;}.cls-1,.cls-2,.cls-3{stroke-width:0px;}.cls-2{fill:#f4fafb;}.cls-3{fill:#fff;}</style></defs><path class="cls-2" d="M460,108.9c0-30.9-38.5-56.6-89.3-62.1-8.7-15.3-28.1-25.9-50.6-25.9s-31.7,5.8-41.9,15.1c-1.3,0-2.7-.1-4-.1-3.5,0-7,.3-10.3.8C257.2,15.8,222.4,0,180.5,0s-84.6,19.7-84.6,44,.3,4.6,1,6.8c-3.2-.3-6.5-.5-9.9-.5C39,50.3,0,81.3,0,119.5s39,69.2,87.1,69.2,31.8-3.6,44.9-9.9c18.7,19.5,51.9,32.5,89.7,32.5s69.3-12.3,88.3-31c3.9.2,7.8.4,11.8.4,24.9,0,47.9-4.6,66.3-12.4,41.9-8.9,71.8-32.1,71.8-59.3Z"/><path class="cls-3" d="M100.1,62.7c-10.1-3.2-15.6-2-18.7-1.9-29,1.1-69.8,27.9-69.8,63.5s2.1,16.6,5.8,24c-.1-1.5-.2-3-.2-4.6,0-40.4,38.7-73.1,86.4-73.1s6.6.2,9.8.5c0,0,0-4.3-13.3-8.4Z"/><path class="cls-1" d="M147.9,168.9c16.8,17.5,46.6,29.2,80.6,29.2s62.3-11.1,79.3-27.9c3.5.2,7,.3,10.6.3,22.4,0,43-4.1,59.6-11.1,37.7-8,64.5-28.8,64.5-53.3s-5.1-20.7-14.1-29.2c1,3.3,1.5,6.7,1.5,10.1,0,25.2-27.7,46.8-66.6,55-17.1,7.2-38.4,11.5-61.5,11.5s-7.4-.1-11-.3c-17.6,17.3-47.9,32.4-81.8,28.8-15.5-1.6-61.2-13.1-61.2-13.1Z"/><path class="cls-3" d="M186.1,18.9c25.8,0,48.9,5.9,64.7,15.3-10.6-14.6-37.7-25-69.5-25s-72.3,16.3-74.2,36.7c13.2-15.9,43.6-27,79-27Z"/></svg>