<?xml version="1.0" encoding="UTF-8"?><svg id="Layer_1" xmlns="http://www.w3.org/2000/svg" width="151" height="151" viewBox="0 0 151 151"><defs><style>.cls-1,.cls-2{fill:none;}.cls-1,.cls-3,.cls-4,.cls-5,.cls-6,.cls-7,.cls-8{stroke-width:0px;}.cls-2{stroke:#231f20;stroke-miterlimit:10;}.cls-3{fill:#9d834f;}.cls-4{fill:#635241;}.cls-5{fill:#9c8355;}.cls-6{fill:#917849;}.cls-7{fill:#b49d6a;}.cls-8{fill:#977b60;}</style></defs><polygon class="cls-3" points="147 .5 .6 .5 .6 .6 .5 .6 .5 21.4 .5 23.4 .5 129.8 .5 146.9 .5 150.5 146.7 150.5 150.3 150.5 150.3 150.4 150.5 150.4 150.5 146.9 150.5 24.1 150.5 .5 147 .5"/><polygon class="cls-6" points="128 38.5 126.1 40.3 93.5 73 90.3 76.1 92.9 78.7 93.2 79 127.2 113 129.4 115.2 129.4 108.9 129.4 42.8 129.4 37 128 38.5"/><path class="cls-6" d="M39.8,25.7l33.5,33.4.7-.7.7-.9.7-.7h0l1.8,1.9,32.9-32.9,1.6-1.6,2.7-2.7H35.5l2.2,2.2,2.2,2.2ZM106.5,25.7h0s-62.1,0-62.1,0h0s62.1,0,62.1,0Z"/><polygon class="cls-6" points="78.3 94.1 77.9 93.7 75.3 91.1 38.4 128 36.6 129.8 42.6 129.8 109.3 129.8 107.1 127.6 111.8 127.6 78.3 94.1"/><path class="cls-6" d="M60,75.9l-1.8-1.7L24.6,40.5l-.9-.9-2.6-2.6v77.7l2.8-2.8.7-.7,33.3-33.3,2.1-2.1ZM24.6,44.6h0v62.1h0s0-62.1,0-62.1Z"/><polygon class="cls-5" points="127 45.2 127 106.4 96.4 75.8 127 45.2"/><polygon class="cls-5" points="107.1 127.6 44.8 127.6 75.9 96.5 107.1 127.6"/><polygon class="cls-5" points="106.5 25.7 75.5 56.8 44.4 25.7 106.5 25.7"/><polygon class="cls-5" points="24.6 44.6 55.7 75.7 24.6 106.7 24.6 44.6"/><rect class="cls-1" x=".6" y="146.9" width="146" height="3.6"/><path class="cls-1" d="M144.7,21.4H.6v2h20.5v106.4h110.3c0-.1-2-.1-2-.1V24.1h15.2v105.6h2l.2-54.1V21.4c.1,0-2.2,0-2.2,0ZM23.7,39.6v-16.1h13.9l2.2,2.2,33.5,33.4-15,15L24.6,40.5l-.9-.9ZM38.4,128h-14.5v-16l.7-.7,33.3-33.3,2.1-2.1,15-15,2.3-2.3,32.9-32.9,1.6-1.6h14.2v16.2l-32.7,32.6-3.2,3.2-15,15-36.9,36.8ZM127.2,128h-15.1l-.4-.4-33.5-33.5-.4-.4,15-15,.3.3,34,34v14.9Z"/><polygon class="cls-1" points="1.6 148.9 145 148.1 146.7 146.9 .5 146.9 1.6 148.9"/><polygon class="cls-7" points="19.6 21.4 21.1 21.4 23.7 21.4 35.5 21.4 114.6 21.4 129.4 21.4 131.4 21.4 144.7 21.4 147 21.4 147 .5 .6 .5 .6 .6 .5 .6 .5 21.4 .5 23.4 .5 129.8 .5 146.9 146.7 146.9 146.7 129.8 146.7 129.7 144.7 129.7 144.7 24.1 134.1 24.1 129.4 24.1 129.4 37 129.4 42.8 129.4 108.9 129.4 115.2 129.4 128 129.4 129.7 131.4 129.7 131.3 129.8 114 129.8 109.3 129.8 42.6 129.8 36.6 129.8 23.9 129.8 21.1 129.8 21.1 128 21.1 114.8 21.1 41.1 21.1 37 21.1 23.4 17.6 23.4 .6 23.4 .6 21.4 19.6 21.4"/><polygon class="cls-7" points="92.9 78.7 77.9 93.7 78.3 94.1 111.8 127.6 112.2 128 127.2 128 127.2 113 93.2 79 92.9 78.7"/><polygon class="cls-7" points="93.5 73 126.1 40.3 126.1 24.1 111.9 24.1 110.3 25.7 77.3 58.6 75.1 60.9 60 75.9 58 78 24.6 111.3 23.9 112 23.9 128 38.4 128 75.3 91.1 90.3 76.1 93.5 73"/><polygon class="cls-7" points="58.3 74.2 73.3 59.1 39.8 25.7 37.7 23.5 23.7 23.5 23.7 39.6 24.6 40.5 58.3 74.2"/><polyline class="cls-2" points=".6 .6 .6 .5 147 .5 150.5 .5 150.5 24.1 150.5 146.9 150.5 150.4 150.3 150.4"/><polyline class="cls-2" points="90.3 76.1 92.9 78.7 93.2 79 127.2 113 129.4 115.2"/><polyline class="cls-2" points="35.5 21.4 37.7 23.5 39.8 25.7 73.3 59.1 75.1 60.9"/><polyline class="cls-2" points="60 75.9 58.3 74.2 24.6 40.5 23.7 39.6 21.1 37"/><polyline class="cls-2" points="114 129.8 112.2 128 111.8 127.6 78.3 94.1 77.9 93.7 75.3 91.1"/><line class="cls-2" x1="131.4" y1="129.7" x2="131.3" y2="129.8"/><polyline class="cls-2" points="129.4 37 128 38.5 126.1 40.3 93.5 73 90.3 76.1 75.3 91.1 38.4 128 36.6 129.8"/><polyline class="cls-2" points="21.1 114.8 23.9 112 24.6 111.3 58 78 60 75.9 75.1 60.9 77.3 58.6 110.3 25.7 111.9 24.1 114.6 21.4"/><polyline class="cls-2" points="21.1 21.4 21.1 23.4 21.1 37 21.1 41.1 21.1 114.8 21.1 128 21.1 129.8"/><polyline class="cls-2" points=".5 129.8 .5 23.4 .5 21.4"/><polyline class="cls-2" points="150.2 21.3 150.3 21.3 150.3 24.1 150.3 129.7 146.7 129.7 144.7 129.7 131.4 129.7 129.4 129.7 129.4 128 129.4 115.2 129.4 108.9 129.4 42.8 129.4 37 129.4 24.1 129.4 21.4"/><polygon class="cls-2" points="150.2 21.3 150.2 .6 147 .6 .6 .6 .5 .6 .5 21.4 .6 21.4 19.6 21.4 21.1 21.4 23.7 21.4 35.5 21.4 114.6 21.4 129.4 21.4 131.4 21.4 144.7 21.4 147 21.4 150.2 21.4 150.2 21.3"/><polygon class="cls-2" points="150.3 146.9 150.3 129.8 146.7 129.8 144.7 129.8 131.3 129.8 114 129.8 109.3 129.8 42.6 129.8 36.6 129.8 23.9 129.8 21.1 129.8 19.7 129.8 .6 129.8 .5 129.8 .5 146.9 .5 150.5 146.7 150.5 150.3 150.5 150.3 150.4 150.3 146.9"/><path class="cls-8" d="M69.1,62.7c-5.4-3.8-9.7-8.6-13.9-13.5-4.6-4.6-9.9-8.4-14.4-13-3-3.1-5.9-6.3-8.5-9.8,0,0,.1-.1.1-.1,5.2,4,9.9,8.3,14.4,13.1,3,3.1,5.6,6.6,8.8,9.5,3.3,2.8,6.7,5.5,9.5,8.8,1.4,1.6,2.8,3.3,4.1,5,0,0-.1.1-.1.1h0Z"/><path class="cls-8" d="M123.8,117.9c-5.2-3.5-9.3-8.3-13.2-13.2-2.8-3.1-6.2-5.6-9.1-8.5-4.5-4.3-8.8-8.8-12.5-13.9,0,0,.1-.1.1-.1,3.4,2.5,6.5,5.3,9.4,8.2,4.5,4.3,8.1,9.5,12.5,13.9,3.1,2.8,6.3,5.4,9,8.6,1.4,1.6,2.7,3.1,3.9,4.9,0,0-.1.1-.1.1h0Z"/><path class="cls-8" d="M81.9,89.3c5.1,3.5,9.2,8.1,13.1,12.9,4.3,4.4,9.3,8,13.4,12.5,2.8,3,5.5,6,7.9,9.4,0,0-.1.1-.1.1-5-3.7-9.4-7.9-13.5-12.4-2.8-2.9-5.2-6.3-8.2-9.1-3.1-2.7-6.3-5.2-8.9-8.4-1.3-1.5-2.7-3.1-3.8-4.8h.1Z"/><path class="cls-8" d="M24.8,32.4c5.4,3.8,9.8,8.6,14.1,13.6,4.6,4.6,9.9,8.5,14.4,13.3,3,3.1,6,6.4,8.6,9.9,0,0-.1.1-.1.1-5.3-3.9-10-8.4-14.5-13.2-3-3.1-5.6-6.7-8.8-9.6-3.3-2.9-6.7-5.5-9.6-8.9-1.5-1.6-2.9-3.3-4.2-5.1h.1Z"/><path class="cls-8" d="M122.9,123.2c-1.5-.5-2.8-1.4-3.9-2.7-.5-.6-.8-1.4-1.3-2-1.6-1.6-4-2.5-5.5-4.2-1.1-1.1-2-2.4-2.7-3.9,0,0,.1-.1.1-.1,2.3.9,4.1,2.3,5.6,4.2,1.1,1.1,1.7,2.7,2.9,3.6,1.3.9,2.8,1.5,3.7,2.9.5.6.9,1.3,1.2,2.1,0,0-.1.1-.1.1h0Z"/><path class="cls-8" d="M98.8,98.8c-1.6-.6-2.8-1.6-3.9-2.8-.5-.7-.8-1.4-1.3-2-1.6-1.7-4-2.7-5.5-4.5-1-1.2-2-2.5-2.7-4h.1c2.3.9,4.1,2.4,5.6,4.3,1.1,1.2,1.7,2.8,2.9,3.8,1.3.9,2.8,1.6,3.7,3,.5.7.9,1.3,1.2,2.2,0,0-.1.1-.1.1h0Z"/><path class="cls-8" d="M24.7,24.2c4.7,2.6,8.2,6.8,11.3,11,3.5,3.9,7.7,7.2,11.1,11.2,2.3,2.7,4.4,5.4,6.4,8.3,0,0-.1.1-.1.1-4.3-3.1-8-6.9-11.3-11.1-2.3-2.7-4.1-5.8-6.5-8.2-2.5-2.4-5.3-4.5-7.6-7.3-1.2-1.3-2.3-2.6-3.4-4.1,0,0,.1-.2.1-.2h0Z"/><path class="cls-8" d="M32.4,124c10.5-12.4,22.1-23.6,34-34.7,7.7-7.5,14.9-15.7,22.4-23.3,11.3-11.6,22.9-22.9,35.1-33.5,0,0,.1.1.1.1-10.9,11.9-22.2,23.5-33.9,34.7-7.7,7.6-15.8,14.7-23.3,22.4-7.3,7.7-14.8,16-22.5,23.3-3.9,3.8-7.8,7.5-11.8,11.1,0,0-.1-.1-.1-.1h0Z"/><path class="cls-8" d="M117.8,25c-10.5,12.4-22.1,23.6-34,34.7-7.7,7.5-14.9,15.7-22.4,23.3-11.3,11.6-22.9,22.9-35.1,33.5,0,0-.1-.1-.1-.1,10.9-11.9,22.2-23.5,33.9-34.7,7.7-7.6,15.8-14.7,23.3-22.4,7.3-7.7,14.8-16,22.5-23.3,3.9-3.8,7.8-7.5,11.8-11.1,0,0,.1.1.1.1h0Z"/><path class="cls-8" d="M27.1,123.1c.5-1.5,1.4-2.8,2.7-3.9.6-.5,1.4-.8,2-1.3,1.6-1.6,2.5-4,4.2-5.5,1.1-1.1,2.4-2,3.9-2.7h.1c-.9,2.4-2.3,4.2-4.2,5.8-1.1,1.1-2.7,1.7-3.6,2.9-.9,1.3-1.5,2.8-2.9,3.7-.6.5-1.3.9-2.1,1.2h-.1Z"/><path class="cls-8" d="M51.5,99c3.6-5.1,8.2-9.1,12.9-13.1,3-2.8,5.3-6.2,8-9.2,4-4.7,8.2-9,12.8-13.1,0,0,.2.1.2.1-2.1,3.5-4.7,6.8-7.4,9.8-4,4.7-8.9,8.4-13.2,12.8-2.7,3.1-5.2,6.4-8.3,9-1.5,1.3-3.1,2.6-4.9,3.8h-.1Z"/><path class="cls-8" d="M108.9,52.3c1.3-2.7,3.5-4.2,5.9-5.7,2-1.9,3.3-4.5,5.3-6.3,1.3-1.2,2.8-2.4,4.5-3.3,0,0,.1.1.1.1-1.2,2.6-2.9,4.8-5.1,6.5-1.3,1.2-3.2,2-4.4,3.4-1.1,1.4-2.1,3.1-3.7,4.1-.8.5-1.6,1-2.5,1.3v-.2h-.1Z"/><path class="cls-8" d="M126.1,24.8c-2.6,4.7-6.8,8.2-11,11.3-3.9,3.5-7.2,7.7-11.2,11.1-2.7,2.3-5.4,4.4-8.3,6.4h-.1c3.1-4.5,6.9-8.1,11.1-11.4,2.7-2.3,5.8-4.1,8.2-6.5,2.4-2.5,4.5-5.3,7.3-7.6,1.3-1.2,2.6-2.3,4.1-3.4h.2Z"/><path class="cls-8" d="M3,26c.9,5.6.5,11.3,0,16.9-.1,3.8.7,7.5.9,11.2.5,5.6.7,11.2.3,16.9,0,0-.2,0-.2,0-1-3.7-1.5-7.4-1.9-11.2-.5-5.7.2-11.3.1-17-.3-3.8-.8-7.5-.4-11.3.2-1.9.4-3.8.9-5.6h.2Z"/><path class="cls-8" d="M8.7,47.8c1.1,9.5.8,19,.2,28.5,0,9.5.9,19,.7,28.5,0,6.3-.3,12.7-1,19h-.2c-.9-9.5-1.1-19-.8-28.5,0-6.3.8-12.6.6-19-.3-6.3-.8-12.6-.5-19,.1-3.2.3-6.3.7-9.5h.2Z"/><path class="cls-8" d="M16.3,28.9c1.1,6.3.8,12.7.2,19.1,0,6.4.9,12.7.7,19.1,0,4.2-.3,8.5-1,12.7,0,0-.2,0-.2,0-.9-6.3-1.1-12.7-.8-19.1,0-4.2.8-8.5.6-12.7-.3-4.2-.8-8.5-.5-12.7.1-2.1.3-4.2.7-6.4h.2Z"/><path class="cls-8" d="M16.3,91.7c1.2,2.8,1,5.7.4,8.5,0,2.9,1.1,5.7.9,8.5,0,1.9-.2,3.8-.8,5.7h-.2c-1-2.8-1.3-5.6-1-8.5,0-1.9.7-3.8.5-5.7-.7-2.8-1.1-5.7,0-8.5,0,0,.2,0,.2,0h0Z"/><path class="cls-8" d="M3.1,81.6c1.2,3.9,1,8,.5,12,0,4,1.1,8,1,12,0,2.7-.2,5.3-.8,8h-.2c-1-4-1.3-7.9-1.1-12,0-2.7.7-5.3.5-8-.3-2.6-.9-5.3-.6-8,0-1.3.2-2.7.6-4,0,0,.2,0,.2,0h0Z"/><path class="cls-8" d="M8.8,27c.7,1.3,1,2.6.9,4,0,.7-.4,1.3-.4,2,0,2,1.1,3.9,1,6,0,1.3-.2,2.7-.8,4h-.2c-.7-1.3-1-2.7-1.1-4-.3-2,.6-4,.5-6-.3-1.3-1-2.6-.6-4,.1-.7.2-1.3.6-2h.2Z"/><path class="cls-8" d="M134.3,28.9c1,11.8.8,23.7.3,35.5,0,11.9,1.2,23.7,1.1,35.5,0,7.9-.3,15.8-1,23.7,0,0-.2,0-.2,0-.8-11.9-1.1-23.7-.9-35.5,0-7.9.6-15.8.4-23.7-.3-7.8-.9-15.9-.6-23.7.1-4,.3-7.9.7-11.9h.2Z"/><path class="cls-8" d="M138.7,67c1.1,4,.8,8.1.2,12.1,0,4,.9,8.1.7,12.1,0,2.7-.3,5.4-1,8.1h-.2c-.9-4-1.1-8-.8-12.1,0-2.7.8-5.4.6-8.1-.3-2.7-.8-5.4-.5-8.1.1-1.3.3-2.7.7-4,0,0,.2,0,.2,0h0Z"/><path class="cls-8" d="M141.6,25.3c1.5,5.3,1.2,10.8.7,16.2,0,5.4,1,10.8.9,16.2,0,3.6-.1,7.2-.6,10.8,0,0-.2,0-.2,0-1.3-5.3-1.6-10.8-1.3-16.2,0-3.6.7-7.2.5-10.8-.3-3.6-.9-7.2-.7-10.8,0-1.8.1-3.6.4-5.4,0,0,.2,0,.2,0h0Z"/><path class="cls-8" d="M142.6,93.6c1.2,3.6.9,7.3.3,10.9,0,3.6,1,7.2.8,10.9,0,2.4-.3,4.8-.9,7.3h-.2c-1-3.6-1.2-7.2-.9-10.9,0-2.4.7-4.8.6-7.3-.6-3.6-1-7.3.1-10.9,0,0,.2,0,.2,0h0Z"/><path class="cls-8" d="M7.8,136c5.7-1.2,11.6-.9,17.3-.3,5.8.1,11.6-.7,17.3-.2,3.8.3,7.7.7,11.5,1.6v.2c-5.8.5-11.6.4-17.3,0-3.8-.2-7.7-1-11.5-.9-3.8.2-7.7.8-11.5.4-1.9-.1-3.8-.3-5.8-.6v-.2h0Z"/><path class="cls-8" d="M42,142.5c6.1-.8,12.2-1.1,18.3-.9,2.7.2,6.5.5,9.1.6,9.1.2,18.3-.5,27.4.1,6.1.4,12.2,1,18.2,2.1v.2c-9.2.2-18.3,0-27.4-.7-6.1-.3-12.1-1.2-18.2-1.1-6.1.2-12.2.7-18.2.4-3,0-6.1-.2-9.1-.5,0,0,0-.2,0-.2h0Z"/><path class="cls-8" d="M95,136.8c5.8-1.2,11.6-.9,17.4-.4,5.8,0,11.6-1,17.4-.9,3.9,0,7.7.3,11.6.9,0,0,0,.2,0,.2-5.8,1-11.6,1.2-17.4,1-3.9,0-7.8-.7-11.6-.5-3.9.3-7.7.9-11.6.5-1.9-.1-3.9-.3-5.8-.6v-.2h0Z"/><path class="cls-8" d="M122.6,142.1c1.4-.7,2.8-.9,4.3-.7.7.1,1.4.5,2.1.5,2.1,0,4.2-.9,6.4-.7,1.4,0,2.8.3,4.3,1v.2c-2.1.9-4.2,1.1-6.4.8-1.4,0-2.8-.8-4.3-.6-1.4.3-2.8.8-4.3.5-.7-.1-1.4-.3-2.1-.7,0,0,0-.2,0-.2h0Z"/><path class="cls-8" d="M58.3,134.5c2.8-1.1,5.7-.8,8.6-.2,2.9,0,5.7-.9,8.6-.7,1.9,0,3.8.3,5.7,1,0,0,0,.2,0,.2-2.8.9-5.7,1.1-8.6.8-1.9,0-3.8-.8-5.7-.6-1.9.3-3.8.8-5.7.5-1-.1-1.9-.3-2.9-.7v-.2h0Z"/><path class="cls-8" d="M5.7,146.1c.9-.6,1.9-.9,3-.7.5.1,1,.5,1.5.5.5,0,1,0,1.5-.2,1-.4,2-.5,3-.5,1,0,2,.3,3,1v.2c-1,.6-2,.9-3,1-1,0-2-.1-3-.5-.5-.2-1-.3-1.5-.2-.5,0-1,.4-1.5.5-.5.1-1,0-1.5,0-.5-.1-1-.3-1.5-.7,0,0,0-.2,0-.2h0Z"/><path class="cls-8" d="M10.7,141.8c1.6-.7,3.3-.9,5-.7.8.1,1.7.5,2.5.5,2.5,0,5-.9,7.5-.7,1.7,0,3.3.3,5,1,0,0,0,.2,0,.2-2.5.9-4.9,1.1-7.5.8-1.7,0-3.3-.8-5-.6-1.6.3-3.3.8-5,.5-.8-.1-1.7-.3-2.5-.7v-.2h0Z"/><path class="cls-8" d="M2.8,4.8c6.9-1.1,13.9-.8,20.8-.2,6.9,0,13.9-.9,20.8-.7,4.6,0,9.3.3,13.9,1,0,0,0,.2,0,.2-6.9.9-13.9,1.1-20.8.8-4.6,0-9.3-.8-13.9-.6-4.6.3-9.2.8-13.9.4-2.3-.1-4.6-.3-6.9-.7v-.2h0Z"/><path class="cls-8" d="M48.9,10.4c6.8-1.3,13.7-1.1,20.6-.4,6.9,0,13.7-.7,20.6-.3,4.6.3,9.1.7,13.7,1.7,0,0,0,.2,0,.2-6.9.5-13.7.4-20.6,0-4.6-.2-9.1-1-13.7-.9-4.6.3-9.1.8-13.7.5-2.3,0-4.6-.2-6.9-.5,0,0,0-.2,0-.2h0Z"/><path class="cls-8" d="M71,6.6c1.6-.7,3.3-.9,5-.7.8.1,1.7.5,2.5.5,2.5,0,5-.9,7.5-.7,1.7,0,3.3.3,5,1v.2c-2.5.9-4.9,1.1-7.5.8-1.7,0-3.3-.8-5-.6-1.6.3-3.3.8-5,.5-.8-.1-1.7-.3-2.5-.7v-.2h0Z"/><path class="cls-8" d="M111.3,5.6c3.4-1.1,6.9-.8,10.3-.2,3.5,0,6.9-.9,10.3-.7,2.3,0,4.6.3,6.9,1,0,0,0,.2,0,.2-3.4.9-6.9,1.1-10.3.8-2.3,0-4.6-.8-6.9-.6-3.4.6-6.9.9-10.3-.2,0,0,0-.2,0-.2h0Z"/><path class="cls-8" d="M51.4,16.5c11.1-1.5,22.3-1.5,33.5-1.2,11.2-.3,22.3-1.6,33.5-1.8,7.4-.1,14.9-.1,22.4.3v.2c-11.1,1.3-22.3,1.8-33.5,1.9-7.4.2-14.9-.3-22.3,0-7.4.5-14.9,1.3-22.3,1.1-3.7,0-7.5,0-11.2-.3,0,0,0-.2,0-.2h0Z"/><path class="cls-8" d="M43.4,14.6c-4.5.9-9,.4-13.5-.1-3-.1-6,.6-9,.8-4.5.5-8.9.6-13.5.2,0,0,0-.2,0-.2,2.9-1,5.9-1.4,8.9-1.7,4.5-.5,9,.3,13.6.3,3-.3,6-.8,9-.3,1.5.2,3,.4,4.5.9v.2h0Z"/><path class="cls-8" d="M5.3,10.6c2.7-1.1,5.1-.8,7.8-.2,2.6,0,5.1-.9,7.8-.7,1.7,0,3.4.3,5.2,1v.2c-2.6.9-5.1,1.1-7.8.8-1.7,0-3.4-.8-5.2-.6-1.7.3-3.4.8-5.2.5-.9-.1-1.7-.3-2.6-.7v-.2h0Z"/><path class="cls-4" d="M25.8,97.6c-.6-5.9-.6-11.9-.4-17.8-.2-9.8-1.3-20-.2-29.7,1,9.9.6,19.8.6,29.7.3,5.9.8,12.1,0,17.8h0Z"/><path class="cls-4" d="M31.3,84.5c-.5-3.2-.3-6.3,0-9.5,0-5.2-.9-10.8.3-15.8.8,5.3.2,10.5,0,15.8.2,3.1.6,6.6-.3,9.5h0Z"/><path class="cls-4" d="M37.2,92.5c-.6-2.6-.4-5.2-.1-7.8,0-2.6-.5-5.2-.4-7.8,0-1.7.2-3.5.5-5.2h.1c.9,4.3.3,8.7.1,13,.3,2.6.5,5.2-.1,7.8,0,0,0,0,0,0h0Z"/><path class="cls-4" d="M47.5,77.9c-.6-1.2-.4-2.4-.2-3.6,0-1.2-.6-2.4-.6-3.6,0-.8.1-1.6.4-2.4h0c.9,2,.4,4,.4,6,.4,1.2.6,2.4,0,3.6,0,0,0,0,0,0h0Z"/><path class="cls-4" d="M50.6,128.7c-.6-1.6-.4-3.1-.1-4.7,0-1.6-.5-3.1-.4-4.7,0-1,.2-2.1.5-3.1h.1c.9,2.6.3,5.2.1,7.8.3,1.6.5,3.1-.1,4.7,0,0,0,0,0,0h0Z"/><path class="cls-4" d="M60.3,124.1c-.6-1.9-.5-3.8-.3-5.7,0-1.9-.7-3.8-.7-5.7,0-1.3,0-2.6.4-3.9h.1c.9,3.2.5,6.4.5,9.6.4,1.9.6,3.8,0,5.8,0,0,0,0,0,0h0Z"/><path class="cls-4" d="M74.5,126.1c-.5-1.8-.3-3.5,0-5.2,0-1.7-.4-3.5-.3-5.2,0-1.2.2-2.3.6-3.5h.1c.8,2.9.1,5.8,0,8.7.3,1.8.4,3.5-.2,5.2,0,0,0,0,0,0h0Z"/><path class="cls-4" d="M68.4,127.2c-.6-3.2-.5-6.5-.2-9.7-.1-5.3-1.1-11.1,0-16.2.9,5.4.4,10.8.3,16.2.2,3.2.7,6.7-.1,9.7h0Z"/><path class="cls-4" d="M94.2,126.7c-.6-1.6-.4-3.2-.1-4.8,0-1.6-.5-3.2-.4-4.8,0-1.1.2-2.1.5-3.2,0,0,0,0,0,0,.9,2.7.3,5.3.1,8,.3,1.6.5,3.2-.1,4.8,0,0,0,0,0,0h0Z"/><path class="cls-4" d="M85.5,122.3c-.6-2.2-.5-4.4-.2-6.6,0-2.2-.6-4.4-.6-6.6,0-1.5.1-3,.4-4.4,0,0,.1,0,.1,0,.9,3.7.4,7.3.4,11.1.4,2.2.6,4.4,0,6.6,0,0,0,0,0,0h0Z"/><path class="cls-4" d="M61.8,43.9c-.6-2.2-.4-4.3-.1-6.4,0-2.1-.5-4.3-.4-6.4,0-1.4.2-2.9.5-4.3,0,0,.1,0,.1,0,.9,3.6.3,7.1.1,10.7.3,2.1.5,4.3-.1,6.4,0,0,0,0,0,0h0Z"/><path class="cls-4" d="M76.6,56.3c-.7-4.3-.5-8.5-.2-12.8,0-7.1-.8-14.5.1-21.3,1.1,7.1.3,14.2.2,21.4.2,4.2.6,8.8-.1,12.8h0Z"/><path class="cls-4" d="M68.7,34.4c-.6-1-.4-1.9-.1-2.9,0-1-.5-1.9-.4-2.9,0-.6.2-1.3.5-1.9h.1c.6,1.3.6,2.5.2,3.8,0,.3-.1.6-.1,1,.3,1,.5,1.9-.1,2.9,0,0,0,0,0,0h0Z"/><path class="cls-4" d="M52.3,36.6c-.7-1.6-.6-3.3-.4-4.9,0-1.6-.7-3.3-.7-4.9,0-1.1,0-2.2.3-3.3h0c1.1,2.7.6,5.4.6,8.2.4,1.6.7,3.3.2,4.9,0,0,0,0,0,0h0Z"/><path class="cls-4" d="M87.3,24.9c.6,2,.4,3.9.1,5.9,0,2,.5,3.9.4,5.9,0,1.3-.2,2.6-.5,3.9h0c-.9-3.3-.3-6.5-.1-9.8-.3-2-.5-3.9.1-5.9,0,0,0,0,0,0h0Z"/><path class="cls-4" d="M96.4,30.4c-.3-.5-.4-1-.4-1.5.2-.5.4-.9.1-1.5-.4-1-.4-2,.2-2.9,0,0,.1,0,.1,0,.3.5.4,1,.5,1.5,0,.7-.4,1.5-.4,2.2.3.7.5,1.4-.1,2.2,0,0,0,0,0,0h0Z"/><path class="cls-4" d="M112.2,85.2c-.6-3.5-.5-6.9-.2-10.3,0-5.7-1-11.8,0-17.2.9,5.7.3,11.5.2,17.2.2,3.4.7,7.2-.1,10.3h0Z"/><path class="cls-4" d="M121.8,56c.6,5.5.5,11,.3,16.4.1,9.1,1.1,18.5,0,27.4-1-9.1-.4-18.3-.4-27.4-.3-5.4-.7-11.2,0-16.4h0Z"/><path class="cls-4" d="M104.9,84.8c-.6-1.7-.4-3.3-.1-4.9,0-1.6-.5-3.3-.4-4.9,0-1.1.2-2.2.5-3.3h0c.9,2.7.3,5.5.1,8.2.3,1.6.5,3.3-.1,4.9,0,0,0,0,0,0h0Z"/><path class="cls-4" d="M118.3,96.9c-.6-1.7-.4-3.3-.1-4.9,0-1.6-.5-3.3-.4-4.9,0-1.1.2-2.2.5-3.3h0c.9,2.7.3,5.5.1,8.2.3,1.6.5,3.3-.1,4.9,0,0,0,0,0,0h0Z"/><path class="cls-4" d="M77.6,100.4c.6,1,.4,1.9.2,2.9,0,1,.5,1.9.4,2.9,0,.7-.1,1.3-.4,2h0c-.6-1.3-.7-2.6-.3-3.9,0-.3.1-.7,0-1-.3-1-.5-1.9,0-2.9,0,0,0,0,0,0h0Z"/><path class="cls-4" d="M69.4,40.4c.6,1.1.4,2.3.1,3.4,0,1.1.5,2.3.4,3.4,0,.8-.2,1.5-.5,2.3,0,0-.1,0-.1,0-.9-1.9-.3-3.7-.1-5.7-.3-1.1-.5-2.3.1-3.4,0,0,0,0,0,0h0Z"/><path class="cls-4" d="M116.8,54.4c.5,2.7.4,5.4,0,8,0,4.4.9,9.2-.3,13.4-.9-4.5-.2-8.9,0-13.4-.3-2.7-.4-5.4.2-8,0,0,0,0,0,0h0Z"/><path class="cls-4" d="M41.8,65.3c.6,2.1.4,4.2.1,6.3,0,2.1.5,4.2.4,6.3,0,1.4-.2,2.8-.5,4.2h0c-.9-3.5-.3-7-.1-10.6-.3-2.1-.5-4.2.1-6.3,0,0,0,0,0,0h0Z"/></svg>