<?xml version="1.0" encoding="UTF-8"?><svg id="Layer_1" xmlns="http://www.w3.org/2000/svg" width="162.9" height="253.8" viewBox="0 0 162.9 253.8"><defs><style>.cls-1{fill:#b4b4b4;}.cls-1,.cls-2,.cls-3,.cls-4,.cls-5,.cls-6,.cls-7,.cls-8,.cls-9,.cls-10,.cls-11,.cls-12,.cls-13,.cls-14,.cls-15{stroke-width:0px;}.cls-16{fill:none;stroke:#231f20;stroke-miterlimit:10;}.cls-2{fill:#e3e7ec;}.cls-3{fill:#bec0c0;}.cls-4{fill:#bae3ee;}.cls-5{fill:#80cddf;}.cls-6{fill:#cececd;}.cls-7{fill:#6d6e70;}.cls-8{fill:#86d3e7;}.cls-9{fill:#9d9d9d;}.cls-10{fill:#7d7d7d;}.cls-11{fill:#686969;}.cls-12{fill:#8b8c8c;}.cls-13{fill:#75c9dc;}.cls-14{fill:#77c3d5;}.cls-15{fill:#d7d7d5;}</style></defs><path class="cls-8" d="M161.3,90.6H.9v5.1s1,144.4,1,144.4v6.1h156.7c.5-1.7.9-3.7,1.1-6.2,0,0,1.2-84.6,2.1-149.3h-.3Z"/><path class="cls-8" d="M162,20.1c-1.3-11.2-11-19.6-22.3-19.6H19.8C8.7.5.3,9.2.5,20.3c0,2.6,0,5.3,0,8s0,2.2,0,3.2c0,1,0,2,0,2.9l.3,44.9v3.5h7s15.8,0,15.8,0h33s87.7-.2,87.7-.2h17.5c.3-23.8.6-44.2.7-55.3,0-2.1-.1-4.7-.4-7.3Z"/><path class="cls-10" d="M133.8,246h24.7c-.4,1.4-.9,2.6-1.5,3.5H2.6c-.4-.8-.6-1.9-.7-3.3v-.2h131.9Z"/><path class="cls-1" d="M55.4,52.8c0,0-.1,0-.2,0-.1,0-.2,0-.3,0h-15.3c-.8-1.5-2.2-2.7-3.9-3.3-.7-.2-1.4-.4-2.1-.4h-14.1c-1.8,0-3.5.8-4.7,2-1.2,1.2-2,2.9-2,4.7,0,2.7,1.6,5.1,4,6.1.8.4,1.7.6,2.7.6h14.1c1.8,0,3.5-.8,4.7-2,.5-.5.9-1.1,1.2-1.7h15.3c.9,0,1.6-.3,2.2-.9.6-.6.9-1.3.9-2.2,0-1.5-1.1-2.7-2.5-3Z"/><path class="cls-1" d="M55,108.4c0,0-.1,0-.2,0h-15.3c-.7-1.4-2-2.5-3.4-3.1-.8-.3-1.6-.5-2.5-.5h-14.1c-1.8,0-3.5.8-4.7,2-1.2,1.2-2,2.9-2,4.7,0,2.7,1.6,5,3.8,6.1.9.4,1.8.7,2.9.7h14.1c1.8,0,3.5-.8,4.7-2,.5-.5.9-1.1,1.2-1.7h15.3c.9,0,1.6-.3,2.2-.9.6-.5.9-1.3.9-2.2,0-1.6-1.3-2.9-2.9-3Z"/><path class="cls-11" d="M2.8,249.6h154.2c-2.8,4.6-6.9,3.7-6.9,3.7H9.5s-5,1-6.9-3.6h.2Z"/><path class="cls-13" d="M155.4,90.6c0,44.3.3,88.8-.6,133-.1,6.3-.6,13.3-5.1,17.7-4.1,3.9-10.1,4.5-15.9,4.5s-1.4,0-2.2,0c-12.6-.2-25.2-.4-37.8-.7,10.1-.9,18.9-1.3,27-2,8.3-.7,18-3.5,23.3-9.8,4.7-5.6,4.6-13.8,4.8-21.1.4-14.4.7-26.6,1.1-41.1.8-26.2.8-50.2.8-76.5,0-1.3,0-2.7,0-4.1h4.5Z"/><path class="cls-13" d="M155.4,76.1v6.6h-4.4c.2-9.8.5-19.8.7-29.1.3-14.9,2.4-32.4-1.4-43,5.5,6.5,4.5,18.3,4.8,32.1.2,10.2.3,15.2.3,33.5Z"/><path class="cls-14" d="M76,30.9c5.7,4.7,6.2,14.1,6.1,22.2,0,8.2-.8,17.8-6.7,22.2-2.9,2.2-6.2,3.3-9.7,3.6-3,.3-6,.5-9,.7-9.3.6-18.6.8-28,.7v-.3c10.4,0,20.8-.2,31.4-1,3.3-.2,7.5-1.3,10.3-3.4,5.5-4.2,6.2-13.2,6.3-20.9,0-7.6-.3-16.4-5.7-20.8-3.4-2.8-7.9-2.9-12.2-2.9-16.6.1-33.2.2-49.8.4,0-1.1.1-2.2.2-3.2,17.9-.1,35.9-.3,53.8-.4,4.5,0,9.3,0,13,3.1Z"/><path class="cls-5" d="M55.4,52.8c0,0-.1,0-.2,0,0-.3,0-.6,0-.6,0,.2.2.4.2.6Z"/><path class="cls-5" d="M77.3,159.9c-.2-15.8.4-27.9-.9-41.9-.6-6.2-.4-10.4-5.4-14.7-4.3-3.7-10.6-4.7-16.4-5.4-8.6-1.1-17.3-1.8-26-2.2-1.7,0-3.4-.1-5-.2-5.3-.2-10.6-.2-15.9,0-.5,61.9,0,138.2-.4,144.6v.5c20.6,2,46.7,3.2,67.2-1,1.9-7.2,2.2-14.7,2.4-22.2.5-18.3.7-39.2.5-57.6ZM57,113.6c-.5.6-1.3.9-2.2.9h-15.3c-.3.6-.7,1.2-1.2,1.7-1.2,1.2-2.9,2-4.7,2h-14.1c-1,0-2-.2-2.9-.7-2.3-1.1-3.8-3.4-3.8-6.1s.8-3.5,2-4.7c1.2-1.2,2.9-2,4.7-2h2.4c.6,0,1.1,0,1.7,0,0,0,.1,0,.2,0h9.8c.9,0,1.7.2,2.5.5,1.5.6,2.7,1.7,3.4,3.1h15.3c0,0,.1,0,.2,0,1.6,0,2.9,1.4,2.9,3s-.3,1.6-.9,2.2Z"/><path class="cls-14" d="M28.6,80v.3c-1.7,0-3.4,0-5,0v-.3c1.7,0,3.4,0,5,0Z"/><path class="cls-5" d="M23.8,104.8h-.2c0,0,.1,0,.2,0Z"/><path class="cls-5" d="M23.6,104.8h0s-1.7,0-1.7,0c.6,0,1.1,0,1.7,0Z"/><path class="cls-14" d="M82.1,110.4c0-11.8-4.3-18.7-8.9-18.6-13.6.3-29.4-.1-44.6-.4-1.7,0-3.4,0-5,0-5.4,0-10.8-.1-15.9,0,0,1.3,0,2.7,0,4.1,5.3-.1,10.6,0,15.9,0,1.7,0,3.4.1,5,.2,8.7.4,17.3,1.1,26,2.2,5.9.7,12.1,1.8,16.4,5.4,5,4.3,4.8,8.5,5.4,14.7,1.3,14,.6,26.1.9,41.9.2,18.3,0,39.2-.5,57.6-.2,7.4-.4,15-2.4,22.2,2-.4,4-.9,6-1.4,3.6-1,1.7-112.9,1.7-127.8Z"/><path class="cls-14" d="M23.6,80v.3c-5.3,0-10.5-.2-15.7-.3v-.3c5.3.2,10.5.3,15.7.3Z"/><path class="cls-5" d="M70.9,34c-3.4-2.8-7.9-2.9-12.2-2.9-16.6.1-33.2.2-49.8.4-.3,6.5-.6,14.8-.8,24.3-.2,7.3-.3,15.4-.4,23.9,5.3.2,10.5.3,15.7.3,1.7,0,3.4,0,5,0,10.4,0,20.8-.2,31.4-1,3.3-.2,7.5-1.3,10.3-3.4,5.5-4.2,6.2-13.2,6.3-20.9,0-7.6-.3-16.4-5.7-20.8ZM57,57.9c-.5.6-1.3.9-2.2.9h-15.3c-.3.6-.7,1.2-1.2,1.7-1.2,1.2-2.9,2-4.7,2h-14.1c-1,0-1.9-.2-2.7-.6-2.3-1.1-4-3.4-4-6.1s.8-3.5,2-4.7c1.2-1.2,2.9-2,4.7-2h14.1c.7,0,1.4.1,2.1.4,1.7.5,3,1.7,3.9,3.3h15.3c.1,0,.2,0,.3,0,0-.3,0-.6,0-.6,0,.2.2.4.2.6,1.4.3,2.5,1.5,2.5,3s-.3,1.6-.9,2.2Z"/><path class="cls-9" d="M55.5,52.8c1.4.3,2.5,1.5,2.5,3s-.3,1.6-.9,2.2c-.5.6-1.3.9-2.2.9h-8.5c2.9-.1,7,0,8.4-1.4,1.2-1.2,1.2-3.1.7-4.7Z"/><path class="cls-1" d="M55.2,52.8c0,0,.2,0,.2,0,.5,1.6.5,3.5-.7,4.7-1.4,1.4-5.4,1.3-8.4,1.4h-6.8c.5-.9.7-1.9.7-3s-.3-2.2-.8-3.1h15.3c.1,0,.2,0,.3,0Z"/><path class="cls-3" d="M36,52.7h3.6c.5.9.8,2,.8,3.1s-.3,2.1-.7,3h-10.9v-6.1h7.2Z"/><path class="cls-9" d="M33.5,58.8h6.1c-.3.6-.7,1.2-1.2,1.7-1.2,1.2-2.9,2-4.7,2h-4.9v-.7c1.8-.6,3.4-1.6,4.8-2.9h0Z"/><path class="cls-9" d="M39.6,52.7h-3.6c.1-1.1,0-2.2-.3-3.2h0c1.7.4,3,1.6,3.9,3.2Z"/><rect class="cls-6" x="23.7" y="52.7" width="5" height="6.1"/><path class="cls-1" d="M28.7,52.7h7.2c.1-1.1,0-2.2-.3-3.2h0c-.7-.3-1.4-.4-2.1-.4h-12.4c-2.4.5-4.5,2.4-5.3,4.8-.9,2.6-.4,5.6.9,8,.8.4,1.7.6,2.7.6h9.2v-.7c1.8-.6,3.4-1.6,4.8-2.9h0c0,0-4.8,0-4.8,0h-5v-6.1h5ZM21.6,52.9c-1.1.5-1.9,1.7-2,2.9-.1,1.1.3,2.2,1.1,3-1.7,0-3-1.4-3-3s.3-1.6.9-2.2c.6-.6,1.3-.9,2.2-.9h.9v.2Z"/><path class="cls-6" d="M21.6,52.7v.2c-1.1.5-1.9,1.7-2,2.9-.1,1.1.3,2.2,1.1,3-1.7,0-3-1.4-3-3s.3-1.6.9-2.2c.6-.6,1.3-.9,2.2-.9h.9Z"/><path class="cls-6" d="M19.6,49.1h1.7c-2.4.5-4.5,2.4-5.3,4.8-.9,2.6-.4,5.6.9,8-2.3-1.1-4-3.4-4-6.1s.8-3.5,2-4.7c1.2-1.2,2.9-2,4.7-2Z"/><path class="cls-9" d="M55,108.4c1.6,0,2.9,1.4,2.9,3s-.3,1.6-.9,2.2c-.5.6-1.3.9-2.2.9h-9.1c3.1-.3,7.2-.6,8.7-2,1.3-1.3,1.4-2.4.6-4.1t0,0Z"/><path class="cls-1" d="M55,108.4c.8,1.7.7,2.7-.6,4.1-1.4,1.4-5.6,1.7-8.7,2h-6.2c.5-.9.7-1.9.7-3s-.3-2.2-.8-3.1h15.3c0,0,.1,0,.2,0t0,0Z"/><path class="cls-3" d="M35.4,108.4h4.1c.5.9.8,2,.8,3.1s-.3,2.1-.7,3h-10.9v-6.1h6.8Z"/><path class="cls-9" d="M33.2,114.5h6.3c-.3.6-.7,1.2-1.2,1.7-1.2,1.2-2.9,2-4.7,2h-4.9v-.3c1.8-.6,3.5-1.7,4.6-3.3h0Z"/><path class="cls-9" d="M39.5,108.4h-4.1c.6-.9.8-2,.6-3.1h0c1.5.6,2.7,1.7,3.4,3.1Z"/><rect class="cls-6" x="23.6" y="108.4" width="5" height="6.1"/><path class="cls-1" d="M28.6,108.4h6.8c.6-.9.8-2,.6-3.1h0c-.8-.4-1.6-.5-2.5-.5h-11.6c-2.6.3-5,1.9-6.2,4.2-1.4,2.7-1,6.1.9,8.5.9.4,1.8.7,2.9.7h9.2v-.3c1.8-.6,3.5-1.7,4.6-3.3h0c0-.1-4.6-.1-4.6-.1h-5v-6.1h5ZM20.3,114.5c-1.6-.1-2.8-1.4-2.8-3s.3-1.6.9-2.2,1.3-.9,2.2-.9h.5c-.9.7-1.6,2-1.8,2.9-.3,1.1.2,2.4,1.1,3.2Z"/><path class="cls-6" d="M19.4,104.8h2.4c-2.6.3-5,1.9-6.2,4.2-1.4,2.7-1,6.1.9,8.5-2.3-1.1-3.8-3.4-3.8-6.1s.8-3.5,2-4.7c1.2-1.2,2.9-2,4.7-2Z"/><path class="cls-6" d="M20.5,108.4h.5c-.9.7-1.6,2-1.8,2.9-.3,1.1.2,2.4,1.1,3.2-1.6-.1-2.8-1.4-2.8-3s.3-1.6.9-2.2,1.3-.9,2.2-.9Z"/><path class="cls-4" d="M108.3,4c-10.2.2-22.4,0-31.6-.1-17.9,0-33.7-.3-52,.3-5.1.2-12.6.6-16.9,4.8-4.6,4.6-4.5,5.9-4.5,15.5s0,1.8,0,4c0,.9,0,2,0,3.2.1,9.3.3,26.9.6,48v.3c0,1,0,2,0,3.1h3.7c0-1,0-2,0-3v-.3c0-8.5.2-16.6.4-23.9.2-9.4.5-17.7.8-24.3,0-1.1.1-2.2.2-3.2.4-6.9.9-11.3,1.5-12.5,4.1-8.1,20.5-7.8,27.3-8,14.9-.6,16.2-.4,33.2-.6,8.8,0,34.9.1,43.7-.1,15-.4,29.7-.4,30.4-2.1-7.2-2.4-27.7-1.1-36.8-1Z"/><path class="cls-4" d="M4.2,90.6c0,.3,0,.6,0,.8,0,1.4,0,2.7,0,4.1.9,61.7,2.2,141.5,3,144.5.5-6.3,0-82.6.4-144.6,0-1.4,0-2.7,0-4.1v-.8h-3.5Z"/><path class="cls-14" d="M4.3,95.5c0-1.4,0-2.8,0-4.1,0-.3,0-.6,0-.8H.9v5.1s1,144.4,1,144.4c1.7.2,3.5.4,5.3.6v-.5c-.7-3-2.1-82.8-2.9-144.5Z"/><path class="cls-8" d="M4.1,82.9H.8v-3.2c1,0,2.1,0,3.2.1,0,1,0,2,0,3.1Z"/><path class="cls-8" d="M4,79.5v.3c-1.1,0-2.2,0-3.2-.1v-.3c1.1,0,2.2,0,3.2.1Z"/><path class="cls-5" d="M4,79.5c-1.1,0-2.1,0-3.2-.1l-.3-44.9c0-.9,0-1.9,0-2.9.9,0,1.9,0,2.8,0,.1,9.3.3,26.9.6,48Z"/><path class="cls-14" d="M3.4,31.5c-.9,0-1.9,0-2.8,0,0-1,0-2.1,0-3.2h.2c.9,0,1.7,0,2.6,0,0,.9,0,2,0,3.2Z"/><path class="cls-12" d="M155.1,82.7c0,1.2,0,2.4,0,3.6,0,1.4,0,2.8,0,4.2h6.6c0-1.4,0-2.8,0-4.2,0-1.2,0-2.4,0-3.7h-6.7Z"/><path class="cls-12" d="M144.3,82.7v7.8h6.9c0-1.4,0-2.8,0-4.2,0-1.2,0-2.4,0-3.6h-7Z"/><polygon class="cls-9" points="56.6 82.8 56.6 86.4 56.6 90.6 144.8 90.6 144.8 86.4 144.8 82.7 56.6 82.8"/><polygon class="cls-1" points="28.7 82.9 23.6 82.9 23.6 86.4 23.6 90.6 28.7 90.6 57 90.6 57 86.4 57 82.8 28.7 82.9"/><path class="cls-6" d="M7.3,82.9c0,1.1,0,2.3,0,3.5,0,1.4,0,2.8,0,4.2h16.9v-7.7H7.3Z"/><path class="cls-1" d="M4.5,86.4c0-1.2,0-2.3,0-3.5H.8v3.5s0,4.2,0,4.2h3.7c0-1.4,0-2.8,0-4.2Z"/><path class="cls-10" d="M155.4,82.7h-4.4c0,1.2,0,2.4,0,3.6,0,1.4,0,2.8,0,4.2h4.5c0-1.4,0-2.8,0-4.2,0-1.2,0-2.4,0-3.6Z"/><path class="cls-15" d="M4.1,82.9c0,1.1,0,2.3,0,3.5,0,1.4,0,2.8,0,4.2h3.5c0-1.4,0-2.8,0-4.2,0-1.2,0-2.3,0-3.5h-3.7Z"/><path class="cls-16" d="M1.9,246v.2c0,1.4.3,2.5.7,3.3,1.9,4.6,6.9,3.6,6.9,3.6h140.6s4.1,1,6.9-3.7c.6-.9,1.1-2.1,1.5-3.5.5-1.7.9-3.7,1.1-6.2,0,0,1.2-84.6,2.1-149.3,0-1.4,0-2.8,0-4.2,0-1.2,0-2.4,0-3.7.3-23.8.6-44.1.7-55.3,0-2.1-.1-4.7-.4-7.3-1.3-11.2-11-19.6-22.3-19.6H19.8C8.7.5.3,9.2.5,20.3c0,2.6,0,5.3,0,8s0,2.2,0,3.2c0,1,0,2,0,2.9l.3,44.9v3.5s0,3.5,0,3.5v4.2s0,5.1,0,5.1l1,144.4v6.1Z"/><polyline class="cls-16" points="1.1 90.6 4.2 90.6 7.7 90.6 23.6 90.6 28.6 90.6 56.6 90.6 144.3 90.6 151 90.6 155.4 90.6 161.3 90.6"/><polyline class="cls-16" points="1.9 246 73 246 133.8 246 158.5 246 159.1 246"/><path class="cls-16" d="M39.5,58.8c-.3.6-.7,1.2-1.2,1.7-1.2,1.2-2.9,2-4.7,2h-14.1c-1,0-1.9-.2-2.7-.6-2.3-1.1-4-3.4-4-6.1s.8-3.5,2-4.7c1.2-1.2,2.9-2,4.7-2h14.1c.7,0,1.4.1,2.1.4,1.7.5,3,1.7,3.9,3.3"/><path class="cls-16" d="M55.4,52.8c1.4.3,2.5,1.5,2.5,3s-.3,1.6-.9,2.2c-.5.6-1.3.9-2.2.9H20.5c-1.7,0-3-1.4-3-3s.3-1.6.9-2.2c.6-.6,1.3-.9,2.2-.9h34.3c.1,0,.2,0,.3,0,0,0,.2,0,.2,0Z"/><path class="cls-16" d="M39.5,114.5c-.3.6-.7,1.2-1.2,1.7-1.2,1.2-2.9,2-4.7,2h-14.1c-1,0-2-.2-2.9-.7-2.3-1.1-3.8-3.4-3.8-6.1s.8-3.5,2-4.7c1.2-1.2,2.9-2,4.7-2h14.1c.9,0,1.7.2,2.5.5,1.5.6,2.7,1.7,3.4,3.1"/><path class="cls-16" d="M55,108.4c1.6,0,2.9,1.4,2.9,3s-.3,1.6-.9,2.2c-.5.6-1.3.9-2.2.9H20.5c0,0-.2,0-.2,0-1.6-.1-2.8-1.4-2.8-3s.3-1.6.9-2.2,1.3-.9,2.2-.9h34.3c0,0,.1,0,.2,0Z"/><polyline class="cls-16" points="1 82.9 4.1 82.9 7.8 82.9 23.6 82.9 28.6 82.9 56.6 82.8 144.3 82.7 151.1 82.7 155.4 82.7 161.8 82.7 161.9 82.7"/><polyline class="cls-16" points="1.4 86.4 4.1 86.4 7.8 86.4 23.6 86.4 28.6 86.4 56.6 86.4 144.3 86.4 151 86.4 155.4 86.4 161.6 86.4"/><polyline class="cls-16" points="2.8 249.6 157 249.6 157.1 249.6"/><path class="cls-7" d="M44.8,12h3.4c.7,0,1.3.2,1.7.5s.6.9.6,1.5-.2,1.2-.6,1.6-1,.6-1.8.6h-1.1v2.5h-2.1v-6.6ZM46.8,14.8h.5c.4,0,.7,0,.8-.2s.2-.3.2-.5,0-.4-.2-.5-.4-.2-.8-.2h-.6v1.5Z"/><path class="cls-7" d="M67,12h2.1v2.3h2.2v-2.3h2.1v6.6h-2.1v-2.7h-2.2v2.7h-2.1v-6.6Z"/><path class="cls-7" d="M90.2,12h5.5v1.4h-3.4v1.1h3.2v1.4h-3.2v1.3h3.5v1.5h-5.6v-6.6Z"/><path class="cls-7" d="M108.8,12h6.2v1.6h-2.1v5h-2.1v-5h-2.1v-1.6Z"/><path class="cls-2" d="M44.1,11.7h3.4c.7,0,1.3.2,1.7.5s.6.9.6,1.5-.2,1.2-.6,1.6-1,.6-1.8.6h-1.1v2.5h-2.1v-6.6ZM46.1,14.5h.5c.4,0,.7,0,.8-.2s.2-.3.2-.5,0-.4-.2-.5-.4-.2-.8-.2h-.6v1.5Z"/><path class="cls-2" d="M66.3,11.7h2.1v2.3h2.2v-2.3h2.1v6.6h-2.1v-2.7h-2.2v2.7h-2.1v-6.6Z"/><path class="cls-2" d="M89.5,11.7h5.5v1.4h-3.4v1.1h3.2v1.4h-3.2v1.3h3.5v1.5h-5.6v-6.6Z"/><path class="cls-2" d="M108.1,11.7h6.2v1.6h-2.1v5h-2.1v-5h-2.1v-1.6Z"/></svg>