<?xml version="1.0" encoding="UTF-8" standalone="no"?>
<!-- Created with Inkscape (http://www.inkscape.org/) -->

<svg
   xmlns:dc="http://purl.org/dc/elements/1.1/"
   xmlns:cc="http://creativecommons.org/ns#"
   xmlns:rdf="http://www.w3.org/1999/02/22-rdf-syntax-ns#"
   xmlns:svg="http://www.w3.org/2000/svg"
   xmlns="http://www.w3.org/2000/svg"
   version="1.1"
   width="21.915255"
   height="47.990696"
   viewBox="0 0 21.915255 47.990696"
   id="Layer_1"
   xml:space="preserve"><metadata
   id="metadata98"><rdf:RDF><cc:Work
       rdf:about=""><dc:format>image/svg+xml</dc:format><dc:type
         rdf:resource="http://purl.org/dc/dcmitype/StillImage" /><dc:title></dc:title></cc:Work></rdf:RDF></metadata><defs
   id="defs96"><filter
     x="0"
     y="0"
     width="1"
     height="1"
     color-interpolation-filters="sRGB"
     id="filter3045"><feColorMatrix
       values="0"
       type="saturate"
       id="feColorMatrix3047" /></filter><filter
     x="0"
     y="0"
     width="1"
     height="1"
     color-interpolation-filters="sRGB"
     id="filter3049"><feColorMatrix
       values="0"
       type="saturate"
       id="feColorMatrix3051" /></filter><filter
     x="0"
     y="0"
     width="1"
     height="1"
     color-interpolation-filters="sRGB"
     id="filter3053"><feColorMatrix
       values="0"
       type="saturate"
       id="feColorMatrix3055" /></filter><filter
     x="0"
     y="0"
     width="1"
     height="1"
     color-interpolation-filters="sRGB"
     id="filter3057"><feColorMatrix
       values="0"
       type="saturate"
       id="feColorMatrix3059" /></filter><filter
     x="0"
     y="0"
     width="1"
     height="1"
     color-interpolation-filters="sRGB"
     id="filter3061"><feColorMatrix
       values="0"
       type="saturate"
       id="feColorMatrix3063" /></filter></defs>
<radialGradient
   cx="-110.5"
   cy="96.5"
   r="5"
   id="SVGID_1_"
   gradientUnits="userSpaceOnUse"
   gradientTransform="matrix(1,0,0,-1,116,102)">
	<stop
   id="stop4"
   style="stop-color:#b9e5fb;stop-opacity:1"
   offset="0" />
	<stop
   id="stop6"
   style="stop-color:#009ddd;stop-opacity:1"
   offset="1" />
</radialGradient>
<circle
   cx="5.5"
   cy="5.5"
   r="5"
   transform="matrix(1.9883582,0,0,2.0759304,0.02165716,-0.02212936)"
   id="circle8"
   style="fill:url(#SVGID_1_);stroke:#000000;stroke-miterlimit:10;filter:url(#filter3045)" />
<radialGradient
   cx="-110.5"
   cy="84.361298"
   r="5"
   id="SVGID_2_"
   gradientUnits="userSpaceOnUse"
   gradientTransform="matrix(1,0,0,-1,116,102)">
	<stop
   id="stop11"
   style="stop-color:#b9e5fb;stop-opacity:1"
   offset="0" />
	<stop
   id="stop13"
   style="stop-color:#009ddd;stop-opacity:1"
   offset="1" />
</radialGradient>
<circle
   cx="5.5"
   cy="17.639"
   r="5"
   transform="matrix(1.9883582,0,0,2.0759304,0.02165716,-0.02212936)"
   id="circle15"
   style="fill:url(#SVGID_2_);stroke:#000000;stroke-miterlimit:10;filter:url(#filter3049)" />
<linearGradient
   x1="-232"
   y1="599.5"
   x2="-221"
   y2="599.5"
   id="path3_3_"
   gradientUnits="userSpaceOnUse"
   gradientTransform="matrix(1.9883582,0,0,2.0759304,461.32075,-1220.6692)">
	<stop
   id="stop18"
   style="stop-color:#009ddd;stop-opacity:1"
   offset="0" />
	<stop
   id="stop20"
   style="stop-color:#b9e5fb;stop-opacity:1"
   offset="0.50910002" />
	<stop
   id="stop22"
   style="stop-color:#009ddd;stop-opacity:1"
   offset="1" />
</linearGradient>
<path
   d="M 1.0158362,36.306653 V 11.395488 H 20.899418 v 24.911165"
   id="path3_1_"
   style="fill:url(#path3_3_);filter:url(#filter3053)" />
<g
   transform="matrix(1.9883582,0,0,2.0759304,0.02165716,-0.02212936)"
   id="g5"
   style="filter:url(#filter3057)">
	<g
   id="g7">
		<circle
   cx="7.29"
   cy="15.534"
   r="0.91500002"
   id="circle9"
   style="opacity:0.35" />
		<circle
   cx="7.29"
   cy="11.501"
   r="0.91500002"
   id="circle11"
   style="opacity:0.35" />
		<circle
   cx="7.4229999"
   cy="7.4679999"
   r="0.91600001"
   id="circle13"
   style="opacity:0.35" />
		<g
   id="g15">
			<path
   d="M 8.07,8.112 C 7.908,8.28 7.674,8.382 7.424,8.382 6.917,8.382 6.507,7.975 6.507,7.466 6.507,7.215 6.611,6.987 6.778,6.821"
   id="path17"
   style="fill:none;stroke:#ffffff;stroke-width:0.25;stroke-linecap:round;stroke-miterlimit:10" />
			<path
   d="m 6.777,6.821 c 0.164,-0.168 0.393,-0.27 0.646,-0.27 0.507,0 0.916,0.407 0.916,0.914 0,0.255 -0.104,0.483 -0.271,0.646"
   id="path19"
   style="fill:none;stroke:#000000;stroke-width:0.25;stroke-linecap:round;stroke-miterlimit:10" />
		</g>
		<g
   id="g21">
			<path
   d="m 7.938,12.148 c -0.164,0.168 -0.396,0.269 -0.646,0.269 -0.507,0 -0.916,-0.407 -0.916,-0.916 0,-0.251 0.104,-0.481 0.267,-0.645"
   id="path23"
   style="fill:none;stroke:#ffffff;stroke-width:0.25;stroke-linecap:round;stroke-miterlimit:10" />
			<path
   d="m 6.643,10.856 c 0.166,-0.168 0.396,-0.269 0.648,-0.269 0.507,0 0.914,0.407 0.914,0.914 0,0.253 -0.102,0.483 -0.268,0.647"
   id="path25"
   style="fill:none;stroke:#000000;stroke-width:0.25;stroke-linecap:round;stroke-miterlimit:10" />
		</g>
		<g
   id="g27">
			<path
   d="m 7.938,16.184 c -0.164,0.164 -0.396,0.267 -0.646,0.267 -0.507,0 -0.916,-0.407 -0.916,-0.914 0,-0.253 0.104,-0.479 0.267,-0.646"
   id="path29"
   style="fill:none;stroke:#ffffff;stroke-width:0.25;stroke-linecap:round;stroke-miterlimit:10" />
			<path
   d="m 6.643,14.889 c 0.166,-0.164 0.396,-0.271 0.648,-0.271 0.507,0 0.914,0.412 0.914,0.916 0,0.253 -0.102,0.481 -0.268,0.649"
   id="path31"
   style="fill:none;stroke:#000000;stroke-width:0.25;stroke-linecap:round;stroke-miterlimit:10" />
		</g>
	</g>
	<g
   id="g33">
		<circle
   cx="3.575"
   cy="11.501"
   r="0.91600001"
   id="circle35"
   style="opacity:0.35" />
		<circle
   cx="3.575"
   cy="15.534"
   r="0.91600001"
   id="circle37"
   style="opacity:0.35" />
		<circle
   cx="3.7090001"
   cy="7.4679999"
   r="0.91500002"
   id="circle39"
   style="opacity:0.35" />
		<g
   id="g41">
			<path
   d="M 4.356,8.112 C 4.191,8.28 3.961,8.382 3.709,8.382 3.203,8.382 2.794,7.975 2.794,7.466 2.794,7.215 2.897,6.987 3.062,6.821"
   id="path43"
   style="fill:none;stroke:#ffffff;stroke-width:0.25;stroke-linecap:round;stroke-miterlimit:10" />
			<path
   d="m 3.062,6.821 c 0.166,-0.168 0.394,-0.27 0.647,-0.27 0.505,0 0.916,0.407 0.916,0.914 0,0.255 -0.103,0.483 -0.268,0.646"
   id="path45"
   style="fill:none;stroke:#000000;stroke-width:0.25;stroke-linecap:round;stroke-miterlimit:10" />
		</g>
		<g
   id="g47">
			<path
   d="m 4.223,12.148 c -0.167,0.168 -0.395,0.269 -0.647,0.269 -0.505,0 -0.917,-0.407 -0.917,-0.916 0,-0.251 0.103,-0.481 0.269,-0.645"
   id="path49"
   style="fill:none;stroke:#ffffff;stroke-width:0.25;stroke-linecap:round;stroke-miterlimit:10" />
			<path
   d="m 2.928,10.856 c 0.165,-0.168 0.395,-0.269 0.647,-0.269 0.506,0 0.914,0.407 0.914,0.914 0,0.253 -0.102,0.483 -0.267,0.647"
   id="path51"
   style="fill:none;stroke:#000000;stroke-width:0.25;stroke-linecap:round;stroke-miterlimit:10" />
		</g>
		<g
   id="g53">
			<path
   d="m 4.223,16.184 c -0.167,0.164 -0.395,0.267 -0.647,0.267 -0.505,0 -0.917,-0.407 -0.917,-0.914 0,-0.253 0.103,-0.479 0.269,-0.646"
   id="path55"
   style="fill:none;stroke:#ffffff;stroke-width:0.25;stroke-linecap:round;stroke-miterlimit:10" />
			<path
   d="m 2.928,14.889 c 0.165,-0.164 0.395,-0.271 0.647,-0.271 0.506,0 0.914,0.412 0.914,0.916 0,0.253 -0.102,0.481 -0.267,0.649"
   id="path57"
   style="fill:none;stroke:#000000;stroke-width:0.25;stroke-linecap:round;stroke-miterlimit:10" />
		</g>
	</g>
</g>
<g
   transform="matrix(1.9883582,0,0,2.0759304,0.02165716,-0.02212936)"
   id="g52"
   style="filter:url(#filter3061)">
	
		<linearGradient
   x1="-221.5"
   y1="599.50098"
   x2="-221.5"
   y2="599.50098"
   id="path3_5_"
   gradientUnits="userSpaceOnUse"
   gradientTransform="translate(232,-588)">
		<stop
   id="stop55"
   style="stop-color:#009ddd;stop-opacity:1"
   offset="0" />
		<stop
   id="stop57"
   style="stop-color:#45b9e8;stop-opacity:1"
   offset="0.1464" />
		<stop
   id="stop59"
   style="stop-color:#91d9f4;stop-opacity:1"
   offset="0.32159999" />
		<stop
   id="stop61"
   style="stop-color:#c2ecfc;stop-opacity:1"
   offset="0.447" />
		<stop
   id="stop63"
   style="stop-color:#d4f4ff;stop-opacity:1"
   offset="0.50910002" />
		<stop
   id="stop65"
   style="stop-color:#c2ecfc;stop-opacity:1"
   offset="0.56900001" />
		<stop
   id="stop67"
   style="stop-color:#91d9f4;stop-opacity:1"
   offset="0.68980002" />
		<stop
   id="stop69"
   style="stop-color:#45b9e8;stop-opacity:1"
   offset="0.85890001" />
		<stop
   id="stop71"
   style="stop-color:#009ddd;stop-opacity:1"
   offset="1" />
	</linearGradient>
	<path
   d="m 10.5,5.501 v 12"
   id="path3_4_"
   style="fill:url(#path3_5_);stroke:#000000;stroke-miterlimit:10" />
	
		<linearGradient
   x1="-231.5"
   y1="599.50098"
   x2="-231.5"
   y2="599.50098"
   id="path3_6_"
   gradientUnits="userSpaceOnUse"
   gradientTransform="translate(232,-588)">
		<stop
   id="stop75"
   style="stop-color:#009ddd;stop-opacity:1"
   offset="0" />
		<stop
   id="stop77"
   style="stop-color:#45b9e8;stop-opacity:1"
   offset="0.1464" />
		<stop
   id="stop79"
   style="stop-color:#91d9f4;stop-opacity:1"
   offset="0.32159999" />
		<stop
   id="stop81"
   style="stop-color:#c2ecfc;stop-opacity:1"
   offset="0.447" />
		<stop
   id="stop83"
   style="stop-color:#d4f4ff;stop-opacity:1"
   offset="0.50910002" />
		<stop
   id="stop85"
   style="stop-color:#c2ecfc;stop-opacity:1"
   offset="0.56900001" />
		<stop
   id="stop87"
   style="stop-color:#91d9f4;stop-opacity:1"
   offset="0.68980002" />
		<stop
   id="stop89"
   style="stop-color:#45b9e8;stop-opacity:1"
   offset="0.85890001" />
		<stop
   id="stop91"
   style="stop-color:#009ddd;stop-opacity:1"
   offset="1" />
	</linearGradient>
	<path
   d="m 0.5,17.501 v -12"
   id="path3_2_"
   style="fill:url(#path3_6_);stroke:#000000;stroke-miterlimit:10" />
</g>
</svg>