<?xml version="1.0" encoding="UTF-8" standalone="no"?>
<!-- Created with Inkscape (http://www.inkscape.org/) -->

<svg
        xmlns:dc="http://purl.org/dc/elements/1.1/"
        xmlns:cc="http://creativecommons.org/ns#"
        xmlns:rdf="http://www.w3.org/1999/02/22-rdf-syntax-ns#"
        xmlns="http://www.w3.org/2000/svg"
        xmlns:sodipodi="http://sodipodi.sourceforge.net/DTD/sodipodi-0.dtd"
        xmlns:inkscape="http://www.inkscape.org/namespaces/inkscape"
        width="1612.2222"
        height="1283"
        id="svg3538"
        version="1.1"
        inkscape:version="0.48.4 r9939"
        sodipodi:docname="icon-home.svg">
    <defs
            id="defs3540"/>
    <sodipodi:namedview
            id="base"
            pagecolor="#ffffff"
            bordercolor="#666666"
            borderopacity="1.0"
            inkscape:pageopacity="0.0"
            inkscape:pageshadow="2"
            inkscape:zoom="0.35"
            inkscape:cx="-169.46032"
            inkscape:cy="750.63782"
            inkscape:document-units="px"
            inkscape:current-layer="layer1"
            showgrid="false"
            inkscape:window-width="1143"
            inkscape:window-height="824"
            inkscape:window-x="1602"
            inkscape:window-y="162"
            inkscape:window-maximized="0"
            fit-margin-top="0"
            fit-margin-left="0"
            fit-margin-right="0"
            fit-margin-bottom="0"/>
    <metadata
            id="metadata3543">
        <rdf:RDF>
            <cc:Work
                    rdf:about="">
                <dc:format>image/svg+xml</dc:format>
                <dc:type
                        rdf:resource="http://purl.org/dc/dcmitype/StillImage"/>
                <dc:title/>
            </cc:Work>
        </rdf:RDF>
    </metadata>
    <g
            inkscape:label="Layer 1"
            inkscape:groupmode="layer"
            id="layer1"
            transform="translate(-25.888889,0)">
        <path
                d="m 256,739 0,480 q 0,26 19,45 19,19 45,19 l 384,0 0,-384 256,0 0,384 384,0 q 26,0 45,-19 19,-19 19,-45 l 0,-480 q 0,-1 -0.5,-3 -0.5,-2 -0.5,-3 L 832,259 257,733 q -1,2 -1,6 z M 33,670 95,744 q 8,9 21,11 l 3,0 q 13,0 21,-7 l 692,-577 692,577 q 12,8 24,7 13,-2 21,-11 l 62,-74 q 8,-10 7,-23.5 -1,-13.5 -11,-21.5 L 908,26 Q 876,0 832,0 788,0 756,26 L 512,230 512,35 Q 512,21 503,12 494,3 480,3 L 288,3 q -14,0 -23,9 -9,9 -9,23 l 0,408 -219,182 q -10,8 -11,21.5 -1,13.5 7,23.5 z"
                id="path7"
                inkscape:connector-curvature="0"
                style="fill:#ffffff;fill-opacity:1"/>
    </g>
</svg>
