<?xml version="1.0" encoding="UTF-8"?><svg id="Layer_1" xmlns="http://www.w3.org/2000/svg" width="321.8" height="66.3" viewBox="0 0 321.8 66.3"><defs><style>.cls-1{fill:#fff;}.cls-1,.cls-2{stroke:#231f20;}.cls-2{fill:#9a9d85;}</style></defs><path class="cls-2" d="M166.4,50l55.3,15.8h99.8c-40.3-20.9-83.2-45.7-95.2-57.7-12-12-9.8-9.1-21.8,3.6-12,12.7-23.4,29.1-38,38.3Z"/><path class="cls-1" d="M202.3,14c7.5,1.7,7.3,1.6,9.4,3.5,2.2,1.9,5.5,6,7,1.9,1.4-4.1,2.9-5.5,5.8-4.3,2.9,1.2,6.6,3.4,10.4.4-2.7-2.2-7-5.6-8.7-7.3-12-12-9.8-9.1-21.8,3.6-.5.5-1.5,1.7-2,2.3Z"/><path class="cls-2" d="M193.4,44l-36.6,21.8H.1c22.7-5.9,91.4-28,106.6-45.7,15.2-17.6,15.5-24.8,25.3-15,7.3,7.3,35.7,28.2,61.4,38.9Z"/><path class="cls-1" d="M149.7,19c-5.8-3.1-21.2-6.2-25.4-2-4.1,4.1-15.9,8.7-20.2,6.3h0c.9-1,1.7-1.8,2.5-2.8,15.2-17.6,15.5-24.8,25.3-15s10.3,8.6,17.7,13.6h0Z"/><path class="cls-2" d="M243,65.8h-118.7c17.3-13.6,35.7-35.8,40.2-41.6,6.6-8.7,10-5.7,16,1.4,5.5,6.5,36.1,32.7,62.5,40.2Z"/><path class="cls-1" d="M201,43.2c-9.7-6.8-6.7-5.1-12.2-1.8-5.5,3.3-4.9,5.1-14.6-1.4-9.8-6.5-15.6-4.7-22-1h0c6-6.6,10.5-12.2,12.4-14.8,6.6-8.7,10-5.7,16,1.4,2.5,3,10.3,10.1,20.5,17.6h0Z"/></svg>