<?xml version="1.0" encoding="UTF-8"?><svg id="Layer_1" xmlns="http://www.w3.org/2000/svg" width="118" height="137" viewBox="0 0 118 137"><defs><style>.cls-1{fill:#ec1c24;}.cls-1,.cls-2,.cls-3{stroke:#231f20;}.cls-2{fill:#c9da2a;}.cls-3{fill:#7b1c24;}</style></defs><rect class="cls-2" x="3.6" y="22.9" width="110.7" height="113.6"/><rect class="cls-2" x=".5" y=".9" width="117" height="22"/><rect class="cls-1" x="51.5" y=".5" width="16.4" height="136"/><rect class="cls-1" x="2.6" y="65.4" width="113.4" height="14.6"/><polygon class="cls-1" points="86.6 95 77.1 93.2 73.6 102.4 60.5 78 77.8 78 86.6 95"/><path class="cls-3" d="M88.1,70.9c2.2-3.5,4-9.4,3.4-13.4-.3-1.9-1.4-3.4-2.8-4.6-1.7-1.4-3.4-.9-5.2-1.5,2.5-.4,4.6-2.1,7-2.9,3-1,5.7-1.3,8.6-.3,5,1.7,6.6,7.8,6.4,12.6-.2,4.7-4,12.6-9.4,15.8-5.3,3.2-30.6,2.9-31.1.1.2,0,19.4-.2,23-5.9Z"/><path class="cls-1" d="M68.6,72.5c4.7.4,9.7-5.9,12.2-9.1,4.7-5.8,9.4-10.9,16.5-13.3,3.9-1.3,5.3,1.2,5.4.7.1-.4-3.9-2.8-4.8-2.9-1.9-.1-11.3-1.8-13.8-1.4-4.3.8-6.8,7.1-7.8,10.6-.9,2.9-.6,3.4-2.4,5.8-.9,1.3-1.8,3.3-2.4,3.9-1,.8-2.8,5.6-2.8,5.6Z"/><polygon class="cls-1" points="67.1 78.8 49.6 78.8 52.5 65.3 69.4 65.4 67.1 78.8"/><path class="cls-3" d="M52.8,70.1c.2-4.5-2.7-9.5-5.4-12.9-1-1.3-2.4-3.2-3.8-4-1.9-1.1-3.6.5-5.2,1.7-1.6,1.2-2.9,2.6-4.2,4.3-.9,1.2-3.2,4.3-3,5.7.2,1.3,4.1,3.1,5.4,3.7,2.1,1,4.1,1.6,6.2,2.4,3,1.2,5,3,7.5,4.7l2.5-5.6Z"/><polygon class="cls-1" points="26.6 94.4 36.1 92.6 39.6 101.8 53.2 79.3 37.2 76.2 26.6 94.4"/><path class="cls-1" d="M41.5,52.2c-3-3-16.3-2.4-20.2-.5-5.9,3-9.5,9.8-9,16.1.7,8.1,2.7,9.6,9.9,9.6,6.4,0,12.6.9,19.1.9,2.5,0,4.9-.2,7.3-.3,0-.2,0-.5,0-.7-2.1-1.3-4.4-1.2-6.9-1.6-2.8-.4-5.6-1.1-8.4-1.4-8.7-.8-6.7-6.5-2.7-10.6,5.2-5.4,4.1-4.4,10.9-11.5Z"/></svg>