<?xml version="1.0" encoding="UTF-8"?><svg id="Layer_1" xmlns="http://www.w3.org/2000/svg" width="879.7" height="20.7" viewBox="0 0 879.7 20.7"><defs><style>.cls-1{fill:#1b1464;}.cls-1,.cls-2,.cls-3{stroke-width:0px;}.cls-2{fill:#ffcb60;}.cls-4{opacity:.3;}.cls-5{opacity:.4;}.cls-6{fill:none;stroke:#d3a43c;stroke-miterlimit:10;stroke-width:.5px;}.cls-3{fill:#fff;}</style></defs><path class="cls-2" d="M870.2,14.6H9.2c-1.9,0-3.5-1.6-3.5-3.5h0c0-1.9,1.6-3.5,3.5-3.5h861c1.9,0,3.5,1.6,3.5,3.5h0c0,1.9-1.6,3.5-3.5,3.5Z"/><path class="cls-6" d="M24.4,8.1c-9.1.5-15.1,2.4-16.2,6"/><path class="cls-6" d="M37.6,8.1c-9.1.5-16.3,3.4-17.4,6.9"/><path class="cls-6" d="M50.9,8.1c-9.1.5-16.3,3.4-17.4,6.9"/><path class="cls-6" d="M64.1,8.1c-9.1.5-16.3,3.4-17.4,6.9"/><path class="cls-6" d="M77.3,8.1c-9.1.5-16.3,3.4-17.4,6.9"/><path class="cls-6" d="M90.6,8.1c-9.1.5-16.3,3.4-17.4,6.9"/><path class="cls-6" d="M103.8,8.1c-9.1.5-16.3,3.4-17.4,6.9"/><path class="cls-6" d="M117.1,8.1c-9.1.5-16.3,3.4-17.4,6.9"/><path class="cls-6" d="M130.3,8.1c-9.1.5-16.3,3.4-17.4,6.9"/><path class="cls-6" d="M143.5,8.1c-9.1.5-16.3,3.4-17.4,6.9"/><path class="cls-6" d="M156.8,8.1c-9.1.5-16.3,3.4-17.4,6.9"/><path class="cls-6" d="M170,8.1c-9.1.5-16.3,3.4-17.4,6.9"/><path class="cls-6" d="M187.4,8.1c-9.1.5-16.3,3.4-17.4,6.9"/><path class="cls-6" d="M200.6,8.1c-9.1.5-16.3,3.4-17.4,6.9"/><path class="cls-6" d="M213.9,8.1c-9.1.5-16.3,3.4-17.4,6.9"/><path class="cls-6" d="M227.1,8.1c-9.1.5-16.3,3.4-17.4,6.9"/><path class="cls-6" d="M240.4,8.1c-9.1.5-16.3,3.4-17.4,6.9"/><path class="cls-6" d="M253.6,8.1c-9.1.5-16.3,3.4-17.4,6.9"/><path class="cls-6" d="M266.8,8.1c-9.1.5-16.3,3.4-17.4,6.9"/><path class="cls-6" d="M280.1,8.1c-9.1.5-16.3,3.4-17.4,6.9"/><path class="cls-6" d="M293.3,8.1c-9.1.5-16.3,3.4-17.4,6.9"/><path class="cls-6" d="M306.5,8.1c-9.1.5-16.3,3.4-17.4,6.9"/><path class="cls-6" d="M319.8,8.1c-9.1.5-16.3,3.4-17.4,6.9"/><path class="cls-6" d="M333,8.1c-9.1.5-16.3,3.4-17.4,6.9"/><path class="cls-6" d="M350.8,8.1c-9.1.5-16.3,3.4-17.4,6.9"/><path class="cls-6" d="M364,8.1c-9.1.5-16.3,3.4-17.4,6.9"/><path class="cls-6" d="M377.2,8.1c-9.1.5-16.3,3.4-17.4,6.9"/><path class="cls-6" d="M390.5,8.1c-9.1.5-16.3,3.4-17.4,6.9"/><path class="cls-6" d="M403.7,8.1c-9.1.5-16.3,3.4-17.4,6.9"/><path class="cls-6" d="M416.2,7.6c-9.1.5-15.5,3.9-16.6,7.5"/><path class="cls-6" d="M430.2,8.1c-9.1.5-16.3,3.4-17.4,6.9"/><path class="cls-6" d="M442.2,7.6c-9.1.5-15,3.9-16.1,7.5"/><path class="cls-6" d="M456.2,7.6c-9.1.5-15.8,3.9-16.9,7.5"/><path class="cls-6" d="M469.2,7.6c-9.1.5-15.5,3.9-16.7,7.5"/><path class="cls-6" d="M482.2,7.6c-9.1.5-15.3,3.9-16.4,7.5"/><path class="cls-6" d="M495.2,7.6c-9.1.5-15.1,3.9-16.2,7.5"/><path class="cls-6" d="M512.8,8.1c-9.1.5-16.3,3.4-17.4,6.9"/><path class="cls-6" d="M526.2,8.1c-9.1.5-16.4,3.4-17.6,7"/><path class="cls-6" d="M538.2,8.1c-9.1.5-15.2,3.4-16.3,7"/><path class="cls-6" d="M552.2,8.1c-9.1.5-16,3.4-17.1,7"/><path class="cls-6" d="M565.7,8.1c-9.1.5-16.3,3.4-17.4,6.9"/><path class="cls-6" d="M579,8.1c-9.1.5-16.3,3.4-17.4,6.9"/><path class="cls-6" d="M592.2,8.1c-9.1.5-16.3,3.4-17.4,6.9"/><path class="cls-6" d="M605.4,8.1c-9.1.5-16.3,3.4-17.4,6.9"/><path class="cls-6" d="M618.7,8.1c-9.1.5-16.3,3.4-17.4,6.9"/><path class="cls-6" d="M631.9,8.1c-9.1.5-16.3,3.4-17.4,6.9"/><path class="cls-6" d="M645.2,8.1c-9.1.5-16.3,3.4-17.4,6.9"/><path class="cls-6" d="M658.4,8.1c-9.1.5-16.3,3.4-17.4,6.9"/><path class="cls-6" d="M834.1,8.1c-9.1.5-16.3,3.4-17.4,6.9"/><path class="cls-6" d="M847.3,8.1c-9.1.5-16.3,3.4-17.4,6.9"/><path class="cls-6" d="M860.6,8.1c-9.1.5-16.3,3.4-17.4,6.9"/><path class="cls-6" d="M871.2,8.1c-9.1.5-13.6,3.4-14.8,7"/><path class="cls-6" d="M673.3,8.1c-9.1.5-16.3,3.4-17.4,6.9"/><path class="cls-6" d="M686.6,8.1c-9.1.5-16.3,3.4-17.4,6.9"/><path class="cls-6" d="M699.8,8.1c-9.1.5-16.3,3.4-17.4,6.9"/><path class="cls-6" d="M713.1,8.1c-9.1.5-16.3,3.4-17.4,6.9"/><path class="cls-6" d="M726.3,8.1c-9.1.5-16.3,3.4-17.4,6.9"/><path class="cls-6" d="M739.5,8.1c-9.1.5-16.3,3.4-17.4,6.9"/><path class="cls-6" d="M752.8,8.1c-9.1.5-16.3,3.4-17.4,6.9"/><path class="cls-6" d="M766,8.1c-9.1.5-16.3,3.4-17.4,6.9"/><path class="cls-6" d="M779.2,8.1c-9.1.5-16.3,3.4-17.4,6.9"/><path class="cls-6" d="M792.5,8.1c-9.1.5-16.3,3.4-17.4,6.9"/><path class="cls-6" d="M805.7,8.1c-9.1.5-16.3,3.4-17.4,6.9"/><path class="cls-6" d="M819,8.1c-9.1.5-16.3,3.4-17.4,6.9"/><g class="cls-5"><path class="cls-3" d="M873.3,10.1H7c.2-.4.4-.7.7-1,.6-.6,1.5-1,2.5-1h860c1.5,0,2.7.8,3.2,2Z"/><path class="cls-1" d="M7,13.1h866.3c-.2.4-.4.7-.7,1-.6.6-1.5,1-2.5,1H10.2c-1.5,0-2.7-.8-3.2-2Z"/><path class="cls-1" d="M7,7.7h866.3c-.2,0-.4-.1-.7-.2-.6-.1-1.5-.2-2.5-.2H10.2c-1.5,0-2.7.2-3.2.4Z"/></g><path class="cls-2" d="M638,4.5c-2-3.3-5.9-5-9.4-4.3-2.4.5-4.6,2.1-5.9,4.4-1.4,2.4-2.4,4.3-1.8,6.9l.2.2c-1,1.3-1.8,2.8-2.1,4.4-.1.9-.2,1.8.2,2.6.7,1.4,2.3,2.1,3.9,2,1.5,0,3-.7,4.3-1.3.3.1.7.2,1,.3,3.5.8,7.4-.9,9.4-4.1,2-3.2,2-7.8,0-11.1Z"/><path class="cls-6" d="M625.7,1.3c-.7.8-.8,2-.6,3,.2,1,.8,1.9,1.4,2.8"/><path class="cls-6" d="M634.2,1.5c-1.1,0-2.3,1.3-2.9,2.3-.5.9-.8,2-1,3"/><path class="cls-6" d="M639.5,10.5c-1.7-1.7-4.4-2.4-6.8-1.6"/><path class="cls-6" d="M630.5,12.8c1.8,1.7,2.7,4.3,2.3,6.7"/><path class="cls-6" d="M627.1,7.2c-.9,1-1.3,2.4-1.2,3.8.1,1.3.8,2.6,1.8,3.5"/><path class="cls-6" d="M620.9,12.3c-.7,1.6-.3,3.5.8,4.8,1.1,1.3,3,1.8,4.6,1.3"/><g class="cls-4"><path class="cls-3" d="M638,4.5c1.3,2.2,1.8,4.9,1.3,7.4h-.2c-.9-.1-1.7-.9-2.1-1.7-.4-.8-.5-1.8-.7-2.7-.2-.9-.5-1.9-1.2-2.5-.5-.5-1.1-.8-1.6-1.1-.5-.4-1-.9-1.2-1.5-.1-.6.3-1.4,1-1.4v-.2c1.9.7,3.6,2.1,4.6,3.8Z"/><path class="cls-3" d="M632.5,8.7c.1.5.2,1.1,0,1.6h-.2c-.6.5-1.4.8-2.2,1.1-.8.2-1.6.3-2.4,0-.8-.3-1.4-1-1.4-1.8,0-.6.4-1.2.9-1.6.7-.6,1.7-1.4,2.6-1.5h0c.9.1,1.6.7,2.1,1.4.2.3.3.5.4.8Z"/><path class="cls-1" d="M633.9,16.1c-1-.5-1.8-1.8-1.5-2.9.3-.9,1.2-1.4,1.6-2.3.3-.6.2-1.2.1-1.8,0-.2,0-.4-.1-.5-.7-2.7-3.4-4.7-6.2-4.7-.7,0-1.4.1-2.1,0-.7-.2-1.3-.8-1.2-1.5h0c-.7.6-1.3,1.3-1.8,2.2-1.4,2.4-2.4,4.3-1.8,6.8l.2.2c-1,1.3-1.8,2.8-2.1,4.4-.1.9-.2,1.8.2,2.6.7,1.4,2.3,2.1,3.9,2,1.5,0,2.9-.7,4.3-1.3.3.1.7.2,1,.3,3.2.7,6.7-.6,8.8-3.2-1.1,0-2.4.1-3.4-.4ZM629.8,13c-.7.4-1.3.8-1.9,1.3-.4.4-.8.8-1.2,1.2h0c-.6.2-1.2,0-1.8-.1-1.1-.4-2.1-1.3-2.5-2.4-.3-.8-.4-1.9,0-2.7.2-.2.4-.4.6-.5,1.9-1.6,3.8-2.4,6-3.6.4,0,.8,0,1.1.2.9.2,1.6.8,2.1,1.5.2.3.3.5.4.8.2.5.2,1.1,0,1.6,0,.4-.2.8-.5,1.1-.6.7-1.5,1.1-2.3,1.6Z"/></g><path class="cls-2" d="M259,4.5c-2-3.3-5.9-5-9.4-4.3-2.4.5-4.6,2.1-5.9,4.4-1.4,2.4-2.4,4.3-1.8,6.9l.2.2c-1,1.3-1.8,2.8-2.1,4.4-.1.9-.2,1.8.2,2.6.7,1.4,2.3,2.1,3.9,2,1.5,0,3-.7,4.3-1.3.3.1.7.2,1,.3,3.5.8,7.4-.9,9.4-4.1,2-3.2,2-7.8,0-11.1Z"/><path class="cls-6" d="M246.7,1.3c-.7.8-.8,2-.6,3,.2,1,.8,1.9,1.4,2.8"/><path class="cls-6" d="M255.2,1.5c-1.1,0-2.3,1.3-2.9,2.3-.5.9-.8,2-1,3"/><path class="cls-6" d="M260.5,10.5c-1.7-1.7-4.4-2.4-6.8-1.6"/><path class="cls-6" d="M251.5,12.8c1.8,1.7,2.7,4.3,2.3,6.7"/><path class="cls-6" d="M248.1,7.2c-.9,1-1.3,2.4-1.2,3.8.1,1.3.8,2.6,1.8,3.5"/><path class="cls-6" d="M241.9,12.3c-.7,1.6-.3,3.5.8,4.8,1.1,1.3,3,1.8,4.6,1.3"/><g class="cls-4"><path class="cls-3" d="M259,4.5c1.3,2.2,1.8,4.9,1.3,7.4h-.2c-.9-.1-1.7-.9-2.1-1.7-.4-.8-.5-1.8-.7-2.7-.2-.9-.5-1.9-1.2-2.5-.5-.5-1.1-.8-1.6-1.1-.5-.4-1-.9-1.2-1.5-.1-.6.3-1.4,1-1.4v-.2c1.9.7,3.6,2.1,4.6,3.8Z"/><path class="cls-3" d="M253.5,8.7c.1.5.2,1.1,0,1.6h-.2c-.6.5-1.4.8-2.2,1.1-.8.2-1.6.3-2.4,0-.8-.3-1.4-1-1.4-1.8,0-.6.4-1.2.9-1.6.7-.6,1.7-1.4,2.6-1.5h0c.9.1,1.6.7,2.1,1.4.2.3.3.5.4.8Z"/><path class="cls-1" d="M254.9,16.1c-1-.5-1.8-1.8-1.5-2.9.3-.9,1.2-1.4,1.6-2.3.3-.6.2-1.2.1-1.8,0-.2,0-.4-.1-.5-.7-2.7-3.4-4.7-6.2-4.7-.7,0-1.4.1-2.1,0-.7-.2-1.3-.8-1.2-1.5h0c-.7.6-1.3,1.3-1.8,2.2-1.4,2.4-2.4,4.3-1.8,6.8l.2.2c-1,1.3-1.8,2.8-2.1,4.4-.1.9-.2,1.8.2,2.6.7,1.4,2.3,2.1,3.9,2,1.5,0,2.9-.7,4.3-1.3.3.1.7.2,1,.3,3.2.7,6.7-.6,8.8-3.2-1.1,0-2.4.1-3.4-.4ZM250.8,13c-.7.4-1.3.8-1.9,1.3-.4.4-.8.8-1.2,1.2h0c-.6.2-1.2,0-1.8-.1-1.1-.4-2.1-1.3-2.5-2.4-.3-.8-.4-1.9,0-2.7.2-.2.4-.4.6-.5,1.9-1.6,3.8-2.4,6-3.6.4,0,.8,0,1.1.2.9.2,1.6.8,2.1,1.5.2.3.3.5.4.8.2.5.2,1.1,0,1.6,0,.4-.2.8-.5,1.1-.6.7-1.5,1.1-2.3,1.6Z"/></g><path class="cls-2" d="M179,4.5c-2-3.3-5.9-5-9.4-4.3-2.4.5-4.6,2.1-5.9,4.4-1.4,2.4-2.4,4.3-1.8,6.9l.2.2c-1,1.3-1.8,2.8-2.1,4.4-.1.9-.2,1.8.2,2.6.7,1.4,2.3,2.1,3.9,2,1.5,0,3-.7,4.3-1.3.3.1.7.2,1,.3,3.5.8,7.4-.9,9.4-4.1,2-3.2,2-7.8,0-11.1Z"/><path class="cls-6" d="M166.7,1.3c-.7.8-.8,2-.6,3,.2,1,.8,1.9,1.4,2.8"/><path class="cls-6" d="M175.2,1.5c-1.1,0-2.3,1.3-2.9,2.3-.5.9-.8,2-1,3"/><path class="cls-6" d="M180.5,10.5c-1.7-1.7-4.4-2.4-6.8-1.6"/><path class="cls-6" d="M171.5,12.8c1.8,1.7,2.7,4.3,2.3,6.7"/><path class="cls-6" d="M168.1,7.2c-.9,1-1.3,2.4-1.2,3.8.1,1.3.8,2.6,1.8,3.5"/><path class="cls-6" d="M161.9,12.3c-.7,1.6-.3,3.5.8,4.8,1.1,1.3,3,1.8,4.6,1.3"/><g class="cls-4"><path class="cls-3" d="M179,4.5c1.3,2.2,1.8,4.9,1.3,7.4h-.2c-.9-.1-1.7-.9-2.1-1.7-.4-.8-.5-1.8-.7-2.7-.2-.9-.5-1.9-1.2-2.5-.5-.5-1.1-.8-1.6-1.1-.5-.4-1-.9-1.2-1.5-.1-.6.3-1.4,1-1.4v-.2c1.9.7,3.6,2.1,4.6,3.8Z"/><path class="cls-3" d="M173.5,8.7c.1.5.2,1.1,0,1.6h-.2c-.6.5-1.4.8-2.2,1.1-.8.2-1.6.3-2.4,0-.8-.3-1.4-1-1.4-1.8,0-.6.4-1.2.9-1.6.7-.6,1.7-1.4,2.6-1.5h0c.9.1,1.6.7,2.1,1.4.2.3.3.5.4.8Z"/><path class="cls-1" d="M174.9,16.1c-1-.5-1.8-1.8-1.5-2.9.3-.9,1.2-1.4,1.6-2.3.3-.6.2-1.2.1-1.8,0-.2,0-.4-.1-.5-.7-2.7-3.4-4.7-6.2-4.7-.7,0-1.4.1-2.1,0-.7-.2-1.3-.8-1.2-1.5h0c-.7.6-1.3,1.3-1.8,2.2-1.4,2.4-2.4,4.3-1.8,6.8l.2.2c-1,1.3-1.8,2.8-2.1,4.4-.1.9-.2,1.8.2,2.6.7,1.4,2.3,2.1,3.9,2,1.5,0,2.9-.7,4.3-1.3.3.1.7.2,1,.3,3.2.7,6.7-.6,8.8-3.2-1.1,0-2.4.1-3.4-.4ZM170.8,13c-.7.4-1.3.8-1.9,1.3-.4.4-.8.8-1.2,1.2h0c-.6.2-1.2,0-1.8-.1-1.1-.4-2.1-1.3-2.5-2.4-.3-.8-.4-1.9,0-2.7.2-.2.4-.4.6-.5,1.9-1.6,3.8-2.4,6-3.6.4,0,.8,0,1.1.2.9.2,1.6.8,2.1,1.5.2.3.3.5.4.8.2.5.2,1.1,0,1.6,0,.4-.2.8-.5,1.1-.6.7-1.5,1.1-2.3,1.6Z"/></g><path class="cls-2" d="M99,4.5c-2-3.3-5.9-5-9.4-4.3-2.4.5-4.6,2.1-5.9,4.4-1.4,2.4-2.4,4.3-1.8,6.9l.2.2c-1,1.3-1.8,2.8-2.1,4.4-.1.9-.2,1.8.2,2.6.7,1.4,2.3,2.1,3.9,2,1.5,0,3-.7,4.3-1.3.3.1.7.2,1,.3,3.5.8,7.4-.9,9.4-4.1,2-3.2,2-7.8,0-11.1Z"/><path class="cls-6" d="M86.7,1.3c-.7.8-.8,2-.6,3,.2,1,.8,1.9,1.4,2.8"/><path class="cls-6" d="M95.2,1.5c-1.1,0-2.3,1.3-2.9,2.3-.5.9-.8,2-1,3"/><path class="cls-6" d="M100.5,10.5c-1.7-1.7-4.4-2.4-6.8-1.6"/><path class="cls-6" d="M91.5,12.8c1.8,1.7,2.7,4.3,2.3,6.7"/><path class="cls-6" d="M88.1,7.2c-.9,1-1.3,2.4-1.2,3.8.1,1.3.8,2.6,1.8,3.5"/><path class="cls-6" d="M81.9,12.3c-.7,1.6-.3,3.5.8,4.8,1.1,1.3,3,1.8,4.6,1.3"/><g class="cls-4"><path class="cls-3" d="M99,4.5c1.3,2.2,1.8,4.9,1.3,7.4h-.2c-.9-.1-1.7-.9-2.1-1.7-.4-.8-.5-1.8-.7-2.7-.2-.9-.5-1.9-1.2-2.5-.5-.5-1.1-.8-1.6-1.1-.5-.4-1-.9-1.2-1.5-.1-.6.3-1.4,1-1.4v-.2c1.9.7,3.6,2.1,4.6,3.8Z"/><path class="cls-3" d="M93.5,8.7c.1.5.2,1.1,0,1.6h-.2c-.6.5-1.4.8-2.2,1.1-.8.2-1.6.3-2.4,0-.8-.3-1.4-1-1.4-1.8,0-.6.4-1.2.9-1.6.7-.6,1.7-1.4,2.6-1.5h0c.9.1,1.6.7,2.1,1.4.2.3.3.5.4.8Z"/><path class="cls-1" d="M94.9,16.1c-1-.5-1.8-1.8-1.5-2.9.3-.9,1.2-1.4,1.6-2.3.3-.6.2-1.2.1-1.8,0-.2,0-.4-.1-.5-.7-2.7-3.4-4.7-6.2-4.7-.7,0-1.4.1-2.1,0-.7-.2-1.3-.8-1.2-1.5h0c-.7.6-1.3,1.3-1.8,2.2-1.4,2.4-2.4,4.3-1.8,6.8l.2.2c-1,1.3-1.8,2.8-2.1,4.4-.1.9-.2,1.8.2,2.6.7,1.4,2.3,2.1,3.9,2,1.5,0,2.9-.7,4.3-1.3.3.1.7.2,1,.3,3.2.7,6.7-.6,8.8-3.2-1.1,0-2.4.1-3.4-.4ZM90.8,13c-.7.4-1.3.8-1.9,1.3-.4.4-.8.8-1.2,1.2h0c-.6.2-1.2,0-1.8-.1-1.1-.4-2.1-1.3-2.5-2.4-.3-.8-.4-1.9,0-2.7.2-.2.4-.4.6-.5,1.9-1.6,3.8-2.4,6-3.6.4,0,.8,0,1.1.2.9.2,1.6.8,2.1,1.5.2.3.3.5.4.8.2.5.2,1.1,0,1.6,0,.4-.2.8-.5,1.1-.6.7-1.5,1.1-2.3,1.6Z"/></g><path class="cls-2" d="M19,4.5C17,1.2,13.2-.6,9.6.2c-2.4.5-4.6,2.1-5.9,4.4-1.4,2.4-2.4,4.3-1.8,6.9l.2.2c-1,1.3-1.8,2.8-2.1,4.4-.1.9-.2,1.8.2,2.6.7,1.4,2.3,2.1,3.9,2,1.5,0,3-.7,4.3-1.3.3.1.7.2,1,.3,3.5.8,7.4-.9,9.4-4.1,2-3.2,2-7.8,0-11.1Z"/><path class="cls-6" d="M6.7,1.3c-.7.8-.8,2-.6,3,.2,1,.8,1.9,1.4,2.8"/><path class="cls-6" d="M15.2,1.5c-1.1,0-2.3,1.3-2.9,2.3-.5.9-.8,2-1,3"/><path class="cls-6" d="M20.5,10.5c-1.7-1.7-4.4-2.4-6.8-1.6"/><path class="cls-6" d="M11.5,12.8c1.8,1.7,2.7,4.3,2.3,6.7"/><path class="cls-6" d="M8.1,7.2c-.9,1-1.3,2.4-1.2,3.8.1,1.3.8,2.6,1.8,3.5"/><path class="cls-6" d="M1.9,12.3c-.7,1.6-.3,3.5.8,4.8,1.1,1.3,3,1.8,4.6,1.3"/><g class="cls-4"><path class="cls-3" d="M19,4.5c1.3,2.2,1.8,4.9,1.3,7.4h-.2c-.9-.1-1.7-.9-2.1-1.7-.4-.8-.5-1.8-.7-2.7-.2-.9-.5-1.9-1.2-2.5-.5-.5-1.1-.8-1.6-1.1-.5-.4-1-.9-1.2-1.5-.1-.6.3-1.4,1-1.4v-.2c1.9.7,3.6,2.1,4.6,3.8Z"/><path class="cls-3" d="M13.5,8.7c.1.5.2,1.1,0,1.6h-.2c-.6.5-1.4.8-2.2,1.1-.8.2-1.6.3-2.4,0-.8-.3-1.4-1-1.4-1.8,0-.6.4-1.2.9-1.6.7-.6,1.7-1.4,2.6-1.5h0c.9.1,1.6.7,2.1,1.4.2.3.3.5.4.8Z"/><path class="cls-1" d="M14.9,16.1c-1-.5-1.8-1.8-1.5-2.9.3-.9,1.2-1.4,1.6-2.3.3-.6.2-1.2.1-1.8,0-.2,0-.4-.1-.5-.7-2.7-3.4-4.7-6.2-4.7-.7,0-1.4.1-2.1,0-.7-.2-1.3-.8-1.2-1.5h0c-.7.6-1.3,1.3-1.8,2.2-1.4,2.4-2.4,4.3-1.8,6.8l.2.2c-1,1.3-1.8,2.8-2.1,4.4-.1.9-.2,1.8.2,2.6.7,1.4,2.3,2.1,3.9,2,1.5,0,2.9-.7,4.3-1.3.3.1.7.2,1,.3,3.2.7,6.7-.6,8.8-3.2-1.1,0-2.4.1-3.4-.4ZM10.8,13c-.7.4-1.3.8-1.9,1.3-.4.4-.8.8-1.2,1.2h0c-.6.2-1.2,0-1.8-.1-1.1-.4-2.1-1.3-2.5-2.4-.3-.8-.4-1.9,0-2.7.2-.2.4-.4.6-.5,1.9-1.6,3.8-2.4,6-3.6.4,0,.8,0,1.1.2.9.2,1.6.8,2.1,1.5.2.3.3.5.4.8.2.5.2,1.1,0,1.6,0,.4-.2.8-.5,1.1-.6.7-1.5,1.1-2.3,1.6Z"/></g><path class="cls-2" d="M718,4.5c-2-3.3-5.9-5-9.4-4.3-2.4.5-4.6,2.1-5.9,4.4-1.4,2.4-2.4,4.3-1.8,6.9l.2.2c-1,1.3-1.8,2.8-2.1,4.4-.1.9-.2,1.8.2,2.6.7,1.4,2.3,2.1,3.9,2,1.5,0,3-.7,4.3-1.3.3.1.7.2,1,.3,3.5.8,7.4-.9,9.4-4.1,2-3.2,2-7.8,0-11.1Z"/><path class="cls-6" d="M705.7,1.3c-.7.8-.8,2-.6,3,.2,1,.8,1.9,1.4,2.8"/><path class="cls-6" d="M714.2,1.5c-1.1,0-2.3,1.3-2.9,2.3-.5.9-.8,2-1,3"/><path class="cls-6" d="M719.5,10.5c-1.7-1.7-4.4-2.4-6.8-1.6"/><path class="cls-6" d="M710.5,12.8c1.8,1.7,2.7,4.3,2.3,6.7"/><path class="cls-6" d="M707.1,7.2c-.9,1-1.3,2.4-1.2,3.8.1,1.3.8,2.6,1.8,3.5"/><path class="cls-6" d="M700.9,12.3c-.7,1.6-.3,3.5.8,4.8,1.1,1.3,3,1.8,4.6,1.3"/><g class="cls-4"><path class="cls-3" d="M718,4.5c1.3,2.2,1.8,4.9,1.3,7.4h-.2c-.9-.1-1.7-.9-2.1-1.7-.4-.8-.5-1.8-.7-2.7-.2-.9-.5-1.9-1.2-2.5-.5-.5-1.1-.8-1.6-1.1-.5-.4-1-.9-1.2-1.5-.1-.6.3-1.4,1-1.4v-.2c1.9.7,3.6,2.1,4.6,3.8Z"/><path class="cls-3" d="M712.5,8.7c.1.5.2,1.1,0,1.6h-.2c-.6.5-1.4.8-2.2,1.1-.8.2-1.6.3-2.4,0-.8-.3-1.4-1-1.4-1.8,0-.6.4-1.2.9-1.6.7-.6,1.7-1.4,2.6-1.5h0c.9.1,1.6.7,2.1,1.4.2.3.3.5.4.8Z"/><path class="cls-1" d="M713.9,16.1c-1-.5-1.8-1.8-1.5-2.9.3-.9,1.2-1.4,1.6-2.3.3-.6.2-1.2.1-1.8,0-.2,0-.4-.1-.5-.7-2.7-3.4-4.7-6.2-4.7-.7,0-1.4.1-2.1,0-.7-.2-1.3-.8-1.2-1.5h0c-.7.6-1.3,1.3-1.8,2.2-1.4,2.4-2.4,4.3-1.8,6.8l.2.2c-1,1.3-1.8,2.8-2.1,4.4-.1.9-.2,1.8.2,2.6.7,1.4,2.3,2.1,3.9,2,1.5,0,2.9-.7,4.3-1.3.3.1.7.2,1,.3,3.2.7,6.7-.6,8.8-3.2-1.1,0-2.4.1-3.4-.4ZM709.8,13c-.7.4-1.3.8-1.9,1.3-.4.4-.8.8-1.2,1.2h0c-.6.2-1.2,0-1.8-.1-1.1-.4-2.1-1.3-2.5-2.4-.3-.8-.4-1.9,0-2.7.2-.2.4-.4.6-.5,1.9-1.6,3.8-2.4,6-3.6.4,0,.8,0,1.1.2.9.2,1.6.8,2.1,1.5.2.3.3.5.4.8.2.5.2,1.1,0,1.6,0,.4-.2.8-.5,1.1-.6.7-1.5,1.1-2.3,1.6Z"/></g><path class="cls-2" d="M798,4.5c-2-3.3-5.9-5-9.4-4.3-2.4.5-4.6,2.1-5.9,4.4-1.4,2.4-2.4,4.3-1.8,6.9l.2.2c-1,1.3-1.8,2.8-2.1,4.4-.1.9-.2,1.8.2,2.6.7,1.4,2.3,2.1,3.9,2,1.5,0,3-.7,4.3-1.3.3.1.7.2,1,.3,3.5.8,7.4-.9,9.4-4.1,2-3.2,2-7.8,0-11.1Z"/><path class="cls-6" d="M785.7,1.3c-.7.8-.8,2-.6,3,.2,1,.8,1.9,1.4,2.8"/><path class="cls-6" d="M794.2,1.5c-1.1,0-2.3,1.3-2.9,2.3-.5.9-.8,2-1,3"/><path class="cls-6" d="M799.5,10.5c-1.7-1.7-4.4-2.4-6.8-1.6"/><path class="cls-6" d="M790.5,12.8c1.8,1.7,2.7,4.3,2.3,6.7"/><path class="cls-6" d="M787.1,7.2c-.9,1-1.3,2.4-1.2,3.8.1,1.3.8,2.6,1.8,3.5"/><path class="cls-6" d="M780.9,12.3c-.7,1.6-.3,3.5.8,4.8,1.1,1.3,3,1.8,4.6,1.3"/><g class="cls-4"><path class="cls-3" d="M798,4.5c1.3,2.2,1.8,4.9,1.3,7.4h-.2c-.9-.1-1.7-.9-2.1-1.7-.4-.8-.5-1.8-.7-2.7-.2-.9-.5-1.9-1.2-2.5-.5-.5-1.1-.8-1.6-1.1-.5-.4-1-.9-1.2-1.5-.1-.6.3-1.4,1-1.4v-.2c1.9.7,3.6,2.1,4.6,3.8Z"/><path class="cls-3" d="M792.5,8.7c.1.5.2,1.1,0,1.6h-.2c-.6.5-1.4.8-2.2,1.1-.8.2-1.6.3-2.4,0-.8-.3-1.4-1-1.4-1.8,0-.6.4-1.2.9-1.6.7-.6,1.7-1.4,2.6-1.5h0c.9.1,1.6.7,2.1,1.4.2.3.3.5.4.8Z"/><path class="cls-1" d="M793.9,16.1c-1-.5-1.8-1.8-1.5-2.9.3-.9,1.2-1.4,1.6-2.3.3-.6.2-1.2.1-1.8,0-.2,0-.4-.1-.5-.7-2.7-3.4-4.7-6.2-4.7-.7,0-1.4.1-2.1,0-.7-.2-1.3-.8-1.2-1.5h0c-.7.6-1.3,1.3-1.8,2.2-1.4,2.4-2.4,4.3-1.8,6.8l.2.2c-1,1.3-1.8,2.8-2.1,4.4-.1.9-.2,1.8.2,2.6.7,1.4,2.3,2.1,3.9,2,1.5,0,2.9-.7,4.3-1.3.3.1.7.2,1,.3,3.2.7,6.7-.6,8.8-3.2-1.1,0-2.4.1-3.4-.4ZM789.8,13c-.7.4-1.3.8-1.9,1.3-.4.4-.8.8-1.2,1.2h0c-.6.2-1.2,0-1.8-.1-1.1-.4-2.1-1.3-2.5-2.4-.3-.8-.4-1.9,0-2.7.2-.2.4-.4.6-.5,1.9-1.6,3.8-2.4,6-3.6.4,0,.8,0,1.1.2.9.2,1.6.8,2.1,1.5.2.3.3.5.4.8.2.5.2,1.1,0,1.6,0,.4-.2.8-.5,1.1-.6.7-1.5,1.1-2.3,1.6Z"/></g><path class="cls-2" d="M878,4.5c-2-3.3-5.9-5-9.4-4.3-2.4.5-4.6,2.1-5.9,4.4-1.4,2.4-2.4,4.3-1.8,6.9l.2.2c-1,1.3-1.8,2.8-2.1,4.4-.1.9-.2,1.8.2,2.6.7,1.4,2.3,2.1,3.9,2,1.5,0,3-.7,4.3-1.3.3.1.7.2,1,.3,3.5.8,7.4-.9,9.4-4.1,2-3.2,2-7.8,0-11.1Z"/><path class="cls-6" d="M865.7,1.3c-.7.8-.8,2-.6,3,.2,1,.8,1.9,1.4,2.8"/><path class="cls-6" d="M874.2,1.5c-1.1,0-2.3,1.3-2.9,2.3-.5.9-.8,2-1,3"/><path class="cls-6" d="M879.5,10.5c-1.7-1.7-4.4-2.4-6.8-1.6"/><path class="cls-6" d="M870.5,12.8c1.8,1.7,2.7,4.3,2.3,6.7"/><path class="cls-6" d="M867.1,7.2c-.9,1-1.3,2.4-1.2,3.8.1,1.3.8,2.6,1.8,3.5"/><path class="cls-6" d="M860.9,12.3c-.7,1.6-.3,3.5.8,4.8,1.1,1.3,3,1.8,4.6,1.3"/><g class="cls-4"><path class="cls-3" d="M878,4.5c1.3,2.2,1.8,4.9,1.3,7.4h-.2c-.9-.1-1.7-.9-2.1-1.7-.4-.8-.5-1.8-.7-2.7-.2-.9-.5-1.9-1.2-2.5-.5-.5-1.1-.8-1.6-1.1-.5-.4-1-.9-1.2-1.5-.1-.6.3-1.4,1-1.4v-.2c1.9.7,3.6,2.1,4.6,3.8Z"/><path class="cls-3" d="M872.5,8.7c.1.5.2,1.1,0,1.6h-.2c-.6.5-1.4.8-2.2,1.1-.8.2-1.6.3-2.4,0-.8-.3-1.4-1-1.4-1.8,0-.6.4-1.2.9-1.6.7-.6,1.7-1.4,2.6-1.5h0c.9.1,1.6.7,2.1,1.4.2.3.3.5.4.8Z"/><path class="cls-1" d="M873.9,16.1c-1-.5-1.8-1.8-1.5-2.9.3-.9,1.2-1.4,1.6-2.3.3-.6.2-1.2.1-1.8,0-.2,0-.4-.1-.5-.7-2.7-3.4-4.7-6.2-4.7-.7,0-1.4.1-2.1,0-.7-.2-1.3-.8-1.2-1.5h0c-.7.6-1.3,1.3-1.8,2.2-1.4,2.4-2.4,4.3-1.8,6.8l.2.2c-1,1.3-1.8,2.8-2.1,4.4-.1.9-.2,1.8.2,2.6.7,1.4,2.3,2.1,3.9,2,1.5,0,2.9-.7,4.3-1.3.3.1.7.2,1,.3,3.2.7,6.7-.6,8.8-3.2-1.1,0-2.4.1-3.4-.4ZM869.8,13c-.7.4-1.3.8-1.9,1.3-.4.4-.8.8-1.2,1.2h0c-.6.2-1.2,0-1.8-.1-1.1-.4-2.1-1.3-2.5-2.4-.3-.8-.4-1.9,0-2.7.2-.2.4-.4.6-.5,1.9-1.6,3.8-2.4,6-3.6.4,0,.8,0,1.1.2.9.2,1.6.8,2.1,1.5.2.3.3.5.4.8.2.5.2,1.1,0,1.6,0,.4-.2.8-.5,1.1-.6.7-1.5,1.1-2.3,1.6Z"/></g></svg>