<?xml version="1.0" encoding="UTF-8"?><svg id="Layer_1" xmlns="http://www.w3.org/2000/svg" width="1130.2" height="26.6" viewBox="0 0 1130.2 26.6"><defs><style>.cls-1{fill:#1b1464;}.cls-1,.cls-2,.cls-3{stroke-width:0px;}.cls-4{fill:none;stroke:#d3a43c;stroke-miterlimit:10;stroke-width:.6px;}.cls-2{fill:#ffcb60;}.cls-5{opacity:.3;}.cls-6{opacity:.4;}.cls-3{fill:#fff;}</style></defs><path class="cls-2" d="M1118,18.7H11.8c-2.5,0-4.5-2-4.5-4.5h0c0-2.5,2-4.5,4.5-4.5h1106.2c2.5,0,4.5,2,4.5,4.5h0c0,2.5-2,4.5-4.5,4.5Z"/><path class="cls-4" d="M31.3,10.4c-11.7.7-19.4,3.1-20.8,7.7"/><path class="cls-4" d="M48.4,10.4c-11.7.7-20.9,4.3-22.4,8.9"/><path class="cls-4" d="M65.4,10.4c-11.7.7-20.9,4.3-22.4,8.9"/><path class="cls-4" d="M82.4,10.4c-11.7.7-20.9,4.3-22.4,8.9"/><path class="cls-4" d="M99.4,10.4c-11.7.7-20.9,4.3-22.4,8.9"/><path class="cls-4" d="M116.4,10.4c-11.7.7-20.9,4.3-22.4,8.9"/><path class="cls-4" d="M133.4,10.4c-11.7.7-20.9,4.3-22.4,8.9"/><path class="cls-4" d="M150.4,10.4c-11.7.7-20.9,4.3-22.4,8.9"/><path class="cls-4" d="M167.4,10.4c-11.7.7-20.9,4.3-22.4,8.9"/><path class="cls-4" d="M184.4,10.4c-11.7.7-20.9,4.3-22.4,8.9"/><path class="cls-4" d="M201.4,10.4c-11.7.7-20.9,4.3-22.4,8.9"/><path class="cls-4" d="M218.4,10.4c-11.7.7-20.9,4.3-22.4,8.9"/><path class="cls-4" d="M240.8,10.4c-11.7.7-20.9,4.3-22.4,8.9"/><path class="cls-4" d="M257.8,10.4c-11.7.7-20.9,4.3-22.4,8.9"/><path class="cls-4" d="M274.8,10.4c-11.7.7-20.9,4.3-22.4,8.9"/><path class="cls-4" d="M291.8,10.4c-11.7.7-20.9,4.3-22.4,8.9"/><path class="cls-4" d="M308.8,10.4c-11.7.7-20.9,4.3-22.4,8.9"/><path class="cls-4" d="M325.8,10.4c-11.7.7-20.9,4.3-22.4,8.9"/><path class="cls-4" d="M342.8,10.4c-11.7.7-20.9,4.3-22.4,8.9"/><path class="cls-4" d="M359.8,10.4c-11.7.7-20.9,4.3-22.4,8.9"/><path class="cls-4" d="M376.9,10.4c-11.7.7-20.9,4.3-22.4,8.9"/><path class="cls-4" d="M393.9,10.4c-11.7.7-20.9,4.3-22.4,8.9"/><path class="cls-4" d="M410.9,10.4c-11.7.7-20.9,4.3-22.4,8.9"/><path class="cls-4" d="M427.9,10.4c-11.7.7-20.9,4.3-22.4,8.9"/><path class="cls-4" d="M450.7,10.4c-11.7.7-20.9,4.3-22.4,8.9"/><path class="cls-4" d="M467.7,10.4c-11.7.7-20.9,4.3-22.4,8.9"/><path class="cls-4" d="M484.7,10.4c-11.7.7-20.9,4.3-22.4,8.9"/><path class="cls-4" d="M501.7,10.4c-11.7.7-20.9,4.3-22.4,8.9"/><path class="cls-4" d="M518.7,10.4c-11.7.7-20.9,4.3-22.4,8.9"/><path class="cls-4" d="M534.7,9.7c-11.7.7-19.9,5-21.4,9.6"/><path class="cls-4" d="M552.7,10.4c-11.7.7-20.9,4.3-22.4,8.9"/><path class="cls-4" d="M568.1,9.7c-11.7.7-19.3,5-20.7,9.6"/><path class="cls-4" d="M586.1,9.7c-11.7.7-20.3,5-21.7,9.6"/><path class="cls-4" d="M602.8,9.7c-11.7.7-20,5-21.4,9.6"/><path class="cls-4" d="M619.5,9.7c-11.7.7-19.7,5-21.1,9.6"/><path class="cls-4" d="M636.2,9.7c-11.7.7-19.4,5-20.8,9.6"/><path class="cls-4" d="M658.8,10.4c-11.7.7-20.9,4.3-22.4,8.9"/><path class="cls-4" d="M676.1,10.4c-11.7.7-21.1,4.4-22.6,9"/><path class="cls-4" d="M691.5,10.4c-11.7.7-19.5,4.4-21,9"/><path class="cls-4" d="M709.5,10.4c-11.7.7-20.5,4.4-22,9"/><path class="cls-4" d="M726.9,10.4c-11.7.7-20.9,4.3-22.4,8.9"/><path class="cls-4" d="M743.9,10.4c-11.7.7-20.9,4.3-22.4,8.9"/><path class="cls-4" d="M760.9,10.4c-11.7.7-20.9,4.3-22.4,8.9"/><path class="cls-4" d="M777.9,10.4c-11.7.7-20.9,4.3-22.4,8.9"/><path class="cls-4" d="M794.9,10.4c-11.7.7-20.9,4.3-22.4,8.9"/><path class="cls-4" d="M811.9,10.4c-11.7.7-20.9,4.3-22.4,8.9"/><path class="cls-4" d="M828.9,10.4c-11.7.7-20.9,4.3-22.4,8.9"/><path class="cls-4" d="M845.9,10.4c-11.7.7-20.9,4.3-22.4,8.9"/><path class="cls-4" d="M1071.7,10.4c-11.7.7-20.9,4.3-22.4,8.9"/><path class="cls-4" d="M1088.7,10.4c-11.7.7-20.9,4.3-22.4,8.9"/><path class="cls-4" d="M1105.7,10.4c-11.7.7-20.9,4.3-22.4,8.9"/><path class="cls-4" d="M1119.3,10.4c-11.7.7-17.5,4.4-19,9"/><path class="cls-4" d="M865.1,10.4c-11.7.7-20.9,4.3-22.4,8.9"/><path class="cls-4" d="M882.1,10.4c-11.7.7-20.9,4.3-22.4,8.9"/><path class="cls-4" d="M899.1,10.4c-11.7.7-20.9,4.3-22.4,8.9"/><path class="cls-4" d="M916.1,10.4c-11.7.7-20.9,4.3-22.4,8.9"/><path class="cls-4" d="M933.2,10.4c-11.7.7-20.9,4.3-22.4,8.9"/><path class="cls-4" d="M950.2,10.4c-11.7.7-20.9,4.3-22.4,8.9"/><path class="cls-4" d="M967.2,10.4c-11.7.7-20.9,4.3-22.4,8.9"/><path class="cls-4" d="M984.2,10.4c-11.7.7-20.9,4.3-22.4,8.9"/><path class="cls-4" d="M1001.2,10.4c-11.7.7-20.9,4.3-22.4,8.9"/><path class="cls-4" d="M1018.2,10.4c-11.7.7-20.9,4.3-22.4,8.9"/><path class="cls-4" d="M1035.2,10.4c-11.7.7-20.9,4.3-22.4,8.9"/><path class="cls-4" d="M1052.2,10.4c-11.7.7-20.9,4.3-22.4,8.9"/><g class="cls-6"><path class="cls-3" d="M1122.1,12.9H9c.2-.5.6-.9.9-1.2.8-.8,1.9-1.3,3.2-1.3h1104.9c1.9,0,3.4,1.1,4.1,2.6Z"/><path class="cls-1" d="M9,16.8h1113.1c-.2.5-.6.9-.9,1.2-.8.8-1.9,1.3-3.2,1.3H13.1c-1.9,0-3.4-1.1-4.1-2.6Z"/><path class="cls-1" d="M9,9.9h1113.1c-.2,0-.6-.2-.9-.2-.8-.2-1.9-.3-3.2-.3H13.1c-1.9,0-3.4.2-4.1.5Z"/></g><path class="cls-2" d="M819.7,5.7c-2.5-4.2-7.5-6.5-12.1-5.5-3.1.7-5.9,2.7-7.6,5.6-1.8,3.1-3,5.5-2.3,8.8l.3.2c-1.3,1.7-2.3,3.6-2.7,5.7-.2,1.1-.2,2.3.3,3.4.8,1.8,3,2.7,5,2.6,2,0,3.8-.9,5.6-1.7.4.2.8.3,1.3.4,4.5,1.1,9.5-1.1,12.1-5.3,2.6-4.2,2.6-10.1,0-14.3Z"/><path class="cls-4" d="M804,1.6c-.9,1-1.1,2.5-.7,3.9.3,1.3,1,2.5,1.8,3.7"/><path class="cls-4" d="M814.8,2c-1.4.1-3,1.7-3.7,2.9-.7,1.2-1,2.5-1.3,3.9"/><path class="cls-4" d="M821.6,13.5c-2.2-2.2-5.7-3.1-8.7-2.1"/><path class="cls-4" d="M810,16.4c2.3,2.1,3.5,5.5,3,8.6"/><path class="cls-4" d="M805.7,9.2c-1.1,1.3-1.7,3.1-1.5,4.8.2,1.7,1,3.4,2.3,4.5"/><path class="cls-4" d="M797.7,15.8c-.9,2-.4,4.5,1,6.1,1.4,1.6,3.9,2.3,5.9,1.7"/><g class="cls-5"><path class="cls-3" d="M819.7,5.8c1.7,2.8,2.2,6.3,1.7,9.5h-.2c-1.2-.2-2.2-1.2-2.7-2.2-.5-1.1-.7-2.3-1-3.5-.3-1.2-.6-2.4-1.5-3.2-.6-.6-1.4-1-2.1-1.5-.7-.5-1.3-1.1-1.5-1.9-.2-.8.4-1.8,1.2-1.8v-.3c2.5.9,4.6,2.6,6,4.9Z"/><path class="cls-3" d="M812.7,11.1c.2.7.2,1.4,0,2.1h-.3c-.8.6-1.8,1.1-2.8,1.4-1,.3-2.1.4-3,0-1-.4-1.8-1.3-1.7-2.3,0-.8.5-1.5,1.1-2.1.9-.8,2.2-1.8,3.4-2h0c1.1.2,2.1.8,2.7,1.8.2.3.4.7.5,1.1Z"/><path class="cls-1" d="M814.5,20.6c-1.3-.7-2.4-2.3-1.9-3.7.4-1.1,1.5-1.8,2-2.9.3-.7.3-1.6.2-2.4,0-.2,0-.5-.2-.7-1-3.4-4.3-6-7.9-6-.9,0-1.8.2-2.7,0-.9-.2-1.7-1-1.5-1.9h0c-.9.7-1.7,1.7-2.4,2.8-1.8,3.1-3,5.5-2.3,8.8l.3.2c-1.3,1.7-2.3,3.6-2.7,5.7-.2,1.1-.2,2.3.3,3.4.8,1.8,3,2.7,5,2.6,1.9,0,3.8-.9,5.6-1.7.4.2.8.3,1.3.4,4.1,1,8.6-.7,11.3-4.2-1.5.1-3,.2-4.4-.5ZM809.2,16.7c-.8.5-1.7,1.1-2.4,1.7-.6.5-1.1,1-1.6,1.5h0c-.7.3-1.5.1-2.3-.1-1.4-.5-2.7-1.6-3.2-3.1-.3-1-.5-2.4-.1-3.4.2-.2.5-.5.7-.7,2.4-2.1,4.9-3.1,7.7-4.7.5,0,1,0,1.4.2,1.1.3,2.1,1,2.7,1.9.2.3.4.7.5,1.1.2.7.2,1.4,0,2.1-.1.5-.3,1-.6,1.4-.7,1-1.9,1.5-3,2.1Z"/></g><path class="cls-2" d="M332.8,5.7c-2.5-4.2-7.5-6.5-12.1-5.5-3.1.7-5.9,2.7-7.6,5.6-1.8,3.1-3,5.5-2.3,8.8l.3.2c-1.3,1.7-2.3,3.6-2.7,5.7-.2,1.1-.2,2.3.3,3.4.8,1.8,3,2.7,5,2.6,2,0,3.8-.9,5.6-1.7.4.2.8.3,1.3.4,4.5,1.1,9.5-1.1,12.1-5.3,2.6-4.2,2.6-10.1,0-14.3Z"/><path class="cls-4" d="M317,1.6c-.9,1-1.1,2.5-.7,3.9.3,1.3,1,2.5,1.8,3.7"/><path class="cls-4" d="M327.8,2c-1.4.1-3,1.7-3.7,2.9-.7,1.2-1,2.5-1.3,3.9"/><path class="cls-4" d="M334.7,13.5c-2.2-2.2-5.7-3.1-8.7-2.1"/><path class="cls-4" d="M323.1,16.4c2.3,2.1,3.5,5.5,3,8.6"/><path class="cls-4" d="M318.7,9.2c-1.1,1.3-1.7,3.1-1.5,4.8.2,1.7,1,3.4,2.3,4.5"/><path class="cls-4" d="M310.7,15.8c-.9,2-.4,4.5,1,6.1,1.4,1.6,3.9,2.3,5.9,1.7"/><g class="cls-5"><path class="cls-3" d="M332.8,5.8c1.7,2.8,2.2,6.3,1.7,9.5h-.2c-1.2-.2-2.2-1.2-2.7-2.2-.5-1.1-.7-2.3-1-3.5-.3-1.2-.6-2.4-1.5-3.2-.6-.6-1.4-1-2.1-1.5-.7-.5-1.3-1.1-1.5-1.9-.2-.8.4-1.8,1.2-1.8v-.3c2.5.9,4.6,2.6,6,4.9Z"/><path class="cls-3" d="M325.8,11.1c.2.7.2,1.4,0,2.1h-.3c-.8.6-1.8,1.1-2.8,1.4-1,.3-2.1.4-3,0-1-.4-1.8-1.3-1.7-2.3,0-.8.5-1.5,1.1-2.1.9-.8,2.2-1.8,3.4-2h0c1.1.2,2.1.8,2.7,1.8.2.3.4.7.5,1.1Z"/><path class="cls-1" d="M327.6,20.6c-1.3-.7-2.4-2.3-1.9-3.7.4-1.1,1.5-1.8,2-2.9.3-.7.3-1.6.2-2.4,0-.2,0-.5-.2-.7-1-3.4-4.3-6-7.9-6-.9,0-1.8.2-2.7,0-.9-.2-1.7-1-1.5-1.9h0c-.9.7-1.7,1.7-2.4,2.8-1.8,3.1-3,5.5-2.3,8.8l.3.2c-1.3,1.7-2.3,3.6-2.7,5.7-.2,1.1-.2,2.3.3,3.4.8,1.8,3,2.7,5,2.6,1.9,0,3.8-.9,5.6-1.7.4.2.8.3,1.3.4,4.1,1,8.6-.7,11.3-4.2-1.5.1-3,.2-4.4-.5ZM322.2,16.7c-.8.5-1.7,1.1-2.4,1.7-.6.5-1.1,1-1.6,1.5h0c-.7.3-1.5.1-2.3-.1-1.4-.5-2.7-1.6-3.2-3.1-.3-1-.5-2.4-.1-3.4.2-.2.5-.5.7-.7,2.4-2.1,4.9-3.1,7.7-4.7.5,0,1,0,1.4.2,1.1.3,2.1,1,2.7,1.9.2.3.4.7.5,1.1.2.7.2,1.4,0,2.1-.1.5-.3,1-.6,1.4-.7,1-1.9,1.5-3,2.1Z"/></g><path class="cls-2" d="M230,5.7c-2.5-4.2-7.5-6.5-12.1-5.5-3.1.7-5.9,2.7-7.6,5.6-1.8,3.1-3,5.5-2.3,8.8l.3.2c-1.3,1.7-2.3,3.6-2.7,5.7-.2,1.1-.2,2.3.3,3.4.8,1.8,3,2.7,5,2.6,2,0,3.8-.9,5.6-1.7.4.2.8.3,1.3.4,4.5,1.1,9.5-1.1,12.1-5.3,2.6-4.2,2.6-10.1,0-14.3Z"/><path class="cls-4" d="M214.2,1.6c-.9,1-1.1,2.5-.7,3.9.3,1.3,1,2.5,1.8,3.7"/><path class="cls-4" d="M225,2c-1.4.1-3,1.7-3.7,2.9-.7,1.2-1,2.5-1.3,3.9"/><path class="cls-4" d="M231.9,13.5c-2.2-2.2-5.7-3.1-8.7-2.1"/><path class="cls-4" d="M220.3,16.4c2.3,2.1,3.5,5.5,3,8.6"/><path class="cls-4" d="M215.9,9.2c-1.1,1.3-1.7,3.1-1.5,4.8.2,1.7,1,3.4,2.3,4.5"/><path class="cls-4" d="M208,15.8c-.9,2-.4,4.5,1,6.1,1.4,1.6,3.9,2.3,5.9,1.7"/><g class="cls-5"><path class="cls-3" d="M230,5.8c1.7,2.8,2.2,6.3,1.7,9.5h-.2c-1.2-.2-2.2-1.2-2.7-2.2-.5-1.1-.7-2.3-1-3.5-.3-1.2-.6-2.4-1.5-3.2-.6-.6-1.4-1-2.1-1.5-.7-.5-1.3-1.1-1.5-1.9-.2-.8.4-1.8,1.2-1.8v-.3c2.5.9,4.6,2.6,6,4.9Z"/><path class="cls-3" d="M223,11.1c.2.7.2,1.4,0,2.1h-.3c-.8.6-1.8,1.1-2.8,1.4-1,.3-2.1.4-3,0-1-.4-1.8-1.3-1.7-2.3,0-.8.5-1.5,1.1-2.1.9-.8,2.2-1.8,3.4-2h0c1.1.2,2.1.8,2.7,1.8.2.3.4.7.5,1.1Z"/><path class="cls-1" d="M224.8,20.6c-1.3-.7-2.4-2.3-1.9-3.7.4-1.1,1.5-1.8,2-2.9.3-.7.3-1.6.2-2.4,0-.2,0-.5-.2-.7-1-3.4-4.3-6-7.9-6-.9,0-1.8.2-2.7,0-.9-.2-1.7-1-1.5-1.9h0c-.9.7-1.7,1.7-2.4,2.8-1.8,3.1-3,5.5-2.3,8.8l.3.2c-1.3,1.7-2.3,3.6-2.7,5.7-.2,1.1-.2,2.3.3,3.4.8,1.8,3,2.7,5,2.6,1.9,0,3.8-.9,5.6-1.7.4.2.8.3,1.3.4,4.1,1,8.6-.7,11.3-4.2-1.5.1-3,.2-4.4-.5ZM219.4,16.7c-.8.5-1.7,1.1-2.4,1.7-.6.5-1.1,1-1.6,1.5h0c-.7.3-1.5.1-2.3-.1-1.4-.5-2.7-1.6-3.2-3.1-.3-1-.5-2.4-.1-3.4.2-.2.5-.5.7-.7,2.4-2.1,4.9-3.1,7.7-4.7.5,0,1,0,1.4.2,1.1.3,2.1,1,2.7,1.9.2.3.4.7.5,1.1.2.7.2,1.4,0,2.1-.1.5-.3,1-.6,1.4-.7,1-1.9,1.5-3,2.1Z"/></g><path class="cls-2" d="M127.2,5.7c-2.5-4.2-7.5-6.5-12.1-5.5-3.1.7-5.9,2.7-7.6,5.6-1.8,3.1-3,5.5-2.3,8.8l.3.2c-1.3,1.7-2.3,3.6-2.7,5.7-.2,1.1-.2,2.3.3,3.4.8,1.8,3,2.7,5,2.6,2,0,3.8-.9,5.6-1.7.4.2.8.3,1.3.4,4.5,1.1,9.5-1.1,12.1-5.3,2.6-4.2,2.6-10.1,0-14.3Z"/><path class="cls-4" d="M111.4,1.6c-.9,1-1.1,2.5-.7,3.9.3,1.3,1,2.5,1.8,3.7"/><path class="cls-4" d="M122.3,2c-1.4.1-3,1.7-3.7,2.9-.7,1.2-1,2.5-1.3,3.9"/><path class="cls-4" d="M129.1,13.5c-2.2-2.2-5.7-3.1-8.7-2.1"/><path class="cls-4" d="M117.5,16.4c2.3,2.1,3.5,5.5,3,8.6"/><path class="cls-4" d="M113.1,9.2c-1.1,1.3-1.7,3.1-1.5,4.8.2,1.7,1,3.4,2.3,4.5"/><path class="cls-4" d="M105.2,15.8c-.9,2-.4,4.5,1,6.1,1.4,1.6,3.9,2.3,5.9,1.7"/><g class="cls-5"><path class="cls-3" d="M127.2,5.8c1.7,2.8,2.2,6.3,1.7,9.5h-.2c-1.2-.2-2.2-1.2-2.7-2.2-.5-1.1-.7-2.3-1-3.5-.3-1.2-.6-2.4-1.5-3.2-.6-.6-1.4-1-2.1-1.5-.7-.5-1.3-1.1-1.5-1.9-.2-.8.4-1.8,1.2-1.8v-.3c2.5.9,4.6,2.6,6,4.9Z"/><path class="cls-3" d="M120.2,11.1c.2.7.2,1.4,0,2.1h-.3c-.8.6-1.8,1.1-2.8,1.4-1,.3-2.1.4-3,0-1-.4-1.8-1.3-1.7-2.3,0-.8.5-1.5,1.1-2.1.9-.8,2.2-1.8,3.4-2h0c1.1.2,2.1.8,2.7,1.8.2.3.4.7.5,1.1Z"/><path class="cls-1" d="M122,20.6c-1.3-.7-2.4-2.3-1.9-3.7.4-1.1,1.5-1.8,2-2.9.3-.7.3-1.6.2-2.4,0-.2,0-.5-.2-.7-1-3.4-4.3-6-7.9-6-.9,0-1.8.2-2.7,0-.9-.2-1.7-1-1.5-1.9h0c-.9.7-1.7,1.7-2.4,2.8-1.8,3.1-3,5.5-2.3,8.8l.3.2c-1.3,1.7-2.3,3.6-2.7,5.7-.2,1.1-.2,2.3.3,3.4.8,1.8,3,2.7,5,2.6,1.9,0,3.8-.9,5.6-1.7.4.2.8.3,1.3.4,4.1,1,8.6-.7,11.3-4.2-1.5.1-3,.2-4.4-.5ZM116.7,16.7c-.8.5-1.7,1.1-2.4,1.7-.6.5-1.1,1-1.6,1.5h0c-.7.3-1.5.1-2.3-.1-1.4-.5-2.7-1.6-3.2-3.1-.3-1-.5-2.4-.1-3.4.2-.2.5-.5.7-.7,2.4-2.1,4.9-3.1,7.7-4.7.5,0,1,0,1.4.2,1.1.3,2.1,1,2.7,1.9.2.3.4.7.5,1.1.2.7.2,1.4,0,2.1-.1.5-.3,1-.6,1.4-.7,1-1.9,1.5-3,2.1Z"/></g><path class="cls-2" d="M24.4,5.7C21.9,1.5,16.9-.8,12.4.2c-3.1.7-5.9,2.7-7.6,5.6-1.8,3.1-3,5.5-2.3,8.8l.3.2c-1.3,1.7-2.3,3.6-2.7,5.7-.2,1.1-.2,2.3.3,3.4.8,1.8,3,2.7,5,2.6,2,0,3.8-.9,5.6-1.7.4.2.8.3,1.3.4,4.5,1.1,9.5-1.1,12.1-5.3,2.6-4.2,2.6-10.1,0-14.3Z"/><path class="cls-4" d="M8.7,1.6c-.9,1-1.1,2.5-.7,3.9.3,1.3,1,2.5,1.8,3.7"/><path class="cls-4" d="M19.5,2c-1.4.1-3,1.7-3.7,2.9-.7,1.2-1,2.5-1.3,3.9"/><path class="cls-4" d="M26.3,13.5c-2.2-2.2-5.7-3.1-8.7-2.1"/><path class="cls-4" d="M14.7,16.4c2.3,2.1,3.5,5.5,3,8.6"/><path class="cls-4" d="M10.3,9.2c-1.1,1.3-1.7,3.1-1.5,4.8.2,1.7,1,3.4,2.3,4.5"/><path class="cls-4" d="M2.4,15.8c-.9,2-.4,4.5,1,6.1,1.4,1.6,3.9,2.3,5.9,1.7"/><g class="cls-5"><path class="cls-3" d="M24.4,5.8c1.7,2.8,2.2,6.3,1.7,9.5h-.2c-1.2-.2-2.2-1.2-2.7-2.2-.5-1.1-.7-2.3-1-3.5-.3-1.2-.6-2.4-1.5-3.2-.6-.6-1.4-1-2.1-1.5-.7-.5-1.3-1.1-1.5-1.9-.2-.8.4-1.8,1.2-1.8v-.3c2.5.9,4.6,2.6,6,4.9Z"/><path class="cls-3" d="M17.4,11.1c.2.7.2,1.4,0,2.1h-.3c-.8.6-1.8,1.1-2.8,1.4-1,.3-2.1.4-3,0-1-.4-1.8-1.3-1.7-2.3,0-.8.5-1.5,1.1-2.1.9-.8,2.2-1.8,3.4-2h0c1.1.2,2.1.8,2.7,1.8.2.3.4.7.5,1.1Z"/><path class="cls-1" d="M19.2,20.6c-1.3-.7-2.4-2.3-1.9-3.7.4-1.1,1.5-1.8,2-2.9.3-.7.3-1.6.2-2.4,0-.2,0-.5-.2-.7-1-3.4-4.3-6-7.9-6-.9,0-1.8.2-2.7,0-.9-.2-1.7-1-1.5-1.9h0c-.9.7-1.7,1.7-2.4,2.8-1.8,3.1-3,5.5-2.3,8.8l.3.2c-1.3,1.7-2.3,3.6-2.7,5.7-.2,1.1-.2,2.3.3,3.4.8,1.8,3,2.7,5,2.6,1.9,0,3.8-.9,5.6-1.7.4.2.8.3,1.3.4,4.1,1,8.6-.7,11.3-4.2-1.5.1-3,.2-4.4-.5ZM13.9,16.7c-.8.5-1.7,1.1-2.4,1.7-.6.5-1.1,1-1.6,1.5h0c-.7.3-1.5.1-2.3-.1-1.4-.5-2.7-1.6-3.2-3.1-.3-1-.5-2.4-.1-3.4.2-.2.5-.5.7-.7,2.4-2.1,4.9-3.1,7.7-4.7.5,0,1,0,1.4.2,1.1.3,2.1,1,2.7,1.9.2.3.4.7.5,1.1.2.7.2,1.4,0,2.1-.1.5-.3,1-.6,1.4-.7,1-1.9,1.5-3,2.1Z"/></g><path class="cls-2" d="M922.5,5.7c-2.5-4.2-7.5-6.5-12.1-5.5-3.1.7-5.9,2.7-7.6,5.6-1.8,3.1-3,5.5-2.3,8.8l.3.2c-1.3,1.7-2.3,3.6-2.7,5.7-.2,1.1-.2,2.3.3,3.4.8,1.8,3,2.7,5,2.6,2,0,3.8-.9,5.6-1.7.4.2.8.3,1.3.4,4.5,1.1,9.5-1.1,12.1-5.3,2.6-4.2,2.6-10.1,0-14.3Z"/><path class="cls-4" d="M906.7,1.6c-.9,1-1.1,2.5-.7,3.9.3,1.3,1,2.5,1.8,3.7"/><path class="cls-4" d="M917.6,2c-1.4.1-3,1.7-3.7,2.9-.7,1.2-1,2.5-1.3,3.9"/><path class="cls-4" d="M924.4,13.5c-2.2-2.2-5.7-3.1-8.7-2.1"/><path class="cls-4" d="M912.8,16.4c2.3,2.1,3.5,5.5,3,8.6"/><path class="cls-4" d="M908.4,9.2c-1.1,1.3-1.7,3.1-1.5,4.8.2,1.7,1,3.4,2.3,4.5"/><path class="cls-4" d="M900.5,15.8c-.9,2-.4,4.5,1,6.1,1.4,1.6,3.9,2.3,5.9,1.7"/><g class="cls-5"><path class="cls-3" d="M922.5,5.8c1.7,2.8,2.2,6.3,1.7,9.5h-.2c-1.2-.2-2.2-1.2-2.7-2.2-.5-1.1-.7-2.3-1-3.5-.3-1.2-.6-2.4-1.5-3.2-.6-.6-1.4-1-2.1-1.5-.7-.5-1.3-1.1-1.5-1.9-.2-.8.4-1.8,1.2-1.8v-.3c2.5.9,4.6,2.6,6,4.9Z"/><path class="cls-3" d="M915.5,11.1c.2.7.2,1.4,0,2.1h-.3c-.8.6-1.8,1.1-2.8,1.4-1,.3-2.1.4-3,0-1-.4-1.8-1.3-1.7-2.3,0-.8.5-1.5,1.1-2.1.9-.8,2.2-1.8,3.4-2h0c1.1.2,2.1.8,2.7,1.8.2.3.4.7.5,1.1Z"/><path class="cls-1" d="M917.3,20.6c-1.3-.7-2.4-2.3-1.9-3.7.4-1.1,1.5-1.8,2-2.9.3-.7.3-1.6.2-2.4,0-.2,0-.5-.2-.7-1-3.4-4.3-6-7.9-6-.9,0-1.8.2-2.7,0-.9-.2-1.7-1-1.5-1.9h0c-.9.7-1.7,1.7-2.4,2.8-1.8,3.1-3,5.5-2.3,8.8l.3.2c-1.3,1.7-2.3,3.6-2.7,5.7-.2,1.1-.2,2.3.3,3.4.8,1.8,3,2.7,5,2.6,1.9,0,3.8-.9,5.6-1.7.4.2.8.3,1.3.4,4.1,1,8.6-.7,11.3-4.2-1.5.1-3,.2-4.4-.5ZM912,16.7c-.8.5-1.7,1.1-2.4,1.7-.6.5-1.1,1-1.6,1.5h0c-.7.3-1.5.1-2.3-.1-1.4-.5-2.7-1.6-3.2-3.1-.3-1-.5-2.4-.1-3.4.2-.2.5-.5.7-.7,2.4-2.1,4.9-3.1,7.7-4.7.5,0,1,0,1.4.2,1.1.3,2.1,1,2.7,1.9.2.3.4.7.5,1.1.2.7.2,1.4,0,2.1-.1.5-.3,1-.6,1.4-.7,1-1.9,1.5-3,2.1Z"/></g><path class="cls-2" d="M1025.3,5.7c-2.5-4.2-7.5-6.5-12.1-5.5-3.1.7-5.9,2.7-7.6,5.6-1.8,3.1-3,5.5-2.3,8.8l.3.2c-1.3,1.7-2.3,3.6-2.7,5.7-.2,1.1-.2,2.3.3,3.4.8,1.8,3,2.7,5,2.6,2,0,3.8-.9,5.6-1.7.4.2.8.3,1.3.4,4.5,1.1,9.5-1.1,12.1-5.3,2.6-4.2,2.6-10.1,0-14.3Z"/><path class="cls-4" d="M1009.5,1.6c-.9,1-1.1,2.5-.7,3.9.3,1.3,1,2.5,1.8,3.7"/><path class="cls-4" d="M1020.3,2c-1.4.1-3,1.7-3.7,2.9-.7,1.2-1,2.5-1.3,3.9"/><path class="cls-4" d="M1027.2,13.5c-2.2-2.2-5.7-3.1-8.7-2.1"/><path class="cls-4" d="M1015.6,16.4c2.3,2.1,3.5,5.5,3,8.6"/><path class="cls-4" d="M1011.2,9.2c-1.1,1.3-1.7,3.1-1.5,4.8.2,1.7,1,3.4,2.3,4.5"/><path class="cls-4" d="M1003.3,15.8c-.9,2-.4,4.5,1,6.1,1.4,1.6,3.9,2.3,5.9,1.7"/><g class="cls-5"><path class="cls-3" d="M1025.3,5.8c1.7,2.8,2.2,6.3,1.7,9.5h-.2c-1.2-.2-2.2-1.2-2.7-2.2-.5-1.1-.7-2.3-1-3.5-.3-1.2-.6-2.4-1.5-3.2-.6-.6-1.4-1-2.1-1.5-.7-.5-1.3-1.1-1.5-1.9-.2-.8.4-1.8,1.2-1.8v-.3c2.5.9,4.6,2.6,6,4.9Z"/><path class="cls-3" d="M1018.3,11.1c.2.7.2,1.4,0,2.1h-.3c-.8.6-1.8,1.1-2.8,1.4-1,.3-2.1.4-3,0-1-.4-1.8-1.3-1.7-2.3,0-.8.5-1.5,1.1-2.1.9-.8,2.2-1.8,3.4-2h0c1.1.2,2.1.8,2.7,1.8.2.3.4.7.5,1.1Z"/><path class="cls-1" d="M1020.1,20.6c-1.3-.7-2.4-2.3-1.9-3.7.4-1.1,1.5-1.8,2-2.9.3-.7.3-1.6.2-2.4,0-.2,0-.5-.2-.7-1-3.4-4.3-6-7.9-6-.9,0-1.8.2-2.7,0-.9-.2-1.7-1-1.5-1.9h0c-.9.7-1.7,1.7-2.4,2.8-1.8,3.1-3,5.5-2.3,8.8l.3.2c-1.3,1.7-2.3,3.6-2.7,5.7-.2,1.1-.2,2.3.3,3.4.8,1.8,3,2.7,5,2.6,1.9,0,3.8-.9,5.6-1.7.4.2.8.3,1.3.4,4.1,1,8.6-.7,11.3-4.2-1.5.1-3,.2-4.4-.5ZM1014.7,16.7c-.8.5-1.7,1.1-2.4,1.7-.6.5-1.1,1-1.6,1.5h0c-.7.3-1.5.1-2.3-.1-1.4-.5-2.7-1.6-3.2-3.1-.3-1-.5-2.4-.1-3.4.2-.2.5-.5.7-.7,2.4-2.1,4.9-3.1,7.7-4.7.5,0,1,0,1.4.2,1.1.3,2.1,1,2.7,1.9.2.3.4.7.5,1.1.2.7.2,1.4,0,2.1-.1.5-.3,1-.6,1.4-.7,1-1.9,1.5-3,2.1Z"/></g><path class="cls-2" d="M1128.1,5.7c-2.5-4.2-7.5-6.5-12.1-5.5-3.1.7-5.9,2.7-7.6,5.6-1.8,3.1-3,5.5-2.3,8.8l.3.2c-1.3,1.7-2.3,3.6-2.7,5.7-.2,1.1-.2,2.3.3,3.4.8,1.8,3,2.7,5,2.6,2,0,3.8-.9,5.6-1.7.4.2.8.3,1.3.4,4.5,1.1,9.5-1.1,12.1-5.3,2.6-4.2,2.6-10.1,0-14.3Z"/><path class="cls-4" d="M1112.3,1.6c-.9,1-1.1,2.5-.7,3.9.3,1.3,1,2.5,1.8,3.7"/><path class="cls-4" d="M1123.1,2c-1.4.1-3,1.7-3.7,2.9-.7,1.2-1,2.5-1.3,3.9"/><path class="cls-4" d="M1130,13.5c-2.2-2.2-5.7-3.1-8.7-2.1"/><path class="cls-4" d="M1118.4,16.4c2.3,2.1,3.5,5.5,3,8.6"/><path class="cls-4" d="M1114,9.2c-1.1,1.3-1.7,3.1-1.5,4.8.2,1.7,1,3.4,2.3,4.5"/><path class="cls-4" d="M1106,15.8c-.9,2-.4,4.5,1,6.1,1.4,1.6,3.9,2.3,5.9,1.7"/><g class="cls-5"><path class="cls-3" d="M1128.1,5.8c1.7,2.8,2.2,6.3,1.7,9.5h-.2c-1.2-.2-2.2-1.2-2.7-2.2-.5-1.1-.7-2.3-1-3.5-.3-1.2-.6-2.4-1.5-3.2-.6-.6-1.4-1-2.1-1.5-.7-.5-1.3-1.1-1.5-1.9-.2-.8.4-1.8,1.2-1.8v-.3c2.5.9,4.6,2.6,6,4.9Z"/><path class="cls-3" d="M1121.1,11.1c.2.7.2,1.4,0,2.1h-.3c-.8.6-1.8,1.1-2.8,1.4-1,.3-2.1.4-3,0-1-.4-1.8-1.3-1.7-2.3,0-.8.5-1.5,1.1-2.1.9-.8,2.2-1.8,3.4-2h0c1.1.2,2.1.8,2.7,1.8.2.3.4.7.5,1.1Z"/><path class="cls-1" d="M1122.9,20.6c-1.3-.7-2.4-2.3-1.9-3.7.4-1.1,1.5-1.8,2-2.9.3-.7.3-1.6.2-2.4,0-.2,0-.5-.2-.7-1-3.4-4.3-6-7.9-6-.9,0-1.8.2-2.7,0-.9-.2-1.7-1-1.5-1.9h0c-.9.7-1.7,1.7-2.4,2.8-1.8,3.1-3,5.5-2.3,8.8l.3.2c-1.3,1.7-2.3,3.6-2.7,5.7-.2,1.1-.2,2.3.3,3.4.8,1.8,3,2.7,5,2.6,1.9,0,3.8-.9,5.6-1.7.4.2.8.3,1.3.4,4.1,1,8.6-.7,11.3-4.2-1.5.1-3,.2-4.4-.5ZM1117.5,16.7c-.8.5-1.7,1.1-2.4,1.7-.6.5-1.1,1-1.6,1.5h0c-.7.3-1.5.1-2.3-.1-1.4-.5-2.7-1.6-3.2-3.1-.3-1-.5-2.4-.1-3.4.2-.2.5-.5.7-.7,2.4-2.1,4.9-3.1,7.7-4.7.5,0,1,0,1.4.2,1.1.3,2.1,1,2.7,1.9.2.3.4.7.5,1.1.2.7.2,1.4,0,2.1-.1.5-.3,1-.6,1.4-.7,1-1.9,1.5-3,2.1Z"/></g></svg>