<?xml version="1.0" encoding="UTF-8"?><svg id="Layer_1" xmlns="http://www.w3.org/2000/svg" width="214.6" height="46.7" viewBox="0 0 214.6 46.7"><defs><style>.cls-1{fill:#009345;}.cls-1,.cls-2,.cls-3,.cls-4,.cls-5{stroke-width:0px;}.cls-2{fill:#c4c4c4;}.cls-6{fill:#808184;}.cls-6,.cls-7,.cls-8{stroke:#000;stroke-miterlimit:10;}.cls-3{fill:#58595b;}.cls-4{fill:#fff;}.cls-4,.cls-5{opacity:.3;}.cls-7{fill:none;}.cls-5{fill:#000;}.cls-8{fill:#754c28;}</style></defs><polygon class="cls-6" points="50.1 28.8 35.2 28.8 35.2 11.3 60.4 11.3 50.1 28.8"/><polygon class="cls-6" points="164.5 28.8 179.5 28.8 179.5 11.3 154.2 11.3 164.5 28.8"/><path class="cls-8" d="M177.5,11.7H37.2c-16.9,0-22-1.8-35.5-7.4C.7,3.8.2,2.7.7,1.7,1.1.7,2.2.2,3.2.7c13.2,5.5,17.8,7.1,34,7.1h140.3c16.2,0,20.7-1.6,34-7.1,1-.4,2.1,0,2.5,1s0,2.1-1,2.5c-13.5,5.7-18.6,7.4-35.5,7.4Z"/><path class="cls-1" d="M24.9,29.8c0-9.1,7.3-16.4,16.4-16.4s16.4,7.3,16.4,16.4-7.3,16.4-16.4,16.4-16.4-7.3-16.4-16.4ZM41.3,18.2c-6.4,0-11.6,5.2-11.6,11.6s5.2,11.6,11.6,11.6,11.6-5.2,11.6-11.6-5.2-11.6-11.6-11.6Z"/><path class="cls-2" d="M29.7,29.8c0-6.4,5.2-11.6,11.6-11.6s11.6,5.2,11.6,11.6-5.2,11.6-11.6,11.6-11.6-5.2-11.6-11.6Z"/><path class="cls-5" d="M32.3,32.4c0-6.4,5.2-11.6,11.6-11.6s4.9.8,6.8,2.2c-2.1-2.9-5.5-4.8-9.4-4.8-6.4,0-11.6,5.2-11.6,11.6s1.9,7.2,4.8,9.4c-1.4-1.9-2.2-4.2-2.2-6.8Z"/><circle class="cls-3" cx="41.3" cy="29.8" r="5"/><circle class="cls-7" cx="41.3" cy="29.8" r="16.4"/><path class="cls-7" d="M41.3,18.2c6.4,0,11.6,5.2,11.6,11.6s-5.2,11.6-11.6,11.6-11.6-5.2-11.6-11.6,5.2-11.6,11.6-11.6Z"/><path class="cls-4" d="M27.8,30.7c0-8.5,6.9-15.4,15.4-15.4s4,.4,5.8,1.1c-2.3-1.3-4.9-2.1-7.8-2.1-8.5,0-15.4,6.9-15.4,15.4s4,12,9.6,14.3c-4.6-2.7-7.7-7.6-7.7-13.3Z"/><path class="cls-1" d="M156.6,29.8c0-9.1,7.3-16.4,16.4-16.4s16.4,7.3,16.4,16.4-7.3,16.4-16.4,16.4-16.4-7.3-16.4-16.4ZM173,18.2c-6.4,0-11.6,5.2-11.6,11.6s5.2,11.6,11.6,11.6,11.6-5.2,11.6-11.6-5.2-11.6-11.6-11.6Z"/><path class="cls-2" d="M161.4,29.8c0-6.4,5.2-11.6,11.6-11.6s11.6,5.2,11.6,11.6-5.2,11.6-11.6,11.6-11.6-5.2-11.6-11.6Z"/><path class="cls-5" d="M164,32.4c0-6.4,5.2-11.6,11.6-11.6s4.9.8,6.8,2.2c-2.1-2.9-5.5-4.8-9.4-4.8-6.4,0-11.6,5.2-11.6,11.6s1.9,7.2,4.8,9.4c-1.4-1.9-2.2-4.2-2.2-6.8Z"/><circle class="cls-3" cx="173" cy="29.8" r="5"/><circle class="cls-7" cx="173" cy="29.8" r="16.4"/><path class="cls-7" d="M173,18.2c6.4,0,11.6,5.2,11.6,11.6s-5.2,11.6-11.6,11.6-11.6-5.2-11.6-11.6,5.2-11.6,11.6-11.6Z"/><path class="cls-4" d="M159.5,30.7c0-8.5,6.9-15.4,15.4-15.4s4,.4,5.8,1.1c-2.3-1.3-4.9-2.1-7.8-2.1-8.5,0-15.4,6.9-15.4,15.4s4,12,9.6,14.3c-4.6-2.7-7.7-7.6-7.7-13.3Z"/></svg>