<?xml version="1.0" encoding="UTF-8"?><svg id="Layer_1" xmlns="http://www.w3.org/2000/svg" width="93.1" height="172" xmlns:xlink="http://www.w3.org/1999/xlink" viewBox="0 0 93.1 172"><defs><style>.cls-1{fill:url(#linear-gradient);}.cls-1,.cls-2,.cls-3,.cls-4,.cls-5,.cls-6,.cls-7,.cls-8{stroke-width:0px;}.cls-2{fill:#9c9ea1;}.cls-3{fill:#8b8a8a;}.cls-4{fill:#959595;}.cls-5{fill:#cececd;}.cls-9{fill:none;stroke:#000;}.cls-6{fill:#bfbebe;}.cls-7{fill:url(#linear-gradient-2);}.cls-8{fill:#adadad;}</style><linearGradient id="linear-gradient" x1="4.8" y1="6.5" x2="89.1" y2="6.5" gradientUnits="userSpaceOnUse"><stop offset="0" stop-color="#fff"/><stop offset=".8" stop-color="#626366"/><stop offset="1" stop-color="#bbbdbf"/></linearGradient><linearGradient id="linear-gradient-2" x1="16.1" y1="92.5" x2="33.1" y2="92.5" gradientUnits="userSpaceOnUse"><stop offset="0" stop-color="#626366"/><stop offset=".7" stop-color="#bbbdbf"/><stop offset=".8" stop-color="#fff"/><stop offset="1" stop-color="#bbbdbf"/></linearGradient></defs><path class="cls-8" d="M90.2,20.3v-.2s-12.8-10.6-34.8-13.2V1.4c0-.5-.4-.9-.9-.9h-13.9c-.5,0-.9.4-.9.9v5.1h0C16.9,8.2,5,19.9,3.9,21.1c-1.6-.1-2.5-.2-2.5-.2-.3,2.7-.9,5.4-1,8.1,1.6.3,3.3.7,4.9.9.3,5.7.6,11.5.9,17.2.3,4.9.5,9.8.8,14.7,1.2,21.3,2.3,42.7,3.5,64,.5,9.1,1,18.1,1.5,27.2.2,3.2.2,15.3,1.2,16.6.4.6,3.3,1,7.7,1.3,1.6.1,3.4.2,5.3.3,1.5,0,3.2,0,4.9.1,2.2,0,4.6,0,7,.1,6.3,0,13.1,0,19.3,0,2.4,0,4.7,0,6.9-.1,2.9,0,5.5-.2,7.7-.2,4.2-.2,6.9-.4,7.2-.6.5-.5.8-2.9,1-4,.2-1.1.1-2.3.2-3.3.5-7.4.9-14.9,1.3-22.3,1.3-21.6,2.6-43.1,3.9-64.7.9-15.1,1.8-30.3,2.7-45.4,0-.3,0-.6,0-.9,1.3-.2,2.6-.5,4-.7,0-2.6,0-6.4.1-9-.2,0-1,0-2.4.2Z"/><path class="cls-3" d="M79.9,44.3c-3.3,0-3.5,2.6-3.5,2.6l-2.5,63.4,2.3-78.7c1-.1,2-.2,3-.4v-2.4c.1,0,.4-7.4.4-7.4-2.3.2-4.9.4-7.7.6-.4,0-.8,0-1.2,0l-.6,6.7-.3,3.4c-.8,0-1.5.1-2.2.2l-.3,13.3-2.8,120.6v5c2.8,0,5.4-.2,7.6-.2l.2-6.3h3.2l5.7-119.4.2-.8c-.4-.1-.9-.2-1.5-.2ZM66.5,166.3l3.7-120.7c1.9.6,2.1,2.4,2.1,2.4l-4.1,118.3h-1.7Z"/><path class="cls-4" d="M90.2,20.3v-.2s-12.8-10.6-34.8-13.2v.3c0,.5-.4.9-.9.9h-3c7.4,3.4,15.2,8.4,20.5,14,2.8-.2,5.4-.4,7.7-.6l-.3,7.4v2.4c-1.1.1-2.2.3-3.2.4l-2.3,78.7,2.5-63.4s.2-2.5,3.5-2.6c.6,0,1.1,0,1.5.2,1.9.6,2.1,2.4,2.1,2.4l-6.2,117.8h-5l-.2,6.3c4.2-.2,6.9-.4,7.2-.6.5-.5.8-2.9,1-4,.2-1.1.1-2.3.2-3.3.5-7.4.9-14.9,1.3-22.3,1.3-21.6,2.6-43.1,3.9-64.7.9-15.1,1.8-30.3,2.7-45.4,0-.3,0-.6,0-.9,1.3-.2,2.6-.5,4-.7,0-2.6,0-6.4.1-9-.2,0-1,0-2.4.2Z"/><path class="cls-4" d="M65.3,48l-2.6,118.3h1.9l2.8-120.6c-1.8.6-2,2.3-2,2.3Z"/><path class="cls-4" d="M54.6.5h-3.9c-.2,1.9-.3,3.9-.5,5.9,1.8,0,3.6.3,5.3.5V1.4c0-.5-.4-.9-.9-.9Z"/><path class="cls-2" d="M47.4,6.3c-.5,0-1.1,0-1.6,0,.3,0,.6-.2.9-.3l.7.3Z"/><path class="cls-1" d="M45.6,6.2h.2c-.5.2-1.1.3-1.7.5,0-.2,0-.3,0-.5.5,0,1,0,1.5,0Z"/><path class="cls-2" d="M50.2,6.4c.2-1.9.3-3.9.5-5.9h-7c.1,1.9.3,3.8.4,5.8-1.5,0-2.9,0-4.3.2v.7c0,.5.4.9.9.9h13.9c.5,0,.9-.4.9-.9v-.3c-1.7-.2-3.5-.4-5.3-.5Z"/><path class="cls-7" d="M30.2,138.5l-2.9-92c.2.5.3.9.3.9l2.6,91.1Z"/><path class="cls-8" d="M81.4,44.5l-.2.8-5.7,119.4h1.9l6.2-117.8s-.2-1.8-2.1-2.4Z"/><path class="cls-8" d="M70.3,45.6l-3.7,120.7h1.7l4.1-118.3s-.2-1.8-2.1-2.4Z"/><path class="cls-8" d="M67.6,32.4c.8,0,1.5-.1,2.2-.2l.3-3.4.6-6.7c.4,0,.8,0,1.2,0-5.3-5.6-13-10.5-20.5-14h-10.8c-7.4,3-14.5,7.8-18.6,14.2,1.7,0,3.4.2,5.1.3l-.2,6.3v3.3h-.2v.2l.5,14.2c.2.5.3.9.3.9l2.6,91.1.9,28.7v4.1c2.4,0,4.7,0,7.2.1,6.3,0,13.1,0,19.3,0,2.4,0,4.7,0,6.9-.1v-5c.1,0-1.7,0-1.7,0l2.6-118.3s.2-1.7,2-2.3l.3-13.3ZM38.2,167.1l-1.5-120.6c1.5.7,1.7,2.2,1.7,2.2l1.6,118.4h-1.8ZM49.6,167.5h-2l-.4-121.3c2.6.3,2.9,2.6,2.9,2.6l-.5,118.7ZM59.4,166.2v.9h-1.9l1.7-120.8c2.4.4,2.7,2.5,2.7,2.5l-2.6,117.4Z"/><path class="cls-8" d="M24,44.8c-1.3,0-2.1.5-2.6.9-.8.7-.8,1.6-.8,1.6l3.6,87.8h0c0,0,1.2,30.7,1.2,30.7v.2h3.5l-4-121.3c-.3,0-.5,0-.9,0Z"/><path class="cls-8" d="M17.4,121.4c-1.7-25.6-2.8-51.3-3.2-77-.3,0-.6,0-.9,0-3.3,0-3.5,2.6-3.5,2.6l7.2,118.2h3.6c-.6-8.1-1.2-16.3-1.8-24.4-.5-6.4-.9-12.9-1.4-19.3Z"/><path class="cls-5" d="M25.4,166.2h0v-.2c-1.5-9.8-1.3-20.7-1.3-30.7h0c0,0-3.6-87.9-3.6-87.9,0,0,0-.9.8-1.6-.1-4.6-.2-9.2-.3-13.9-.8,0-1.5-.1-2.2-.2v-9.6c-3-.2-5.8-.4-8.2-.5h0c-.3,2.5-.4,4.9-.3,7.2,0,.7.1,1.3.2,1.9,1.2.2,2.4.3,3.6.5h0s0,.2,0,.2c0,4.3,0,8.7.2,13,.4,25.7,1.5,51.4,3.2,77,.4,6.4.9,12.9,1.4,19.3.6,8.1,1.2,16.3,1.8,24.4.1,1.9.3,3.8.4,5.7,1.6.1,3.4.2,5.3.3-.4-1.6-.7-3.3-1-5Z"/><path class="cls-6" d="M59.3,46.3l-1.7,120.8h1.8v-.9s2.6-117.4,2.6-117.4c0,0-.3-2.1-2.7-2.5Z"/><path class="cls-6" d="M47.2,46.2l.4,121.3h2l.5-118.7s-.3-2.3-2.9-2.6Z"/><path class="cls-6" d="M43.7.5h-3c-.5,0-.9.4-.9.9v5.1c1.4-.1,2.8-.2,4.3-.2-.1-1.9-.3-3.8-.4-5.8Z"/><path class="cls-6" d="M3.9,21.1c-1.6-.1-2.5-.2-2.5-.2-.3,2.7-.9,5.4-1,8.1,1.6.3,3.3.7,4.9.9.3,5.7.6,11.5.9,17.2.3,4.9.5,9.8.8,14.7,1.2,21.3,2.3,42.7,3.5,64,.5,9.1,1,18.1,1.5,27.2.2,3.2.2,15.3,1.2,16.6.4.6,3.3,1,7.7,1.3-.1-1.9-.3-3.8-.4-5.7h-3.6l-7.2-118.2s.2-2.5,3.5-2.6c.3,0,.6,0,.9,0,0-4.3-.1-8.7-.2-13v-.2s0,0,0,0c-1.2-.1-2.4-.3-3.6-.5,0-.6-.1-1.3-.2-1.9-.2-2.4,0-4.8.3-7.1h0c2.4,0,5.2.2,8.2.4v9.6c.7,0,1.5.1,2.2.2,0,4.7.2,9.3.3,13.9.5-.5,1.3-.9,2.6-.9.3,0,.6,0,.9,0l4,121.3h-3.5c.3,1.7.6,3.4,1,5,1.5,0,3.2,0,4.9.1v-4.1c-.1,0-1-28.7-1-28.7l-2.9-92-.5-14.2v-.2h.2v-3.3c0,0,.2-6.3.2-6.3-1.7,0-3.4-.2-5.1-.3,4.1-6.4,11.2-11.2,18.6-14.2h0c-.5,0-.9-.4-.9-.9v-.7C16.9,8.2,5,19.9,3.9,21.1Z"/><path class="cls-6" d="M36.7,46.5l1.5,120.6h1.8l-1.6-118.4s-.2-1.5-1.7-2.2Z"/><path class="cls-6" d="M25.3,166l-1.2-30.7c0,9.9-.2,20.8,1.2,30.7Z"/><path class="cls-9" d="M39.8,6.5V1.4c0-.5.4-.9.9-.9h13.9c.5,0,.9.4.9.9v5.4"/><path class="cls-9" d="M88.5,29.8c0,.3,0,.6,0,.9-.9,15.1-1.8,30.3-2.7,45.4-1.3,21.6-2.6,43.1-3.9,64.7-.5,7.4-.9,14.9-1.3,22.3,0,1.1,0,2.3-.2,3.3-.2,1.1-.5,3.4-1,4-.2.2-2.9.4-7.2.6-2.2,0-4.8.2-7.7.2-2.2,0-4.5,0-6.9.1-6.2,0-12.9.1-19.3,0-2.4,0-4.8,0-7-.1-1.7,0-3.3,0-4.9-.1-1.9,0-3.7-.2-5.3-.3-4.4-.3-7.2-.7-7.7-1.3-1-1.3-1-13.4-1.2-16.6-.5-9.1-1-18.1-1.5-27.2-1.2-21.3-2.3-42.7-3.5-64-.3-4.9-.5-9.8-.8-14.7-.3-5.7-.6-11.5-.9-17.2"/><path class="cls-9" d="M3.9,21.1c1.1-1.1,12.9-12.9,35.8-14.6,1.4-.1,2.8-.2,4.3-.2.5,0,1,0,1.5,0h.2c.5,0,1.1,0,1.6,0,.9,0,1.9,0,2.8,0,1.8,0,3.6.3,5.3.5,22,2.6,34.7,13.2,34.7,13.2"/><path class="cls-9" d="M37.2,8.4c-8.5,1.8-14.3,4.3-22.3,8.5"/><path class="cls-9" d="M42.7,9.2c-6.9,3-8.6,3.9-15.7,9.1"/><path class="cls-9" d="M52.2,9c6.1,2.8,6.1,2.7,12.2,8.1"/><path class="cls-9" d="M47.1,9.3c-1.9,2.1-3.2,4.9-5,9.9"/><path class="cls-9" d="M60,9c8.5,1.8,14.2,4.7,20,8.6"/><path class="cls-9" d="M88.5,29.8c1.3-.2,2.6-.5,4-.7,0-2.6,0-6.4.1-9-.2,0-1,0-2.4.2-2.2.2-5.8.7-10.5,1.1-2.3.2-4.9.4-7.7.6-.4,0-.8,0-1.2,0-6.6.5-14.3.9-22.9.9-1.9,0-3.8,0-5.9,0-4.7,0-9.8-.3-14.8-.5-1.7,0-3.4-.2-5.1-.3-1.2,0-2.3-.1-3.4-.2-3-.2-5.8-.4-8.2-.5-2.8-.2-5-.3-6.6-.5-1.6-.1-2.5-.2-2.5-.2-.3,2.7-.9,5.4-1,8.1,1.6.3,3.3.7,4.9.9s3.3.5,5,.8c1.2.2,2.4.3,3.6.5h0c1.5.2,3.1.4,4.7.5.7,0,1.5.1,2.2.2,1.9.2,3.8.3,5.8.4,6.4.4,13.3.5,20.8.5s13.7,0,19.9-.5c.8,0,1.5-.1,2.2-.2,2.1-.2,4.3-.4,6.4-.6,1-.1,2-.2,3-.4,2.9-.4,5.9-.9,9.2-1.4Z"/><path class="cls-9" d="M36.7,46.5c1.5.7,1.7,2.2,1.7,2.2l1.6,118.4h-5.6l-3-118.4s.2-2.5,3.5-2.6c.8,0,1.4.1,1.9.4Z"/><path class="cls-9" d="M47.2,46.2c2.6.3,2.9,2.6,2.9,2.6l-.5,118.7h-5.6l-1-118.7s.2-2.5,3.5-2.6c.2,0,.5,0,.7,0Z"/><path class="cls-9" d="M59.4,166.2v.9h-5.6l1.1-118.3s.2-2.5,3.5-2.6c.3,0,.7,0,.9,0,2.4.4,2.7,2.5,2.7,2.5l-2.6,117.4Z"/><path class="cls-9" d="M70.3,45.6c1.9.6,2.1,2.4,2.1,2.4l-4.1,118.3h-5.6l2.6-118.3s.2-1.7,2-2.3c.4-.2.9-.2,1.5-.2s1.1,0,1.5.2Z"/><path class="cls-9" d="M24.1,135.2l-3.6-87.8s0-.9.8-1.6c.5-.5,1.3-.9,2.6-.9.3,0,.6,0,.9,0,1.4.2,2.1,1,2.5,1.7.2.5.3.9.3.9l2.6,91.1.8,27.6h-5.6v-.2s-1.3-30.7-1.3-30.7"/><path class="cls-9" d="M14.2,44.4c2.4.4,2.7,2.5,2.7,2.5l5.7,118.2h-5.6l-7.2-118.2s.2-2.5,3.5-2.6c.3,0,.6,0,.9,0Z"/><path class="cls-9" d="M24.1,135.2h0c0,10-.2,20.9,1.2,30.7,0,0,0,.1,0,.2"/><path class="cls-9" d="M77.5,164.7h-5.6l4.7-117.8s.2-2.5,3.5-2.6c3.3,0,3.6,2.6,3.6,2.6l-6.2,117.8Z"/></svg>