<?xml version="1.0" encoding="UTF-8"?><svg id="Layer_1" xmlns="http://www.w3.org/2000/svg" width="108.1" height="109.7" viewBox="0 0 108.1 109.7"><defs><style>.cls-1{fill:#939292;}.cls-1,.cls-2,.cls-3,.cls-4{stroke-linecap:round;stroke-linejoin:round;}.cls-1,.cls-5,.cls-6{stroke:#000;}.cls-2,.cls-6{fill:#b7b7b7;}.cls-2,.cls-3,.cls-4{stroke:#231f20;}.cls-7{opacity:.2;}.cls-7,.cls-8{fill:#000;}.cls-7,.cls-8,.cls-9,.cls-10{stroke-width:0px;}.cls-8{opacity:.1;}.cls-5,.cls-3{fill:none;}.cls-9,.cls-11{opacity:.5;}.cls-9,.cls-10{fill:#fff;}.cls-10{opacity:.2;}.cls-4{fill:#838383;}</style></defs><g class="cls-11"><path class="cls-6" d="M99.9,19.6h0c-9.3,1.8-28.3,3.9-46,3.9S9.1,20.6,3.8,18.1l9,91.1h82.5l9-91.1c-1,.5-2.4,1-4.4,1.5Z"/></g><path class="cls-7" d="M99.9,19.6h0c-3.8.7-5.1.5-11.3,1.2-.1,0-.3,0-.4,0-.1,5.6-4.2,75-11.3,88.4h18.4l9-91.1c-1,.5-2.4,1-4.4,1.5Z"/><path class="cls-9" d="M10.7,20.1l8.6,89.1h7L17.9,21.3c-2.7-.4-5.1-.8-7.1-1.2Z"/><path class="cls-10" d="M3.8,18.1l9,91.1h6.5L10.7,20.1c-3.2-.6-5.6-1.3-7-2Z"/><path class="cls-5" d="M99.9,19.6h0c-9.3,1.8-28.3,3.9-46,3.9S9.1,20.6,3.8,18.1l9,91.1h82.5l9-91.1c-1,.5-2.4,1-4.4,1.5Z"/><path class="cls-1" d="M3.9,17.5L.7,8.2v2.2c.6,22.5,7.1,64.7,51.1,67.4,13.5.8,26.7-4,35.5-10.8,13.5-10.4,19.3-27.5,20-52.2,0-.6.4-6-.1-6.3l-3.1,8.9c-.7,21.7-7.1,38.1-19.4,47.5-8.1,6.2-19.7,9.3-32.3,9-16-.3-30.3-10.5-35.6-18.1C9.5,45.6,4.2,29.6,3.9,17.5"/><g class="cls-11"><path class="cls-2" d="M107.6,4.2l-1.9,12.6h0c0,.7-2,1.8-5.7,2.7h0c-9.3,1.8-28.3,3.9-46,3.9-28.5,0-51.4-3.9-51.4-6.6L.5,4.2h107.1Z"/><path class="cls-4" d="M107.5,4.3c0,2.1-23,6-52.6,6S.5,6.3.5,4.3,24.4.5,54,.5s53.5,1.7,53.5,3.8Z"/></g><path class="cls-7" d="M105.4,4.9l2-.2-1,7-1,5s-.5.7-1,1-1.7.7-3,1.2c-.9.4-2.2.8-3.6,1.1h0c-1.8.3-3.9.7-6.3,1,.3-4.2.7-8.5,1-12.7,8.2-1.1,13-2.5,13-3.4Z"/><path class="cls-9" d="M17,21.2c-1.5-.2-3-.5-4.3-.7-1.2-.2-2.2-.4-3.2-.7-.3-4.6.6-11.2.8-12.4,2,.3,4.4.7,7,1-.4,3.2-.9,8.8-.3,12.1v.7Z"/><path class="cls-10" d="M10.3,7.4c-.2,1.2-1.1,7.8-.8,12.4-1.5-.4-2.8-.7-3.8-1.1-1.4-.5-3.1-1.2-3.1-1.7l-1.3-7.4-.8-5c0,.7,4.3,1.8,9.8,2.7Z"/><path class="cls-3" d="M107.6,4.2h-.1s0,0,0,0c0,2.1-23,6-52.6,6S1.1,6.4.5,4.3l1.9,12.5c0,2.7,23,6.6,51.4,6.6s36.6-2.1,46-3.9h0c3.7-.9,5.7-2,5.7-2.8h0c0,.1,1.9-12.5,1.9-12.5Z"/><path class="cls-3" d="M.5,4.2h0,0s0,0,0,0Z"/><path class="cls-8" d="M101.2,19.5l-.8.2c-1.8.3-3.3.7-5.7,1-1.3.2-2.7.4-4.1.5-10.1,1.2-23.6,2.3-36.4,2.3s-26.5-.9-35.9-2.1c-1.1-.2-2.1-.3-3.1-.4-1.5-.2-3-.5-4.3-.7-1.2-.2-2.2-.4-3.2-.7-1.5-.4-2.8-.7-3.8-1.1h0c0,2,.2,4.1.5,6.2,2.2.6,4.7,1,7.3,1.5,2.3.4,4.7.7,7.2,1.1,20.2,2.6,47.2,2.6,71.3-.5,4.8-.6,8.5-1.4,13-2.3.2-2,.4-3.9.4-6-.9.4-1.1.5-2.5.8Z"/><path class="cls-3" d="M107.5,4.3c0,2.1-23,6-52.6,6S.6,6.3.6,4.3,24.5.5,54,.5s53.5,1.7,53.5,3.8Z"/></svg>