<?xml version="1.0" encoding="UTF-8"?><svg id="USA" xmlns="http://www.w3.org/2000/svg" width="65" height="196" viewBox="0 0 65 196"><defs><style>.cls-1{fill:#b32b33;}.cls-1,.cls-2,.cls-3,.cls-4,.cls-5,.cls-6,.cls-7{stroke-width:0px;}.cls-2{fill:#dfbfa4;}.cls-3{fill:#010101;}.cls-8{stroke-linecap:round;stroke-linejoin:round;}.cls-8,.cls-9{fill:none;stroke:#000;stroke-width:.6px;}.cls-9{stroke-miterlimit:10;}.cls-4{fill:#636566;}.cls-5{fill:#967447;}.cls-6{fill:#fcd10f;}.cls-7{fill:#fff;}</style></defs><path class="cls-1" d="M64.4,188.5c-1.6,4-8.7,6.4-12.5,4.7v-.2c-.3-3.1-.8-5.8,1.4-8.7.2-.2.4-.5.6-.7,1.7-1.7,4.6-3.1,5.9-3.2,3,1.7,5.9,4.2,4.8,7.7,0,.1,0,.2-.1.3Z"/><path class="cls-1" d="M64.4,188.5c.9,1.3,0,2.9-1,4-4.2,4.4-11.9,5-15.8-.2-1.6-2.1-2.6-3.9-4.9-5.3-2.8-1.7-3.3-1.7-3.3-5.1h.2c.3,1.1.7,1.9,2.2,3,1.9,1.4,3.5,2.3,5,4,1.5,1.6,3,3.4,5,4.3,0,0,0,0,0,0,3.8,1.7,10.9-.7,12.5-4.7Z"/><path class="cls-2" d="M48,92.2c-.3-1.2-.8-2.9-1-4.1-.4-1.8-.5-4.3-1-5.7,2.5-1,6.3-2.2,8.2-4.2.2-.2.4-.4.6-.5h0c.8,4.5,3.1,10.8,3,14.2,0,4.1-6,8.6-9.8,10.1-.6.3-.5.3-1.3.5h-.2c-.4-2.7-1-6-1.4-8.4,1.2-.9,2-1.4,2.8-1.8Z"/><path class="cls-5" d="M41.8,22.2c-3.1-.2-6.8-.2-10.8.2-.9-3.2-2.1-7.2-.7-10.1-1.6,3-2.7,6.3-2.7,9.9-5.5.2-12.1,0-17.9,1.7-1.1.3-2.2.7-3.2,1.2-1.9.9-3.6,2-5,3.5C3.7,20,6,11,13.7,5.9,16.5,4,21.1.4,24.7,0c4.5-.4,3.8,3.8,10.6,1.2,7.1-.1,10.1,3.3,11.8,4.8,4.2,3.9,9.4,16.3,10.4,25.3,1.2,11-2.7,15.2-6.4,24.3,0,0,0,0,0,0-4.5-1.1-7.7-1.6-12.6-2.8,1-1.4,1.9-2.9,2.6-4.4,3.5-7.5,3.7-16.5.8-25.6v-.6Z"/><path class="cls-6" d="M41.8,70.4c0,0-.1-1.7-.1-2.3,0-1.1.4-2.2.7-3.3.8-2.4,2-3.9,4-5.4l.5-.8c4.2,2.2,4.8,6,5.9,7.5,1.5,2.1,4,8.6,4,8.6.1,1.9-.8,2.1-2,2.9-.2.1-.4.3-.6.5-1.9,1.9-5.7,3.2-8.2,4.2-.2-.3-.4-.6-.6-.9-1.8-2.9-2-7.7-3.6-10.1v-1Z"/><path class="cls-1" d="M52.2,176.6c1.1.9,2.5,1.4,3.9,2,1.1.5,2.4,1.1,3.8,1.9-1.3,0-4.2,1.5-5.9,3.2h-.1c0-.2-1.8-1.9-2.7-2.8-.6-.6-2.5-2.3-4.2-3.5-.8-1.7-.1-6.3,2.7-6.1,4.4.3,3.2,4,2.7,5.2h0Z"/><path class="cls-1" d="M46.9,177.4c1.7,1.2,3.6,2.9,4.2,3.5.9.8,2.8,2.5,2.7,2.6h.1c-.2.4-.4.6-.6.8-2.1,2.8-1.6,5.6-1.3,8.7v.2c0,0-.1,0-.1,0-2-.9-3.5-2.6-5-4.3-1.5-1.7-3.1-2.6-5-4-1.4-1.1-1.9-1.9-2.2-3-.1-.6-.2-1.3-.4-2.2-.3-1.8-1.9-5.6.8-6.3h.4c0,.7,0,1.4-.1,2.1,1.2,1,2.8.5,4,.7.3,0,.7.2,1.2.5.4.2.8.5,1.2.8Z"/><path class="cls-4" d="M45.7,109.9c0-.1,0-.3-.1-.4,0,0,.1,0,.1,0h1.1c.7,2.3,1.6,5.6,1.6,5.6,2,5.5.9,5.4,5.7,18.2-.3.3-.8.6-1.4,1-1.2-1.8-3.9-12.8-5.9-20.3-.1-.6-.3-1.1-.4-1.6-.2-.9-.5-1.7-.7-2.4Z"/><path class="cls-2" d="M50.6,153c.4,5.7-1.7,7.7-1,18.3-4.2-.6-4.7,3.2-3.9,5.2h0c-.5-.2-.9-.4-1.2-.4-1.2-.2-2.8.3-4-.7,0-.7,0-1.4.1-2.1,0-2.7,0-4.8-.5-7.5-1-5.4-3.7-10.8-3.9-16.3-.1-2.4.7-4.6.5-7-.1-2.4-1.2-3.1-1.8-5.4h0c3.8.6,7,.9,11,0,.6-.1,1.6-.5,2.7-.9.2,3-.3,5.8,0,8.4.4,2.4,1.9,5.8,2.1,8.4Z"/><path class="cls-4" d="M14.7,137.1c-1.7-.6-3.3-1.3-4.6-2.1,1.4-5.7,2.7-8.8,3.4-13.2.1-.9.3-1.8.5-2.8,2.1-1.1,4.8-3.2,4.1-5.8l-.6-1.1c.2-.6.4-1.3.3-2h0c.9.2,1.8.5,2.7.6.1,0,.3,0,.4,0,.2,1.4-.3,3.2,1.8,2.6,0-.8-.1-1.7-.3-2.5,1.3.1,2.7.2,4,.3,1.2,0,2.5,0,3.7,0,0,0,.1,0,.2,0,1.7,0,3.3-.3,4.8-.6h0c.3.3.6,1,.6,2,.3,0,1.2,0,1.5-.1.3-.7.2-1.5-.3-2.1h0c1.6-.4,3-.8,4.2-1.2.2.5.6,1.1.8,1.7.4,0,2.9-.8,3.5-1.1,0,.1,0,.3.1.4-.8.5-3.9,1.5-4.9,1.7,0,.6.3.7.4.8v.2c-.7,0-1.3-.2-1.7-.4-.1.4,0,1.4,0,1.8,1.3,0,6.8,1,7.3,0,2,7.5,4.8,18.5,5.9,20.3-1.2.7-2.8,1.4-4.2,1.9-1.1.4-2.1.8-2.7.9-4,1-7.2.6-11,0-.6-.1-1.2-.2-1.8-.3,0,.4-.4-3.4-1-7.4-.4-2.6-1-5.2-1.6-7-.1-.3-.2-.6-.3-.8-.1-.1-.3-.3-.6-.5-.8,2.9-1.9,16.3-2,17.1-4.8.9-9.1.2-12.8-1Z"/><path class="cls-1" d="M49.6,171.3c-2.8-.2-3.5,4.4-2.7,6.1-.4-.3-.9-.6-1.2-.8h0c-.8-2.1-.3-5.9,3.9-5.3Z"/><path class="cls-6" d="M45.2,94c.3,2.5.9,5.7,1.4,8.5.2,1.4.4,2.7.5,3.6-.3.2-.7.5-1.3.9-.3.2-.6.3-.9.5-1,.5-2.2,1-3.7,1.5-1.2.4-2.7.8-4.2,1.2-.6.1-1.2.3-1.9.4-1.5.3-3.1.5-4.8.6,0,0-.1,0-.2,0-1.2,0-2.5,0-3.7,0-1.3,0-2.7-.1-4-.3-.5,0-1,0-1.5-.2-.1,0-.3,0-.4,0-.9-.1-1.8-.4-2.7-.7-.5-.2-1-.3-1.4-.4-.3,0-.5-.1-.7-.2-.4,0-.8-.1-1.2-.2,0-2.2-.1-4.3-.2-6.5,0-3.1-.2-6.2-.2-9.3,0-2,0-4,0-6s0-4.6-.1-7c-5.2-1.6-4.2-1-6.7-3.9-.1-.1-.2-.3-.3-.4,1.1-2.9,3-11.9,5.8-14.6,1.8-1.7,3.1-4.5,11.3-4.3h0c-2.8,3.7,0,7.8,2.1,9.2,4.5,3.3,11-.2,12.7-4.1.3-.8.9-3.4.6-5.1,3.3,0,5.7.6,7.5,1.5l-.5.8c-2,1.5-3.2,3-4,5.4-.3,1-.7,2.2-.7,3.3,0,.6,0,2.3.1,2.3v1c1.6,2.4,1.7,7.2,3.5,10.1,0,.9,0,2.4,0,3.1-.2,2.4-.4,4.8-.3,7.3,0,.6.1,1.3.2,2.2Z"/><path class="cls-4" d="M46.8,109.4h-1.1c0,0,0,0-.1.1-.3-.9-.5-1.6-.6-2.1.3-.2.6-.3.9-.5h.4s.3,1.1.7,2.4Z"/><path class="cls-4" d="M46.3,112.4c.1.5.3,1.1.4,1.6-.5,1-6,.2-7.3,0-.1-.4-.1-1.4,0-1.8.4.2,1,.3,1.7.4,1.7.2,3.8.1,5.2-.3h0Z"/><path class="cls-4" d="M46.3,112.4h0c-1.4.5-3.5.6-5.2.4v-.2c-.1-.1-.4-.2-.4-.8,1-.2,4.1-1.3,4.9-1.7.2.7.4,1.5.7,2.4Z"/><path class="cls-5" d="M38.4,52.8c5,1.3,8.1,1.7,12.6,2.8-.6,0-9.6-.6-13.7-1.8,0-.8-.1-1.6-.1-2.6,1.2-.8,2.4-1.8,3.7-2.8h0c-.7,1.5-1.6,3-2.6,4.4Z"/><path class="cls-4" d="M44.9,107.5c.2.4.4,1.1.6,2.1-.6.3-3.1,1.1-3.5,1.1-.2-.6-.6-1.2-.8-1.7,1.5-.5,2.7-1,3.7-1.5Z"/><path class="cls-2" d="M19.4,45h0c1.1,2,2.2,3.1,4.8,3.4,1.5.2,4.6-.1,6.2-1.1,1.5-.9,2.1-1.3,3.9-3.9-.8.8-10.4,3.1-14.8,1.5ZM37.2,51.3c-5.2,3.7-8.8,4.6-11.9,3.9-1.6-.4-3-1.1-4.5-2.2-1.4-1-2.9-2.3-4.5-3.7-3-2.6-4.1-4.8-5-8.7-.9-4.1,0-7.7,0-7.7-.7-3.1-1.6-6-1.7-9,5.7-1.7,12.4-1.6,17.9-1.7,0-3.7,1.2-6.9,2.7-9.9-1.4,2.9-.2,6.9.7,10.1,4-.4,7.7-.3,10.8-.2v.6c2.8,9.1,2.6,18.2-.9,25.6h0c-1.3,1.1-2.5,2-3.7,2.8ZM35.5,31.9c0-1.4-.6-2.4-1.3-2.4s-1.3,1.1-1.3,2.4.6,2.5,1.3,2.5,1.3-1.1,1.3-2.5ZM17.5,31.6c0-1.2-.5-2.1-1.1-2.1s-1.1,1-1.1,2.1.5,2.1,1.1,2.1,1.1-1,1.1-2.1Z"/><path class="cls-6" d="M39.4,57.2c.3,1.8-.2,4.3-.6,5.1-1.7,3.9-8.2,7.4-12.7,4.1-2-1.5-4.9-5.5-2.1-9.2.3-.4.7-.9,1.2-1.3-.1,4.1,2.4,8.8,6.7,6.8,2.5-1.2,5.4-2.9,5.7-4.8,0-.3.1-.5,0-.8,0-.5-.1-1.1-.2-1.7,1.2-.2,1.7.6,1.9,1.7Z"/><path class="cls-2" d="M37.6,57.9c-.6,1.8-3.3,3.4-5.6,4.5-4.4,2.1-7-3-6.7-7.1h0c3.1.6,6.7-.3,11.9-4,0,1,0,1.8.1,2.6,0,.6,0,1.1.1,1.6,0,.6.1,1.1.2,1.7,0,.3,0,.5,0,.8Z"/><path class="cls-4" d="M37,110.2c.4.6.6,1.4.3,2.1-.3.1-1.2.2-1.5.1,0-1-.3-1.7-.6-1.8h0c.6-.2,1.3-.4,1.9-.5h0Z"/><path class="cls-3" d="M34.2,29.4c.7,0,1.3,1.1,1.3,2.4s-.6,2.5-1.3,2.5-1.3-1.1-1.3-2.5.6-2.4,1.3-2.4Z"/><path class="cls-7" d="M34.2,43.5c-1.8,2.6-2.4,2.9-3.9,3.9-1.5,1-4.6,1.3-6.2,1.1-2.5-.3-3.7-1.4-4.8-3.3h0c4.4,1.5,13.9-.8,14.8-1.6Z"/><path class="cls-4" d="M29.1,137.4c-.1-2.1,1-13.2,1.3-15h0c.6,1.7,1.2,4.4,1.6,7h-.1c0,2.6-.2,5.5-.3,7.7-.8.3-1.7.6-2.5.8v-.4Z"/><path class="cls-4" d="M28.7,137.8c-.4,0-.8.2-1.2.2,0-.7,1.1-14.2,2-17.1.3.2.5.3.6.5.1.2.2.5.3.8h0c-.3,1.9-1.4,12.9-1.3,15.1v.4c0,0-.2,0-.3.1Z"/><path class="cls-2" d="M27.5,138.1c.4,0,.8-.2,1.2-.2.4,1.7-.9,4.2-1.4,6,3.7,3.7,1.5,10.2.3,14.6-1.4,5.1-3.4,9-3.6,14,0,.5,0,.9,0,1.4h0c-.3,1.3-2.8,1.1-4.1.6h-.2c.9-1.6.5-3.1-1.2-3.9-.9-.5-2.1-.5-3.1-.4.2-2.8-.7-12-1-14.6-.4-3.6-1.2-7.3,1.3-11.8-.4-1.7-1-5.1-.9-6.8,3.6,1.2,8,1.9,12.8,1Z"/><path class="cls-1" d="M25.9,183.7c-1.1,1.7-3.8,2-5.3,2.9-1.8,1-3.5,2.3-5.4,3.3h0c.9-.6-1.2-6.6-2.3-7.7,0,0-.3-.2-.6-.4h0c2.1-2.1,4.2-3.5,5.9-5.2.5-.5,1-1.1,1.4-1.7,0,0,.1-.2.1-.2h.2c1.2.4,3.7.6,4.1-.6h0c0-.5,0-.9,0-1.4,2.3.7,1.1,2.6,1.2,4.3,0,1.8,1.6,4.5,1,6.3,0,.2-.2.4-.3.6Z"/><path class="cls-1" d="M.7,190h.2c5.1,3.7,8.4,3,13.8.1.2-.1.4-.2.6-.3h0c1.8-1,3.5-2.3,5.4-3.3,1.6-.9,4.3-1.2,5.3-2.9.1.4.1.8,0,1.3-.5,2.4-3.9,3-5.8,4-2.7,1.5-5.8,4-8.7,5.2-3.7,1.6-13.3-.6-10.9-4.1h.1s0,0,0,0Z"/><path class="cls-4" d="M22.4,110.9c.2.8.3,1.7.3,2.5-2.1.6-1.6-1.3-1.8-2.6.5,0,1,.1,1.5.2Z"/><path class="cls-5" d="M20.8,53v.2c-4.5,1.3-12.7,2.2-16.9,0,2.6-4.1,5.3-21.5,2.6-27.7v-.2c.9-.5,2-.9,3.1-1.2.1,2.9,1,5.8,1.7,9,0,0-.9,3.5,0,7.7.9,3.8,2,6.1,5,8.7s3.1,2.7,4.5,3.7Z"/><path class="cls-1" d="M15.4,170.2c1-.2,2.2,0,3.1.4,1.7.8,2.1,2.3,1.2,3.9,0,0,0,.2-.1.2-.4.6-.9,1.2-1.4,1.7h0c2-3.1,1.7-6.6-4.9-5.1.3-.5,1.1-.9,2.2-1.1Z"/><path class="cls-1" d="M13.2,171.3c6.7-1.4,7,2,4.9,5.1h0c-1.6,1.7-3.7,3.1-5.9,5.2h0c-1.3-.8-4.5-2.4-7.4-1,.6-.4,1.2-.7,2-1.1,2.9-1.3,7-3.1,6.2-7.9h0c0-.1,0-.3.1-.4Z"/><path class="cls-4" d="M18.1,113.1c.7,2.6-2,4.7-4.1,5.8.2-.9.4-1.8.5-2.7,1.4-.6,2.7-1.9,3.5-3.1Z"/><path class="cls-4" d="M17.5,112.1l.6,1.1c-.8,1.2-2.1,2.5-3.5,3.1.5-2.3.9-4.6,1.1-6.8.2,0,.5.1.7.2.3.6.3,1.6.3,2.5.3,0,.6,0,.8,0Z"/><path class="cls-4" d="M17.9,110h0c0,.8-.1,1.5-.3,2.1-.3,0-.6,0-.8,0,0-.9,0-1.9-.3-2.5.5.1,1,.3,1.4.4Z"/><path class="cls-3" d="M16.4,29.5c.6,0,1.1,1,1.1,2.1s-.5,2.1-1.1,2.1-1.1-1-1.1-2.1.5-2.1,1.1-2.1Z"/><path class="cls-1" d="M15.2,189.8h0c-.2.1-.4.3-.6.4-5.5,2.9-8.7,3.6-13.8-.2h-.2s0,0,0,0c-.4-2.8.2-6.7,4.2-9.3,2.9-1.4,6.1.2,7.4,1,.3.2.5.4.6.4,1.2,1.1,3.2,7.2,2.3,7.7Z"/><path class="cls-2" d="M14,93.4c0,3.1.1,6.2.2,9.3-4.6-1.9-8.8-4.1-8.2-9.5.2-1.9.7-12.6,1.1-16.7,2.5,2.9,1.5,2.3,6.7,3.9,0,2.4.1,4.8.1,7s0,4,0,6Z"/><path class="cls-9" d="M35.2,1.2C28.4,3.8,29.1-.4,24.7,0c-3.5.4-8.1,4-11,5.8C6,11,3.7,20,1.4,28.7c1.5-1.5,3.2-2.7,5-3.5,1-.5,2.1-.9,3.2-1.2,5.7-1.7,12.4-1.6,17.9-1.7,0-3.7,1.2-6.9,2.7-9.9-1.4,2.9-.2,6.9.7,10.1,4-.4,7.7-.3,10.8-.2,1.7,0,3.2.2,4.5.3-.6-6-2.3-12.1-7.4-15.6"/><path class="cls-9" d="M20.7,53.1c-4.4,1.3-12.6,2.2-16.8,0,2.6-4.1,5.3-21.5,2.6-27.7"/><path class="cls-9" d="M51,55.7c3.7-9.1,7.6-13.3,6.4-24.3-1-9-6.2-21.4-10.4-25.3-1.7-1.6-4.7-5-11.8-4.8"/><path class="cls-9" d="M41.8,22.8c2.8,9.1,2.6,18.2-.8,25.6-.7,1.5-1.6,3-2.6,4.4,5,1.3,8.1,1.7,12.6,2.8"/><path class="cls-9" d="M9.7,24c.1,2.9,1,5.8,1.7,9,0,0-.9,3.5,0,7.7.9,3.8,2,6.1,5,8.7s3.1,2.7,4.5,3.7c1.5,1,2.9,1.8,4.5,2.2,3.1.7,6.7-.2,11.9-3.9,1.2-.8,2.4-1.8,3.7-2.8"/><path class="cls-9" d="M14.7,27c.8-1.8,2.3-1.6,3.1-.6"/><path class="cls-9" d="M33.1,26.5c1.5-1.5,3.5-.7,3.8.4"/><path class="cls-9" d="M25.3,55.3c-.3,4.1,2.2,9.2,6.7,7.1,2.3-1.1,5-2.7,5.6-4.5,0-.3.1-.5,0-.8,0-.5-.1-1.1-.2-1.7,0-.5-.1-1-.1-1.6,0-.8-.1-1.6-.1-2.6h0"/><path class="cls-9" d="M51,55.7h0"/><path class="cls-9" d="M37.2,53.8s0,0,.1,0c4,1.2,13.1,1.7,13.7,1.8,0,0,0,0,0,0"/><path class="cls-9" d="M17.5,31.6c0,1.2-.5,2.1-1.1,2.1s-1.1-1-1.1-2.1.5-2.1,1.1-2.1,1.1,1,1.1,2.1Z"/><path class="cls-9" d="M35.5,31.9c0,1.4-.6,2.5-1.3,2.5s-1.3-1.1-1.3-2.5.6-2.4,1.3-2.4,1.3,1.1,1.3,2.4Z"/><path class="cls-9" d="M22.7,37c0,.9-.7,1.2-1.6,1,0,.7.4,3,1.5,3.4"/><path class="cls-9" d="M19.1,44.9c.1,0,.2,0,.3.1,4.4,1.5,13.9-.7,14.8-1.5-1.8,2.6-2.4,2.9-3.9,3.9-1.5,1-4.6,1.3-6.2,1.1-2.5-.3-3.7-1.4-4.8-3.3"/><path class="cls-8" d="M25.2,55.6c0,0,0,.2,0,.3-.1,4.1,2.4,8.8,6.7,6.8,2.5-1.2,5.4-2.9,5.7-4.8,0-.1,0-.3,0-.4"/><path class="cls-8" d="M25.2,55.9s0,0,0,0c-.5.4-.9.8-1.2,1.3-2.8,3.7,0,7.7,2.1,9.2,4.5,3.3,11-.2,12.7-4.1.3-.8.9-3.4.6-5.1-.2-1.1-.8-1.9-1.9-1.7,0,0-.1,0-.2,0"/><path class="cls-8" d="M24,57.2c-8.2-.2-9.6,2.7-11.3,4.3-2.8,2.7-4.7,11.7-5.8,14.6.1.1.2.3.3.4,2.5,2.9,1.5,2.3,6.7,3.9,0,0,0,0,0,0"/><path class="cls-8" d="M39.3,57.2h.1c3.3,0,5.7.6,7.5,1.5,4.2,2.2,4.8,6,5.9,7.5,1.5,2.1,4,8.6,4,8.6.1,1.9-.8,2.1-2,2.9-.2.1-.4.3-.6.5-1.9,1.9-5.7,3.2-8.2,4.2-.2-.3-.4-.6-.6-.9-1.8-2.9-2-7.7-3.6-10.1"/><path class="cls-8" d="M14.6,68.4c-.8,3.6-.8,7.8-.7,11.9,0,2.4.1,4.8.1,7s0,4,0,6c0,3.1.1,6.2.2,9.3,0,2.2.1,4.3.2,6.5.4,0,.8,0,1.2.2.2,0,.5.1.7.2.5.1,1,.3,1.4.4.9.3,1.8.6,2.7.7.1,0,.3,0,.4,0,.5,0,1,.1,1.5.2,1.3.1,2.7.2,4,.3,1.2,0,2.5,0,3.7,0,0,0,.1,0,.2,0,1.7,0,3.3-.3,4.8-.6.6-.1,1.3-.2,1.9-.4,1.6-.3,3-.7,4.2-1.2,1.5-.5,2.7-1,3.7-1.5s.6-.3.9-.5c.6-.3,1-.6,1.3-.9.2-.2.3-.3.4-.4"/><path class="cls-8" d="M45.4,80.9c0-.5,0,0,0,.6,0,.9,0,2.4,0,3.1-.2,2.4-.4,4.8-.3,7.3,0,.6.1,1.3.2,2.2.3,2.5.9,5.7,1.4,8.5.2,1.4.4,2.7.5,3.6,0,.2,0,.4,0,.6"/><path class="cls-8" d="M46.4,59.5c-2,1.5-3.2,3-4,5.4-.3,1-.7,2.2-.7,3.3,0,.6,0,2.3.1,2.3s0,0,0-.1"/><path class="cls-8" d="M17.4,58.1c-.7,1.7-2.6,7.5-2.3,8.7"/><path class="cls-8" d="M7.3,75.4c0,.3,0,.6-.1,1.1-.4,4.1-.9,14.8-1.1,16.7-.6,5.4,3.6,7.6,8.2,9.5.2,0,.4.2.6.2"/><path class="cls-8" d="M10.7,91.4c1.7.3,2.2,1.1,3.3,2,0,0,.1.1.2.2"/><path class="cls-8" d="M46,82.4c.5,1.5.7,4,1,5.7.3,1.2.7,2.9,1,4.1,0,0,0,.1,0,.2"/><path class="cls-8" d="M54.9,77.8c.8,4.5,3.1,10.7,3,14.1,0,4.1-6,8.6-9.8,10.1-.6.3-.5.3-1.3.5"/><path class="cls-8" d="M45.2,94.1s0,0,0,0c1.2-.9,2-1.4,2.8-1.8,1.3-.6,2.4-.7,4.6-.7"/><path class="cls-8" d="M15.7,109.1c0,0,0,.2,0,.3-.2,2.2-.6,4.6-1.1,6.8-.2.9-.4,1.8-.5,2.7-.2,1-.4,1.9-.5,2.8-.7,4.5-2.1,7.5-3.4,13.2,1.3.8,2.9,1.5,4.6,2.1,3.6,1.2,8,1.9,12.8,1,.4,0,.8-.2,1.2-.2.1,0,.3,0,.4-.1.8-.2,1.6-.5,2.5-.8,0-2.2.3-5.1.3-7.7"/><path class="cls-8" d="M30,121.5c.1.2.2.5.3.8.6,1.7,1.2,4.4,1.6,7,.7,4,1,7.8,1,7.4.6.1,1.2.2,1.8.3,3.8.7,7,1.1,11,0,.6-.1,1.6-.5,2.7-.9,1.4-.6,3-1.3,4.2-1.9.6-.3,1.1-.7,1.4-1-4.8-12.8-3.7-12.7-5.7-18.2,0,0-.9-3.3-1.6-5.7-.4-1.3-.7-2.4-.7-2.4"/><path class="cls-8" d="M24.9,118.2c1.2,1.1,3.4,2.1,4.5,2.8.3.2.5.3.6.5"/><path class="cls-8" d="M35.2,116.4c-.7,1-1.8,2.1-2.7,3-.8.8-2,2.4-2.1,2.1"/><path class="cls-8" d="M26.3,111s0,0,0,.2c.3.7.6,2.7.9,3.7.3,1,1.3,2.5,1.1,2.4"/><path class="cls-8" d="M30.3,111s0,0,0,.1c-.1.9-.2,1.9,0,2.7"/><path class="cls-8" d="M35.2,110.7c.3.2.6.8.6,1.8.3,0,1.2,0,1.5-.1.3-.7.2-1.5-.3-2.1"/><path class="cls-8" d="M20.9,110.7s0,0,0,0c.2,1.4-.3,3.2,1.8,2.6,0-.8-.1-1.7-.3-2.5,0-.1,0-.2,0-.3"/><path class="cls-8" d="M16.4,109.5s0,0,0,0c.3.6.3,1.6.3,2.5.3,0,.6,0,.8,0,.2-.6.4-1.3.3-2"/><path class="cls-8" d="M41.1,108.8c0,0,0,.1,0,.2.2.5.6,1.1.8,1.7.4,0,2.9-.8,3.5-1.1,0,0,.1,0,.1,0"/><path class="cls-8" d="M14.3,116.4c.1,0,.2,0,.3-.1,1.4-.6,2.7-1.9,3.5-3.1.7,2.6-2,4.7-4.1,5.8,0,0-.1,0-.2.1"/><path class="cls-8" d="M46.3,112.4c-1.4.5-3.5.6-5.2.3-.7,0-1.2-.2-1.7-.4-.1.4,0,1.4,0,1.8,1.3,0,6.8,1,7.3,0,0,0,0-.1,0-.2"/><path class="cls-8" d="M45.7,109.9h0c-.8.5-3.9,1.5-4.9,1.7,0,.6.3.7.4.8"/><path class="cls-8" d="M29.5,120.9s0,0,0,.1c-.8,2.9-1.9,16.3-2,17.1,0,0,0,0,0,0"/><path class="cls-8" d="M30.3,122.3c-.3,1.9-1.4,12.9-1.3,15v-.7"/><path class="cls-8" d="M44.9,107.3s0,0,0,.1c.2.4.4,1.1.6,2.1,0,.1,0,.3.1.4.2.7.4,1.5.7,2.4.1.5.3,1.1.4,1.6,2,7.5,4.8,18.5,5.9,20.3,0,0,.1.1.2.2"/><path class="cls-8" d="M14.7,137s0,0,0,0c0,1.7.5,5.1.9,6.8-2.4,4.5-1.7,8.2-1.3,11.8.3,2.6,1.2,11.8,1,14.6,0,0,0,.1,0,.2"/><path class="cls-8" d="M28.7,137.7s0,0,0,0c.4,1.7-.9,4.2-1.4,6,3.7,3.7,1.5,10.2.3,14.6-1.4,5.1-3.4,9-3.6,14,0,.5,0,.9,0,1.4,0,.2,0,.4,0,.5"/><path class="cls-8" d="M34.8,137.1c.6,2.3,1.7,3,1.8,5.4.1,2.3-.6,4.6-.5,7,.2,5.5,2.9,10.9,3.9,16.3.5,2.7.6,4.8.5,7.5,0,.7,0,1.3-.1,2.1h0"/><path class="cls-8" d="M48.5,136c0,0,0,.1,0,.2.2,3-.3,5.8,0,8.4.4,2.4,1.9,5.8,2.1,8.4.4,5.7-1.7,7.7-1,18.3"/><path class="cls-8" d="M13.1,171.8c0-.1,0-.3.1-.4.3-.5,1.1-.9,2.2-1.1,1-.2,2.2,0,3.1.4,1.7.8,2.1,2.3,1.2,3.9,0,0,0,.2-.1.2-.4.6-.9,1.2-1.4,1.7-1.6,1.7-3.7,3.1-5.9,5.2"/><path class="cls-8" d="M.7,190.1s0,0,0-.1t0,0c-.4-2.8.2-6.7,4.2-9.3.6-.4,1.2-.7,2-1.1,2.9-1.3,7-3.1,6.2-7.9,0,0,0-.1,0-.2"/><path class="cls-8" d="M19.9,174.5c1.2.4,3.7.6,4.1-.6"/><path class="cls-8" d="M4.8,180.7s0,0,0,0c2.9-1.4,6.1.2,7.4,1,.3.2.5.4.6.4,1.2,1.1,3.2,7.2,2.3,7.7,0,0,0,0,0,0"/><path class="cls-8" d="M.8,190c5.1,3.8,8.4,3,13.8.2.2-.1.4-.2.6-.3h0c1.8-1,3.5-2.3,5.4-3.3,1.6-.9,4.3-1.2,5.3-2.9.1-.2.2-.4.3-.6.6-1.8-1-4.5-1-6.3,0-1.7,1.2-3.6-1.2-4.3,0,0,0,0,0,0"/><path class="cls-8" d="M39.9,174.8c.2.2.3.4.5.6,1.2,1,2.8.5,4,.7.3,0,.7.2,1.2.5.4.2.8.5,1.2.8,1.7,1.2,3.6,2.9,4.2,3.5.9.8,2.8,2.5,2.7,2.6"/><path class="cls-8" d="M52.3,176.5c.5-1.2,1.7-4.9-2.7-5.2-2.8-.2-3.5,4.4-2.7,6.1,0,0,0,0,0,0"/><path class="cls-8" d="M40.2,173.3c-2.7.7-1.2,4.5-.8,6.3.2.9.3,1.6.4,2.2.3,1.1.7,2,2.2,3,1.9,1.4,3.5,2.3,5,4,1.5,1.6,3,3.4,5,4.3,0,0,0,0,0,0,3.8,1.7,10.9-.7,12.5-4.7,0-.1,0-.2.1-.3,1.1-3.5-1.7-6-4.8-7.7-1.3-.8-2.7-1.4-3.8-1.9-1.3-.6-2.7-1.2-3.9-2,0,0-.1,0-.2-.1"/><path class="cls-8" d="M.5,190c-2.3,3.5,7.2,5.7,10.9,4.1,2.9-1.2,5.9-3.7,8.7-5.2,1.9-1,5.3-1.6,5.8-4,0-.5,0-.9,0-1.3,0-.1,0-.2-.1-.3"/><path class="cls-8" d="M39.5,181.9c0,3.4.5,3.4,3.3,5.1,2.3,1.4,3.3,3.2,4.9,5.3,3.9,5.2,11.6,4.6,15.8.2,1-1.1,1.8-2.7,1-4,0,0-.1-.2-.2-.2"/><path class="cls-8" d="M52,193c-.3-3.1-.8-5.8,1.3-8.7.2-.2.4-.5.6-.7,1.7-1.7,4.6-3.1,5.9-3.2h0"/><path class="cls-8" d="M45.7,176.5c-.8-2-.3-5.8,3.9-5.2"/><path class="cls-8" d="M13.1,171.4s0,0,.1,0c6.7-1.4,7,2,4.9,5.1"/></svg>