<?xml version="1.0" encoding="UTF-8"?><svg id="USA" xmlns="http://www.w3.org/2000/svg" width="88" height="126" viewBox="0 0 88 126"><defs><style>.cls-1{fill:#b32b33;}.cls-1,.cls-2,.cls-3,.cls-4,.cls-5,.cls-6,.cls-7{stroke-width:0px;}.cls-2{fill:#dfbfa4;}.cls-3{fill:#010101;}.cls-8{stroke-linecap:round;stroke-linejoin:round;}.cls-8,.cls-9{fill:none;stroke:#000;stroke-width:.6px;}.cls-9{stroke-miterlimit:10;}.cls-4{fill:#636566;}.cls-5{fill:#967447;}.cls-6{fill:#fcd10f;}.cls-7{fill:#fff;}</style></defs><path class="cls-4" d="M50.1,120.4c-3.7-4.2-10.4-17.9-11.9-22.2,2.3-6.9,8.8-11,14.2-14.4,7.1,8.8,18.2,23.3,21.2,25.9,2.5.5,2.2.8,4.5,1.4-.5,6.4-2.2,12.3-8.9,13.9-5.5,1.2-15.2,1.7-19.1-4.6h0Z"/><path class="cls-3" d="M61.8,27c1.5,0,1.5,4.5,0,4.5-1.5,0-1.5-4.5,0-4.5Z"/><path class="cls-7" d="M61.9,39.8c-2.9,5.1-10.6,6.6-13.4,1.5h0c4,1.3,12.7-.7,13.4-1.5Z"/><path class="cls-6" d="M75.8,53.2c-3.5-4.2-4.9-3.5-9.2-4.7-2.1,6.4-5.9,7.2-10,9.3h0c-1.7,0-4.2-2-2.7-7.5-.9-.2-1.7-.6-2.6-1-6.1,3.2-13.7,11.9-19.8,17.7,4.5-2.3,6.5-.6,9,.6v.3c3.2-1.4,6.6-3.2,8.7-4.2,2,3.1,3.1,8.2,3.4,11.4-2.3.5-4.4,1.4-6.1,1.9,6.9,7.3,23.2,29.5,27,32.7,6.8,1.9,5.4,3.5,6.1-6.2-.3-14.8,1.7-37.5-3.8-50.3Z"/><path class="cls-5" d="M83,28.8c-2.6-12.8-6.2-27-20.2-27.4-6.2,2.3-5.6-1.5-9.6-1.1-12.3,3.3-18.9,14-21.2,26.1,1.3-1.4,2.9-2.4,4.6-3.2,2.6,5.7.2,21.6-2.2,25.4,3.8,2,11.3,1.2,15.3,0h0c-6.8-4.2-10.4-11.6-8.6-18.4-.6-2.8-1.4-5.5-1.5-8.2,5.2-1.5,11.2-1.4,16.2-1.6,0-3.3,1.1-6.2,2.5-9-1.3,2.7-.2,6.2.6,9.2,3.7-.3,7-.3,9.9-.2,2.6,10.1,2.6,19.9-3.1,27.8,4.2,1.1,7.3,1.6,11.5,2.6,3.4-8.3,6.9-12.1,5.8-22.1Z"/><path class="cls-3" d="M45.7,27.1c1.3,0,1.3,3.9,0,3.9-1.3,0-1.3-3.9,0-3.9Z"/><path class="cls-2" d="M68.7,21v-.5c-2.8-.1-6.2-.2-9.8.2-.8-2.9-1.9-6.5-.6-9.2-1.4,2.8-2.5,5.7-2.5,9-5,.1-11,0-16.2,1.6.1,2.7.9,5.3,1.5,8.2,0,0-.8,3.2,0,7,1.2,6.3,7,11,12.7,13.2-1.5,5.5,1,7.5,2.7,7.3h0c4.1-1.9,7.9-2.8,10-9.2-.3,0-.6-.2-.9-.2,5.5-7.8,6.1-17.3,3.1-27.3ZM61.8,27c1.5,0,1.5,4.5,0,4.5-1.5,0-1.5-4.5,0-4.5ZM45.7,31c-1.3,0-1.3-3.9,0-3.9,1.3,0,1.3,3.9,0,3.9ZM52.7,44.3c-2.3-.3-3.3-1.3-4.3-3h0c4,1.3,12.7-.7,13.4-1.5-2.5,3.9-5.3,4.7-9.1,4.5Z"/><path class="cls-2" d="M52.6,75c-.4-3.2-1.5-8.3-3.4-11.4-2.1,1-5.5,2.8-8.6,4.2v-.3c-2.7-1.1-4.6-2.8-9.2-.6-3.1,1.6-2.5,1.9-3.5,4-4.9.5-10.2,3.5-8.1,9h0c1.3.9,3,1.3,4.8,1.5,0,.1,0,.6-.1.7-.8,0-1.7.2-2.3.3h.9c-2.3,0-1.3,2,.9,1.7,0,0,0,.1,0,.2-1.5.4-3.4.6-1.3,2,.2.1.5.2.9.2,0,0,0,0,0,0-2.9-.6-3,2.3-.2,2.2h0c-2.8-.2-2.5,1.7,0,2-.1,5.7.9,10.3-.6,15.5h-.3c.7.9.8,2.9.2,5.6.2,0,.3,0,.4,0v.2c4.8,2,7.8,0,9.4-.8-.2-.7.3-11.1,1.1-12.9.3-.7,2.5-6.9,2.4-9h.3c.3,3.1.5,5.9,1.9,8.9,2.3-6.9,8.8-11,14.2-14.4-2.8-3.5-5-6.1-5.8-6.8,1.7-.5,3.8-1.5,6.1-1.9Z"/><path class="cls-1" d="M35.3,121.6h0c.8-2.1-.4-8.3-1.6-10.2-.5-1.7-4.9,3.5-10.6.7v-.2c0,0-.2,0-.4,0,.5-3.4,1-6.3-1.9-6.3-.8.3-.1,4.6-1.6,5.4-7.2,3.7-20.1,1.8-18.7,13.3,8.9,1.9,24.2.9,34.8,1.2.4.2.1-3.8,0-4Z"/><path class="cls-9" d="M62.8,1.4c-6.2,2.3-5.6-1.5-9.6-1.1-12.3,3.3-18.9,14-21.2,26.1,6-6.1,16.1-5.6,23.8-5.9,0-3.3,1.1-6.2,2.5-9-1.3,2.7-.2,6.2.6,9.2,5.2-.5,9.5-.3,14,.1-.5-5.4-2.1-11-6.7-14.2"/><path class="cls-9" d="M49.6,48.6c-4,1.2-11.4,2-15.3,0,2.4-3.7,4.8-19.5,2.3-25.2"/><path class="cls-9" d="M68.7,21c3,9.9,2.4,19.5-3.1,27.3,4.2,1.1,7.3,1.6,11.5,2.6,3.4-8.3,6.9-12.1,5.8-22.1-2.6-12.8-6.2-27-20.2-27.4"/><path class="cls-9" d="M39.5,22.1c.1,2.6.9,5.3,1.5,8.1,0,0-.8,3.2,0,7,.7,5.2,4.8,8.4,8.6,11.2,6.2,4,9.5,2.6,18.3-4.1"/><path class="cls-9" d="M44.1,24.8c.7-1.6,2.1-1.5,2.8-.6"/><path class="cls-9" d="M60.8,24.4c1.4-1.4,3.2-.7,3.4.4"/><path class="cls-9" d="M46.7,29c0,2.5-2,2.5-1.9,0,0-2.5,2-2.5,1.9,0Z"/><path class="cls-9" d="M63,29.2c0,2.9-2.4,2.9-2.4,0,0-2.9,2.4-2.9,2.4,0Z"/><path class="cls-9" d="M51.4,33.9c0,.9-.7,1.1-1.5.9,0,.7.3,2.7,1.4,3.1"/><path class="cls-9" d="M48.1,41.1c3.9,1.6,12.9-.5,13.7-1.3-2.9,5.1-10.6,6.6-13.4,1.5"/><path class="cls-9" d="M71.5,49.6c11.9,5.4,7.3,41.2,8.1,53.9-.6,9.7.7,8.1-6.1,6.2"/><path class="cls-9" d="M48.9,61.3c.2-1.3.6-2.6.8-3.6"/><path class="cls-9" d="M49.4,63.5c-3.4,1.6-10.3,5.6-14.4,6.3-6.8,1.3-17.9,1.3-15,10.4"/><path class="cls-9" d="M66.1,53.2c-5.5,2.8-12.8,6.3-18.3,8.9"/><path class="cls-9" d="M52.2,75.1c-9.1,2.4-23.4,9.6-32.2,4.9"/><path class="cls-9" d="M52.7,75.5s0,0,0,0"/><path class="cls-9" d="M52.7,75.5s0,0,0,0"/><path class="cls-9" d="M52.6,75.5c-.1,0,0,0,0,0h0Z"/><path class="cls-9" d="M52.7,75.5s0,0,0,0"/><path class="cls-9" d="M52.7,75.5s0,0,0,0"/><path class="cls-9" d="M72.6,69.7c-7,3.5-13.4,4.3-19.8,5.8"/><path class="cls-9" d="M51.2,49.4c-6.1,3.2-13.7,11.9-19.8,17.7"/><path class="cls-9" d="M73.6,109.7c-3.9-3.2-20.2-25.5-27.1-32.8"/><path class="cls-9" d="M56.5,57.7c-1.7.2-4.2-1.9-2.7-7.3"/><path class="cls-9" d="M66.6,48.5c-1.3,4.1-3.9,6.4-5.6,7.2"/><path class="cls-9" d="M47.8,62.1c3.4,3.2,4.3,9.3,4.9,13.4"/><path class="cls-9" d="M40.5,67.6c-2.5-1.1-4.5-2.8-9-.6-3.1,1.6-2.5,1.9-3.5,4"/><path class="cls-9" d="M35.9,89.1c.3,2.2-2,8.4-2.3,9.2-.8,1.8-1.2,12.1-1.1,12.8"/><path class="cls-9" d="M78.1,111.2c-.5,6.4-2.3,12.3-8.9,13.8-5.5,1.2-15.2,1.7-19.1-4.6"/><path class="cls-9" d="M23.3,90.8c-.1,5.7.9,10.4-.6,15.6"/><path class="cls-9" d="M23.4,88.8h0"/><path class="cls-9" d="M23.7,86.5s0,0,0,0"/><path class="cls-9" d="M24.1,84.2c0,0,0,.1,0,.2"/><path class="cls-9" d="M24.7,82c0,0,0,.1,0,.2"/><path class="cls-9" d="M35.7,85.4c.8,4.5.4,8.5,2.4,12.8,2.3-6.8,8.7-10.9,13.9-14.3"/><path class="cls-9" d="M50.7,121c-4.2-4.3-10.8-18.2-12.5-22.8"/><path class="cls-8" d="M33.7,111.4c1.2,1.9,2.4,8.1,1.6,10.2"/><path class="cls-8" d="M23,112c5.8,2.9,10.2-2.3,10.7-.7"/><path class="cls-8" d="M35.4,123.3c-8.5-.6-25,1.3-34.8-1"/><path class="cls-8" d="M24,112c-4.3-.1-11.5,3.3-15,4.1"/><path class="cls-8" d="M.4,123c0-3.9,1.3-7.5,8.4-9,.2,1.9.5,5.9.2,8.3"/><path class="cls-8" d="M20.9,105.6c-1.1.2-.2,4.6-1.8,5.4-1.5.8-7.1,2.6-10.4,3"/><path class="cls-8" d="M20.7,112.2c.9-1.1,2.1-6,.2-6.6"/><path class="cls-8" d="M.4,124.3c8.9,1.9,24.2.9,34.8,1.2.4.2.1-3.8,0-4"/><path class="cls-8" d="M.4,122c-.5,1.1-.3.9,0,2.3"/><path class="cls-8" d="M22.6,112.1c.5-3.4,1-6.6-2-6.4"/><path class="cls-9" d="M24.9,86.6c.4,0,.8-.1,1-.4,1.4-1.9-.5-2-1.8-2-2.1.3-3.2-1.6-.9-1.7"/><path class="cls-9" d="M23.7,88.8c-.9,0-1.9,0-2.2-.8-.8-2.1,2.1-1.2,3.4-1.4"/><path class="cls-9" d="M22.3,82.5c1.1-.4,6-.9,2.8,1.4-1.1.8-5,.6-2.4,2.4.5.3,1.5.2,2.2.3,0,0,0,0,0,0,3.1,0,1.3,2.6-1.2,2.2,0,0,0,0,0,0-2.8-.3-3.2,1.5-.4,2,3.8.8,4.3-2.3.4-2"/></svg>