<?xml version="1.0" encoding="UTF-8"?><svg id="USA" xmlns="http://www.w3.org/2000/svg" width="91" height="126" viewBox="0 0 91 126"><defs><style>.cls-1{fill:#b32b33;}.cls-1,.cls-2,.cls-3,.cls-4,.cls-5,.cls-6,.cls-7{stroke-width:0px;}.cls-2{fill:#dfbfa4;}.cls-3{fill:#010101;}.cls-8{stroke-linecap:round;stroke-linejoin:round;}.cls-8,.cls-9{fill:none;stroke:#000;stroke-width:.6px;}.cls-4{fill:#ffd232;}.cls-9{stroke-miterlimit:10;}.cls-5{fill:#636566;}.cls-6{fill:#967447;}.cls-7{fill:#fff;}</style></defs><path class="cls-1" d="M38.2,123.1c0,1.1,0,2.3-.2,2.2-10.6-.3-25.8.7-34.7-1.2-.2-1.4-.5-1.2,0-2.2,0,0,0,0,0,.1h.1c2.5.6,5.3.9,8.4,1.1,9.2.5,20-.5,26.4,0Z"/><path class="cls-6" d="M74.4,45.3c3.7-6.4,4.6-14.5,2.8-22.9v-.5c-2.7-.4-6-.7-9.7-.7-.6-3-1.3-6.6.2-9.1-1.6,2.6-2.9,5.4-3.2,8.7-8.4-.5-13.3-.3-16.1.2-1.9.3-2.9.7-3.6,1-.4.2-.6.4-.9.5,1.1-4.2,2.4-8.6,3.5-12.1,1.8-2.7,3-3.6,6-5.3.7-.4,1.6-.9,2.6-1.5,2-.4,3.8-.9,4.6-1.6.1-.1.3-.5.4-.8h.1c.9-.3,1.8-.5,2.6-.5,4,0,3.1,3.7,9.4,1.9,6.4.4,8.8,3.7,10.2,5.3,3.5,3.8,7.1,15.3,7.3,23.5.2,10-3.6,13.4-7.6,21.3-3.2-1.1-5.5-1.7-8.6-2.7-.8-.3-1.6-.5-2.5-.9,1-1.2,1.9-2.4,2.7-3.7Z"/><path class="cls-5" d="M71.8,124.8c-5.9,2-15,.8-19.1-4.2h0c-3.7-4.2-10.3-17.7-11.8-22,2.2-6.7,8.6-10.8,13.8-14.2l.7-.4c8.4,11,18.1,23.8,20.5,25.9,2.5.5,2.2.8,4.5,1.4h0c-.5,6.4-2.2,11.2-8.7,13.4Z"/><path class="cls-1" d="M3.3,121.9c.2-3.5,1.8-6.7,8.3-8.1,0,.5.1,1.3.2,2.1.1,2,.2,4.5,0,6.2v1.1c-3.1-.2-6-.5-8.4-1.1h-.1s0,0,0-.1Z"/><path class="cls-4" d="M52.1,78.8c0-4.5-.2-9.7.4-14.7,0-.9.2-1.8.4-2.7-2.5-1.9-4.9-3.9-6-5.2-.2-.2-.2-.6,0-1.1.1-.5.4-1,.7-1.6,1.3-2.3,4-5.5,7-8.7.2-.2.4-.5.6-.7,4.1,1.1,8.5,3.5,12.4,5.3,2.1-.8,3.7-1.9,6.9-4.1h0c-.8,1.3-1.6,2.6-2.7,3.7.9.3,1.7.6,2.5.9h0c1.1.9,2,1.7,4,4.2,3,3.8,3.9,22.9,3.9,29.2s-.1,14-.1,20.5c0,2.4-.2,7.9-1.1,7.7-.1,0-.3,0-.4-.1-2.3-.6-2-1-4.5-1.4-2.4-2.1-12.1-14.9-20.5-25.9-1.4-1.8-2.7-3.6-4-5.2l.6-.2Z"/><path class="cls-1" d="M23.9,105.4c1.7.7.6,5.5-.3,6.5v.2c-4,.9-9,3.1-11.7,3.7h0c0-.8-.1-1.5-.2-2.1,3.2-.4,8.9-2.2,10.4-3,1.5-.8.8-4.9,1.6-5.4,0,0,.2,0,.2,0Z"/><path class="cls-2" d="M49.1,5.2c-.5,1.2-1.1,3-1.7,5.1-1.1,3.5-2.3,8-3.5,12.1-1.3,4.7-2.5,9.1-3.1,11.3,1.9,1.5,2.7,2.2,3.8,3.1,1.2,1,2.8,2.3,6.4,5.2,1,.7,2,1.6,3.3,2.6l.2.2c-3,3.2-5.7,6.4-7,8.7h0c-5.8-5-11.4-9.4-15.7-15.5-.6-2.2,0-5.5,1.3-9.1,2.7-7.9,7.9-17.9,8.8-23.9h0c.5-2.2.9-4.7,3.5-4.7,7.8,0,2.1,0,15.4,0,.1,0,.1.4,0,.8-.1.4-.3.7-.4.8-.8.7-2.6,1.2-4.6,1.6-2.5.5-5.2,1-6.9,1.7Z"/><path class="cls-3" d="M69.5,32.1c-.7,0-1.1-1.1-1-2.3.1-1.2.7-2.1,1.4-2.1.6,0,1.1,1.1,1,2.3-.1,1.2-.7,2.2-1.4,2.1Z"/><path class="cls-6" d="M48.3,21c0,2.6.4,5.3.8,8.2,0,0-1.1,3.1-.6,6.9.4,3.2.5,3.8,2.5,6.1h0c-3.7-2.9-5.2-4.1-6.4-5.1,1.4-5.7,1.9-11.5.8-14.9h-.7c.7-.3,1.7-.7,3.6-1Z"/><path class="cls-2" d="M18.7,7.7c-.4-1.4.2-6.3.2-6.3,0-1.6,15.5-1.2,16.2-.5-1.2,2.9-6.6,3.9-9.5,4.5.1,5.2,6.6,19.9,7.4,23.5h0c-1.2,3.7-1.9,7-1.3,9.2,4.3,6.1,9.9,10.5,15.7,15.4h0c-.4.7-.6,1.2-.7,1.7h-.2c0,0-.1,0-.2-.1-1.1-.6-3.2-3.2-5.3-4.9-2.9-2.4-8-6.2-11.3-9.1-2.6-2.3-3.6-3.6-4.4-7.2-1.9-8-4.9-19.6-6.8-26.2Z"/><path class="cls-4" d="M46.5,55c0,0,.1,0,.2,0h.2c-.1.5,0,.9,0,1.1,1.1,1.2,3.4,3.2,6,5.2-.1.9-.3,1.8-.4,2.7-2.7-2.2-8.4-6.1-6-9Z"/><path class="cls-2" d="M25.6,106.1c1.5-5.2.3-12.1,1.3-19.2h0c.5-5.4,2.9-17.1,5.9-18.6,4.3-2.1,7.6-1.2,10.1,0,1.4,1.4,4.6,5.6,8.5,10.7,1.3,1.6,2.6,3.4,4,5.2l-.7.4c-5.2,3.3-11.6,7.4-13.8,14.2-1.2-2.5-1.9-4.8-2.5-7.3-.6,2.7-1.8,6.2-2.1,6.7-.8,1.8-1.2,12.1-1.1,12.8h0c-1.8.8-5.2,3.1-9.5.9h0c-.1,0-.2,0-.3,0,.4-2.4.7-4.7-.2-5.8h.3Z"/><path class="cls-1" d="M23.7,112.1v-.2c.9-1,2-5.8.2-6.5.7,0,1.2.2,1.5.6.9,1.1.6,3.4.2,5.8-.6,0-1.2.2-1.9.3Z"/><path class="cls-3" d="M54,26.4c.5,0,.9.9.8,2,0,1.1-.6,1.9-1.1,1.8-.5,0-.9-.9-.8-2,0-1.1.6-1.9,1.1-1.8Z"/><path class="cls-2" d="M52.8,28.3c0,1.1.3,1.9.8,2,.5,0,1-.8,1.1-1.8,0-1.1-.3-2-.8-2-.5,0-1,.8-1.1,1.8ZM70.8,30c.1-1.2-.3-2.2-1-2.3-.7,0-1.3.9-1.4,2.1-.1,1.2.3,2.2,1,2.3.6,0,1.3-.9,1.4-2.1ZM65,43.5c1.4-.7,2-1,3.8-3.2-.8.7-9.5,2-13.4.2h0c.8,1.9,1.8,2.9,4,3.4,1.4.3,4.2.3,5.6-.5ZM49.1,29.1c-.4-2.9-.9-5.5-.8-8.2,2.9-.4,7.7-.7,16.1-.2.3-3.3,1.6-6.1,3.2-8.7-1.5,2.5-.7,6.1-.2,9.1,3.6,0,7,.3,9.7.7v.5c1.7,8.4.9,16.5-2.8,22.9h0c-3.1,2.2-4.7,3.3-6.9,4.1-3.9-1.8-8.3-4.2-12.4-5.3-.2.2-.4.4-.6.7l-.2-.2c-1.3-1-2.4-1.8-3.3-2.6h0c-2-2.3-2.1-2.9-2.5-6.1-.5-3.8.6-6.9.6-6.9Z"/><path class="cls-7" d="M68.8,40.3c-1.8,2.2-2.4,2.4-3.8,3.2-1.4.8-4.2.8-5.6.5-2.2-.5-3.2-1.5-4-3.4h0c3.8,1.7,12.5.4,13.4-.3Z"/><path class="cls-1" d="M25.6,111.8c.1,0,.2,0,.3,0h0c4.2,2.2,7.7,0,9.5-.8.6-.3,1.1-.3,1.2.2,1.2,1.9,2.4,8,1.6,10.2h0c0,0,0,.9,0,1.7-6.4-.5-17.2.5-26.4,0v-1.1c.2-1.7.1-4.2,0-6.2h0c2.7-.6,7.7-2.8,11.7-3.7.7-.1,1.3-.3,1.9-.3Z"/><path class="cls-9" d="M38.8,88.9c0,.6,0,1.5-.2,2.5-.6,2.7-1.8,6.2-2.1,6.7-.8,1.8-1.2,12.1-1.1,12.8"/><path class="cls-9" d="M26.9,87c-1,7,.3,14-1.3,19.2,0,0,0,0,0,0"/><path class="cls-8" d="M36.5,111.2c1.2,1.9,2.4,8,1.6,10.2"/><path class="cls-8" d="M25.9,111.8c4.2,2.1,7.7-.1,9.5-.8.6-.3,1.1-.3,1.2.2"/><path class="cls-8" d="M38.3,123.1h0c-6.4-.5-17.2.5-26.4,0-3-.2-5.9-.5-8.4-1.1"/><path class="cls-8" d="M26.9,111.8c-.3,0-.7,0-1,0-.1,0-.2,0-.3,0-.6,0-1.2.2-1.9.3-4.1.9-9,3.1-11.7,3.7"/><path class="cls-8" d="M3.3,122.8c0-.3,0-.5,0-.8,0,0,0,0,0-.1.2-3.5,1.8-6.7,8.3-8.1,0,.5.1,1.3.2,2.1.1,2,.2,4.5,0,6.2"/><path class="cls-8" d="M23.8,105.4s0,0-.1,0c-.9.4,0,4.6-1.6,5.4-1.5.8-7.1,2.6-10.4,3"/><path class="cls-8" d="M23.6,112c.9-1,2-5.8.3-6.5,0,0,0,0-.1,0"/><path class="cls-8" d="M3.3,124.1c8.9,1.9,24.1.9,34.7,1.2.2.1.2-1.1.2-2.2,0-.9,0-1.6,0-1.7"/><path class="cls-8" d="M3.4,121.8s0,0,0,0c-.5,1-.2.8,0,2.2"/><path class="cls-8" d="M25.6,111.8s0,0,0,0c.4-2.4.7-4.7-.2-5.8-.3-.4-.8-.6-1.5-.6,0,0-.1,0-.2,0,0,0,0,0-.1,0"/><path class="cls-9" d="M43.8,22.5s0,0,0,0c.2-.1.5-.3.9-.5.7-.3,1.7-.7,3.6-1,2.9-.4,7.7-.7,16.1-.2.3-3.3,1.6-6.1,3.2-8.7-1.5,2.5-.7,6.1-.2,9.1,3.6,0,7,.3,9.7.7,1.5.2,2.9.4,4,.6,0-5.4-1.1-11-5.4-14.6"/><path class="cls-9" d="M56.9,3c-.3.2-.7.4-1,.5-1,.5-1.8,1.1-2.6,1.5-3.1,1.7-4.2,2.6-6,5.3,0,0,0,0,0,0"/><path class="cls-9" d="M73,2.6c-6.3,1.8-5.4-1.9-9.4-1.9-.8,0-1.7.2-2.6.5"/><path class="cls-9" d="M44.6,37s0,0,0,0c1.4-5.7,1.9-11.5.8-14.9"/><path class="cls-9" d="M77.2,22.4c1.8,8.4.9,16.5-2.8,22.9-.8,1.3-1.6,2.6-2.7,3.7.9.3,1.7.6,2.5.9,3,1,5.4,1.6,8.6,2.7,4-7.9,7.9-11.3,7.6-21.3-.2-8.2-3.8-19.7-7.3-23.5-1.4-1.5-3.8-4.8-10.2-5.3"/><path class="cls-9" d="M67.4,49.5h.2c2.1-.8,3.7-2,6.9-4.2"/><path class="cls-9" d="M48.3,20.9h0c0,2.6.4,5.3.8,8.2,0,0-1.1,3.1-.6,6.9.4,3.2.5,3.8,2.5,6.1"/><path class="cls-9" d="M52.6,24c.9-1.6,2.2-1.3,2.8-.3"/><path class="cls-9" d="M69.1,25.1c1.5-1.2,3.2-.4,3.4.7"/><path class="cls-9" d="M54.8,28.4c0,1.1-.6,1.9-1.1,1.8-.5,0-.9-.9-.8-2,0-1.1.6-1.9,1.1-1.8.5,0,.9.9.8,2Z"/><path class="cls-9" d="M70.8,30c-.1,1.2-.7,2.2-1.4,2.1-.7,0-1.1-1.1-1-2.3.1-1.2.7-2.1,1.4-2.1.6,0,1.1,1.1,1,2.3Z"/><path class="cls-9" d="M59,33.6c-.1.8-.7,1-1.5.8,0,.7,0,2.7,1.1,3.2"/><path class="cls-9" d="M55.1,40.4c0,0,.2,0,.3.1,3.8,1.7,12.5.5,13.4-.2-1.8,2.2-2.4,2.4-3.8,3.2-1.4.8-4.2.8-5.6.5-2.2-.5-3.2-1.5-4-3.4"/><path class="cls-9" d="M74.3,50c1.1.8,2,1.6,4,4.1,3,3.8,3.9,22.9,3.9,29.2s-.1,14-.1,20.5c0,2.4-.2,7.9-1.1,7.7-.1,0-.3,0-.4-.1-2.3-.6-2-1-4.5-1.4"/><path class="cls-9" d="M76,110c-2.4-2.1-12.1-14.9-20.5-25.9-1.4-1.8-2.7-3.6-4-5.2-3.9-5.1-7.2-9.3-8.5-10.7-.2-.2-.4-.4-.5-.5"/><path class="cls-9" d="M43.3,68.4c-.1,0-.2,0-.3-.1-2.5-1.1-5.8-2.1-10.1,0-3,1.5-5.5,13.2-5.9,18.6,0,0,0,.2,0,.2"/><path class="cls-9" d="M80.5,111.5c-.5,6.3-2.2,11.2-8.7,13.3-5.9,2-15,.8-19.1-4.2"/><path class="cls-9" d="M37.5,86c.3,2,.7,3.7,1,5.4.6,2.5,1.3,4.8,2.5,7.3,2.2-6.7,8.6-10.8,13.8-14.2"/><path class="cls-9" d="M53.4,121.2c-.2-.2-.4-.4-.6-.6-3.7-4.2-10.3-17.7-11.8-21.9"/><path class="cls-9" d="M70.6,50.7c-.9-.4-2-.8-3-1.3-3.9-1.8-8.3-4.2-12.4-5.3-.2.2-.4.4-.6.7-3,3.2-5.7,6.4-7,8.7-.4.6-.6,1.2-.7,1.6-.1.5,0,.8,0,1.1,1.1,1.2,3.4,3.2,6,5.2,3.9,3,8.1,5.9,8.6,5.8"/><path class="cls-9" d="M49.1,5.1c0,0,0,.1,0,.2-.5,1.2-1.1,3-1.7,5.1-1.1,3.5-2.3,8-3.5,12.1-1.3,4.7-2.5,9.1-3.1,11.3,0,.2-.1.4-.2.6"/><path class="cls-9" d="M42,4.2c0,.3,0,.5,0,.8-.8,6-6.1,15.9-8.8,23.9-1.2,3.7-1.9,6.9-1.3,9.1"/><path class="cls-9" d="M54.4,44.6c-1.3-1-2.4-1.8-3.3-2.6-3.7-2.9-5.2-4.1-6.4-5.2-1.1-.9-1.9-1.6-3.8-3.1,0,0-.1,0-.2-.1"/><path class="cls-9" d="M47.5,53.5c-5.8-4.9-11.4-9.3-15.7-15.4"/><path class="cls-9" d="M42,5.1c.5-2.2.9-4.7,3.5-4.7,7.8,0,2.1,0,15.4,0,.1,0,.1.4,0,.8-.1.4-.3.7-.4.8-.8.7-2.6,1.2-4.6,1.6-2.5.5-5.2,1-6.9,1.7-.3.1-.5.2-.8.4"/><path class="cls-9" d="M33.1,28.9c-.8-3.6-7.3-18.3-7.4-23.5,2.9-.6,8.2-1.6,9.5-4.5-.7-.7-16.2-1.2-16.2.5,0,0-.6,4.9-.2,6.3,1.8,6.6,4.9,18.2,6.8,26.2.8,3.5,1.8,4.9,4.4,7.2,3.3,2.9,8.4,6.7,11.3,9.1,2.1,1.7,4.3,4.3,5.3,4.9,0,0,.1,0,.2,0"/><path class="cls-9" d="M53,60.9c0,.2,0,.3,0,.5-.1.9-.3,1.8-.4,2.7-.5,5-.4,10.2-.4,14.7"/><path class="cls-9" d="M53,64.5c-.1-.1-.3-.3-.5-.4-2.7-2.2-8.4-6.1-6-9,0,0,.1-.1.2-.2"/></svg>