<?xml version="1.0" encoding="UTF-8"?><svg id="USA" xmlns="http://www.w3.org/2000/svg" width="97" height="161" viewBox="0 0 97 161"><defs><style>.cls-1{fill:#3a3a3a;}.cls-1,.cls-2,.cls-3,.cls-4,.cls-5,.cls-6,.cls-7,.cls-8,.cls-9{stroke-width:0px;}.cls-2{fill:#152b50;}.cls-10{stroke-linecap:round;stroke-linejoin:round;}.cls-10,.cls-11{fill:none;stroke:#000;stroke-width:.6px;}.cls-3{fill:#847b63;}.cls-4{fill:#282c2d;}.cls-5{fill:#9b7a6b;}.cls-11{stroke-miterlimit:10;}.cls-6{fill:#000;}.cls-7{fill:#444545;}.cls-8{fill:#fff;}.cls-9{fill:#bdbec1;}</style></defs><path class="cls-4" d="M53,25.6c0,2.4.4,5.2.8,7.7-.3,0-.6,0-1,.1-3-13.7-3.5-19.1-.7-22.8C57.7.9,68.4,0,76.7.3c9.9.4,15.1,9.5,16.7,11.3,4,6.3,4.4,17.5,2,26.3,0,.3,0-2.5,0-2.2h-1.2c.7-1,.5-3.2-.3-3.9-2.6.2-4.4,2.5-6.9,1.5.2-22.2-.6-18.7-18.1-15.6-9-2-13.4-7.1-15.9,7.8h0Z"/><path class="cls-4" d="M94.2,35.7h1.2c-1,4.4-2,9.5-4.4,12.6-.2.3-.3-.8-.5-.6-.5.5-.8.9-1.2,1.3,0-1.8,0-3.4,0-5.2h0c2.6,2,4.1-5.5,4.4-7.7.2,0,.3-.2.4-.4Z"/><path class="cls-2" d="M54.7,89.8c-11,1.8-22.2,3.3-33.3,1.1-.9-.9-3.6-.9-5.5-.5-2.2-1.7-2.5-7.7-1-9.8,1.6-2.2,5.3-2.8,7.9-3,6.9-.5,13.2-1.8,19.4-3.6,16.2-4.5,26.5-10.3,42.6-9.4,2.2-1.9,4.6-4,6.2-6.1,0-1.1,0-2.1,0-3.1h0c7.7,12.2,2.4,28.9,2.5,42.8-1.3,15,0,28.7-.4,44.1-5,.3-13.7-.7-16.4-4.3-5.2-9.8-16.7-30.4-22.5-43h0c0-2.4.3-2.9.2-5.2Z"/><path class="cls-7" d="M93.6,31.9h.3c.9.7,1.2,3.4-.1,4.1.2-3.5-5-3.2-4.7.6,0,.7-1.4.5-2.3.3.1-1.2.2-2.4.2-3.6,2.4,1.1,4.1-1.4,6.6-1.4Z"/><path class="cls-3" d="M15.4,147.3h0c-.4-14-.3-29.3.9-43.4,4.2,1,8-.3,2.6-2.9,2.2-.1,4.2-.6,2.3-3.3-.3-.4-.9-.6-1.6-.7,4.7,0,2.4-3.9-1.4-3.6h0c2.1.2,4.7-.6,3.4-2.6,10.2,2.1,20.5.8,30.6-.7,3.5,7.6,7.4,15.4,11.3,22.2,3.7,6.5,11.8,23,13.6,25.5,2.4,3.4,10.7,4.5,15.4,4.4-1.2,8.2-8.2,18.1-17.5,18.1-6.1.4-11.7.8-17.3-1.2-12.2-3.2-16.7-24.9-20.4-35.3h-.3c.5,7.6,1.1,16.3.7,23.8-7.2.6-14.9.2-22.2-.4Z"/><path class="cls-9" d="M89.3,54.4c.8-.6,1.5-1.1,1.8-1.4.2,2,.2,3.6,0,5.6-1.6,2.1-4,4.2-6.2,6.1-7.4,0-15.3,0-22,2.9-.6-1.3-.6-1.9-1.5-3.3,9.7-1.5,18.3-3.3,27.9-9.9Z"/><path class="cls-7" d="M71.6,34c0-.9-.2-1.9-.3-2.9l.3-.3,15,.5v.2c-.1,1.6-.6,7.2-1,7.7h-13.2c-.3-2-.6-3.5-.7-5.3ZM85.3,32.5q0,0,0,0c-1.8,0-10.4-.2-12.7-.3.3,2.4.4,3.9.9,6,3.1.1,7.7.2,11,0,.3,0,.8-5.1.8-5.8h0Z"/><path class="cls-8" d="M85.3,32.5c-.7,7,.2,5.7-6.6,5.8v-1.4c1.1,0,1.1-3.6,0-3.6v-.9c2.9,0,5.8.1,6.6.1Z"/><path class="cls-4" d="M82.8,29.9c-.3.8-3.9-.3-7.1.5-.4-.1-.2-.7-.4-1.3,1.1-.7,3.5-1.3,4.8-.6.5.3,2.6.6,2.8,1.5Z"/><path class="cls-6" d="M78.8,33.3c1.1,0,1.1,3.6,0,3.6-1.1,0-1.1-3.6,0-3.6Z"/><path class="cls-8" d="M78.8,32.4v.9c-1.1,0-1.1,3.6,0,3.6v1.4c-2,0-3.8,0-5.3-.1-.4-2.1-.6-3.6-.9-6,1.3,0,3.7.1,6.2.2Z"/><path class="cls-7" d="M71.5,32.3c0,.6.1,1.2.2,1.7-1.3,0-2.7.1-4,.1,0-.6.1-1.1.2-1.7,1.2,0,2.5,0,3.6,0Z"/><path class="cls-7" d="M54.5,32.3s0,0,0,0h0c0,.6.5,5.5.8,5.5,3.2,0,7.4,0,10.5,0,.4-2,.6-3.4.8-5.8-2.4.2-10.7.3-12.2.3,0,0,0,0,0,0ZM53.8,33.3h0c-.1-.7-.2-1.4-.3-2.1l14.5-.4c-.2,2.8-.5,5.1-1,7.9-3.4.1-8.6.2-12.7.1-.4-1.3.2-2.4,0-2.7h0c-.2-.8-.4-1.8-.6-2.8Z"/><path class="cls-8" d="M66.7,32c-.2,2.3-.4,3.8-.8,5.8-1.2,0-2.7,0-4.2.1v-1c1,0,1-3.5,0-3.5v-1.2c2,0,4-.1,5.1-.2Z"/><path class="cls-4" d="M60.9,28.2c1.8,0,3.8.1,3,2.3-1.6-.4-5.5-.3-7.4.3.4-1.1,2.5-2.6,4.4-2.6Z"/><path class="cls-6" d="M61.7,33.4c1,0,1,3.5,0,3.5-1,0-1-3.5,0-3.5Z"/><path class="cls-8" d="M61.7,36.9v1c-6.7-.3-6.6,2-7.1-5.5.8,0,4,0,7.1-.1v1.2c-1,0-1,3.5,0,3.5Z"/><path class="cls-7" d="M53.5,33.3c0,.9.2,2,.3,2.9-2.2.5-1.6-1.1-2.1-2.6.4,0,1.3-.3,1.8-.3Z"/><path class="cls-3" d="M43.6,73.5h0c-6.7,2.1-13.3,3.6-20.7,4.1,3.3-8.4,15.3-8.6,20.7-4.1Z"/><path class="cls-1" d="M37.6,147.7c1.9,2.5,1.8,8.2,1.5,11.2-6,1.9-13.2,1.1-19.4,1.2-6.6.6-13,.3-19.5-.5-.9-7.5,8.8-12.3,15.1-12.1,0-.1,0-.2,0-.4,7.3.6,15,1,22.2.4Z"/><path class="cls-5" d="M92.6,33.9c-1.8-.8-3.6.3-3.6,2.8s-1.4.5-2.3.3c.7-6.4,0-19.7-1.5-20.6-3.5-3-10.9,1.4-16.4,1.4-9-2-13.4-7.1-15.9,7.8h0c0,1.8.2,3.8.5,5.7l14.5-.4c0,.5,0,1.1-.1,1.6,1.2,0,2.5,0,3.6,0,0-.4,0-.7-.1-1.1l.3-.3,15,.5v.2c-.1,1.6-.6,7.2-1,7.7h-13.2c-.3-2-.6-3.5-.7-5.3-1.3,0-2.7.1-4,.1-.2,1.6-.4,2.9-.7,4.6-3.3-.1-9.3.7-12.8-.2-.8,8,5,18,12.1,21.1-.2,1.4,0,2.5-.1,3.8,8.4-1.3,14.6-3.5,23.2-9.1-.3-3.4-.1-7.1,0-10.6h0c.9.6,1.9.7,2.7-1.7.4-1.8,3.3-6.7.6-8.2ZM63.9,30.5c-1.6-.4-5.5-.3-7.4.3.4-2.2,8.6-4.6,7.4-.3ZM75.7,30.3c-.4-.1-.2-.7-.4-1.3,1.1-.7,3.5-1.3,4.8-.6.5.3,2.6.6,2.8,1.5-.3.8-3.9-.3-7.1.5Z"/><path class="cls-5" d="M21.8,91.9c0-2.7-6-1.9-7.6-.6-1.6,2.1,1,2.1,3.4,2.2,1.8,0,4,0,4.2-1.6Z"/><path class="cls-5" d="M21,94.1c-1.4-.8-6.3-1.2-7,.8-.9,2.5,1.2,2.4,3.3,2.3,0,0,0,0,0,.1-3.2.5-3.9,2.8-.5,3.3,0,.2,0,.4-.1.7-2.5-.1-2.7,2.7-.4,2.6,0,0,0,.2,0,.3,4.2,1,8-.3,2.6-2.9,2.2-.1,4.2-.6,2.3-3.3-.3-.4-.9-.6-1.6-.7,2.2-.2,4-.7,1.5-3Z"/><path class="cls-10" d="M54.3,36.1c-1.6,8.5,4,20.1,11.9,23.6,5.2,1.9,11.8-.8,21.5-8.6"/><path class="cls-10" d="M53.8,33.3c.2,1,.4,2,.6,2.8"/><path class="cls-10" d="M53.1,23.1c-.4,3.2,0,6.9.6,10.2"/><path class="cls-10" d="M56.5,30.8c1.9-.6,5.9-.7,7.4-.3"/><path class="cls-10" d="M75.7,30.3c3.2-.8,6.8.4,7.1-.5"/><path class="cls-10" d="M67.7,39.9c-.8,1-2.3,1-3.1,2.6,0,2.1.9,2.6,2.2,3.1"/><path class="cls-10" d="M53,25.6c2.5-14.9,6.8-9.8,15.9-7.8,5.5,0,12.9-4.4,16.4-1.4,1.6.9,2.2,14.2,1.5,20.6.9.2,2.3.4,2.3-.3-.3-3.7,4.9-4,4.7-.6-.4,2.3-1.8,9.7-4.4,7.7"/><path class="cls-10" d="M93.4,11.6c-1.7-1.8-6.9-10.9-16.7-11.3"/><path class="cls-10" d="M52.7,33.2c-3.6-18.1-4.2-19.3,3.4-27.4"/><path class="cls-10" d="M88.7,49.4c.7-.6,1.1-1,1.7-1.7.2-.3.3.8.5.6,2.4-3,3.4-8.1,4.4-12.5,0-.3,0,2.5,0,2.2,2.3-8.9,1.9-20.1-2-26.3"/><path class="cls-10" d="M56.1,5.8C60.3.4,72.8,0,76.7.3"/><path class="cls-10" d="M89.2,42.2c0,3,.1,7.7-2.1,9.6"/><path class="cls-10" d="M56.5,30.8c.4-2.2,8.6-4.6,7.4-.3"/><path class="cls-10" d="M75.7,30.3c-.4-.1-.2-.7-.4-1.3,1.1-.7,3.5-1.3,4.8-.6.5.3,2.6.6,2.8,1.5"/><path class="cls-10" d="M63.7,51.7c4.1,1.5,10,.7,14-1.8"/><path class="cls-10" d="M90.9,36.5c0,1.2-.3,2.3-.9,3.3"/><path class="cls-10" d="M61.7,33.4c1,0,1,3.5,0,3.5-1,0-1-3.5,0-3.5Z"/><path class="cls-10" d="M78.8,33.3c1.1,0,1.1,3.6,0,3.6-1.1,0-1.1-3.6,0-3.6Z"/><path class="cls-10" d="M54.5,32.3c0,.6.5,5.5.8,5.6,3.2,0,7.4,0,10.5,0,.4-2,.6-3.4.8-5.8-2.4.2-10.7.3-12.2.3"/><path class="cls-10" d="M54.5,32.3s0,0,0,0"/><path class="cls-10" d="M53.3,31.4c.2.9.4,6.1,1,7.4,4,.1,9.3,0,12.7-.1.5-2.7.7-5,1-7.7"/><path class="cls-10" d="M85.3,32.5c0,.3-.5,5.8-.9,5.8-3.3,0-7.8,0-11,0-.4-2.1-.6-3.6-.9-6,2.3.1,10.9.3,12.7.3"/><path class="cls-10" d="M72.4,39.2c-.5-2.8-.8-5.2-1-8"/><path class="cls-10" d="M86.6,31.6s0,0,0,0c-.2,1.7-.6,7.3-1,7.8"/><path class="cls-10" d="M86.5,33.1c2.5,1.6,4.5-1.1,7.2-1.1"/><path class="cls-10" d="M53.9,33.3s0,0-.1,0c-.6,0-1.6.3-2.1.3.3,2,.4,3.4,2.9,2.4"/><path class="cls-10" d="M68,32.4c1.2,0,2.3,0,3.5-.1"/><path class="cls-10" d="M67.7,34.1c1.4,0,2.8-.2,4.1-.1"/><path class="cls-10" d="M53.3,31.2c.2,0,14.5-.4,14.7-.5"/><path class="cls-10" d="M71.6,30.8c.3,0,14.9.5,15.1.6"/><path class="cls-10" d="M72.4,39.2c.3,0,13.3,0,13.5,0"/><path class="cls-10" d="M93.9,31.8c.9.8,1.2,3.6-.2,4.3"/><path class="cls-10" d="M77.4,60.7c-3.7,1.5-12.7,2.9-16,3.6.9,1.3.9,1.9,1.5,3.1"/><path class="cls-10" d="M16,90.4c-2.2-1.7-2.5-7.7-1-9.8,1.6-2.2,5.3-2.8,7.9-3,6.9-.5,13.2-1.8,19.4-3.6,16.3-4.5,26.7-10.4,42.9-9.4"/><path class="cls-10" d="M91.8,81c-3.2,5.6-16.8,5.3-22.2,6.2-16,2.4-31.9,6.8-48.1,3.6"/><path class="cls-10" d="M77.4,60.7c1.4-.5,10.7-4.9,13.7-7.8.2,2.6.2,4.8,0,7.3"/><path class="cls-10" d="M54.8,90c0,2.3-.2,2.6-.2,5"/><path class="cls-10" d="M63.4,112.4c-.3-.5-.6-1-.8-1.4"/><path class="cls-10" d="M91.3,55.4c7.7,12.2,2.4,28.9,2.5,42.8-1.3,15,0,28.7-.4,44.1-5,.3-13.7-.7-16.4-4.3-1.8-2.5-9.9-19-13.6-25.5"/><path class="cls-10" d="M52.1,90.3c4.6,10.3,10.6,20.5,15.1,30.1"/><path class="cls-10" d="M16.3,103.7c-1.3,14.2-1.3,29.6-.9,43.7,7.3.6,15,1,22.2.4.4-7.5-.2-16.2-.7-23.7-.7-4.8-2.1-12.7-.9-16.8"/><path class="cls-10" d="M16.8,100.5c0,.2,0,.4-.1.7"/><path class="cls-10" d="M17.3,97.1s0,0,0,.1"/><path class="cls-10" d="M18.1,93.5h0"/><path class="cls-10" d="M92.4,142.1c-1.2,8.3-8.2,18.3-17.6,18.3-6.1.4-11.7.8-17.3-1.2-12.2-3.2-16.7-24.9-20.4-35.3"/><path class="cls-10" d="M22.9,77.6c3.3-8.4,15.3-8.6,20.7-4.1"/><path class="cls-10" d="M89.1,46.7c.3,2.4-.2,5.3.2,7.7"/><path class="cls-10" d="M15.4,146.6c0,.4,0,.8,0,1.1-6.3-.2-16,4.6-15.1,12.1,6.5.8,12.8,1,19.5.5,6.2-.2,13.5.6,19.4-1.2.3-3.2.5-9.2-1.9-11.6"/><path class="cls-10" d="M66.1,60c.2,1.5,0,2.1,0,3.4"/><path class="cls-11" d="M15.3,103.7c6.9,1.9,9-1.4,1.5-3.3-5.2-1.1-.3-3.8,2.7-3.4,4.7,0,2.4-3.9-1.4-3.6-2.3,0-5.7,0-3.9-2.2.2-.3.9-.6,1.8-.8,5.4-1.7,9.1,2.9,2.1,3-1.6,0-3.7,0-4.1,1.4-1.2,3.4,3.5,1.9,5.5,2.2.7,0,1.3.2,1.6.7,1.9,2.7,0,3.1-2.3,3.3-1.2.1-3.2,0-3.9.7-1,1.6.6,2,1.8,2"/><path class="cls-11" d="M84.9,64.6c2.3-2,4.8-4.1,6.4-6.5"/></svg>