<?xml version="1.0" encoding="UTF-8"?><svg id="USA" xmlns="http://www.w3.org/2000/svg" width="107" height="161" viewBox="0 0 107 161"><defs><style>.cls-1{fill:#3a3a3a;}.cls-1,.cls-2,.cls-3,.cls-4,.cls-5,.cls-6,.cls-7,.cls-8,.cls-9,.cls-10,.cls-11,.cls-12{stroke-width:0px;}.cls-2{fill:#152b50;}.cls-13{stroke-linecap:round;stroke-linejoin:round;}.cls-13,.cls-14{fill:none;stroke:#000;stroke-width:.6px;}.cls-3{fill:#847b63;}.cls-4{fill:#937667;}.cls-5{fill:#282c2d;}.cls-6{fill:#9b7a6b;}.cls-14{stroke-miterlimit:10;}.cls-7{fill:#000;}.cls-8{fill:#967369;}.cls-9{fill:#444545;}.cls-10{fill:#fff;}.cls-11{fill:#bdbec1;}.cls-12{fill:#9b7a6c;}</style></defs><path class="cls-5" d="M62.7,7.8c4.4-3,11.4-2.6,15.4-4.5.3,0,1.6-.7,1.1-2.7h.1c14.6.7,16.7,8.2,18.2,9.9,1.7,3.7,3.7,7.7,4.2,15.7.2,2.6-.7,9.3-1.2,11.8,0,.3,0-2.5,0-2.2h-1.2c.7-1,.5-3.2-.3-3.9h-.3c-2.5.1-4.2,2.5-6.6,1.5.3-7.7-.4-15.8-1.7-16.9-3.5-3-10.8,1.4-16.4,1.4s-11.6-7.7-14.8,3.2c-.8,2.6-.6,2.1-1,4.6h0c0,1.8.2,3.8.5,5.7.1.7.2,1.4.3,2.1,0,0-.2,0-.3,0-.2,0-.5,0-.7.1v-.3c-.8-3.7-1-5.5-1.1-7.7h0c.3-1.4.5-2.8.7-3.9.9-5.1,4.4-12.6,4.9-13.8,0,0,.2-.1.2-.2Z"/><path class="cls-5" d="M99.2,35.8h1.2c-1,4.4-2,9.5-4.4,12.5-.2.3-.3-.8-.5-.6-.5.5-.8.9-1.2,1.3,0-.8,0-1.6-.1-2.3h0c.1-1,.2-2,.2-2.9h0c.9.6,1.9.6,2.7-1.7.5-1.4,1.7-4.1,1.7-6,.2,0,.3-.2.4-.4Z"/><path class="cls-2" d="M60.9,50.5c6.1,2.6,14,5.9,21.7,9,.7.3,1.3.5,1.9.8,2.6,1,5,2,7.4,2.9h0c1.6-.8,3-1.8,4.1-3.2.2-1.7.2-3,.2-4.4h0c1.8,1.8,3.9,9.5,4.1,12,.3,3.3,0,7-.4,11.7-.5,6.3-.7,12.9-1.2,19.1-1,12.8-.4,12.4-.4,25.3,0,1.3.1,17.4,0,18.7-.3,0-.7,0-1,0-4.7.2-12.9-1-15.4-4.3-1.8-2.5-10.1-19.3-13.7-25.7-1.5-2.9-3.1-6-5-9-.6-.9-1.8-3.4-3.4-6.7.2-2.5,1.9-13.5,2.7-19.8.3-1.9.4-3.4.5-4.1-5.2-4-11.2-8.6-14-11.2-5.5-5-3.9-3.9-9.1-9.1-2.7-2.7-1.7-9.2.9-16.6,1.8-5.2,4.3-10.7,6.8-15.7,1.1-2.1,3.9-9.8,6.2-14.1,0,0,0,0,0,0,2.8.7,6.3,1.4,8.7,1.6,0,0-.2.1-.2.2-.6,1.2-4,8.7-4.9,13.8-.2,1.2-.5,2.5-.7,3.9h0c-1.8,8.8-4.7,21.2-4.7,21.2,1.7.7,4.9,2,8.8,3.7Z"/><path class="cls-9" d="M98.6,32.1h.3c.8.6,1.1,2.8.3,3.8-.1.2-.3.3-.4.4,0-1-.3-1.8-1.1-2.2-1.8-.8-3.6.3-3.6,2.8s-1.4.5-2.3.3c.1-1.2.2-2.4.2-3.6,2.4,1.1,4.1-1.4,6.6-1.4Z"/><path class="cls-4" d="M98.8,36.2c0,2-1.3,4.7-1.7,6-.8,2.3-1.8,2.3-2.7,1.7h0c0,.9,0,1.9-.2,2.9-.4,3-1.1,5.9-2.2,6.7h0c-4,3.2-6.4,4.8-9.3,6-7.6-3.1-15.6-6.4-21.7-9-.5-1-.5-1.4-1-3.4-.6-2.7-.7-6-.6-8.2,0,0,0,0,0,0,4,.1,9.3,0,12.6-.1.3-1.7.5-3.1.7-4.6h0c1.3,0,2.6-.2,4-.1.2,1.8.4,3.3.7,5.2h13.2c.3-.4.6-4,.8-6.1h0c.2,0,.3.2.5.2,0,1.2-.1,2.5-.2,3.6.9.2,2.3.4,2.3-.3,0-2.5,1.7-3.5,3.6-2.8.9.4,1.2,1.2,1.1,2.2Z"/><path class="cls-3" d="M22.3,97.8c0-.1,0-.4.1-.8,0,0,0,0,0,0,0,.4,0,.7-.1.8ZM22.4,97c0-.1,0-.2,0-.3,0,.1,0,.2,0,.3ZM42.1,124c.1,1,.2,2,.2,3.1,0,6.5.9,14.2.4,20.7,0,0,0,0,0,0-7.2.6-14.8.2-22.1-.4h0c-.6-8.3,0-18,0-26.6s.2-10.6.8-15.8c.2-2.2,1.2-8.1,1.3-8.4h0c.3-1.9.8-5.2,1.1-6.1,2.2-11.3,4.3-18.9,13.3-19.5,5.1-.3,8.7,0,11.8,2.6,1.3,2,7.3,14.8,11.3,23,1.6,3.2,2.9,5.8,3.4,6.7,1.9,3,3.6,6.1,5,9,3.6,6.4,11.9,23.1,13.7,25.7,2.4,3.4,10.7,4.5,15.4,4.3-.7,4.4-2.4,7.9-5.6,12-3.1,4-7.2,5.8-11.9,6-6.1.4-11.7.8-17.2-1.2-5.5-2-9.1-6.2-12.6-12.6-.7-1.3-7.3-21.3-7.8-22.7h-.2Z"/><path class="cls-11" d="M96.3,55.5c0,1.5,0,2.8-.2,4.4-1.1,1.4-2.5,2.4-4.1,3.2h0c-2.3-.9-4.8-1.9-7.4-2.9,2.3-1,7.1-3.8,9.8-5.7.8-.6,1.4-1.1,1.7-1.5,0,.9.1,1.7.1,2.4Z"/><path class="cls-8" d="M94.3,49.1c0,.8-.1,1.6-.1,2.4s.2,2.1.2,3h0c-2.7,2-7.5,4.7-9.8,5.8-.6-.3-1.3-.5-1.9-.8,2.9-1.2,5.3-2.8,9.3-6h0c1-.8,1.8-3.7,2.2-6.7h0c.1.7.1,1.5.1,2.3h0Z"/><path class="cls-4" d="M73,30.9l-14.5.5c-.3-1.9-.5-3.9-.5-5.7h0c.4-2.5.2-2,1-4.6,3.3-10.9,9.4-3.2,14.8-3.2s12.8-4.4,16.4-1.4c1.3,1.1,2,9.2,1.7,16.9-.2,0-.3-.1-.5-.2h0c0-.9.1-1.6.1-1.6v-.2s-14.9-.5-14.9-.5l-.3.3c0,.4,0,.8.1,1.1-1.1,0-2.3.1-3.4.1h-.2c0-.4,0-.9.1-1.4v-.2ZM80.8,30.5c3.2-.7,6.8.4,7.1-.5-.1-.9-2.2-1.2-2.8-1.5-1.2-.7-3.6,0-4.8.6.2.6,0,1.2.4,1.3ZM69,30.6c.8-2.2-1.2-2.4-3-2.3-1.9,0-4.1,1.5-4.4,2.6,1.9-.6,5.9-.7,7.4-.3Z"/><path class="cls-9" d="M76.7,34.1c0-.5-.1-1.1-.2-1.7,0-.4,0-.7-.1-1.1l.3-.3,14.9.5v.2s0,.6-.1,1.6c-.2,2.1-.5,5.7-.8,6.2h-13.2c-.3-2-.6-3.5-.7-5.3ZM90.4,32.6q0,0,0,0c-.7,0-3.6,0-6.5-.1-2.4,0-4.9-.1-6.1-.2.3,2.4.4,3.9.9,6,1.5,0,3.3,0,5.3.1,1.9,0,4,0,5.7,0,.3,0,.8-5.1.8-5.7h0Z"/><path class="cls-9" d="M90.4,32.6q0,0,0,0h0Z"/><path class="cls-10" d="M90.4,32.6c0,.6-.5,5.7-.8,5.7-1.7,0-3.8,0-5.7,0v-1.4c.5,0,.9-.8.9-1.8s-.4-1.8-.8-1.8v-.9c2.9,0,5.8.1,6.5.1Z"/><path class="cls-5" d="M87.9,30c-.3.8-3.9-.3-7.1.5-.4-.1-.2-.7-.4-1.3,1.1-.7,3.5-1.3,4.8-.6.5.3,2.6.6,2.8,1.5Z"/><path class="cls-7" d="M83.8,33.4c.5,0,.8.8.8,1.8s-.4,1.8-.8,1.8-.8-.8-.8-1.8.4-1.8.8-1.8Z"/><path class="cls-10" d="M83.8,32.5v.9c-.5,0-.9.8-.9,1.8s.4,1.8.8,1.8v1.4c-2,0-3.8,0-5.3-.1-.4-2.1-.6-3.6-.9-6,1.3,0,3.7.2,6.1.2Z"/><path class="cls-12" d="M79.1.6c.5,1.9-.7,2.6-1.1,2.7-3.9,1.9-11,1.5-15.4,4.5-2.4-.2-5.9-.9-8.7-1.6h0c.6-1.5-1.7-5.9,4.6-5.7,5.9-.4,14.9-.1,20.4-.1,0,.1,0,.2.1.3Z"/><path class="cls-9" d="M76.5,32.4c0,.6.1,1.2.2,1.7-1.3,0-2.6.1-4,.1h0c0-.6.1-1.1.2-1.7h.2c1.2,0,2.3,0,3.4,0Z"/><path class="cls-9" d="M59.4,36.3c-.2-.8-.4-1.8-.6-2.8h0c-.1-.7-.2-1.3-.3-2.1l14.5-.5v.2c0,.5,0,.9-.1,1.4,0,.6-.1,1.2-.2,1.7-.2,1.6-.4,3-.7,4.6-3.3.1-8.6.2-12.6.1,0,0,0,0,0,0,0-1.5.1-2.5.1-2.5,0,0,0-.1,0-.2ZM59.6,32.4s0,0,0,0h0c0,.6.5,5.5.8,5.5,1.9,0,4.2,0,6.3,0,1.6,0,3.1,0,4.2,0,.4-2,.6-3.4.8-5.8-1.1,0-3,.1-5.1.2-3,0-6.3.1-7.1.1,0,0,0,0,0,0Z"/><path class="cls-10" d="M71.8,32.1c-.2,2.3-.4,3.8-.8,5.8-1.2,0-2.7,0-4.2,0v-1c.4,0,.8-.8.8-1.7s-.3-1.7-.8-1.7v-1.2c2,0,4-.1,5.1-.2Z"/><path class="cls-5" d="M66,28.3c1.8,0,3.8.1,3,2.3-1.6-.4-5.5-.3-7.4.3.4-1.1,2.5-2.6,4.4-2.6Z"/><path class="cls-7" d="M66.7,33.6c.4,0,.8.8.8,1.7s-.3,1.7-.8,1.7-.8-.8-.8-1.7.3-1.7.8-1.7Z"/><path class="cls-10" d="M66.7,37v1c-2.1,0-4.4,0-6.3,0-.3,0-.7-4.9-.8-5.5.8,0,4,0,7.1-.1v1.2c-.4,0-.7.8-.7,1.7s.3,1.7.8,1.7Z"/><path class="cls-2" d="M63.1,72.8c0,.7-.2,2.1-.5,4.1-19-12.8-27.9-22.3-29.3-26.4-1.6-4.6-14-30.3-16.3-42.4,3-.2,8.4-.7,11.4-1.2.6,2,3.9,12.4,5.5,15.7,2.2,4.5,5,8.5,6.8,13.3h.1c-2.5,7.4-3.5,14-.9,16.6,5.2,5.2,3.5,4,9.1,9.1,2.8,2.6,8.8,7.2,14,11.2Z"/><path class="cls-9" d="M58.6,33.5c0,.9.2,2,.3,2.9-2.2.5-1.6-1.1-2.1-2.6.2,0,.6-.1,1.1-.2.3,0,.5,0,.7-.1Z"/><path class="cls-1" d="M42.7,147.8c1.9,2.5,1.8,8.2,1.5,11.2-2.1,1.2-7,1-9.4,1.1-3.3.3-6.7,0-10,0s-6.5.6-9.7.4c-3.4-.2-6.4-.6-9.7-.8-.5-3.7,1.6-6.5,4.5-8.6,2.5-1.8,7.5-3.9,10.6-3.4,0-.1,0-.2,0-.4,7.3.6,14.9,1,22.1.4Z"/><path class="cls-6" d="M34.8.5c1.9,0,7,.2,6.9,1.3-.4,3.1-4.9,3.3-7.1,3.7-6,1.2-6.1,1.4-6.1,1.4-2.9.4-8.4,1-11.4,1.2-.5-2.6-.5-4.6.1-5.6,2.2-3.1,12.8-2,17.6-2Z"/><path class="cls-3" d="M22.4,97c0,0,0-.2,0-.3,0,0,0,.2,0,.3Z"/><path class="cls-3" d="M22.4,97s0,0,0,0c0,.4,0,.6-.1.8,0-.2,0-.5.1-.8Z"/><path class="cls-13" d="M82.6,59.5s0,0,0,0c2.9-1.2,5.3-2.8,9.3-6,0,0,.1,0,.2-.1"/><path class="cls-13" d="M58.9,33.4c.2,1,.4,2,.6,2.8,0,0,0,.1,0,.2,0,0,0,1-.1,2.5,0,2.2,0,5.5.6,8.2.4,2,.4,2.3,1,3.4,0,0,0,0,0,.1"/><path class="cls-13" d="M58.2,23.2c-.1.7-.2,1.6-.2,2.5,0,1.8.2,3.8.5,5.7.1.7.2,1.4.3,2.1"/><path class="cls-13" d="M61.6,30.9c1.9-.6,5.9-.7,7.4-.3"/><path class="cls-13" d="M80.8,30.5c3.2-.7,6.8.4,7.1-.5"/><path class="cls-13" d="M72.8,40c-.8,1-2.3,1-3.1,2.6,0,2.1.9,2.6,2.2,3.1"/><path class="cls-13" d="M58.1,25.7c.4-2.5.2-2,1-4.6,3.3-10.9,9.4-3.2,14.8-3.2s12.8-4.4,16.4-1.4c1.3,1.1,2,9.2,1.7,16.9,0,1.2-.1,2.5-.2,3.6.9.2,2.3.4,2.3-.3,0-2.5,1.7-3.5,3.6-2.8.9.4,1.2,1.2,1.1,2.2,0,2-1.3,4.7-1.7,6-.8,2.3-1.8,2.3-2.7,1.7"/><path class="cls-13" d="M97.5,10.5c-1.5-1.7-3.6-9.2-18.2-9.9"/><path class="cls-13" d="M56.8,25.6c0-.1,0-.3,0-.4"/><path class="cls-13" d="M57.8,33.3c-.8-3.7-1-5.5-1-7.7"/><path class="cls-13" d="M94.3,49.1c.4-.4.8-.7,1.2-1.3.2-.3.3.8.5.6,2.4-3,3.4-8.1,4.4-12.5,0-.3,0,2.5,0,2.2.5-2.5,1.4-9.2,1.2-11.8-.5-8-2.6-12-4.2-15.7"/><path class="cls-13" d="M93.8,49.5c.2-.2.3-.3.5-.4"/><path class="cls-13" d="M94.3,42.3c0,.5,0,1,0,1.6,0,.9,0,1.9-.2,2.9-.4,3-1.1,5.9-2.2,6.7,0,0,0,0-.1,0"/><path class="cls-13" d="M61.6,30.9c.4-1.1,2.5-2.6,4.4-2.6,1.8,0,3.8.1,3,2.3"/><path class="cls-13" d="M80.8,30.5c-.4-.1-.2-.7-.4-1.3,1.1-.7,3.5-1.3,4.8-.6.5.3,2.6.6,2.8,1.5"/><path class="cls-13" d="M68.8,51.8c4.1,1.5,10,.7,14-1.8"/><path class="cls-13" d="M96,36.6c0,1.2-.3,2.3-.9,3.3"/><path class="cls-13" d="M66.7,33.6c.4,0,.8.8.8,1.7s-.3,1.7-.8,1.7-.8-.8-.8-1.7.3-1.7.8-1.7Z"/><path class="cls-13" d="M83.8,33.4c.5,0,.8.8.8,1.8s-.4,1.8-.8,1.8-.8-.8-.8-1.8.4-1.8.8-1.8Z"/><path class="cls-13" d="M59.6,32.4h0s0,0,0,0c0,.6.5,5.5.8,5.5,1.9,0,4.2,0,6.3,0,1.6,0,3.1,0,4.2,0,.4-2,.6-3.4.8-5.8-1.1,0-3,.1-5.1.2-3,0-6.3.1-7.1.1h0"/><path class="cls-13" d="M59.6,32.5s0,0,0,0"/><path class="cls-13" d="M58.4,31.6c0-.4,0,.5.2,1.9,0,.9.2,2,.3,2.9.2,1.3.3,2.4.5,2.5,0,0,0,0,0,0,4,.1,9.3,0,12.6-.1.3-1.7.5-3.1.7-4.6,0-.5.1-1.1.2-1.7,0-.4,0-.9.1-1.4"/><path class="cls-13" d="M90.4,32.6q0,0,0,0c0,.6-.5,5.7-.8,5.7-1.7,0-3.8,0-5.7,0-1.9,0-3.8,0-5.3-.1-.4-2.1-.6-3.6-.9-6,1.3,0,3.7.2,6.1.2,2.9,0,5.8.1,6.5.1h0"/><path class="cls-13" d="M77.4,39.3c-.3-1.9-.6-3.4-.7-5.2,0-.5-.1-1.1-.2-1.7,0-.4,0-.7-.1-1.1"/><path class="cls-13" d="M91.6,31.7s0,0,0,0c0,0,0,.6-.1,1.6-.2,2.1-.5,5.7-.8,6.2,0,0,0,0,0,0"/><path class="cls-13" d="M91.5,33.2c.2,0,.3.2.5.2,2.4,1.1,4.1-1.4,6.6-1.4h0"/><path class="cls-13" d="M59,33.4s0,0-.1,0h0c0,0-.2,0-.3,0-.2,0-.5,0-.7.1-.4,0-.8.2-1.1.2.5,1.5-.1,3.1,2.1,2.6.2,0,.3,0,.5-.1,0,0,.2,0,.2,0"/><path class="cls-13" d="M73.1,32.5c1.2,0,2.3,0,3.4-.1h0"/><path class="cls-13" d="M72.7,34.2c1.3,0,2.6-.2,4-.1,0,0,.1,0,.2,0"/><polyline class="cls-13" points="58.4 31.4 58.5 31.4 73 30.9 73.1 30.9"/><polyline class="cls-13" points="76.7 30.9 91.6 31.5 91.8 31.5"/><polyline class="cls-13" points="77.4 39.3 90.7 39.4 90.9 39.4"/><path class="cls-13" d="M98.9,31.9c.8.7,1.1,2.9.3,3.9-.1.2-.3.3-.4.4,0,0,0,0,0,0"/><path class="cls-13" d="M84.2,60.4c0,0,.2,0,.3-.1,2.3-1,7.1-3.8,9.8-5.7.8-.6,1.4-1.1,1.7-1.5,0,.9.1,1.7.1,2.4,0,1.5,0,2.8-.2,4.4,0,.2,0,.3,0,.5"/><path class="cls-13" d="M63.1,72.6s0,0,0,.2c0,.7-.2,2.1-.5,4.1-.8,6.3-2.5,17.3-2.7,19.8,0,.1,0,.2,0,.3"/><path class="cls-13" d="M96.3,55.5c1.8,1.8,3.9,9.5,4.1,12,.3,3.3,0,7-.4,11.7-.5,6.3-.7,12.9-1.2,19.1-1,12.8-.4,12.4-.4,25.3,0,1.3.1,17.4,0,18.7-.3,0-.7,0-1,0-4.7.2-12.9-1-15.4-4.3-1.8-2.5-10.1-19.3-13.7-25.7-.3-.5-.5-.9-.7-1.2"/><path class="cls-13" d="M48.7,73.6c1.3,2,7.3,14.8,11.3,23,1.6,3.2,2.9,5.8,3.4,6.7,1.9,3,3.6,6.1,5,9,1.5,3,2.8,5.9,3.9,8.1"/><path class="cls-13" d="M22.5,96.6c0,.2-1,6.2-1.3,8.4-.5,5.3-.8,10.5-.8,15.8,0,8.6-.6,18.3,0,26.6h0c7.3.6,14.9,1,22.1.4,0,0,0,0,0,0,.5-6.4-.4-14.1-.4-20.7s0-2.1-.2-3.1c-.3-1.9-.7-3.7-.9-6.3-.3-3.1-.5-7.1,0-10.5"/><path class="cls-13" d="M22.4,97c0-.1,0-.2,0-.3"/><path class="cls-13" d="M22.3,97.8c0-.1,0-.4.1-.8,0,0,0,0,0,0"/><path class="cls-13" d="M22.4,97c0,.4,0,.7-.1.8,0,0,0,0,0,0s0,0,0,0c0,0,0,0,0,0t0,0s0,0,0,0"/><path class="cls-13" d="M22.4,97s0,0,0,0"/><path class="cls-13" d="M22.5,96.7c0,.1,0,.2,0,.3"/><path class="cls-13" d="M22.5,96.7s0,0,0,0c0,0,0,0,0,0"/><path class="cls-13" d="M23.6,90.4c-.3.9-.8,4.2-1.1,6.1h0"/><path class="cls-13" d="M97.5,142.1c0,0,0,.1,0,.2-.7,4.4-2.4,7.9-5.6,12-3.1,4-7.2,5.8-11.9,6-6.1.4-11.7.8-17.2-1.2-5.5-2-9.1-6.2-12.6-12.6-.7-1.3-7.3-21.3-7.8-22.7"/><path class="cls-13" d="M23.6,90.4c2.2-11.3,4.3-18.9,13.3-19.5,5.1-.3,8.7,0,11.8,2.6"/><path class="cls-13" d="M94.2,46.8c.1.7.1,1.5.1,2.3h0c0,.8-.1,1.6-.1,2.4s.2,2.1.2,3"/><path class="cls-13" d="M20.5,146.6c0,.3,0,.5,0,.8,0,.1,0,.2,0,.4-3.1-.4-8,1.6-10.6,3.4-2.9,2.1-5,4.9-4.5,8.6,3.2.3,6.3.6,9.7.8,3.3.2,6.3-.4,9.7-.4s6.8.2,10,0c2.4-.2,7.2,0,9.4-1.1.3-3,.4-8.7-1.5-11.2-.1-.1-.2-.3-.3-.4"/><path class="cls-13" d="M62.5,7.8s0,0,0,.2c-.6,1.2-4,8.7-4.9,13.8-.2,1.2-.5,2.5-.7,3.9h0c-1.8,8.8-4.7,21.2-4.7,21.2,1.7.7,4.9,2,8.8,3.7,6.1,2.6,14,5.9,21.7,9,.7.3,1.3.5,1.9.8,2.6,1,5,2,7.4,2.9"/><path class="cls-13" d="M84.4,85.8c-3.5-.7-12.1-5.9-15.4-8.5-1.6-1.3-3.7-2.8-5.9-4.5-5.2-4-11.2-8.6-14-11.2-5.5-5-3.9-3.9-9.1-9.1-2.7-2.7-1.7-9.2.9-16.6,1.8-5.2,4.3-10.7,6.8-15.7,1.1-2.1,3.9-9.8,6.2-14.1,0,0,0,0,0,0"/><path class="cls-13" d="M62.7,76.8s0,0,0,0c-19-12.8-27.9-22.3-29.3-26.4-1.6-4.6-14-30.3-16.3-42.4-.5-2.6-.5-4.6.1-5.6,2.2-3.1,12.8-2,17.6-2s7,.2,6.9,1.3c-.4,3.1-4.9,3.3-7.1,3.7-6,1.2-6.1,1.4-6.1,1.4.6,2,3.9,12.4,5.5,15.7,2.2,4.5,5,8.5,6.8,13.3"/><path class="cls-13" d="M28.4,6.9c-2.9.4-8.4,1-11.4,1.2-.3,0-.5,0-.7,0"/><path class="cls-13" d="M53.5,6.1c.1,0,.2,0,.4,0,0,0,0,0,0,0,2.8.7,6.3,1.4,8.7,1.6,0,0,.1,0,.2,0"/><path class="cls-14" d="M91.6,63.3c.1,0,.2-.1.3-.2,1.6-.8,3-1.9,4.1-3.2.3-.3.5-.7.8-1"/><path class="cls-13" d="M58.6.5c5.9-.4,14.9-.1,20.4-.1,0,.1,0,.2.1.3.5,1.9-.7,2.6-1.1,2.7-3.9,1.9-11,1.5-15.4,4.5,0,0-.2.1-.2.2-.1,0-.3.2-.4.3"/><path class="cls-13" d="M54,6.1c.6-1.4-1.7-5.8,4.6-5.6"/></svg>