<?xml version="1.0" encoding="UTF-8"?><svg id="USA" xmlns="http://www.w3.org/2000/svg" width="83" height="280" viewBox="0 0 83 280"><defs><style>.cls-1{fill:#3a3a3a;}.cls-1,.cls-2,.cls-3,.cls-4,.cls-5,.cls-6,.cls-7,.cls-8,.cls-9,.cls-10{stroke-width:0px;}.cls-2{fill:#152b50;}.cls-11{stroke-linecap:round;stroke-linejoin:round;}.cls-11,.cls-12{fill:none;stroke:#000;stroke-width:.6px;}.cls-3{fill:#847b63;}.cls-4{fill:#282c2d;}.cls-5{fill:#9b7a6b;}.cls-12{stroke-miterlimit:10;}.cls-6{fill:#000;}.cls-7{fill:#444545;}.cls-8{fill:#b32a2e;}.cls-9{fill:#dad9e1;}.cls-10{fill:#fff;}</style></defs><path class="cls-1" d="M82.2,267.9c1.3,1.7.5,4.1-.6,5.8-4.8,6.8-14.5,8.9-20.2,2.2-2.3-2.7-3.9-5.1-7-6.7-3.8-1.9-3.8-1.3-4.7-4.1v-.2c.4.1.7.2,1.2,0h0c2.6,1.7,6.8,4.1,9,6.2,2.1,2.1,4.3,4.3,7,5.2,5.1,1.9,13.9-2.7,15.4-8.6Z"/><path class="cls-1" d="M82.2,267.9c-1.5,5.9-10.4,10.4-15.4,8.6-2.6-1-4.9-3.2-7-5.2-2.2-2.1-6.4-4.5-9-6.1h0c.8-.2,1.9-.7,3.9-1.6,2-1,9.7-5.5,12.5-8.9l1.2.2c1.6,1.1-.1-.2,1.7.5,4.6,1.7,13.6,4.7,12.3,12.1,0,.2,0,.3-.1.5Z"/><path class="cls-2" d="M69.1,119.9s0,0,0-.1c0,0,0,0,0,.1ZM69.1,120c-.4.7-.8,1.3-1.1,1.9.4-.6.9-1.4,1.1-1.9ZM16.5,143.9c0-1.4,0-2.9,0-4.5,0-11.2,0-25,0-32.2s0-4.7-.2-6.6c-1,4.8-3.6,19.3-4.3,21,2.6,4.1,3.4,13.2,4,17.8-3.1-.4-5.6,1.7-7.8,4-.3.3-.5.6-.7.9-.4-1-.2-1-.7-2.1-2.3-5.4-3.6-11.8-4.4-17.6h0c-2-19,2.7-44,6-48.9,1.9-2.8,6.1-7.3,9.1-8.1,1.9-.5,7.3-1.1,9.1-.9h.2c-1.5,3.7,5.6,9.7,7.2,10.5,0,0,.3-1.1,1.1-2.4h0c1.4,3.9,6.4,2.9,7.5-.5,1.5,1.5,2.3,2.7,2.3,2.7.4-.3,3.7-4.6,4-5.1,1.3-2.1,1.6-3.8.9-5.5,2.1.4,1.6-.2,3.5,0h0c2.5.2,8.3,1.1,9.7,1.8,3.1,1.5,9,7.9,10.4,11.2,9.7,23,6,47.3,6,47.3-.3,5.7-4.2,13.6-7,19.4-2.1-1.3-4.2-2.8-6.6-3.6-.7-.2-1.3-.4-1.8-.4h0c1.1-3.8.8-8,1.2-10.8.6-4.3,1.2-6.4,2.8-9.2-.2.3-.3.5-.4.5.8-3.4-3-17.4-5.9-27.8h0c-.8,2-2.2,11.4-2.4,13.2-.2,2-.8,4.6-.7,7,0,4.9,2,25.6,2.3,29.9h0c0,.4-.1.7-.2,1.1,0,0,.1,0,.2,0h0c0,.2.3,1.3.3,2.7.6.4,1.1.9,1.6,1.3l-.5.7c-1.4,2.9-12.5,4.2-16.2,4.5-1.6,0-3.7.2-5.9.4-1.4,0-2.9.2-4.3.2-2.6,0-5,0-6.8-.1-2.8-.3-9.6-3.5-12.3-3.6,0-2.2-.1-5-.2-8.2Z"/><path class="cls-9" d="M72.2,146c.6.4,1.2.7,1.8,1.1-.6,1.9-1.6,3.9-2.6,5.5-.4-.6-1-1.2-1.7-1.8-2.6-2.3-6.4-4.2-9.1-4.8,0,0-.1,0-.2,0,0-.4.1-.8.2-1.1.4-2.3,1-3.2,3.2-2.9.5,0,1.1.2,1.8.4,2.4.8,4.5,2.3,6.6,3.6Z"/><path class="cls-5" d="M69.7,151.7c1.8,2.5.3,7.2-.9,9.6,0,0,0,.2-.1.3,1.1-2.6.4-6-6.1-11.4-.5-.4-1-.9-1.6-1.3,0-1.5-.3-2.6-.3-2.7h0c2.7.5,6.6,2.4,9.1,4.7-.2.5,0,.5-.1.9Z"/><path class="cls-3" d="M38.3,166.2h0c0,0-.1-.2-.2-.3-2-3-2.1-5.8-2.4-10.1,1.4,0,2.9-.1,4.3-.2,2.3-.1,4.4-.3,5.9-.4,3.7-.2,14.8-1.5,16.2-4.5l.5-.7c6.5,5.4,7.2,8.8,6.1,11.4-1.3,3.2-5.3,5.3-4.9,8.6,4.3,38.5,4.1,83.4,4.1,83.4-.2.3-.4.7-.7,1-2.7,3.4-10.4,7.9-12.5,8.9-2,1-3.1,1.4-3.9,1.6-.4,0-.8,0-1.1,0-.9-.3-2-1.2-4.9-2.3-1.1-13.7-4.1-83-6.4-96.4Z"/><path class="cls-4" d="M16.6,35.2c-.2,0-.5,0-.8.1v-.3c-5.4-15.2-3.9-18.3-1.4-23.8.3-.7,2.4-3.3,5.1-5.8C22.8,2.4,25.4.8,28.5.4c3.5-.9,10.6,0,10.6,0,6.5.9,13.7,1.8,19.3,7.3,2.9,4.3,5.4,9.8,6,18.6.2,2.9-1,11.3-1.5,14.1,0,.4,0-2.8,0-2.4-1.1,4.8-2.2,10.5-4.9,13.8-.2.3-.3-.9-.6-.6-.7.7-.7.8-1.3,1.3.3-1.5.2-3.5.1-5.6,1,.7,2.1.7,2.9-1.8.5-1.5,1.9-4.5,1.9-6.7,1.4-.6,1.2-3.8.1-4.7l-.3.2c-2.8,0-4.6,2.7-7.3,1.5.3-8.5-.5-17.5-1.9-18.7-3.9-3.3-12,1.5-18.1,1.5s-12.8-8.5-16.3,3.5c-.9,2.9-.7,2.3-1.1,5.1h0c0,1.9.2,4.1.5,6.3.1.8.2,1.5.4,2.3,0,0-.2,0-.3,0Z"/><path class="cls-7" d="M60.8,33.7l.3-.2c1,.9,1.2,4.1-.1,4.7,0-1.1-.3-2-1.3-2.4-2-.9-3.9.3-3.9,3s-1.5.5-2.6.3c.1-1.3.2-2.7.2-4,2.7,1.2,4.5-1.5,7.3-1.5Z"/><path class="cls-5" d="M56.1,46.8c.1,2.1.2,4.1-.1,5.6-.2,1-.6,1.8-1.1,2.3-2.7,2.9-5.4,5.2-8.1,6.9-6.3,4.3-12.2,5.3-16.9,3.4-.3-.1-.5-.2-.8-.3-2.3-1.1-4.2-2.9-5.8-5.5-2-3.2-2.3-3.9-5.2-9-1.7-3.1-1.4-7.5-1-10,.1.6.2,1,.3,1,4.4.1,10.3,0,14-.1.3-1.9.6-3.4.7-5.1h0c1.5,0,2.9-.2,4.4-.1.2,2,.4,3.6.8,5.7h14.6c.3-.4.7-4.4.9-6.7h0c.2.1.3.2.5.3,0,1.4-.1,2.7-.2,4,1,.2,2.6.4,2.6-.3,0-2.7,1.9-3.9,3.9-3,1,.4,1.3,1.3,1.3,2.4,0,2.2-1.4,5.2-1.9,6.7-.8,2.5-2,2.5-2.9,1.8Z"/><path class="cls-5" d="M53.1,33l-16.5-.6-.3.4c0,.4,0,.9.1,1.3-1.3,0-2.5.1-3.8.1h-.2c0-.5,0-1,.1-1.5v-.2s-16,.5-16,.5c-.3-2.1-.5-4.3-.5-6.3h0c.5-2.8.3-2.2,1.1-5.1,3.6-12,10.4-3.5,16.3-3.5s14.2-4.9,18.1-1.5c1.4,1.2,2.2,10.2,1.9,18.7-.2,0-.3-.2-.5-.3h0c0-1,.1-1.7.2-1.7v-.2ZM41.1,32c3.5-.8,7.5.4,7.8-.5-.1-.9-2.5-1.3-3-1.6-1.4-.8-4,0-5.3.7.2.7,0,1.3.5,1.4ZM28.1,32.1c.8-2.4-1.3-2.6-3.3-2.6-2.1,0-4.5,1.7-4.9,2.9,2.1-.7,6.5-.8,8.2-.3Z"/><path class="cls-7" d="M36.4,34.1c0-.4,0-.8-.1-1.3l.3-.4,16.5.6v.2s0,.7-.2,1.7c-.2,2.3-.6,6.3-.9,6.8h-14.6c-.4-2.2-.6-3.8-.8-5.8,0-.6-.1-1.2-.2-1.9ZM51.7,34.3q0,0,0,0c-1.5,0-10.9-.2-14-.4.3,2.7.5,4.3.9,6.6,3.2.1,8.3.2,12.1,0,.3,0,.9-5.7.9-6.3h0Z"/><path class="cls-10" d="M51.7,34.3c0,.7-.6,6.3-.9,6.3-3.8,0-8.9,0-12.1,0-.5-2.3-.7-3.9-.9-6.6,3.1.2,12.5.4,14,.4ZM45.4,37.2c0-1.1-.4-2-.9-2s-.9.9-.9,2,.4,2,.9,2,.9-.9.9-2Z"/><path class="cls-9" d="M42.6,74.2c-.9-.9-2-1.9-3.4-2.8h0c3.3-.4,6.4-2,7.4-5.1,0-.7.1-1.7.2-2.9h.5c1.2,1.1,2,2,2.4,2.9.8,1.7.4,3.4-.9,5.5-.3.5-3.6,4.8-4,5.1,0,0-.8-1.3-2.3-2.7Z"/><path class="cls-4" d="M49,31.4c-.3.9-4.3-.3-7.8.5-.5-.1-.2-.8-.5-1.4,1.2-.7,3.9-1.5,5.3-.7.6.3,2.9.7,3,1.6Z"/><path class="cls-5" d="M37.6,71.4c-3.1-.2-6.1-1.4-7.6-3.7h0c0-.4-.1-.8-.1-1.1,0-.8.3-.5,0-1.4h0c4.7,1.9,10.6.8,16.9-3.5h0c0,.7,0,1.3,0,1.8,0,1.2-.2,2.2-.2,2.9-1,3.1-4.1,4.7-7.4,5-.5,0-1.1,0-1.6,0Z"/><path class="cls-6" d="M44.5,35.2c.5,0,.9.9.9,2s-.4,2-.9,2-.9-.9-.9-2,.4-2,.9-2Z"/><path class="cls-8" d="M39.2,71.5c1.3.8,2.5,1.8,3.4,2.8-1.1,3.4-6,4.4-7.5.5h0c.6-1.1,1.4-2.3,2.5-3.4.5,0,1.1,0,1.6,0h0Z"/><path class="cls-3" d="M12,165.9c-.5-.9-.9-1.8-1.2-2.6,0-.3,0-.5,0-.9,0-1.4,0-2.6,0-3.9.7-1.9,2.5-4,5.7-6.5,2.7,0,9.5,3.3,12.3,3.6,1.7.2,4.2.2,6.8.1.3,4.4.3,7.1,2.4,10.1l-.4.2c0,6-1.1,88.5-1.1,93.8-.8.5-1.5.9-2.2,1.3-9.5,5-13.3-2.8-19.1-8.9,2-11.6-.6-67.3-.2-77.8.1-3.3-1.6-6-3-8.6Z"/><path class="cls-7" d="M36.4,34.1c0,.7.1,1.3.2,1.9-1.5,0-2.9.1-4.4.1h0c0-.6.1-1.2.2-1.9h.2c1.3,0,2.6,0,3.8-.1Z"/><path class="cls-9" d="M30,67.7h0c1.5,2.3,4.5,3.6,7.6,3.7-1.1,1.1-1.9,2.3-2.5,3.3-.7,1.4-1.1,2.4-1.1,2.4-1.6-.8-8.8-6.8-7.2-10.4.3-.8,1-1.4,2.3-1.9h0c.3,0,.5.2.8.3h0c.3,1,0,.7,0,1.5,0,.4,0,.7.1,1.1Z"/><path class="cls-1" d="M34.2,262.8c-1.6,2.2-5.1,2.2-7.2,3.1-2.8,1.2-5.4,2.9-8.2,4-7.4,3.1-11.7,3.6-17.6-2.6h-.2s0,0,0,0c-.2-4.5.5-11.4,14.3-15,5.8,6.1,9.6,13.9,19.1,8.9l.4.7c-.1.3-.3.6-.5.8Z"/><path class="cls-1" d="M.9,267.4h.2c5.9,6.1,10.2,5.7,17.6,2.6,2.8-1.2,5.4-2.8,8.2-4,2.1-.9,5.6-.9,7.2-3.1.1.6,0,1.1-.1,1.8-1,3.2-5.5,3.5-8,4.6-3.7,1.7-8.1,4.6-11.9,5.8-5,1.6-16.9-3.2-13.3-7.7h.2Z"/><path class="cls-7" d="M17.8,34.1s0,0,0,0h0c0,.7.6,6.1.9,6.1,3.7,0,8.5,0,11.6,0,.4-2.2.6-3.8.9-6.4-3,.2-12,.4-13.4.4,0,0,0,0,0,0ZM17.5,38.3h0c-.2-.9-.4-2-.6-3.1h0c-.1-.7-.2-1.5-.4-2.3l16-.5v.2c0,.5,0,1-.1,1.5,0,.7-.1,1.3-.2,1.9-.2,1.7-.4,3.2-.7,5.1-3.7.1-9.5.2-14,.1,0,0-.2-.4-.3-1,.2-1.1.4-1.8.4-1.8,0,0,0-.1,0-.2Z"/><path class="cls-10" d="M31.2,33.8c-.3,2.6-.5,4.2-.9,6.4-3.1.1-7.9.2-11.6,0-.3,0-.8-5.4-.9-6.1,1.5,0,10.4-.2,13.4-.4ZM26.5,37.3c0-1.1-.4-1.9-.8-1.9s-.9.9-.9,1.9.4,1.9.9,1.9.8-.9.8-1.9Z"/><path class="cls-4" d="M24.8,29.6c2,0,4.2.1,3.3,2.6-1.7-.4-6.1-.4-8.2.3.4-1.2,2.8-2.8,4.9-2.9Z"/><path class="cls-6" d="M25.6,35.4c.5,0,.8.9.8,1.9s-.4,1.9-.8,1.9-.9-.9-.9-1.9.4-1.9.9-1.9Z"/><path class="cls-7" d="M16.6,35.2c0,1,.2,2.2.3,3.2-2.5.5-1.8-1.3-2.3-2.9.2,0,.7-.1,1.2-.2.3,0,.6,0,.8-.1Z"/><path class="cls-5" d="M16.5,143.9c0,3.2,0,6,.2,8.2-3.3,2.5-5,4.6-5.7,6.5,0-.8,0-1.7,0-2.6,0-2.5-.2-4.2-.9-6.2,1.9-2.3,3.4-4.2,6.4-5.8Z"/><path class="cls-9" d="M16,139.3c.1,0,.3,0,.4,0,0,1.5,0,3.1,0,4.5-3,1.6-4.6,3.6-6.4,5.8-.5.6-1.1,1.3-1.8,2-2.1-3-2.7-4.9-.8-7.5.2-.3.5-.6.7-.9,2.1-2.4,4.7-4.4,7.8-4Z"/><path class="cls-3" d="M10.8,162.4c0,.3,0,.6,0,.9-.5-1.5-.6-3.1,0-4.8,0,1.3-.1,2.5,0,3.9Z"/><path class="cls-11" d="M17.5,38.3c0,0,0,.1,0,.2,0,0-.2.7-.4,1.8-.4,2.5-.8,6.9,1,10,2.9,5.1,3.2,5.8,5.2,9,1.6,2.6,3.5,4.4,5.8,5.5.3.1.5.2.8.3,4.7,1.9,10.6.8,16.9-3.4,2.6-1.8,5.3-4.1,8.1-6.9"/><path class="cls-11" d="M16.9,35.2c.2,1.1.4,2.2.6,3.1"/><path class="cls-11" d="M16.2,23.9c-.1.8-.2,1.7-.2,2.8,0,1.9.2,4.1.5,6.3.1.8.2,1.5.4,2.3"/><path class="cls-11" d="M19.9,32.4c2.1-.7,6.5-.8,8.2-.3"/><path class="cls-11" d="M41.1,32c3.5-.8,7.5.4,7.8-.5"/><path class="cls-11" d="M32.3,42.5c-.9,1.1-2.6,1.1-3.4,2.8,0,2.3,1,2.9,2.4,3.4"/><path class="cls-11" d="M16.1,26.7c.5-2.8.3-2.2,1.1-5.1,3.6-12,10.4-3.5,16.3-3.5s14.2-4.9,18.1-1.5c1.4,1.2,2.2,10.2,1.9,18.7,0,1.4-.1,2.7-.2,4,1,.2,2.6.4,2.6-.3,0-2.7,1.9-3.9,3.9-3,1,.4,1.3,1.3,1.3,2.4,0,2.2-1.4,5.2-1.9,6.7-.8,2.5-2,2.5-2.9,1.8,0,0,0,0,0,0"/><path class="cls-11" d="M58.4,7.7C52.9,2.2,45.7,1.3,39.2.4"/><path class="cls-11" d="M15.8,35.1c-5.4-15.2-3.8-18.3-1.4-23.8.3-.7,2.4-3.3,5.1-5.8"/><path class="cls-11" d="M55.9,52.5c0,0,.1,0,.1-.1.6-.5.7-.5,1.3-1.3.3-.3.4.9.6.6,2.7-3.3,3.8-9,4.9-13.8,0-.4,0,2.8,0,2.4.5-2.8,1.7-11.1,1.5-14.1-.5-8.8-3.1-14.2-6-18.6"/><path class="cls-11" d="M19.5,5.5C22.8,2.4,25.4.8,28.5.4c3.5-.9,10.6,0,10.6,0"/><path class="cls-11" d="M56,45c0,.6,0,1.2.1,1.8.1,2.1.2,4.1-.1,5.6-.2,1-.6,1.8-1.1,2.3"/><path class="cls-11" d="M26.6,66.7c-1.8-.2-7.2.4-9.1.9-3.1.8-7.2,5.2-9.1,8.1-3.3,4.9-8,29.9-6,48.9"/><path class="cls-11" d="M67.8,122c-.2.3-.3.5-.4.5.8-3.4-3-17.4-5.9-27.8-.5-1.7-1-3.3-1.4-4.7"/><path class="cls-11" d="M69.1,120c-.3.5-.8,1.3-1.1,1.9"/><path class="cls-11" d="M69.2,119.7s0,0,0,.1"/><path class="cls-11" d="M52.4,66.4c.2,0,.5,0,.8,0,2.5.2,8.3,1.1,9.7,1.8,3.1,1.5,9,7.9,10.4,11.2,9.7,23,6,47.3,6,47.3"/><path class="cls-11" d="M15.7,84.7c-.3,5.1.3,9.3.6,15.8.1,2,.2,4.2.2,6.6,0,7.3-.1,21,0,32.2,0,1.5,0,3.1,0,4.5,0,3.2,0,6,.2,8.2,2.7,0,9.5,3.3,12.3,3.6,1.7.2,4.2.2,6.8.1,1.4,0,2.9-.1,4.3-.2,2.3-.1,4.4-.3,5.9-.4,3.7-.2,14.8-1.5,16.2-4.5"/><path class="cls-11" d="M61.5,94.8c-.8,2-2.2,11.4-2.4,13.2-.2,2-.8,4.6-.7,7,0,4.9,2,25.6,2.3,29.9"/><path class="cls-11" d="M10.1,149.7h0c.7,2.1,1,3.8.9,6.2,0,.9,0,1.8,0,2.6,0,1.3-.1,2.5,0,3.9,0,.3,0,.6,0,.9.1,1.8.4,2.2,1.2,2.6.2.1.3.2.6.3"/><path class="cls-11" d="M2,120.8c.1,1.2.3,2.5.4,3.8.8,5.8,2.1,12.2,4.4,17.6.5,1.1.3,1.1.7,2.1,0,0,0,0,0,0"/><path class="cls-11" d="M16.6,99.3c0,.3-.1.7-.3,1.2-1,4.8-3.6,19.3-4.3,21,0,.2-.1.2-.1.1"/><path class="cls-11" d="M11.7,121c.1.2.2.3.4.5,2.6,4.1,3.4,13.2,4,17.8,0,0,0,.2,0,.3"/><path class="cls-11" d="M69.9,150.7c0,0,0,.1,0,.2-.2.5,0,.5-.1.9"/><path class="cls-11" d="M79.3,126.7c-.3,5.7-4.2,13.6-7,19.4,0,0,0,0,0,0"/><path class="cls-11" d="M63.9,142c1.1-3.8.8-7.9,1.2-10.8.6-4.3,1.2-6.4,2.8-9.2,0,0,0,0,0-.1.3-.6.7-1.2,1.1-1.9,0,0,0-.1,0-.2s0,0,0-.1c0,0,0,0,0,0"/><path class="cls-11" d="M68.5,161.7c0,0,0-.1.1-.2,0,0,.1-.2.1-.3,1.2-2.4,2.7-7.1.9-9.6"/><path class="cls-11" d="M16.6,152c-3.3,2.5-5,4.6-5.7,6.5-.7,1.7-.5,3.3,0,4.8.3.9.7,1.8,1.2,2.6,1.4,2.6,3.1,5.3,3,8.6-.5,10.5,2.2,66.1.2,77.8,5.8,6.1,9.6,13.9,19.1,8.9.7-.4,1.4-.8,2.2-1.3,0-5.2,1.1-87.8,1.1-93.8"/><path class="cls-11" d="M38.1,165.1c0,.3.2.7.2,1.1,2.3,13.4,5.3,82.7,6.4,96.4,2.9,1.1,3.9,2,4.9,2.3.3.1.7.2,1.1,0,.8-.1,1.9-.6,3.9-1.6,2-1,9.7-5.5,12.5-8.9.3-.4.5-.7.7-1,0,0,.2-44.9-4.1-83.4-.4-3.4,3.6-5.4,4.9-8.6,1.1-2.6.4-6-6.1-11.4-.5-.4-1-.9-1.6-1.3,0-1.5-.3-2.6-.3-2.7"/><path class="cls-11" d="M1,267.5c0,0,0-.1,0-.2h0c-.2-4.5.5-11.5,14.3-15"/><path class="cls-11" d="M1.2,267.4c5.9,6.1,10.2,5.7,17.6,2.6,2.8-1.2,5.4-2.8,8.2-4,2.1-.9,5.6-.9,7.2-3.1s.3-.5.5-.8"/><path class="cls-11" d="M50.8,265.1c2.6,1.7,6.8,4,9,6.1,2.1,2.1,4.3,4.3,7,5.2,5.1,1.9,13.9-2.7,15.4-8.6,0-.2,0-.3.1-.5,1.4-7.4-7.7-10.4-12.3-12.1-1.9-.7,0,.6-1.7-.5"/><path class="cls-11" d="M.8,267.4c-3.5,4.5,8.4,9.3,13.3,7.7,3.9-1.2,8.2-4.2,11.9-5.8,2.5-1.1,7-1.4,8-4.6.2-.6.2-1.2.1-1.8,0-.1,0-.3-.1-.4"/><path class="cls-11" d="M49.6,265.1c.9,2.7.9,2.1,4.7,4.1,3.1,1.5,4.6,3.9,7,6.7,5.7,6.7,15.5,4.7,20.2-2.2,1.2-1.7,2-4.2.6-5.8,0,0-.2-.2-.3-.3"/><path class="cls-11" d="M46.9,61.8c0,.6,0,1.2,0,1.7,0,1.2-.2,2.2-.2,2.9"/><path class="cls-11" d="M29.9,66.6c0,.4,0,.7.1,1.1,0,.1,0,.2,0,.3"/><path class="cls-11" d="M29.9,65.1c.3,1,0,.6,0,1.4"/><path class="cls-11" d="M49.7,66.3s0,0,0,0c2.1.4,1.6-.2,3.5,0"/><path class="cls-11" d="M19.9,32.4c.4-1.2,2.8-2.8,4.9-2.9,2,0,4.2.1,3.3,2.6"/><path class="cls-11" d="M41.1,32c-.5-.1-.2-.8-.5-1.4,1.2-.7,3.9-1.5,5.3-.7.6.3,2.9.7,3,1.6"/><path class="cls-11" d="M27.9,55.5c4.5,1.6,11,.8,15.5-2"/><path class="cls-11" d="M57.9,38.7c0,1.3-.4,2.5-.9,3.7"/><path class="cls-11" d="M26.5,37.3c0,1.1-.4,1.9-.8,1.9s-.9-.9-.9-1.9.4-1.9.9-1.9.8.9.8,1.9Z"/><path class="cls-11" d="M45.4,37.2c0,1.1-.4,2-.9,2s-.9-.9-.9-2,.4-2,.9-2,.9.9.9,2Z"/><path class="cls-11" d="M17.8,34.2h0"/><path class="cls-11" d="M17.8,34.2c0,.7.6,6.1.9,6.1,3.7,0,8.5,0,11.6,0,.4-2.2.6-3.8.9-6.4-3,.2-12,.4-13.4.4Z"/><path class="cls-11" d="M17.8,34.1h0s0,0,0,0"/><path class="cls-11" d="M17.8,34.2s0,0,0,0"/><path class="cls-11" d="M16.4,33.2c0-.4,0,.6.2,2.1,0,1,.2,2.2.3,3.2,0,.7.2,1.3.3,1.8.1.6.2,1,.3,1,4.4.1,10.3,0,14-.1.3-1.9.6-3.4.7-5.1,0-.6.1-1.2.2-1.9,0-.5,0-1,.1-1.5"/><path class="cls-11" d="M51.7,34.3h0"/><path class="cls-11" d="M51.7,34.3c0,.7-.6,6.3-.9,6.3-3.8,0-8.9,0-12.1,0-.5-2.3-.7-3.9-.9-6.6,3.1.2,12.5.4,14,.4Z"/><path class="cls-11" d="M51.7,34.3q0,0,0,0"/><path class="cls-11" d="M37.4,41.7c-.4-2.1-.6-3.8-.8-5.7,0-.6-.1-1.2-.2-1.9,0-.4,0-.8-.1-1.3"/><path class="cls-11" d="M53.1,33.3c0,0,0,0,0,0,0,0,0,.7-.2,1.7-.2,2.3-.6,6.3-.9,6.8,0,0,0,0,0,0"/><path class="cls-11" d="M53,35c.2.1.3.2.5.3,2.7,1.2,4.5-1.5,7.3-1.5h0"/><path class="cls-11" d="M17,35.2s0,0-.1,0h0c0,0-.2,0-.3,0-.2,0-.5,0-.8.1-.5,0-.9.2-1.2.2.5,1.6-.1,3.4,2.3,2.9.2,0,.4,0,.6-.2h0c0,0,.2,0,.3,0"/><path class="cls-11" d="M32.6,34.2c1.3,0,2.6,0,3.8-.1h0"/><path class="cls-11" d="M32.2,36.1c1.5,0,2.9-.2,4.4-.1,0,0,.1,0,.2,0"/><path class="cls-11" d="M40.4,159.3c-.2-.4-.5-2.2-.4-3.7,0-.1,0-.2,0-.4"/><path class="cls-11" d="M35.6,155.3c0,.2,0,.4,0,.6.3,4.4.3,7.1,2.4,10.1l.2.3"/><polyline class="cls-11" points="16.4 33 16.5 33 32.5 32.5 32.7 32.4"/><polyline class="cls-11" points="36.6 32.4 53.1 33 53.3 33.1"/><polyline class="cls-11" points="37.4 41.7 52 41.8 52.3 41.8"/><path class="cls-11" d="M61.1,33.6c1,.9,1.2,4.1-.1,4.7,0,0,0,0,0,0"/><path class="cls-11" d="M30.1,67.7c1.5,2.3,4.5,3.6,7.6,3.7.5,0,1.1,0,1.6,0,3.3-.3,6.4-1.9,7.4-5"/><path class="cls-11" d="M29.1,64.8c-1.2.5-2,1.2-2.3,1.9-1.5,3.7,5.6,9.6,7.2,10.4,0,0,.3-1.1,1.1-2.4.6-1.1,1.4-2.3,2.5-3.3,0,0,.1-.1.2-.2"/><path class="cls-11" d="M47.3,63.5c1.2,1,2,2,2.4,2.9.8,1.7.4,3.4-.9,5.5-.3.5-3.6,4.8-4,5.1,0,0-.8-1.3-2.3-2.7-.9-.9-2-1.9-3.4-2.8"/><path class="cls-11" d="M35.1,74.7c1.4,3.9,6.4,2.9,7.5-.5,0,0,0,0,0-.2"/><path class="cls-11" d="M16.6,143.8s0,0,0,0c-3,1.6-4.6,3.6-6.4,5.8-.5.6-1.1,1.3-1.8,2-2.1-3-2.7-4.9-.8-7.5.2-.3.5-.6.7-.9,2.1-2.4,4.7-4.4,7.8-4,.1,0,.3,0,.4,0,0,0,0,0,0,0"/><path class="cls-11" d="M60.5,146s0,0,0,0c0,0,.1,0,.2,0,2.7.6,6.6,2.5,9.1,4.8.7.6,1.2,1.2,1.7,1.8,1-1.7,2-3.6,2.6-5.5-.6-.3-1.2-.7-1.8-1.1-2.1-1.3-4.2-2.8-6.6-3.6-.7-.2-1.3-.4-1.8-.4-2.2-.3-2.8.6-3.2,2.9,0,.3-.1.7-.2,1.1,0,.2,0,.4-.1.7"/><path class="cls-12" d="M21,173.2c1.8-.2,3.3-1.2,4-2.7"/><path class="cls-12" d="M54.9,162c1.1,2.3,2.7,4.4,4.6,6"/></svg>